<?xml version="1.0" encoding="utf-8"?>
<!-- Generator: Adobe Illustrator 24.0.1, SVG Export Plug-In . SVG Version: 6.00 Build 0)  -->
<svg version="1.1" id="Layer_1" xmlns="http://www.w3.org/2000/svg" xmlns:xlink="http://www.w3.org/1999/xlink" x="0px" y="0px"
	 viewBox="0 0 300 300" style="enable-background:new 0 0 300 300;" xml:space="preserve">
<path d="M145.3,283.7l10.5,0.3l-0.1,2.6l-3.6-0.1l-0.3,9l-3.3-0.1l0.2-9l-3.6-0.1L145.3,283.7z M78,258.5l2.6,1.9l-2.7,12.5
	l-2.7-2.1l0.6-2.4l-4-2.9l-2.1,1.3l-2.7-2L78,258.5z M77.4,262l-3.4,2.1l2.4,1.8L77.4,262z M147.5,18.7l-4.2,0.5l-2.9-3.5l-2.2,0.2
	l0.4,3.8l-4,0.5l-1.5-14l6.4-0.7c3.8-0.4,6.4,1.3,6.8,4.5c0.3,2.1-0.6,3.7-2.3,4.7L147.5,18.7z M142.3,10.3c-0.1-1.4-1-2.1-2.7-1.8
	l-2.2,0.2l0.4,4.1l2.2-0.2C141.7,12.4,142.5,11.5,142.3,10.3z M171.9,282.7l1.7,11.5l3.3-0.5l-1.7-11.5L171.9,282.7z M152.1,4.5
	l0.1,14.2l4,0L156,4.5L152.1,4.5z M172.7,14.8c-1,1-2.1,1.5-3.5,1.4c-2.3-0.2-3.8-1.9-3.6-4.4c0.2-2.4,2-3.9,4.3-3.7
	c1.4,0.1,2.4,0.8,3.2,1.9l2.7-2.1c-1.2-1.9-3.2-2.9-5.8-3.2c-4.5-0.4-8,2.4-8.4,6.6c-0.5,4.3,2.6,7.7,7.1,8c2.6,0.2,4.8-0.5,6.3-2.1
	L172.7,14.8z M168.6,283.2l-10.4,0.8l0.2,2.6l3.6-0.3l0.6,9l3.3-0.2l-0.6-9l3.6-0.3L168.6,283.2z M131.8,293.8l9.3,1.2l0.3-2.5
	l-6.1-0.8l0.3-2.1l5.1,0.7l0.3-2.5l-5.1-0.6l0.3-2l5.8,0.8l0.3-2.5l-9.1-1.2L131.8,293.8z M38.2,83l-2.7-1.5l-3.7,6.4l-2.2-1.3
	l3.1-5.4l-2.5-1.5L27,85.1L25,83.9l3.6-6.2l-2.7-1.6l-5.6,9.6l12.3,7.1L38.2,83z M94.3,274c-0.8,1.4-2.2,2.1-3.8,2.1l0.4,4.5
	l-3.1-1.7l-0.3-3.8l-1.6-0.9l-1.5,2.7l-2.9-1.6l5.8-10.1l4.7,2.6C94.6,269.2,95.6,271.6,94.3,274z M90.5,269.8l-1.6-0.9l-1.7,2.9
	l1.6,0.9c1.2,0.7,2.1,0.5,2.6-0.5C92,271.3,91.7,270.4,90.5,269.8z M76.1,26.5l-3.2,2.2l4.2,6.3l-9.4-2.8L65,34l7.9,11.7l3.2-2.1
	l-4.2-6.3l9.4,2.8l2.7-1.8L76.1,26.5z M124.1,282.9c1.1,0.3,1.9,0.9,2.4,1.9l2.5-1.4c-0.8-1.6-2.3-2.7-4.5-3.3
	c-3.7-0.9-6.9,0.9-7.7,4.3c-0.8,3.4,1.2,6.5,4.8,7.4c1.6,0.4,3.6,0.3,5.1-0.3l1.2-4.7l-2.9-0.7l-0.8,3.1c-0.6,0.1-1.2,0.1-1.9-0.1
	c-1.9-0.5-2.9-2.1-2.4-4C120.5,283.3,122.2,282.4,124.1,282.9z M121.9,19.5l-0.6-2.5l6.2-1.4l-0.7-2.9l-6.2,1.5l-0.5-2.4l6.9-1.6
	l-0.7-3l-10.8,2.5l3.2,13.8l11-2.6l-0.7-3L121.9,19.5z M187.2,279.6l1.5,6l-6.5-4.8l-2.7,0.6l2.8,11.4l3.2-0.8l-1.5-6l6.5,4.8
	l2.6-0.6l-2.8-11.3L187.2,279.6z M95.3,282.5l8.6,3.7l1-2.3l-5.6-2.4l0.8-2l4.7,2.1l1-2.3l-4.8-2.1l0.8-1.9l5.3,2.4l1-2.4l-8.4-3.6
	L95.3,282.5z M47.3,70.3l-2.5-1.9l-4,5.4l-8.8-6.5l-2.4,3.2L40.9,79L47.3,70.3z M259.8,227.9l9.7,6.4l1.8-2.7l-9.7-6.4L259.8,227.9z
	 M273.5,222.8l-1.9-1l2.5-4.5l-2.1-1.2l-2.5,4.6l-1.8-1l2.8-5.1l-2.2-1.2l-4.4,8l10.3,5.6l4.5-8.2l-2.3-1.2L273.5,222.8z M57.4,59.2
	L55,57l-4.6,5l-8.1-7.4l-2.7,2.9L50.1,67L57.4,59.2z M292.2,144h-0.8c-2.5,0-6.7-1.4-7-6.6c-0.3-2.7,0.6-4.7,2.7-6.1
	c0.5-0.4,1.5-0.9,2.9-1.2l1-0.1l-0.1-0.8c-0.1-1.7-0.4-3.4-0.8-5l-0.9-4.7l-0.8,0.1c-1,0.3-2.6,0.1-3.4-0.2
	c-1.1-0.3-1.9-0.8-2.6-1.5c-0.9-0.8-1.6-2-1.9-3.5c-0.7-2.5-0.1-4.7,1.6-6.5c1.3-1.2,2.8-1.8,2.9-1.8l0.8-0.3l-3.4-9.9l-0.7,0.3
	c-2.9,1-7,0.6-8.8-3.8c-1.2-2.5-1-4.7,0.4-6.6c0.8-1.2,1.9-1.9,2.5-2.3l0.1-0.1l0.7-0.3l-0.3-0.7c-0.2-0.3-0.3-0.8-0.5-1.1l-0.2-0.5
	c-0.3-0.5-0.5-1.1-0.8-1.6l-1.6-2.7l-1.6-2.6l-0.6,0.3c-0.5,0.3-1.9,0.9-3.4,1c-2.3,0.2-4.2-0.8-5.9-3.2c-1.6-2.3-1.8-4.5-0.6-6.8
	c0.7-1.4,1.8-2.4,2.1-2.7l0.7-0.5l-6.5-8.1l-0.6,0.5c0,0-0.3,0.3-0.8,0.5c-0.5,0.3-1.2,0.7-2.3,1c-2.5,0.6-4.6-0.1-6.4-2.1
	c-1.9-2.1-2.5-4.2-1.8-6.6c0.5-1.7,1.6-2.9,1.6-3l0.5-0.5l-0.5-0.5c-1.5-1.4-3.4-3.1-5.1-4.6L240,37l-0.5,0.5
	c-0.3,0.3-1.3,1.4-2.8,2.1c-2.2,1-4.5,0.6-6.6-1c-2.2-1.6-3.2-3.6-2.9-6.1c0.2-1.9,1.1-3.2,1.1-3.3l0.4-0.6l-0.6-0.4
	c-1-0.7-2-1.3-2.9-1.9c-0.8-0.5-2.1-1.3-3.2-1.9l-2.2-1.3l-0.5,0.8c-0.2,0.3-1,1.4-2.3,2.3c-2.1,1.4-4.2,1.4-6.7,0.1
	c-2.4-1.2-3.8-3-3.9-5.5c-0.1-1.2,0.2-2.7,0.5-3.4l0.3-0.7l-6.2-2.5l-0.5,1.4l4.9,2l-0.1,0.8c-0.2,0.9-0.3,1.8-0.2,2.6
	c0.1,2.9,1.8,5.3,4.7,6.7c2.9,1.5,5.8,1.4,8.2-0.3c0.5-0.3,1-0.8,1.6-1.3c0.1-0.1,0.3-0.3,0.3-0.4l0.5-0.7l0.8,0.5
	c1,0.6,2.4,1.4,3.2,2l0.3,0.1c0.5,0.3,0.9,0.5,1.4,0.9l0.7,0.5l-0.3,0.8c-0.2,0.5-0.5,1.4-0.7,2.5c-0.3,3,0.8,5.5,3.5,7.5
	c2.7,2,5.4,2.3,8.2,1.2c0.8-0.3,1.5-0.8,2.2-1.4l0.7-0.5l0.7,0.5c1.5,1.3,3.1,2.7,4.2,3.8l0.6,0.5l-0.5,0.8
	c-0.5,0.8-0.8,1.6-1.1,2.3c-0.8,2.7-0.1,5.6,2.1,8c2.3,2.4,4.9,3.2,7.9,2.5c1.1-0.3,1.9-0.7,2.5-1l0.8-0.4l4.5,5.8l-0.5,0.6
	c-0.6,0.7-1,1.4-1.4,2.1c-1.4,2.8-1.1,5.6,0.8,8.3c1.9,2.7,4.5,4,7.3,3.8c1.1-0.1,2-0.3,2.5-0.5l0.8-0.3l2.3,4
	c0.3,0.6,0.6,1.2,0.9,1.7l0.3,0.8l-0.6,0.5c-0.8,0.6-1.4,1.2-1.9,1.9c-1.8,2.4-2,5.2-0.6,8.2c2.3,5.6,7.1,5.3,9.1,5l0.9-0.1l2.4,7
	l-0.8,0.4c-0.5,0.3-1.3,0.8-2.1,1.5c-2.1,2.2-2.9,4.9-2.1,7.9c0.5,1.7,1.2,3.2,2.3,4.2c0.9,0.9,2,1.5,3.2,1.9
	c0.8,0.2,1.6,0.3,2.6,0.3h0.8l0.5,2.5c0.3,1.4,0.5,2.7,0.7,4l0.1,0.8l-0.8,0.3c-0.9,0.3-1.6,0.7-2.3,1.2c-2.5,1.7-3.6,4.2-3.3,7.5
	c0.3,6,4.9,7.5,6.9,7.8l0.8,0.1l-0.1,7.4L290,153c-0.9,0.1-1.7,0.4-2.5,0.8c-2.7,1.3-4.3,3.7-4.6,6.9c-0.1,1.8,0.1,3.4,0.8,4.7
	c0.5,1.2,1.4,2.1,2.5,2.9c0.7,0.5,1.4,0.9,2.3,1.2l0.8,0.3l-0.1,1.2c-0.1,0.8-0.2,1.6-0.3,1.8c-0.2,1.2-0.3,2.3-0.6,3.5l-0.2,0.8
	h-0.8c-1.4,0-4.1,0.2-6.1,2.3c-0.9,0.9-1.7,2.2-2.1,4c-1.9,6.1,2.7,9.5,5.3,10.3l0.7,0.2l0.5-1.4l-0.7-0.2c-2.9-1.1-5.8-4-4.4-8.6
	c1-4.5,5-5.6,8-5l0.7,0.1l0.2-0.7c0.5-1.7,0.8-3.6,1-5.2l0.4-2.7l0.3-1.6l-1.1-0.2c-1.1-0.3-2.1-0.7-2.8-1.3c-0.9-0.6-1.5-1.4-2-2.3
	c-0.5-1.1-0.8-2.3-0.7-3.9c0.2-2.6,1.5-4.5,3.7-5.6c1.6-0.8,3.3-0.8,3.4-0.8h0.8l0.1-9L292.2,144z M69,48.7L67,46.4l-5.6,4.9l-1.7-2
	l4.7-4.1l-1.9-2.3l-4.8,4.2l-1.6-1.9l5.4-4.7l-2.1-2.3l-8.4,7.3l9.3,10.7L69,48.7z M94.1,26.6l3.2-1.4l1.3,3.1l2.9-1.2l-1.4-3.1
	l3.2-1.3l-1.2-2.7L99,21.3l-1.3-3.1l-2.9,1.2l1.4,3.1l-3.2,1.4L94.1,26.6z M283,208.9l-2.1,5.1l-10.8-4.4l2.1-5.1
	c1.4-3.6,4.5-5.2,7.9-3.8C283.3,202,284.4,205.4,283,208.9z M278.7,203.8c-1.9-0.8-3.4,0-4.2,1.9l-0.8,1.9l5.9,2.4l0.8-1.9
	C281.2,206.3,280.6,204.6,278.7,203.8z M262.5,237.9l4.5,0.3l-2.2,2.7l-3.8-0.3l-1.1,1.4l2.4,1.9l-2.1,2.6l-9.2-7.2l3.3-4.2
	c1.9-2.5,4.5-3,6.6-1.4C262.3,234.9,262.8,236.3,262.5,237.9z M258.9,236.5c-0.8-0.7-1.8-0.5-2.6,0.5l-1.2,1.4l2.7,2.1l1.2-1.4
	C259.8,238.1,259.7,237.1,258.9,236.5z M203.7,280.1l1.2,3c-0.5,0.5-1,0.8-1.6,1c-1.9,0.7-3.6-0.1-4.2-1.9c-0.7-1.9,0.1-3.6,1.9-4.3
	c1-0.4,2.1-0.3,3.1,0.2l1.3-2.5c-1.6-0.9-3.5-1-5.6-0.2c-3.6,1.3-5.2,4.7-3.9,7.9c1.2,3.3,4.7,4.7,8.2,3.4c1.6-0.6,3.2-1.7,4-3.2
	l-1.7-4.5L203.7,280.1z M252.6,249.6l4.4,0.8l-2.5,2.5l-3.7-0.7l-1.2,1.2l2.2,2.2l-2.3,2.3l-8.3-8.2l3.8-3.8
	c2.3-2.3,4.8-2.5,6.7-0.7C252.8,246.6,253.1,248,252.6,249.6z M249.2,247.6c-0.8-0.8-1.7-0.7-2.7,0.3l-1.3,1.3l2.5,2.4l1.3-1.3
	C250,249.4,250,248.5,249.2,247.6z M223.7,263.3l0.1,7.9l-7-3.6l-2.3,1.4l6,10l2.6-1.6l-3.1-5.1l5.1,2.7l1.2-0.8l-0.1-5.8l3.2,5.3
	l2.6-1.6l-6.1-9.9L223.7,263.3z M190.2,8.4l3.1,15.2l-4-0.9l-0.5-2.9l-5.8-1.3l-1.6,2.5l-4-0.9l9.1-12.5L190.2,8.4z M188.3,16.6
	l-0.8-4.8l-2.7,4L188.3,16.6z M235,255l11.3,5.9l-2.7,2.1l-2.1-1.2l-3.8,3.1l0.7,2.3l-2.6,2.1l-3.3-12.3L235,255z M235.7,258.5
	l1.2,3.8l2.3-1.9L235.7,258.5z M57.8,255.2l0.4-0.8c0.5-0.8,0.8-1.6,1-2.3c0.8-2.9,0.1-5.5-2.1-7.6c-1.3-1.2-2.6-2-3.9-2.3
	c-1.1-0.2-2.3-0.1-3.6,0.3c-0.8,0.3-1.5,0.6-2.3,1.1l-0.8,0.4l-2.9-3.2c-0.3-0.4-0.8-0.8-1.1-1.3l-0.5-0.6l0.5-0.6
	c1.3-1.6,4-5.6,0.5-9.9c-1.9-2.5-4.3-3.6-7.3-3.2c-1,0.1-1.9,0.5-2.5,0.7l-0.8,0.3l-0.5-0.7c-0.5-0.7-0.8-1.2-0.8-1.2l-0.1-0.1
	c-0.3-0.5-0.7-1-1-1.6l-1.2-2.2l0.6-0.5c0.4-0.4,1.1-1,1.7-1.9c1.6-2.4,1.8-5.1,0.3-7.8c-2.5-5.1-7.2-4.5-9.2-4l-0.8,0.2l-0.5-0.8
	c-0.7-1.6-1.4-3.3-1.7-4c-0.1-0.3-0.1-0.5-0.2-0.6l-0.4-0.8l0.8-0.5c0.8-0.5,1.4-1,2-1.6c0.9-1,1.5-2,1.8-3.1
	c0.2-0.8,0.2-1.4,0.2-2.1c0-0.8-0.1-1.6-0.4-2.5c-1.6-5.3-6.5-5.6-8.5-5.4l-0.9,0.1l-1.6-6.6l0.8-0.3c0.8-0.3,1.6-0.8,2.2-1.3
	c2.3-1.9,3.3-4.4,2.9-7.3c-0.5-3-2.1-5.1-5.1-6.1c-0.8-0.3-1.6-0.4-2.5-0.5l-0.9-0.1l-0.5-6.8l0.8-0.2c0.9-0.2,1.7-0.5,2.4-0.9
	c2.7-1.4,4-3.8,4-6.9c-0.1-3.2-1.4-5.4-4-6.8c-0.7-0.3-1.5-0.7-2.4-0.9L9.2,140l0.1-0.8c0.1-0.7,0.1-1.4,0.1-1.7l0.1-0.8
	c0.1-0.9,0.1-1.7,0.2-2.6l0.1-0.9l0.9-0.1c2-0.1,6.8-1,7.5-6.6c0.5-3.1-0.4-5.6-2.7-7.4c-0.6-0.5-1.4-0.9-2.3-1.3l-0.8-0.3l0.2-0.8
	c0.4-1.8,0.9-3.8,1.2-4.8v-1.1l1.1,0.2c0.9,0.1,1.8,0,2.6-0.1c1.3-0.2,2.4-0.7,3.3-1.4c0.2-0.1,0.4-0.3,0.6-0.5
	c0.8-0.8,1.4-1.7,2.1-3.3c2-5.6-2.4-9-5-10.1l-0.7-0.3l-0.5,1.4l0.7,0.3c2.3,1,5.8,3.8,4.1,8.2c-0.6,1.6-1.2,2.5-2.1,3.2
	c-0.7,0.5-1.6,1-2.7,1.2c-1.8,0.3-3.4-0.1-3.5-0.1l-0.8-0.2l-0.2,0.8c-0.1,0.5-0.3,1.2-0.5,1.7c-0.3,1.2-1.2,4.4-1.6,6.4l-0.1,0.7
	l1.1,0.3c1.1,0.3,2.1,0.8,2.8,1.4c1.9,1.4,2.6,3.4,2.2,6c-0.5,4.3-4.3,5.6-7.4,5.3l-0.6-0.3l-0.1,0.7c-0.3,1.6-0.3,3.3-0.5,4.9
	l-0.3,4.2l1.2,0.1c1.4,0.2,2.3,0.6,2.9,1c2.1,1.1,3.1,2.9,3.2,5.5c0.1,2.5-1,4.3-3.2,5.5c0,0-2.1,1-3.4,1l-0.8,0.1l0.9,9.9l0.8-0.1
	c1.1-0.2,3.1,0.3,3.4,0.4c2.4,0.9,3.7,2.5,4.1,4.9c0.4,2.5-0.3,4.5-2.3,6c-1.4,1.1-3,1.5-3.1,1.5l-0.9,0.2l1.9,8.4l0.3,1.2l0.7-0.2
	c2.4-0.6,6.9-0.4,8.3,4.1c0.3,0.8,0.3,1.5,0.3,2.1c0,0.7,0,1.2-0.1,1.6c-0.2,0.9-0.7,1.7-1.4,2.5c-1.2,1.3-2.7,1.9-2.8,2l-0.8,0.3
	l0.3,0.7c0.3,0.7,0.5,1.4,0.8,2.1c0.3,0.7,1,2.3,1.6,3.9l1,2.3l0.7-0.3c2.1-1,6.6-1.6,8.8,2.8c1.2,2.3,1.1,4.3-0.3,6.2
	c-1,1.5-2.4,2.4-2.5,2.4l-0.7,0.4l2,3.4c0.3,0.7,0.8,1.2,1.2,1.9c0.2,0.3,1.4,2,2.1,3.1l0.9-0.5c0.5-0.3,1.6-0.8,3-1
	c2.3-0.3,4.2,0.5,5.8,2.6c2.9,3.7,0.5,7.4-1.4,9l-0.5,0.5l1.4,1.8c0.3,0.5,0.7,0.9,1.2,1.4l4,4.2l0.5-0.5c0,0,1.2-1.2,3-1.7
	c1-0.3,2-0.4,2.9-0.2c1.1,0.2,2.1,0.8,3.2,1.9c1.9,1.8,2.4,3.8,1.7,6.1c-0.5,1.7-1.6,3-1.6,3.1l-0.5,0.5l0.5,0.5
	c1.4,1.2,2.8,2.4,4.2,3.6l1-1.2c-1-0.8-2.1-1.6-3-2.5L57.8,255.2z"/>
</svg>
