<svg version="1.0" xmlns="http://www.w3.org/2000/svg" viewBox="0 0 1125 433">
  <g fill="#202020">
    <path d="M585.9 285.1s0-.1-.1 0v.1l.1-.1zM585.1 285.4c-.1.1-.3.2-.1.3.1-.1.2-.1.3-.3.1-.1.2-.1.2 0 0 0 .2-.1.2-.2-.2 0-.4.1-.6.2-.1.1 0 0 0 0zM573.9 292.1zM567.6 297.2s.1-.1 0 0zM566.5 298zM573.9 292.1l-.2.1s.1-.1.2-.1zM583.5 286.4c.1 0 .1 0 0 0zM576.7 289.8zM579 288.4c-.1 0 0 .1 0 .1v-.1c.1 0 0 0 0 0zM582.9 286.4zM575.1 291zM543.6 282.7zM546.5 281.4zM564.5 299.6c.1-.1 0-.1 0 0zM545.7 313c.3-.1-.3.3 0 .1 0 0 .3-.2 0-.1zM583.5 286.4c-.1.1 0 0 0 0zM545.8 313.2c0-.1 0-.1 0 0zM560 303.3c.1 0 .1 0 0 0 .1 0 .1 0 0 0zM563.4 300.6c0 .1 0 .1 0 0zM558.3 304.8s-.1 0-.1.1l.1-.1zM556.5 306.2h.1zM538.1 287.1h.1s.3-.1-.1 0zM583.5 286.4c.1 0 0 0 0 0zM558.6 305.3l-.3.2c.1-.1.2-.1.3-.2zM539.9 301.7zM557.4 306.2c-.1 0-.1.1-.2.1l.2-.1zM538.2 287.1z"/>
    <path d="M539.9 285.4c-.3.2-.1.2-.1.3-.3.3-.2.1-.3.2-.2.2-.3.4-.4.5 0 0-.1 0 0 0-.1.1-.2.3-.4.4-.1.1-.2.2-.4.3.1 0 .1.1.1.1-.1.1-.3.2-.3.1.1 0 .1-.1.1-.1l-.1.1c-.2 0 .2-.1.2-.2-.3.1-.6.3-.9.3-.1-.1.6-.2.2-.2l.4-.1c-.3 0 .2-.1-.1-.1-.5.1-.5.2-1.1.3-.1.1.1 0 0 .1-.3.2-.5.3-.6.4-.1.1-.2.1-.3.4 0 .2 0 .2-.1.6v-.2c-.1.3-.1.4-.1.4v.5c-.1-.1-.1-.5-.1-.4-.1.4.1.3.2.6v.1l.1.1c0 .1.1.1.1.2.1.1.2.2.3.4.2.2.5.4.7.5 0 0-.1 0 0 .1.3.2.6.4.7.7.1.3.2.7.3 1l.1.2v.1c.1.3 0 0 .1.1v.1c.2.4.5 1.3.5 1.8v-.1c.1.4.3.4.3.8v-.1c.2.8.4 1.8.5 2.4.1.1.1.8.3.9 0 .5 0 .4.1 1.1 0 .2.1.3.2.5h-.1l.1.3-.1.2.1.2v-.2c.1.3.1.8.1.8l.2.8s-.1-.1-.1-.2c.2.4-.1.1.1.5 0-.1 0 0 .1 0 0 .2.1.6.2.9l-.1-.1c.1.6.3 1.2.4 1.9 0-.2.1-.2.1 0l-.1.1c.1.1 0-.2.1 0 0 .2-.1.2-.1 0l.1.3-.1-.1c.1.1 0 .5.2.7.1.6.3.9.4 1.5.1 0 .1.2.2.3.1.4.1.8.3 1.3.1.3.1.1.2.2-.1 0 .1.5 0 .3.2.5.2.7.5 1.4v-.1c.1.1.1.3 0 .3.2.4.3.8.4 1.3.1.2.1.4.2.6.1.2.1.3.2.5l.1.2c.1 0 .1-.1.2-.1h-.1l.5-.3.3-.2c.3-.1-.1.1.1.1.6-.4 1-.5 1.5-.8.5-.1 1.4-.8 2-1h-.1c.1-.1.2-.1.3-.1h-.1c1.2-.7 2.5-1.4 3.7-2.1.4-.3.1-.3.7-.6l-.1.2c.8-.7 1.8-1.2 2.5-1.9 0 .1 0 .1-.1.1.2-.1.6-.5.6-.5.1-.1.1 0 .1 0 .2-.1.4-.4.5-.4 0 0 0 .1-.1.1.1-.1.5-.4.4-.4.3-.2.6-.5.8-.6.1-.2.5-.4.5-.5 0 .1.6-.3.7-.5 0 .1.2-.1.1 0 .2-.2.4-.3.3-.4.5-.2.7-.7 1.1-.8.6-.6 1.2-1.1 1.7-1.5 0 .1-.6.5-.5.6.5-.5.8-.8 1.3-1.2.1-.1 0 .1-.1.2.5-.5 1-.8 1.5-1.3 0 0 0 .1-.1.1l.2-.2-.1.1c-.2.1.3-.4.3-.5-.1.2.5-.4.4 0 .1-.1.1-.1.1-.2.1-.1.1-.1.1 0l.5-.5s0 .1-.1.1c.1-.2.2-.3.5-.5v.1c.4-.4.7-.7 1.2-1.1-.1.2.2-.1.3-.1l.2-.2-.1.1c.2-.2.4-.4.6-.5l-.1.2.4-.4-.3.2c.2-.2-.1-.1.2-.3-.1.1.2-.2.4-.2l.4-.4c.1 0 0 .1.1.1.1-.2.5-.5.6-.6v.1l.1-.1c.1-.1.1-.1.1 0 .3-.3-.2 0 .2-.3l-.1.1c.4-.3.7-.6 1.1-.9.2 0-.3.3-.1.2.5-.4 1-.9 1.5-1.3l-.1.1c0-.2.4-.2.6-.5-.1.1 0 .1 0 .1.3-.3.7-.6 1.2-1v.1c.2-.1.5-.4.8-.6 0-.1.2-.2.1-.1.8-.4 1.2-1.1 1.9-1.4l-.1.1c.2-.1.3-.3.5-.4h-.2c0-.1.2-.2.3-.3-.2.2 0 .1.2 0v-.1c.3-.1 0-.1.4-.3.1-.1.3-.2.4-.3.1 0-.1.1-.1.2.2-.1.4-.4.6-.4-.1.1-.2.2-.3.2.3-.1.3-.1.4-.2l.4-.2h-.1c.2-.3.6-.4.9-.7-.3.3 0 .1 0 .2.1 0 .3-.1.2-.1.1-.2.3-.1.5-.3 0 0 .2-.1.2 0 .2-.1-.1 0-.1 0 .3-.3.9-.4 1.4-.8.4-.3.5-.4.9-.7.2 0-.1.1-.1.1l.6-.3h.1c.2-.1.1-.1.3-.2 0 0-.1.1-.1.2.2-.1.4-.3.6-.4.1 0-.1.1-.2.2.2-.1.6-.4.6-.4l-.2.1c.1 0 .1 0 0 .1-.2.2-.3.1-.3.1l.1-.1c-.2 0-.6.3-.9.5l.1-.2-.3.2c-.1 0-.1 0 0-.1l-.4.2-.2.1s-.1 0 .1-.1c-.4.1-.6.4-.8.4-.5.3 0 .1-.4.4h-.4v.1c-.1 0-.2.1-.2 0-.2.2 0 0 0 .1-.3.1-.7.4-.8.4-.1.1.3-.1 0 .1-.1-.1-.3.2-.6.3 0-.1.3-.2 0-.1-.1.2-.5.2-.7.4 0 .1-.4.3-.7.5l-1 .5c0 .1-.3.3-.6.4 0-.1 0-.1.1-.2l-.2.1c0 .1-.1.1-.2.2v-.1c-.3.2-.5.5-.9.7 0 .1.4-.1 0 .2 0 0-.1-.1 0-.1 0 0-.1.1-.2.1l.1-.2c-.2.1-.1.1-.2.2h-.1s.1-.1.2-.1c-.1.1-.3.2-.4.2 0 0 0 .1-.1.1-.3.2-.1 0-.3.1 0 .1-.2.2-.2.2-.1.1-.1 0-.2.1s-.6.5-.4.5c-.4.4-.9.7-1.4 1.1-.2.2-.6.5-.7.7-.1.1-.2.1-.2.1-.2.2-.2.2-.5.4.2-.2-.1 0 .2-.2-.3.2-.4.2-.6.5.1-.1-.2.1-.4.2l.2-.1c-.1.1-.3.2-.4.3v-.1c-.6.4-.8.9-1.3 1.1-.1.2.3-.2.2-.1-.2.2-.6.3-.7.4-.4.2-.2.3-.6.6.1 0 .2 0-.1.2-.2.2-.4.2-.2 0l.1-.1c.1-.1.2-.2 0-.1-.1.1-.5.4-.4.3-.2.2 0 .1.1 0-.3.2-.5.4-.8.7h.1c-.5.4-.2.2-.5.5-.2.1 0-.1-.3.2-.2.1-.1 0 0-.1-.3.3-.6.4-.7.6l.1-.1-.2.2h.1c-.1.1-.2.1-.2.1-.1.1.1 0 0 .2-.1.1-.3.3-.4.3.4-.3-.1 0 .2-.3l-.2.2c-.4.2-.1.2-.5.5 0-.1-.1 0-.2.1.2-.1.1 0 0 .1-.3.2-.2.2-.4.3l.2-.1c0 .1-.1.2-.3.3l.1-.1c-.1.2-.5.3-.7.5-.1.1-.1-.1-.2 0-.3.3-.4.2-.6.5.1 0 .1-.1 0 .2l.5-.4-.3.3c.2-.1.3-.3.4-.4-.1.2-.1.1 0 .1-.3.1-.4.4-.7.5l-.1-.1c-.4.2-.6.6-1.1.9l.2-.1c0 .1-.3.2-.4.4h-.2s-.3.3-.3.4l-.3.1c-.4.3-.4.5-.7.7.1-.1-.1 0 .1-.2l-.2.2c-.1 0-.3.3-.4.4 0 .1 0 .1-.2.2 0 0-.2.2 0 .1-.5.2-1.1.8-1.5 1-.3.2-.6.5-.8.7v-.1c-.4.2-.1.3-.6.5-.2.1.2-.2 0-.1-.1-.1-.5.4-.8.5l.1-.1c-.2.1-.5.4-.8.6-.2.2-.6.6-.9.8.1-.1.1-.1 0-.1-.1.1.1.1-.2.3-.1 0-.3.2-.4.1l.3-.2c-.2 0-.4.2-.5.3-.4.3-.4.4-.8.7h.1c-.2.2-.2.1-.5.3h-.1c-.2.1-.5.5-.8.7.1-.2.5-.4.7-.6-.2.1-.6.4-.6.5.1 0 .1-.1.2-.1-.2.2-.4.4-.8.6 0-.2-.9.5-1.2.5-.6.4-1.2.6-1.9 1 .3 0-.2.1-.1.2l-.2.1-.6.2c-.1 0 .1-.1.1-.1-.4.2-.2 0-.4.1.1 0-.1.1-.3.2l.3-.1c-.5.3-.5.1-1 .4l.1-.1c-.1 0-.2.1-.3.1h-.1s-.1-.1-.1-.2 0-.1.1 0c-.2-.7-.7-1.4-.8-2h.1c-.1-.1-.1-.2-.1-.4 0 0 .1 0 0 0 0-.1-.2-.3-.2-.5l.1.1c-.2-.7-.4-1-.6-1.5.1 0 0-.6-.1-.8-.2-.8-.4-1.3-.6-2 0-.5-.3-1.5-.4-2.3 0 .1-.1 0-.1-.1 0-.2-.2-.5-.1-.5v.1c.1-.1 0-.5-.1-.8h-.1c0-.8-.5-1.9-.4-2.3-.1-.2-.1-.4-.2-.5h.1c-.1-.5-.1-.7-.3-1.3l.1.1c-.1-.3-.3-.4-.4-.7l.1-.1c-.1-.6-.2-1.2-.4-1.8l.1.1c-.1-.3-.2-1.1-.3-.9.1 0-.1-.6-.3-.9h.1c-.2-.2-.2-.2-.3-.6 0-.1 0-.1 0 0 0-.3-.1-.2-.2-.6l.1.1c-.1-.3-.1-.3-.2-.4-.1-.2-.2-.6-.1-.6l-.2-.4.1.1c-.1-.6-.4-.7-.7-1v-.1c.3.3.5.6.5.6.1 0-.1-.4.1-.2-.2-.3-.7-.5-.9-.7-.1 0-.1-.1-.2-.1l-.2-.2c0-.1-.2-.2-.3-.4 0 .1-.2-.1-.1.1l.1.1.3.3c-.1 0-.2-.1-.3-.3-.1 0-.2-.1-.2-.1 0-.1 0-.2-.1-.4v-.2c-.1-.3.2-1 .2-1.3.1-.1.1-.1.2-.1 0 .1-.1.1-.1.2.1-.1.2-.3.3-.4.1-.1.3-.2.3-.2.3-.1-.2.1.3 0h-.1c.5-.1.9-.2 1.2-.4.2-.1.4-.3.5-.4l.5-.5c-.1 0-.1.1-.1.1.9-.8 1.8-1.8 2.9-2.4.3-.2.3-.3.4-.4h.1l.2-.3c.4-.3.8-.3 1.3-.8h-.1c.2-.1.6-.4.6-.3 0 0 0-.1.1-.1l.5-.3c.4-.2 0 .2.6-.1.2-.1.5-.4.5-.4-.1 0-.2.1-.3.1l.2-.1c0-.1.1-.3-.4-.1l-.3.2h-.1l.3-.2c-.2 0-.3.1-.4.2h-.2l-.3.3c-.1 0 .1-.2-.1-.1-.1.1.2 0 0 .2-.2 0-.2 0-.3.1l.1-.1c-.1.1-.4.3-.5.4-.2 0-.5.4-.6.3 0 .1-.2.3-.4.4.2-.3-.5.4-.6.2-.1.2-.7.5-1 .8 0 0 0-.1.1-.1-.2.1-.3.2-.4.2 0 .1-.2.3-.4.5-.3.1.1-.2-.1-.2.1 0-.3.4-.2.4-.2.1-.2.1-.3.1 0 .1-.1.2-.2.3-.3.2-.1 0-.4.2 0 .3.2 0 .2 0zm-3 5.9c-.1 0-.1-.1-.1-.1l.1.1zm.5.5l-.2-.2h.1s.1.1.1.2zm-.8-1.3l.1.1-.1-.1zM536.4 290.4zM574 292zM539.7 301v-.1zM577.1 289.9c.1 0 .1 0 0 0 .1 0 .1 0 0 0z"/>
    <path d="M578.6 289.1l.2-.1c-.1 0-.2.1-.2.1zM579.7 288.5s0-.1 0 0zM563.8 300.9c-.1.1 0 .1 0 0zM568.3 296.9c0 .1-.1.1-.1.1.1 0 .1 0 .1-.1zM558.6 305.3v-.1.1zM568 297.3c.1-.1.2-.1.2-.2-.1 0-.2.1-.2.2zM584.6 285.9zM584.6 285.8zM584.8 285.7l-.1.1s.1 0 .1-.1zM583.1 286.6c0 .1 0 0 0 0zM582.6 286.9c.1-.1.3-.1.4-.2 0 0-.3.1-.4.2zM580.6 287.6l.4-.2c-.1 0-.2 0 0-.1-.6.3.1.1-.4.3zM579.4 288.3c.2-.2 0-.1 0 0-.1 0-.2 0 0 0zM571.6 293.9c-.2 0 0-.1 0 0zM570.4 295.3l.1-.1.1-.1zM569.2 295.7l.1-.1-.2.2zM556.8 305.9c.2 0 .1-.1 0 0zM551.1 310c-.1 0-.3.1-.3.2.1-.1.3-.2.3-.2zM540.7 302.6v.2-.3z"/>
    <g>
      <path d="M534.8 293.8s-.1 0 0 0zM534.5 293.9c0 .1 0 .1.1.2 0-.1 0-.1-.1-.2h.1v-.1s0 .1-.1.1zM532.5 296.7c0-.1 0-.1 0 0zM531.5 298.5zM531.4 298.6zM532.5 296.7zM534.4 294.4zM533 295.8zM533.3 295.2s.1.1 0 0c.1.1.1.1 0 0 .1 0 0 0 0 0zM534.1 294.4zM532.7 296.3zM527.1 283.8s0-.1 0 0zM528 283.4v.1zM531.3 298.6zM529.8 293.8c0 .1-.1-.1-.1 0 0 0 .1.1.1 0zM534.4 294.4zM529.7 293.9zM531.1 298.2zM531.3 298.9zM530.9 297.6zM530.8 297l-.1.1h.1zM527 285.8c0-.1 0-.1 0 0 0-.1 0-.2 0 0zM534.4 294.4zM530.4 297.7c-.1 0 0 0 0 0zM528 290.1zM530.3 297.4c0-.1 0-.1 0 0 0-.1 0-.1 0 0zM527 285.7z"/>
      <path d="M526.8 285.1c0 .1.1 0 .1.1s-.1.1-.1.1c0 .1.1.1.1.2.1.1 0 .2.1.3h.1s.1.1 0 .1 0-.1-.1 0c0 .1.1.2.1.2-.1 0 0-.2-.1-.1v-.1c-.1.1 0-.1-.1 0 0 .1.1.1.1.3h.1c.1.2-.2.2-.1.3.1 0 .2 0 .1.1h-.1c0 .1.1 0 .1.2 0 0 0-.1-.1-.1-.1.1.1.1.1.1h-.1c0 .1.1.3.2.4h-.1c.1.2.1.4.1.6l.1.1c0 .1 0 0 .1 0 0 0 0 .1-.1 0 .1.1.2.3.2.5 0 .1.2.1.1.2 0 .2.2.4.1.6.1 0 0 .2.2.2 0 .1-.1.1-.1.3 0 0 .1 0 .1.1h-.1l.1.1.1.1v-.1c.1.1 0 .2 0 .2l.1.2h-.1c.1.1-.1 0 0 .1h.1c0 .1 0 .2.1.2h-.1c0 .2.1.3.2.5 0-.1.1-.1.1 0h-.1c.1 0 0-.1.1 0 0 .1-.1.1-.1 0l.1.1h-.1c.1 0 0 .2.1.2.1.2.1.2.1.4.1 0 .1 0 .1.1v.3c.1.1.1 0 .1 0-.1 0 0 .1-.1.1.1.1.1.2.2.3 0 0 0-.1 0 0v.1c.2.2 0 .5.2.6l.1.1c0 .1-.1 0-.1 0 .2.1.1.3.2.4-.1.2.1.4.1.6.1 0 0 .1 0 .1s0-.1.1 0c.2.3.2.7.2 1.1 0 .1.2 0 .2.2h-.1c.2.2.2.5.3.8h-.1c0 .1.1.2.1.2l-.1.1c0 .1.1.1.1.2 0 0 0 .2.1.1 0 .1.1.2.1.2.1 0 0 .2.1.2-.1 0-.1.2 0 .2 0 0 0 .1-.1 0 0 .1.1.1.1.1-.1.2.2.2 0 .3.1.2.2.3.3.6-.1.1-.1-.3-.2-.2.1.3.3.4.3.6 0 .1 0 0-.1 0 .1.2.3.4.4.5 0 0 .1.1.1 0s.1-.1.1-.2c0 .2.1.2.1.4v-.1.1c.1-.1 0-.2.1-.3v.1c0-.1 0-.2.1-.3v.1c.1-.2 0-.4.1-.6.1.2 0 0 .1 0v-.2-.3.1-.2.1c0-.1-.1 0-.1-.1 0 0 0-.1.1-.1 0 0-.1-.1 0-.1h.1c-.1 0 0-.2-.1-.2h.1-.1.1c0-.1-.1 0 0-.1s.1-.2.1-.3c.1 0 0 .1.1.1.1-.1.1-.3.2-.5-.1-.1.1-.1.1-.2v.1c.1-.1.1-.2.2-.4.1 0 .1-.1.2-.2v-.1c.3-.1.2-.4.4-.5 0 0 0 .1 0 0l.1-.2h-.1v-.1c0 .1.1 0 .1 0 .1 0-.1-.1 0-.1v-.1c.1 0 0 .1 0 .1 0-.1 0-.2.1-.2v.1c.1 0 .1 0 .1-.1l.1-.1c-.1-.2.1-.2 0-.3 0 .1 0 0 .1.1h.1c0-.1.1 0 .1-.2h.1c0-.1 0 0-.1 0 0-.1.2-.2.2-.3v-.3c.1 0 0 .1 0 .1.1 0 .1-.1.1-.1h.1v-.1-.1.1c0-.1.1-.2 0-.2 0 0 .1 0 0 0 0 .1-.1.1-.1 0-.1-.1-.1.2-.2.2l-.1-.1v.1s-.1 0-.1-.1c-.1 0 0 .1-.1.1v.1s-.1 0 0-.1c-.1.1 0 .2-.1.2-.1.1.1.1.1.2h-.2l.1.1h-.1c0 .1 0 0 .1.1-.1 0-.1.2-.2.1 0 .1.1 0 .1.1-.1 0 0 .1-.1.1 0-.1 0-.1-.1-.1.1.1-.1.1-.1.2.1 0 0 .1-.1.2l-.2.2c.1.1 0 .1 0 .2l-.1-.1v.2c0 .1 0 .2-.1.3 0 0 .2 0 .2.1 0 0-.1 0-.1-.1v.1-.1.1h-.1l-.1.1s.1 0 0 .1c0 .1-.1 0-.1 0v.1h-.1c0 .1-.1.2 0 .2 0 .2-.2.2-.3.3 0 .1-.1.2-.1.2h-.1c0 .1 0 .1-.1.1v-.1c-.1.1-.1.1-.1.2 0-.1-.1 0-.1.1h.1s0 .1-.1.1l-.1-.1c-.2.1 0 .4-.2.5 0 .1.1-.1.1 0s-.2.2-.2.2c-.1.1.1.1.1.2 0 0 .1 0 .1.1s-.1 0-.1 0h-.1s0 .1-.1 0h.1V298.7s-.1-.2-.1-.1c0 0-.1-.1-.1-.2 0 .1 0 0 0 0v-.1 0c0 .1.1.2.1.4 0-.1 0 .1-.1-.1v-.3-.1V298.6c0-.1 0 0 0 0v-.1-.2-.1c0 .1 0 .1-.1.1h.1l-.1.1-.1.1c0-.2-.1 0 0-.2l.1-.1c0-.1-.1 0-.1-.2v.1c-.1 0 0-.1-.1-.1 0 0 .1 0 .1-.1 0 0 0-.1-.1-.1v-.1c0-.1-.2-.1-.2-.2h.1v-.1l-.1-.1s-.1 0-.1-.1c0 0 0-.1-.1 0 .1-.2-.1-.3 0-.5 0-.1-.1-.2-.1-.3 0-.1-.2 0-.1-.2.1-.1.1.1.1 0 .1-.1-.1-.1 0-.3 0-.1-.1-.1-.1-.2-.1 0-.2-.2-.2-.3h0s0-.1.1-.1v.1c.1-.1 0-.1 0-.2l-.2-.2c-.1 0 0-.1-.1-.1l.1-.1-.2-.2c.1 0 .2.1.2.2l-.1-.2v.1c-.1 0-.2-.1-.2-.2.2 0 0-.3.1-.4-.1-.2-.1-.4-.2-.5-.1.1 0-.1-.2 0V293.3h.1c0-.1 0-.1.1-.1 0 0-.1 0-.1-.1v.1c-.1-.1.1-.2 0-.3h.1c-.1-.1-.1-.3-.2-.3h.1c0-.2-.2-.4-.2-.5 0 0-.1 0-.1-.1l-.1-.1h.1c0-.2-.2-.2-.3-.4.1 0 .1-.2.1-.3-.1-.2-.2-.3-.3-.5.1-.2-.1-.4-.1-.6h-.1c0-.1-.1-.1 0-.1.1-.1 0-.1 0-.2h-.1c.1-.2-.2-.5-.1-.6l-.1-.1h.1c0-.1 0-.2-.1-.3h.1c0-.1-.2 0-.3-.1l.1-.1c0-.1 0-.3-.1-.4h.1c0-.1 0-.3-.1-.2.1 0 0-.2-.1-.2h.1c-.1 0-.1 0-.2-.1 0-.1-.1 0-.1-.1h.1c0-.1 0-.1-.1-.1v-.2s-.1 0-.1-.1-.1-.2-.1-.3v.2c.1 0 .1-.1.2-.1-.1-.1-.2-.1-.2-.2v-.1-.1h-.1v.1s-.1-.1 0-.1h-.1c.1-.1.1-.2.2-.2-.1-.1-.1-.3-.2-.4v-.1.1c0-.1 0-.2-.1-.2 0-.1.1 0 .1-.1.1-.3-.3-.4-.1-.7.1-.3-.1-.7.1-.9v-.2h.1l-.1-.1c0-.2.2-.1.2-.3h-.1s.1-.2.1-.1c0 0 0-.1 0 0 0 0 0-.1.1-.1s.1.1.2.1c0 0 .1-.1.1-.2h-.1.1c0-.1.1-.2-.2-.3l-.1.1h-.1.1c-.1 0-.1 0-.1.1h-.1v.2s0-.1-.1-.1c0 .1.1 0 .1.1h-.1v-.1c0 .1-.1.1-.1.2-.1 0-.1.2-.2.1v.2c-.1-.1-.1.2-.2.1.1.1 0 .3 0 .4 0 .1-.1.1-.1.1.1 0 .1.1.2.2-.1.1-.1-.1-.2 0 .1 0 .1.1.1.1-.1.1 0 .1-.1.1.1 0 0 .1.1.1.4.3.4.2.3.3.1.1 0 0 0 0zm.5 2.1zm.1.2c0-.1 0-.1 0 0 0-.1 0 0 0 0zm.4-.5c0 .1 0 .1 0 0-.1.1-.1.1 0 0-.1 0-.1 0 0 0zM527.7 286.9s-.1 0 0 0zM532.5 296.6zM527.9 289.9zM533.3 295.9zM533.5 295.6c0-.1 0 0 0 0zM533.7 295.3zM531.2 299.7zM531.8 298.4zM530.4 297.7zM531.8 298.5zM534.6 294.2zM534.6 294.2c0-.1 0-.1 0 0zM534.6 294.1zM534.3 294.5zM534.2 294.6s.1 0 .1-.1l-.1.1c.1-.1 0 0 0 0z"/>
      <path d="M533.6 294.9v-.1c-.1 0 .1 0 0 .1zM533.4 295.2c0-.1 0-.1 0 0zM532 297.2c-.1 0 0 0 0 0zM532 297.8h.1l-.1-.1zM531.5 297.9v.1zM530.8 297.1c0 .1.1.1 0 0zM530.2 295.4v-.1.1zM528.7 290.2v-.1z"/>
    </g>
    <g>
      <path d="M712.1 261.3c0-.1 0-.1-.2 0v.1l.2-.1zM711.1 261.9c-.1.2-.3.4-.1.3.1-.2.2-.2.3-.4.1-.1.3-.2.3-.1 0-.1.2-.2.3-.3-.4.1-.6.3-.8.5-.1.1-.1 0 0 0zM697.8 272.7c.1 0 .1 0 0 0zM689.4 279.1s.1-.1 0 0zM688 280.3s.1 0 0 0c.1 0 0 0 0 0zM697.8 272.7l-.2.1c0 .1.1 0 .2-.1zM709.3 263.5l.1-.1-.1.1zM701.4 269.7l.1-.1-.1.1zM704.1 267.4c-.1.1 0 .1 0 .2v-.2zM708.5 263.8c.1 0 .1 0 0 0zM699.4 271.4zM715.7 264.4c.1 0 .1 0 0 0 .1-.1.1-.1 0 0zM718.6 262.7zM685.8 282.8c.1 0 0 0 0 0zM692.5 308.7c-.2-.3.5.3.1-.1.1.1-.3-.2-.1.1zM709.3 263.6l-.1.1c0-.1 0-.1.1-.1zM692.7 308.6zM681.6 289.1s0-.1 0 0c0-.1 0-.1 0 0zM684.9 284.6l-.1.1c.1 0 .1-.1.1-.1zM682.5 291.9v0zM683.2 294.9v-.2.2zM710.7 272.2c0-.1.1-.1.1-.1-.1.1.1-.4-.1.1zM709.3 263.5s0 .1 0 0zM683.1 291.9l.1.5c-.1-.1-.1-.3-.1-.5zM702.5 292.7v-.1.1zM683.5 293.8v.3-.3zM710.8 272.1z"/>
      <path d="M712.2 269.2c-.2.4 0 .2 0 .3-.3.5-.2.2-.3.3-.2.3-.2.6-.3.8 0 0-.1.1 0 0-.1.4-.5 1-.6 1.4h.1c-.1.2-.1.4-.2.4.1-.1 0-.1.1-.2l-.1.2c-.2.1.1-.3.1-.3-.2.4-.3.9-.5 1.2-.1 0 .3-.7.1-.3l.2-.4c-.3.3.1-.3-.1 0-.3.6-.3.7-.6 1.3 0 .2.1 0 .1.1-.3.9-.5.6-.7 1.3 0 .2 0 .3-.2.7v-.2c-.3.6 0 .4-.3 1 0-.1.2-.5.1-.4-.2.4-.1.3-.2.6h-.1c-.2.6-.5 1.4-.7 2.1 0 0 0-.2-.1 0-.3.9-.7 1.9-1.1 2.7l-.1.4c0 .1-.1.1-.1 0-.2.3 0 0 0 .2-.1.2-.1.2-.1.1-.2.6-.5 1.7-.8 2.3v-.1c-.2.5-.1.6-.3 1v-.1c-.4 1-.8 2.2-1.2 3 0 .2-.4 1-.3 1.1-.3.6-.3.4-.6 1.2-.1.2 0 .4-.1.7h-.1l-.1.4-.2.2-.1.3c0-.1.1-.2.1-.2-.1.4-.4 1-.5 1l-.3 1s0-.2.1-.3c-.1.5-.1.1-.2.6v.1c-.1.2-.3.8-.5 1.2v-.1c-.3.7-.6 1.5-.9 2.3.1-.3.2-.2.1.1l-.1.1c0 .2.1-.2.1.1-.1.3-.2.2-.1 0l-.1.4v-.1c0 .2-.3.6-.3.8-.3.8-.5 1.2-.7 1.8.1 0-.1.3-.1.5-.2.5-.5 1-.8 1.5-.2.4 0 .1 0 .3-.1 0-.3.6-.2.3-.3.7-.4.8-.8 1.7.1-.1.1-.2.1-.1-.1.2-.2.3-.2.3-.4 1-1.4 2-1.9 2.7-.2.2-.3.5-.5.6-.3.2.1-.2-.1 0-.3.3-.5.2-.8.1-.3-.1-.5-.4-.8-.6-.3-.6-1.5-1.5-1.9-2.2v.1c-.2-.1-.1-.2-.2-.3 0 0 .1.2 0 .1-1.2-1.3-2.3-2.9-3.4-4.3-.4-.5-.4-.2-.8-.9l.2.1c-.9-1-1.6-2.2-2.1-3.4 0 .1.1.1.1.2-.1-.3-.4-.9-.4-.9-.1-.2 0-.1 0-.2-.1-.3-.3-.6-.3-.8 0 0 0 .1.1.1-.1-.2-.3-.8-.3-.6-.1-.5-.3-.9-.4-1.3-.1-.2-.2-.8-.3-.9.1 0-.1-.9-.2-1.2.1.1 0-.3 0-.2-.1-.3-.2-.7-.2-.6 0-.7-.5-1.3-.5-1.7-.1-.2-.2-.5-.2-.7v-.3s0-.1.1-.1h.1l.2-.1c.1-.1.2-.1.3-.2.2-.2.4-.3.6-.5 0 0-.2.3-.4.4-.2.2-.5.3-.4.3.9-.5 1.1-1.1 1.6-1.8.1-.2 0 .1-.1.2.5-.8.9-1.6 1.2-2.3 0 0 0 .1-.1.2.1-.1.2-.3.1-.3l-.1.1c-.2.2.2-.6.2-.7 0 .3.4-.7.4-.2 0-.1.1-.2.1-.2.1-.1.1-.2.1 0 .3-.5.1-.3.4-.8v.2c.1-.2.2-.5.5-.8v.1c.5-.6.7-1.1 1.3-1.6-.1.2.2-.2.3-.1l.3-.3-.2.1c.3-.3.5-.5.7-.8l-.2.2.5-.5-.3.2c.3-.3-.1-.1.3-.4-.1.1.3-.3.5-.3l.5-.5c.1 0 0 .1.1.1.1-.2.7-.6.8-.8-.1.1 0 .1 0 .1l.1-.1.2-.1c.4-.3-.2 0 .3-.3l-.1.1c.5-.4 1-.8 1.5-1.1.2 0-.4.3-.2.3.7-.5 1.4-1.1 2-1.6l-.1.1c0-.2.5-.3.8-.6l-.1.1c.5-.3.9-.7 1.6-1.2l-.1.1c.3-.2.7-.5 1-.7.1-.1.2-.2.1-.2 1-.5 1.6-1.4 2.4-1.9l-.1.1.6-.6c-.1 0-.1 0-.3.1.1-.1.2-.3.4-.4-.3.3.1.1.2 0v-.1c.4-.2 0-.1.5-.5l.5-.5c.1 0-.2.2-.1.2.3-.2.4-.5.7-.7-.1.1-.2.2-.3.4.3-.2.3-.2.5-.4l.5-.3-.1.1c.2-.4.6-.6 1-1-.4.4 0 .1 0 .2.1-.1.3-.2.3-.1.2-.2.4-.3.6-.6 0 0 .2-.2.2-.1.3-.2-.1 0-.1 0 .4-.4 1-.7 1.6-1.3.5-.5.5-.6 1-1 .2-.1-.1.2-.1.2.3-.2.5-.4.7-.6 0 .1 0 0 .1 0 .2-.2.1-.2.4-.4 0 .1-.1.1-.1.2.2-.2.4-.4.7-.6.1 0-.1.2-.2.3.3-.2.7-.6.7-.7l-.2.1c.1-.1.1 0 0 .1-.2.2-.4.3-.4.2l.2-.2c-.3 0-.7.6-1 .9l.1-.2-.3.4c-.1 0-.2 0 0-.1-.3.2-.2.2-.4.3l-.2.2c0-.1-.1 0 .1-.1-.5.3-.7.6-.9.7-.6.5 0 .1-.4.5l-.4.1v.1c-.1 0-.2.1-.2.1-.2.2.1 0 0 .1-.3.2-.8.7-1 .7-.1.1.3-.2 0 .1-.2 0-.4.3-.7.5 0-.1.3-.3 0-.1-.1.2-.5.4-.8.6 0 .1-.5.5-.8.8 0 0-.7.6-1.1.9 0 .1-.4.4-.6.7 0 0 0-.1.1-.2l-.2.2c0 .1-.1.2-.3.3v-.1c-.3.3-.6.6-1.1 1 0 .1.5-.2 0 .3 0 0-.1 0 0-.2l-.2.2.1-.2c-.2.1-.1.1-.2.3 0 0-.1.1-.1 0 0 0 .2-.1.2-.2-.2.1-.4.3-.5.3 0 0 0 .1-.1.2-.3.3-.2 0-.4.2-.1.1-.3.2-.3.3-.1.1-.1.1-.2.1-.2.2-.8.7-.6.6-.5.5-1.3.9-1.8 1.3-.3.3-.8.6-1 .8-.1.1-.3.1-.2.1-.3.2-.3.3-.7.5.3-.2-.1 0 .3-.2-.4.2-.5.3-.8.6.1-.1-.3.1-.5.3l.3-.1c-.2.1-.4.3-.5.4v-.1c-.8.5-1.2 1.1-1.8 1.4-.1.2.4-.3.3-.1-.3.2-.7.4-.8.5-.5.3-.3.4-.8.8.1 0 .2 0-.1.3-.3.3-.5.3-.3.1l.1-.1.1-.1v.1c-.2.1-.6.5-.5.4-.2.2-.1.1.1 0-.4.3-.6.6-1 .9.1-.1.2-.1.1 0-.6.6-.2.3-.6.7-.2.2 0-.2-.3.3-.2.2-.1 0 0-.1-.3.4-.6.7-.8.9l.1-.2c-.1.1-.2.2-.2.3l.1-.1-.2.2c-.1.2.1 0 0 .2-.1.1-.3.5-.4.5.4-.5-.1 0 .2-.4-.1.1-.1.2-.2.3v-.1c-.4.5-.1.3-.4.8 0-.1-.1.1-.2.2.1-.2.1-.1 0 .2-.2.3-.2.4-.3.6l.1-.2c0 .1-.1.3-.2.5 0 0 .1-.2 0-.2-.1.3-.4.6-.6 1-.1.2-.1 0-.2.1-.2.4-.3.4-.6.9.1-.1.1-.1 0 .2.2-.2.3-.5.4-.7-.1.2-.1.3-.2.5.1-.2.3-.5.3-.6-.1.2-.1.2 0 .1-.3.3-.3.6-.6.9l-.1-.1-.6.6-.3.3c-.1.1-.2.1-.5.2.1 0 .3-.1.3-.1s-.2.1-.4.1c-.1 0-.1.1-.1.2v.3s-.1.2-.1.3c0 0 .1.6.2.7l.1.4c.2.6.4.6.5 1.2-.1-.2-.1.1-.2-.3.1.2.1.4.1.4 0 .1.2.5.2.7 0 .1.1.1.1.3 0 0 .1.3.1.1 0 .7.4 1.7.5 2.3.2.4.3.9.5 1.3v-.1c.1.6.2.3.4.9 0 .3-.2-.3-.1-.1-.1.1.3.7.4 1.2v-.1c.1.3.4.7.6 1.2.3.3.7.9 1 1.3-.1-.1-.2-.2-.2-.1.1.2 0-.1.3.3.1.1.2.4.2.5l-.3-.3c.1.2.3.5.5.6.4.5.5.5 1 1v-.1c.3.2.2.3.5.6v.2c.2.2.6.7 1 1l-.8-.8c.2.2.6.7.7.8-.1-.1-.2-.2-.2-.3.3.2.5.5.9.9-.2.1.8 1.1 1 1.4.7.6 1.2 1.4 1.9 2.1-.2-.4.2.2.3.1l.3.3c.2.2.3.4.5.6.1.2-.2-.1-.2-.1.5.4.1.2.5.5 0-.1.2.1.6.1-.2 0-.4-.1-.5-.2.4.1.7.1.9.1.2 0 .5-.1.7-.4l-.2.2c.3-.3 1-1.1 1.2-1.5.1 0 .1-.1 0 .1.6-.8 1-1.8 1.4-2.4v.1c.1-.2.1-.3.2-.5 0 0 0 .1 0 0s.2-.4.3-.6l-.1.2c.5-.8.5-1.3.8-2 .1 0 .4-.6.6-.9.4-1 .6-1.7.9-2.6.3-.5.8-1.9 1.2-2.8-.1.1-.1-.1 0-.2.1-.2.2-.6.2-.5v.1c.2-.1.3-.6.4-.9l-.1-.1c.5-.8.8-2.4 1.2-2.8.1-.2.1-.5.2-.7h.1c.2-.6.4-.9.6-1.6v.2c.2-.4 0-.6.2-1l.1-.1c.3-.7.7-1.4.8-2.2v.2c.1-.3.6-1.3.4-1.2.1 0 .3-.8.4-1.2v.1c0-.4 0-.4.2-.9.1-.1.1-.1 0 .1.2-.4.1-.3.3-.7v.2c.2-.4.1-.4.2-.6.1-.2.3-.7.4-.7 0-.1 0-.3.1-.5v.1c.3-.6.3-1 .5-1.4l.1-.1c-.2.5-.4.9-.3.9.1 0 .2-.4.2 0 .1-.3.2-.9.4-1.3 0-.1.1-.2.1-.3.1-.1.1-.2.1-.3.1 0 .2-.5.3-.7-.1 0 0-.3-.1 0l-.1.2v.1c-.1.1-.1.3-.2.5 0-.2.1-.4.2-.6v-.3c.2-.2.5-.8.5-.8.2-.6.6-1.4.6-1.9.1-.2.1-.2.2-.2 0 .1-.1.2-.1.3.1-.4.4-1 .4-1.1.2-.4 0 .3.2-.3v.1c.7-1.1.7-2 1.5-3.1l-.1.1c.8-1.4 1.6-2.9 2.7-4.1.3-.3.3-.4.4-.7h.1l.2-.4c.4-.6.9-.8 1.3-1.5h-.1c.2-.2.6-.7.7-.6 0 0 0-.1.1-.2.2-.2.3-.4.5-.5.2-.2.2-.1.3-.1 0 0 .1 0 .4-.1h.2l-.1-.3-.2.4c.1-.1.2-.3.2-.2l-.2.2c.1.1 0 .3.5-.1l.3-.3-.4-.1h-.5c-.1 0-.2.1-.3.1h-.2c.2-.1.3-.2.5-.2-.3 0-.5.1-.6.3 0 0-.1 0-.2.1s-.2.3-.3.4c-.1 0 .1-.2-.2 0-.1.2.2-.1 0 .2-.2.1-.2 0-.4.3l.1-.1c-.2.2-.5.5-.5.6-.2.1-.5.6-.6.6 0 .1-.2.4-.4.6.2-.4-.5.7-.6.5-.1.3-.6.9-.9 1.4 0 0 0-.1.1-.1l-.4.4c.1.1-.2.5-.3.7-.3.3 0-.3-.1-.2.1 0-.3.6-.2.5l-.3.3c.1.1-.1.2-.2.5-.3.3-.2 0-.4.4-.7-.8-.5-1.2-.5-1.2zm-4.4 10c0-.1.1-.2.1-.2s-.1.1-.1.2zm-.3.8c0-.1.1-.2.1-.4v.1s0 .2-.1.3zm1.1-1.6c0 .1-.1.2-.1.2.1-.1.1-.1.1-.2zM708.6 278.1zM697.9 272.7s.1 0 0 0c.1 0 .1 0 0 0zM702.8 291.7h.1zM702 269.6z"/>
      <path d="M703.6 268.2l.2-.2c-.1.1-.1.2-.2.2zM704.9 267.2c0-.1 0-.1 0 0zM685.4 284.7c-.1.2-.1.1 0 0zM690.3 278.7l-.2.2.2-.2zM683 291.9h.1zM689.8 279.1c.1-.1.2-.2.3-.2-.1 0-.2.1-.3.2zM710.5 262.6c.1 0 .1-.1 0 0zM710.6 262.5zM710.8 262.3l-.1.1.1-.1zM708.8 264zM708.3 264.4c.1-.1.3-.2.5-.4-.1.1-.5.3-.5.4zM705.9 265.9l.4-.3c-.1 0-.2.1 0-.1-.6.4.2 0-.4.4zM704.5 267c.2-.2 0 0 0 0-.1.1-.2.2 0 0zM694.7 274.9c-.2.1 0 0 0 0zM693 276.6l.2-.1v-.1zM691.6 277.1v-.1l-.3.3zM683 294.4c0-.2-.1-.2 0 0zM687.3 302.5c0 .1.2.3.3.4-.1-.2-.2-.3-.3-.4zM702.5 294.2v.2l.1-.3z"/>
    </g>
    <g>
      <path d="M420.6 253.9c-.1 0-.1 0 0 .1h.1s-.1 0-.1-.1zM420.9 254.9c.1.2.2.3.3.2-.1-.2-.1-.2-.3-.4-.1-.1-.1-.3 0-.3 0 0-.1-.2-.2-.3.1.3.2.6.2.8.1.1.1 0 0 0zM421.7 269.8zM421.7 279.2v-.1c-.1 0-.1.1 0 .1zM421.6 280.8c0-.1 0-.1 0 0 0-.1 0-.1 0 0zM421.7 269.8v0zM421.6 256.9v-.1.1zM421.8 265.7v-.1.1zM421.7 262.6c0 .1.1.1.1.1l-.1-.1zM421.4 257.6zM421.7 268zM470 276.4s0 .1 0 0zM472.7 274.7c0-.1 0-.1 0 0zM421.8 283.7c0-.1 0-.1 0 0zM429.6 297.1c-.3.1.4-.3 0-.1 0-.1-.3.2 0 .1zM421.6 257v0zM429.6 296.9zM422.4 290.4c0-.1 0-.1 0 0 0-.1 0-.1 0 0zM422 285.4v0zM422.6 292.9v0zM422.4 295.6l.1-.1v-.1zM463.6 281.5h.1s.3-.3-.1 0zM421.5 256.9s.1 0 0 0zM423.2 293v0zM446.2 289.9c.1 0 .1 0 0 0zM423.1 294.7c0 .1-.1.2-.1.2v.1l.1-.3z"/>
      <path d="M465.9 279.7c-.3.2-.1.2-.1.3-.4.3-.2.1-.4.1-.2.2-.4.4-.6.5 0 0-.1 0 0 0-.2.2-.8.6-1 .8h-.1c.1 0 .1 0 .1.1-.1.1-.3.2-.3.2l.1-.1-.1.1c-.2 0 .2-.2.2-.2-.3.2-.6.5-.9.6-.1 0 .6-.4.2-.2l.4-.2c-.4.1.2-.1-.1-.1-.5.3-.5.4-1 .6-.1.1.1 0 0 .1-.7.4-.7.1-1.2.4-.1.1-.1.2-.6.4l.1-.1c-.5.2-.2.2-.8.4.1-.1.4-.2.3-.2-.4.1-.2.2-.5.3l-.1-.1c-.6.2-1.1.5-1.8.8 0 0 .1-.1 0-.1-.8.4-1.7.7-2.4 1l-.2.2h-.1c-.3.1 0 0-.1.1-.2.1-.2.1-.1 0-.5.3-1.4.8-1.9 1l.1-.1c-.4.2-.4.4-.8.5h.1c-.9.4-1.8 1-2.6 1.2-.1.2-.9.4-.9.5-.5.2-.4.1-1.1.4-.2.1-.2.2-.5.4v-.1l-.3.2h-.2l-.2.1c.1 0 .2-.1.2 0-.3.2-.9.4-.9.3l-.8.4.2-.2c-.4.3-.1 0-.5.2.1 0 0 .1 0 .1-.2.1-.7.3-1 .4v-.1c-.6.3-1.3.6-2 .9.3-.1.2 0 0 .1h-.1c-.1.1.2-.1 0 .1-.3.1-.2 0-.1-.1l-.3.1s0-.1.1-.1c-.1.1-.6.1-.7.3-.7.2-1 .4-1.6.6 0 .1-.2.1-.4.2-.4.1-.9.2-1.5.4-.4.2-.1.1-.2.2 0-.1-.6.1-.3 0-.6.2-.8.3-1.6.6h.2c-.1.1-.3.1-.3.1-.8.4-2.1.6-2.7 1l-.7.4c-.3.1.2-.1-.1-.1-.7.4-1.2.5-1.8.9-.6.1-1.6 1-2.3 1.3h.1c-.1.1-.2.1-.3.2 0 0 .2-.1.1 0-1.3.9-2.8 1.6-4.3 2.2-.3.1-.3.2-.4.3 0 0-.1.1-.2.1s-.2.1-.3.1v-.1s-.1.1-.1 0v-.1-.2c0-.1 0-.3.1-.4.2-.6.4-1.2.5-1.7v.2c.1-.2.2-.9.2-.9 0-.2.1 0 .1-.1.1-.2.1-.6.1-.8v.1c0-.2.1-.8 0-.6.1-.4.1-.8.2-1.2 0-.2.1-.8 0-.8.1 0 .1-.8.1-1.1 0 .1 0-.2.1-.1 0-.3 0-.6-.1-.6.1-.6-.2-1.2-.1-1.5-.1-.9-.2-1.8-.3-2.6.1 0 .1.9.2.9-.1-.8-.2-1.2-.3-2 0-.2.1.1.1.2-.1-.8-.1-1.5-.2-2.2v.1c0-.1 0-.3-.1-.3v.1c-.1.2-.2-.5-.2-.6.2.2 0-.7.2-.3 0-.1 0-.2-.1-.2 0-.1 0-.2.1 0-.1-.5-.1-.3-.1-.8 0 0 0 .1.1.1-.1-.2-.1-.5-.1-.8v.1c-.1-.7-.2-1.1-.2-1.8.1.2 0-.2.1-.3v-.4.2c0-.3-.1-.6-.1-.9v.3-.6.4c-.1-.3-.1 0-.1-.4v-.5c0-.2-.1-.3-.1-.6 0-.1.1 0 .1 0-.1-.2 0-.8-.1-1 0 .1.1.1.1 0l-.1-.1c0-.2 0-.2.1-.2 0-.5-.1.2-.1-.4v.1c0-.6-.1-1.1 0-1.6.1-.2 0 .5.1.3 0-.7-.1-1.5-.1-2.3v.1c-.1-.1.1-.5 0-.9 0 .1.1.1.1.1v-1.8.1c0-.3 0-.8.1-1.1 0-.1 0-.3-.1-.2.2-1 0-1.9.1-2.7v.2-.7c-.1.1 0 .1-.1.3 0-.1-.1-.3-.1-.5 0 .3.1 0 .1-.1h-.1c.1-.4-.1-.1 0-.6 0-.2-.1-.4-.1-.6.1-.1 0 .2.1.2 0-.3-.1-.6-.1-.9 0 .1 0 .3.1.4.1-.3 0-.3 0-.5v-.5.1c-.2-.4-.1-.8-.2-1.2.1.5.1.1.1.1v-.3c-.1-.2 0-.4-.1-.7v-.2c0-.3 0 .1-.1.1-.1-.5 0-1.1-.2-1.8-.1-.6-.2-.7-.3-1.2 0-.2.1.1.1.1 0-.3 0-.5-.1-.8 0 .1 0 0 .1-.1 0-.2-.1-.1-.1-.4 0 0 .1.1.1.2-.1-.3-.1-.5-.2-.8 0-.1.1.2.1.2-.1-.3-.2-.8-.3-.9v.2c0-.1 0-.1.1 0 .1.3.1.4 0 .4l-.1-.2c-.1.2.2.8.2 1.2l-.1-.1.1.4c0 .1-.1.2-.1 0 0 .3.1.2 0 .5l.1.3c0-.1-.1.1-.1-.1 0 .5.1.8.1 1 .1.7.1.1.2.6l-.2.4.1.1v.2c.1.3 0 0 .1.1 0 .3.1.9 0 1 .1.1 0-.3.1 0-.1.1.1.4 0 .7-.1-.1-.1-.4-.1-.1.1.2 0 .6.1.9.1 0 .1.6.1 1 0 0 0 .8-.1 1.2.1.1.1.5.1.8-.1 0-.1-.1-.1-.2v.3c0 .1 0 .2.1.3l-.1-.1c0 .4.1.8 0 1.3.1 0 .2-.4.2.1 0 0-.1 0-.1-.1v.3-.2.3s0 .1-.1.1v-.2c0 .2-.1.4-.1.5 0 0 .1 0 .1.2 0 .4-.1.1-.1.4 0 .1 0 .3.1.3 0 .1 0 .1-.1.2 0 .2 0 .9.1.7v-.1c0 .7-.1 1.4-.1 2v1.1c0 .1 0 .3-.1.2v.5c0 .4-.1.5 0 .9-.1-.1-.1.3-.1.5v-.3.6l-.1-.1c-.1.8.2 1.4 0 2 .1.2 0-.4.1-.2 0 .4-.1.7-.1.9 0 .5.1.5.1 1 0-.1.1-.1.1.3s-.1.5-.1.2v-.1c0-.1 0-.3-.1-.1 0 .2 0 .7-.1.6 0 .3.1.1.1-.1V280.7c0 .7.1.3.1.8 0 .3-.1-.1 0 .4 0 .3-.1.1-.1 0 .1.4 0 .8 0 1.1v-.2.4-.1.2c0 .1.1-.1.2.2 0 .2.1.5 0 .6 0-.6-.1.1-.1-.4V283.9c0 .5.1.2.2.8 0-.1-.1.1-.1.2 0-.2.1-.1.1.1 0 .4.1.4.1.6v-.2c0 .1.1.2.1.5v-.1c.1.3 0 .6.1 1 0 .2-.1 0-.1.2.1.4 0 .5.1.9 0-.1 0-.2.1.2l-.1-.7.1.5c0-.2-.1-.5-.1-.6.1.2 0 .2.1.1-.1.3.1.6.1 1h-.1c0 .5.2.9.2 1.7v-.2c.1.1 0 .4.1.7 0 0-.1.1-.1.2 0 0 0 .5.1.6v.3c0 .6.2.6.2 1.2-.1-.2-.1.1-.1-.3v.3c0 .1.1.5 0 .7 0 .1.1.1.1.3 0 0 0 .3.1.1-.2.5-.1 1.6-.3 2 0 .4-.1.9-.1 1.2v-.1c-.1.5.1.3-.1.9-.1.3 0-.3 0-.1-.2 0-.1.7-.3 1v-.1c-.1.3-.1.7-.3 1.1 0 .3-.2.9-.1 1.5-.1-.1-.1-.2-.1-.1.1.3.1-.1.2.3v.1h.4c-.2.1-.3.1-.5.2.2 0 .7-.3.8-.3.5-.2.5-.3 1.1-.6h-.1c.3-.2.3-.1.6-.3h.1c.2-.1.7-.4 1-.6-.2.2-.6.4-.8.6.2-.1.7-.3.8-.4-.1.1-.2.1-.3.2.2-.2.5-.4.9-.6 0 .2 1-.6 1.4-.6.6-.5 1.3-.9 2.1-1.3-.4 0 .2-.1.1-.2.2-.1.3-.2.3-.2l.6-.2c.2 0-.2.1-.1.1.4-.2.2 0 .5-.1-.1 0 .1-.1.4-.2l-.4.1c.6-.3.6-.1 1.1-.5l-.2.1c.3-.2 1.2-.5 1.4-.7.1 0 .2 0 0 .1.8-.3 1.7-.8 2.3-.9v.1c.1-.1.2-.2.4-.2 0 0 0 .1 0 0 .1 0 .4-.2.6-.2l-.2.1c.8-.2 1.1-.5 1.8-.7 0 .1.6-.1.9-.1.9-.3 1.5-.6 2.3-.9.6-.1 1.7-.6 2.5-.9-.1 0 0-.1.1-.2.2-.1.5-.3.5-.2h-.1c.2 0 .5-.2.8-.3v-.1c.9-.2 2-1 2.5-1.1l.6-.3v.1c.5-.2.8-.3 1.4-.7l-.1.1c.4-.2.4-.4.7-.6h.1c.6-.3 1.3-.6 1.8-.9 0 0 0 .1-.1.1.3-.1 1.1-.5 1-.6 0 .1.6-.3.9-.5v.1c.2-.2.2-.2.6-.5.1 0 .1 0 0 .1.3-.1.2-.2.6-.3l-.1.1c.3-.2.3-.2.4-.3.2-.1.6-.3.7-.2 0-.1.2-.2.4-.3 0 0 0 .1-.1.1.6-.2.8-.4 1.2-.5h.1c-.4.2-.8.3-.7.3 0 .1.4-.1.1.1.3-.2.7-.5 1-.6h.1c.1 0 .2-.1.2-.1.1 0 .2-.1.3-.1.1 0 .4-.1.6-.2 0-.1.2-.1 0-.1l-.1.1h-.1c-.1 0-.3.1-.4.2.1-.1.3-.2.5-.2l.2-.2c.3 0 .8-.1.9-.1.5-.3 1.3-.6 1.5-.8.1-.1.2 0 .3-.1-.1.1-.2.1-.2.1.3-.2.9-.4.9-.6.4-.2-.2.2.3-.1l-.1.1c1.1-.4 1.5-1.1 2.6-1.7-.1 0-.1.1-.1.1 1.2-.8 2.3-1.8 3.5-2.7.3-.2.3-.3.5-.5h.1l.3-.3c.4-.4.9-.5 1.4-1.1h-.1c.2-.2.6-.6.6-.5 0 0 0-.1.1-.1l.4-.5c.4-.3 0 .2.6-.3l.3-.3-.3-.2c0 .2 0 .3.1.2 0-.1 0-.2.1-.2l.1.1h-.2v.2c.1.1.2.2.3-.2l.2-.6-.6.4s-.1.1-.2.1l-.3.3-.1.1.3-.2c-.2.1-.3.2-.3.3 0 0-.1 0-.2.1l-.2.4c-.1 0 .1-.2-.1 0-.1.2.2-.1 0 .2-.2.1-.2 0-.3.2v-.1c-.1.2-.4.4-.5.5-.2.1-.5.5-.6.4 0 .1-.2.3-.4.4.2-.3-.6.5-.6.3-.1.3-.7.7-1 1 0 0 0-.1.1-.1-.2.2-.3.2-.4.3 0 .1-.3.4-.4.6-.3.1.1-.2-.1-.2.1 0-.4.4-.3.4-.2.1-.2.1-.3.1 0 .1-.2.2-.3.3-.3.2-.1 0-.4.2.2-.8.4-1.1.4-1.1zm-8.2 4.7c.1 0 .1-.1.2-.1 0 0-.1 0-.2.1zm-.7.3c.1 0 .2-.1.3-.1l-.1.1c.1-.1-.1-.1-.2 0zm1.7-.3c-.1.1-.2.1-.2.1.1 0 .2 0 .2-.1.1 0 .1 0 0 0zM458.9 284.3zM421.7 269.7zM447 289.5h.1zM422.1 265.3zM422.1 263.4v-.3.3zM422 261.9zM422.5 285.2c0 .2 0 .1 0 0zM421.9 278.3v0zM423.2 293zM421.9 278.9v-.3.3zM421.3 255.6c0-.1 0-.1 0 0zM421.3 255.5z"/>
      <path d="M421.2 255.3l.1.2c0-.1 0-.2-.1-.2zM421.6 257.5zM421.7 258.1v-.6c0 .1-.1.5 0 .6zM421.6 260.6v-.5c0 .1 0 .2-.1 0 0 .6.1-.1.1.5zM421.7 262.1c0-.2 0 0 0 0 0 .2 0 .2 0 0zM421.6 273.2c-.1.2-.1 0 0 0zM421.9 275.3V275zM421.5 276.6v-.1.3zM422.4 295.1c.1-.2 0-.2 0 0zM423.4 300.6c.1 0 .3-.1.4-.2-.2.1-.3.1-.4.2zM445.4 291l-.2.1.3-.2z"/>
    </g>
    <g>
      <path d="M513.5 173.9c.1 0 .1 0-.2-.2h-.2l.4.2zM511.9 173c-.3-.1-.7-.2-.5 0 .3.1.4.1.7.2l.4.2c.1 0 .4.2.5.2-.3-.3-.7-.5-1.1-.6-.1 0 0 0 0 0zM498.9 164.8l-.1.1c0-.1.1-.1.1-.1zM512.5 155.9l-.1.1c.1-.1.2-.1.1-.1zM514.9 154.4c-.1 0-.1.1-.1.1s0-.1.1-.1zM498.9 164.8l.4-.2c0-.1-.2.1-.4.2zM508.5 171.8c.1 0 .2 0 .2.1l-.2-.1zM493.7 169h.2-.2zM498.9 169.2c-.1 0-.2.1-.2.1s.1-.1.2-.1zM507.4 171.2h.2-.2zM496.3 166.6zM627.3 158.1zM633.3 160.2h-.1.1zM519.2 151.7c-.2.1-.1 0 0 0zM558.1 126.1c-.3.4.3-.8-.1-.1 0-.1-.3.6.1.1zM508.3 171.8l-.2-.1c.1 0 .2 0 .2.1zM558 126zM529 145.3h-.1c0 .1 0 .1.1 0zM521.6 150l.2-.1c-.1.1-.1.1-.2.1zM532.7 142.7c.1-.1.1-.1.3-.2-.2 0-.2.1-.3.2zM536.6 140c-.1.1-.2.1-.2.1l.2-.1zM613.4 154.7c.1 0 .2.1.2.1-.1-.1.6.1-.2-.1zM508.5 171.8h-.1.1zM532.5 142.1l.6-.4c-.1.1-.4.3-.6.4zM583.6 139.4l.1.1-.1-.1zM535 140.4c.1-.1.3-.1.4-.2l.1-.1-.5.3zM613.6 154.8z"/>
      <path d="M618.4 155.8c-.7-.2-.3 0-.5 0-.8-.2-.4-.2-.6-.3-.5-.1-.9-.1-1.3-.2 0 0-.1 0 0 0-.6-.1-1.6-.4-2.3-.5h-.1l.1.1c-.3-.1-.6-.1-.7-.2h.3-.3c-.3-.1.5.1.5 0-.6-.1-1.4-.2-1.9-.3-.1-.1 1.2.2.5 0l.8.2c-.6-.3.5.1 0-.1-1-.2-1.1-.2-2.1-.4-.2 0 .1.1-.2.1-1.4-.2-1.1-.4-2.1-.6-.3 0-.4.1-1.1-.3h.3c-.9-.4-.6-.1-1.5-.6.2 0 .7.3.6.2-.6-.3-.4-.2-.9-.4l-.1-.1c-1-.5-2.1-.8-3.1-1.3.1 0 .3.1 0-.1-1.4-.6-2.8-1.3-4.1-2l-.5-.2c-.1-.1-.2-.1-.1-.1-.5-.3 0 0-.3-.1s-.3-.2-.2-.2c-.9-.4-2.5-1.2-3.3-1.8l.2.1c-.7-.4-.8-.3-1.4-.8l.1.1c-1.4-1-3-2-4-2.9-.3-.1-1.4-1-1.5-1-.8-.6-.5-.5-1.6-1.3-.3-.2-.5-.2-.9-.5v-.1l-.6-.3-.2-.3-.4-.2c.1.1.3.2.3.2-.6-.3-1.3-1-1.3-1l-1.4-.8s.3.1.5.2c-.7-.4-.1-.2-.8-.5.1.1-.1 0-.1 0-.3-.3-1-.8-1.6-1.1h.1c-1-.7-2.1-1.4-3.2-2.1.4.3.2.3-.1.1l-.1-.2c-.2-.1.3.3-.1 0s-.2-.3 0-.1l-.5-.3h.2c-.2-.1-.8-.7-1.1-.8-1.1-.8-1.6-1.1-2.5-1.7-.1 0-.4-.2-.7-.4-.6-.5-1.3-1-2.1-1.6-.6-.4-.2-.1-.5-.2 0-.1-.8-.6-.3-.4-.9-.7-1.2-.9-2.4-1.7.1.1.3.2.2.2-.2-.1-.5-.4-.4-.4h.1c-1.4-.9-3.1-2.2-4.2-2.8h.1c-.4-.2-.8-.4-1.3-.6-.6-.2.4.1-.1-.1-.4-.1-.8-.1-1.2 0-.4.2-.6.5-.7.7-.3.5-.6.9-.8 1.5-.3.4-.7 1.1-1.2 1.6-.6.6-1.3 1.2-1.8 1.5h.1c-.2.2-.3.2-.5.3 0 0 .3-.2.2 0-2.2 1.5-5.1 2.5-7.5 3.9-.9.5-.4.5-1.6 1l.3-.3c-1.7 1.1-3.6 2.2-5.3 3.3.1-.1.1-.1.3-.2-.4.2-1.3.8-1.3.9-.3.2-.1 0-.3.1-.4.2-.9.6-1.1.7 0 0 .1-.1.2-.1-.2.2-1.1.7-.8.6-.7.4-1.2.8-1.7 1.1-.3.3-1.1.7-1.1.9 0-.1-1.2.7-1.5 1 .1-.1-.4.2-.2.1-.5.3-.9.6-.7.6-.9.5-1.6 1.3-2.2 1.4-1.3 1-2.5 1.9-3.7 2.7 0-.1 1.3-.9 1.2-1-1.1.8-1.7 1.3-2.9 2.1-.3.2.1-.1.2-.2-1.1.8-2.3 1.4-3.3 2.1l.2-.2c-.2.1-.5.3-.4.3l.2-.1c.4-.1-.7.6-.8.7.3-.3-1.1.6-.6.1-.1.1-.3.2-.2.2-.2.1-.3.1-.1 0-.7.5-.4.4-1.1.8l.2-.2c-.3.3-.6.5-1.2.9l.1-.1c-1 .6-1.6 1.2-2.6 1.8.3-.3-.4.2-.5.2l-.5.4.3-.1c-.5.3-.9.7-1.3.9l.3-.3-.9.6.5-.3c-.5.4.1.1-.5.5.1-.1-.5.3-.8.5-.2.2-.5.4-.8.6-.1 0 0-.1-.1-.1-.2.2-1.1.8-1.4 1.1.1-.1.1-.1 0-.1l-.2.2c-.2.1-.3.2-.3.1-.7.5.3-.1-.6.5.1 0 0 0 .2-.1-.8.5-1.6 1.1-2.3 1.6-.3.1.6-.5.3-.4-1.1.7-2.2 1.6-3.3 2.3l.2-.1c-.1.2-.8.4-1.3.8.1-.1.1-.2.1-.1-.7.4-1.5.9-2.6 1.7l.1-.1c-.5.2-1.2.7-1.6 1-.1.1-.4.3-.2.2-1.5.8-2.6 2-3.8 2.9l.2-.2-.2.2-.3.3-.3.3-.1.1h.1l.2.1-.1-.1.1-.1s.1-.1.2-.1l-.1.1s-.1.1 0 .1h.1c.2 0 .3.1.5.1-.3-.1-.3-.1-.2 0 .1.1.4.1.5.2 0 0 .1 0 0 0 .7.2.1-.1 1 .1h-.1 1c.2.1-.4 0-.4.1.5 0 1-.1 1.5-.1-.2 0-.5 0-.8.1.5.1.6 0 1 0h.9-.2c.6-.2 1.3-.1 2.2-.1-.9.1-.1.1-.2.1.2 0 .5.1.5.1.4 0 .7.1 1.2.2 0 0 .4.1.3.1.5.1-.1-.1-.1-.1.8.1 1.9.6 3 .8 1 .2 1.2.2 2.1.5.3.1-.3 0-.3 0 .5.2.9.3 1.3.4-.1 0 0 0 .1.1.4.1.3 0 .8.2h-.4c.4.1.9.3 1.3.4.1.1-.3 0-.5-.1.5.2 1.3.5 1.5.5l-.3-.2c.2.1.1.1-.1 0-.4-.1-.6-.3-.6-.3l.3.1c-.3-.3-1.3-.5-1.9-.7h.3l-.7-.2c-.1-.1-.2-.2.1-.1-.5-.2-.4-.1-.8-.3l-.5-.1c.1 0-.1-.1.2 0-.8-.3-1.4-.3-1.6-.5h.1c-1.2-.3-.1 0-1-.1l-.5-.3h-.1c-.1 0-.4-.1-.3-.1-.5-.1.1.1-.2 0-.6-.2-1.6-.4-1.7-.5-.2 0 .5.2-.1.1-.2-.2-.7-.1-1.3-.2.2-.1.7 0 .1-.1-.3.1-1.1-.1-1.5 0 0 .1-1 .1-1.8.1 0 0-1.4 0-2.1-.1-.1.1-.9-.1-1.3-.2h.4c-.2 0-.2-.1-.3-.1h-.2s.1-.1.1-.2v.1c.1-.1.1-.2.2-.2.1-.1.2-.2.3-.4.2-.3.5-.5.9-.8 0-.1-.6.3 0-.3 0 0 .1 0-.1.2l.3-.3-.2.3c.3-.2.1-.2.4-.4l.2-.1c-.1.1-.2.2-.3.2.3-.2.6-.4.8-.5 0 0 0-.1.2-.2.5-.4.2-.1.6-.3.1-.1.5-.3.5-.4.2-.1.2-.1.3-.1.3-.2 1.4-.9 1-.7h-.1c.9-.7 2-1.2 3-1.8.6-.4 1.3-.8 1.7-1.1.2-.1.4-.2.4-.1.4-.3.5-.4 1.1-.7-.4.3.2-.1-.4.3.6-.4.7-.4 1.3-.9-.2.2.5-.2.7-.4l-.4.2c.3-.2.6-.4.8-.6l-.1.2c1.2-.7 2-1.5 2.9-2 .3-.3-.6.4-.4.2.5-.3 1.1-.6 1.3-.7.7-.5.6-.6 1.4-1-.1 0-.2 0 .3-.4.5-.3.7-.3.4-.1-.1.1-.2.1-.2.1-.2.1-.4.3-.2.2l.1-.1c.3-.2 1-.6.9-.5.4-.3.1-.2-.2 0 .7-.4 1-.7 1.8-1.2-.1.1-.2.1-.1 0 1-.7.4-.3 1.1-.8.4-.2-.1.2.6-.3.4-.3.1 0 0 .1.6-.5 1.2-.8 1.6-1l-.3.2c.2-.1.4-.2.5-.4l-.2.1.4-.2c.2-.2-.2 0 .2-.3.3-.1.8-.5.9-.5-.8.5.1 0-.6.5.1-.1.3-.2.5-.3l-.1.1c.8-.4.3-.3 1.1-.8-.1.1.2 0 .4-.1-.3.2-.2 0 .1-.2.6-.3.6-.4.9-.5l-.3.2c.1-.1.4-.3.7-.5 0 0-.3.2-.2.2.4-.3 1-.5 1.5-.9.3-.1.1.1.3-.1.6-.5.7-.4 1.4-.9-.2.1-.3.1.2-.2l-1.1.7.7-.5c-.3.2-.7.5-.9.6.3-.3.3-.2.1-.2.5-.2.9-.6 1.4-.9l.1.1c.8-.5 1.4-1 2.4-1.7l-.3.2c.1-.1.6-.4.9-.7 0 .1.2-.1.4-.1 0 0 .7-.5.8-.7l.5-.3c.8-.5.8-.8 1.6-1.3-.2.2.2 0-.3.4.3-.2.5-.3.5-.4.2-.1.7-.6.9-.7.1-.1.1-.2.4-.4 0 0 .4-.3.2-.2.9-.4 2.2-1.6 3-1.9.6-.4 1.3-.9 1.8-1.2l-.1.1c.8-.4.4-.4 1.2-.9.5-.2-.4.3-.1.2.2.1 1-.7 1.6-.9l-.1.1c.5-.2 1-.7 1.7-1.1.4-.4 1.3-.9 2-1.4-.2.2-.3.2-.1.2.3-.2-.1 0 .5-.4.2-.1.7-.3.8-.3l-.6.3c.3-.1.7-.4 1.1-.6v.1c.9-.5.8-.6 1.8-1.2h-.1c.5-.4.5-.2 1-.6h.2c.3-.2 1.2-.7 1.8-1.1-.3.2-1.1.6-1.5.9.3-.2 1.2-.6 1.4-.7-.1.1-.3.2-.5.2.4-.3 1-.6 1.7-1 0 .2 1.9-.9 2.4-1.1 1.2-.8 2.4-1.5 3.4-2.9-.5.4.3-.4.1-.4.2-.3.3-.5.3-.5l.6-1c.2-.2-.1.3-.1.3.4-.7.2-.3.5-.7-.1.1.1-.3.4-.5-.1.1-.3.2-.4.3.3-.4.5-.4.7-.4.2 0 .4.1.9.3-.1 0-.2-.1-.3-.1.5.1 1.9 1.1 2.4 1.3.1.1.2.2-.1 0 1.2.8 2.7 1.6 3.6 2.3h-.1c.2.1.4.2.7.4 0 0-.1 0 0 0 .1.1.6.4.9.6l-.3-.1c1.1.9 1.8 1.2 2.7 1.9-.1.1.8.8 1.2 1.1 1.3 1 2.3 1.5 3.6 2.4.7.6 2.6 1.9 3.8 2.8-.2-.1.1 0 .3.1.3.2.8.5.7.5l-.1-.1c.2.2.8.6 1.2.9l.1-.1c1.1 1 3.3 2.1 3.8 2.7.3.2.7.4 1 .6h-.1c.8.6 1.2.9 2.2 1.6l-.2-.1c.6.4.8.3 1.3.7l.1.2c1 .7 1.9 1.5 3 2.1 0 0-.1 0-.2-.1.5.3 1.8 1.3 1.7 1 0 .1 1.1.7 1.7.9h-.1c.5.2.5.2 1.2.5.2.1.1.1-.1 0 .5.3.4.2 1.1.5l-.3-.1c.5.3.5.3.8.4.4.2 1 .6 1.1.7.1 0 .4.1.7.3h-.2c.9.5 1.4.6 2.1 1 0 0 0 .1.1.1-.8-.3-1.4-.6-1.3-.6 0 .1.6.4.1.2.5.2 1.4.5 2 .8 0 0 .1 0 .1.1h-.1c.1.1.3.1.4.2.2.1.3.2.5.2.1.1.7.3 1 .5 0-.1.4.1 0-.1 0 0-.1 0-.3-.1h-.1c-.2-.1-.5-.2-.8-.3.3.1.5.2.8.3.2 0 .4.1.5.1.4.3 1.1.7 1.2.8.9.4 2.3.9 2.9 1 .3.1.3.1.4.2-.2 0-.4-.1-.5-.1.6.1 1.7.4 1.8.3.7.2-.4 0 .6.2h-.1c1.9.5 3.2.5 5.3 1.2-.1 0-.2-.1-.2-.1 2.4.7 5 1.2 7.4 1.9.7.2.8.1 1.2.2l.1.1.7.1c1 .2 1.7.6 3 .8l-.2-.1c.5.1 1.4.4 1.4.4s.2 0 .3.1l1.1.3c.8.3-.2.1 1 .5.5.1 1.3.4 1.2.3-.2-.1-.5-.2-.5-.2l.4.1c.1-.1.5-.1-.5-.5l-.7-.2-.2-.1.6.2c-.3-.2-.6-.2-.8-.3 0 0-.1-.1-.3-.2l-.7-.1c-.1-.1.3 0-.1-.2-.4-.1.3.2-.3.1-.3-.1-.2-.2-.6-.2h.2c-.4-.1-1-.2-1.2-.2-.4-.2-1.3-.3-1.2-.4-.1 0-.7-.1-1-.1.7 0-1.3-.3-1.1-.4-.5 0-1.7-.3-2.5-.5h.2c-.5-.1-.6-.2-.9-.3-.1.1-.8-.1-1.2-.1-.5-.2.4 0 .2-.2 0 .1-1-.2-.8-.1-.4-.2-.4-.1-.6-.3-.1.1-.4-.1-.8-.1-.6-.2-.1-.1-.8-.3-1.2.3-.6.4-.6.4zm-15.9-4.7c.1.1.2.1.3.1 0 0-.1 0-.3-.1zm-1.2-.6c.2.1.3.2.5.3h-.2c.1 0-.2-.2-.3-.3zm2.5 1.7c-.2-.1-.3-.1-.3-.1.1 0 .2 0 .3.1z"/>
      <path d="M604.2 152.3s0-.1 0 0h-.1c0-.1 0-.1.1 0zM498.7 164.9zM584.9 140.3l.1.1zM494.1 169.4s.1 0 0 0c.1 0 .1 0 0 0zM497.5 169.6h.5-.5zM500 169.6s.1 0 0 0zM521.2 149.7c.3-.2.2-.1 0 0zM511.2 156.5l.3-.2c-.2.1-.3.2-.3.2zM532.4 142.1h.1zM511.9 155.9c-.2.1-.3.2-.5.3.2 0 .4-.2.5-.3zM510.6 172.6l.1.1-.1-.1zM510.7 172.7h0zM511.1 172.8l-.3-.1c.1.1.3.1.3.1zM507.4 171.4c0 .1 0 .1 0 0zM506.5 171.1c.2.1.6.2.9.3-.2 0-.7-.2-.9-.3zM502.4 169.7l.8.2c-.1-.1-.3-.1.1-.1-1-.3.2.2-.9-.1zM499.7 169.2c.5 0 0 0 0 0-.2 0-.3 0 0 0zM503.9 161.7c.3-.1 0 .1 0 0zM506.8 159.4l-.3.2-.1.1zM508.9 158.6h-.2l.5-.3zM535.9 140.5h-.1c-.2.2-.2.3.1 0zM547.8 133.1c.2 0 .5-.2.7-.4-.3.2-.6.3-.7.4zM581.5 138.7l-.2-.1.4.3z"/>
    </g>
  </g>
</svg>
