<svg version="1.0" xmlns="http://www.w3.org/2000/svg" viewBox="0 0 1125 433">
  <g fill="#202020">
    <path d="M430.5 221.3c-.1 0-.1.1.3 0l.3-.1-.6.1zM433.1 221.3c.5-.1 1-.1.7-.2-.5.1-.6.1-1.1.2h-.6c-.1 0-.6 0-.8.1.5-.1 1.2-.1 1.8-.1.2 0 .1 0 0 0zM471.7 221.1h-.2.2zM495.6 221.6h-.3.3zM499.7 221.7h-.2.2zM471.7 221.1h0zM438.4 221h-.3.3zM461.1 221.2H460.8zM453.1 221.2c.2 0 .2-.1.3-.1-.1 0-.3 0-.3.1-.1 0-.1 0 0 0zM440.3 221.2h-.2.2zM466.9 221.2s.1 0 0 0c.1 0 .1 0 0 0zM692.8 229.1zM702 229.4l-.1.1.1-.1zM507.1 221.8c-.2 0-.1 0 0 0zM575.6 224.2c-.8-.1 1.3 0 .1-.1.1 0-1.1 0-.1.1zM438.6 221h.3-.3zM575.7 224.1h-.1.1zM524.3 222h-.2.2zM511.5 221.7h.3-.3zM531 222.1h.4-.4zM537.9 222.3H537.6h.3zM671.8 228.2c.2 0 .2 0 .3.1-.1-.1.9-.1-.3-.1zM438.4 221h0zM531.3 221.5h1.1c-.3.1-.7 0-1.1 0zM622.2 225.8h.3-.3zM535.6 221.7c.2 0 .4.1.6.1h.1l-.7-.1zM672.1 228.3z"/>
    <path d="M679.4 228.2c-1 0-.5.1-.7.1-1.3 0-.6-.1-1-.1-.8 0-1.4.1-2 .1 0 0-.2 0 0 0-.8.1-2.5 0-3.4 0h-.1c.2 0 .2.1.1.1h-1 .4-.5c-.4-.1.7 0 .7-.1-1 0-2.1.1-2.8 0-.2-.1 1.7 0 .7-.1l1.1.1c-.9-.1.7 0-.1-.1-1.5-.1-1.7 0-3.2-.1-.3 0 .1.1-.2.1-2.1 0-1.7-.3-3.2-.2-.4 0-.6.1-1.7 0l.4-.1c-1.4-.1-.8.1-2.3 0h.9c-1-.1-.7 0-1.5 0l-.2-.1c-1.5-.1-3.2-.1-5-.2.1 0 .4 0 0-.1-2.2-.1-4.6-.3-6.7-.6h-.8c-.2 0-.3-.1-.1-.1-.8-.1 0 0-.4 0-.5 0-.6-.1-.3-.1-1.4-.1-4.1-.2-5.6-.4h.3c-1.2-.1-1.3 0-2.4-.1h.2c-2.5-.1-5.4-.1-7.3-.2-.4.1-2.5-.1-2.7 0-1.5-.1-1-.1-3.1-.2-.5 0-.8.1-1.5.1v-.1l-.9.1-.5-.1h-.6c.2 0 .5.1.5.1-.5 0-1.1-.1-1.6-.1-.5-.1-.8-.1-.8-.2-.8-.1-1.6-.1-2.4-.1h.8c-1.3 0-.2-.1-1.4-.1.2 0-.1 0-.1.1-.6-.1-1.9-.1-2.8 0l.2-.1c-1.7 0-3.7.1-5.6.1.7 0 .5.1 0 .1l-.2-.1c-.4 0 .6 0-.2.1-.7 0-.5-.1-.1-.1h-.9c-.1 0 .2 0 .2-.1-.4 0-1.5-.1-2.1 0-1.9 0-2.8 0-4.4-.1 0 .1-.7 0-1.1.1-1.2-.1-2.5-.2-3.9-.3h-.7c-.1-.1-1.5-.2-.7-.2-1.7-.1-2.2-.1-4.3-.2.2 0 .5.1.4.1-.4 0-.9-.1-.8-.1h.1c-2.4-.1-5.5-.6-7.4-.6h.1l-2-.1c-.9-.1.5 0-.1-.1-2.1 0-3.4-.2-5.1-.3-1.3-.3-4.8-.3-6.7-.5h.1c-.5 0-.6-.1-.9-.1 0 0 .5.1.2.1-4-.2-8.3-.5-12.4-.8-1.5-.1-.9.2-2.8 0l.5-.1c-3 0-6.2-.3-9.2-.3h.5c-.6-.1-2.3-.1-2.3 0-.5 0-.1 0-.4-.1-.6-.1-1.6 0-1.9-.1h.3c-.4 0-1.9-.1-1.5 0-1.1-.1-2.1 0-3-.1-.6.1-1.9-.1-2.1 0 .1-.1-2-.2-2.7-.1.2 0-.6-.1-.3-.1H530c-1.5-.2-3 0-3.8-.2h-6.8c.1-.1 2.4 0 2.3-.1-2 0-3.2.1-5.3 0-.5 0 .3 0 .5-.1-2 0-4-.1-5.8 0h.4-.8.3c.6.1-1.4.1-1.5.2.6-.1-1.8-.1-.8-.2-.2 0-.5 0-.5.1-.4 0-.5 0-.1-.1-1.3 0-.8.1-2 .1 0 0 .2 0 .4-.1-.6 0-1.2.1-2.2.1h.2c-1.7 0-2.9.1-4.7.1.5-.1-.6 0-.7-.1h-1 .4c-.9 0-1.6.1-2.4 0h.6-1.6.9c-.9 0 .1.1-1.1.1.2 0-.9 0-1.3-.1h-1.5c-.2 0 .1-.1 0-.1-.4.1-2 0-2.6.1.2 0 .2-.1.1-.1l-.4.1c-.4 0-.5 0-.4-.1-1.2 0 .4.1-1.1 0h.3c-1.4-.1-2.8 0-4.1-.1-.4-.1 1.2 0 .7-.1h-5.8.3c-.3.1-1.4-.1-2.3 0 .2 0 .3-.1.2-.1h-4.5.2-2.8c-.2 0-.7 0-.4.1-2.5-.2-4.8.1-7-.1h.4-1.9c.1.1.2 0 .6.1-.2 0-.8.1-1.2.1.8 0 0-.1-.4-.1.1 0-.1 0 0 .1-1-.1-.2.1-1.5 0h.1c-.5 0-1 .1-1.5 0-.2-.1.5 0 .6-.1-.8 0-1.5.1-2.2.1h1.1c-.8-.1-.8-.1-1.4-.1h.1-1.3.3c-1 .2-1.9 0-3.2.2 1.3-.1.2-.1.3-.1-.3 0-.8 0-.7-.1-.6.1-1 0-1.9.1 0 0-.7 0-.5-.1-.8 0 .2 0 .1.1-1.2.1-2.9-.1-4.6.1-1.5.1-1.8.2-3.2.2-.5 0 .4-.1.4-.1h-2.1c.1 0 0 0-.2-.1-.6 0-.4.1-1.1.1.1 0 .3-.1.6-.1-.7 0-1.4.1-2.1.1-.2 0 .4-.1.7-.1-.8 0-2.1.1-2.3.2h.5c-.3 0-.2-.1.1-.1.7-.1 1 0 1 0h-.5c.5.1 2-.1 3-.1l-.4.1 1-.1c.2 0 .4.1-.1.1.7 0 .6-.1 1.3 0 .1 0 0 0 0 0h.7c-.1 0 .1.1-.3.1 1.3 0 2-.1 2.5 0h-.1c1.8-.1.2-.1 1.5-.2l.9.2.2-.1h.5c.7-.1-.1 0 .3-.1.9.1 2.4-.1 2.6.1.3-.1-.8 0 .1-.1.3.1 1.1 0 1.9 0-.2.1-1 0-.2.1.5-.1 1.6 0 2.2 0 0-.1 1.5 0 2.6-.1-.1 0 2.1 0 3.2.1.2-.1 1.3-.1 2.1-.1 0 .1-.2.1-.6.1h.7c.2 0 .4 0 .9-.1l-.2.1c1 0 2-.1 3.3 0 .1-.1-1-.2.3-.2 0 0 .1.1-.3.1h.6l-.5.1h.8s.3 0 .3.1h-.6c.5 0 1.2 0 1.4.1 0 0 0-.1.4-.1 1 0 .3.1.9.1.2 0 .9 0 .9-.1.3 0 .3 0 .5.1.5 0 2.4 0 1.8-.1h-.1.1c1.7-.1 3.5.1 5.2.1h2.9c.3 0 .7.1.6.1h1.9-.8c1 0 1.2.1 2.3 0-.4.1.7.1 1.2.1l-.7-.1h1.5l-.3.1c2 .1 3.6-.1 5.2.1.5 0-1.1-.1-.6-.1.9 0 1.9.2 2.2.2 1.3.1 1.2-.1 2.5-.1-.2 0-.3-.1.7-.1.9 0 1.1.1.6.2h-.3c-.3 0-.7 0-.3.1h.1c.5 0 1.7 0 1.4.1.7 0 .3 0-.2-.1 1.2.1 1.9 0 3.1 0-.2 0-.4-.1-.2 0 1.8 0 .8-.1 2-.1.7 0-.2.1 1 .1.7 0 .2.1-.1.1 1.1-.1 2.1 0 2.7.1h-.6.9l-.3-.1h.6c.4 0-.3-.1.4-.1.5 0 1.4 0 1.6.1-1.5 0 .2.1-1.1.1h.8c1.4.1.6-.1 2.1-.1-.2 0 .3.1.6.1-.6 0-.3-.1.3-.1h1.5-.6.9c.7-.1 1.6.1 2.6.1.5 0 0 .1.4.1 1.1 0 1.2.1 2.4 0-.3-.1-.4-.1.4-.1h-1.9l1.2-.1h-1.6c.6 0 .5 0 .3-.1.8.1 1.6 0 2.5 0v.1c1.4.1 2.5 0 4.3 0h-.6c.2-.1 1.1 0 1.7 0-.1 0 .3.1.6.1 0 0 1.3 0 1.5-.1l.8.1c1.5.1 1.7-.1 3.1 0-.4 0 .2.1-.7.1h2.6c.2 0 .3-.1.8 0 .1 0 0 0 0 0s.8 0 .4-.1c1.4.2 4 .1 5.3.3 1 0 2.2.1 3.2.1h-.2c1.3.1.8-.1 2.2 0 .7.1-.8 0-.3.1.2.2 1.7 0 2.7.2h-.2c.7.1 1.8 0 3 .1 0 0-.1 0 0 0h3.6c-.4 0-.5 0-.3.1.5 0-.1-.1.9-.1.3 0 1.1.1 1.2.2h-1c.5.1 1.3.1 1.8.1h-.1c1.5.1 1.5 0 3.2.1h-.2c.9-.1.7.1 1.6.1l.3.1h3.1-2.6c.6 0 2 .1 2.3.1h-.8 2.8c-.2.2 3 .2 3.8.4 2.1 0 4.1.3 6.4.4-.8-.2.7 0 .6-.1.6 0 .8 0 .8.1l1.7.2c.4.1-.5 0-.5 0 1.2.1.5.1 1.3.2-.2-.1.4 0 1.1 0l-1-.1c1.7 0 1.5.2 3.2.3h-.5c.9 0 3.2.2 4.1.2.2 0 .4.1 0 .1 2.1.2 4.7.2 6.3.4h-.2 1.2s-.2 0 0 0 1 0 1.6.1h-.4c2 .2 3.2.2 4.9.2 0 .1 1.6.2 2.4.3 2.4.1 4.1 0 6.3 0 1.4.1 4.7.1 6.9.1-.3 0 .1-.1.4-.1.5 0 1.4-.1 1.3 0h-.2c.4.1 1.5.1 2.3.1l.1-.1c1.1.1 2.5.3 3.8.4 1.3.1 2.5.1 3.1.2h1.7v.1c1.5.1 2.2.1 4 .1h-.4c1 0 1.3-.2 2.2-.2l.3.1c1.8 0 3.6.2 5.3.1h-.4c.4 0 1.2 0 1.9.1.7 0 1.2.1 1 0 0 .1 1.8.2 2.8.2l-.2.1h2c.3 0 .2.1-.1 0 .9.1.7 0 1.8.1h-.4c.9.1.8.1 1.3 0 .6 0 1.7.2 1.9.2h1c1.5.2 2.3.1 3.3.2 0 0 .1 0 .2.1-1.2-.1-2-.2-2.1-.2 0 .1 1 .1.2.2.8 0 2.1 0 3.1.1h.1-.1.6c.3 0 .5 0 .8.1.1.1 1.1.1 1.6.1 0-.1.6 0 0-.1H658.3c-.3 0-.7 0-1.2-.1.4 0 .8 0 1.3.1.3 0 .5-.1.7-.1.7.1 2 .2 2.1.3 1.5 0 3.5.1 4.5 0 .4 0 .5.1.6.1h-.7c.9 0 2.5.1 2.7 0 1.1.1-.6.1.9.1h-.2c2.9.2 4.7-.1 7.9.1h-.4c3.7.2 7.6-.2 11.1.4 1 .1 1.1.1 1.8.2l.2.1 1.1.1c1.5.2 2.7.3 4.6.2h-.2c.7 0 2.2-.1 2.1 0 .1 0 .2-.1.5 0h1.7c1.3.3-.3.1 1.6.5.4.1.9.1 1.3-.2.4-.2.5-.5.4-.4-.2.3-.7.4-.7.4.2-.1.4-.2.6-.4v-.2c-.1 0-.2.3-.9.3-.3 0-.7 0-1-.1l-.3-.1c.3.1.6.2.9.2-.5-.1-.8-.2-1.2-.3-.1-.1-.2-.1-.5-.2h-1.1c-.1 0 .5-.1-.2-.1-.5 0 .5.1-.4.1-.5 0-.4-.1-1 0-.1 0 0 0 .3-.1-.6.1-1.5 0-1.8.1-.6 0-1.9.1-1.8 0-.2 0-1 .1-1.5.1.5 0 0-.1-.6-.1-.5-.1-1.2-.2-1.1-.2-.7 0-2.5-.3-3.7-.4h.3c-.7-.1-.9-.1-1.3-.2-.1.1-1.2 0-1.8.1-.8-.1.5-.1.3-.2 0 .1-1.5 0-1.2.1-.7-.1-.6 0-.9-.1-.1.1-.6 0-1.1.1-.9-.1-.2-.1-1.3-.1-1.3-.1-.3-.1-.3-.1zm-24.5-.6h.5-.5zm-2.1-.1c.3 0 .6 0 .9.1h-.2c.1-.1-.3-.1-.7-.1zm4.4.7h-.5.5z"/>
    <path d="M657.8 228.2h.1c-.1-.1-.1-.1-.1 0h-.2.2zM471.4 221.1zM624.5 225.9h.1zM460.1 220.9h0zM455.2 220.8h-.7.7zM451.4 220.8c-.1 0-.1 0 0 0zM511.3 221.2h0zM493.4 221.3h.6c-.3 0-.6-.1-.6 0zM531.1 221.5h.1-.1zM494.8 221.3h-.8.8zM435.1 221h-.2.2zM434.9 221.1h-.2.2zM434.2 221.1h.4-.4zM440.1 220.9zM441.6 220.9h-1.4c.2 0 1 .1 1.4 0zM447.9 221.1h-1.3c.2 0 .5.1-.1.1 1.7.1-.3-.1 1.4-.1zM451.8 221.2c-.6 0 0 0 0 0 .4 0 .5 0 0 0zM480.3 221.3c.4.1-.1 0 0 0zM485.7 221.1l-.5-.1-.2.1zM488.9 221.6h-.2.9zM536.7 222.3l-.2-.1c-.4 0-.4.1.2.1zM557.3 223.1c.2 0 .8.1 1.2.1-.5-.1-1-.1-1.2-.1zM619 226.1h-.4l.8.1z"/>
    <g>
      <path d="M781.3 230.7c.1 0 0-.1 0 0zM780.9 230.6c-.1 0-.2.1-.1.2.1-.1.1-.1.1-.2.1 0 .2.1.2.1h.1c-.1-.1-.2-.1-.3-.1zM775.9 227.8c.1 0 0 0 0 0zM776.5 229.5zM777 230c0-.1 0-.1 0 0 0-.1 0 0 0 0zM775.9 227.8l-.1-.1.1.1zM780.1 230.6c0 .1 0 0 0 0zM777.4 228.7s.1 0 0 0zM778.4 229.3s-.1 0 0 0c-.1 0 0 0 0 0zM780 230.3zM776.7 228.2zM802.8 224.8zM803.6 223.8zM777.9 230.6zM787.6 231.4c-.1 0 .1-.2-.1-.1.1-.1 0 .1.1.1zM780.1 230.6zM787.6 231.2zM780.2 231.5zM778.5 230.7c.1 0 .1 0 0 0zM781.2 231.8zM782.1 232.1zM800.5 226.7s.1 0 0 0c0 0 .1-.1 0 0zM780.1 230.6zM781.4 231.3l.1.1c0-.1 0-.1-.1-.1zM794 229.2c0-.1 0 0 0 0zM782 231.5c.1.1.1.1 0 0zM800.6 226.7z"/>
      <path d="M801.3 225.9c-.1.1 0 .1 0 .2-.1.1-.1 0-.2 0-.1.1-.1.2-.2.3 0 .1-.3.2-.3.4l.1.1c-.1 0-.1.1-.1.1v-.1.1c-.1 0 .1-.1 0-.1-.1.1-.2.3-.3.3-.1-.1.2-.2 0-.1l.1-.1c-.2 0 .1-.1-.1-.1-.2.1-.2.2-.3.3 0 .1.1 0 0 .1-.2.2-.3 0-.4.2 0 .1 0 .2-.1.2v-.1c-.2.1 0 .2-.3.2l.1-.1c-.2 0-.1.1-.2.1v-.1l-.6.3v-.1c-.3.1-.6.2-1 .2l-.1.1s-.1 0 0 0c-.1 0 0 0 0 .1h-.1c-.2.1-.5.4-.7.4-.2.1-.1.2-.3.2-.3.1-.7.3-1 .3 0 .1-.3 0-.4.2-.2 0-.1-.1-.5-.1-.1 0-.1.1-.2.1v-.1l-.1.1-.1-.1h-.1.1c-.1.1-.4 0-.4 0l-.3.1.1-.1c-.2.1-.1-.1-.2 0v.1c-.1 0-.3 0-.4.1v-.1c-.2.1-.5.2-.8.2.1 0 .1.1 0 .1l-.1-.1c0 .1.1 0 0 .1-.1 0-.1-.1 0-.1l-.1.1v-.1c0 .1-.2 0-.3.1-.3.1-.4.1-.6.2 0 .1-.1.1-.1.1h-.6c-.1.1 0 .1-.1.1 0-.1-.2 0-.1-.1-.2.1-.3.1-.6.2h.1-.1c-.3.2-.8-.1-1.1.2-.1.1-.2.1-.3.2-.1 0 .1-.1-.1-.1-.3.2-.5.2-.7.4-.2-.1-.6.3-.9.2-.1.1-.1 0-.1 0s.1 0 0 .1c-.5.2-1.2.2-1.8.3-.2 0-.1.3-.4.2l.1-.1c-.4.2-.8.1-1.2.2h.1c-.1-.1-.3 0-.3 0-.1 0 0 0 0-.1h-.3c-.1 0-.3-.1-.2 0-.1-.1-.3 0-.4-.1-.1.1-.2-.1-.3 0 0-.1-.2-.2-.3-.2 0 0-.1-.1 0-.1-.1 0-.2-.1-.2 0-.2-.2-.4-.1-.5-.3-.3-.1-.7-.1-1-.2.1-.1.3.1.4 0-.3-.1-.5 0-.7-.2h.1c-.3-.1-.5-.2-.8-.3h.1s-.1-.1-.1 0h.1c0 .1-.2.1-.3.1.1-.1-.2-.1 0-.2h-.1v-.1c-.2-.1-.1 0-.3-.1h.1c-.1 0-.2 0-.3-.1-.2-.1-.4-.1-.6-.3.1 0-.1-.1 0-.2l-.1-.1v.1c-.1-.1-.2-.1-.3-.2h.1l-.2-.1.1.1c-.1 0-.1.1-.2 0 0 0-.1-.1-.1-.2-.1 0-.1 0-.2-.1l.1-.1c-.1 0-.1-.1-.3-.1h.1c-.1-.1-.1 0-.2-.1h.1c0-.1-.3-.3-.3-.3.2.1.1.1.3.2-.1-.1-.4-.5-.4-.6-.4-.4.2.1.2.1s0 .1.1.1l.1.1c.1.1.1 0 .2 0v.1c.1.1.2.1.2.2v-.1c.1.2.2.2.3.3.2.1.3.1.4.3h-.1l.2.1v-.1h.2c-.1 0 0 .1 0 .1.1.2.1-.1.2.1.1 0 .1 0 .2.1 0 .1-.1 0-.1 0 .1.1.3 0 .3.1 0 0-.1 0-.2-.1.1.1.1.1.1.2l.1.1c.2-.1.3.1.5.1-.2 0-.1 0-.1.1l.1.1c.1 0 .1.1.3.1 0 0 .1.1 0 .1.1 0 0 0 0-.1.2 0 .3.3.6.3.2.1.3 0 .5 0 0 .1-.1.1-.1.1.1.1.2.1.3.1v.1c.1 0 .1-.1.2 0l-.1.1h.3s-.1 0-.1.1H780.7v.1c-.1 0-.1 0-.1-.1h.1c0-.1-.3 0-.4-.1l.1-.1h-.2s0-.1.1-.1c-.1-.1-.1 0-.2-.1h-.1s0-.1.1 0c-.1-.1-.3-.1-.3-.2-.2-.1-.1.1-.3 0v-.2l-.1.1s-.1 0 0-.1c-.1 0 0 0-.1.1-.1-.1-.3-.1-.3-.3-.1 0 .1.1-.1.1 0-.1-.1-.1-.2-.2.1 0 .1 0 .1-.1-.1.1-.2-.1-.3-.2-.1.1-.2-.1-.4-.1l-.3-.3c-.1.1-.2 0-.3-.1h.1l-.1-.1h-.1.1c-.1-.1-.3-.1-.4-.2 0 0 0 .2-.2.2 0 0 0-.1.1-.1h-.1.1c-.1-.1-.1 0-.1 0v-.1h.1c-.1 0-.1-.1-.1-.2 0 0 0 .1-.1 0-.2-.1 0-.1-.1-.2 0 0-.2-.1-.1 0l-.1-.1c-.1 0-.4-.2-.2-.1-.2 0-.6-.4-.8-.5l-.1-.1h-.1-.1v.1s0 .1.1.1h-.1c.1.1.1.2.1.3-.1-.2 0 0-.1-.1 0 .1 0 .1.1.3-.1-.1-.1 0 0 .1v-.1c.1.1.1.1.1.2l-.1-.1c0 .1.2.3.3.5.1.1.3.2.3.4.1.1-.1-.2 0-.1s.2.4.2.4c.1.2.2 0 .3.2 0 0 0-.1.2 0 .1.1.1.2 0 .2h-.1c0 .1.2.2.1.2.1 0 .1 0 0-.1.1.1.2.2.4.3v-.1c.2.2.1 0 .3.1.1.1-.1.1.1.1.1.1 0 .1-.1.1.2 0 .3.2.3.2h-.1c.1 0 .1 0 .1.1v-.1l.1.1c.1 0 0-.1.1-.1 0 .1.2.1.2.1-.2-.1 0 .1-.2 0 0 0 .1 0 .1.1.2.2.1 0 .3.1v.1c-.1 0 0-.1.1-.1.1.1.1 0 .2.1h-.1.1c.1 0 .2.2.3.2.1.1 0 .1 0 .1.2 0 .1.1.3.1 0-.1 0-.1.1-.1l-.3-.1h.2c-.1 0-.2 0-.2-.1.1 0 .1 0 .1-.1.1.1.2 0 .3.1l-.1.1c.2.1.4.1.6.2l-.1-.1c.1 0 .2 0 .2.1v.1s.2.1.2 0l.1.1c.2.1.3 0 .5 0-.1 0 0 .1-.1.1.1 0 .1.1.1 0 0 0 .2 0 .2.1 0 0 .1-.1.1 0 0 0 .1 0 .1-.1.1.2.6.2.7.3.2 0 .3.1.5.1.2.1.1-.1.3 0 .1.1-.1 0-.1.1 0 .2.3 0 .4.1.1.1.3 0 .5 0 .1-.1.4-.1.5-.2 0 .1-.1 0 0 .1.1 0 0-.1.1-.1s.2 0 .2.1h-.1c.1.1.2 0 .3 0 .2-.1.2-.2.4-.2.1-.1.1 0 .2-.1l.1.1c.1 0 .3-.2.4-.2-.1.1-.2.2-.3.2.1 0 .3-.1.3-.1s-.1.1-.1 0c.1-.1.2-.2.4-.2 0 .2.4-.1.6 0 .3-.2.6-.2.9-.3-.2-.1.1 0 0-.2.1 0 .1-.1.1-.1h.3c.1 0-.1.1 0 .1.2-.1.1 0 .2 0 0 0 0-.1.1-.1h-.2c.2-.2.2 0 .4-.1v.1c.1-.1.4-.1.5-.3 0 0 .1 0 0 .1.3 0 .6-.2.9-.2.1 0 .1-.1.2-.1 0 0 .1-.1.2-.1l-.1.1c.3 0 .4-.2.7-.2 0 .1.3.1.4.1l.9-.3c.2.1.7-.1 1-.1-.1 0 0-.1 0-.1.1 0 .2-.1.2 0 .1.1.2 0 .3 0v-.1c.3.1.8-.2 1-.1.1 0 .2 0 .2-.1v.1c.2 0 .3 0 .6-.1v.1c.2 0 .2-.2.3-.3l.1.1c.3-.1.6-.1.8-.3v.1c.1 0 .5-.2.4-.3 0 .1.2-.1.3-.2v.1c.1-.1 0-.2.2-.2 0 0 .1 0 0 0 .1 0 .1-.1.2-.1v.1c.1 0 .1-.1.2-.1.1-.1.2-.1.3 0l.1-.1v.1c.2 0 .3-.2.5-.1-.2 0-.3.1-.3.1 0 .1.2 0 .1.1.1-.1.3-.2.4-.2h.4c0-.1.1-.1 0-.1h-.1s-.1 0-.2.1c0 0 .1-.1.2-.1 0-.1 0-.1.1-.1.1.1.3 0 .4.1.2-.1.5-.3.5-.4h.1l-.1.1c.1-.1.3-.2.3-.3.1-.1 0 .1.1 0 .4-.2.4-.6.9-.8h-.1c.5-.3.8-.7 1.3-.9l.2-.2h.1l.1-.2c.1-.2.4-.1.5-.4h-.1c.1-.1.2-.3.2-.2v-.1c0-.1 0-.2.1-.3.1-.2.2.1.2-.3 0-.1-.2-.4-.2-.3v.1-.1c-.1 0-.2 0-.3.2 0 0 0 .1.1.1h-.1v-.1.1h-.1s0 .1.1.2c0 0-.1-.1-.1 0s.1 0 .1.1c-.1 0-.1 0-.1.1v-.1c0 .1-.1.2-.1.2-.1 0-.2.2-.2.1 0 0 0 .2-.1.2 0-.2-.2.2-.3 0 0 .2-.2.3-.3.4-.1.1-.1 0-.2.1 0 .1-.1.2-.1.3-.2 0 0-.1-.1-.2 0 .1-.1.2-.1.2h-.2c.1.1-.1.1-.1.2-.1 0-.1-.1-.2.1-.1-.4 0-.5 0-.5zm-2.8 2s.1 0 0 0c.1 0 0 0 0 0zm-.3.1h.1v.1c0-.1 0-.1-.1-.1zm.8.3c-.1 0-.1 0 0 0-.1 0-.1-.1 0 0 0-.1 0-.1 0 0zM799 228.1zM776 227.8s0 .1 0 0zM794.3 229.1h.1zM777.4 229s0 .1 0 0c0 .1 0 .1 0 0zM778 229.4c0 .1 0 0 0 0zM778.4 229.7zM778.7 230.3c.1 0 0 0 0 0z"/>
      <path d="M776.4 229.1c.1 0 .1.1 0 0 .1 0 .1 0 0 0zM781.4 231.3zM776.6 229.2zM780.6 230.8zM780.6 230.8c.1 0 .1 0 0 0zM780.7 230.8zM779.9 230.5c0 .1 0 0 0 0zM779.7 230.5s.1.1.2.1c-.1 0-.2-.2-.2-.1zM779 229.8l.1.1v-.1c-.1-.2.1.1-.1 0zM778.5 229.4c.1.1.1 0 0 0zM775 227.5s0-.1 0 0zM776 228.5zM775.6 228.8s0 .1.1.1c-.1 0-.1-.1-.1-.1zM782 232.1c-.1-.1-.1 0 0 0zM785 232.1h.2c-.1-.1-.2-.1-.2 0zM793.7 229.8l-.1.1.1-.1z"/>
    </g>
    <g>
      <path d="M760.1 271.8c.6-.1.3-.2-1.5 0l-1.2.4 2.7-.4zM580.3 283.4l1.1.1c-.3 0-.7-.1-1.1-.1zM477.4 270.3c.7.3 1 .5 1.1.5-.7-.4-1.3-.6-1.1-.5zM461.3 262.3c.3.2.6.3.9.5-.3-.2-.6-.4-.9-.5zM580.3 283.4l-2.8-.2c-.2 0 1.4.1 2.8.2zM725.5 276.3c.6-.1 1.1-.2 1.5-.2-.4 0-.9.1-1.5.2.1-.1.1 0 0 0zM626.3 281.8l.8-.1c.2 0 .5-.1.7-.2l-1.5.3zM661.5 278.1c-.8 0-1.1.2-1.4.3.4-.1 1-.2 1.7-.2.1 0 0 0-.3-.1zM717.6 276.3l1-.1c-.3 0-.7.1-1 .1zM601 283.1c-.1 0-.2-.1-.3-.1 0 .1.1.1.3.1zM787.6 248.5c0-.1-.1-.1 0 0-.2.1-.3.1 0 0zM799.9 231.3l.2.3-.1.2v.2l.1-.3v-.1l-.2-.3zM430.5 251.1h.1c.9.2.4.1-.1 0zM363.1 197c-1.6-.6-.3-.2.9 0 1.2.3 2.1.5-.4-.4.5.3-4.5-1-.5.4zM724.6 276.4c-.5.1-1 .1-1.4.2.6-.2 1.1-.2 1.4-.2z"/>
      <path d="M363.7 196.7l-.5-.2c.2.1.3.1.5.2zM356.2 261.4c.2 0 .4-.1.7-.2.1 0-.1.1-.7.2zM411.2 249.8c-.5 0-.9 0-1.4.1.5 0 1-.1 1.4-.1zM329.6 273.4c-.7.3-.9.4-1.8.9.1 0 .2-.1.3-.1.3-.2.7-.5 1.5-.8zM304.5 285c0 .2.1.4.1.5.1.2.1.4.2.5-.1-.1-.1-.3-.1-.4l-.2-.6zM775.3 195.9c.6.3.9.5 1.2.7-.4-.4 3.7 1.2-1.2-.7zM725.5 276.2c-.2.1-.4.1-.9.2.3 0 .7-.1 1-.1.1-.1.1-.1-.1-.1zM329.3 275.4c-1.4.7-2.9 1.4-4.3 2.2 1.2-.6 2.7-1.4 4.3-2.2zM562.7 166.9l1.1-.2c-.4.1-.8.1-1.1.2zM312.8 285c-.8.4-1.6.8-2.6 1.2-.2.1-.4.2-.5.3 1.2-.4 2.2-1 3.1-1.5zM776.5 196.6z"/>
      <path d="M805 210.9c-3.9-2.4-2-.9-2.9-1.3-4.8-2.7-2.1-1.5-3.6-2.5-3-1.7-5.5-2.7-7.7-3.9-.1-.1-.6-.4 0-.2-3.3-1.5-9.6-4.9-13.7-6.2-.3-.1-.4-.2-.5-.3.6.4.6.5.5.6-1.9-.7-3.6-1.3-4.2-1.8 1.1.5 1.3.5 1.8.7l-2-.8c-1.7-1 2.7 1.1 2.8.9-3.9-1.5-8.4-3.6-11.3-4.8-.3-.2 1.5.4 2.8 1 1.3.6 2.2 1 .3 0l4.5 2.2c-3.3-2 2.7 1.3-.3-.6-3-1.4-4.7-2.2-6.4-2.9-.9-.3-1.7-.7-2.8-1.1-.3-.1-.4-.2-.7-.3-.3-.1-.5-.3-.8-.4-.6-.3-1.2-.6-1.9-1-1.4-.6.3.4-1-.1-4.1-2.1-5.6-3.2-6.9-4-.6-.4-1.2-.8-2-1.3-.4-.2-.9-.5-1.4-.7-.3-.1-.6-.3-.9-.4-.2-.1-.3-.1-.5-.2-.1 0-.2-.1-.3-.1-.1 0-.2-.1-.4-.1-1.8-.4-2.5-.3-7.1-1.9l1.7.2c-6.1-1.8-3.6-.7-10-2.5 1.2.1 4.9 1.1 4 .9-4.1-1.3-3-.6-6.2-1.4l-.6-.4c-6.6-1.5-14-2.6-21.4-3.7.4 0 1.7.1 0-.2-4.7-.7-9.7-1.4-14.7-2.1-5-.5-9.8-1.3-14.3-2.1l-3.5-.4c-.1 0-.3-.1-.4 0h-.3c-.2 0-.3 0-.4-.1-.2 0-.1-.1.3-.1-3.4-.3-.2.1-1.8.1-2-.2-2.6-.4-1.4-.3-.8-.1-1.7-.1-2.6-.2h-1.4c-.5-.1-1-.1-1.5-.2-2.1-.3-4.3-.5-6.5-.8-4.5-.6-9-1.3-12.2-1.8l1.3.1c-5.1-.8-5.8-.3-10.5-1.1l.9.1c-5.5-.7-11.4-1.2-17-1.4-5.6-.2-10.8-.2-15.1-.2-.4.1-1.3.2-2.4.3-1.1.1-2.5.2-3.8.3-2.6.3-5.2.6-5.5.8-6.4.6-4.6.2-13.5 1.2-2.4.3-3.5.7-6.4 1.2l-.1-.2-4 .8h-2.2l-2.7.5c1.1-.1 2.3-.2 2.2-.2-2.1.4-4.8.7-6.9 1-2.1.3-3.7.4-3.8.4-3.4.6-6.7 1.2-10.1 1.8.2-.1 1.9-.4 3.2-.7-5.4 1.1-1-.1-5.9 1 .7-.1-.3.2-.4.3-2.5.3-8.1 1.3-12.3 2.1l.8-.3c-7.5 1.3-15.8 3.1-24.2 4.9 3-.6 2.4-.1-.1.4h-1c-1.6.5 2.6-.5-.6.4-3.1.7-2.2.2-.4-.3l-3.8.9c-.2 0 .6-.3.9-.4-1.3.4-5.2 1-7.8 1.7-.1 0-.2.1-.3.1-.1 0-.2.1-.3.1-.2.1-.3.1-.5.2h-.2c-8 2.8-11.7 4.1-18.3 6.1-.1.2-2.7 1-4.6 1.7-4.9 1.4-10.4 2.8-16.4 4.3-4.2 1.2-1.2.5-3 1.1-.4-.1-6.3 1.4-3.3.5-7.2 1.8-9.2 2.3-18.2 4.5 1-.1 2.1-.4 1.6-.2-1.6.4-3.8.8-3.6.6l.4-.1c-5.1 1.3-11 2.6-16.7 2.9-5.7.4-11.2.1-15.3-.3h.5l-2.1-.3-2.1-.4c-1.4-.2-2.9-.5-4.3-.7-3.9-.7 2.4.3-.5-.4-9.3-1.2-14.6-2.2-22-4.1-1.4-.6-3.3-1.2-5.5-2.1-.1 0-.5-.2-.6-.2l-.4-.1c-.3-.1-.6-.1-.9-.2-.6-.1-1.3-.2-1.9-.3-1.3-.2-2.6-.5-4-.7-5.4-1-11.1-2.4-14.9-3.6l.4.3c-2-.4-2.4-.8-3.8-1.2.2.2 2.1.7.9.5-2.1-.6-4.2-1.2-6.3-2-1.1-.3-2.1-.7-3.2-1.1-1.1-.4-2.1-.8-3.2-1.1-4.4-1.3-9-2.2-13.8-2l-1.2.1-.5.5-.3.3-1.3 1.4-.3.3v.4l-.1.6c0 .3 0 .6-.1.9v1.8c0 2.4.2 4.7.4 7l.3 3.4.2 1.7v.4c0 .3.1.4.1.5l.2.9c.4 2.3 1.1 4.5 1.9 6.7 1.1 3.2 1.7 3.9 2.3 5 .6 1 1.2 2.2 2.7 6.1l-1.1-2.1c.7 1.5 1.4 3 2 4.6.6 1.5 1.1 3 1.4 4.7.6 3.2.4 6.5-.2 9.8-.3 1.6-.7 3.3-1.1 4.9-.4 1.6-1 3.2-1.5 4.8-1 3.2-1.9 6.4-2.7 9.6.1-.8.1-.8.4-2-.5 1.3-1.1 3.8-1.6 5.9-.3 1.1-.5 2.1-.6 2.8-.1.7-.2 1.2-.2 1.2-.5 2-.2.4-.6 1.6-.7 2.7-1.3 6.8-1.8 8.3-.1.2.1-.8.2-1.3-.1.9-.6 3-.9 4.6v.2c0 .1-.1.2-.1.3-.1.2-.1.4-.1.6-.1.4-.1.7-.1.9 0 .4 0 .5.1.1-.2 1.3-.2 2.6 0 3.8l.3 1.8c.1.3.1.6.2.9.1.4.2.7.3 1.1l.2.7c0 .2.2.1.3.1h1.6c.6 0 1.2-.1 1.7-.2 1.1-.2 2.1-.6 3.1-1 2.4-1.3 7.3-4.5 7.8-5.1 0 .1.4-.1 1.1-.5.7-.4 1.8-.9 2.9-1.6 2.2-1.2 4.9-2.7 6.2-3.4-.9.6 2.4-1.1 1.4-.4 3.2-1.6 6.1-2.9 5.4-2.9 6.1-2.3 11.8-5.5 15.4-6.5 2.4-1 4.8-2.1 7.1-3.1 1.2-.5 2.3-1 3.4-1.5s2.3-.9 3.5-1.2c2.3-.8 4.7-1.4 7-2.1 2.3-.8 4.6-1.3 6.9-1.9-.1.2-2.7.8-5.1 1.4-2.4.8-4.7 1.4-4.5 1.5 1.1-.3 2.1-.6 3.1-1 1-.3 1.9-.6 2.8-.9 1.8-.5 3.5-1 5.2-1.4 3.4-.9 6.8-1.6 11.2-2.3 2.3-.3-1.3.4-2 .6 4.4-.9 8.6-1.5 12.8-2 2.1-.2 4.1-.5 6.2-.6 2-.2 4-.4 6-.4 0 0-.9.1-1.7.1 1.5-.1 3.6.1 3.4-.1h-1.5c-1.2-.1.3-.3 2.2-.3 1.9 0 4.2.1 4.3 0-1.3.1.6.3 2.4.5 1.8.2 3.3.5 1.2.5 1 .1 2.3.3 2.1.1 1.5.3 2 .4.4.3 1.4.2 2.3.4 2.9.5.7.1 1.1.2 1.5.2.8.1 1.6.3 4 .9 0 .1-1-.2-1.6-.2 1.3.2 2.5.5 4 .9s3.1.9 5.1 1.6c-.3 0 .2.2-1-.2 3.5 1.2 6.5 2.2 9.5 3.3 3 1.1 6.1 2.5 9.7 4.2-2.3-.7 2.5 1.3 2.7 1.7l4 1.8-1.5-.9c3.4 1.7 6.6 2.9 9.5 4.4l-2.6-1.1 6.5 3-3.6-1.8c3.6 1.5-.2-.5 4.3 1.8-1-.4 3.5 1.5 5.4 2.3 1.8.5 3.7 1 6.5 1.7.7.3-.6.2-.2.3.9.1 3.1.6 5.4 1 2.3.4 4.6.8 5.8.9-.8-.1-.9.1-.6.1l1.6.1c1.7.4 2 .4 1.7.5 5.2.9-1.6-.6 4.6.6-.5-.1-.3 0-1.3-.1.8.1 1.6.3 2.3.4l1.1.2c.1 0 .2.1.4 0h4.8l.6.1c3 .4 5.9.7 8.8 1 1.7.4-5.1-.4-3.2 0 4.2.4 8.6.5 12.9.5 4.3.1 8.6-.1 12.7.3l-1.5-.1c1.1-.3 6 .6 10.2.6-1 0-1.3.1-1.1.1 5.6.4 11.4.6 19.8 1h-1c1.6.1 3.8.3 6 .4 2.2 0 4.4 0 6.2.1 1.1-.1 3.1-.1 1.9-.2 11 .5 20.9-.7 30.6-.9-1.2.1-2.8.3-1.8.2 2.8-.2 5.5-.4 8.2-.7-.7-.1-1.1 0-2.8 0 1-.2 3.4-.4 5.4-.6-3.7.4.1.3 1.7.2-.3 0 .3-.1.1-.2 4.3 0 .7-.3 6.6-.7l-.3.1c2.2-.3 4.2-.7 6.6-1 1 .1-2.3.4-2.4.6 3.3-.5 6.5-1.3 9.5-1.5-1.4.2-3.4.6-4.8.8 3.3-.2 3.7-.3 6.1-.6h-.2c1.9-.2 3.7-.5 5.6-.5h-1.4c4.1-.8 8.5-.5 14.1-.9-5.5.4-.9.2-1.3.4 1.4 0 3.6.1 3 .2 2.7-.2 4.4.1 8.2-.2.2.1 2.8 0 2.2.2 3.5-.1-.8-.1-.5-.2 5.3-.3 12.6.2 20.2-.5 3.3-.2 5.3-.5 7.2-.7 1.9-.3 3.7-.6 6.8-1 2.1-.1-1.7.5-1.7.5 3.3-.3 5.8-.6 9-1-.6.1 0 .1 1 .1 2.5-.3 1.7-.5 5-.7-.6.1-1.3.4-2.5.6 3-.4 5.9-.8 8.9-1.3.8 0-1.8.4-2.9.6 1.2-.1 2.5-.3 3.9-.5 2.7-.6 5.3-1.3 6-1.5l-2.2.4c1.2-.3.7 0-.2.3-1.7.5-2.8.7-3.6.8h-.9l.8-.1 1.3-.3c-.4 0-.8.1-1.4.2-2.9.2-8.1 1.1-11.8 1.5l1.8-.5-4.5.8c-1 0-1.6-.1.5-.4-3.2.2-2.8.4-5.5.5-.3 0-.2 0 .1-.1l-3.1.4c.6-.1-.5-.2 1.4-.3-2.8.2-5 .5-6.8.8-1.8.2-3.2.3-4.2.3h.5c-7.7.5-.7.3-6.5.8l-3.9-.4-.8.2c-.8 0-2.4 0-2.1-.1-3 .2.5.1-1.2.3-3.8-.1-10.6.2-11.4-.2-1.4.2 3.7.1-.4.3-1.2-.4-4.7.1-8.2 0 1.1-.2 4.4-.1.9-.3-2.1.4-6.8 0-9.8.2-.1.1-1.7.2-3.9.3-.6 0-1.1.1-1.8.1-.6 0-1.2.1-1.9.2-1.3.2-2.6.3-3.8.5.3-.2-9.3 1.2-13.8 1.6l.1-.1c-.4.2-1.8.4-3.5.6-1.7.1-3.8.3-5.5.5.1-.2.7-.3 2.6-.5l-3.2.3c-.8.1-1.8.3-3.9.5l.8-.3c-4.3.3-8.7.8-14.2.9-.3.2 4.5.3-1.4.7-.2-.1-.4-.3 1.1-.4-.5 0-1.8.2-2.8.2l2.3-.3c-2.5 0-1.3.2-3.3.3 0-.1-1.5-.1-1.2-.2.5 0 1.8 0 2.5-.1-2.3.1-5.1.1-6 0 .2.1 0 .2-1.7.3-4.3.1-1.5-.1-4-.2-1 .1-3.8 0-3.9.3-1.3 0-1.5-.1-2-.2-2.2.1-10.4 0-7.9.2h.6-.4c-7.3-.2-15.2-1-22.5-1.4v-.1c-4.3-.2-9.7-.5-12.8-.6-1.3-.1-3-.2-2.5-.3-3.3 0-3.7.1-8.5-.2 3.3 0-1.1-.1 3.4 0-4.3-.2-5.3-.3-9.9-.3 1.6-.1-3.2-.4-5.3-.6 1 .1 2 .3 3 .4-2.3-.1-4.3-.4-6.3-.6l1.1-.1c-1.1-.2-2.1-.3-3.2-.5l-.4-.1h-.2-4.8s-.4 0-.6-.1c-1-.1-1.9-.3-2.8-.4-3.7-.5-7.1-1-10.4-1.8-2.3-.2 4.7 1 2.6.8-4-.7-8.1-2-9.3-2.3-2.7-.7-3.9-1-5.2-1.3-1.3-.3-2.6-.6-5.3-1.7.3.2.6.4.3.4s-1.2-.3-3.1-1.2c-3.7-1.8-4.4-2.5-2-1.4.9.4 1.3.6 1.2.6 1.2.5 2.8 1.2 1.4.5l-.5-.1c-1.8-.9-6.8-3.4-5.6-2.9-2.8-1.3-1.2-.4.8.6-4.6-2.4-7.3-3.6-12.2-5.9.8.4 1.4.8.7.5-3.6-1.7-4.4-2-4.9-2.2-.5-.2-.8-.2-3.2-1.2-2.7-1.3 1.1.1-3.9-1.9-3-1.3-.6-.5.7-.1-4.6-1.7-8.6-3.4-11.3-4.3l2.5.7c-1.5-.4-2.7-.9-4-1.2.5.2.9.4 1.4.6-1.4-.5-2.7-.8-2.6-.9-1.5-.3 1.1.6-2-.1-1-.3-2.5-.7-3.8-1-1.4-.3-2.5-.5-2.9-.7 6.2 1.4-.6-.4 4.7.8-1-.2-2.3-.5-3.8-.8-.2-.1.2 0 .6.1-1.5-.4-2.4-.6-3.1-.6-.7-.1-1-.1-1.4-.1-.7-.1-1.5 0-4.7-.3.8-.1-1.4-.4-2.5-.4 2.6.2 1.2.3-1.1.3-4.1-.3-4.4 0-6.6 0h2.4c-.8.1-2.9.2-5.7.5-.3-.1 2.5-.3 1.5-.3-3.1.5-7.1.4-11.4 1.1-2 .2-.2-.2-2 0-4.8.9-5.3.6-10.3 1.7 1.5-.1 1.7-.2-1.8.7 2.8-.6 5.5-1.2 8.3-1.7-1.8.4-3.5.8-5.3 1.2 2.5-.5 5.3-1.1 6.8-1.3-2.5.6-2.3.5-1 .4-3.5.3-6.8 1.3-10.8 2v-.5c-3 .5-5.6 1.2-8.5 2-2.8.9-5.8 1.8-9.6 2.9.8-.2 1.6-.5 2.5-.7-1 .5-4.7 1.4-7 2.5.2-.2-1.3.3-2.4.7.2.1-5.3 2.2-5.9 2.7l-3.3 1.2c-5.9 2.4-6.5 3.2-12.1 5.7 1.6-.9-1 .1 2.7-1.6-1.9.8-3.6 1.6-3.5 1.7-1.1.4-5.1 2.6-6.8 3.3-.7.4-.9.7-3 1.8-.2.1 0-.1 0-.1 0 .1-3.1 1.8-1.3 1-1.4.6-3.1 1.5-4.9 2.5-1.8 1-3.6 2.3-5.3 3.5-1.8 1.2-3.6 2.3-5.3 2.9-.9.3-1.8.5-2.6.5h-.9c-.2 0-.1-.2-.1-.2 0-.1 0-.2-.1-.3-.6-2.1-1-4.5-.6-6.8.1-.3.1-.6.2-.8 0-.1.1-.3.1-.5l.1-.4c.1-.6.2-1.1.3-1.7.2-1.1.4-2.2.6-3.2 0 .3.1 0-.1.8 1.3-5.4.3-3.4 1.9-9.6 1-3.1-.7 3.3-.1 1.4.7-.7 1.7-7.4 3.2-11.5l-.3 1c1-3.1 2.1-7.6 3.7-12.8 0 0 0 .3.1 0 .4-1.8.9-4.4 1.1-7.3.2-2.8.1-5.9-.5-8.4.5 1.5.5 2.3.5 1.3-.2-1.2-.3-1-.4-1.1-.1-.1-.2-.5-.9-2.7-.4-1.5-1.6-4.6-1.5-5 .6 1.3 1.1 2.7 1.6 4-.5-2.2-2.1-5.2-3-7.3l.2.2c-1.3-3-2-4.6-2.7-6.1-.7-1.6-1.4-3.3-2.2-6.7l.1.7c-.3-.9-.5-1.6-.6-2.1-.1-.5-.1-.9-.1-1.3 0-.8-.1-1.6-.4-3.6l.2-1.2c-.2-1.3-.5-3.5-.6-6-.1-1.2-.1-2.6 0-3.8 0-.3.2-.4.4-.7.2-.2.4-.5.6-.7.2-.2.4-.4.6-.7.1-.1.2-.2.3-.2h.4c-.1 0-.3 0-.4.1-.1 0-.2.2-.3.3-.3.3-.5.6-.8 1-.1.2-.3.3-.4.5-.1.1-.1.3-.1.5v1.5c0 2.1.2 4.2.4 5.9-.1-1.3-.3-3.4-.3-5.4v-1.4-.8l.1-.1c.2-.3.5-.5.6-.7.2-.2.3-.4.4-.5-.3.4-.7.8-1.1 1.2 0 .1-.1.1-.1.2v.3c0 .3 0 .5-.1.8V185.4c0-.1.1-.1.1-.2l.2-.2c.1-.2.3-.3.4-.5.3-.3.6-.7.8-1 0-.1.1-.1.2-.1h.3c.2 0 .5-.1.7-.1 2-.2 4.3-.1 6.8.3-.5.2 2.8.7 6.4 1.9 3.6 1.3 7.9 2.8 9.6 3.5 8.7 2.5 17.3 4.8 27.6 6.5-.9-.3-1.1-.4-1-.4.1 0 .6.1 1.1.2.2.1.5.2.8.3.3.1.6.2.8.3.5.1.8.2.7 0 2.3.8 3.2 1 3.4 1.1 2.3.8 4.7 1.5 7.1 2.1 1.7.5-2.3-.4-2.1-.2 2.6.6 3.2.7 3.5.9.3.1.4.2 2.2.6-.7-.3 1.9.1 4.9.6l-4.2-.9c7.4 1 6.3 1.4 13.7 2.4l-2.4-.3c.9.1 2.3.4 3.8.6.8.2 1.6.3 2.4.5.9.1 1.8.3 2.7.4 3.6.5 7.2.5 9.1.3.7 0 1.6.1-.1.2 4.7 0 9.9-.7 14.7-1.8 4.8-1.1 9.3-2.1 12.8-2.8l-.7.3c1.7-.4 2.9-.9 5-1.3-.1.1-.6.3.1.1.9-.2 4.4-1.2 6.6-1.7l-1.9.6c8.8-2 13.3-3.6 20.6-5.7.1.3 6.9-1.5 10.3-2.5l-.1.1c8.6-2.6 14.9-4.9 22.3-7.7 1.2-.3 2.5-.6 3.8-.9 5.9-1 19.9-4.2 29.5-5.7-1.5.2.2-.3 1.9-.6 2.2-.4 6.1-1.4 5.8-1l-.8.1c1.7 0 6.3-.9 9.9-1.5l.5-.5c9.5-1.1 24.6-4 29.8-4.2 2.3-.4 5.1-.8 7.3-1.2l-.1.2c6.3-.8 9.5-1.1 17.3-2.1l-1.6.3c2.2-.3 3.6-.5 4.9-.8 1.3-.3 2.6-.5 4.7-.6l1.2.3c7.7-.2 15.5.5 23.1 1-.1 0-.4.1-1.6 0 3.6.3 13.9 1.8 12.7 1.2.1.3 7.9 1.1 12.1 1.6l-.7.1c3.5.2 3.7.2 8.6.8 1.2.2 1 .3-.5 0 1.9.3 2.6.4 3.6.5.9 0 1.8 0 4.2.3h-1.8c2 .2 2.9.3 3.6.3h1.5c.2 0 .4 0 .7.1 2.5.3 7.5 1.3 8.1 1.5.6 0 2.8.1 5.1.5.3.1-.6.1-1 0 1.7.2 3.1.4 4.4.5 1.3.2 2.5.3 3.6.4 2.2.3 4.2.5 6.4.9.1.1.4.2.8.2-5.3-.8-9.5-1.4-9.1-1.3 0 .2 4.2.8.8.6 3.4.3 9.3.8 13.4 1.6.2 0 .4.1.5.2h-.4c1 .2 1.8.3 2.6.4 1.3.2 2.1.4 3.4.6.5.2 4.8.9 6.9 1.4-.1-.2 2.6.3.1-.3.3.1-.4-.1-1.8-.3-.3-.1-.7-.1-.9-.1h.1c-1.4-.3-3.2-.6-5.2-.9 1.7.2 3.4.4 5.7.9 1.1.1 2.3.2 3 .2 2.8.8 8.3 2.2 9 2.6 3.2.7 6.9 1.7 10.3 2.7 1.7.5 3.3 1 4.8 1.4l.3.1s.1 0 .2.1c.2.1.3.1.5.2.3.1.6.3.9.4.6.2 1.1.5 1.6.7 1.7.8 1.8 1.1 2.4 1.5-1-.5-2.1-1.1-2.6-1.3 1.7.8 4.1 2.1 6.2 3.3 2.1 1.1 4 2.1 4.4 2.1 2.1 1.1 1.5.9 1 .7-.2-.1-.4-.1-.1 0 .3.1.9.5 2.5 1.1l-.4-.1-.5-.2c1.5.6 2.9 1.2 4.2 1.8 1.3.6 2.6 1.2 3.8 1.7 2.5 1.1 4.9 2.2 7.5 3.1.6.2 1.3.4 1.9.7.6.3 1.2.5 1.9.8 1.3.6 2.5 1.1 3.9 1.7 2.6 1.3 5.4 2.7 8.4 4.5-.8-.5-1.3-.7-1.4-.9 4.8 2.6 9.6 5.4 14.3 8.4 2.4 1.5 4.7 3 7.1 4.5l3.5 2.3c.9.8 2 2 2.5 3 0 .2 0 .5-.1.7 0 .1-.1.2-.2.3 0 .1-.1.1-.1.1l-.2.2-1.5 1.3c-1 .9-1.9 1.8-2.9 2.6s-2 1.5-3.1 2.2c-1.5.7-1.7 2-2.9 2.5-.5.3-.9.7-1.2.9-.3.2-.6.4-1 .5l-1.6.8c-.9.5-1.6 1-2.7 1.8l-.9.4-1.8 1.5c-.6.5-1.1 1-1.8 1.5-.3.2-.7.5-1 .8-.3.3-.6.6-.9.8-.3.2-.6.4-1 .6-.3.2-.7.4-1 .6-1.3.9-2.4 1.8-3.7 2.7-1.3.9-2.6 1.8-4.1 2.6-.7.4-1.6.9-2.3 1.6-.3.3-.7.7-1 .9-.3.3-.7.4-1.2.4h.9c-.6.2-1.6.3-2.3-.1-.8-.4-.8-1.6-.3-2.3.5-.7 1.3-1.2 1.8-1.5.5-.3.8-.5.7-.4.2-.2.8-.7 1.5-1.7h.2c1.1-2.1 3.7-2.9 5.7-4.4 2.4-1.5 2.3-1.3 2.5-1.3.1 0 .2 0 .8-.3.3-.2.7-.4 1.2-.7.6-.3 1.3-.9 2.1-1.5.5-.3 1.1-.7 1.7-1.1.6-.4 1.2-.9 1.7-1.4 1.1-1 1.8-2.2 2.1-2.8l.1-.3-.1-.2-.2-.2c0 .1.1.1.2.2l.1.2-.1.2c-.6 1.2-2 2.3-2.1 2.3.7-.7 1.3-1.4 1.8-2.2v-.2c-.4-.2-.9-.6-.4.3v-.6c-.4.4-1.1 1.4-3 2.8-.6.5-1.3.9-1.9 1.4-.7.5-1.4 1.1-1.9 1.6l-1.4.7.9-.6c.3-.2.5-.3.8-.5l.8-.6c.3-.2.7-.5.9-.6-.2.1-.5.3-.8.5-.2.2-.5.3-.7.5-.4.3-.7.6-1 .8-.7.5-1.4 1-2 1.5-.4.1-1 .5-1.8.9-.7.5-1.3 1-1.9 1.4-.6.4-1.4.8-2 1.3-.3.1.1-.3.3-.4.1-.1.1-.1-.1 0s-.6.3-1.3.8c-.9.9-.4.6-.1.3.2-.1.3-.2.2 0-.1.1-.5.4-1.1 1.3-.8 1-1 1.2-1.3 1.4-.2.1-.4.2-.6.5-.2.2-.6.5-1.2.9-.4.2.1-.3.9-.9-.4.4-1.1.7-1.7 1.3-.3.3-.6.6-.9 1.1-.3.4-.4 1-.4 1.5s.1 1 .4 1.5c.3.4.7.7 1.1.9.7.3 1.3.3 1.7.2.4 0 .8 0 1.3-.2s.9-.5 1.2-.8c.4-.3.6-.6 1-.9.3-.3.7-.5 1-.7 1.5-.8 2.7-1.7 2.7-1.5.3-.2 1.1-.9 2.1-1.7 1-.8 2.1-1.8 3-2.5-.7.7-.7.7-.2.4.2-.2.6-.4 1-.7.2-.1.4-.3.6-.4.1-.1.2-.1.3-.2.1-.1.3-.2.4-.3.6-.4 1.1-1 1.5-1.3.4-.3.9-.6 1.3-.9.9-.6 1.3-.9 1.2-.7 1.1-1.1 3.1-2.9 5.7-4.1.3-.2.7-.3 1-.5.3-.2.7-.3 1.1-.6.8-.5 1.3-1.1 1.9-1.4.1-.1.4-.2.6-.5l.4-.5c.2-.3.5-.6.7-.9.2-.2.1-.2.2-.2l.5-.3.9-.6c-.2.2-.7.6-1.2.8 1.4-.8 2.2-1.4 2.9-1.9.7-.5 1.3-.9 2-1.6 0-.2.7-.9 1.5-1.7.4-.4.9-.9 1.3-1.4l.2-.2c.1-.1.2-.2.2-.3.1-.2.3-.4.3-.6.2-.5.1-.8.1-1.3-.1-.2-.2-.4-.3-.5-.1-.1-.2-.2-.2-.3-.2-.2-.3-.4-.5-.6-1.1-1.6-.7-1.2 0-.5.3.3.7.8.9 1.1.1.1.2.3.3.4.1.1 0 0 0-.2 0 .1-.3-.3-.7-.8-.4-.5-1-1.1-1.5-1.6l-.2-.2c-.1 0-.2-.2-.3-.3-.2-.1-.3-.2-.5-.3-.3-.2-.5-.3-.7-.4-.4-.2-.6-.3-.3-.1-2.3-1.7-2-1.4-3.1-2.4-.6 0-2.2-1.4-4.4-2.5-3.4-2.3-.7-.9-4.6-3.1-2.3-1.8 1.2.2 1.2.2zm-99.7-38.3c.9.1 1.7.2 2.2.3-.4 0-1-.1-2.2-.3zm-8.9-1.3c1.1.2 2.4.4 3.9.6.3.1 0 .1-.9 0 .4 0-1.7-.4-3-.6zm18.6 4.4c-1.4-.2-1.9-.3-2.1-.4.7.1 1.4.2 2.5.4h.2-.6z"/>
      <path d="M717.6 175.9c.2 0 .3.1.6.1-.3-.1-.6-.1-.8-.2h-.5c.2 0 .4 0 .7.1zM581.6 283.5h-.2.4-.2zM572.6 165.4l.8-.1zM631.2 282.4h.7-.7zM652.5 279.9l3-.3c-1.3.1-2.3.2-3 .3zM668.9 279.1c.2 0 .3-.1.3-.1l-.3.1zM412.4 251.2h-.6c-1.5.1-.5.1.6 0zM485.7 274.6c-.8-.2-1.6-.5-2.4-.8 1.3.6 2.3.9 2.4.8zM329.7 275.2c-.2.1-.3.1-.5.2l.5-.2zM479.9 272.4c1.2.6 2.3 1.1 3.4 1.4-1.1-.4-2.4-.9-3.4-1.4zM740.2 274.4l.8-.2.1-.1-.9.3zM741 274.1l.9-.2c-.4.1-.8.2-.9.2zM743.7 273.5l-1.8.4c.6-.1 1.4-.3 1.8-.4zM718.4 277l-.2.1c.1 0 .2-.1.2-.1zM711.9 277.7c1.6-.2 4-.3 6.2-.6l.2-.1c-1.1.3-5 .4-6.4.7zM684.2 278h5.6c-1-.1-2.2-.2.3-.2-7.1-.2 1.3.1-5.9.2zM666.9 278.1c3-.1 0-.1.1-.2-1.9.1-2.3.1-.1.2zM542.8 281.1l.3-.2c-2.3 0-.1.1-.3.2zM518.9 280.7l2.2.4 1.1-.1-3.3-.3zM505.2 277.8l1 .1-3.8-.6zM307.9 285.3h.7c.7-.3 1.1-.6 1-.6 0 0-.5.2-1.7.6zM306.4 203.1c-.1-.5-.2-1.3-.4-2.3 0-.2-.1-.5-.1-.7 0-.2-.1-.5-.1-.7-.1-.5-.1-.9-.2-1.3 0 .5.1 1 .1 1.5 0 .2 0 .5.1.7 0 .2.1.4.1.7.2.9.4 1.6.5 2.1zM549.2 170.8l-1.8.4 3.4-.6z"/>
    </g>
    <g>
      <path d="M763.2 270.8c.1 0 0-.1-.1-.1l-.1.1h.2zM762.1 270.7c-.2 0-.4.1-.3.2.2-.1.2-.1.4-.1h.3c.1 0 .2 0 .3-.1h-.7c-.1 0 0 0 0 0zM764.3 270.9c-.1 0-.1 0 0 0zM773.7 269.6h-.1.1zM775.3 269.4s-.1 0 0 0c-.1 0 0 0 0 0zM764.3 270.9h.3-.3zM760 270.9h.1-.1zM760.1 271.5h-.1.1zM756.9 271.4c.1 0 .1-.1.1-.1s-.1 0-.1.1c0-.1 0-.1 0 0zM759.2 270.6c.1 0 .1 0 0 0zM762.4 271.2zM800.3 243.7zM798 242.5c0-.1 0-.1 0 0zM778.3 269c-.1.1-.1 0 0 0zM804.1 260.6c-.3.1.4-.3 0-.1 0-.1-.3.2 0 .1zM759.9 270.9h-.1.1zM804.1 260.4c-.1 0-.1 0 0 0zM785 267.7s-.1 0 0 0c-.1 0-.1 0 0 0zM779.9 268.5h0zM787.5 266.8c.1 0 .1 0 .2-.1-.1 0-.1 0-.2.1zM790.1 266.1h-.1zM808.8 243.4h-.1s-.4.1.1 0zM760 270.8c-.1 0-.1.1 0 0zM787.4 266.2l.4-.2c-.1.1-.3.2-.4.2zM818 248.3c.1-.1 0-.1 0 0zM789.1 265.7h.4-.4zM808.6 243.4z"/>
      <path d="M805.8 244.2c.4 0 .2-.1.3-.2.5-.1.3 0 .4 0 .3-.1.5-.2.7-.3 0 0 .1 0 0 0 .3-.1 1-.2 1.3-.4h.1c-.1 0-.1-.1-.1-.1.2-.1.3-.2.4-.1-.1 0-.1.1-.2.1l.2-.1c.2 0-.2.1-.2.2.4-.1.8-.3 1.1-.4.1.1-.6.2-.2.2l-.4.1c.4 0-.3.1.1.1l1.2-.4c.1-.1-.1 0 0-.1.8-.4.7 0 1.2-.4.1-.1.2-.2.6-.3l-.1.1c.5-.2.3-.2.9-.4-.1.1-.4.2-.3.2.4-.1.2-.1.5-.2l.1.1c.6-.2 1.1-.5 1.8-.6 0 0-.1.1 0 .1.4-.1.9-.1 1.4-.2.5-.1.8-.2 1.1-.1h.3c.1 0 .1.1 0 .1.2.2 0 0 .2 0 .2.1.2.2.1.1.5.2 1.4.8 1.7 1.3l-.1-.1c.3.3.5.3.6.6l-.1-.1c.3.4.4.9.4 1.3 0 .5-.2.9-.4 1.2.1.2-.5.8-.4.9-.4.4-.3.3-.9.8-.2.1-.2.3-.3.5l-.1-.1-.2.3-.2.1-.2.2c.1-.1.2-.1.2-.1-.3.3-.7.6-.8.6l-.6.7.2-.2c-.3.4-.1 0-.4.4.1 0 0 .1 0 .1-.2.1-.6.5-.9.7v-.1c-.5.4-1.1.9-1.7 1.4.2-.1.2 0 .1.1h-.1c-.1.1.2-.1 0 .1s-.2 0-.1-.1l-.3.2v-.1c-.1.1-.5.3-.7.5-.6.5-.9.7-1.4 1.2 0 .1-.2.2-.3.4-.4.3-.8.6-1.2 1-.3.3 0 .1-.1.3-.1 0-.5.4-.3.1l-1.2 1.2c.1 0 .2-.1.1-.1-.1.1-.3.2-.3.2-.6.7-1.8 1.3-2.3 1.9l-.6.5c-.3.2.1-.2-.1 0-.6.6-1.1.8-1.6 1.2-.5.1-1.6 1-2.3 1.2h.1c-.1.1-.2.1-.3.1 0 0 .2-.1.1 0-.7.4-1.5.7-2.2 1-.8.3-1.5.7-2.3.9-.6.2-.2.3-1 .5l.2-.1c-1.1.5-2.4.8-3.4 1.3.1 0 .1-.1.2-.1-.3 0-.9.3-.8.4-.2.1-.1 0-.2 0-.2 0-.6.3-.7.2 0 0 .1 0 .1-.1-.1.1-.7.1-.6.2-.4 0-.8.1-1.2.1-.2.1-.8.1-.9.2 0-.1-.8.2-1 .3.1-.1-.2.1-.2 0-.3.1-.6.3-.5.3-.6.1-1.1.5-1.4.5-.9.3-1.7.4-2.6.5 0-.1.9-.1.9-.2-.8.1-1.3.2-2.1.4-.2 0 .1-.1.2-.1-.8.2-1.6.3-2.2.6 0 0 .1 0 .1-.1-.1 0-.3.1-.3.1h.1c.2 0-.5.3-.5.3.2-.2-.7.1-.4-.1-.1 0-.2.1-.2.1-.1 0-.2 0-.1-.1-.5.1-.3.2-.8.2l.1-.1c-.2.1-.4.2-.8.2h.1c-.6.1-1.1.3-1.9.3.2-.1-.3 0-.3-.1l-.4.1h.2c-.3.1-.6.2-.9.2l.2-.1-.6.1h.4c-.3.1.1.1-.4.2.1 0-.3.1-.5.1-.2.1-.3.1-.6.2-.1 0 0-.1 0-.1-.2.1-.8.2-1 .3.1 0 .1-.1 0-.1l-.1.1h-.2c-.5.1.2.1-.4.1h.1c-.6.1-1.1.3-1.6.3-.2-.1.5-.1.3-.1-.7.1-1.5.3-2.3.4h.1c-.1.1-.6 0-.9.1.1 0 .1-.1.1-.1-.5 0-1 .1-1.8.2h.1c-.3 0-.8 0-1.1.1-.1 0-.3.1-.2.1-1-.1-1.9.3-2.8.3.1 0 .2-.1.2 0-.2 0-.5.1-.7.1.1.1.1 0 .3.1-.1 0-.3.1-.5.1.3-.1 0-.1-.2-.1v.1c-.4-.1-.1.1-.6 0h-.6c-.1-.1.2 0 .2-.1-.3 0-.6 0-.9-.1h.4c-.3-.1-.3-.1-.6-.1h-.5.1c-.4.2-.8.1-1.3.1.5 0 .1 0 .1-.1-.1 0-.3-.1-.2-.1-.1 0-.2-.1-.2-.2l-.2.3c.1 0 .2 0 .3-.1h.2c.3 0-.1 0-.1-.1.5-.1 1.1 0 1.8-.1.6 0 .7-.1 1.3-.2.2 0-.2.1-.2.1h.8c-.1 0 0 0 .1.1.2 0 .2-.1.5 0-.1 0-.1.1-.2.1.3 0 .6-.1.8-.1.1 0-.2.1-.3.1.3 0 .8 0 .9-.1h-.2c.1 0 .1.1 0 .1-.3.1-.4 0-.4 0h.2c-.2-.1-.8 0-1.2 0l.2-.1-.4.1c-.1 0-.1-.1.1-.1-.3-.1-.3 0-.5 0h-.3c.1 0 0-.1.1-.1-.5-.1-.8.1-1 0-.7 0-.1.1-.6.2l-.4-.2-.1.1h-.2c-.3.1 0 0-.1.1-.4-.1-1 .1-1 0-.1.1.3 0 0 .1H755v.1c.1.2.3.2.5.3-.1 0-.4-.1-.1.1.2 0 .6.1.9.1 0-.1.6-.1 1-.1-.1 0 .8.2 1.3.2.1-.1.5-.1.8-.1 0 .1-.1.1-.2.1h.3c.1 0 .2-.1.4-.1l-.1.1c.4 0 .8-.2 1.3-.2 0-.1-.4-.1.1-.2 0 0 .1.1-.1.1 0 0 .2-.1.3 0l-.2.1c.2 0 .1-.1.3-.1 0 0 .1 0 .1.1h-.2.5s0-.1.1-.1h.4c.1 0 .3 0 .3-.1h.2c.2-.1.9-.1.7-.1h-.1c.7-.1 1.4-.1 2-.1.4-.1.9-.1 1.2-.2.1 0 .3 0 .2.1.3-.1.3-.1.8-.1-.3.1.1 0-.3.1.4 0 .5 0 .9-.1-.1.1.3 0 .5 0h-.3c.2 0 .4-.1.6-.1l-.1.1c.8 0 1.4-.4 2-.4.2-.1-.4.1-.3-.1.4-.1.8 0 .9-.1.5-.1.4-.2 1-.3-.1 0-.2-.1.2-.2s.5 0 .2.1h-.1c-.1 0-.3.1-.1.1.2 0 .7-.1.6 0 .3-.1.1-.1-.1 0 .5 0 .7-.1 1.2-.2h-.1c.7-.1.3-.1.8-.2.3 0-.1.1.4 0 .3 0 .1.1 0 .1.4-.1.8-.1 1.1-.1l-.2.1c.1 0 .3-.1.4-.1h-.1.3c.1-.1-.1-.1.1-.2.2 0 .5-.1.6-.1-.6.1.1.1-.4.2.1 0 .2-.1.3-.1h-.1c.6-.1.2-.1.8-.3-.1.1.1 0 .2 0-.2.1-.1 0 .1-.1.4-.1.4-.1.6-.2h-.2c.1-.1.2-.1.5-.2 0 0-.2.1-.1.1.3-.1.6-.1 1-.2.2 0 0 .1.2.1.4-.1.5 0 .9-.2-.1 0-.2 0 .1-.1-.2.1-.5.1-.7.2l.5-.2c-.2 0-.5.1-.6.1.2-.1.2-.1.1-.1.3 0 .6-.2 1-.2v.1c.5 0 1-.2 1.7-.2h-.2c.1-.1.4-.1.7-.1 0 .1.1 0 .2.1 0 0 .5-.1.6-.2h.3c.6-.2.6-.3 1.1-.5-.1.1.1 0-.2.2.2-.1.3-.1.3-.2.1 0 .5-.3.6-.3.1 0 .1-.1.3-.2 0 0 .3-.2.1-.1.3 0 .7-.2 1-.2.4-.1.8-.1 1 0 .4 0 .9-.2 1.3-.3h-.1c.5-.1.3-.2.8-.4.3 0-.3.1-.1.1.1.1.7-.3 1-.3h-.1c.3-.1.6-.3 1.1-.5.3-.2.9-.4 1.3-.6-.1.1-.2.1-.1.1.2-.1-.1-.1.3-.2.1 0 .4-.1.5 0l-.4.1c.2 0 .5-.2.7-.2.6-.2.5-.3 1.2-.5h-.1c.3-.2.3-.1.6-.3h.1c.2-.1.7-.4 1.1-.6-.2.2-.6.4-.9.6.2-.1.7-.3.8-.4-.1 0-.2.1-.3.1.2-.2.6-.4 1-.6 0 .2 1.1-.5 1.5-.5.7-.4 1.5-.7 2.3-1.2-.4 0 .2-.1.1-.2.2-.1.3-.2.3-.2l.6-.3c.2-.1-.2.1-.1.2.4-.3.2-.1.5-.2-.1 0 .1-.2.3-.3l-.4.2c.5-.5.6-.3 1.1-.7l-.1.2c.3-.2 1-.8 1.2-1.1.1 0 .1 0 0 .1.7-.5 1.3-1.3 1.9-1.7v.1l.3-.3s0 .1 0 0c.1-.1.3-.3.4-.5l-.1.2c.6-.5.9-.9 1.3-1.4.1.1.6-.3.8-.5.7-.6 1.2-1.1 1.8-1.7.5-.2 1.5-1 2.3-1.5-.1.1 0-.1.1-.2.2-.1.4-.4.4-.3h-.1c.2 0 .5-.3.7-.5v-.1c.8-.4 1.6-1.6 2.1-1.8.1-.2.3-.4.4-.5v.1c.4-.4.6-.7 1-1.3v.2c.2-.4.1-.6.2-.9l.1-.1c.3-.7.4-1.6 0-2.3 0 0 .1 0 .1.1-.1-.4-.7-1.2-.8-1 .1-.1-.5-.5-.9-.7h.1c-.3-.1-.3-.1-.7-.4-.1-.1 0-.1.1 0-.3-.2-.3-.1-.6-.4h.2c-.3-.2-.3-.2-.5-.2-.2-.1-.7-.1-.8-.2-.1 0-.3.1-.5.2 0 0 0-.1.1-.1-.6.2-.8.3-1.3.3h-.1c.5-.1.8-.1.8-.1 0-.1-.4 0-.1-.1-.3.1-.8.3-1.2.3H813.4c-.1 0-.5.1-.7.1 0 .1-.2.1 0 .1l.2-.1h.1c.1 0 .3-.1.5-.1-.2.1-.3.1-.5.2l-.2.2c-.3 0-.8.1-.9.1-.5.2-1.3.5-1.6.8-.2.1-.2 0-.3 0 .1 0 .2-.1.2-.1-.3.1-.9.4-1 .5-.4.1.2-.2-.3.1l.1-.1c-1.1.2-1.7.8-3 .9h.2c-1.4.4-2.9.2-4.4.1h-.7l-.1-.1h-.4c-.6 0-1-.3-1.8-.4l.1.1c-.3-.1-.8-.2-.8-.2h-.2c-.2-.1-.4-.1-.6-.2-.2-.1-.2-.2-.1-.2 0 0 0-.1-.1-.3l-.2.2c.1 0 .1 0 .1-.1 0 0-.1 0 0 0 0 .1 0 .2.1.1v-.3c0 .1.1.1.1.2.1 0 .1.1.2.1 0 0 .1 0 .1-.1v-.2c0-.1-.1-.3-.4-.3-.1 0-.2 0-.3.1l-.2.1.1.2c0 .1.1.3.2.4l.1.2c-.1-.1-.2-.3-.3-.5 0 .2.1.3.2.4.1.1.2.1.2.2 0 0 .1.1.1.2.2 0 .3.1.5.1 0 .1-.2 0 .1.1.2 0-.2-.2.2-.1.2.1.1.1.4.2h-.1c.2 0 .6.2.7.1.2.1.7.1.7.2h.6c-.4.1.8.1.6.2.3-.1 1 .1 1.5 0h-.1c.3 0 .3.1.5.1 0-.1.5-.1.7-.1.3.1-.2.1-.1.2 0-.1.6 0 .5-.1.3.1.2 0 .4.1.1-.1.2 0 .5-.1.4.1.1.1.5.1.9-.9.5-.8.5-.8zm9.3-3h-.2.2zm.8-.1h-.4l.1-.1c0 .1.2.1.3.1zm-1.8-.2h.2-.2zM813.9 241.1zM764.2 270.9s-.1 0 0 0c-.1 0-.1 0 0 0zM818.7 247.6zM759.7 271.2c-.1 0-.1 0 0 0-.1 0-.1 0 0 0zM757.7 271h-.3.3z"/>
      <path d="M756.3 270.9c-.1.1-.1.1 0 0zM779.7 268.1c.2-.1.1-.1 0 0zM772.8 269.5c.1 0 .1-.1.2-.1-.1.1-.2.1-.2.1zM787.3 266.2h.1zM773.3 269.4c-.1 0-.2 0-.3.1.1-.1.2-.1.3-.1zM761.3 270.9c.1 0 .1 0 0 0zM761.4 270.9zM761.6 270.9h-.2.2zM759.3 270.8zM758.7 270.8c.1 0 .4.1.6 0-.1.1-.4 0-.6 0zM756.2 270.6h.5c-.1 0-.2-.1 0-.1-.6 0 .2.1-.5.1zM756.4 271.3c-.3 0 0 0 0 0 .1 0 .2 0 0 0zM767.7 270.7c.2 0 0 0 0 0zM769.8 270.1H769.5zM771.1 270.3h-.1l.4-.1zM789.6 266.2c-.2 0-.2.1 0 0zM797.5 263.7c.1 0 .3-.1.4-.2-.2.1-.3.2-.4.2zM817.5 249.5l-.1.2.2-.2z"/>
    </g>
    <g opacity=".85">
      <path d="M758.8 265.7c-.3-.1-.7-.2-1-.3.2.1.3.2.5.2.2.1.3.1.5.1zM756.8 265c-.1 0-.1 0-.2-.1h-.2l.4.1zM754.9 264.6c.3.1.6.2 1 .2-.3-.1-.6-.1-1-.2zM756.4 265c-.1 0-.2-.1 0 0-.1-.1-.3-.2-.5-.2.2.1.3.2.5.2zM756.4 265c.1.1.3.1.3.2-.1 0-.2-.1-.3-.2zM755.7 265.7c-.2 0-.1-.2-.5-.3-.9-.2-1.6-.2-2.4-.4-.4 0-.9-.4-1.3-.4-.5-.1-1.3-.2-1.8-.3-.5-.1-.8-.2-.1.1 2.1.7 3.4.7 5.2 1.1 1.4.3 2.8.5 4.3.9.4.1.8.3 1.1.4l-1.5-.6c-.9-.2-1.8-.2-3-.5zM766.1 268.9h-.5c-.7-.4-1.5-.8-2.4-1.1l.3.3c.5.2.5.2.2-.1.4.3.9.6 1.3.8.5.2.9.4 1.4.3 0-.1 0-.1-.3-.2zM766.8 268.7c0 .2-.2.4-.4.4.3 0 .4-.2.4-.4z"/>
      <path d="M750.9 263.9c-.6-.2-1.2-.4-1.7-.6-.5-.3-1.1-.5-1.7-.8-1.1-.4-2.3-.8-3.3-1.3-.2 0-.3 0-.5-.2-.1-.1-.3-.2-.5-.3l-.9-.4c-.1 0-.2-.1-.3-.1-.2-.1-.1 0-.1.1.1.1.2.2.3.2-.1 0-.2-.1-.3-.2-.1-.1-.3-.2-.5-.3-.3-.1-.6-.2-.9-.4.4.1.7.2.9.4.2.1.4.1.5.2.1 0 .1 0 .2.1-.7-.3-1.4-.7-2.1-1-.2-.1-.3-.1-.5-.2-.5-.2-1-.4-1.3-.7-.1-.1-.2-.1-.4-.2l.1.1-.1-.1-1.5-.9c-.3-.2-.7-.3-1.1-.5l-.3-.3c-.2 0-.4-.1-.6-.3.2.2.4.5.6.7.3.3.9.3 1.1.7-.3-.4-.9-.4-1.1-.7-.2-.2-.4-.4-.6-.7-.5-.3-1-.8-1.4-1.2.6.4 1 .8 1.4 1.2l.6.3.3.3c.3.2.7.3 1.1.5-1-.6-1.9-1.3-2.8-2-1.5-1.2-2.8-2.5-4.2-3.7-1.4-1.3-2.8-2.4-4.2-3.7-2.7-2.4-5.5-5-8.2-7.8-1.4-1.5-2.3-3.4-3-5.3-.6-1.9-1-3.9-.9-5.8.1-1.9.6-3.7 1.4-5.3.8-1.7 1.9-3.2 3.1-4.7 1.2-1.5 2.3-3.1 3.7-4.2.2-.1.4-.3.5-.4.2-.1.5-.3.7-.5.4-.3.8-.7 1.2-.9.4-.3.6-.4 1-.5l.7-.2.8-.4c1.5-.7 3.4-2.1 5.1-3.1.4-.2.9-.4 1.3-.6.2-.1.4-.2.6-.2.3-.1.5-.2.8-.2 1-.3 1.7-.6 2.2-.6 3.9-.4 1.9-1.4 1.7-1.4-.6-.2-1.2-.4-1.8-.4-.7-.1-1.4.1-2.1.3-.3.1-.7.2-1.1.3-.4.1-.9.2-1.3.4-.9.3-2 .8-3.1 1.4 1.6-.8 1.1-.4-.2.5-1.2.8-3.1 2.2-4.7 2.4-.7.1-1.4.6-2 .9l-.8.6c-.2.2-.4.3-.8.5-1.3.9-2.4 2.1-3.3 3.4-1.7 2.4-3.8 5-5 7.9-.3.7-.6 1.5-.8 2.4-.2.9-.3 1.8-.3 2.7-.1 2.5.4 4.8 1.3 7.1.9 2.2 2.1 4.3 3.9 6 3.2 3 6.5 6 10.2 9.1 1.9 1.6 3.6 3 5.4 4.2 1.2 1 2.5 2.1 3.7 2.8.9.5 1.7 1 2.5 1.4.8.4 1.7.7 2.4.9-1.7-.6-3.1-1.2-4.8-2.3-1.2-.7 1 .3 1.8.6.4.1.8.7 1.2.8.4.2.8.3 1.2.5.4.1.8.2 1.2.4.4.1.2.3.4.4 1.1.5 2.1.6 2.8 1 .5.3 1 .5 1.5.7l.9.3c.2.1.4.1.6.2-.1-.1-.2-.2-.2-.3.3.1.7.3 1 .5-.3-.1-.7-.3-1-.5 0 .1.1.2.2.3.8.2 1.5.5 2.4.8.9.3 1.8.5 2.6.6-1-.2-2-.5-2.9-1.1.4.2.3.3-.2.1l-.3-.3c.8.4 1.7.6 2.5 1 0 0 .4 0 .6.1.3.1.2.2.3.2.2 0 .4.1.6.1-.2-.1-.6-.2-1-.4-.1-.2-.4-.4-.4-.4z"/>
      <path d="M741.4 260c.1.1.3.1.4.2-.6-.3-1.2-.6-1.8-.8.3.2.8.4 1.4.6z"/>
    </g>
    <g opacity=".85">
      <path d="M761.3 262.7l-.5-.4c.1.1.2.2.2.3.1 0 .2 0 .3.1zM760.2 261.9h-.1l-.1-.1zM759.3 261.3c.2.1.3.2.5.3-.2 0-.3-.2-.5-.3zM760 261.9c-.1-.1-.1-.1 0 0l-.2-.2.2.2zM760 261.9c0 .1.1.1.1.2 0-.1-.1-.1-.1-.2zM759.3 262.4c-.1 0 0-.2-.2-.3-.5-.3-.9-.4-1.3-.7-.2-.1-.4-.5-.6-.6-.5-.3-1.8-.9-1.1-.4 1 .7 1.7 1.2 2.6 1.8.8.4 1.6.8 2.4 1.3.2.1.4.3.6.4-.2-.2-.5-.4-.8-.6-.4-.4-1-.5-1.6-.9zM765.3 265.3c-.1 0-.3-.1-.3-.1-.4-.4-.9-.6-1.3-.8l.1.2c.3.1.3.1.1-.1.5.4 1 .8 1.5 1 0-.1.1-.1-.1-.2zM765.7 265.7c-.1-.1-.2-.1-.3-.2.1.1.2.1.3.2zM757.2 260.1c-1.2-.9-2.3-1.9-3.3-2.9-.1 0-.2-.1-.3-.2 0-.1-.1-.2-.2-.3l-.4-.4-.2-.1c-.1-.1-.1 0-.1.1s.1.1.1.2c0 0-.1-.1-.1-.2s-.1-.2-.2-.3l-.4-.4.4.4.3.2.1.1c-.3-.3-.6-.7-.9-1.1-.1-.1-.1-.2-.2-.2-.2-.3-.4-.5-.4-.8l-.1-.2v0c-.2-.3-.3-.6-.4-.9-.1-.2-.3-.4-.4-.6v-.3c-.1-.1-.2-.2-.2-.3v.6c0 .3.4.4.3.7.1-.3-.3-.5-.3-.7v-.6c-.2-.3-.2-.7-.2-1.1.2.4.3.7.2 1.1.1.1.2.3.2.3v.3c.1.2.3.4.4.6-.3-.6-.5-1.3-.7-2l-.9-3.3c-.4-1.1-.7-2.1-1.1-3.2-.4-1.1-.7-2.1-1.1-3.2-.4-1.1-1-2.1-1.2-3.2-.2-1.1.1-2.4.1-3.7 0-.6 0-1.2.1-1.7s.3-1.1.5-1.6c.4-1.1.9-2.2 1.3-3.2.2-.5.4-1.2.6-1.6.2-.5.5-.9.8-1.5l1.6-3.2c.3-.6.5-1.1.7-1.5.1-.1.3-.4.5-.5l.6-.6c.3-.3.8-.8 1.1-1.5.1-.2.2-.3.3-.5l.2-.4c.1-.2.3-.5.4-.6.2-.2.2-.3.4-.4.2-.1.4-.3.7-.5.3-.2.5-.3.8-.5.3-.2.4-.3.5-.4l.2-.2c.1-.1.2-.2.3-.2.2-.2.3-.3.3-.5 0-.3-.4-.6-.4-.6-.4-.2-.8-.3-1.3-.1-.4.1-.7.3-1.1.5-.4.2-.8.4-1.3.7-.6.4-1.1 1-1.6 1.6.7-.9.6-.5.2.4-.3.8-1.2 1.7-2.1 2.4-.2.1-.3.2-.5.4s-.4.4-.5.6c-.3.4-.5.8-.6 1.2l-.2.5-.3.6-.6 1.2c-.2.4-.3.8-.5 1.2l-.6 1.2c-.1.2-.2.5-.3.7l-.2.6c-.2.4-.3.8-.5 1.2-.4.8-.7 1.7-1 2.7-.1.3-.2.7-.3 1-.1.2-.1.3-.2.5s-.1.4-.1.7c-.1.8 0 1.5 0 2.2v1.9c0 .7.1 1.6.3 2.4.2.8.5 1.4.8 2 .3.6.5 1.1.8 1.8.5 1.3 1 2.5 1.4 3.9.5 1.4 1.1 2.5 1.6 3.7.3.9.5 1.9.8 2.6.5 1.2 1.1 2.1 1.9 2.9-.8-.9-1.3-1.7-1.8-2.8-.3-.8.5.4.8.9.2.2.1.7.3.8.3.5.7.8 1.1 1.2.2.1 0 .3.1.3.6.5 1.2.7 1.5 1.1.2.3.4.5.7.8l.4.4c.1.1.2.1.3.2v-.3c.1.1.3.4.5.5-.1-.1-.3-.4-.5-.5 0 .1-.1.2 0 .3.8.5 1.8 1.2 2.7 1.7-.5-.3-.9-.7-1.3-1.2.2.2.1.2-.1.1l-.1-.2c.5.3.9.6 1.2 1 0 0 .2.1.3.1.1.1.1.2.1.3.1.1.2.1.3.2-.3-.2-.8-.8-.8-.8z"/>
      <path d="M752.6 255.9l.2.2c-.3-.3-.5-.6-.7-.9 0 .2.3.5.5.7z"/>
    </g>
    <g>
      <path d="M371.4 246.6c.1 0 .1-.1 0 0h-.1.1zM371 246.2c-.1 0-.2 0-.2.1.1 0 .1 0 .2-.1.1.1.2.2.1.2 0 0 .1.1.2 0-.1-.1-.2-.1-.3-.2-.1 0 0 0 0 0zM364.5 241.8c0 .1 0 0 0 0zM361.6 237.8zM361.1 237.1zM364.5 241.8l-.1-.1s0 .1.1.1zM369.9 246zM366 243.3zM367.4 244.2h-.1c0 .1 0 .1.1 0 0 .1 0 .1 0 0zM369.7 245.5c0 .1 0 0 0 0zM365.1 242.5zM371.7 205.2zM373.4 204.3c0 .1 0 .1 0 0zM360.3 235.8zM356.5 223.3c-.1.1 0-.3-.1-.1 0 0 0 .3.1.1zM369.9 245.9c-.1 0-.1 0 0 0zM356.3 223.2v.1zM358.1 232.9c0 .1 0 .1 0 0 0 .1 0 .1 0 0zM359.6 235.1zM357.1 231.9zM356.4 230.7v.1zM367.9 207.4s.1 0 0 0c0 0 .2-.2 0 0zM369.9 245.9zM356.7 232.2l-.1-.2c0 .1 0 .1.1.2zM360.5 214.5zM356.1 231.4v-.1.1zM368 207.4z"/>
      <path d="M369.2 206.5c-.2.1 0 .1-.1.2-.2.2-.1 0-.2 0l-.3.3c-.1.2-.4.3-.6.4.1 0 .1.1.1.1-.1.1-.1.1-.2.1.1 0 0-.1.1-.1l-.1.1c-.1 0 .1-.1.1-.2-.2.1-.3.3-.5.4-.1-.1.3-.2.1-.2l.2-.1c-.2 0 .1-.1-.1-.1-.3.1-.3.2-.6.4 0 .1.1 0 0 .1-.3.3-.4 0-.6.3 0 .1 0 .2-.2.3v-.1c-.3.1-.1.2-.4.3 0-.1.2-.2.1-.1-.2.1-.1.1-.2.2l-.1-.1c-.3.2-.5.5-.8.7 0 0 0-.1-.1-.1-.3.3-.7.6-1.1.9l-.1.2h-.1c-.1.1 0 0 0 .1-.1.1-.1.1-.1 0-.2.3-.5.7-.8.9v-.1c-.2.2-.1.3-.3.4-.4.4-.7.9-1 1.2 0 .1-.4.4-.3.5-.2.2-.2.1-.5.4-.1.1 0 .2-.1.3h-.1v.2h-.1l-.1.1.1-.1c-.1.2-.3.4-.4.4l-.2.4v-.2c-.1.3-.1 0-.2.2v.1c-.1.1-.2.3-.3.5v-.1c-.2.3-.4.7-.6 1 .1-.1.2 0 .1.1h-.1c0 .1.1-.1.1.1-.1.1-.1 0-.1 0l-.1.2v-.1c0 .1-.2.2-.2.4-.2.3-.3.5-.4.8.1 0 0 .1 0 .3-.1.2-.3.4-.5.7-.1.2 0 .1 0 .2-.1 0-.2.2-.2.1-.2.3-.2.4-.4.8 0 0 .1-.1.1 0s-.1.2-.1.1c-.1.5-.7 1-.7 1.4l-.1.4c-.1.2 0-.1-.1 0-.1.5-.3.7-.3 1-.3.2-.3 1-.5 1.3 0 .1-.1.1-.1.2 0 0 .1-.1.1 0-.1.8-.4 1.7-.5 2.6 0 .3.2.2.1.6l-.1-.1c.1.6 0 1.3.3 2 0 0-.1 0-.1-.1 0 .2.1.5.2.5v.1c0 .1.2.3.2.4.1.1.2.4.2.3l.3.6c.1.1.2.4.3.3-.1 0 .2.4.3.5-.1 0 0 .1 0 .1l.2.2c.1.3.5.4.4.7l1 1c-.1.1-.3-.4-.4-.3.3.3.5.4.8.8.1.1-.1 0-.1 0 .3.3.5.7.7.9h-.1c0 .1.1.2.1.1l-.1-.1c0-.1.3.2.3.1-.2 0 .2.3-.1.3 0 0 .1.1.1 0v.1c.2.2.2.1.3.3h-.1c.1.1.2.1.3.3h-.1c.2.3.5.4.7.7-.2 0 .1.1 0 .2l.1.1v-.1c.1.1.3.2.3.4l-.1-.1.2.3-.1-.2c.1.1.1-.1.2.1 0 0 .1.1.1.3.1.1.2.1.2.2 0 0-.1 0-.1.1.1 0 .3.3.4.4h-.1.1v.1c.1.2 0-.1.2.1h-.1c.2.3.4.4.5.7 0 .1-.2-.2-.2-.1.3.3.6.6.8.9v-.1c.1 0 .1.3.3.4h-.1c.1.2.3.4.6.7h-.1c.1.1.2.4.3.5.1 0 .1.1.1 0 .2.5.8.7 1 1.1 0 0-.1-.1-.1 0 .1.1.2.2.3.2 0-.1 0-.1-.1-.1.1 0 .2.1.2.1-.2-.1-.1.1 0 .1.1.2.1-.1.3.1.1 0 .2.1.3.1 0 .1-.1 0-.1 0 .1.1.3.1.4.2-.1 0-.1-.1-.2-.1l.2.2.2.2v-.1c.3 0 .4.2.7.2-.3 0-.1 0-.1.1l.1.1c.1 0 .2.1.4.2l.1.1c.2.1 0-.1 0-.1.3 0 .5.4.9.4.3.1.4 0 .7.1.1.1-.1 0-.1 0 .1.1.2.1.4.2v.1c.1 0 .1 0 .2.1h-.1c.1 0 .3.1.4.1 0 .1-.1 0-.2 0 .2.1.4.1.5.1l-.1-.1c.1 0 0 .1 0 .1-.1 0-.2-.1-.2-.1h.1c0-.2-.4-.2-.6-.2l.1-.1h-.2s0-.1.1-.1c-.1-.1-.1 0-.2-.1h-.1s0-.1.1 0c-.2-.2-.4-.1-.5-.2-.3-.1-.1.1-.3 0l-.1-.2-.1.1-.1-.1h-.1c-.1-.1-.5-.2-.4-.3-.1 0 .1.1-.1.1 0-.1-.2-.1-.3-.2.1 0 .2.1.1-.1-.1.1-.3-.2-.4-.2-.1.1-.3-.1-.5-.2 0 0-.3-.3-.5-.4-.1 0-.3-.1-.4-.2h.2l-.1-.1s-.1 0-.2-.1h.1c-.2-.1-.4-.2-.5-.4-.1 0 0 .3-.2.1 0 0 0-.1.1 0 0 0-.1 0-.1-.1h.1c-.1-.1-.1 0-.1-.1v-.1s0 .1.1.1c-.1-.1-.1-.2-.1-.3h-.1c-.1-.1 0-.1-.1-.2-.1 0-.1-.1-.2-.1v-.1c-.1-.1-.3-.4-.3-.2-.3-.2-.4-.6-.6-.9-.1-.2-.3-.4-.4-.5v-.1c-.1-.1-.1-.1-.2-.3.1.1 0-.1.1.1-.1-.2-.1-.2-.3-.4.1 0 0-.2-.1-.2l.1.1c-.1-.1-.1-.2-.2-.2h.1c-.2-.4-.6-.5-.7-.9-.1-.1.1.2 0 .2-.1-.2-.1-.4-.2-.4-.1-.2-.2-.1-.4-.4 0 0 0 .1-.2 0-.1-.2 0-.3 0-.2v.1s.1.1.1 0-.2-.3-.1-.3c-.1-.1-.1 0 0 .1-.1-.2-.2-.3-.4-.5v.1c-.2-.3-.1-.1-.3-.3-.1-.1.1 0-.1-.2-.1-.1 0-.1.1 0-.2-.2-.2-.4-.3-.5l.1.1-.1-.1v.1c0-.1-.1-.1-.1-.1-.1 0 0 .1-.2 0 0-.1-.2-.2-.2-.3.2.3 0-.1.2.1l-.1-.1c-.1-.3-.1-.1-.3-.3.1 0 0-.1 0-.1.1.1 0 .1-.1 0-.1-.2-.1-.2-.2-.2l.1.1c-.1 0-.1-.1-.2-.2 0 0 .1.1.1 0-.1-.1-.1-.3-.3-.5 0-.1.1-.1 0-.1-.2-.2-.1-.2-.3-.4 0 .1 0 .1-.1 0l.3.3-.2-.2.2.2c-.1-.1-.1-.1-.1 0 0-.2-.2-.2-.3-.4l.1-.1c-.1-.3-.4-.4-.6-.7l.1.1c-.1 0-.2-.2-.2-.3v-.2s-.2-.2-.3-.2l-.1-.2c-.2-.2-.3-.2-.5-.4.1 0 0-.1.2 0l-.1-.1c0-.1-.2-.2-.2-.3 0 0-.1 0-.1-.1 0 0-.1-.1-.1 0-.1-.3-.5-.7-.5-1l-.3-.6c-.1-.3-.2-.1-.3-.4 0-.2.1.1.1 0 .1-.1-.1-.3-.1-.5 0-.1-.1-.3-.2-.6-.1-.2-.2-.5-.2-.7.1.1 0 .1.1.1 0-.1-.1 0-.1-.2 0-.1.1-.2.1-.2v.2c.1-.1 0-.3 0-.4 0-.3-.1-.3-.1-.6-.1-.2.1-.1 0-.3h.1v-.6c.1.1.1.4.1.5v-.5.2c-.1-.2-.1-.4 0-.6.2.1.2-.6.3-.7 0-.4.2-.8.3-1.3-.2.1 0-.1-.1-.2 0-.1 0-.2.1-.2l.2-.3c.1-.1 0 .1 0 .1.1-.2.1-.1.2-.2-.1 0 0-.1 0-.2l-.1.2c0-.4.2-.2.3-.6v.1c0-.2.2-.6.2-.8h.1c.2-.4.3-.9.5-1.2 0-.1 0-.2.1-.2 0 0 0-.2.1-.3v.1c.2-.4.2-.6.4-.9.1.1.3-.2.4-.4.3-.4.4-.8.6-1.2.2-.2.6-.8.9-1.1-.1 0-.1-.1 0-.1.1-.1.1-.3.2-.2.1 0 .2-.2.3-.4l-.1-.1c.4-.3.6-1 .9-1.1 0-.1.1-.2.1-.3h.1c.2-.2.3-.4.5-.7v.1c.1-.2 0-.3.1-.5h.1c.2-.3.5-.5.7-.9v.1c.1-.1.5-.5.3-.5.1.1.3-.3.4-.4v.1c0-.2 0-.2.2-.4 0 0 .1 0 0 0 .2-.1 0-.2.2-.3v.1c.1-.1.1-.1.1-.2.1-.1.3-.2.3-.2s0-.2.1-.2v.1c.3-.2.3-.4.5-.5h.1l-.3.3s.2-.1.1.1c.1-.1.2-.4.4-.5l.1-.1c.1 0 .1 0 .1-.1 0 0 .2-.1.3-.2 0-.1.1-.1-.1-.1l-.1.1c-.1 0-.1.1-.2.2 0-.1.1-.1.2-.2v-.2c.2 0 .4-.1.5-.1.2-.2.6-.4.7-.6.1-.1.1 0 .1 0l-.1.1c.1-.1.4-.3.4-.4.2-.1-.1.1.2 0 .6-.2.7-.7 1.4-.9h-.1c.7-.3 1.3-.9 2-1.2.2-.1.2-.1.3-.2h.1l.2-.2c.3-.2.6 0 .9-.3h-.1c.1 0 .4-.2.4-.2s0-.1.1-.1l.3-.3c.2-.2.1.2.4-.2.1-.1.1-.5.1-.5 0 .1-.1.2-.1.1v-.1c-.1-.1-.2-.1-.3 0v.2h-.1l.1-.1c-.1 0-.1.1-.1.2h-.1c0 .1-.1.1-.1.2 0 0 0-.1-.1-.1-.1.1.1 0 0 .2-.1 0-.1 0-.2.1v-.1c-.1.1-.3.1-.3.2-.1 0-.3.2-.4.1l-.2.2c.1-.2-.4.1-.4 0-.1.2-.5.3-.7.5v-.1c-.1.1-.2.1-.3.1 0 .1-.1.2-.2.3-.2 0 0-.2-.1-.2 0 .1-.2.2-.1.3h-.2c0 .1-.1.1-.2.2-.2.1-.1-.1-.3.1.6.3.8.2.8.2zm-4.2 2.9s.1-.1 0 0c.1-.1 0 0 0 0zm-.3.3l.1-.1v.1c0-.1-.1-.1-.1 0zm1-.2c-.1 0-.1 0 0 0-.1 0-.1 0 0 0 0-.1 0 0 0 0zM365.7 209.3zM364.5 241.9zM360.7 214.1zM366 243.7zM366.8 244.3l.1.1-.1-.1zM367.5 244.7zM359.3 235.4c-.1 0-.1 0 0 0zM361.6 238.3zM356.7 232.2z"/>
      <path d="M361.4 238.1c0 .1.1.1.1.1s0-.1-.1-.1zM370.5 246.2l.1.1zM370.6 246.3s0-.1 0 0zM370.7 246.3c-.1 0 0 0 0 0zM369.6 245.8zM369.3 245.7c.1 0 .1.1.3.2-.1-.1-.2-.2-.3-.2zM368.3 244.8l.2.1s-.1-.1 0-.1c-.2-.1.1.2-.2 0zM367.6 244.4c.1.1 0 0 0 0-.1-.1-.1-.1 0 0zM363.5 240.3c0-.1 0 0 0 0zM362.5 239.6l.1.1zM362.5 238.8v.1l-.1-.2zM356.5 230.9c0 .2.1.1 0 0zM355.7 227s.1-.2 0-.2c0 0-.1.1 0 .2zM360.6 215.4v.1l.1-.2z"/>
    </g>
  </g>
</svg>
