<svg version="1.0" xmlns="http://www.w3.org/2000/svg" viewBox="0 0 1125 433">
  <g fill="none" stroke="#000" stroke-linecap="round" stroke-linejoin="round" stroke-miterlimit="10">
    <path id="stripes1" d="M432.5 254.5c-2 .3-4 .7-6 1M444.5 258.5c-6.7 1.3-13.3 2.7-20 4M449.5 262.5c-8.3 2.3-16.7 4.7-25 7M458.5 267.5c-8 2.7-16 5.3-24 8M464.5 273.5c-10.7 3.7-21.3 7.3-32 11M523.5 175.5c-5-2.3-10-4.7-15-7M537.5 170.5c-6.7-2.3-13.3-4.7-20-7M550.5 166.5c-7.7-3.3-15.3-6.7-23-10M565.5 163.5c-12-4.7-24-9.3-36-14M580.5 162.5c-10.7-5.3-21.3-10.7-32-16M589.5 160.5c-9.7-5.7-19.3-11.3-29-17M604.5 159.5c-15.3-9-30.7-18-46-27"/>
    <g>
      <path id="stripes2"  d="M578.5 268.5c-9.7 3.7-19.3 7.3-29 11M569.5 276.5c-6.3 2.3-12.7 4.7-19 7M576.5 275.5l-42 21M577.5 281.5c-9.3 5.7-18.7 11.3-28 17M579.5 289.5c-8 4.7-16 9.3-24 14"/>
    </g>
    <path id="stripes3" d="M713.5 268.5c-10.8 24-17.2 35.7-19 35-1.7-.6.3-11.3 6-32-8.4 19.7-13.1 29.4-14 29-.9-.3 1.4-9.3 7-27-2.7 4-5.3 8-8 12"/>
    <g>
      <path id="stripes4" d="M785.5 216.5c-.4 0-4.4 1.4-6 4-2 3.1-.2 6.6 0 7 1.3 2.4 3.9 4.2 7 4 4-.3 5.9-3.8 6-4 .1-.2 1.8-3.6 0-7-.9-1.7-5.3-3.6-6-4"/>
      <path id="iris" stroke-width="2" d="M788.5 223.5c-.5-.5-1.6-.5-2 0-.3.4 0 .9 0 1 .3.8 1.4 1.4 2 1 .4-.3.5-1.2.2-1.7-.1-.2-.2-.3-.2-.3z"/>
    </g>
    <g>
      <path id="stripes5" d="M369.5 202.5c-1.7-1.3-3.3-2.7-5-4M366.5 203.5c-4.7-2.3-9.3-4.7-14-7M362.5 205.5l-21-12M362.5 208.5c-12-4.3-24-8.7-36-13M357.5 209.5c-5.7-2-11.3-4-17-6M358.5 211.5c-2-.3-4-.7-6-1M356.5 213.5c-9.7-3.3-19.3-6.7-29-10M354.5 217.5c-4.3-1.3-8.7-2.7-13-4M353.5 221.5c-9-2.7-18-5.3-27-8M351.5 223.5c-2-.8-4.8-1.6-8-2-3.6-.5-6.7-.3-9 0M351.5 225.5c-2.7-.5-5.7-.9-9-1a60 60 0 00-6 0M353.5 229.5c-3.1 1.1-6.5 2.1-10 3-5 1.3-9.6 2.3-14 3M354.5 232.5c-2.8.4-5.8 1.1-9 2-5.9 1.7-10.9 3.9-15 6M354.5 240.5c-4.6 0-8.3.5-11 1-5.7 1.1-10.4 2.9-16 5-2.1.8-3.8 1.5-5 2M359.5 241.5c-10 2.6-20.8 5.8-32 10-5.2 1.9-10.2 3.9-15 6M353.5 247.5c-6 2.3-12 4.7-18 7M366.5 249.5c-6.1 2-11.3 3.7-15 5-11.4 3.9-14.9 5.2-17 6-5.1 2-9.3 3.8-12 5M372.5 252.5c-6.9 2.2-13.9 4.5-21 7-4.7 1.6-9.4 3.3-14 5"/>
    </g>
  </g>
</svg>
