<svg version="1.0" xmlns="http://www.w3.org/2000/svg" x="0px" y="0px" viewBox="0 0 1125 433">
  <g id="this_fish_1_">
    <g id="t" fill="none" stroke="#000" stroke-width="3" stroke-linecap="round" stroke-linejoin="round" stroke-miterlimit="10">
      <path d="M377 326l-1 29 2 22M359 351l32-8"/>
    </g>
    <g id="h_1_">
      <path id="h" fill="none" stroke="#000" stroke-width="3" stroke-linecap="round" stroke-linejoin="round" stroke-miterlimit="10" d="M402 323v56c4-9 7-20 11-26 1-3 4-11 8-12l4 1c7 5 5 32 4 36"/>
    </g>
    <g id="i" fill="none" stroke="#000" stroke-width="3" stroke-linecap="round" stroke-linejoin="round" stroke-miterlimit="10">
      <path d="M445 329l-4-5M444 339l3 38"/>
    </g>
    <g id="s_1_">
      <path id="s" fill="none" stroke="#000" stroke-width="3" stroke-linecap="round" stroke-linejoin="round" stroke-miterlimit="10" d="M477 339c-2 0-5 0-9 2s-9 8-8 11c1 2 3 2 11 5 11 4 13 6 13 7 1 3-2 7-4 9-6 6-15 2-16 2"/>
    </g>
    <g id="i2" fill="none" stroke="#000" stroke-width="3" stroke-linecap="round" stroke-linejoin="round" stroke-miterlimit="10">
      <path d="M515 327l3 2M519 340a109 109 0 001 37"/>
    </g>
    <g id="s2_1_">
      <path id="s2" fill="none" stroke="#000" stroke-width="3" stroke-linecap="round" stroke-linejoin="round" stroke-miterlimit="10" d="M551 340c-2 0-8-1-13 3-1 1-6 4-5 8 1 2 3 3 7 5l11 4c4 2 7 3 7 5 1 4-4 9-10 11-5 2-9 0-11-1"/>
    </g>
    <g id="a_1_">
      <path id="a" fill="none" stroke="#000" stroke-width="3" stroke-linecap="round" stroke-linejoin="round" stroke-miterlimit="10" d="M616 348c0-1 0-4-2-6-3-2-7 0-9 1-13 6-22 24-18 29 2 2 6 1 7 1 12-3 17-23 20-22l1 5 1 16h0"/>
    </g>
    <g id="f" fill="none" stroke="#000" stroke-width="3" stroke-linecap="round" stroke-linejoin="round" stroke-miterlimit="10">
      <path d="M659 383v-20c-1-11-2-16-1-25 1-6 2-12 7-15 3-1 7-3 10 0 2 2 2 4 2 5"/>
      <path d="M648 351l17-3 10-1"/>
    </g>
    <g id="s3_1_">
      <path id="s3" fill="none" stroke="#000" stroke-width="3" stroke-linecap="round" stroke-linejoin="round" stroke-miterlimit="10" d="M715 341h-8c-3 1-9 4-9 9 0 4 7 7 8 7l9 2c4 1 6 2 7 4 1 3 1 6-1 8-3 4-9 5-14 5h-5"/>
    </g>
    <g id="h2_1_">
      <path id="h2" fill="none" stroke="#000" stroke-width="3" stroke-linecap="round" stroke-linejoin="round" stroke-miterlimit="10" d="M731 323a232 232 0 014 55l5-12c4-12 6-16 9-20 2-3 6-8 9-7 2 1 3 4 4 9 1 7 2 16 0 29"/>
    </g>
    <g id="i3" fill="none" stroke="#000" stroke-width="3" stroke-linecap="round" stroke-linejoin="round" stroke-miterlimit="10">
      <path d="M682 324l2 4M684 340l3 37"/>
    </g>
  </g>
</svg>
