<svg xmlns="http://www.w3.org/2000/svg" viewBox="0 0 371.73 458.7">
<defs>
<style>.cls-1{fill:#3cc4f3;}</style></defs><g id="Layer_2" data-name="Layer 2">
<g id="Layer_1-2" data-name="Layer 1">
<path class="cls-1" d="M368.1,454c-1.28-.84-2.53-1.74-3.87-2.49a52.93,52.93,0,0,0-6.14-3.13,38.52,38.52,0,0,0-5.83-1.56,3.92,3.92,0,0,0-2.07.07c-4,1.47-7.88,3.06-11.83,4.55a7.89,7.89,0,0,1-6.57.07,25.3,25.3,0,0,1-8.83-6.64,6.14,6.14,0,0,0-3.39-2,16.8,16.8,0,0,1-2.48-.69c-1.73-.79-3.29-1.89-3.72-3.87-1.7-7.87-3.1-15.81-5.06-23.62a16.21,16.21,0,0,1,1.17-12.17,25,25,0,0,0,2-6c.36-1.59.14-3.31.49-4.9,1-4.35.29-8.65-.15-13-.35-3.51-1-7-1-10.51-.16-9,.45-18.1-1.79-27-.42-1.69-.4-3.48-2-4.73a67.41,67.41,0,0,1-10.69-10.06c-1.72-2-3.6-3.9-5.28-5.95-2.47-3-4.84-6-8.89-7-2.17-.55-4.22-1.63-6.39-2.11-3-.67-6.1-.85-9.09-1.51-3.44-.75-6.43.33-9.16,2.07a85.22,85.22,0,0,0-7.18,5.58c-1.33,1.06-2.6,2.06-4.52,1.43a15.22,15.22,0,0,0-3.7-.6c-4.07-.3-7.23-2.36-10-5.15a32.63,32.63,0,0,1-2.75-3.33c-.52-.71-1.31-1.53-1.28-2.28a6.39,6.39,0,0,1,1.37-4.43,15.81,15.81,0,0,0,1.91-2.9,2.66,2.66,0,0,0,.35-1.48c-.33-3.11-.69-6.21-1.11-9.31a9.56,9.56,0,0,0-1.29-4.21c-1.91-2.86-3.59-5.88-5.45-9,2.13-.55,3.61-2.37,6-2.32.86-1.26,2.43-2.27,2.16-4.29-.32-2.34-.63-4.69-.82-7.05-.31-3.82-1.36-7.27-4.43-9.83a7.93,7.93,0,0,1-.82-.82,3.17,3.17,0,0,1-.44-3.82c1.22-2.13,2.38-4.29,3.67-6.38a14.61,14.61,0,0,1,2.59-3.42c2.25-1.94,4.87-3.51,5.66-6.68.08-.31.4-.55.51-.86.49-1.3,1.27-2.6,1.31-3.91a3.77,3.77,0,0,0-4-3.62,30.32,30.32,0,0,1-3.93,0c-2.33-.3-4.63-.69-5.78-3.27-.78-1.74-1.88-3.35-2.78-5a1.8,1.8,0,0,1-.08-1.17c.77-2.88,1.5-5.77,2.4-8.6,1.63-5.15,3.21-10.32,7.57-14a2.85,2.85,0,0,0,.8-1.92,14.26,14.26,0,0,1,2.25-6.94,2,2,0,0,0,.4-1.3,22.31,22.31,0,0,0-2.12-5.42,81.64,81.64,0,0,0-5.75-7c-.85-1-1.19-4-.46-5.07a13.5,13.5,0,0,1,4.14-4.17c2.06-1.22,4-2.62,6-4a2.11,2.11,0,0,0,.8-1.07c.73-2.84,1.27-5.73,2.11-8.53a4.63,4.63,0,0,1,3.44-3.49c2.34-.54,4.45.38,6.63.91,4.87,1.2,9.59,3.34,14.79,2.7a2.49,2.49,0,0,0,1.59-.88c1.63-2.32,3.27-4.65,4.67-7.12a8.23,8.23,0,0,1,5.45-4.25,13.54,13.54,0,0,0,8.71-6.66,13.73,13.73,0,0,0,2.22-7.25c0-2.21.27-4.37,2.4-5.83a20.91,20.91,0,0,0,6.67-8.24c1.68-3.33,1.48-5.78-1.16-8.41a19,19,0,0,0-3-2.94c-2.86-1.79-3.2-4.38-2.9-7.37.13-1.32.41-2.33,1.84-2.72,1.61-.43,3-1.61,4.92-1a28.49,28.49,0,0,0,12.11,1.14A1.65,1.65,0,0,0,310.83,83a9.82,9.82,0,0,1,1.75-2.74c1.27-1.46,3-2.62,3.93-4.25a15.75,15.75,0,0,0,2-11.66,4.2,4.2,0,0,0-.56-1.74c-3.54-4.5-7.14-9-10.73-13.41-2-2.54-4.46-4.94-3.2-8.7a.9.9,0,0,0,0-.43c-.93-3.9-1.85-7.79-2.81-11.68a2.08,2.08,0,0,0-.71-1.05c-1.91-1.61-3.91-3.12-5.77-4.79-2.23-2-4.72-3.71-6-6.67-2.22-5-4.72-9.9-7.13-14.82-.22-.43-.71-.72-1.07-1.08-.26.45-.28.66-.22.82,2.14,5.42,3.64,11.12,7.7,15.63,2,2.24,3.55,4.91,5.56,7.15A46.51,46.51,0,0,0,298.68,28c1.42,1.16,2.76,2.35,2.85,4.38,0,.48.14,1,.18,1.43.24,2.76,1.36,5.42.76,8.29a3.78,3.78,0,0,0,.27,2.63c2.29,3.25,4.78,6.35,7.12,9.56,2,2.77,4.52,5.23,5.3,8.78a54,54,0,0,0,1.55,5.23,1.46,1.46,0,0,1-.41,1.76c-1.46,1.35-2.8,2.84-4.25,4.19a4.55,4.55,0,0,0-1.5,3c-.25,2.21-.67,4.38-2.62,6-.6-.24-1.26-.52-1.93-.75a12.52,12.52,0,0,0-3.39-1.09c-2.76-.1-5.53.15-8.29.12-4.15,0-6.09,4-5.52,7.43.48,2.95,2.24,5,4.14,7,.92,1,1.74,2.08,2.75,3a4.18,4.18,0,0,1,1.1,4,37.14,37.14,0,0,1-7.29,10.52,11.86,11.86,0,0,0-2.43,3.36,12.83,12.83,0,0,0-.67,3.95c-.26,2.91-1.18,5.47-3.63,7.24a44,44,0,0,1-6.53,4.44,16.2,16.2,0,0,0-8.81,9.31,6.74,6.74,0,0,1-.92,1.79,2.21,2.21,0,0,1-1.27.83,11.32,11.32,0,0,1-5.79-.92c-1.31-.58-2.7-1-4.06-1.46l0,0c-1.8-.53-3.48-2.27-5.54-.57-.14.12-.47,0-.71,0-1.63-.17-3.26-.37-4.9-.53-.32,0-.82-.09-1,.09a29.91,29.91,0,0,0-4,5.06c-.84,1.61-.86,3.62-1.31,5.44-.41,1.64-.58,3.3-2.29,4.41-2.87,1.87-5.58,4-8.31,6a3.61,3.61,0,0,0-1,1.48c-1.08,2.52,0,4.81,1.31,6.71a66.42,66.42,0,0,0,5.89,6.58,4.66,4.66,0,0,1,.53,5.8c-.88,1.24-1.75,2.6-1.5,4.06.57,3.35-1.74,5-3.66,6.93a4,4,0,0,0-.41.41,13.1,13.1,0,0,0-1.75,2.52c-1.67,4.2-3.23,8.43-4.81,12.66-.27.73-.53,1.26-1.49,1.21-.8,0-1.62.21-2.43.25-1.57.07-2.15.39-2.77,1.38l6.12-1.7a30,30,0,0,0,0,3.34,2.69,2.69,0,0,1-1.41,2.78,8.46,8.46,0,0,1-2.17,1.08c-3,.87-6.12,1.62-9.16,2.52a2.9,2.9,0,0,0-1.57,1.2c-3.14,5.25-6.19,10.55-9.31,15.81a10,10,0,0,1-2.17,2.95c-5.82,4.37-11.7,8.64-17.61,12.87a10.22,10.22,0,0,1-3.84,2c-2.55.48-5.19.43-7.78.74a5.39,5.39,0,0,0-2.65.94c-2.34,1.86-4.59,3.85-6.8,5.86-1.21,1.1-2.36,1.7-4.07,1.05a37.38,37.38,0,0,0-4.75-1.15c-2.21-.54-4.4-.92-6.64-.08-1.14.43-1.93.92-1.7,2.37a22.1,22.1,0,0,1,.25,4.06,3.7,3.7,0,0,1-3.87,3.78c-1.36,0-2.72,0-4.08,0a7.9,7.9,0,0,0-3.89.78,40.56,40.56,0,0,1-5.55,2,13.31,13.31,0,0,1-1.81.12c-3,.49-5.91,1.05-8.87,1.51-4.76.72-9.56,1.21-14.27,2.15-2.39.48-4.12.28-5.64-1.73a4.35,4.35,0,0,0-2.47-1.52c-3.42-.62-5.87,1.06-7.82,3.71-2.49,3.38-4.71,7-9,8.6a55.26,55.26,0,0,0-6.1,3.17c-.28-.67-.5-1.15-.69-1.63-1.06-2.65-2-5.25-1.36-8.25a7,7,0,0,0-.71-5c-2.16-3.92-4.07-8-6-12a4.77,4.77,0,0,1-.45-2.07c0-2.37.2-4.74.25-7.12a1.75,1.75,0,0,0-.54-1.31,36.11,36.11,0,0,1-9.07-8.71c-.85-1.25-1.95-2.52-2.22-3.91a51.25,51.25,0,0,1-.4-6.81c-.23-3.31-1.17-6.21-4.54-7.72a30,30,0,0,1-2.72-1.62,4.89,4.89,0,0,1-2.47-3.14,41.15,41.15,0,0,0-2-5.66,8.33,8.33,0,0,0-1.61-2.11,40.71,40.71,0,0,1-3.32-3.52c-3.41-4.78-5.17-10.38-7.49-15.7a21.26,21.26,0,0,1-2-5.23,71.12,71.12,0,0,1-.36-8.27,5.61,5.61,0,0,0-3.21-5.05,21.4,21.4,0,0,0-2.82-1.1,2.8,2.8,0,0,0-3.52,1.84A38.51,38.51,0,0,0,8,181.51c-.58,2.92-2,4.94-5.06,5.59a6.68,6.68,0,0,0-2.1.93A4.18,4.18,0,0,0,0,189.1l.32.3c1.89-.84,3.81-1.61,5.64-2.54a3.42,3.42,0,0,0,1.57-1.64c1.07-2.72,2-5.5,2.92-8.28.26-.81.66-1.39,1.5-1.09,1.74.61,3.43,1.36,5.13,2.1.14.06.21.4.23.62q.47,4.32.89,8.64a21.85,21.85,0,0,0,2,7.62c1,2.06,1.75,4.25,2.7,6.35,2.19,4.88,4.33,9.8,8.52,13.39a8.2,8.2,0,0,1,2.7,4.48,24.12,24.12,0,0,0,1,3.58,4.56,4.56,0,0,0,1.44,1.87c2,1.51,4.17,2.9,6.24,4.36a1.53,1.53,0,0,1,.67.83c.44,2.71.74,5.44,1.23,8.14.42,2.31.11,4.86,2.08,6.71.53.48.93,1.1,1.42,1.63,1.52,1.66,3,3.38,4.61,4.92,1.07,1,2.41,1.72,3.59,2.63a1.75,1.75,0,0,1,.71,1.12c0,1-.27,2.09-.4,3.14-.33,2.5-.51,4.86,1,7.23a29.25,29.25,0,0,1,4.52,14.6,19.39,19.39,0,0,0,.9,5.24c.73,2.18,1.87,4.21,2.75,6.35.33.8.83.85,1.49.63a29,29,0,0,0,9.53-5,40.07,40.07,0,0,0,4.15-3.51c1.86-2,3.46-4.25,5.24-6.35.91-1.07,4.06-1.08,4.88-.12a29.83,29.83,0,0,0,2.34,2.56,2.23,2.23,0,0,0,1.5.57c1.53-.15,3-.48,4.56-.71,4.76-.73,9.52-1.41,14.26-2.18q5.76-.93,11.49-2c4.2-.79,8.16-3,12.67-2.11.33.07,1-.59,1.22-1.06,1.13-2.65,2.2-5.33,3.22-8,.43-1.15.93-1.55,2.26-1.16,2.74.82,5.56,1.42,8.36,2.07a2.41,2.41,0,0,0,1.55,0c2.3-1.39,5-2.5,6.69-4.42,2.76-3,5.65-4.81,9.8-3.95h.15c3.56-.75,7.45-.65,10.06-3.89a3.49,3.49,0,0,1,1.19-.79c2.8-1.44,5.63-2.81,8.4-4.31a7.14,7.14,0,0,0,2.84-2.1c3.51-5.86,7.05-11.71,10.17-17.77,1.77-3.44,3.89-6.08,7.74-7a1.19,1.19,0,0,0,.25-.13l8.92-3.87c.84-.36,1.42-.37,1.95.63.79,1.48,1.88,2.79,2.71,4.25a5.48,5.48,0,0,0,2.54,2.14c2.05,1,4.14.77,6.25.68,2.93-.13,4.3,1.47,3.48,4.26a7.87,7.87,0,0,1-1.33,3.08c-1.54,1.66-3.56,2.89-5,4.61-2.73,3.29-5.07,6.91-7.81,10.19-1.2,1.43-.46,2.47,0,3.64.24.63.94,1.07,1.23,1.69,1.76,3.79,4.85,6.93,5.18,11.43.2,2.83.56,5.5-1.14,8.08-.74,1.12-1.33,1.87-2.8,2-3,.31-3.94,2.24-2.6,4.84.18.35.42.66.57,1,1.76,4.11,4.88,7.66,5.07,12.43,0,.86.25,1.71.33,2.57.26,2.8.94,5.61-.67,8.3a24.31,24.31,0,0,0-1.82,4.22,2.07,2.07,0,0,0,.06,1.57c1.13,1.95,2.36,3.85,3.57,5.75.36.56.65,1.29,1.18,1.6,3.66,2.11,7.37,4.14,11.09,6.16A1.84,1.84,0,0,0,244,322a23.71,23.71,0,0,0,11.21-6.19,14.89,14.89,0,0,1,8.22-4.71,4.17,4.17,0,0,1,1.22-.06c2.1.3,4.19.63,6.28,1,3.57.55,7.13,1.08,10.28,3.1a25.31,25.31,0,0,0,4.51,2.25,11.41,11.41,0,0,1,4.51,3.68c4.8,5.61,8.78,12,14.79,16.47,2,1.51,1.42,3.57,2,5.65l-2.9-1.49c.52,2.33,1,4.42,1.45,6.56l2.37-.26a42,42,0,0,1,.2,4.74c-.09,1.57-.52,3.12-.76,4.69-.37,2.4-.87,4.79-.09,7.24a18.53,18.53,0,0,1,.37,9.83,23.47,23.47,0,0,0-.57,6.62c.27,3.57.67,7.06,0,10.66-1,5-1.62,10.16-2.31,15.26a13.56,13.56,0,0,0-.15,4.7c.65,2.88,1.7,5.68,2.6,8.51,1.67,5.21,3.44,10.39,3.61,15.95a4.57,4.57,0,0,0,.45,2.34c1.71,2.47,3.16,5.25,6.7,5.69a6.36,6.36,0,0,1,4.37,2.55,9.17,9.17,0,0,0,2.33,2.28c2.36,1.47,4.82,2.79,7.27,4.12a1.69,1.69,0,0,0,1.07.1c3.63-.7,7.24-1.49,10.88-2.12,1.57-.27,3.34-.68,4.75-.21a18.71,18.71,0,0,0,6.65,1.05c1.5-.06,3,0,4.5,0a1,1,0,0,1,.63.23c3.25,3,7.4,4.48,11.24,6.49v-2.92Z"/>
</g>
</g>
</svg>