<svg xmlns="http://www.w3.org/2000/svg" viewBox="0 0 27.7 49.62"><defs>
<style>.cls-1{fill:#39c0e0;}</style></defs>
<g id="Layer_2" data-name="Layer 2"><g id="Layer_1-2" data-name="Layer 1">
<path class="cls-1" d="M27.7,49.61H15.2a.22.22,0,0,1-.26-.2,3.7,3.7,0,0,1,0-1.78,5.87,5.87,0,0,0,.21-1.23,2.35,2.35,0,0,0-.63-1.93c-.24-.23-.56-.39-.83-.6a1.86,1.86,0,0,1-.81-1.65c0-.7.06-1.39.06-2.08A1.82,1.82,0,0,0,12.62,39a1.59,1.59,0,0,0-.64-.42c-.22-.11-.44-.21-.67-.3A1.42,1.42,0,0,1,10.46,37c0-.45,0-.9-.08-1.35a3.74,3.74,0,0,0-.5-1.87,2.46,2.46,0,0,0-.7-.63,7.4,7.4,0,0,0-.86-.5,1.47,1.47,0,0,1-.79-1.14c-.08-.4-.12-.81-.22-1.21A2.23,2.23,0,0,0,7,29.59a.82.82,0,0,0-.76-.31c-.72,0-1.45,0-2.18,0A5.17,5.17,0,0,1,1.65,29,2,2,0,0,1,.44,27.31a3.82,3.82,0,0,1,1-3.13,3.81,3.81,0,0,1,2-1.2,14.86,14.86,0,0,1,2-.31c1.06-.08,2.14-.09,3.2-.16.91-.06,1.82-.14,2.71-.28a3.87,3.87,0,0,0,1.85-.64.47.47,0,0,0,0-.84,2.1,2.1,0,0,0-.61-.21,11.31,11.31,0,0,0-2.47-.1c-.82,0-1.64.16-2.47.23-.61,0-1.23.08-1.85.11s-1.27.06-1.91.06a5,5,0,0,1-2.08-.41,2.88,2.88,0,0,1-1.64-2,4.9,4.9,0,0,1,.23-3.27A3.93,3.93,0,0,1,3.3,12.71a7.38,7.38,0,0,1,1.24-.16c.66,0,1.33-.08,2-.07s1.56.06,2.35.09h1l1.63,0h2.56c.3,0,.59,0,.89-.07a.73.73,0,0,0,.64-.66,1.2,1.2,0,0,0-.57-1.18,3.51,3.51,0,0,0-1.67-.45l-2.67-.1c-.41,0-.81,0-1.21,0a17,17,0,0,1-3.11-.25A4.57,4.57,0,0,1,4.1,8.71a2.46,2.46,0,0,1-.71-1.58A2.42,2.42,0,0,1,3.51,6,2,2,0,0,1,5,4.69c.63-.16,1.26-.27,1.9-.39a7.64,7.64,0,0,0,2.51-.82,2.37,2.37,0,0,0,.84-.66,1.41,1.41,0,0,0,.24-.6c.07-.52.09-1,.12-1.56,0-.13,0-.27,0-.4s0-.21.13-.23a2.42,2.42,0,0,1,.47,0s.06.11.07.17a12.2,12.2,0,0,1,.14,2.26A3,3,0,0,1,11,3.91a2,2,0,0,1-.84.73c-.27.12-.55.21-.83.31a1.75,1.75,0,0,0-1,2.41,1.55,1.55,0,0,0,1.1.82,5.09,5.09,0,0,0,1.35.15c.88,0,1.76-.08,2.65-.09.59,0,1.18,0,1.77.07s1,.07,1.47.13a9.29,9.29,0,0,1,3.24,1,4.51,4.51,0,0,1,1.34,1.16,6.24,6.24,0,0,1,.68,1,2.5,2.5,0,0,1,.23.85,3.1,3.1,0,0,1-.09,1.13,2.3,2.3,0,0,1-1.29,1.56,6.52,6.52,0,0,1-2.2.54c-.95.1-1.91.21-2.87.22s-1.69-.12-2.54-.19l-1.71-.18-2.42-.3L7.15,15a8.75,8.75,0,0,0-.88-.09,4,4,0,0,0-1.92.26,1.65,1.65,0,0,0-.95,1.58,1.7,1.7,0,0,0,.93,1.52,3.63,3.63,0,0,0,1.57.41c.53,0,1.06,0,1.59,0,.68,0,1.35-.1,2-.16l1.69-.14,1.62-.16c.34,0,.68-.07,1-.08.61,0,1.23-.05,1.84,0a5.53,5.53,0,0,1,2,.4,1.86,1.86,0,0,1,1.21,1.63A3,3,0,0,1,18,22.67,5.46,5.46,0,0,1,15.73,24a14.41,14.41,0,0,1-1.46.43,17.41,17.41,0,0,1-1.92.28c-1.07.1-2.15.15-3.23.22a20.55,20.55,0,0,0-2.82.38,2.33,2.33,0,0,0-1.06.48A1.21,1.21,0,0,0,4.9,27a.57.57,0,0,0,.42.39,5,5,0,0,0,.93.16c.68,0,1.36,0,2,.06a3.31,3.31,0,0,1,1,.21,1.56,1.56,0,0,1,.74.89c.15.32.28.64.43,1a1.23,1.23,0,0,0,.92.75,2.79,2.79,0,0,1,2,1.43,3.21,3.21,0,0,1,.39,1.32c0,.36.1.72.17,1.08a.57.57,0,0,0,.42.44,3.81,3.81,0,0,1,1.13.63,4.75,4.75,0,0,1,1.07,1.33,4.64,4.64,0,0,1,.41,2,3.89,3.89,0,0,0,.24,1.22A2,2,0,0,0,18.41,41a6.21,6.21,0,0,0,.74.2A3.52,3.52,0,0,1,21.5,43,7.54,7.54,0,0,1,22,44.27c.13.37.24.74.36,1.12a1.74,1.74,0,0,0,1.37,1.19,9.06,9.06,0,0,0,1.64.19,5.37,5.37,0,0,1,1.13.21,2.09,2.09,0,0,1,1.16,1,.24.24,0,0,1,.05.14Z"/>
</g></g></svg>