<svg xmlns="http://www.w3.org/2000/svg" viewBox="0 0 483.84 410.17">
<g id="Layer_2" data-name="Layer 2">
<g id="Layer_1-2" data-name="Layer 1">
<path d="M421.88,89.69c-4.7,6.37-9.91,12.67-16.87,18.18-11.09,9.08-25,16-29.76,29.7.46-1.58.9-3.18,1.33-4.78C386.22,116.84,408.1,105.09,421.88,89.69Zm-53.45.38c-1.71,1.28-3.46,2.48-5.27,3.59A20.72,20.72,0,0,0,368.43,90.07ZM283.92,405.54c-.11-1.24-.22-2.41-.34-3.5A12.11,12.11,0,0,0,283.92,405.54ZM253,342.1l.75-.22-1.84-.09Zm31.82,68.07h1.3q-.17-.27-.36-.54a11.74,11.74,0,0,1-1.86-4.09c.09,1.11.17,2.27.25,3.5C284.43,409.44,284.65,409.81,284.84,410.17Zm85.46-26.24c12.17,3.72,25.26-2.49,36.37,4.43-2.06,3.74-2.11,3.82-5.93,3.05-5.92-1.53-3.85,5.21-12.66,5.39a4.07,4.07,0,0,0-3.72,4,113.79,113.79,0,0,1-6.74,9.35h2.74c4.64-5.78,4.5-12.68,13.24-13.48,2.89-1.07,3.83-5.67,7.44-4,6.41,2.51,5.42-6.68,9.28-2,5.61,6.41,11,13,16.51,19.52h1.29c-9.75-11.31-16.54-25.29-32.56-26.67a71.2,71.2,0,0,1-24.19-.61c-10.85-2.49-22.55,9.94-33,13.66a19.63,19.63,0,0,1,3.65-.36C353.13,394.92,358.39,380.49,370.3,383.93Zm-34.44,13.35a19.84,19.84,0,0,0,2.53-.73A14.38,14.38,0,0,0,335.86,397.28Zm-228.2-7.91c-.46.53-.91,1-1.37,1.54C106.79,390.4,107.25,389.88,107.66,389.37Zm363.12-271a1.89,1.89,0,0,0-1.28.81c8,1.87,5.81-5.06,10.11-.53a6.16,6.16,0,0,0,4.23,2.86V120a17.2,17.2,0,0,1-2.18-1C475.09,112,477.42,118.58,470.78,118.33ZM85.65,410.17c3-4,11.11-8.67,20.64-19.26-5.72,6-16.6,12.11-23.46,19.26Zm343.81-331c-2.51,3.46-5,7-7.58,10.54A55.45,55.45,0,0,0,429.46,79.15ZM216.13,11.91C221.22,8.69,226,4.35,230.92,0h-2.66a93.54,93.54,0,0,1-13.74,10.73C207.75,29.64,210.38,32.18,216.13,11.91ZM474.55,41.26c-1.36,1.22-2.66,2.43-3.83,3.61C472.05,43.71,473.34,42.51,474.55,41.26ZM454.26,56.2c-1.33.65-2.61,1.33-3.83,2.06C451.71,57.6,453,56.91,454.26,56.2Zm9.45-3.59c12.14,10-1,16.66,10.68,25.48,3.31,4.3,6.42,8.58,9.45,13V88.9c-2.76-4-5.63-7.86-8.72-11.71-7.59-5-3.59-11.92-5.07-19.36,6.31-.92,10.36,1.81,13.79,4.45V60.92c-4.16-2.45-8.42-5-13.88-4.57-6.34-2.4-3.94-6.71.76-11.48A97.76,97.76,0,0,1,454.26,56.2,56,56,0,0,1,463.71,52.61ZM483.84,32.5V27.63a43.76,43.76,0,0,1-9.29,13.63A120.65,120.65,0,0,0,483.84,32.5ZM173.62,279a34.1,34.1,0,0,0,.26,4.74A25.22,25.22,0,0,0,173.62,279Zm-129-5.64c1.89-.86,3.76-1.85,5.64-2.89C48.26,271.32,46.37,272.28,44.59,273.31ZM363.16,93.66c-1.64,1-3.32,1.94-5.06,2.79-11.21-6.66-21.47.17-33.91,2.16,9.76,7.15,8.5,8.85,7.33,19.85,0,15.93-32.95,17.5-14.78,36,19.86,18.53-8.4,40.69-12.4,60.93,2.89,1.42,3.62-1.75,5.78-2.28,3.61,0,6.35.35,10.2.21-4-5,.66-7.06,4.65-9.82,11.68-6.18,6.39-17,18.56-22.13,18.29-8,25.72-23.75,31-41.18a32.3,32.3,0,0,0-.75,4.47c-8.86,22.73-6,26-3.3,48.69-.44,31.09,49.09-4.57,63.22-10.77a332.83,332.83,0,0,1,50.18-31.28v1.91c-25.92,14.33-50.2,31.93-76.49,45.8-9.44,5.91-20.48,7.24-31.34,8.56-8.63,15.42-18.94,23.58-1.51,39.68,19.91-4,36.55,1.44,54.36,11.19,15.94-3.93,29.3-23.64,42.34-34.74,3.22-4.7,7.72-7.63,12.64-9.83v1.45A31.38,31.38,0,0,0,472.38,224c-11.74,13.15-25.79,24-38.82,35.83,14.22,5.85,25.69-2.33,39.94-.84,10-.05,7.47,7.42,10.34,9v1.73c-1.58-.81-2.69-1.73-2.93-3-.15-7-8.21-5.07-13.12-6.13,3.94,8.14,9.17,12.28,16,14.35v3.7c-6.48-1.27-12.2-3.76-15.18-11.52-6.09-10.14-16.73,4.14-29.6-2.15-17.09-.21-29.5-20-53.75-14.63-19.7-1.68-21.4,41.18-44.66,24.31-7.81-6.45-5.33-19.32-11.57-27.42-7.56,9.45-26.47,24-19.94,35.75,7.49,7,9.11,18.57,9.13,28.28-3.62,10.84-13.62,4.86-11.16,11.17,4.06,13.33,12.54,31.39,6.69,44.3-3.7,6.06,5.36,14.58,7,20.86,4.36,8.88,9.47,10.85,15,9.69-5.22,2.05-7.72,6.86-8.29,12.89h-1.2c.46-4.56,1.08-8.88,1.09-12.49-8.36-4.78-10.49-15.51-15.34-23.28-16-13.17-17.76-2.65-30.39,7.41-4.54,6.17,5.16,11.55,2.21,17.8a11.79,11.79,0,0,0-.36,2.43c-3.7-32.89-16.83-3-42.06.21,2.22,3.55,10.92,4.14,14.43,7.92h-3.56c-14.06-9.14-30.12-11.78-39.59,0h-.87a14.21,14.21,0,0,0,2.4-5.33c3-6,12.19-3.65,17.83-5,23.84,5.2,46.68-18.33,64-32.59,4.94-4.36,5.93,3.15,14,3.39,8.81-14.5-.07-32.65-4.72-47.59-1.43-12,18.37-.53,8.8-26.35-8.77,8.19-10.85,6.37-21.38,9.85-16.18,6.65-19.69,25.87-34.73,35.47-1.53,0-3-.09-4.37-.15,8.81-2.76,19.94-14.53,22.55-23.31.35-3.44.87-6.85-.94-10-3.23-4.18,2.6-6.19-.47-8.87C256,270.09,304.12,283.52,299,258.43c.51-4.92-6.7-1.84-4-6.74-17.69-1.15-17.67,11.15-26.52,21.45-11.58,8.12-22.92,16.91-32.82,26.67-4.36,6.49,2.49,12.18-.6,17.92-14.13,26.17-4.58,18.11,16.91,24.06-50-2.62-15.34-20.29-75,10.69-7.11,5.51-5.3,9.6-9.11,16.58-1-5.17,3.47-13.28,8.1-17.38-20.53-3.25-4,34.7-9.1,45.72-4.64,9.59,15.3,9,23.64,12.77h-7.17c-5.3-2.12-11.5-4.32-18.84-7.31a88,88,0,0,0-7.81,7.31h-.57c2.82-3.1,5.57-6.24,8.24-9.39,2.23-15.75.67-34.38-.36-49.64-18.14,1.5-42.75,7.38-46.91,27.71-1,9.92-3.88,20.72-5.34,31.32h-1c2.8-24.13,6.76-39.41-29.3-8-5.19,3.8-5.14,5-.83,8H75.22a31.75,31.75,0,0,0-4.45-3.88c1.1,1.21,2.18,2.52,3.26,3.88H72.19c-4.81-5.34-10.15-9.71-17-10.73-31.26-8.25-33.59-.78-35.41,10.73H17.5c1.46-5.79,5.54-10.6,9.06-15.68-8.25-3.25-12.45,7.38-11.69,15.68H12.7c-.33-8.55,6.15-10.23-6-17.95-2.51-.84-4.73-1.49-6.69-2v-2.82c1.64.14,3.3.27,4.94.48-2.4-6.61-3.29-14.11-4.94-21.11v-5.54a21.56,21.56,0,0,0,1.22,2.25L18.6,355c-2.26-4.36-1.71-7.95-7.57-5.15-4.7,1.58-9.11,2.54-11,4.81V352c10.05-2.88,18.58-4.67,11-16.1-3.68,1-7.34,2.18-11,3.49v-2.06a41.35,41.35,0,0,1,10-3.4C8,327.46,4.41,325.36,0,325.36v-8.57l.23.26c2.66,1.38,5.19-2.23,7.48-3.25,15.73-9.23,11.94-1.6,2.92-27.16-2.89-4.22-7-7.52-10.63-11.23v-6.18c2.22,1.3,5.08,1.51,9,.26A55,55,0,0,0,3,273.25c10.48,14.95,17.47,14.13,32.29,5.35-8-9.45-13.51-13.56-21.52-11.17a75.41,75.41,0,0,0,9.29-5.84c1.1-15.46-3.74-14.6-11.25-26.55-8-9.57-6.92-12.86-11.82-11.1v-2.4c28.14-10.18,63-5.69,86.32-20-4.67-17.92,8.82-38-13.3-47.62a70.78,70.78,0,0,1-29.94-3.76c9.94,2.52,20.52-1.7,30.69,2.1,12.53,4.82,23.14,31.65,36.75,19.28-7.85-13.85-1.6-28.37-14.12-40.66a50.78,50.78,0,0,0-2.38-5.8c2.48,4.24,5,8.44,8.44,11.71,8.06,8.78.32,23.59,9,32.3-8.4-44.94,30.36-61,20.39-67.69-9.06-3.88-21,2.95-31.6.55-5.94-.72-14.77,7.11-13.18,12.78.77.88,1.5,1.8,2.19,2.75-14.7-18.21-40.87-13.58-64.52-15.54C3.82,94.89,3.58,98.21,0,97.08v-.86c4.56.7,9.66-2,16.56,1.22,13.9,8.32,30.82,3,45.78,4.4,14.44-.09,23.68,14.25,27.47,3.81,5.29-7.71,16.64-4.2,24.59-4.72,9.85.2,12.49-7.18,21.33,2.29,7.15-24.93,11.74-16.92,26.49-32.83,9.59-8.54,12.79-22.56,24.46-28.82,19-10.92,18.24-6.39-.09,2.09-10.33,6.4-13.76,19.06-22.3,27.35,16.06,5.7,25,20.23,23.7,37.23,8.17,13.75,12.49,27.69,11.08,44,2.83-4.34-.81-6.39,6-7.81,10.41-2.92,21-5.32,31.33-8.46-10.79-23.12-18.92-47.43-31-70-4.09-10.19,6.13-14.59,1-31.8C204.51,23.21,198.86,9,207.59,0h4.8c-3,8.59-11.14,4.67-1.19,42-7.1,29,14.37,54.19,24,81.55-10-30.75-19.57-63.64-25.13-94.22,9.5,28.59,12.55,58.88,24.66,86.63,7.82-10.16,4.59-29.54,11-39.16,14.32-10.27,17.39-10.17,24.23-27.2,10.25-4.67,13.14-14.36,17.09-25,1.47-5.91,7.87-1.58,8.16-7.53.81-5.67.18-12.07,4.6-16.42.09-.21.15-.39.24-.59h2.31c-1.19,2.13-3.53,3.83-3.95,6.33-2.27,5,1.38,15.33-5.73,16-10.29,6.19-7.23,25-21.14,28.24-11,13.9-.26,29.84-6.69,45.3-3.13,16.24,10.95,28.05,11.11,43.78,6.4-1.65,7.84-9.35,13.45-11.46,4.6-1.49,9.93-3.93,12.6-8.1,3.15-10.3,16.76-11.43,19.61-22.61,1.36-4.66-5.76-2.24-3.25-7.41,2.19-4.09-4.46-4.84-2.25-8.91,1.31-5.69-6.85-4-5.47-10.18,1.13-9.05-3.58-17.17-5.34-25.86,9.09-14.63-.07-29.34-1-45.07h1.5c0,3-.35,6.31.08,7.58,3.4,18.42,9.48,18.62.58,37.17,4.64,9.86,2.52,24.13,8.91,31.38,2.74.92,2,3.85,2,6.12.39,4.62,4.39,2.06,1.67,10.2,6.31,6.08,12.49,2.46,20.49,1-1.22-10.06,7.42-16.55,12.3-24.22,2.57-17.88,13-33.62,13.63-51.74-1-6.11,8.73-6.73,9.72-12,.48-1.81,1-3.66,1.49-5.53h1.58a78.66,78.66,0,0,1-5.41,11.25c-10.73,6.38-2.84,22-12.06,31.59-7.16,12.32-.72,22.75-12.76,34.53-2.55,4.11-8.27,9.7-6,14.79,3.9,1.45,5.87-3.79,11.75,1.45A10.79,10.79,0,0,0,363.16,93.66ZM242.91,96.37c.23,13-9.84,17.56-4.94,29.49,6.44,13.92,13.57,7.82,19.25,12.75,9.38,9.14,5.08,12.29,16.16,3.42,5.23-13.72-10.88-25.19-9.71-39.44-.39-12.52,5.47-24.12.35-36.85C251.67,73.67,241.76,80.05,242.91,96.37ZM263.28,167c-2.3-4.22-1.88-8.7-2.74-13.26-8.85-.26-11.35,4.9-11.14,11.94a29.42,29.42,0,0,0-2.72-8.71c-2.31.41-5,.44-5.72,3.51-25.22,42.43-25.24,16.77,6.55,56.23,9.54-2.23,8.23-14.1,7.25-21.86-3.29-6.48-3.74-14.49-4.46-22.06,1.69,8.47,5.2,17.81,6.05,23.6,2.15,4.07-4.23,14.85,1.8,14.95,3.51-1.17,5.29,3.39,8.28,3.8,8-.05,19.09,1.92,7.62-7.92-22.93,6.46-5.81-20-14.65-30.84C254.77,171.09,266.06,171.45,263.28,167Zm16.53,60.48c-1.31-6.59-11.78-1-17-1.55-4.9-.28-6.25,7.61-.72,6.59C267.74,230,274.57,230.43,279.81,227.52Zm-17.38,13.24c2.15-1.34,6.61-6.58,6.64-9.09C262.32,235,260.22,232.3,262.43,240.76ZM132.22,304.44c-.2,3.25-1.68,4.75,2.59,5.62C134.68,307.53,135.75,303,132.22,304.44Zm.77,9.27,1.7-1.16C133.07,310.9,130.15,312.25,133,313.71Zm2.79-13.53c11.11-35.19,51.16-83-11.52-39.68C134.62,266,125.32,306.65,135.78,300.18Zm-7.65,20.38c2.38-1.27,2.83-7.49.72-8.86C127.32,314.28,128.46,317.18,128.13,320.56ZM123.9,315c-13.66,1.09-27.84-2.22-41.11-1-6.11,3.49-12.27,6.72-19.19,8.48-8.72,2.3-3.88,10.83-12.6,13.6-1.92,1.32-7.61,3.12-4.93,6.05,3.38,6.08-6.17,17.69,7.13,13.85,22.68-1.84,44.72-4.09,59.91-20.38a55.27,55.27,0,0,1-4.23,6.08c4.92-1.31,10.81-7.71,11.25-12.53a7.34,7.34,0,0,0-3,1.53c.53-.72,1-1.47,1.56-2.24,3.9-.89,1.17-5.21,1.37-8.27,2.49.92,1.88,2.71,2.16,3.95-.08,2.2,4.3,5.12,4.52,1.85C124.65,322.24,129.62,314.5,123.9,315ZM34.66,337.55c8.92-2.33,4.5-3.67,2.72-11.76C28.09,328.36,32.5,329.73,34.66,337.55ZM21.46,355.2c5.18,1.49,3.91,6,4.86,9.74C36.89,354.64,33.78,338.13,21.46,355.2Zm14.31-2c1.85-2.16,1.61-4.69-1.11-5C34,349.71,35.42,351.28,35.77,353.24Zm1.53-7.81c2.81.71,5.44-3.72,4.64-6.67C37.92,340.24,34.39,340.35,37.3,345.43Zm5.79,10.69c.9-4.77,3-9.14,1.32-13.65C34.16,351.37,39.71,345.69,43.09,356.12Zm.9-32.49c-6.52.39-.87,6.79-.59,10.35C48.54,334.3,44.21,326.61,44,323.63Zm2.2-1.11C44,324.07,47.78,332,48,334.66c7.6-.45,6.07-4.89,9.33-9.45,4-2.58,6.51-8.06,2.94-12.1C53.61,311.21,52,320.69,46.19,322.52Zm4.14-5.59c7.43-11.77,10.28.36,11.6-12.56C53.82,303.43,47.92,311,50.33,316.93Zm-2.66-1.8-2.29,5.58C49.05,319.51,49.59,318.38,47.67,315.13Zm38-3.82c7.75.51,16.75,3.05,24.16.84-16-5.35-30.41-1.88-47.74.52C62.33,328.56,77.86,311.93,85.67,311.31Zm25.66.63c1.67,2,4.46.86,7.08,1.38A5.11,5.11,0,0,0,111.33,311.94Zm3.9-2.31c.2-1.32-2.39-.93-3.36-1.48C111.07,310,114.06,309.19,115.23,309.63Zm11.3,3.35c-.35-2.28-2.83-1.37-4.49-1.78C121.07,313.8,124.93,313.21,126.53,313ZM111,297.86c.46,1.95-.5,5.7,2,6.46,6,0,6.71,7.25,12.92,5C131.4,301.15,116.06,301.75,111,297.86ZM128,302c3.3-1.56,1.12-45.68-7.89-39-11.59,8.62-32.09,12.41-14.38,26.07-3.39,2.82-9.15-12.3-12.5-9.6-15.36,5.12-27.62,14.44-30.22,31,12.3.81,26.34-8.48,36.31-1.37-7.06-6.32-3.17-17.62-8.67-25.15-1.64-2.53,1.39-3.47,2.88-2,6.12,6.64,1.86,20.95,10,24.52,13.8-.47.1-15.52,3.26-16.1C111.87,297.14,119.21,302.13,128,302ZM92.57,276.09c-9.73-17.44-15.81-11.53-16.33,7Zm122.94-41.77c-16.42-1.35-32.16,2.9-48.16,5.82-14.34,14.55-19.13,39.91-29.54,58.32,5.53-6.22,15.83-11.42,24.08-16.46,13.07-17.24,26.78-31.4,50.61-28.52C211.5,243.72,219.56,234,215.51,234.32Zm41.33-3.08c-9.81,8.5-25.75-.37-36.44,4.47C201.8,275.82,253.19,239.52,256.84,231.24Zm8.77-14.59c-8.17-8-9.3-2.07-17.8,1.28C254.93,228.61,254.47,224.12,265.61,216.65ZM219.72,190c2.42,34-11.86,45.26,30.47,41.23C260.86,226.61,225.48,196.74,219.72,190Zm1.85-28.81c-38.91-8.18-19.28,6.64-3.89,23.29C230.15,173.44,249.23,154.71,221.57,161.21Zm-27.92,8.6C183.56,191.9,174,213.88,166.1,236.92,216,225,218,245.82,216.56,188.05c.16-3.43-3.88-5.7-5.73-8.29C206.81,176.78,198,160.88,193.65,169.81ZM163,165.22C171,176.5,173,188.9,177.32,202,189.58,170.18,204,167.87,163,165.22Zm-.5,1.56c-2.69-4.81-11.74,7.31-22.24,3.12-8.23-1.62-16.17,3.55-24.33,4.09-11.17,25.46,3.77,56.36,6.42,83.4,35.72-26.63,40.45-6.14,53.6-51.63A89.52,89.52,0,0,0,162.46,166.78ZM128.72,303.16v6.65A5.88,5.88,0,0,0,128.72,303.16Zm7.48,9.37c4.59,2.56,10.39,2,8.59-4.66C141.94,309.29,136.53,308.9,136.2,312.53Zm23.13-26.63c-7.81,4.69-25.42,11.63-21.43,22.2C149.18,305.84,156.3,297,159.33,285.9Zm-9.51,18.82c14.21,2.33,23.59-8.64,24.06-21A42.16,42.16,0,0,0,175,289.3c11.13-1.76,18.7-10.67,30-11.77,3.77-.71,12.12-.73,12.39-5.56-3-4.69-1.75-15.32-7.52-16.62-19.15-.35-35.8,5.92-36.21,23.6a25.91,25.91,0,0,0-1.4-5.44C161.73,282.57,159.43,295.31,149.82,304.72Zm71.35-33.29c6.51-7.72,49.76-26.56,36.46-35.65-14.21,4.92-22.13,22.73-39.74,20.1C213.89,258.15,219.23,267.41,221.17,271.43ZM279,220.71c-2.31-4.66-15.26,1.59-18.65,3.79C266.35,222.5,275,225.09,279,220.71Zm-36.95-85.79c1.25,5.82,4.69,13.39,1.18,21.16C275.19,150.71,262.85,142.84,242.07,134.92Zm-43.62,20.55c4.88,4.66,18.26,2.76,25.87,5,2.86-1.14,13.21-1.82,14.54-4.31,2.23-5.41,4.18-15.19-2-18.15-10,5.1-32,2.09-34.83,13.85C202.38,154.77,199.31,153.41,198.45,155.47Zm-85.23,17.19c9.29-.47,17.11-5.38,25.83-4.75,11.85,2.87,25.85-2.49,19.25-16.49a85.59,85.59,0,0,1-10.72-16.13c3.07,6,9.22,9.88,11.86,15.9,1.31,2.6.63,12.88,4.25,12.1,31.86,3.72,33.71,11.38,34.49-26.47-2.22-18.41-13.9-23.12-12.26-41.1-2.94-10.29-13.5-25.34-24.63-21.78-7,7.93-18.85,10.12-21.11,22.13-.17,3.32-4.79,7.6-1.33,10.26,5.3,4.33,5.34,22,8.71,28.92a66.38,66.38,0,0,1-6.78-23.67,8,8,0,0,0-3.89-5.24C115,122.14,111.51,147.3,113.22,172.66ZM88.29,207.48C95.87,225,88,241.85,84.53,259.2c6.1,25.3,18.78,9.34,33.86.88,3.67-25.72-14.76-55.26-6.26-82.84C104.36,192.24,103.21,199.74,88.29,207.48Zm21.54-32.13c-11.87,1.45-14.62,1.94-21.07-8.82C78.87,205.41,96.28,217.84,109.83,175.35ZM40.75,214.93c10.51,8.5,24.14,22.18,34.79,28.57,4.19.55-1.41,7.24-.76,9.84,8.57,7.6,9.12,6.39,9.72-4.48,6.64-22.83,7.89-18.9,1.57-42.52C71.11,209.18,56.59,214.15,40.75,214.93Zm-5.66,85.68c12-7.66,37-7.9,38.32-24.41,1.33-6.12,2.08-12.43,7.24-16.87-4.12-5-7.93-3.61-6.74-8,.21-2.57,1.24-4.33,2.4-6.76-8.45-.28-11.92-9.81-18.22-14.3-15-14.79-34.51-20.27-52.7-6.45C10.52,232.75,18,241.4,23.87,248c-1.55,14,1.5,19.36,12.79,28a35.06,35.06,0,0,0,7.93-2.7C34.44,279.22,28.26,287.55,35.09,300.61Zm-2.26-4.14c-15,1.93-15.14,14.28-.32,5.41C34.23,300.56,33.06,298.55,32.83,296.47Zm-1.56-.75c2.86-.91-1.77-10.24-2.14-13.3L15,288.25C20.63,301.88,17.31,300.69,31.27,295.72Zm-26.53,24c5.54,3.69,3.37,10.14,11.52,10.15,16.77,2.77,4.89-10.53,7-17.43,7.13,27.71,19.09,3.95,24.61-3.85,5.88-8.7,17.15-7.38,21.73-18.27C43.72,300.33,28.23,306.61,4.74,319.73Zm3.12,7.36c-.64-5.71-2.94-7.8-7.68-4.46C1.29,324.94,5.2,325.29,7.86,327.09Zm8.26,4.51c-.86-1.58-4.09-1.27-6.39-2.3C10.83,334.1,12.58,333.17,16.12,331.6Zm.1,14.47c12.93-8.79,17.05-3.88,11.85-15.28-3.46-2.67-10.1,3.16-14.49,3.66C10.31,334.83,15.81,343.5,16.22,346.07Zm10.14.51c-4.48,1.08-3.35-1.78-9.49,1.24C19.13,357.61,22.34,350.63,26.36,346.58Zm-8.82,46.7c-2.6.15-6.49-2-7.94-.35C13.24,395.44,16.37,400.28,17.54,393.28Zm2-4.94c1.66-6.88,10.38-29.77.74-31.71C6.33,361.36-4,366,6,381.39,1.81,388.13,16.07,392,19.56,388.34Zm14-7.67c8.62-44.68-9.26-13-12.57,9.52C28.07,393.15,33,387.3,33.58,380.67Zm17.71-2.53c-5-8.23-4.86-18.77-13.07-24.41-4,1.35.41,8.9-.54,12.4-2.41,8.82-2.07,17.6-7.79,25C47.44,393.89,60.69,400.62,51.29,378.14Zm63.87-28.05c-1.56-7.13,5.9-10.55,4.4-14.91C102.74,359.51,36.76,352,46.5,363.49c8.77,9.1,4.16,31.64,17.52,33.09,16.39,15.73,27.51-15.29,45.44-16.83C120.13,374.87,118.73,359.24,115.16,350.09Zm9.59-19.22c-6,.79-.75,6-5.56,10.92-6.11,7.82,1.37,12.92,1,20.68,13.76-7.75,28.45-15.11,44.48-15.59C171.73,319.66,141.57,331.12,124.75,330.87Zm24.28-3c-.31-1.45-6.07-.17-6.9.55Zm99-40.53c-20.52,6.1-20.68,31.49-36.65,44.75,4.69.71,9.26,3,13.57,2.6,5.24-7.82,12.28-17.68,7.94-26.25C233.92,292.54,239.59,297.27,248.07,287.38Zm12.44-15.31c20.78-25.43,6.88-6.66,0-26.45-12.59,8.68-24.89,17.89-37.41,26.71-1.56,5.76,8.11,11.46,11,17.06-4.92,5.38-10.88-10.78-15.48-14-14.8,4-28.27,9.75-42.48,15.52-6,3.29-5.91,13.91-13.9,14.55-7.87,1-18.41-.88-15.66,10.29-4.43.64-14.65-3.34-15.45,2.36-10.8,15,8.49,6.51,17.09,7.43,18.78,2.29,19.65,1.58,18.94,21.18,25.73,4.1,52.46-24.62,61.06-47.37C234,285,252.85,284.8,260.51,272.07Zm11.17-10.85c-4.84,3.4-8,8.16-11.08,13C266,271.33,270.05,267.27,271.68,261.22Zm21.77-17.79c7.08-6.18,1.3-7.94,5.64-13.74,2.2-3.29-6.07-1.48-7.39-1.1-6.62,2.64-14.71.34-20.82,3.95-5.47,6.69-16.24,18.29-1.09,21.21,1.91.42,3.34,1.23,3.52,3.58C278.05,246.19,294.63,252.35,293.45,243.43Zm-1.31-30.66c-14.68-.33-8.22,13.24,1.74,6.07C291.61,217.43,291.09,215.39,292.14,212.77Zm.5,7.87c.4,1.53,4.91.92,5.73-.58C296.73,218.41,294.54,220.38,292.64,220.64Zm-11.53-1.58c-1.13,4.85,2.36,2.55,5.25,2.77C285.9,220.46,282.63,220.09,281.11,219.06Zm3.42,8c4.08-.79,11.5.35,14.32-2.15C297.86,220.2,272.21,225.16,284.53,227.05Zm-3.77-14.22c4.66-1.77,16.57-8.46,15,2.58C309.18,216,302.6,195,280.76,212.83Zm35.53,26.59c-9.23-1.38-14.64-19.83-17-4.12,1.84,5.19-4.61,6.72-4.53,11.32C302.27,246.32,308.34,240.15,316.29,239.42Zm7.12,3.84c-8.37-.75-24,3-27.32,10.31,6.81,2.34,4.48,14.26,1,18.32-11.13,5.35-35.05,10.47-21.31,26.87,2.53,4.56-1.66,9.72,2.91,16.73,8.26-13.05,27.4-9.15,35.55-21.07-1.2-7.11-12.5-12.47-8.5-19.85C307.64,266.8,332.11,246.75,323.41,243.26Zm27.44-.38c4.95,7,11,3.35,17.68,2.25C360.1,233.66,362.84,237.47,350.85,242.88Zm-2.77-31.33c4.79,6.74,9.4,13.23,14.18,19.94C372.34,206.07,379.77,206.5,348.08,211.55Zm-24.55,1.33c47.81-6.55,51.18,3.42,42.34-47.7-8.65,11-24.16,14.78-30.55,26.67C336.64,201.67,312.06,207.36,323.53,212.88Zm-14.16,11.28c17.25,5.64,33.24,24.82,51.1,11.78-11.48-21.54-17.43-24.48-41-18.35C315,216.27,303.38,217.4,309.37,224.16Zm-6.81,1.32c8,12.83,18.49,10.8,26.9,17,10.54,12,5.23,20.73,13.69,29.55,15.35,10.21,21.3-13.61,29-21.66-5.42-8.66-17,5.2-23.62-7.48-13-.32-21.12-10.86-33.72-13.85C305.61,226.42,306.87,219.07,302.56,225.48ZM323.41,99.26c-5.26,9.75-17.05,12.94-20.81,23.21-8.12,6.05-16.38,10-23.42,17.37-5.53,2.85-1.06,9.09-2.3,13.82-2.12-1.63-1-7.06-1.95-10.58-6.64,5.38-7.24,10-5.4,14.14-2.94-4.18-5.66-6.26-7.94-4.45-1.34,6,7.21,16.28.48,18.92-5.87,1.86,5.59,10.79.3,24.5-2.06,6,2.8,12.37,8.95,10.8,3.31-1.5,3.36-1.4,5.66,1.46,4.94,5.32,12.69-5.09,19.45-4.77-6.25-1.35-15.86-27.85-24.27-42.32,4.52,5.69,11.64,10.72,10.35,16.16,6.55,6.73,6.41,22,15.7,24.11,5.36-.13,3.69,8.1,7.1,9.65,3-16.08,15.59-25.94,17.28-41.76,3.13-11.24-16.66-17.62-11.43-29.75,3.89-10,18.27-8.08,18.87-19.29C331.2,108.23,334,107.86,323.41,99.26Zm-51.25,62.1c-.89-1.53-1.77-2.92-2.63-4.14A19.57,19.57,0,0,0,272.16,161.36Zm-159,174.25a53.85,53.85,0,0,0,4-4.92A21.34,21.34,0,0,0,113.11,335.61ZM9,269.49a32.38,32.38,0,0,0,4.83-2.06A26.25,26.25,0,0,0,9,269.49Zm138.63-134.2,0,0v0ZM50.23,270.42c9.71-4.42,21.19-7.35,28.65-10.26C68.28,259.37,59.21,265.46,50.23,270.42ZM0,142v2.91c15.51-8.52,24.69-2.08,38.49,3.49a23,23,0,0,1-5.18-3.66C20.25,136.17,10.37,139.38,0,142Zm43.08,8.13c-1.59-.56-3.11-1.14-4.59-1.73A22.18,22.18,0,0,0,43.08,150.16ZM94,125.08a39.9,39.9,0,0,0-4.77-7.6C91,119.89,92.51,122.49,94,125.08ZM250.3,172.83c-.24-2.44-.5-4.83-.9-7.11A43.49,43.49,0,0,0,250.3,172.83ZM483.84.23V0H481a12.5,12.5,0,0,0-3.32,3.16c-4.74,5.11-7.65,12.57-14.6,14.94-10.95-4.46-8-10.78-3.84-18.1h-3.78a19.13,19.13,0,0,0-3.56,7.88c7.3,21.59-3.75,21.86-22.45,29.72,3.05,1.61.87,11.89,4,18a35.86,35.86,0,0,1-4,23.5c5.82-8,11.94-15.48,21-20.89-4.95,2.57-9.93,4.82-14.6,6.76C432.65,34.13,424,43.09,451.39,29.11c2.05-2.05,4.22-10.32,7.75-8.4,9,6.27,17.31-1,24.7,6.92V21.94c-4.06.78-10.25-1.29-19.33-3.07C472.65,15.88,475.92,2.13,483.84.23ZM386.53,70.06c-5.76,4-11.46,14-18.1,20C387,76.15,399.89,53.24,421.18,41.83c.41-.36.79-.69,1.17-1C411.65,46.13,399.19,54.48,386.53,70.06Zm35.82-29.23c2.46-1.22,4.82-2.28,7.08-3.23C428.18,36.94,426.06,37.73,422.35,40.83Z"/>
</g>
</g>
</svg>