<svg xmlns="http://www.w3.org/2000/svg" viewBox="0 0 67.41 52.5"><defs>
<style>.cls-1{fill:#231f20;}</style></defs><g id="Layer_2" data-name="Layer 2">
<g id="Layer_1-2" data-name="Layer 1">
<path class="cls-1" d="M20.32,47c-2.52-1.69-4.67-5.64-6.42-10.2,1.78-1.83,3.62-3.62,5.5-5.35.93,4.87,2.32,8.81,4.57,10.62a4.66,4.66,0,0,0,3.73,1c8.81-1.29,38.45-9.34,39.71-9.69l-.52-1.93c-.31.09-30.79,8.37-39.48,9.65a2.76,2.76,0,0,1-2.19-.61c-2-1.59-3.22-5.7-4.07-10.65,2.74-2.44,5.54-4.73,8.31-6.76,1.21,3.33,2.54,6.1,3.92,7.47s3.87,2,6.53,2c6.72,0,15.31-3.43,16.61-4l.25-.1,9.33-12-1.58-1.23-9,11.61c-4.79,1.92-17.13,5.83-20.73,2.27-1.23-1.22-2.48-3.92-3.65-7.26,8.8-6.15,17.21-9.54,22.76-7L54.72,13c-6.29-2.85-15.16.52-24.27,6.78A178,178,0,0,1,25.64,0l-2,.36A179.79,179.79,0,0,0,28.74,21c-2.67,1.93-5.34,4.09-8,6.39-.63-4.53-1-9.49-1.32-13.78-.26-3.5-.5-6.8-.84-9.29l-2,.26c.33,2.43.57,5.71.83,9.18.37,5.09.77,10.48,1.51,15.24-2,1.82-4,3.71-5.86,5.65a136.19,136.19,0,0,1-4.9-20l-2,.31a129.17,129.17,0,0,0,5.33,21.24A147.51,147.51,0,0,0,0,49.92l1.61,1.19A136.69,136.69,0,0,1,12.39,38.36c1.85,4.55,4.11,8.48,6.81,10.29,4.65,3.13,17.25,3.85,27.89,3.85,8.7,0,16.1-.48,16.76-.53l-.13-2C63.36,50,28.2,52.3,20.32,47Z"/>
<path d="M421.9,89.7c-4.7,6.4-9.9,12.7-16.9,18.2c-11.1,9.1-25,16-29.8,29.7c0.5-1.6,0.9-3.2,1.3-4.8
	C386.2,116.8,408.1,105.1,421.9,89.7z M368.4,90.1c-1.7,1.3-3.5,2.5-5.3,3.6C365,92.8,366.7,91.6,368.4,90.1z M283.9,405.5
	c-0.1-1.2-0.2-2.4-0.3-3.5C283.5,403.2,283.6,404.4,283.9,405.5z M253,342.1c0.2-0.1,0.5-0.1,0.7-0.2c-0.6,0-1.2-0.1-1.8-0.1
	C252.3,341.9,252.7,342,253,342.1z M284.8,410.2h1.3c-0.1-0.2-0.2-0.4-0.4-0.5c-0.9-1.2-1.5-2.6-1.9-4.1c0.1,1.1,0.2,2.3,0.3,3.5
	C284.4,409.4,284.6,409.8,284.8,410.2z M370.3,383.9c12.2,3.7,25.3-2.5,36.4,4.4c-2.1,3.7-2.1,3.8-5.9,3c-5.9-1.5-3.8,5.2-12.7,5.4
	c-2.2,0.3-3.6,1.8-3.7,4c-2.8,4.2-5,7.2-6.7,9.3h2.7c4.6-5.8,4.5-12.7,13.2-13.5c2.9-1.1,3.8-5.7,7.4-4c6.4,2.5,5.4-6.7,9.3-2
	c5.6,6.4,11,13,16.5,19.5h1.3c-9.8-11.3-16.5-25.3-32.6-26.7c-8.1,1.1-16.1,1.1-24.2-0.6c-10.8-2.5-22.5,9.9-33,13.7
	c1.1-0.2,2.3-0.4,3.7-0.4C353.1,394.9,358.4,380.5,370.3,383.9z M335.9,397.3c0.8-0.2,1.7-0.4,2.5-0.7
	C337.5,396.7,336.6,397,335.9,397.3z M107.7,389.4c-0.5,0.5-0.9,1-1.4,1.5C106.8,390.4,107.3,389.9,107.7,389.4z M470.8,118.3
	c-0.5,0-0.9,0.4-1.3,0.8c8,1.9,5.8-5.1,10.1-0.5c1.2,1.8,2.6,2.6,4.2,2.9V120c-0.7-0.3-1.4-0.6-2.2-1
	C475.1,112,477.4,118.6,470.8,118.3z M85.6,410.2c3-4,11.1-8.7,20.6-19.3c-5.7,6-16.6,12.1-23.5,19.3H85.6z M429.5,79.2
	c-2.5,3.5-5,7-7.6,10.5C424.9,86.4,427.4,82.9,429.5,79.2z M216.1,11.9c5.1-3.2,9.9-7.6,14.8-11.9h-2.7c-4.5,4-8.9,7.8-13.7,10.7
	C207.7,29.6,210.4,32.2,216.1,11.9z M474.5,41.3c-1.4,1.2-2.7,2.4-3.8,3.6C472.1,43.7,473.3,42.5,474.5,41.3z M454.3,56.2
	c-1.3,0.6-2.6,1.3-3.8,2.1C451.7,57.6,453,56.9,454.3,56.2z M463.7,52.6c12.1,10-1,16.7,10.7,25.5c3.3,4.3,6.4,8.6,9.4,13v-2.2
	c-2.8-4-5.6-7.9-8.7-11.7c-7.6-4.9-3.6-11.9-5.1-19.4c6.3-0.9,10.4,1.8,13.8,4.4v-1.4c-4.2-2.4-8.4-5-13.9-4.6
	c-6.3-2.4-3.9-6.7,0.8-11.5c-4.9,4.3-10.6,8-16.5,11.3C457.1,54.8,460.2,53.6,463.7,52.6z M483.8,32.5v-4.9c-2.1,5-5.3,9.5-9.3,13.6
	C477.9,38.3,481.4,35.2,483.8,32.5z M173.6,278.9c0,1.5,0.1,3.1,0.3,4.7C173.9,282.1,173.9,280.5,173.6,278.9z M44.6,273.3
	c1.9-0.9,3.8-1.9,5.6-2.9C48.3,271.3,46.4,272.3,44.6,273.3z M363.2,93.7c-1.6,1-3.3,1.9-5.1,2.8c-11.2-6.7-21.5,0.2-33.9,2.2
	c9.8,7.1,8.5,8.8,7.3,19.8c0,15.9-33,17.5-14.8,36c19.9,18.5-8.4,40.7-12.4,60.9c2.9,1.4,3.6-1.8,5.8-2.3c3.6,0,6.3,0.4,10.2,0.2
	c-4-5,0.7-7.1,4.7-9.8c11.7-6.2,6.4-17,18.6-22.1c18.3-8,25.7-23.7,31-41.2c-0.3,1.4-0.6,2.9-0.8,4.5c-8.9,22.7-6,26-3.3,48.7
	c-0.4,31.1,49.1-4.6,63.2-10.8c15.7-12,32.6-22.3,50.2-31.3v1.9c-25.9,14.3-50.2,31.9-76.5,45.8c-9.4,5.9-20.5,7.2-31.3,8.6
	c-8.6,15.4-18.9,23.6-1.5,39.7c19.9-4,36.5,1.4,54.4,11.2c15.9-3.9,29.3-23.6,42.3-34.7c3.2-4.7,7.7-7.6,12.6-9.8v1.5
	c-4.3,2.1-8.3,4.6-11.5,8.7c-11.7,13.2-25.8,24-38.8,35.8c14.2,5.8,25.7-2.3,39.9-0.8c10-0.1,7.5,7.4,10.3,9v1.7
	c-1.6-0.8-2.7-1.7-2.9-3c-0.1-7-8.2-5.1-13.1-6.1c3.9,8.1,9.2,12.3,16,14.3v3.7c-6.5-1.3-12.2-3.8-15.2-11.5
	c-6.1-10.1-16.7,4.1-29.6-2.1c-17.1-0.2-29.5-19.9-53.7-14.6c-19.7-1.7-21.4,41.2-44.7,24.3c-7.8-6.4-5.3-19.3-11.6-27.4
	c-7.6,9.5-26.5,24-19.9,35.8c7.5,7,9.1,18.6,9.1,28.3c-3.6,10.8-13.6,4.9-11.2,11.2c4.1,13.3,12.5,31.4,6.7,44.3
	c-3.7,6.1,5.4,14.6,7,20.9c4.4,8.9,9.5,10.8,15,9.7c-5.2,2.1-7.7,6.9-8.3,12.9h-1.2c0.5-4.6,1.1-8.9,1.1-12.5
	c-8.4-4.8-10.5-15.5-15.3-23.3c-16-13.2-17.8-2.7-30.4,7.4c-4.5,6.2,5.2,11.6,2.2,17.8c-0.2,0.8-0.3,1.6-0.4,2.4
	c-3.7-32.9-16.8-3-42.1,0.2c2.2,3.5,10.9,4.1,14.4,7.9h-3.6c-14.1-9.1-30.1-11.8-39.6,0h-0.9c1.1-1.5,1.9-3.3,2.4-5.3
	c3.1-6,12.2-3.6,17.8-5c23.8,5.2,46.7-18.3,64.1-32.6c4.9-4.4,5.9,3.2,14,3.4c8.8-14.5-0.1-32.7-4.7-47.6c-1.4-12,18.4-0.5,8.8-26.4
	c-8.8,8.2-10.8,6.4-21.4,9.8c-16.2,6.7-19.7,25.9-34.7,35.5c-1.5,0-3-0.1-4.4-0.1c8.8-2.8,19.9-14.5,22.6-23.3
	c0.3-3.4,0.9-6.8-0.9-10c-3.2-4.2,2.6-6.2-0.5-8.9c-18.9-29.6,29.2-16.2,24.1-41.3c0.5-4.9-6.7-1.8-4-6.7
	c-17.7-1.1-17.7,11.1-26.5,21.4c-11.6,8.1-22.9,16.9-32.8,26.7c-4.4,6.5,2.5,12.2-0.6,17.9c-14.1,26.2-4.6,18.1,16.9,24.1
	c-50-2.6-15.3-20.3-75,10.7c-7.1,5.5-5.3,9.6-9.1,16.6c-1-5.2,3.5-13.3,8.1-17.4c-20.5-3.3-4,34.7-9.1,45.7
	c-4.6,9.6,15.3,9,23.6,12.8h-7.2c-5.3-2.1-11.5-4.3-18.8-7.3c-2.7,2.2-5.3,4.7-7.8,7.3h-0.6c2.8-3.1,5.6-6.2,8.2-9.4
	c2.2-15.8,0.7-34.4-0.4-49.6c-18.1,1.5-42.8,7.4-46.9,27.7c-1,9.9-3.9,20.7-5.3,31.3h-1c2.8-24.1,6.8-39.4-29.3-8
	c-5.2,3.8-5.1,5-0.8,8h-5.3c-2.4-2.3-4.1-3.8-4.5-3.9c1.1,1.2,2.2,2.5,3.3,3.9h-1.8c-4.8-5.3-10.2-9.7-17-10.7
	c-31.3-8.3-33.6-0.8-35.4,10.7h-2.3c1.5-5.8,5.5-10.6,9.1-15.7c-8.2-3.3-12.4,7.4-11.7,15.7h-2.2c-0.3-8.5,6.1-10.2-6-17.9
	c-2.5-0.8-4.7-1.5-6.7-1.9v-2.8c1.6,0.1,3.3,0.3,4.9,0.5c-2.4-6.6-3.3-14.1-4.9-21.1v-5.5c0.3,0.7,0.7,1.4,1.2,2.3
	c6-2.9,11.7-5.7,17.4-8.5c-2.3-4.4-1.7-7.9-7.6-5.1c-4.7,1.6-9.1,2.5-11,4.8V352c10.1-2.9,18.6-4.7,11-16.1c-3.7,1-7.3,2.2-11,3.5
	v-2.1c3.5-1.6,6.9-2.9,9.9-3.4c-1.9-6.4-5.5-8.5-9.9-8.5v-8.6c0.1,0.1,0.2,0.2,0.2,0.3c2.7,1.4,5.2-2.2,7.5-3.2
	c15.7-9.2,11.9-1.6,2.9-27.2c-2.9-4.2-7-7.5-10.6-11.2v-6.2c2.2,1.3,5.1,1.5,8.9,0.3c-1.8,1-3.8,2.2-5.9,3.8
	c10.5,15,17.5,14.1,32.3,5.3c-8-9.4-13.5-13.6-21.5-11.2c2.7-1.4,5.8-3.3,9.3-5.8c1.1-15.5-3.7-14.6-11.3-26.5
	c-8-9.6-6.9-12.9-11.8-11.1v-2.4c28.1-10.2,63-5.7,86.3-20c-4.7-17.9,8.8-38-13.3-47.6c-12.6,1-22.1-1-29.9-3.8
	c9.9,2.5,20.5-1.7,30.7,2.1c12.5,4.8,23.1,31.7,36.8,19.3c-7.9-13.8-1.6-28.4-14.1-40.7c-0.7-2.1-1.5-4-2.4-5.8
	c2.5,4.2,5,8.4,8.4,11.7c8.1,8.8,0.3,23.6,9,32.3c-8.4-44.9,30.4-61,20.4-67.7c-9.1-3.9-21,3-31.6,0.6c-5.9-0.7-14.8,7.1-13.2,12.8
	c0.8,0.9,1.5,1.8,2.2,2.8c-14.7-18.2-40.9-13.6-64.5-15.5C3.8,94.9,3.6,98.2,0,97.1v-0.9c4.6,0.7,9.7-2,16.6,1.2
	c13.9,8.3,30.8,2.9,45.8,4.4c14.4-0.1,23.7,14.3,27.5,3.8c5.3-7.7,16.6-4.2,24.6-4.7c9.9,0.2,12.5-7.2,21.3,2.3
	c7.2-24.9,11.7-16.9,26.5-32.8c9.6-8.5,12.8-22.6,24.5-28.8c19-10.9,18.2-6.4-0.1,2.1c-10.3,6.4-13.8,19.1-22.3,27.3
	c16.1,5.7,25,20.2,23.7,37.2c8.2,13.8,12.5,27.7,11.1,44c2.8-4.3-0.8-6.4,6-7.8c10.4-2.9,21-5.3,31.3-8.5
	c-10.8-23.1-18.9-47.4-31-70c-4.1-10.2,6.1-14.6,1-31.8c-1.9-11-7.6-25.2,1.2-34.2h4.8c-3.1,8.6-11.1,4.7-1.2,42
	c-7.1,29,14.4,54.2,24,81.5c-10-30.7-19.6-63.6-25.1-94.2c9.5,28.6,12.5,58.9,24.7,86.6c7.8-10.2,4.6-29.5,11-39.2
	C260,66.5,263.1,66.6,270,49.6c10.3-4.7,13.1-14.4,17.1-25c1.5-5.9,7.9-1.6,8.2-7.5c0.8-5.7,0.2-12.1,4.6-16.4
	c0.1-0.2,0.2-0.4,0.2-0.6h2.3c-1.2,2.1-3.5,3.8-4,6.3c-2.3,5,1.4,15.3-5.7,15.9c-10.3,6.2-7.2,25-21.1,28.2
	c-11,13.9-0.3,29.8-6.7,45.3c-3.1,16.2,10.9,28,11.1,43.8c6.4-1.6,7.8-9.3,13.4-11.5c4.6-1.5,9.9-3.9,12.6-8.1
	c3.2-10.3,16.8-11.4,19.6-22.6c1.4-4.7-5.8-2.2-3.3-7.4c2.2-4.1-4.5-4.8-2.2-8.9c1.3-5.7-6.8-4-5.5-10.2c1.1-9-3.6-17.2-5.3-25.9
	c9.1-14.6-0.1-29.3-1-45.1h1.5c0,3-0.3,6.3,0.1,7.6c3.4,18.4,9.5,18.6,0.6,37.2c4.6,9.9,2.5,24.1,8.9,31.4c2.7,0.9,2,3.8,2,6.1
	c0.4,4.6,4.4,2.1,1.7,10.2c6.3,6.1,12.5,2.5,20.5,1c-1.2-10.1,7.4-16.5,12.3-24.2c2.6-17.9,13-33.6,13.6-51.7c-1-6.1,8.7-6.7,9.7-12
	c0.5-1.8,1-3.7,1.5-5.5h1.6c-1.5,3.9-3.3,7.7-5.4,11.3c-10.7,6.4-2.8,22-12.1,31.6c-7.2,12.3-0.7,22.8-12.8,34.5
	c-2.6,4.1-8.3,9.7-6,14.8c3.9,1.4,5.9-3.8,11.8,1.4C357.1,95.2,360.2,95,363.2,93.7z M242.9,96.4c0.2,13-9.8,17.6-4.9,29.5
	c6.4,13.9,13.6,7.8,19.3,12.8c9.4,9.1,5.1,12.3,16.2,3.4c5.2-13.7-10.9-25.2-9.7-39.4c-0.4-12.5,5.5-24.1,0.4-36.8
	C251.7,73.7,241.8,80.1,242.9,96.4z M263.3,167c-2.3-4.2-1.9-8.7-2.7-13.3c-8.9-0.3-11.4,4.9-11.1,11.9c-0.6-3.2-1.4-6.1-2.7-8.7
	c-2.3,0.4-4.9,0.4-5.7,3.5c-25.2,42.4-25.2,16.8,6.5,56.2c9.5-2.2,8.2-14.1,7.3-21.9c-3.3-6.5-3.7-14.5-4.5-22.1
	c1.7,8.5,5.2,17.8,6.1,23.6c2.2,4.1-4.2,14.8,1.8,14.9c3.5-1.2,5.3,3.4,8.3,3.8c8-0.1,19.1,1.9,7.6-7.9c-22.9,6.5-5.8-20-14.6-30.8
	C254.8,171.1,266.1,171.5,263.3,167z M279.8,227.5c-1.3-6.6-11.8-1-17-1.5c-4.9-0.3-6.2,7.6-0.7,6.6
	C267.7,230,274.6,230.4,279.8,227.5z M262.4,240.8c2.2-1.3,6.6-6.6,6.6-9.1C262.3,235,260.2,232.3,262.4,240.8z M132.2,304.4
	c-0.2,3.2-1.7,4.8,2.6,5.6C134.7,307.5,135.7,303,132.2,304.4z M133,313.7c0.7-0.5,1.2-0.8,1.7-1.2
	C133.1,310.9,130.1,312.3,133,313.7z M135.8,300.2c11.1-35.2,51.2-83-11.5-39.7C134.6,266,125.3,306.7,135.8,300.2z M128.1,320.6
	c2.4-1.3,2.8-7.5,0.7-8.9C127.3,314.3,128.5,317.2,128.1,320.6z M123.9,315c-13.7,1.1-27.8-2.2-41.1-1c-6.1,3.5-12.3,6.7-19.2,8.5
	c-8.7,2.3-3.9,10.8-12.6,13.6c-1.9,1.3-7.6,3.1-4.9,6.1c3.4,6.1-6.2,17.7,7.1,13.8c22.7-1.8,44.7-4.1,59.9-20.4
	c-1.4,2.1-2.7,4.4-4.2,6.1c4.9-1.3,10.8-7.7,11.3-12.5c-1.1,0.2-2.1,0.8-3,1.5c0.5-0.7,1.1-1.5,1.6-2.2c3.9-0.9,1.2-5.2,1.4-8.3
	c2.5,0.9,1.9,2.7,2.2,4c-0.1,2.2,4.3,5.1,4.5,1.9C124.7,322.2,129.6,314.5,123.9,315z M34.7,337.6c8.9-2.3,4.5-3.7,2.7-11.8
	C28.1,328.4,32.5,329.7,34.7,337.6z M21.5,355.2c5.2,1.5,3.9,6,4.9,9.7C36.9,354.6,33.8,338.1,21.5,355.2z M35.8,353.2
	c1.9-2.2,1.6-4.7-1.1-5C34,349.7,35.4,351.3,35.8,353.2z M37.3,345.4c2.8,0.7,5.4-3.7,4.6-6.7C37.9,340.2,34.4,340.4,37.3,345.4z
	 M43.1,356.1c0.9-4.8,3-9.1,1.3-13.7C34.2,351.4,39.7,345.7,43.1,356.1z M44,323.6c-6.5,0.4-0.9,6.8-0.6,10.3
	C48.5,334.3,44.2,326.6,44,323.6z M46.2,322.5c-2.2,1.6,1.6,9.5,1.8,12.1c7.6-0.5,6.1-4.9,9.3-9.4c4-2.6,6.5-8.1,2.9-12.1
	C53.6,311.2,52,320.7,46.2,322.5z M50.3,316.9c7.4-11.8,10.3,0.4,11.6-12.6C53.8,303.4,47.9,311,50.3,316.9z M47.7,315.1
	c-0.8,2-1.6,3.9-2.3,5.6C49,319.5,49.6,318.4,47.7,315.1z M85.7,311.3c7.7,0.5,16.7,3.1,24.2,0.8c-16-5.3-30.4-1.9-47.7,0.5
	C62.3,328.6,77.9,311.9,85.7,311.3z M111.3,311.9c1.7,2,4.5,0.9,7.1,1.4C116.8,310.7,113.1,310.5,111.3,311.9z M115.2,309.6
	c0.2-1.3-2.4-0.9-3.4-1.5C111.1,310,114.1,309.2,115.2,309.6z M126.5,313c-0.4-2.3-2.8-1.4-4.5-1.8
	C121.1,313.8,124.9,313.2,126.5,313z M111,297.9c0.5,1.9-0.5,5.7,2,6.5c6,0,6.7,7.3,12.9,5C131.4,301.2,116.1,301.8,111,297.9z
	 M128,302c3.3-1.6,1.1-45.7-7.9-39c-11.6,8.6-32.1,12.4-14.4,26.1c-3.4,2.8-9.1-12.3-12.5-9.6c-15.4,5.1-27.6,14.4-30.2,31
	c12.3,0.8,26.3-8.5,36.3-1.4c-7.1-6.3-3.2-17.6-8.7-25.2c-1.6-2.5,1.4-3.5,2.9-2c6.1,6.6,1.9,21,10,24.5c13.8-0.5,0.1-15.5,3.3-16.1
	C111.9,297.1,119.2,302.1,128,302z M92.6,276.1c-9.7-17.4-15.8-11.5-16.3,7C81.6,280.8,86.9,278.5,92.6,276.1z M215.5,234.3
	c-16.4-1.4-32.2,2.9-48.2,5.8c-14.3,14.5-19.1,39.9-29.5,58.3c5.5-6.2,15.8-11.4,24.1-16.5c13.1-17.2,26.8-31.4,50.6-28.5
	C211.5,243.7,219.6,234,215.5,234.3z M256.8,231.2c-9.8,8.5-25.7-0.4-36.4,4.5C201.8,275.8,253.2,239.5,256.8,231.2z M265.6,216.6
	c-8.2-8-9.3-2.1-17.8,1.3C254.9,228.6,254.5,224.1,265.6,216.6z M219.7,190c2.4,34-11.9,45.3,30.5,41.2
	C260.9,226.6,225.5,196.7,219.7,190z M221.6,161.2c-38.9-8.2-19.3,6.6-3.9,23.3C230.1,173.4,249.2,154.7,221.6,161.2z M193.7,169.8
	c-10.1,22.1-19.7,44.1-27.6,67.1C216,225,218,245.8,216.6,188c0.2-3.4-3.9-5.7-5.7-8.3C206.8,176.8,198,160.9,193.7,169.8z
	 M163,165.2c8,11.3,10.1,23.7,14.4,36.8C189.6,170.2,204,167.9,163,165.2z M162.5,166.8c-2.7-4.8-11.7,7.3-22.2,3.1
	c-8.2-1.6-16.2,3.5-24.3,4.1c-11.2,25.5,3.8,56.4,6.4,83.4c35.7-26.6,40.4-6.1,53.6-51.6C174.8,192.5,169.7,178.2,162.5,166.8z
	 M128.7,303.2c0,2.3,0,4.2,0,6.7C130.1,307.6,130.1,305,128.7,303.2z M136.2,312.5c4.6,2.6,10.4,2,8.6-4.7
	C141.9,309.3,136.5,308.9,136.2,312.5z M159.3,285.9c-7.8,4.7-25.4,11.6-21.4,22.2C149.2,305.8,156.3,297,159.3,285.9z M149.8,304.7
	c14.2,2.3,23.6-8.6,24.1-21c0.2,1.8,0.6,3.6,1.1,5.6c11.1-1.8,18.7-10.7,30-11.8c3.8-0.7,12.1-0.7,12.4-5.6
	c-3-4.7-1.8-15.3-7.5-16.6c-19.2-0.4-35.8,5.9-36.2,23.6c-0.3-1.8-0.7-3.7-1.4-5.4C161.7,282.6,159.4,295.3,149.8,304.7z
	 M221.2,271.4c6.5-7.7,49.8-26.6,36.5-35.7c-14.2,4.9-22.1,22.7-39.7,20.1C213.9,258.1,219.2,267.4,221.2,271.4z M279,220.7
	c-2.3-4.7-15.3,1.6-18.6,3.8C266.3,222.5,275,225.1,279,220.7z M242.1,134.9c1.3,5.8,4.7,13.4,1.2,21.2
	C275.2,150.7,262.9,142.8,242.1,134.9z M198.4,155.5c4.9,4.7,18.3,2.8,25.9,5c2.9-1.1,13.2-1.8,14.5-4.3c2.2-5.4,4.2-15.2-2-18.1
	c-10,5.1-32,2.1-34.8,13.9C202.4,154.8,199.3,153.4,198.4,155.5z M113.2,172.7c9.3-0.5,17.1-5.4,25.8-4.7
	c11.8,2.9,25.9-2.5,19.3-16.5c-4.3-5.2-7.9-10.5-10.7-16.1c3.1,6,9.2,9.9,11.9,15.9c1.3,2.6,0.6,12.9,4.2,12.1
	c31.9,3.7,33.7,11.4,34.5-26.5c-2.2-18.4-13.9-23.1-12.3-41.1c-2.9-10.3-13.5-25.3-24.6-21.8c-7,7.9-18.8,10.1-21.1,22.1
	c-0.2,3.3-4.8,7.6-1.3,10.3c5.3,4.3,5.3,22,8.7,28.9c-3.6-7.2-5.9-14.9-6.8-23.7c-0.5-2.4-1.9-3.9-3.9-5.2
	C115,122.1,111.5,147.3,113.2,172.7z M88.3,207.5c7.6,17.5-0.3,34.4-3.8,51.7c6.1,25.3,18.8,9.3,33.9,0.9
	c3.7-25.7-14.8-55.3-6.3-82.8C104.4,192.2,103.2,199.7,88.3,207.5z M109.8,175.3c-11.9,1.5-14.6,1.9-21.1-8.8
	C78.9,205.4,96.3,217.8,109.8,175.3z M40.7,214.9c10.5,8.5,24.1,22.2,34.8,28.6c4.2,0.6-1.4,7.2-0.8,9.8c8.6,7.6,9.1,6.4,9.7-4.5
	c6.6-22.8,7.9-18.9,1.6-42.5C71.1,209.2,56.6,214.2,40.7,214.9z M35.1,300.6c12-7.7,37-7.9,38.3-24.4c1.3-6.1,2.1-12.4,7.2-16.9
	c-4.1-5-7.9-3.6-6.7-8c0.2-2.6,1.2-4.3,2.4-6.8c-8.5-0.3-11.9-9.8-18.2-14.3c-15-14.8-34.5-20.3-52.7-6.5
	c5.1,8.9,12.6,17.5,18.5,24.1c-1.6,14,1.5,19.4,12.8,28c2.7-0.5,5.3-1.5,7.9-2.7C34.4,279.2,28.3,287.5,35.1,300.6z M32.8,296.5
	c-15,1.9-15.1,14.3-0.3,5.4C34.2,300.6,33.1,298.5,32.8,296.5z M31.3,295.7c2.9-0.9-1.8-10.2-2.1-13.3c-4.9,2-9.4,3.9-14.1,5.8
	C20.6,301.9,17.3,300.7,31.3,295.7z M4.7,319.7c5.5,3.7,3.4,10.1,11.5,10.2c16.8,2.8,4.9-10.5,7-17.4c7.1,27.7,19.1,3.9,24.6-3.9
	c5.9-8.7,17.1-7.4,21.7-18.3C43.7,300.3,28.2,306.6,4.7,319.7z M7.9,327.1c-0.6-5.7-2.9-7.8-7.7-4.5C1.3,324.9,5.2,325.3,7.9,327.1z
	 M16.1,331.6c-0.9-1.6-4.1-1.3-6.4-2.3C10.8,334.1,12.6,333.2,16.1,331.6z M16.2,346.1c12.9-8.8,17-3.9,11.8-15.3
	c-3.5-2.7-10.1,3.2-14.5,3.7C10.3,334.8,15.8,343.5,16.2,346.1z M26.4,346.6c-4.5,1.1-3.3-1.8-9.5,1.2
	C19.1,357.6,22.3,350.6,26.4,346.6z M17.5,393.3c-2.6,0.1-6.5-2-7.9-0.4C13.2,395.4,16.4,400.3,17.5,393.3z M19.6,388.3
	c1.7-6.9,10.4-29.8,0.7-31.7C6.3,361.4-4,366,6,381.4C1.8,388.1,16.1,392,19.6,388.3z M33.6,380.7c8.6-44.7-9.3-13-12.6,9.5
	C28.1,393.1,33,387.3,33.6,380.7z M51.3,378.1c-5-8.2-4.9-18.8-13.1-24.4c-4,1.3,0.4,8.9-0.5,12.4c-2.4,8.8-2.1,17.6-7.8,25
	C47.4,393.9,60.7,400.6,51.3,378.1z M115.2,350.1c-1.6-7.1,5.9-10.6,4.4-14.9c-16.8,24.3-82.8,16.8-73.1,28.3
	c8.8,9.1,4.2,31.6,17.5,33.1c16.4,15.7,27.5-15.3,45.4-16.8C120.1,374.9,118.7,359.2,115.2,350.1z M124.7,330.9
	c-6,0.8-0.8,6-5.6,10.9c-6.1,7.8,1.4,12.9,1,20.7c13.8-7.7,28.5-15.1,44.5-15.6C171.7,319.7,141.6,331.1,124.7,330.9z M149,327.9
	c-0.3-1.5-6.1-0.2-6.9,0.5C144.4,328.3,146.7,328.1,149,327.9z M248.1,287.4c-20.5,6.1-20.7,31.5-36.7,44.7c4.7,0.7,9.3,3,13.6,2.6
	c5.2-7.8,12.3-17.7,7.9-26.3C233.9,292.5,239.6,297.3,248.1,287.4z M260.5,272.1c20.8-25.4,6.9-6.7,0-26.5
	c-12.6,8.7-24.9,17.9-37.4,26.7c-1.6,5.8,8.1,11.5,11,17.1c-4.9,5.4-10.9-10.8-15.5-14c-14.8,4-28.3,9.8-42.5,15.5
	c-6,3.3-5.9,13.9-13.9,14.5c-7.9,1-18.4-0.9-15.7,10.3c-4.4,0.6-14.7-3.3-15.5,2.4c-10.8,15,8.5,6.5,17.1,7.4
	c18.8,2.3,19.7,1.6,18.9,21.2c25.7,4.1,52.5-24.6,61.1-47.4C234,285,252.8,284.8,260.5,272.1z M271.7,261.2c-4.8,3.4-8,8.2-11.1,13
	C266,271.3,270,267.3,271.7,261.2z M293.4,243.4c7.1-6.2,1.3-7.9,5.6-13.7c2.2-3.3-6.1-1.5-7.4-1.1c-6.6,2.6-14.7,0.3-20.8,4
	c-5.5,6.7-16.2,18.3-1.1,21.2c1.9,0.4,3.3,1.2,3.5,3.6C278,246.2,294.6,252.4,293.4,243.4z M292.1,212.8c-14.7-0.3-8.2,13.2,1.7,6.1
	C291.6,217.4,291.1,215.4,292.1,212.8z M292.6,220.6c0.4,1.5,4.9,0.9,5.7-0.6C296.7,218.4,294.5,220.4,292.6,220.6z M281.1,219.1
	c-1.1,4.9,2.4,2.5,5.2,2.8C285.9,220.5,282.6,220.1,281.1,219.1z M284.5,227.1c4.1-0.8,11.5,0.4,14.3-2.2
	C297.9,220.2,272.2,225.2,284.5,227.1z M280.8,212.8c4.7-1.8,16.6-8.5,15,2.6C309.2,216,302.6,195,280.8,212.8z M316.3,239.4
	c-9.2-1.4-14.6-19.8-17-4.1c1.8,5.2-4.6,6.7-4.5,11.3C302.3,246.3,308.3,240.2,316.3,239.4z M323.4,243.3c-8.4-0.8-24,3-27.3,10.3
	c6.8,2.3,4.5,14.3,1,18.3c-11.1,5.4-35,10.5-21.3,26.9c2.5,4.6-1.7,9.7,2.9,16.7c8.3-13.1,27.4-9.1,35.6-21.1
	c-1.2-7.1-12.5-12.5-8.5-19.8C307.6,266.8,332.1,246.7,323.4,243.3z M350.9,242.9c5,7,11,3.4,17.7,2.3
	C360.1,233.7,362.8,237.5,350.9,242.9z M348.1,211.6c4.8,6.7,9.4,13.2,14.2,19.9C372.3,206.1,379.8,206.5,348.1,211.6z M323.5,212.9
	c47.8-6.5,51.2,3.4,42.3-47.7c-8.7,11-24.2,14.8-30.6,26.7C336.6,201.7,312.1,207.4,323.5,212.9z M309.4,224.2
	c17.3,5.6,33.2,24.8,51.1,11.8c-11.5-21.5-17.4-24.5-41-18.3C315,216.3,303.4,217.4,309.4,224.2z M302.6,225.5
	c8,12.8,18.5,10.8,26.9,17c10.5,12,5.2,20.7,13.7,29.6c15.3,10.2,21.3-13.6,29-21.7c-5.4-8.7-17,5.2-23.6-7.5
	c-13-0.3-21.1-10.9-33.7-13.9C305.6,226.4,306.9,219.1,302.6,225.5z M323.4,99.3c-5.3,9.7-17.1,12.9-20.8,23.2
	c-8.1,6-16.4,10-23.4,17.4c-5.5,2.8-1.1,9.1-2.3,13.8c-2.1-1.6-1-7.1-1.9-10.6c-6.6,5.4-7.2,10-5.4,14.1c-2.9-4.2-5.7-6.3-7.9-4.5
	c-1.3,6,7.2,16.3,0.5,18.9c-5.9,1.9,5.6,10.8,0.3,24.5c-2.1,6,2.8,12.4,8.9,10.8c3.3-1.5,3.4-1.4,5.7,1.5c4.9,5.3,12.7-5.1,19.5-4.8
	c-6.3-1.3-15.9-27.8-24.3-42.3c4.5,5.7,11.6,10.7,10.4,16.2c6.5,6.7,6.4,22,15.7,24.1c5.4-0.1,3.7,8.1,7.1,9.7
	c3-16.1,15.6-25.9,17.3-41.8c3.1-11.2-16.7-17.6-11.4-29.7c3.9-10,18.3-8.1,18.9-19.3C331.2,108.2,334,107.9,323.4,99.3z
	 M272.2,161.4c-0.9-1.5-1.8-2.9-2.6-4.1C270.2,158.6,271.1,160,272.2,161.4z M113.1,335.6c1.4-1.5,2.8-3.1,4.1-4.9
	C115.6,331.9,114.3,333.7,113.1,335.6z M8.9,269.5c1.5-0.5,3.1-1.2,4.8-2.1C12.3,267.9,10.7,268.6,8.9,269.5z M147.6,135.3
	C147.6,135.3,147.6,135.3,147.6,135.3C147.6,135.3,147.6,135.3,147.6,135.3C147.6,135.3,147.6,135.3,147.6,135.3z M50.2,270.4
	c9.7-4.4,21.2-7.3,28.6-10.3C68.3,259.4,59.2,265.5,50.2,270.4z M0,142v2.9c15.5-8.5,24.7-2.1,38.5,3.5c-1.8-0.9-3.5-2.1-5.2-3.7
	C20.3,136.2,10.4,139.4,0,142z M43.1,150.2c-1.6-0.6-3.1-1.1-4.6-1.7C40,149.2,41.5,149.8,43.1,150.2z M94,125.1
	c-1.4-2.9-3-5.4-4.8-7.6C91,119.9,92.5,122.5,94,125.1z M250.3,172.8c-0.2-2.4-0.5-4.8-0.9-7.1C249.5,167.9,249.8,170.3,250.3,172.8
	z M483.8,0.2V0H481c-1.1,0.7-2.2,1.7-3.3,3.2c-4.7,5.1-7.6,12.6-14.6,14.9c-11-4.5-8-10.8-3.8-18.1h-3.8c-1.7,2.5-3.2,5.1-3.6,7.9
	c7.3,21.6-3.8,21.9-22.5,29.7c3.1,1.6,0.9,11.9,4,18.1c1.4,9-0.3,16.7-4,23.5c5.8-8,11.9-15.5,21-20.9c-4.9,2.6-9.9,4.8-14.6,6.8
	c-3.2-30.9-11.9-21.9,15.6-35.9c2.1-2,4.2-10.3,7.8-8.4c9,6.3,17.3-1,24.7,6.9v-5.7c-4.1,0.8-10.2-1.3-19.3-3.1
	C472.6,15.9,475.9,2.1,483.8,0.2z M386.5,70.1c-5.8,4-11.5,14-18.1,20c18.5-13.9,31.5-36.8,52.8-48.2c0.4-0.4,0.8-0.7,1.2-1
	C411.6,46.1,399.2,54.5,386.5,70.1z M422.3,40.8c2.5-1.2,4.8-2.3,7.1-3.2C428.2,36.9,426.1,37.7,422.3,40.8z"/></g></g></svg>