<?xml version="1.0" encoding="utf-8"?>
<!-- Generator: Adobe Illustrator 25.2.1, SVG Export Plug-In . SVG Version: 6.00 Build 0)  -->
<svg version="1.1" id="Layer_1" xmlns="http://www.w3.org/2000/svg" xmlns:xlink="http://www.w3.org/1999/xlink" x="0px" y="0px"
	 viewBox="0 0 300 300" style="enable-background:new 0 0 300 300;" xml:space="preserve">
<g>
	<g>
		<path d="M196.8,161.5c-22-0.3-44-0.7-66-1.1c-6.2-0.1-12.3-0.2-18.5-0.4c0.1,1,0.3,2,0.4,2.9c27.5-6.8,55.6-10.8,83.8-11.8
			c7.9-0.3,15.8-0.4,23.7-0.2c-0.4-0.8-0.9-1.5-1.3-2.3c-5.3,11.6-13.4,21.9-23.7,29.5c0.7,0.7,1.4,1.4,2.1,2.1
			c1.2-2.4,2.5-4.8,3.7-7.2c-0.9,0-1.7,0-2.6,0c9.7,17,18.3,34.6,26,52.6c0.6-0.7,1.1-1.5,1.7-2.2c-16.9-5.1-34-9.9-51.1-14.2
			c-17.2-4.4-34.5-8.3-51.9-11.9c-9.8-2-19.6-3.9-29.4-5.6c-1.9-0.3-2.7,2.3-0.8,2.9c17.9,5.3,36.4,8.4,55.1,9.3
			c5.3,0.3,10.5,0.3,15.8,0.2c1.4,0,1.9-1.6,1.1-2.6c-8-9.2-18.8-15.7-30.6-18.7c-5.8-1.5-11.9-2.1-17.8-1.7
			c-5.7,0.3-12.8,1.4-15.4,7.2c-1.1,2.5-1.3,5.5,0.4,7.8c1.6,2.2,5,1.8,6.9,0.4c5.7-3.9,2.1-11.9-0.1-16.8
			c-4.9-11-12.6-20.5-21.2-28.8c-8.8-8.5-18.5-16-28.2-23.5c-9.4-7.3-20-14.9-24.9-26.2c-2.2-5.1-2.9-10.7-1.7-16.1
			c1.2-5.3,4.1-10.1,7.9-14c8.2-8.5,19.8-12,31.3-10.2c12.6,2,23.9,9.3,32.4,18.6c9,9.9,15.2,22,20.5,34.2c1.3,3,2.6,6.1,3.8,9.2
			c0.6,1.5,3,1.4,2.9-0.4c-0.1-6.8,0.2-13.5,1.2-20.2c0.5-3.2,1-6.5,1.7-9.7c0.6-2.5,1.4-5.2,3.5-7c3.2-2.7,7.9-1.6,11.2,0.3
			c4.5,2.6,6.8,6.8,8.2,11.7c1.8,6.5,2,13.4,4.4,19.8c0.5,1.3,2.6,1.6,2.9,0c3.1-14.8,10.5-28.6,21.1-39.5c2.7-2.8,5.5-5.3,8.6-7.7
			c1.5-1.1,3-2.2,4.5-3.2c1.7-1.1,3.4-2.3,5.3-2.9c4.4-1.4,6,3,7.1,6.4c1.4,4.4,2.6,9,3.5,13.5c2.1,10.3,2.9,20.9,2.4,31.4
			c0,0.7,0.7,1.6,1.5,1.5c14.3-1.8,30.4,1.9,41.3,11.7c4.8,4.3,8.8,10.2,8.8,16.9c0,5.9-3.3,10.9-7.6,14.7
			c-5.2,4.5-11.6,7.6-17.9,10.2c-1,0.4-1.5,1.6-0.7,2.5c5.3,5.5,12.8,8.7,17.1,15.1c1.9,2.9,3.3,6.4,2.4,9.9
			c-0.7,2.9-2.7,5.1-5.1,6.7c-2.6,1.7-5.6,2.8-8.6,3.6c-3.9,1.1-7.8,1.8-11.8,2.6c-8.6,1.6-17.2,2.8-25.9,3.5
			c-9.8,0.8-19.6,1-29.4,0.6c-1.2,0-1.8,1.3-1.3,2.3c3,6.3,5.2,12.9,6.7,19.7c0.3-0.6,0.7-1.2,1-1.8c-24.9,5.9-51,5.6-75.8-0.6
			c-7-1.8-13.8-4-20.5-6.6c-0.7-0.3-1.7,0.3-1.8,1c-1,5.6-8,6.4-12.3,4.5c-3-1.3-5.5-3.5-7.9-5.8c-2.3-2.1-4.5-4.2-6.6-6.4
			c-4.2-4.4-8.1-9.4-9.7-15.4c-1.4-5.3-0.3-10.4,3.4-14.5c3.5-3.9,9-6.4,13.7-3.2c1.2,0.8,2.4-0.5,2.2-1.7
			c-1.6-9.4-3.1-18.8-4.7-28.3c-0.5-2.9-1.7-7,0-9.7c0.9-1.5,2.4-1.4,3.9-0.9c1.7,0.5,3.6,1.4,5.4,0.9c2.7-0.7,5.7-5.4,2.1-7
			c-1.7-0.8-3.3,1.8-1.5,2.6c0.3,0.2,0.2,0.1,0.2,0c0,0.1-0.1,0.3-0.2,0.4c-0.3,0.4-0.6,0.9-1.1,1.1c-1.4,0.6-3.6-0.8-5-1
			c-3.3-0.6-6,0.9-7,4.1c-1,3.2-0.3,6.6,0.3,9.8c0.7,4.5,1.5,9.1,2.2,13.6c0.8,5.1,1.7,10.2,2.5,15.3c0.7-0.6,1.5-1.1,2.2-1.7
			c-5-3.4-11-1.8-15.4,1.8c-4.6,3.8-7.5,9.9-6.7,15.9c0.8,7.1,4.8,13.1,9.5,18.3c2.4,2.7,5.1,5.3,7.8,7.8c2.7,2.5,5.5,5,8.8,6.6
			c3.3,1.5,7,2.1,10.5,0.8c3.1-1.2,5.8-3.6,6.4-7c-0.6,0.3-1.2,0.7-1.8,1c24.1,9.6,50.5,13.3,76.2,10.8c7.3-0.7,14.5-1.9,21.7-3.6
			c0.8-0.2,1.2-1.1,1-1.8c-1.6-7.1-4-13.9-7-20.5c-0.4,0.8-0.9,1.5-1.3,2.3c18.4,0.7,37-0.7,55.1-4.1c4.3-0.8,8.5-1.6,12.7-2.8
			c3.2-0.9,6.4-2,9.1-3.8c2.7-1.7,5-4.1,6.2-7.1c1.3-3.4,0.9-7.2-0.5-10.5c-3.8-8.7-13-12.3-19.3-18.9c-0.2,0.8-0.4,1.7-0.7,2.5
			c11.1-4.6,25.5-11.5,27.5-24.9c2.3-15.5-13-26.7-25.8-31.4c-8.6-3.2-18-4.2-27.1-3.1c0.5,0.5,1,1,1.5,1.5c0.4-10-0.3-20-2.1-29.9
			c-0.9-4.9-2.1-9.7-3.5-14.5c-1.1-3.6-2.3-8.1-6-9.7c-4.2-1.8-8.5,1.2-11.8,3.5c-3.3,2.3-6.5,4.8-9.5,7.5
			c-6,5.5-11.2,11.9-15.4,18.9c-4.7,7.9-8.2,16.5-10.1,25.5c1,0,1.9,0,2.9,0c-2.3-6.3-2.6-13.1-4.3-19.6c-1.5-5.5-4.2-10.2-9.1-13.3
			c-3.9-2.5-9.1-3.7-13.4-1.6c-5.6,2.8-6.5,10-7.4,15.5c-1.4,8.2-2,16.5-1.8,24.8c1-0.1,2-0.3,2.9-0.4
			c-9.5-23.4-21.3-48.7-45.5-59.9c-10.7-5-23.4-6.7-34.6-2c-9.9,4.1-18.4,12.5-21.4,23c-3.2,11.4,1.7,22.5,9.3,31
			c4,4.5,8.7,8.4,13.4,12.1c4.7,3.7,9.5,7.3,14.2,11c9.4,7.4,18.6,15.2,26.4,24.3c3.8,4.5,7.3,9.3,10.1,14.4c1.4,2.6,2.7,5.3,3.8,8
			c1,2.6,2.7,6.5,0.9,9.1c-0.6,0.8-1.6,1.5-2.6,1.6c-1.3,0.1-1.6-0.5-1.8-1.7c-0.5-2.7,1.2-5.3,3.5-6.6c2.6-1.6,5.8-2,8.8-2.2
			c3-0.2,5.9-0.2,8.9,0c11.7,1,23.2,5.7,32.2,13.3c2.2,1.9,4.3,3.9,6.2,6.1c0.4-0.9,0.7-1.7,1.1-2.6c-18.4,0.3-36.8-1.5-54.8-5.5
			c-5.1-1.1-10.2-2.5-15.3-4c-0.3,1-0.5,1.9-0.8,2.9c17.4,3.1,34.7,6.6,52,10.5c17.3,3.9,34.6,8.2,51.7,13
			c9.6,2.6,19.2,5.4,28.7,8.3c1.4,0.4,2.2-1.1,1.7-2.2c-7.6-18-16.3-35.6-26-52.6c-0.5-0.9-2.1-1-2.6,0c-1.2,2.4-2.5,4.8-3.7,7.2
			c-0.6,1.2,0.8,3,2.1,2.1c10.7-7.9,19.3-18.4,24.7-30.6c0.5-1-0.1-2.2-1.3-2.3c-28.4-0.5-56.8,1.8-84.7,7
			c-7.9,1.5-15.8,3.2-23.7,5.1c-1.7,0.4-1.3,2.9,0.4,2.9c22,0.5,44,0.9,66,1.2c6.2,0.1,12.3,0.2,18.5,0.3
			C198.7,164.5,198.7,161.5,196.8,161.5L196.8,161.5z"/>
	</g>
</g>
</svg>
