<?xml version="1.0" encoding="utf-8"?>
<!-- Generator: Adobe Illustrator 25.2.1, SVG Export Plug-In . SVG Version: 6.00 Build 0)  -->
<svg version="1.1" id="Layer_1" xmlns="http://www.w3.org/2000/svg" xmlns:xlink="http://www.w3.org/1999/xlink" x="0px" y="0px"
	 viewBox="0 0 300 300" style="enable-background:new 0 0 300 300;" xml:space="preserve">
<g>
	<g>
		<path d="M233.8,93c-2.3-12.6-10.6-23.3-20.2-31.3c-10.2-8.5-22.1-14.8-34.7-18.7c-12.7-3.9-26.2-5.5-39.4-4.4
			C126.7,39.7,114,43.2,103,50c-5.3,3.3-10.1,7.4-14,12.2c-4.2,5.1-7.3,11-9.5,17.2c-4.7,12.7-5.9,26.3-7.1,39.6
			c-2.5,28.9-3.2,59.4,7.5,86.8c8.6,22,24.8,42.1,47.2,50.9c13.7,5.4,28.8,5.8,43.3,4.1c11.2-1.3,22.7-4,32.2-10.3
			c4.3-2.9,8.2-6.7,10.7-11.3c2.9-5.2,4.1-11.2,3.3-17.1c-1.6-12.9-10.8-23.1-22.9-27.3c-5.9-2.1-12.5-2.9-18.8-2.1
			c-6,0.8-12.1,4-12.6,10.7c-0.2,2.8,1.1,5.4,3.4,7c2.5,1.7,5.8,1.8,8.7,1.9c7,0.3,14-0.2,20.9-1.3c13.7-2.2,27-7.2,38.8-14.5
			c10.6-6.6,21.2-15.8,24.4-28.3c2.8-11-0.5-24.2-11.3-29.6c-5.6-2.8-12-3.2-18-1.9c-6.3,1.3-12,4.5-17,8.6
			c-5.2,4.1-9.6,9.1-13.9,14.1c-0.7,0.9-0.3,2.7,1.1,2.6c12.4-1.6,26.9-4,34-15.7c2.9-4.8,4.3-10.8,2.6-16.2c-2-6.2-7.5-9.8-13-12.6
			c-12.8-6.6-27-10.4-41.4-11.4c-12.4-0.8-25.2,0.3-36.8,5.2c-11.3,4.7-21.6,13.2-24.4,25.7c-0.2,1,0.4,1.8,1.4,1.9
			c25,1.5,50.4-6.7,69.9-22.4c4.5-3.7,9.7-8.3,10.6-14.3c1-6.6-4.3-10.5-9.4-13.2c-9.9-5.2-21.4-7.3-32.5-6.4
			c-12.7,1-24.9,5.8-34.6,14.2c-1.2,1,0.1,2.8,1.5,2.5c5.4-1.2,10.9-2.8,15.2-6.5c3.6-3.1,5.8-8.2,4.9-13c-1-5.3-5.9-7.9-10.6-9.6
			c-4.4-1.7-9-2.9-13.7-3.7c-18.9-3.2-38.7,0.6-55.3,10.2C58.7,82,50.5,89.2,44.2,98c-0.5,0.8,0,2,0.9,2.2c9.8,2,19.9,2.2,29.8,0.4
			c4.9-0.9,9.6-2.2,14.3-4c2.3-0.9,4.5-1.9,6.7-3c2-1,4-2,5.6-3.6c3-3.1,2.7-7.4,0.1-10.6c-2.7-3.3-6.7-5-10.7-6
			c-7.5-1.9-15.4-1.6-22.8,0.4c-14.9,4-28,15.1-32.7,30c-4.6,14.7-0.7,31.3,8.8,43.3c4.9,6.2,11.2,10.9,18.6,13.8
			c9.5,3.7,19.9,4.2,29.9,3.6c2.5-0.2,5.1-0.4,7.6-0.6c-0.1-1-0.3-2-0.4-2.9c-13.8,2.7-26.3,11.2-34.3,22.8
			c-2.3,3.3-4.1,6.8-5.6,10.6c-0.4,0.9,0.6,1.9,1.4,1.9c27.7,0.4,55.6-4.2,81.7-13.5c7.3-2.6,14.5-5.6,21.5-8.9
			c1.1-0.5,0.9-2.6-0.4-2.7c-18.7-2.5-38.1,1.2-54.5,10.5c-2,1.2-4,2.4-6,3.7c-1.8,1.3-3.8,2.5-5.4,4.2c-1.4,1.5-2.8,3.5-2.7,5.6
			c0,2.1,1.5,3.7,3.4,4.4c2,0.7,4.4,0.7,6.5,0.7c2.3,0.1,4.6,0,6.9-0.2c4.5-0.4,8.9-1.3,13.1-2.6c9.7-3,18.6-8.4,25.6-15.7
			c0.9-0.9,0.4-2.1-0.7-2.5c-13.4-5.5-28.9-5-42,1c0.5,0.9,1,1.7,1.5,2.6c12.3-6.8,23.6-15.5,33.2-25.7c2.2-2.3,5.3-5.1,5.1-8.6
			c-0.1-2.7-2.3-4.6-4.9-5.1c-2.7-0.5-5.4,0.1-8,0.9c-2.9,1-5.7,2.3-8.2,3.9c-5,3.2-9.3,7.6-12.3,12.8c-1.5,2.5-2.7,5.2-3.5,8
			c-0.9,2.9-1.3,6.3,1,8.6c1.9,2,5,2.3,7.6,2.2c3-0.2,6.1-0.8,9.1-1.4c6.3-1.3,12.4-3.4,18.2-6.1c13.1-6,24.7-15.2,33.5-26.6
			c0.5-0.6,0.1-1.7-0.5-2.1c-16.3-7.4-36.2-5.3-51,4.8c-4.2,2.8-7.9,6.2-11,10.2c-0.9,1.2-0.1,2.8,1.5,2.5
			c14-2.3,27.7-6.8,40.2-13.5c1.3-0.7,0.7-2.8-0.8-2.8c-7.3,0.1-14.6,1.3-21.5,3.5c-6.8,2.2-13.7,5.2-19.4,9.5
			c-2.3,1.7-3.9,4.7-1.7,7.2c1.9,2.2,5.1,2.5,7.8,2.6c7.1,0.2,14.2-0.7,21-2.7c7.7-2.3,14.9-5.9,21.3-10.8c0.9-0.7,1-2.5-0.4-2.7
			c-8-1.6-16.4,5.2-16.1,13.5c0,0.8,0.7,1.5,1.5,1.5c20.1-0.8,40.2-1.6,60.3-2.5c5.6-0.2,11.3-0.5,16.9-0.7
			c-0.4-0.8-0.9-1.5-1.3-2.3c-4.5,7.2-8.8,14.4-13.2,21.7c-0.7,1.2,0.5,2.4,1.7,2.2c17.7-3.4,34.7-10.6,49.5-20.9
			c1.3-0.9,0.7-2.6-0.8-2.8c-21.3-2.6-43.3,1-62.8,10c-4.9,2.2-9.6,4.8-14.2,7.7c-4.4,2.8-8.8,5.9-12.6,9.5
			c-3.4,3.2-6.9,7.9-6.4,12.9c0.6,5.3,5.5,7.8,10.2,8.7c12.8,2.5,26.4,0.5,38.2-4.8c1.5-0.7,0.4-3.4-1.2-2.7
			c-10.6,4.4-20.3,10.9-28.3,19.1c-1,1-0.2,2.4,1.1,2.6c6.6,0.7,13.3-1.9,17.8-6.8c0.5-0.6,0.6-1.6,0-2.1c-4.9-4.1-12.7-3-16.2,2.3
			c-0.7,1,0.2,2.2,1.3,2.3c18.5,0.3,37-2.3,54.7-7.8c1.6-0.5,1.3-2.9-0.4-2.9c-21.6-0.6-43.1,3.6-62.9,12.2
			c-5.6,2.4-11,5.3-16.3,8.4c-1.6,0.9-0.4,3,1.2,2.7c15.4-2.3,30.4-7.3,44-14.8c3.9-2.1,7.7-4.5,11.4-7c1.2-0.8,0.8-2.7-0.8-2.8
			c-16.8-0.8-33.7,3.8-47.8,12.8c-4,2.6-7.8,5.5-11.3,8.7c-1,0.9-0.2,2.5,1.1,2.6c11.4,0.2,22.8-2.8,32.6-8.6
			c1.4-0.9,0.5-3.3-1.2-2.7c-2.3,0.7-4.6,0.8-7,0.2c-1.9-0.5-2.7,2.4-0.8,2.9c2.8,0.8,5.8,0.7,8.6-0.2c-0.4-0.9-0.8-1.8-1.2-2.7
			c-9.4,5.6-20.2,8.4-31.1,8.2c0.4,0.9,0.7,1.7,1.1,2.6c11.9-10.9,27.3-18,43.4-20c4.5-0.6,9.1-0.7,13.7-0.5
			c-0.3-0.9-0.5-1.9-0.8-2.8c-12.7,8.7-26.9,15.1-41.8,18.9c-4.3,1.1-8.6,1.9-12.9,2.6c0.4,0.9,0.8,1.8,1.2,2.7
			c18.1-10.9,38.7-17.7,59.8-19.7c5.9-0.6,11.9-0.7,17.9-0.6c-0.1-1-0.3-2-0.4-2.9c-17.4,5.4-35.6,8-53.9,7.7
			c0.4,0.8,0.9,1.5,1.3,2.3c2.4-3.6,8.1-4.5,11.5-1.7c0-0.7,0-1.4,0-2.1c-4,4.3-9.8,6.5-15.7,5.9c0.4,0.9,0.7,1.7,1.1,2.6
			c7.6-7.9,16.8-14.2,26.9-18.4c-0.4-0.9-0.8-1.8-1.2-2.7c-9.9,4.5-21,6.3-31.9,5.1c-4.1-0.4-10.5-1-11.9-5.8
			c-1.3-4.4,2.8-9,5.8-11.8c3.6-3.3,7.8-6.2,11.9-8.8c4.2-2.7,8.6-5.1,13.1-7.2c9-4.2,18.6-7.2,28.4-9c11.1-2,22.4-2.3,33.6-0.9
			c-0.3-0.9-0.5-1.9-0.8-2.8c-14.7,10.2-31.3,17.2-48.8,20.6c0.6,0.7,1.1,1.5,1.7,2.2c4.3-7.3,8.7-14.5,13.2-21.7
			c0.6-0.9-0.2-2.3-1.3-2.3c-20.1,0.8-40.2,1.6-60.3,2.5c-5.6,0.2-11.3,0.5-16.9,0.7c0.5,0.5,1,1,1.5,1.5
			c-0.2-6.2,6.1-11.8,12.3-10.6c-0.1-0.9-0.2-1.8-0.4-2.7c-10.1,7.7-22.4,12.3-35.1,13c-2.9,0.2-6.1,0.4-9-0.3
			c-0.8-0.2-2-0.6-2.5-1.4c-0.7-1.1,0.6-2.1,1.4-2.7c5.2-3.8,11.3-6.6,17.4-8.6c7-2.3,14.3-3.6,21.7-3.7c-0.3-0.9-0.5-1.9-0.8-2.8
			c-12.4,6.5-25.7,10.9-39.5,13.2c0.5,0.8,1,1.7,1.5,2.5c10.5-13.3,27.9-20.1,44.7-18.2c4.7,0.5,9.4,1.8,13.7,3.7
			c-0.2-0.7-0.4-1.4-0.5-2.1c-7,9.1-16,16.7-26.1,22.3c-5,2.8-10.4,5.1-15.9,6.8c-5.2,1.6-10.8,3.1-16.2,3.4c-2,0.1-5,0.1-6-2
			c-1.1-2.3,0.5-5.9,1.4-8.1c2-4.9,5.3-9.3,9.3-12.8c4-3.5,8.8-6.2,14-7.4c1.8-0.4,4.7-0.8,6.1,0.8c2,2.2-1.6,5.4-2.9,6.8
			c-9.6,10.4-20.9,19.2-33.3,26.1c-1.7,0.9-0.2,3.4,1.5,2.6c12.5-5.7,27.1-5.8,39.7-0.7c-0.2-0.8-0.4-1.7-0.7-2.5
			c-11.4,11.8-27.9,18.3-44.3,17.6c-1.6-0.1-4.3,0.1-5.6-1c-1.4-1.3,0.3-3.4,1.2-4.5c1.4-1.5,3.2-2.7,4.9-3.8
			c1.8-1.2,3.6-2.3,5.4-3.4c7.5-4.3,15.6-7.4,24-9.3c9.4-2.1,19.2-2.5,28.8-1.2c-0.1-0.9-0.2-1.8-0.4-2.7
			c-24.7,11.7-51.6,18.9-78.8,21.2c-7.6,0.6-15.2,0.9-22.9,0.8c0.5,0.6,1,1.3,1.4,1.9c4.9-12.3,14.9-22.4,26.9-27.8
			c3.5-1.6,7.1-2.7,10.8-3.4c1.6-0.3,1.3-3.1-0.4-2.9c-17.1,1.8-36.1,1.6-49.4-10.8c-10.3-9.6-15.8-24.3-14.1-38.3
			c1.7-14.4,11.7-26.3,24.6-32.3c6.4-3,13.5-4.5,20.5-4.3c3.6,0.1,7.1,0.7,10.5,1.8c3.2,1,7.5,3.3,8.3,6.9c0.9,4.1-4.3,6.3-7.2,7.7
			c-4.2,2-8.6,3.6-13.1,4.8c-8.9,2.3-18.3,3-27.5,2c-2.3-0.3-4.6-0.6-6.9-1.1c0.3,0.7,0.6,1.5,0.9,2.2C57.2,85.1,73,75.1,90.1,70.7
			c8.5-2.2,17.4-3,26.2-2.3c4.4,0.4,8.8,1.1,13,2.3c2.1,0.6,4.3,1.3,6.3,2c2.2,0.8,4.6,1.7,6.4,3.3c4,3.4,3,9.2,0,13
			c-3.7,4.5-9.9,6-15.4,7.2c0.5,0.8,1,1.7,1.5,2.5c15.9-13.8,39.7-17.3,59.1-9.3c2.5,1,4.8,2.2,7.1,3.6c2.4,1.4,4.7,3.4,5.2,6.3
			c1,5.6-4.5,10.6-8.3,13.8c-9,7.5-19.4,13.4-30.4,17.3c-12.4,4.4-25.6,6.3-38.8,5.5c0.5,0.6,1,1.3,1.4,1.9
			c2.2-10.1,9.9-17.4,18.9-22c10.1-5.2,21.5-6.9,32.8-6.9c13.4,0,26.8,2.7,39.2,7.8c3.1,1.3,6.2,2.7,9.1,4.3c2.6,1.4,5.1,3,7.1,5.2
			c3.7,4.1,4,9.8,2.2,14.8c-4.8,13.6-20.7,16.3-33.2,18c0.4,0.9,0.7,1.7,1.1,2.6c8.1-9.3,17.2-19.5,29.9-21.9
			c5.5-1.1,11.5-0.6,16.5,2.3c4.6,2.7,7.6,7.3,8.9,12.5c2.9,11.7-3,22.7-11.3,30.6c-9.2,8.7-21.1,15-33.1,19
			c-12.4,4.2-25.8,6.2-38.9,5.3c-2.5-0.2-5.7-0.6-6.9-3.1c-1-2.2-0.2-5,1.3-6.8c3.9-4.4,11.6-4.2,16.9-3.6
			c11.9,1.2,23.2,8.2,27.7,19.5c2.2,5.4,2.8,11.5,1.2,17.1c-1.3,4.8-4.2,9.1-7.9,12.5c-7.6,7-18.1,10.4-28.1,12.2
			c-13.3,2.4-27.6,2.9-40.8-0.4c-22.4-5.6-39.5-22.9-49.6-43c-12.2-24.3-13.7-52.3-12.3-79c0.4-7.1,0.9-14.2,1.6-21.3
			c0.6-6.3,1.3-12.6,2.6-18.8c2.4-12,6.7-23.9,15.2-33c8.2-8.7,19.3-14.2,30.8-17.2c12.1-3.2,24.8-3.7,37.2-2
			c12.4,1.7,24.4,5.7,35.3,11.8c10.6,5.9,20.8,13.8,27.5,24.1c3.1,4.8,5.4,10.1,6.4,15.7C231.2,95.7,234.1,94.9,233.8,93L233.8,93z"
			/>
	</g>
</g>
</svg>
