<?xml version="1.0" encoding="utf-8"?>
<!-- Generator: Adobe Illustrator 25.2.1, SVG Export Plug-In . SVG Version: 6.00 Build 0)  -->
<svg version="1.1" id="Layer_1" xmlns="http://www.w3.org/2000/svg" xmlns:xlink="http://www.w3.org/1999/xlink" x="0px" y="0px"
	 viewBox="0 0 300 300" style="enable-background:new 0 0 300 300;" xml:space="preserve">
<g>
	<g>
		<path d="M93.9,212.4c14.3-10,28.7-20,43-30.1c14.3-10,28.5-20,42.8-29.9c8.1-5.7,16.2-11.4,24.4-17c1.1-0.7,0.9-2.3-0.4-2.7
			c-24.8-8.2-49.2-17.3-73.3-27.4c-23.9-10-47.5-21-70.6-32.8c-13-6.7-25.9-13.7-38.7-20.9c-1.4-0.8-3.2,1.3-1.8,2.4
			c25.3,19.8,49.9,40.5,73.2,62.6c20.3,19.2,39.7,40.1,54,64.3c8,13.5,14.2,27.9,17.9,43.1c0.4,1.6,3,1.3,2.9-0.4
			c-0.6-19.2-0.6-38.4,0-57.7c0.6-19.1,1.8-38.2,3.5-57.3c1-10.8,2.2-21.6,3.5-32.4c-1,0.1-2,0.3-2.9,0.4c4.3,22.8,5.9,45.9,5.9,69
			c0,23.2-1.6,46.4-3.7,69.5c-1.2,13.1-2.6,26.1-4,39.2c-0.1,1.2,1.4,1.8,2.3,1.3c11.3-6.6,22.6-13.3,33.9-19.9
			c5.6-3.3,11.1-6.5,16.7-9.8c5.4-3.2,10.8-6.7,16.4-9.6c2.5-1.2,5.8-2.5,8.4-1c1.8,1.1,3.3,3.4,2,5.4c0.4-0.2,0.9-0.5,1.3-0.7
			c-18.6-1.8-37.3-3.3-55.9-4.6c-18.6-1.2-37.2-2.2-55.8-2.8c-10.5-0.4-21.1-0.7-31.6-0.9c-1.5,0-2,2-0.8,2.8
			c6.6,3.9,13.9,6,21.3,7.5c8.1,1.7,16.4,3,24.6,4.4c17.2,3,34.3,6.1,51.5,9.1c9.7,1.7,19.4,3.4,29.1,5.1c1.9,0.3,2.7-2.3,0.8-2.9
			c-15-5-29.4-11.7-42.9-20c-6.3-3.9-12.9-8-18.3-13.1c-2.5-2.3-4.7-5-6.2-8.1c-1.7-3.5-2-7.4-1.6-11.2c0.5-4.1,1.8-8,3.3-11.8
			c1.5-3.8,3-7.6,4.6-11.4c3.2-7.7,6.4-15.3,9.8-22.8c6.7-15,13.9-29.9,21.6-44.5c7.6-14.6,15.7-29,24.2-43.1
			c1.1-1.8,2.2-3.6,3.3-5.4c-0.9-0.1-1.8-0.2-2.7-0.4c6.4,21.4,12.8,42.8,19.2,64.2c6.4,21.4,12.8,42.8,19.2,64.2
			c3.6,12.1,7.2,24.1,10.8,36.2c0.6,1.8,3.4,1.1,2.9-0.8c-6.4-21.4-12.8-42.8-19.2-64.2c-6.4-21.4-12.8-42.8-19.2-64.2
			c-3.6-12.1-7.2-24.1-10.8-36.2c-0.4-1.2-2.1-1.5-2.7-0.4c-8.9,14.5-17.3,29.2-25.2,44.2c-7.9,14.9-15.4,30.1-22.3,45.5
			c-3.5,7.7-6.9,15.5-10.1,23.3c-1.6,3.9-3.2,7.8-4.8,11.7c-1.6,3.9-3.1,7.9-4.1,12.1c-0.9,3.9-1.2,8-0.3,12
			c0.8,3.5,2.5,6.7,4.7,9.5c4.5,5.7,11,9.9,17,13.9c13.6,8.9,28.2,16.3,43.4,21.8c1.9,0.7,3.8,1.4,5.7,2c0.3-1,0.5-1.9,0.8-2.9
			c-17-3-34-6-51-9c-16.9-3-33.7-5.8-50.6-9c-8.4-1.6-16.8-3.6-24.2-7.9c-0.3,0.9-0.5,1.9-0.8,2.8c18.7,0.4,37.4,1,56.1,1.9
			c18.6,0.9,37.2,2.1,55.7,3.6c10.5,0.8,21,1.8,31.5,2.8c0.5,0.1,1-0.3,1.3-0.7c2.8-4.2-1.2-9.7-5.6-10.4c-3.1-0.6-6.2,0.5-9,1.9
			c-3.1,1.6-6.1,3.5-9.1,5.2c-12.3,7.2-24.7,14.5-37,21.7c-7,4.1-14,8.2-21,12.3c0.8,0.4,1.5,0.9,2.3,1.3c2.5-23.3,5-46.6,6.5-69.9
			c1.5-23.3,1.9-46.6,0.2-69.9c-0.9-13-2.5-25.9-4.9-38.7c-0.3-1.8-2.8-1.1-2.9,0.4c-2.4,19.1-4.3,38.2-5.5,57.4
			c-1.2,19.1-1.9,38.2-2,57.4c0,10.9,0.1,21.7,0.4,32.5c1-0.1,2-0.3,2.9-0.4c-3.3-13.5-8.6-26.6-15.3-38.8
			c-6.8-12.3-14.9-23.8-23.8-34.6c-9.1-11.1-19-21.4-29.3-31.4c-11-10.6-22.5-20.9-34.1-30.9C52.2,76.6,39.4,66,26.4,55.6
			c-1.6-1.3-3.3-2.6-4.9-3.9c-0.6,0.8-1.2,1.6-1.8,2.4c22.7,12.9,46,25,69.7,36.1c23.7,11.1,47.7,21.3,72.2,30.6
			c13.7,5.2,27.5,10.1,41.4,14.7c-0.1-0.9-0.2-1.8-0.4-2.7c-14.3,10-28.7,20-43,30.1c-14.3,10-28.5,20-42.8,29.9
			c-8.1,5.7-16.2,11.4-24.4,17C90.8,210.9,92.3,213.5,93.9,212.4L93.9,212.4z"/>
	</g>
</g>
</svg>
