<?xml version="1.0" encoding="utf-8"?>
<!-- Generator: Adobe Illustrator 25.2.1, SVG Export Plug-In . SVG Version: 6.00 Build 0)  -->
<svg version="1.1" id="Layer_1" xmlns="http://www.w3.org/2000/svg" xmlns:xlink="http://www.w3.org/1999/xlink" x="0px" y="0px"
	 viewBox="0 0 300 300" style="enable-background:new 0 0 300 300;" xml:space="preserve">
<g>
	<g>
		<path d="M147.7,135.4c7.1-13.7,10.8-29.1,10.7-44.5c-0.1-7.2-0.5-15.3-3.9-21.8c-2.9-5.4-8-8.9-13.8-10.4
			c-12.2-3.2-25.2,0.9-36.3,6c-11.9,5.5-22.8,13.6-31.6,23.4c-9.1,10.1-16.5,22.2-20,35.4c-1.9,7.1-2.6,14.5-1.2,21.8
			c1.3,6.9,4.6,13.1,9.3,18.1c4.5,4.9,10.2,8.6,16,11.8c6.5,3.6,13.3,6.6,20.1,9.5c14.7,6.4,29.7,12.1,45,17.1
			c15.4,5,31,9.2,46.7,12.5c15.7,3.4,31.5,6,47.5,7.7c3.9,0.4,7.8,0.8,11.7,1.2c1.4,0.1,1.9-1.7,1.1-2.6c-9.1-9.5-24.2-7.3-34.7-1.6
			c-6.6,3.6-12.4,8.4-18.5,12.7c-3.1,2.2-6.2,4.3-9.6,5.9c-3.8,1.7-7.5,2-11.5,1c-7.5-1.9-14.7-5.4-21.6-8.7c-7-3.3-13.9-6.8-21-9.8
			c-12.3-5.3-25.2-9-38.8-7.9c-11.5,0.9-23.2,5.2-30.7,14.3c-0.9,1.1-1.8,2.3-2.6,3.6c-0.6,1,0.2,2.3,1.3,2.3
			c18,0,35.9,0.7,53.8,2.1c5.1,0.4,10.2,0.9,15.3,1.4c-0.1-1-0.3-2-0.4-2.9c-8.2,2.8-16.9,4-25.5,3.4c-4.2-0.3-8.4-1-12.5-2.1
			c-2.1-0.6-4.1-1.2-6.1-2c-1.6-0.6-3.4-1.4-4.3-2.9c-2-3.2,1.7-6.7,4-8.5c3.2-2.4,7-4.3,10.5-6.1c7.3-3.8,14.8-7.1,22.4-10.1
			c15.4-6.1,31.2-11,46.7-16.8c7.7-2.9,15.3-6,22.7-9.5c7.3-3.5,14.6-7.3,21.1-12c6.2-4.4,12-9.9,15.2-16.9c3-6.5,3.9-14.4,1.1-21.1
			c-0.7-1.7-1.6-3.2-2.7-4.7c-1.2-1.5-3.8,0-2.6,1.5c4.6,6,4.8,14.1,2.3,21c-2.7,7.3-8.6,13.1-14.8,17.6c-6.6,4.8-14,8.6-21.3,12.1
			c-7.6,3.6-15.3,6.7-23.2,9.6c-15.8,5.8-31.9,10.9-47.5,17.2c-7.7,3.1-15.3,6.5-22.6,10.5c-3.5,1.9-7.3,3.8-10.4,6.4
			c-2.6,2.2-5.1,5.5-4.4,9.2c0.7,3.9,4.6,5.6,8,6.8c4.1,1.5,8.4,2.6,12.7,3.2c8.6,1.3,17.4,1,25.8-1.1c2.1-0.5,4.2-1.1,6.2-1.8
			c1.7-0.6,1.3-2.8-0.4-2.9c-17.9-1.9-35.8-3-53.7-3.4c-5.1-0.1-10.2-0.2-15.3-0.1c0.4,0.8,0.9,1.5,1.3,2.3
			c6.1-9.7,17-14.7,28.1-16.1c12.8-1.6,25.3,1.3,37.1,6.1c14,5.6,27,13.3,41.2,18.4c3.6,1.3,7.4,2.6,11.3,2.3
			c3.7-0.3,7.1-1.7,10.3-3.6c6.3-3.7,11.9-8.4,17.9-12.6c5.5-3.8,11.3-7.2,17.9-8.5c5.7-1.1,12.1-0.8,17.2,2.4
			c1.2,0.8,2.3,1.7,3.3,2.7c0.4-0.9,0.7-1.7,1.1-2.6c-15.4-1.4-30.8-3.5-46-6.3c-15.3-2.9-30.4-6.5-45.3-10.8
			c-14.8-4.3-29.5-9.3-43.8-15c-7.2-2.9-14.4-5.9-21.5-9.2c-6.1-2.8-12.2-5.7-17.9-9.3c-5.4-3.4-10.4-7.6-14-12.9
			c-3.8-5.7-5.5-12.4-5.5-19.3c0-13.7,6.1-27,13.8-38C74.8,89,84.2,80.1,94.9,73.3c5.4-3.4,11.1-6.3,17-8.5
			c5.6-2.1,11.5-3.8,17.5-4.1c5.5-0.3,11.3,0.4,16.1,3.3c5.7,3.5,8.1,9.6,9,16c2.1,14.6,0,30.1-5.1,43.9c-1.3,3.4-2.8,6.7-4.4,10
			C144.2,135.6,146.8,137.1,147.7,135.4L147.7,135.4z"/>
	</g>
</g>
</svg>
