<?xml version="1.0" encoding="utf-8"?>
<!-- Generator: Adobe Illustrator 25.2.1, SVG Export Plug-In . SVG Version: 6.00 Build 0)  -->
<svg version="1.1" id="Layer_1" xmlns="http://www.w3.org/2000/svg" xmlns:xlink="http://www.w3.org/1999/xlink" x="0px" y="0px"
	 viewBox="0 0 300 300" style="enable-background:new 0 0 300 300;" xml:space="preserve">
<g>
	<g>
		<path d="M91.4,83.2C82.2,72,70.1,63.1,56.6,57.6c-6.1-2.5-14.3-4-19.2,1.7c-3.7,4.3-4.3,10.9-2.2,16.1c2.6,6.3,8.5,10.5,14.5,13.4
			c7.2,3.4,14.9,5.7,22.7,7c7.1,1.1,14.8,1.9,21.9,0.4c5.8-1.3,11.4-5,12.2-11.3c0.7-5.5-2.4-11.5-7.7-13.5c-5.4-2.1-12,0.6-15,5.4
			c-0.7,1.2-1.3,2.5-1.5,3.9c-0.1,0.7,0.1,1.3,0.7,1.7c6.2,4.7,15.7,2.9,20.1-3.4c-0.9-0.3-1.9-0.5-2.8-0.8
			c-1.8,14-3.1,30.9,8.2,41.5c2.9,2.7,6.3,4.9,9.5,7.3c3.4,2.5,6.1,5.6,8.5,9c2.5,3.7,4.7,7.6,7,11.4c2.4,4.1,4.8,8.1,7.3,12.2
			c5.6,9.4,11.1,18.7,16.7,28.1c0.4-0.8,0.9-1.5,1.3-2.3c-16.8,2.2-33.7,3.8-50.7,4.6c-17,0.9-34.1,1.1-51.1,0.6
			c-9.6-0.3-19.2-0.8-28.7-1.5c0.4,0.8,0.9,1.5,1.3,2.3c5.8-13.4,13.3-26.1,22.2-37.7c8.9-11.6,19.3-22,30.8-31.1
			c2.9-2.2,5.8-4.4,8.8-6.5c3.2-2.2,6.7-4.4,10.6-4.9c5.8-0.7,9.8,3.2,12.4,7.8c2.7,4.9,4.4,10.3,7.2,15.2c2.7,4.7,6.4,8.2,11.6,9.9
			c9.6,3.3,21.9-0.2,27.4-8.9c0.7-1.1,1.2-2.3,1.7-3.5c-1-0.3-1.9-0.5-2.9-0.8c-2.4,9.7-3,20.3,0.2,29.9c2.9,8.6,9,16,17.3,19.8
			c4,1.8,8.4,2.8,12.7,2.5c2.5-0.2,4.8-0.8,7.2-1.4c2.5-0.6,5.1-1.3,7.7-0.8c4.9,1,7.7,6.5,9.9,10.5c2.5,4.6,4.6,9.4,6.1,14.4
			c1.2,4.2,3.3,10.3,0,14c-2.9,3.4-8.3,4-12.4,4.9c-11.3,2.7-22.7,5-34.1,6.9c-11.4,2-22.8,3.6-34.3,4.8
			c-11.3,1.2-22.7,2.6-34.1,2.4c-5.6-0.1-11.2-0.7-16.5-2.2c-4.6-1.3-9-3.3-13.2-5.8c-8.4-5-15.7-11.6-22.7-18.4
			c-1.7-1.7-3.4-3.4-5.1-5.1c-0.5,0.8-1,1.7-1.5,2.5c26.6,4.7,53.3,9.5,79.9,14.2c6.7,1.2,13.4,2.4,20.1,3.6
			c3.3,0.6,6.5,1.2,9.8,1.7c2.8,0.5,5.5,1.1,8.4,1.1c2.6,0,5.2-0.4,7.4-1.8c2.2-1.4,3.7-3.7,4.7-6.1c2.2-5.3,2.5-11.4,2.3-17.1
			c-0.5-11.7-3.9-23.5-2.2-35.2c1.4-9.6,7-18.4,14.9-24.1c3.9-2.8,8.2-5,12.8-6.2c2.3-0.6,4.7-1,7.1-1.1c2.5-0.1,5.2-0.4,6.4-3
			c1.1-2.4,0.7-5.4,0.4-7.9c-0.4-2.8-1-5.6-2-8.3c-1.9-5.5-4.7-10.5-7.9-15.4c-6.6-10-14.3-19.4-22.3-28.4
			c-8-8.9-16.6-17.3-25.6-25.2c-2.2-1.9-4.5-3.8-6.8-5.7c-1.5-1.2-3.4,0.6-2.1,2.1c10.9,12.6,24.2,22.8,38.1,31.9
			c14.1,9.1,28.9,17.1,43.3,25.6c7.3,4.2,14.5,8.6,21.5,13.3c3.5,2.3,6.9,4.7,10.2,7.2c1.6,1.2,3.3,2.4,4.4,4
			c1.4,1.9,1.4,4.1,0.6,6.3c-0.9,2.4-2.4,4.5-3.6,6.6c-1.4,2.3-2.7,4.6-4.1,6.8c-2.7,4.5-5.4,9-8.1,13.5c-5.4,9-10.8,18-16.1,26.9
			c-5.4,9-10.8,18.1-16.3,27.1c-4.2,7-10,15.1-8.6,23.7c0.3,1.9,1.1,3.7,2.3,5.3c0.3-0.7,0.6-1.5,0.9-2.2c-16.8,5-34.2,7.9-51.8,8.5
			c-4.9,0.2-9.9,0.2-14.8,0c0.3,0.9,0.5,1.9,0.8,2.8c11.5-5.7,24.1-9.2,36.9-10.3c10.7-0.9,23.5-0.8,30.1-10.9
			c2.9-4.4,3.9-10.1,1.1-14.8c-1-1.7-3.6-0.2-2.6,1.5c2.3,3.8,1.2,8.4-1.2,11.9c-2.9,4.3-7.4,6.5-12.3,7.6
			c-5.5,1.3-11.3,1.3-16.9,1.8c-6,0.6-11.9,1.7-17.7,3.3c-6.5,1.8-12.9,4.2-18.9,7.2c-1.4,0.7-0.6,2.8,0.8,2.8
			c17.7,0.6,35.5-1.1,52.8-4.9c4.9-1.1,9.8-2.3,14.6-3.8c0.8-0.2,1.5-1.4,0.9-2.2c-5.3-7.1,0.7-16.5,4.4-22.8
			c5.4-9,10.8-18.1,16.3-27.1s10.8-18.1,16.3-27.1c5.4-9,11-17.9,16.2-27c2.3-4,3.6-8.6,0.6-12.6c-1.2-1.6-2.9-2.9-4.5-4.1
			c-1.7-1.3-3.4-2.5-5.1-3.8c-6.8-4.8-13.8-9.3-21-13.6c-14.5-8.7-29.3-16.6-43.7-25.5c-14.1-8.7-27.7-18.5-39.2-30.5
			c-1.5-1.5-2.9-3.1-4.2-4.7c-0.7,0.7-1.4,1.4-2.1,2.1c18.3,14.8,34.7,31.9,48.8,50.8c6.6,8.9,13.5,18.8,14.9,30.2
			c0.2,1.3,0.3,2.7,0.3,4c0,1.1,0,2.6-1.1,3.2c-1,0.6-2.4,0.4-3.5,0.5c-1.2,0.1-2.4,0.2-3.6,0.4c-4.7,0.7-9.2,2.4-13.3,4.7
			c-8.2,4.6-14.7,12-18.2,20.8c-4.2,10.6-2.4,22-1.1,32.9c0.7,5.7,1.4,11.4,1,17.1c-0.2,2.8-0.6,5.5-1.5,8.2c-0.8,2.5-2,5-4.3,6.4
			c-2.2,1.3-4.9,1.3-7.3,1.1c-2.9-0.3-5.9-0.9-8.8-1.4c-6.5-1.2-13.1-2.3-19.6-3.5c-25.9-4.6-51.8-9.2-77.7-13.8
			c-3.2-0.6-6.4-1.1-9.6-1.7c-1.4-0.3-2.6,1.4-1.5,2.5c7.1,7.1,14.3,14.2,22.5,20.1c8.3,6,17.7,10.2,27.9,11.6
			c11.4,1.6,23.1,0.3,34.5-0.8c11.7-1.1,23.4-2.6,35-4.4c11.6-1.8,23.2-4,34.7-6.5c2.9-0.6,5.7-1.3,8.6-1.9c2.5-0.6,5-1.1,7.5-1.9
			c4.4-1.5,8-4.4,8.7-9.2c0.6-4.9-1.2-10.3-2.8-14.8c-1.8-5-4-9.9-6.8-14.4c-2.5-4.1-5.6-8.5-10.7-9.3c-5.3-0.8-10.2,1.9-15.4,2.2
			c-8.9,0.5-17.5-4.6-22.6-11.7c-5.9-8.3-7.2-19.1-5.9-29c0.3-2.6,0.8-5.1,1.5-7.6c0.5-1.9-2.2-2.6-2.9-0.8
			c-3.6,9.5-15.7,13.4-24.9,10.5c-11.1-3.4-12.8-16-18-24.8c-2.8-4.6-6.9-8.3-12.6-8.5c-3.9-0.1-7.6,1.5-10.9,3.4
			c-3.2,1.9-6.2,4.1-9.2,6.4c-11.6,8.7-22.2,18.9-31.4,30.1c-9.2,11.3-17,23.6-23.2,36.8c-0.8,1.6-1.5,3.3-2.2,5
			c-0.5,1.1,0.1,2.2,1.3,2.3C45,193.5,62,194,79,193.9c17-0.1,34.1-0.9,51.1-2.4c9.6-0.8,19.1-1.9,28.6-3.1c1.1-0.1,1.9-1.2,1.3-2.3
			c-9.6-16.2-19-32.5-28.9-48.6c-2.1-3.5-4.5-6.9-7.4-9.8c-2.8-2.8-6.2-4.9-9.3-7.2c-3-2.2-5.8-4.8-7.8-8c-1.8-3-2.9-6.3-3.6-9.7
			c-1.6-8.1-0.6-16.6,0.4-24.7c0.2-1.6-2-1.8-2.8-0.8c-3.6,5-11.2,5.9-16,2.3c0.2,0.6,0.5,1.1,0.7,1.7c0.9-4.8,5.9-8.4,10.8-7.7
			c4.9,0.6,7.9,5.6,7.7,10.2c-0.3,5.5-5.4,8.4-10.2,9.4c-6.2,1.3-13,0.6-19.2-0.3C67,91.9,60,90,53.4,87.1
			c-5.5-2.3-11.1-5.5-14.3-10.8c-2.5-4.1-2.9-9.6-0.4-13.8c3.4-5.7,10.6-4.6,15.9-2.6c13.5,5.1,25.5,14.3,34.7,25.3
			C90.6,86.8,92.7,84.7,91.4,83.2L91.4,83.2z"/>
	</g>
</g>
</svg>
