<?xml version="1.0" encoding="utf-8"?>
<!-- Generator: Adobe Illustrator 25.2.1, SVG Export Plug-In . SVG Version: 6.00 Build 0)  -->
<svg version="1.1" id="Layer_1" xmlns="http://www.w3.org/2000/svg" xmlns:xlink="http://www.w3.org/1999/xlink" x="0px" y="0px"
	 viewBox="0 0 300 300" style="enable-background:new 0 0 300 300;" xml:space="preserve">
<g>
	<g>
		<path d="M142.7,164.5c-7.6,12.2-20.1,20.2-33.4,24.9c-6.9,2.5-14,4.1-21.3,5.2c-6.6,1-13.5,1.4-20.1,0.3c-6.2-1-12.4-3.5-16.6-8.4
			c-5.1-6-5.7-14.4-5.7-22c-0.1-18.6,0.8-37.3,2.6-55.9c1.7-18.7,4.4-37.4,7.9-55.8c0.4-2.3,0.9-4.6,1.4-7c-0.8,0.2-1.7,0.4-2.5,0.7
			c11.5,12.1,23.5,23.7,35.9,34.8c12.4,11.1,25.2,21.8,38.4,31.9c6.6,5.1,13.3,10,20.1,14.8c6.7,4.8,13.5,9.6,20.8,13.5
			c7,3.8,14.6,6.9,22.6,7.5c7,0.6,14.1-1.1,20-4.9c10.6-6.8,16.6-19.1,18.8-31.2c2.6-13.9,1.3-30.6-8.5-41.6
			c-4.6-5.2-11.2-8.9-18.2-9.5c-7.6-0.6-14.6,3-20.2,7.9c-9.9,8.6-15.4,21.5-16.3,34.5c-0.9,13.4,3.6,26.3,12.5,36.3
			c9.3,10.5,22.2,17.2,34.9,22.8c3.2,1.4,6.4,2.7,9.6,4c-0.3-0.6-0.7-1.2-1-1.8c-3.7,20.2-12.8,39.3-26,55.1
			c-6.5,7.8-14,14.9-22.3,20.9c-4.1,3-8.5,5.7-12.9,8.1c-1.1,0.6-2.2,1.2-3.3,1.7c-1.2,0.6-2.7,1.6-4.1,1.6c-1.3,0-2.2-1.1-3-2
			c-1-1.2-2.1-2.3-3.1-3.5c-9.6-11-18.5-22.5-26.7-34.6c-0.3,0.7-0.6,1.5-0.9,2.2c17.7-4,36-5,54-3.1c18.1,1.9,35.9,6.7,52.5,14.3
			c9.3,4.2,18.2,9.4,26.6,15.3c0.3-0.9,0.5-1.9,0.8-2.8c-5.3-0.2-10.5-1.1-15.4-2.8c-1.8-0.6-2.6,2.3-0.8,2.9
			c5.2,1.8,10.7,2.8,16.2,3c1.6,0,1.9-2,0.8-2.8c-15.1-10.7-32.1-18.8-49.9-23.9c-17.6-5.2-36.2-7.5-54.5-6.9
			c-10.4,0.4-20.8,1.7-31,4c-0.9,0.2-1.4,1.4-0.9,2.2c7.6,11.1,15.8,21.7,24.5,32c2.1,2.5,4.2,5.1,6.5,7.4c2.2,2.3,4.8,2.7,7.7,1.4
			c4.9-2.1,9.6-4.9,14.1-7.8c17.9-11.7,32.6-28,42.5-47c5.6-10.7,9.6-22.1,11.7-33.9c0.2-0.9-0.2-1.5-1-1.8
			c-12.4-5.1-25.1-10.4-35.6-18.8c-10.1-8.1-17.3-18.9-19-31.9c-1.5-12.2,1.5-25,8.8-35c3.9-5.4,9.3-10.3,15.7-12.6
			c6.6-2.4,13.5-1.2,19.3,2.6c12.3,8.1,15.1,24.2,14,37.8c-1,11.7-5.4,23.9-14.2,32c-4.6,4.2-10.4,6.9-16.5,7.5
			c-7.6,0.7-15.2-1.4-22-4.5c-7.2-3.3-13.7-7.7-20.2-12.2c-6.5-4.5-13-9.2-19.4-13.9c-12.8-9.5-25.2-19.6-37.2-30
			C87.9,75,76.3,64.1,65.2,52.8c-2.7-2.8-5.4-5.5-8.1-8.3c-0.7-0.8-2.3-0.4-2.5,0.7c-3.9,19.1-6.8,38.4-8.8,57.7
			c-2,19.4-3,38.9-3.1,58.4c0,8.1,0,16.9,4.2,24.1c3.5,5.9,9.4,9.7,15.9,11.5c6.7,1.9,13.8,2,20.7,1.3c7.4-0.7,14.8-2.2,21.9-4.4
			c14-4.2,27.6-11.5,36.6-23.3c1.1-1.5,2.2-3,3.2-4.6C146.3,164.3,143.7,162.8,142.7,164.5L142.7,164.5z"/>
	</g>
</g>
</svg>
