<?xml version="1.0" encoding="utf-8"?>
<!-- Generator: Adobe Illustrator 25.2.1, SVG Export Plug-In . SVG Version: 6.00 Build 0)  -->
<svg version="1.1" id="Layer_1" xmlns="http://www.w3.org/2000/svg" xmlns:xlink="http://www.w3.org/1999/xlink" x="0px" y="0px"
	 viewBox="0 0 300 300" style="enable-background:new 0 0 300 300;" xml:space="preserve">
<g>
	<g>
		<path d="M35.3,249.6c-2-19.7-4-39.5-6-59.2s-4-39.5-6-59.2c-1.1-11.1-2.3-22.3-3.4-33.4c-0.8,0.4-1.5,0.9-2.3,1.3
			c22.8,17,46,33.5,69.6,49.4c23.5,15.8,47.5,31,71.8,45.6c13.6,8.2,27.3,16.1,41.2,23.9c0.4-0.9,0.8-1.8,1.2-2.7
			c-12.9-3.1-25.4-7.7-37.1-13.8c-4.1-2.1-11.9-5.1-10.6-11c0.6-3,2.7-5.8,4.4-8.4c1.7-2.6,3.4-5.1,5.2-7.5
			c14.6-19.6,33.7-35.7,46.1-57c6.8-11.6,11.4-24.5,11.9-38c0-1.4-1.6-1.9-2.6-1.1c-12.4,11.1-21,25.7-27.9,40.6
			c-7.3,15.6-13,31.8-20.2,47.4c-4,8.7-8.4,17.1-13.8,25c0.9,0,1.7,0,2.6,0c-4.2-8.2-5.6-17.5-6.6-26.5c-1.1-9.8-1.9-19.7-2.4-29.6
			c-1-19.9-0.8-39.9,0.7-59.8c0.8-11.3,2.1-22.6,3.7-33.8c-1,0-1.9,0-2.9,0c2.3,13.1,8.1,25.2,15.1,36.3c7.1,11.3,15.2,22,23.8,32.3
			c17,20.5,36.2,39,56,56.8c11.1,10,22.5,19.7,33.9,29.4c0.4-0.9,0.7-1.7,1.1-2.6c-20.6,2.1-40.9,6.8-60.4,13.8
			c-19.7,7.2-38.5,16.7-56,28.2c-10,6.6-19.5,13.9-28.5,21.7c-1.5,1.3,0.6,3.3,2.1,2.1c16.9-13.5,33.8-27.1,50.6-40.6
			c0.8-0.6,0.4-1.9-0.3-2.4c-6.8-4.7-15.2-6.9-23.5-6c-1.9,0.2-1.9,3.2,0,3c7.8-0.9,15.5,1.1,22,5.5c-0.1-0.8-0.2-1.6-0.3-2.4
			c-16.9,13.5-33.8,27.1-50.6,40.6c0.7,0.7,1.4,1.4,2.1,2.1c15.8-13.7,33.1-25.6,51.6-35.3c18.1-9.5,37.3-16.8,57.1-21.7
			c11.2-2.8,22.5-4.8,34-5.9c1.2-0.1,2.1-1.6,1.1-2.6c-20-17.1-40.1-34.3-58.9-52.8C204.8,123,187,103,172.3,80.9
			c-8.1-12.2-15.1-25.4-17.7-40c-0.2-1.4-2.7-1.5-2.9,0c-2.9,20.1-4.6,40.4-5,60.7c-0.4,20.4,0.5,40.8,2.7,61
			c1.1,10.3,2.5,20.9,7.3,30.3c0.5,1.1,2,0.9,2.6,0c9.6-14.1,16.2-29.9,22.6-45.6c6.4-15.6,12.6-31.5,21.5-45.8
			c4.8-7.8,10.5-14.9,17.3-21.1c-0.9-0.4-1.7-0.7-2.6-1.1c-0.8,25.2-16.5,46.3-32.6,64.4c-8.5,9.5-17.3,18.8-25,29.1
			c-1.9,2.5-3.7,5.1-5.4,7.7c-1.6,2.6-3.5,5.3-4.4,8.2c-1.8,6.1,2.8,10.1,7.6,12.7c13.2,7.4,27.4,12.9,42.1,16.5
			c1.6,0.4,2.7-1.9,1.2-2.7c-24.7-13.8-49-28.3-72.9-43.4c-24-15.1-47.6-30.9-70.9-47.3c-13.1-9.2-26-18.6-38.8-28.2
			c-0.9-0.7-2.4,0.2-2.3,1.3c2,19.7,4,39.5,6,59.2s4,39.5,6,59.2c1.1,11.1,2.3,22.3,3.4,33.4C32.5,251.5,35.5,251.5,35.3,249.6
			L35.3,249.6z"/>
	</g>
</g>
</svg>
