<svg id="Layer_1" data-name="Layer 1" xmlns="http://www.w3.org/2000/svg" width="500" height="500" viewBox="0 0 500 500">
  <defs>
    <style>
      .cls-1 {
        fill: #5c98ff;
        stroke: #fff;
        stroke-linecap: round;
        stroke-linejoin: round;
        stroke-width: 2px;
      }
    </style>
  </defs>
  <path id="4" data-name="4" class="flubber-path cls-4" d="M470.5,169.4c-13.4,12.1-21.3-19.1-24.4,4.2,5.7-2,3.4,4.5,5.7,3.6,7.6.6,2.9,1.5,3.9,6-5.9,7.9-.6,22.7-11.2,27.3-8.3.6-1.7,16.4-12.5,9.1-10.3,3.8-6.6-29.9-12.9-21.1,2.7,31.7-31.4,15.4-37.6,49.9-8.3,2-12.7,2.3-21.5,7.1-6,1.8-.7-8.4-5.4-6.3-3.7,5.8-8.8-2.5-14.7-2.4-10.2,6.1-16.5-6.1-25.1-13.9,4.4-9.4-9.3,6.1-8.1-10-8.6,3.4-1.5-2-2.1-5.6-5.4.2-16-17.6-12.4-22.8-.3-5.8-6.8,2.4-7.1,0s-.5-4.4-4.2-7.3c4.3-9.8-4.7-2.6-6.3,1.9-5-6.5-23-14.1-23.7.1-5.4-9.1-12.9-7.7-22.4-4.3-6.4,8.9-2.7-2.3-7.5-2.6-13.9-1.1-12.4-1.6-12.1-12.1-5.7,5.3-4.8-3.9-5.7-7.9-4,7.1-3.4-6.6-2.9-6.9-3.6-.3-5.9-6.7-8.2-1.9s-3.3-1.1-1.7-3.8c-6-7-7.1,14.9-10.5,6.9-1.9-7.9,4.8-11.3-4.5-15.8-19.5-6.1,2.3-17.9-18.1-15.1-4.6,4.3-12.7-13.4-17.9-16.5-4.6.9-4.8,12.3-10.8,10.5-1.3-4.8,7.1-9.6-2-13.3-4.2.3,1-2.6-1.6-3.7-2.5,2.8-12.8.8-11.6-3.9,8.4-13.1-20.5-19.9-30.7-12.2-7.1,5.6-5.7,23.7-15.8,22.9,10.4,12.3-4.6,15.4,4.2,15.6-5.3,13.7,4.5,22.2,14.1,30.3-14.4,7.2-26.2.7-3.3,17.7-14,6.4-22.5,39.6-32.7,21.8-4.4-.4-4.1-5.5-7.9-.3-1.4,9-13.5.6-16.9,16.5-1.2,13.6,2.2,11.3,11.9,18.4-4.5,15,10.8,5.1,18.4,8.2,7.1-8.9,2.3,3.7,19.5,5,10.3-4.4,13.6-4.2,23.3-1.4,35.4-12.4-24.3,113.8,21.3,76.3,17.8,13.8,25.8,55.2,32.8,71.7,14.2,9.3,14.7-26.4,34,0,25-2.9,9.4,20.2,29.3,21.8,4.2,1.2,6.4.3,6.4,5.5,8.6-.1,8-15.3,15.6-10.5,7.4,2.7,10.3-.3,14-6.3,12.3,3.1.2-6,9.3-7.1,6.4,1.9,9.9-6.3,15.3-6,.8-5.3,15.5,9.4,11.6-3.3-.6-.2,32.4-59.8,42.3-45.2,13.6-8.4,5.8-5.8,19.2,4.4,8.6,13.5,10.5-6.3,1.7-9.7,5.6-6.2,3.9-9,11-10.2,4.3,1.9-5,9.4,2.9,6,3.6-10.8,10.2,16.4,9.9-3.2,2.3,4.2,4.3,3.5,6.9.8,8.9-11.2-4.1-4.5,3.9-17.8,7,2.3,13.5-6.3,8.4-18.2-5.5-7,8.6,2.3,9.5-3.6,10.1-8,5.7-30.3,17.5-26,19-4.4-9.4,28,21,22.3,13.8-5.7-2-17.2-1.8-25,8.9-6.2,9.1-1.4,12-13.3C445.5,210.2,490.9,202.3,470.5,169.4Z"/>
  <path id="5" data-name="5" class="flubber-path cls-4" d="M365.8,140.2c-2.5.5-.8-3.1-2.8-2.8s1.2-2.4-.8-1.5c-6.7-2.3-8.9-15.1-15.9-9-.3,12.5-7.1-11.7-20.5,11-2.7-1.5-13.6,12.1-10.7,17.6-1.6,3-4.8-6.5-4.3.3-9.3,5.4.4,18.3-11.2,12.9.3-2.5-1.7,2.9-.7,3,.1,23.1-6-1.2-13,8.4-5.1-5.4-1.2,2.6-4.6,2.8-8.4,0-2.8,3.4-8.1,3.1-2.1-1.3-5.4.1-6.5,3.2,8.4,6.3-5.5.9-7.4,7-9,11.3-9-8.4-23.6,11.2-24.9,1.5-20.4-42.1-46.1-19.1-6-3.3-5.5-.8-8.8,3.1-2.6-3.7-3.5-2.4-5.4,1,3.6,11.5-17.7,33.6-27,18.1-5,0,.3,6.8,2.6,8.1s-4.8,4.9-2,7.1.6,6.9-.3,11.1c-.9,6.3,6.6,5.4,2.6,8-20.7,15.6-4.6,39.8-7.1,58.7-.3,7.3-19,8.4-6,12.1,9.6,6-10.1,8.8-1.1,13,35.6-13.2,15.1,23.3,67.7,39.2,7.4-8.9,22.2,20.1,22.5.6,16.7-6.2-2.3-21.1,13-24.7,2.2,2.8,8-2.6,9,3.3,6.8,1.5,4.3-7.5,1.5-9.9,14.8.6,29.6-28.4,40-23.1,3.5-2,9.1-3.6,12.2-7.4,9.1-8.8,23,3.7,8.7,16.1-2,3.7.1,22.9,4.5,11.3,4.8-2,4.3-9.8,11.9-7.4a8.7,8.7,0,0,1,9.4-9.8c.1-1.4,12.2-19,4.3-13.3-1.8-1-8.2.7-3.7-2-4.6-6.9-.7-5.3,1.4-11.2-19.3,20.6,24.2-65,7.7-57.8,27.6-65.7-4.4-34.7,6.4-61.2C349.2,141.6,369.6,149.7,365.8,140.2Z"/>
  <path id="6" data-name="06" class="flubber-path cls-4" d="M333.1,200.6c2.1-2.4,1.7-4.4-1.1-2.7-2,.2.6-2.8-2-1.5,1-9.3-4.7,5.9-6.8-3.3-5.4,5.4-9.1,10.5-15.8,10.7-9.5-2.1-24.7,20.3-38.2,24.6-4.7-3.3,1.6,3.4,1,5.7-1.1,10.2-8.1-5.7-19,3.8-4.7,4.1.6,5.9.6,10.6.9,2.1-4.2,13.1-6.5,9.5-2.5,22.1-17.2-7.4-19.9-.3-40.2,1.7-44.8-47.6-56.6-40.3-11.5.8,13.9,26.1,6.3,36.8-8.7,19,8.6,66.3,27.7,45.7,18.3,8.5,23-7.1,21.6,7,2-3.1,3.3-5.1,7-4.8,4.8,10.2,9.6-14.6,15.7-16.4,0,7.4,3-2.9,4.5-3.1s.5,3.6,2.7,1.7c6.8-.5.3-21.3,11.2-10.8,3.3-1.7,3.1,2.5,3.7,4.5,1.7,4,5.1-4.5,4.5,3.1,4,5.8,9.5.6,12.1-1.9,11.4-19.6,4.8,2.8,12.7-11.3,8.7-9.2,5.8,1.3,13.5-4.3,9.9-9.5,4.4-27.2,15.5-34.6,2.9-2.8-3.4-17.6,3.5-19.6,5.3-1.6.8-3.3,3.6-6.4C335.7,203,331.4,201,333.1,200.6Z"/>
  <path id="7" data-name="7" class="flubber-path cls-4" d="M370.4,272.8c1.4-1.5-3.4-1.4-1.4-2,2.8-2.5-8.7-1.8-6.1-5.2-4.3-9-10.1,3.3-15.4,5.5-2.2-.8,1.7,3.4-.2,3.9-2.6-3-3.7,1.5-5.7,1.8-12.3-3.7-18.3-91-44.2-68-19.3,7.2-8.8-14-6.6-21.4-1.4-12.5-2-23.1,6.3-31.7,2.8-9.6-11.4,5.4-1.2-19-1.6-.8.1-2.9-.5-3.3s0-2.4-1.4-2.9c.1-1.9,3.3-2.9.7-4.5-1.7,1.4-.2-.3-.4-1.4-1.8,1.1-1.3-2.1-2.4,0s-4.6-2.3-3.6,0c-3.2,5.4-1.2-.5-5.5,1-6.7.1-2.8-3.1-8.9-3.7-3-.2-.3,3.5-4.3,1.7s-9.4,6.6-15.7-.2c-11.3,5.3-.8-10.6-14.6-2.6-8.8-2.2-19.8,8.6-17.1-9.5-26.7-4.6,3.9-32-16.7-30.5-10.3,20-38.9-31.1-40,32.4,3.4,1.5,1.4,3.1,1.7,5.9-8.7,7.9-3.1,2.8-.9,7.5-1.3,5.6-8.2,3.3-7-2.1-11.8,7.5,4.9,15.5-9,26.6-9.8,4.6-2.7-5.6-12-3.3-26.2-38,11.6,60.9,26.6,64.3,12.9-6,19,21.3,7.5,24.7-4.8,22.7,18.8,66.4,46.8,62,20.6,10,3.8,47.7,23.5,58.8,6,3.8,8.7-6,11.8,2.4,8.1,8.2,20.8,12.9,27.5,1.3,13.4,12.4-37.5,13-31.4,32.8,0,36.9,31.7-14.3,36.9,10.2-9.2,16.1.3,18.1,13,10.2,6.2-1.9-1.7,2,1.6,2.3,8.6,0-.5,7.1,10.2,5.4-7-8.4,13.1-10-2-16.2-2.7,1.4-.8-2.3.1-3.1,25-10.9-10.3-46.7,14.2-64.7,8.1-6.1-4.3,1.8.2-18.3-4.5-5.2,4.5-6,.6-9.7-8.5-4.9-.3-12-.6-6.5,8,14,25.4-8.4,25.9-12.7-1.6-17.5,6.5-3.2,6.2-10.5,2.6-2.3,4.3-2,8.1,0C364.5,272.2,376.9,277.6,370.4,272.8Z"/>
  <path id="8" data-name="8" class="flubber-path cls-4" d="M313.8,373.4c14.3-10.8,8.3-31.2-9-18.7-11.4-11-38.5-34.7-27.5-51.9-2.9-30.5,10.8-16.7,16.2-40.8-.1-11.1,13.3-9.9,12.3-19.2-1.1-11.7-1.6-24.2,4.9-32.7,1.9-8.4,8.2,1.7,7.6-8.7-7.1-25.8,6.6-76.4-24.3-68.3-5.1,5.4-2.9-6.5-9-4.5,3.3-7.4-7.5,2.4-10.5,2.2-16.8,2.5,2.2-15-7.2-23.3-19.1,6.8-4.6,27.5,5.1,34.3-5.8,15.1-23.9,31-24.6,51.3-12.1,4.8-14-12.2-19.9,6.3,4,.6-3.1.8-2.2,1.7,2.2,2.6-1.1,1.9.8,3.1-2.2.8,1.2.3-.8,1.7,5.8.4,16.9,22.8,6,18.7-15.9-29.5-29.4-12.2-53.9-12.5,2.8,9.1,8.5,6.5,7.3,9.4,19.7,29.8,26,60.4,42,95,1.9,5.7-7.4-3.5-7.3,1.9-.1,10.2-2.6-3.3-4.4-2.5,1,3.3-2.5.5-2.8-.8.1,3.4-6.2,2.2-5,3.9,3.7,10.5-6.1,15.9-9.1,25.7-3.9,7.8,3.2,15.8-1.8,23.9-3.3-1.1-4.2,7.1-1.6,4.5,23-7.3,57.6,7.7,75.9,17.1,9.7,2.2,31.7-14.2,35.2-4.9-.1,14,2.2,3.4,6.2,2.8,3.6,5.1,5.3-3.1,7.7-5.3C321.8,377.3,313,379.1,313.8,373.4Z"/>
  <path id="9" data-name="9" class="flubber-path cls-4" d="M377.1,227.5c7.6-1.7,20.3-.7,8.5-9.5-10.2-13.7-5.8-7.1-21.6-.3-1.1-4-8.5-9.1-14.8-10.6-2.2-3.9-2,4-7.9,2.7-7.2-11.7-10,4.8-14.5-2.7-4.2-3.5-15.3-17.5-19.6-9.8-3.9-.2-28.6-3.5-17.3,7-8.1,6.8-3.1,19.3-18.7,6-14.4,1.5,2.3-5.6-15.8-13.9-2.2-5.9-4.5-2.3-8.3-1.2-4.7-7.4-17.4-9-16,1.2-4.6.5-13.9,3.5-9.2,8.2,3.7-3.1,7.1,5.7,1.7,4.3-1.7-6.3-6.1.3-9.2,2-8.6-.4-4.1-7.1-10.3-6.2-2.3,5.9-9.6,1.3-6.5,10.7-22,8.4-19.3-37.9-42.3-26.6-3-.7-3-6.5-6.7-3.4-2.4-2.9-.1-6.5-4.1-8.9-.5-4.4-3.6.1-6.2-1.9-.5-.8-.8-2-1.3-2.6-4.3,3.4-6.3-8.4-11.4-7.6s11.6,12.8,9.1,14.4c-2.5,3.5,1.3,9.7-6.3,2.2-2.8-5-17-6.8-10.2,2.1s4.1,10.3-5.1,9.7c-9.9,7.6,3.5,11.9,10.2,15.5,13.6,35.9,14.4-3.6,36.5,28.4,45.4,61,30.2,2.1,62.7,30-7.4,3.4,6.4,28.1,12.3,30.8-1.8,12.3-2.5,27,10.1,27.3,2.3,1.9,4.5-6.8,8.2-3.2-3,10.9,7.9,6.3,10.8,14,18.4,1.6,6.3-36.8,15.3-22.7,16.9,2.2-8.8-49.2,26.1-50.2,15.8,21.4,17.7-6.7,28.6,7.9,10.5-6.8,8.9,2.4,15.7-10.5.4,3.8,3.6,1.4,3.9,3.2,11.5,18.7,20.1-14.9,34.2-21.5,1.4-2.6-6.9-2.1-9.6-8.9C382.2,227.3,366.2,232.7,377.1,227.5Z"/>
  <path id="10" data-name="10" class="flubber-path cls-4" d="M491.1,403.7c-11,17.4-27.1-15.1-33.1-4.1-21.3-9.6-11.5-37.4-20.8-56.2-11.9-15-20.4,3.3-28.9-10.9-13.9-9.7-35.2-45.5-21.9-57.5,12.4-23.4-35.3-34.8-42.1-74.4-.3-28.1-22.5-16.9-17.7-32.4-7.3-1.4,4.3-17.8-5-17.3-2.8-1.5-3.7-7.2-2.8-9.7-2.2-.8-3.4,2-2.8-4.3-10.5-5.3-1.3-16.6-4-16.6-25.6-21.2-26,12-30.9,2.6C264.4,116.7,241.5,67,222,81.6c-8.2-17.7-18.1-28.2-32.4-23.8-1.8,8.5-7.1-4.9-11.4-4.6-29.1,14.6-44.8-24.4-73-15-15-17.6-14.7,26.2-28.7,6.9C70,39.2,71.4,48,65.2,46.8c-7.7-13.6-6-1.7-16.4-7.7C11.5,63.6,43.3,62.4,30.1,95.4c24.1,25.2-.1,17.8,10.7,27.8,1.7,7.8-4,9.5-7.7,14.2C38.5,170,23.6,124.7,3,150.6c4.8,12.5,6.9,49,19.7,42.9,3.6,2.5,4.8,1.7,7.4-1.6,2,2,8.5,3,10.2,2.9,9.9,2.7,6.5-14.5,13.2,3.4,7.1,8.1,9.8-.3,15.7,12.8,14.8,23.5,3.1,2.6,1.9,20.7,27.3,52.8,1.7,37.1,54.1,53.7,4.3.1-.8,6,.3,9.3-6.4-3.7-3.9,2.3-7.7,6.6,10.8,13.2,7.9,57.7,31.4,42.3,3.6,15.9-.4,27.7-12.7,37.3-4.2,17.4,15.3,22.1,25.8,11.3,49-19.3,45.2,22,90.4,22.3,34.4-11.4,83.2,19.8,97.7-6.9,12.8-5.5,11.6,17.8,24.9,16.5-.3,13,11.6.6,8,11.3,7.5,23,26.3,7.3,37,29.4,28.4-18.5,7.6-.3,37.1-1.6,5.5-3.2,6-18.4,6-24.1-5.9-18.5,8.6-19.8,21.2-24.1C489,412,505.8,397.8,491.1,403.7Z"/>
  <path id="11" data-name="11" class="flubber-path cls-4" d="M434,203c-12.9.2-10.2-19.4-14.1-24.2-33.5.7-14.1,24.1-42.3,19.1-6.8-18.8-20.3,11.3-25.2-2.1-18.1-22.1-6.5-2.4-26.6-13.8-3.9-2.5-9-9.9-6.2-16.2-5.2,1.2-9.6.1-8.9-6.8-13.4,2.3-10.6-16.8-22-16.7-7.1.3-6,10.8-13.3,9.9-7.9-4.2-5.6,11.8-25.3-.6-37.4-7.4-79.7,6.5-107.4-20.6-18.9-30.8-73.2,30.6-69.7-17.6-7.5-1.1-13.6,14.8-3.7,15-4.9,3.6-2.2,20.7,2.8,17.3,3.7-5.2,6.2,6.2,9.3,8.7,9.1,17.7-4.5,17.6,8.6,17.9,2.2,20.4-8.5,39.8-13,57.2,17.2,4.1,13.8,32.2,30.3,30.1,12.2,17.3,37.7,10.8,52.7,23.5,61.5,63,148.5-4.2,205.5,90.2,5.6,19.3,9.6-.2,17.6,13.3,12.1-9.9-8.5-34.7-11.6-55.2,2-23-20.3-24.8-22.5-42.8.1-5.4-10.2-6.2-6.2-11.9,17-.3,34.8-13.5,46.3,5,18.3,23.5,8.8-6.9-.4-12.8,1.9-23.6,24.2.7,24.2-20.8C413.4,230.5,438.7,217.8,434,203Z"/>
  <path id="12" data-name="12" class="flubber-path cls-4" d="M130.1,107c48.6,6.6,44.2,24.3,71.6,40.6,20.3,1.2,23.6-5.9,40.8,5.9,17.8-2.7,36.3-16.3,52-1.5,6.7-2.1,10.8,7.1,15.7,10.8,26.2,5,11.2,10.6,31.9,19.6,13.4-3.4,12.5,4.9,20.4,11,32.7,36.9,6.4,34.6,6.1,76.1-11.8,9-77,46.7-88,67.7-16.3,17.9,16.5,70.5-18.8,49.5-30.3.6-18.4-44.6-42.7-55.3,1-15.9-9.6-3.6-10.5-13-17.2-22.8-11.3-49.1-12.3-73.1,2.4-20.4-22.8-15.8-31.9-25.7-2.8-8.2-25.6-20.7-22.1-27.5-.3-20.1-31.9-25.1-20.8-45.2C130.1,137.9,112.3,114.1,130.1,107Z"/>
  <path id="13" data-name="13" class="flubber-path cls-4" d="M386.8,440.3c-5-9.6-17.2-2.8-23.4-10.1-2.5-12.4-14.2-29.3-14.2-42.5-27-15.8-42.1-49.9-34-81.9,4.1-41.7-56.2-33.4-56.2-72.9-8.5-16.1-32.9-22.2-16.2-42.5-2.8-8.8-2.2-17.1-3.7-24.9.7-6.3,12.2-7.4,4.6-12.8C171.2,132.8,257.6,3.4,174.5,42.5c-28,8.5,17.3,9.6,9.1,29.7-21.4,52.5-60.9,39.7-42.5,60.9-2.2,6.3-12.5,10.3-6.2,17.1,9.9,10.1-7.5,11.5-8.2,24.6,1,11.1,20.9-13.1,14.7,11.9-2.3,13.9-26.3,16.5-13.4,32.6-1.3,24.4-12.4-6.3-14.7,12.5,2.6,14.2-20.7,32.8-3.4,41.1,4.2,1.3-3.7,12.4,4.2,8.5,4.4-17.1,12.6,9.8,17.7,0-.3-12,18.3-9.6,11.2-22.2-.8-6.7,7.1-.5,6.6,2.9-4.9,14.1-5.5,37.9,8.8,11.7-.1-28.3,48.7,8.7,44.8,29.9-22.8-4.5-10.7,24.1-26.2,27.8-10.9,8.2.3-3.4-20.3-1.9-14.1,10.7,4.5,15-5.2,15.5-10.1-3-2.5,21.8-14.1,8.2-37.5,5.2,6.5,15.2,1.1,34.6,21.6,39.5,9.5,33.3,27.9,20.5,6.8.3,7.9,10.8,12.7,14.7,12.1-10.8.9-11,17.2-15.3,9.8-17.9-2.7-30.5-8.1-48.8,4-22.1,17.4,7.7,8.8-26.6,12.9-13.3,16.1,11.1,27.1,13.9,5.4,6-4.5,8.7,6.2,12.8,16.6-6.9,8.9-5.8,19.9,9.6-2.5,63.9,45,25.2,18.8,87.2,19.3,14.5,38-14.2,38.5,6.4,25.6,27.2,48.3-59.1,85.9-7.7C400.7,443.2,400.4,434.2,386.8,440.3Z"/>
  <path id="14" data-name="14" class="flubber-path cls-4" d="M330.8,235.7c-5-15-1.4-5.2-7.9-5.1-9.4,2.2-17.3-4.5-11.3-15.7,0-4.2-4.2-2.4-4.5-6.4,1.4-1.4-3.2-1.4,0-3.2-4.2-1.5-3.5-11.4-7.1-10.8s.3-3.1-.8-3.6c1.6-2.3-1.5-2.1-2.4-2.6,3.5-1.9-1.6-3.3,1.8-4.8,4.1-13.2,1.5-2.8,6.8-5.7-1.4-5.3,3.6-7.9-1.1-9.9,1.1-4-6,.6-7.7-3.7.3-3.9-5.4,6.2-7.4-4.8-5.2,8.4-11.7,1.2-17.6,1.7-14-10.8,1-6.1-13.6-28.9-4.2-11,3.7-5.1-7.9-12.7-9.9,9.5,1,10.4-14.4,15.2.6,19.4-12.4,16.3-6.5,34,3.6,10.2-12.1-1.2-5.8,22.4,2.5.2.1,10.5-.5,14a5.2,5.2,0,0,0-6,6.7c-13.7.2-6.6,13.6-8.4,19.6s-5.5-7.3-4.9,8c-.7,7.2-7.1,11-7.4,18.6,3.9,8.2-22,19.6-9.8,29.5-.3,6.3-4,1.2-4.6,4.8-.3,11.6-6,.1-7.9,8.3-8.5,1.4-3.3,38.5,6.1,26.4,4.7-4.6,1.4,6.5,1.8,8.2.2,5.1,1.7-2.3,3.7-.3,1.1,4.4,1.4,3.2,5.9,3.4,3.5,5.6,11.3-6.7,14.4-5.4.4,14.5,3.5-.9,7.1,7.4-.6,6.2,10.4,5.2,7.5,12.5-13,22.3,14,14.3,21.7,9.2,1.4,5.6-8.8,8.2.9,14.3,1.7,3.1,1.5-6.1,9.9.6,7.6-.6.9,4.4,6,2.2,5,4,6-5.3,11-5.6,5.6-5.5,19.8-6.9,17-17.6,1.8-19.4,14.4-12.6,10.9-28.2,2.3-10.5-22.5-10.5-17.6-18.4,9.3-5.3,18.4-.5,23.5-11.2,1.9-4.1,7.6,1.1,7.7-5.4-3.2-5.3-4.4-10.8,0-15.6-3.8-.2-7.7-4.7-3.8-8.6,3.7-12.6,10.9.1,16.4-9.9,1.8-1.4,2.6-3.2.4-4.8C319.9,251.7,333.4,247.9,330.8,235.7Z"/>
  <path id="15" data-name="15" class="flubber-path cls-4" d="M345.8,300.1c2-2.2-6.2-4.4-4.6-2.7-.5,2.5-4.9-.3-6.3,1.4s-3.4,3-4.7,1.7-1.7-.7.3-1.8c-2.7-3.4,1.6-1.7-.6-4.2.4-6.1,10.4-11.5,11.8-17-6.6-8.8-7.6-6.5-3.9-14.5,15.1-11.4-7.1-11.8,4.3-21.8,12.2-16.1-26.5,2.3-10.9-20.9-4-.1-16,6.3-22.1,7.1-10.2-14.4,6.1-15.4-2.5-23.6-7-.9-4-13.2-11.6-5.4-.2-17.8-8.9,5-18.9-2.3-1,3.5-1.3-7.3-4.4-2.2-1.2,3.4-2-4.3-1.3-5.4,3.2-9.6-3.5-.9-5.8-1.1-9.4-4.8-2.5-24.2-9.5-26.2-9.7,2.8-5.1-8.5-13.4-4.4-10-5-2.9,2.1-15.6-.7-21.3-12.6,7.4-15.3-7.3-31.6-5.6,10.8-8.3-11.7-9.7,19.5-29.1,43.4,7.7-37.7-1.2-52.4-6.8,11.6-8.7.8-8.5,7.9,3.2,19-11.9,14.8-.5,31.4-1.6,10.8-15.5,13.3-8.7,28.7,4.2-.5,1.4,17.8-2.4,14.2-9-4.5-5.3-1.8-11,4.2-6.6,9.6,3.9,9.9-.5,17.3,2.4,6.6,6.8,3.1,8.7,7.3,5.4-9.1,12.6-.1,4.5,4.9.6,1.2-.7,9.7-3.4,5.6-5.1-6.9-3.2,4.7-7.9,5.5-6.6.6,5.1,14.9,6.8,18.4-8.8,10.5,3.7,29.5-3.6,29.1-10.3-4.3,2.9,26-17,8.9-.6,11,6.2,10.9,10.4,17.8-.3,27.7-29.8,1.6-16.7,38-3.1,3.1-.8,3.4,1.7,1.4,7.9,1.9,4.2,5.3,7.3-2,15,21.2,24.9,5.9,25.9,19.3,10.9,13.4,13.2-.7,9.1,25,1.9,12.3,23.4-6.7,14.6,21.7,8.1,8.7,29.8-2.6,23.9,12.2,21.7-13.2,31.7-56.7,48.2-13.5,4.2-13.3,1.7-8.7,15-11.6,2.2-6.4,7,.5,6.2-6.4,6.5-8.5.6-13.5,5.4-12.6,3-3.9-2-18.5,5.9-17,5.5,12.8,13.8-2.6,6.8-11.1C323.7,320.5,347,323,345.8,300.1Z"/>
  <path id="16" data-name="16" class="flubber-path cls-4" d="M364.9,154.2c-9.6,1.7-11.9,1.5-18.4-12.5-3.6,6.8-14.7,24.6-17.6,8.2-2.4-2.7-3.4,10.5-6.2.9-1.5,6.2-9.7,4.6-11.1,9.9-2.7,8.8-11.6,2.5-14.7,8.8-2.9-11.1-9.6,6.6-13.6-2.6-12.7-1.7-6.8,21.1-23.5-4.7-.4,2.8,0,14.6-2.8,10.1-3.5-11.1-4.1.4-9.1-6.7-3.1,3-.6,11.6-8.2,13.5-6.4-21.2-7.6-.1-9.6-17.9-17.2-.5-7.4-41.2-26.1-20.8-20.2,11.5-7.5,1.6-13.3-10.1-3.4,8.4-15.6,7.1-12.3,12.6-4.8,19.5-5.7-14.5-13.5-1.8-4.2,18.7-8.3,21.1-10,33.3-11.4-9.8,7.4,24.9-5.7,36.4-2.6-1.3-19.5-1.4-12.4,2.6,0,14.8,4.3,56.4,21,45.6,14.4-8.5-.3,8.3,9.2,8,7.4,6.3-2.8,20.4,15.7,25,17.5,6.2.5,17.5,14.8,16.9,3-3.4,4.4-14.1,8.9-9.3,12.2,2.6.3,15.4,8.5,21.5.1,18.2-13.5-1.1-3.8,29.9,5.8,2.8,11,12.6,4.5,16.3,3.9,6.3,14.1-.8,11.8-6.8,10.3,6.8,6-2,11.4-7.9-2.8-13.6-11.1,13.3-19.2-16.5,2.4-24.6,20.1-1.9,17.7-24.8-14.1-19.3,19.4-24.5-.7-40.6,9.5-4.5,6.1-14.5,7.1-21.8,20.3-13.6,7.2,5.9,8.1,17.2-13.5,30.4-4.8,67,2.9,12.9,11.3-8.3,19.9,5.3,7.4,16.9,2.3,1.5,4.8,11.7,8.4,8.6,11.4,3.4,21.9-.4,33,8.4,8.8-13.9,13.2-3.4,12.7-13.5,9.6-3.7.8-4.6,2-11.4,11.7-14.4,15.1-39.5,24.7-49,1.4-6.5-5.5-20.1,7.3-19.8,10.7-13.5,7-16.9,6.3-33.8-2.9-6.6,6.2-1.2,7.1-6.3C356.5,163.8,365.5,165,364.9,154.2Z"/>
  <path id="19" data-name="19" class="flubber-path cls-4" d="M394.9,320.7c-31.1,2.8-45.8-60.5-82.1-46-1.9-17.6-45.7,15.2-53.6,28.6,5.3,3.3-3.3.3-2,3s-1.9-.7-1.6.3c-.1,4.4-5.9,5.8-8.8,6.6-1.7,2.5,3.8,1.8,4,5.8s-3.2-2.1-4.9,1.3c-1.7-4.2,1.6-5.3-2-3-1.9.2-2.2-5-2.2-2.4s0,1.4-1,.8c-.4,1.6-.7,1.8-2.2,2.7,2.1,2.3-.9,1.4-1.5,2-1.3,3.9-5.6-8.2-4.9-.3-23.1,3.5,2.9-12,10.2-12.9,25.5-19.1,6.6-26.7-4.9-25.4-10.5-32.4-7.7,6-20.5-29.9-4.4-4.6.2-9.1,2.7-12.5,2.6-9.7,3.7-4.3,9.4-3.7,0-.9,3.3-2,.8-2.8-1.1-4.7,4.2,2.7,6.2.3,4.7-7.9-11.1-10.1-16.6-10.6s-7.5-4.8-7.6-10.2c-11.3-3.8,1.7-7.8,7-9.2,18.8-2.1-22.8-24.6,2.2-20.8,10.8-14.8,12.8-8.6,27.7-16.2,13.5,15.6,95.6,4.6,66.4,32.4-4.9,22.7,15.2,26,9,31.7-.2,2.9.5,2.5,4,2.6,3.3,1.7,1.8,4.2-1,3.1-3.9,6.3.2,14.1.9,21.9-3.8,5.1,12.4,8,8.8-.3,5.6,2.7-.9,7.7,7.6,8.8,4.9,4.6-1.7-6.5-.6-7.3s3.5,1.3,2.5-1.7c.6-.6,4.6,2.6,3.2,3.9,2.8,6.6,11.6-.4,11.4,7.4,6.1,4.7-4.6,9.9,2.7,9.5,3.4-1.8,1.2,3.4,2.6,5.4,6.2-3.7,2.2,12.4,12.1,7.6,2,3.8.9,4.7,4.7,6-.3,2.4,2.2-2.3,2.3.7.3,6.5,3,1.1,4.9,6C387.1,310.5,396.8,317,394.9,320.7ZM275.4,289.5c-10.9,9.2-.6,10.4-5.2,17.2C280.8,310.9,287.1,273.7,275.4,289.5Zm-58.9,30.8c-2.6,4.1-6.3-2.2-6.5,6-8-6-14.4,12.4-4.5,2.8,2.5-.4,9.4.3,11.3-4.4-1.4-3.3,8.9,1.4,5.6-3.3C219.6,323.4,220.2,318.9,216.5,320.3Zm-35.9,12.5c.2,2-41.9-4.7-24.6-6.2,2.5.9-1.6,1.8.1,1.5s3.9-1.2,6.3,1.3c.2-5,2.2.4,4.5.3C178.2,326.8,169.4,327.3,180.6,332.8Zm-22.3-3.7c.2.3-.1,1,.2.9S158.6,329.1,158.3,329.1Zm37.2-102.2c2.7,5,11,6.9,8.4,2C193.3,218.9,183.9,223.3,195.5,226.9Zm20,39.6c4.8-1.1,2.1-8.3-1.7-7.7C204.9,259.7,211,263.4,215.5,266.5ZM106,295.8c-3.4,1.2,2.2,4.1,3.3,5.1C112.9,300.4,108.7,295.9,106,295.8Zm88.5,35.4c2.5.5,4.1,0,3.6-2.8S194.2,328.9,194.5,331.2Zm-59.7-9.5c-.9,1.8,6,8.4,4.4,4.3C137.7,325,137.2,322,134.8,321.7Zm50-73.1c-5,0,6.3,9.6,2.5,3.4C185.6,251.9,185.4,249.7,184.8,248.6Zm-56.1,70.1c.3-1.7,3.8.8,2.7-1.4C131.5,312.7,125.7,316.4,128.7,318.7Zm103.6,1.7c-2.8,2.8,4.4,5,2.8,1.6A12.8,12.8,0,0,0,232.3,320.4ZM108.5,303.8c1.6,2,3.5,2,3.2-.6C110.9,302.7,108.5,302.4,108.5,303.8Zm86.2-16.2c.6.6,2.8-.8,3.1-1.1C196.2,284.5,194.2,285.3,194.7,287.6Zm-58.9,31.3c-.8-.9-4.7-3.2-2.8-.3C133.9,319,136.1,321.5,135.8,318.9Zm14.9,9.5a5.6,5.6,0,0,0-3.8-1.2C146.3,328.4,150.8,330.3,150.7,328.4Zm30.8,3.7c.8,1,2.8.5,2.5-.7S180.9,330.4,181.5,332.1Zm-41-9.4c1.9.3,1.9-1.3.8-2.3S139.1,322,140.5,322.7Zm50.9,9.4c1.1.2,2.8-.9,1.6-2S190.1,331.1,191.4,332.1Zm-43.9-3c-.6.7-1.2.6-1.4,1.5C145.8,333.4,150,329.8,147.5,329.1Zm113.1-20.2c.8,2,2.8,2.1,1.3-.3C261.9,306.7,260.3,307.3,260.6,308.9Zm7.4,2.6c-2.2-2.3-1.9,3.8.1,1.5C268.3,312.7,267.8,312.1,268,311.5Zm-20.4,8.2c-1.5.4.7,2.1,1.6,2S248.6,319.5,247.6,319.7Zm-58.6,11c-.6-.1-.4,1-.4,1.3C190,334.3,191.5,328.6,189,330.7Zm11-37.5c-.3-.8-1.4-.8-2-1.1S199.8,295.3,200,293.2Zm-86.8,8.4c-2-2.4-1.4,1.3.5,1.6S114,301.5,113.2,301.6Zm19.9,17.6c-1.6.9,2.4,3.7,1.3,1.1A2.8,2.8,0,0,0,133.1,319.2Zm16.1,7.9a1.2,1.2,0,0,0,.2-1.9C147.8,324.3,147.7,327.1,149.2,327.1Zm227.5-7.3a2.7,2.7,0,0,0-.5-1.4C374.7,316,375.3,321,376.7,319.8Zm-71.6-41c.8-.6.5-1.3.2-2S304,278.7,305.1,278.8ZM121.7,310.3a.6.6,0,1,0,.9-.8C121.7,308.1,121.2,309.3,121.7,310.3Zm108.1.7c.3.5.1,1.1.9,1.3S229.9,309.6,229.8,311Zm-79.1,18.4c-.7.6.4,1.5,1.1,1.2S151.4,329.4,150.7,329.4Zm34.4-76c-.9.6.8,1.9,1,.6S185.7,253.3,185.1,253.4Zm22.1-38a.8.8,0,0,0-.5-1.3C205.8,214.4,206.6,215.4,207.2,215.4ZM166.5,328.7c1.1.5.9-1.3-.2-1.2S166,328.4,166.5,328.7Zm37.4-121.3c.8-.3,0-1.4-.6-1.3A.7.7,0,0,0,203.9,207.4Zm30.4,20c0,.5,0,1.1.6,1.2S235.1,227.1,234.3,227.4ZM206.6,322c.5-.6-.3-1.7-.8-1.1A.8.8,0,0,0,206.6,322Zm-37.8,6.9a.7.7,0,0,0,0-1.1C167.9,327.4,168,328.9,168.8,328.9Zm-53.5-25.4c-.8.3-.4,1.1.3,1.2S115.9,303.8,115.3,303.5Zm143.1,8c-.4.3-.3.9.3,1.2A.6.6,0,0,0,258.4,311.5ZM233.2,232c-.8.3-.3,1.1.5,1.1S233.8,232,233.2,232Zm-.6,85.7c-.2.4-.2.9.5,1S233.4,317.7,232.6,317.7ZM203.8,208c-.2.7,1.1.9.9.1S204.1,207.5,203.8,208ZM375.1,316.4a.7.7,0,0,0,.7.9C376.4,317,375.6,315.8,375.1,316.4Zm-243.2,1.9c-.4.4-.2.9.4,1S132.5,318.3,131.9,318.3Z"/>
  <path id="20" data-name="20" class="flubber-path cls-4" d="M326.7,298.3c-53.3,51-41.1-73.4-4.5-16.1C327.1,286.4,334.9,292.6,326.7,298.3Zm-34.6-50.5c-7.5-6-20.2-15.4-22.6-7.8-3,10.8,15,6.8-1.1,13.5-3,3.9,5.6,5.7,7.3,2.9s-.8-3.2,1.4-.9C281.8,256.9,294.7,255.5,292.1,247.8Zm-31.9-11.5c7,7.5,19.8-4.9,5.6-5.4C257.5,223.7,243.2,236.4,260.2,236.3Zm5.6,3.6c-9.3-5.7-8.3,7.4-2.9,8.9S270.4,243,265.8,239.9ZM243.9,223c-3.7-13.5-10.3-16.6-20.1-8.8C223,224.8,247.7,234.7,243.9,223Zm-46.1-36.4c-9.7-5.3-22.5,6.7-9.6,13.1C196,205.4,205,191.6,197.8,186.6Zm-24.1,5.7c-7.6,1.1-4.4,13.9,1.1,5.9C181.7,198,177.7,184,173.7,192.3Z"/>
  <path id="17" data-name="17" class="flubber-path cls-4" d="M402.4,383.5c11.6-6.8-8.1-17.5-8.6-26.6-9.3,10-8.4-10.7-15.5-9.9-1.8,8.1-20.8,2.6-26.8,2.3-9.6,9-3-8.3-8.7-12-4.5.1-5.1-5-2.8-7.9-13.9-19.1,5.2-42.3,22.1-24,4.5,7.4,5.1-7.9,2.5-10.8,3.7-5.6,9.3-7.3,7.9-15.3-8.1-2.1.6-7.4,2-10.6-4.7-8.7-15.2-14-12.4-24.6,13.1-17-15.1-44.2-18.2-66,10.8-33-19.8-69.8-36.3-94.2-2.7-1.3,3.7-11.8-4.7-8.2-6.5-1.4-6.6-18.3-16.2-18.3-3.4,3.7-14.4-4.8-7.6,4.8,21.3,3.9.2,23.7,3.9,37.9s10.4,46.8-11.1,47.3c-14.1-2.7,9.3-16.3-12.4-16.4-9.1,31.7-30-5.3-34.9,29.7-13.3,2.9-28.3-1.1-45.3-6.7-10.2,9-8.8,22.9-19.8,2.2C143.1,123.5,144,256.4,131.1,269c-9.7,48-72.6,100.6-9.2,112.1,24.5,1.4,19.2-37.7,40.7-34.7-.4,7.9,2.4,15.9,10.4,19.1,2,6.2-6.8,18.7,5.1,15.3,6.6,38.8,5.2,7,15.8,30.5,6.9,2.6-1.3-15.2,8.1-8.7,20.7-29-6,30.6,27.2-6,12.2,2.9,4.2,26.9,18.9,27.6.8,6.7,2.6,7.9,7.9,10.7,0,3.9-1,10.7,3.8,6.2,8.7-3.9.3-17.8,14.4-7.1,6.2,11.4.2-17.8,9.3-1.1,3.4,12.4,12.2,1.5,15.9-4.9,2.9,7.8,7.4,6,12.5,1.5,8.7,11.6,24.7-17.1,30.9-10.7,8.7-12.2,2.3,15.8,17.8-5.5,5.8-9.9,7.2-.5,11.1,6.3,10.2.8,12.4.6,15.4-8.5-1.3-11.3,7-.8,11.9-16.7C414.2,392.7,400.3,395,402.4,383.5Z"/>
  <path id="21" data-name="21" class="flubber-path cls-4" d="M321.4,261.4c-4.5,5.5-26.7,9.9-28.5-.2C296.9,251.5,318.5,251.9,321.4,261.4Zm-27.6-24c-18.2-3.4-134-31.9-109.6,8-1.1,7.4-9.9,28.6,5.6,24.5,33-1.9,73.7,21.3,99.3-9.5C298.7,259.6,307.8,237.2,293.8,237.4Z"/>
  <path id="18" data-name="18" class="flubber-path cls-4" d="M333.3,380.4c2.4,7.1,6,12.2-3.6,12.6-3.8,2.1,2.5,6.9-1.7,11.1-1.7,3.5-9.6,2.9-9.8-1.3-4.8-5.7,1.7,6.7-1,7.9,19.4,10.2,7.5,24.3-10,26.9-3-5.7-9.7-17.3-11.6-5.2-3,10.5.3,12.2-10.5,4-15.4,2.6-21.9-18.5-21.5-34.6-9.6-26.3-23.2-14.6-19.8-28.8-4.8-8-11.9,1.6-20.4-18.4-17-7.6-33.2-9.2-22.4-31.5-21.1-68.8-54-149.3-21.9-217.7,2.2-22.9-8.3-9.9,11-22.5,4.6,2.3-1.1,3.7,2.7,7.1,2.1.3.8,3.1,2.1,2.9,6.5-7.3,4.8,1.4,12.8,2,12.8-8.4,7.1,6.1,14.5-6.5.6-4.7,3.3,4.7,5.3-2.5,1.3-11.5,10.7-28.8,21.3-27.1-2.2,19.5,19,16.6,8.3,29.9-1.7,1.6,2.6.2,1.7,2-.7,3.9,3.6,5.4,5.7,2.7,5.8,4.3-2.5,15.5,7.3,22.1-1.3,5.1-4.9,10.4-4.3,15.6-5,4.1,4,9.8-4.7,6.5-6.3,1.8,1.9,5.8.3,8.1-1.7,11.2-4-2.3-6.6,2.7-.8,6.6,5.4,8.9,3.2,13.1s2.4,2.6,3.4,5.3c-6.5,2.5-.2,24.4-12.3,18.2-18.5-1.6-.4,42.4,2.1,49.6,3.6,10.4,20.4-10.6,18.1,2.3-4.6,9.7,2.5,1.9,2.7,7.6,8.4-3.5-1.7,15.8,5.2,16.4,4,7,16.7,7.4,17,12,6.5,3.3-3,12.1,5.6,11.4,5.7,4.1,5.8-14.9,11.2-8.9,11,3.7,4.1,7.9,6.2,16.4,7.8,15.6-.4,9.2-5.4,20,1.6,12.2,14.2,19.6,10.7,30.9-3.7,1.3.9,3.3,2,4.4.9-.6,3.2-3,2,.1C340.1,367.4,336.1,358.7,333.3,380.4Zm-94.7,7.9c.6,2.6,6.5,10.4,8,3.6C247.4,387.1,234.7,379.5,238.6,388.3Zm3.4,19.2c-2-2.8-3-6.4-4.8-9.1C229.3,396.5,238.7,416.8,242,407.5Zm-15-23.2c.9,2.3,4,.6,3.5-1.5S226.2,382.1,227,384.3Zm-11.9-25.2c-3.7-2.6-8.6,2.1-11.3-1.8-.6-3.3-9.7-5.1-6-.2C199.6,369.5,244.9,368.6,215.1,359.1Zm-2.6,26.8c-1.3,3.2,6.3,7.7,6.8,2.9C218.5,386.3,214.6,383.4,212.5,385.9Zm-.5-4.2c-1.8.3-1.7,3.5.3,3.2S214,381.5,212,381.7ZM173.1,227.2c-.2-1.3-1.4-1.9-1.7-3.1C164.9,219.4,171.7,235.4,173.1,227.2Z"/>
  <path id="3" data-name="3" class="flubber-path cls-4" d="M298.8,454.5c.2,2.6-6.3,5.1-6.4,1.5C292.8,454,297.9,451.7,298.8,454.5ZM396.7,47.9c-2.2,8.5-6.3,2.1-10.1,6.8-7.4-2.4,1.1-13.4-10.5-14.8-1.1,3.6-3.6,1.9-6.5,0-6.3.5-14.3,10.8-20.4,5.3-4.5,3.2-5.4,6.6-11.6,2-4.9-10.5-10.6,3.2-12.2-2.3-12.1-4.8-5.3-5.4-19,1.3-4,4.1-9.3,1.9-7.9,9.3,4.1,1.4-3.8,1.7,1.1,3.4,17-6.1-5.1,17.5-8.9,17.2-25.3,15.4-27.9,58.8-40.1,51.7-5.1-3.2-8.3,15.9-14,5.7-.5,5.2-14.6,24.4-17.8,7.9-8,6.5-1.5-6.3-7.6-3.8-1.7-1.9-4.3-1.1-5.1-3.9-4.9,3.6-.6,14.8-7.7,15.1-2-8.9-5.5,11.3-6,.5-19.7,34.2-9.4,7.5-22.3,21.3,1.6-9.5-4.4-5.2-10.6-3.1-22.4-11.5-8.4,8.1-23.8.7-20.8-26-26.4-2.3-26.7,20.8,4.7,15.2-10.7,10.7-11.9,25.4-28.9,40-21.6,62.7,11.9,92.2,91.3-42.5,102.3,29.7,134.5-13,47.7,19.1,31.7,64.7,62.3,102,8.8,12.7,6.5-7.6,16.2,19.3,15.8,1.6,15,17.6,26.4,27.5,1,4.5-15.3-2.1-19.1,6.4-2.8,5.7-16.4,2.9-12.5,9.5,147.2-30.1-85.6-198.8,25.3-270.4,13-8,6.5-41.2,31.4-36.6,4.9,3.7,1.7-8.9,3.8-11.4,3.1-9.4,17.3-27.2,26.6-17.6,2.3-10.7,9.7-22.9,19.6-27.4C424.8,83.5,404.8,42.5,396.7,47.9Z"/>
  <path id="1" data-name="1" class="flubber-path cls-4" d="M314.3,208.1c-8.7-6.2-10.5-20.5-16.4-10.5-3.6-.3-4.5-7.7-8-4.2-3.4,6.3-3.6-9.6-1.3-4.8,1.6,1-.6-2.1.2-2.1s1.6-2.8.1-4.7c.9-.1,4.6-2.9,2.5-4.4-.3-3.9-5.2-1.4-7.7-3.3-.9-.8-3.7-3.5-4.7-1.8-6.5-3.3-6.6-10.4-14.2-11.6-4.6-2.2,5.9-12.2-.4-15.9-3.4-8.7-1.9-1-5.9-5.4-2.5-.8-.2,4.4-1.1,4.6-5.8-1.7-5.4-4.3-9.4-9.4,5-6.4-8.3-3.3-7.3-6.8,2.2-7.3-12.3-2.7-11.6,8.6-2.1-.1.5,6.2-2,3.1-1,2.6-1.4-.8-1.8-1.8-3.3-2.5,2.2,20.5-5.9,23.6-.6,3.9-4.8,9.4-3.5,11.4-4.5,23.6,10.3,11.9,3,47.8-6.1-3.6.8,8.2-3,5.4-2.7-4.6-3.7.3-5.1,1.7-4.2.8-1-4.2-6.1,3.4-1.3,3.6-5.5,5.2-1.1,8.5-8.2,7.2-7.1,18.1-8,30.7-22.2,6.2-1.1,10.5-3.4,25.2-4,8.7,2.9,20.4,1.4,27.8-11.8-.8-2.6,31.5-.3,38.8-1.2,21.4-1.9,13.5,14.1.2-.9.4,16.2-3.1,16.6-7.1-.1-1.5.9,2.1,1.4,0,0,.7-.6.3.2.6s-.3-1.1.3-.3.2-2,1.5-1c.2-.6,2.3-.7,1.3.3,1.8,1.3,4.1-1,3.8,2.4,3.1,4.3,5.9-1.9,2.7-4.4,3.8,1,6.6-6.6,10-5.8,12,10.3.9,2.3,15.8.4,5.4,3.1,13.9-.6,6.5-6.3,5.9-33.3-29.1-7.3-21.5-34.8.3-5.7-6-.1-6.2-4.8-3.5-5.6,7.8-2.7.8-8.5-.2-4.1,2.3,1.7,3.4-2.1-9.7-4.3,13.3-30.2,15.1-25.5,5.1,2.2.7-9.2,10.2-3,4.5-5.9,3.2-8.1-3.5-6,7.1-1.9,12.9-8.6,16.3-17.8C305.4,213.1,298.7,248.5,314.3,208.1ZM205.8,363.6Zm0-.2Z"/>
</svg>
