<svg id="hucs-lined-up" xmlns="http://www.w3.org/2000/svg" width="900" height="100" viewBox="0 0 900 100">
  <path id="_21" data-name="21" class="cls-4" d="M895,52.1c-.1.5-.6.6-1.1.7h-1.2a2,2,0,0,1-1.3.1c-.7.3-1.7-.1-1.7-.9s.7-.7,1-.9a1.4,1.4,0,0,1,1.3-.5l.7.2h.8c.2.2.5.1.8.2S895.1,51.7,895,52.1Zm-5.1-4.4c-.2,0-.5.5-.7.2s-.3-.2-.3-.3a6.1,6.1,0,0,0-1.2-.5l-.9-.3h-.6l-.6-.2c-.8,0-1.6-.3-2.4-.3s-.7,0-1-.1-.7,0-1-.2a2.5,2.5,0,0,0-1.7,0c-.2.2-.6-.1-.9-.2h-2.2c-.2.1-.4-.1-.6-.2h-1.2c-.3-.1-.5.1-.7,0h-.7a1.5,1.5,0,0,0-.7-.3c-.8-.2-2-.2-2.4.7a1.5,1.5,0,0,0-.1.7c-.1.3-.8.2-1.1.4s0,1.2.2,1.7.5.3.6.6-.2.2-.2.4.1.4,0,.7v.3c-.1.1-.3.2-.3.4s0,.4,0,.5-.1.6-.2.9-.1.5.1.7a1.2,1.2,0,0,0,.7.7c.4.2.6-.2.9-.1l1.6.2a2.2,2.2,0,0,0,1.6.1l.8-.2h1.1c.3.1.5.3.8.3h.5c.1,0,.2-.1.3,0s.1.2.2.6,1.1.5,1.5.2.4-.1.5-.2.3.1.5.1a3.3,3.3,0,0,1,1,0c.5-.1.9.5,1.5.1s.8.2,1.2-.1.4.2.9.1.5-.3.8-.4a2,2,0,0,0,1.1-.2h.6c.2-.3.7-.3.8-.8a1.3,1.3,0,0,0,.5-.7c0-.1.2-.2.2-.3s.2-.2.3-.3h.5l1.2-1C891.4,49.9,891.5,47.3,889.9,47.7Z"/>
  <path id="_20" data-name="20" class="cls-4" d="M860.1,58.9l-1.2.7c-.6.3-.7-.2-1,.3a.5.5,0,0,1-.4.2c-.1,0-.2.2-.3.3s-.3.1-.4.3-.9,1.8-1.3,1-.2-.1-.3-.2l-.7-.4a2,2,0,0,1-.4-.8,3.7,3.7,0,0,0,.1-1.1c.1-.3-.1-.6-.2-.9s-.2-.6-.3-.9-.1-.1-.2-.2-.1-.4-.3-.6,0-.7.3-.8.3-.5.5-.5l.5-.7c-1.1-1.3-.2-2.8,1.2-1.3l.4.2.7.2.8.4a1.4,1.4,0,0,1,.8.5,1.6,1.6,0,0,1,.7.7c.2.1.2.4.2.6s.3,0,.4.2a1.4,1.4,0,0,1,.2.7c.2,0,.2.2.3.3s.6.2.7.5S860.3,58.5,860.1,58.9Zm-6.4-9.3c-.1-.3-.4-.3-.6-.4l-.3-.4-.4-.4c-.8-.6-1.3.4-1.4-.2s-.3-.5-.5-.6-.8.2-1,.6a1.2,1.2,0,0,0,.7,1.4c.1.1.3.3.5.2s0,.2-.2.4-.3-.1-.4,0l-.8.4c-.3.4.2.9.6.8s.6.1.8-.2-.2-.6.2-.2a1.1,1.1,0,0,0,1.1,0c.2-.1.4,0,.6,0s.2-.2.4-.1S854,50.1,853.7,49.6Zm-5.9-2.1h.4a1.2,1.2,0,0,0,.8.4c.3-.2.6-.2.8-.4s.3-.2.3-.4-.2-.6-.6-.6h-.6c-.6-.6-.5,0-1.2-.3l-.6-.2c-.4-.2-.4.3-.5.5s.2,1,.9.9S847.7,47.6,847.8,47.5Zm1.1.6c-.4-.2-1-.3-1.3,0s.3.7.2,1,.1.7.5.7.3.1.4,0,.4-.1.5-.3S849.3,48.5,848.9,48.1Zm-4.2-3.4c0-.2.1-.5-.1-.6s-.3.1-.4,0,0-.2,0-.3l-.3-.5c-.1-.1-.1-.2-.1-.4l-.4-.4c-.5-.4-.9.3-1.2.6s-1.1-.3-1.1.3.3.3.2.6.3.3.2.5l.3.4c0,.2,0,.6.4.6h1.1c.1.1.2.3.4.4h.7a.6.6,0,0,0,.6-.6.4.4,0,0,0-.2-.4A.4.4,0,0,0,844.7,44.7Zm-8.4-6.4-.5-.2h-.4a.3.3,0,0,0-.4,0l-1,.4a.8.8,0,0,0-.2.4l-.4.4a.8.8,0,0,0,.7.9c.1.2.2.5.5.5l.5.2c.2,0,.3.2.5.1a2.2,2.2,0,0,0,.9-.7c-.1-.5.4-.8.3-1.3S836.6,38.4,836.3,38.3Zm-4.4,1.1c-.7.1-1.3,1.2-.5,1.6s.4-.5.7-.6.6-.2.5-.5.3-.2.3-.4S832.1,38.6,831.9,39.4Z"/>
  <path id="_19" data-name="19" class="cls-4" d="M833.8,67.4c-.7-1.3-1.5-.5-2.4-.3s-1.7-1.4-2-2.1-.4-.8-.4-.3-.8-.3-.4-.3a59.5,59.5,0,0,1-3.4-5.3c-1.3-1.2-2.5-2.7-4.2-3.2s-2.7-1.1-3.4.2c0-1.4-.3-.8-1.1-1.4s-.8.4-1.2.5.2.8-.3.8-1.6-1.1-1.6.5-.2,0-.4-.1-.3.8-.7.9-.8.2-1.2.4.6.2.2.6-.3-.4-.5-.4-.4,1-1,1-.2,1.5-.8,1.3a1.7,1.7,0,0,1-.8,1c-.7,1.1-.2,1.6-1.2,1.9,1.1.8-.6.1-.4.8s-.3-.2-.3,0-.2.4-.2.7-.4.9-.6.4-.4.8-.9.6.7.4.8,1.4-.6-.5-1,.3c-.3-1,.3-1.3-.4-.7s-.4-1.3-.4-.6,0,.3-.2.2-.2.4-.4.7-.2.3-.3.5-.7-.1-.6-.8-.4,0-.4.7a5.2,5.2,0,0,1-1.1-.2c-.2.2-.2.7-.7.4s1-1.4,1.6-1.8,1.2-1.9,2.2-1.6,4-3.8,2-5.7c-1,1.2-.8-1-1.5-.6s-.2-.2-.2,0,.2.1.1.3a.1.1,0,0,1-.1-.1h-.1c-.1.3-.4-.4-.2-.6s.1-.2-.1-.1-.1.6-.3.8-.2-.7-.5-.3-.6-.4-.4-1-.1-1.1-.2-1.6-.6-.8-1.2-.6-.1.3-.6.1-.3-.8-.5-1.2-.7-.1-.7-.8.3-1.2-.5-2.2,0-2.3.5-3.1c.6-2.4.8-1.1,1.9-.9s.6-.5.1-.7.9.6,1.3.1a1.3,1.3,0,0,0-1.4-1.9,2,2,0,0,0-1.9-.8c-1-.3-1.5-1.1-1.5-2.5-2.2-.9.3-1.9,1.4-2.2s1.1-1.7.2-2.6-1.2-1.2-1.6-1.8-.4-1.2,1.8-.8.7-3,2.3-2.4c1.4-1.3,1.9-.2,3.2-1.5a8.6,8.6,0,0,0,2.9,1.4c.7,1.2,1.7.2,2.7.9s1.8.7,2.7.8,1.8.3,2.8.5.5-.1.7-.3,1.1.2,1.6.6.6.3.8.9.5.8.3,1.5-.6,1.8-1.4,1.6.2,1.5.1,2.2.3,3.1,1.1,3.8,1.2,1,1,1.4-.3.2-.5.4.2.3,0,.2.5.3.8.5.4,1-.2.8-.5.4-.3.9-.1.5.3,1,0,.7-.2,1.3.4.8.5,1.4-.2.3-.1.7,2.5,2,1.7,0c1.1.3,0,1.5.7,1.3s.4.3.9.8-.4-1.6-.2-1.8.7.4.5-.4.9.7.6,1,.5.5.8.7.4-.2.9-.2.2.4.5.7.1,1.2.1.6-.4,2.1,0,2.3.4.4.5.1.3.8.6,1.3c.6-1.1.7,1.2,1,1.4s.6.8,1,.5.2,0,.3-.1.2,1.2,1,1.5.4-.5.4.2.6.3,1,1.5,0,1.2.2,1.8.3,1,.7,1.3S833.9,68,833.8,67.4Zm-23.6-7.7c-.3,1-1.1,1.1-1.2,2.1s.4,1,.7,1.5-.6,0-.5.7.7-.2,1.2-1.2,1.6-1.2.8-2.6.9,0,.4-.7S810.8,57.9,810.2,59.7Zm-11.6,7.6c-.5,1-1.2-.5-1.3,1.5-.5.3-.3-.3-.8-.4s-.6,1.2-1.2,1.3,1,.2,1.1-.2,1.9.1,2.3-1.1,1.7.4,1.1-.8C799.2,68.1,799.4,67,798.6,67.3Zm-7.1,3.1c-.1.8-1.8-.6-2.6-.5s-1.4.6-1.8.1-1.7-.1-1.2-1.4.5.7.8.3-.3.4,0,.4.4-.7.5.1.5-.1.7.2c.1-1.3.5.1.9,0s.9.2,1.1-.4S790.1,70.1,791.5,70.4Zm-4.4-.9c.1.1,0,.3.1.2S787.2,69.5,787.1,69.5Zm7.4-25.2c.9.9.3,1.5,1.5,1s.5-.5.1-.5-1-.3-.9-1-1.1-.1-1.6-.9C793.2,44.1,793.7,44.2,794.5,44.3Zm3.9,9.8c.1-.4.4-.1.6-.4s-.4-1.7-.9-1.5S797.5,53.3,798.4,54.1Zm-21.6,7.2c-.7.3.5,1,.7,1.2S777.3,61.3,776.8,61.3ZM794.3,70c.5.1.8,0,.7-.7S794.2,69.4,794.3,70Zm-11.8-2.3c-.2.4,1.2,2.1.9,1S783,67.7,782.5,67.7Zm9.9-18c-1,0,1.2,2.3.5.8C792.5,50.5,792.5,49.9,792.4,49.7ZM781.3,66.9c.1-.4.7.2.5-.3S780.7,66.4,781.3,66.9Zm20.4.5c-.5.6.9,1.2.6.3Zm-24.4-4.1c.3.5.7.5.6-.2S777.3,62.9,777.3,63.3Zm17-4c.1.1.6-.2.6-.3S794.2,58.7,794.3,59.3ZM782.7,67c-.2-.2-.9-.8-.6-.1S782.8,67.6,782.7,67Zm2.9,2.3a1.1,1.1,0,0,0-.7-.3C784.8,69.3,785.7,69.8,785.6,69.3Zm6.1.9c.2.3.6.2.5-.1S791.6,69.8,791.7,70.2Zm-8.1-2.3c.4.1.4-.3.2-.5S783.3,67.7,783.6,67.9Zm10.1,2.3c.2.1.5-.2.3-.4S793.4,70,793.7,70.2Zm-8.7-.7c-.1.2-.2.1-.3.4S785.5,69.7,785,69.5Zm22.3-5c.2.5.6.5.3-.1S807.3,64.1,807.3,64.5Zm1.5,1s-.1-.2,0-.3S808.4,66.1,808.8,65.5Zm-4,1.7c-.3.1.1.5.3.5S804.9,67.1,804.8,67.2Zm-11.6,2.7c-.1,0-.1.2-.1.3S793.7,69.4,793.2,69.9Zm2.2-9.3a.4.4,0,0,0-.4-.2C794.7,60.6,795.3,61.2,795.4,60.6Zm-17.2,2.1c-.4-.6-.2.3.1.4S778.4,62.7,778.2,62.7Zm4,4.4c-.3.2.4.9.2.2Zm3.2,1.9a.4.4,0,0,0,0-.5C785.1,68.3,785,69,785.4,69Zm44.8-1.8a.4.4,0,0,0-.1-.3C829.8,66.3,829.9,67.5,830.2,67.2ZM816.1,57.1c.2-.1.1-.3,0-.5S815.9,57.1,816.1,57.1Zm-36.2,7.8c.1.2.4-.1.2-.2S779.8,64.6,779.9,64.9Zm21.3.1c.1.2.1.3.2.3S801.3,64.7,801.2,65Zm-15.6,4.6c-.1.1.1.3.2.3S785.8,69.6,785.6,69.6Zm6.8-18.8c-.2.2.2.5.2.2S792.6,50.8,792.4,50.8Zm4.4-9.3c.1-.2,0-.3-.1-.3S796.7,41.5,796.8,41.5Zm-8.1,27.6a.4.4,0,0,0,.1.3C789,69.5,788.9,69.1,788.7,69.1Zm7.4-29.6c.2-.1,0-.4-.1-.3A.2.2,0,0,0,796.1,39.5Zm6,4.9c0,.1,0,.3.2.3S802.3,44.4,802.1,44.4Zm-5.4,23.3c.1-.1-.1-.4-.2-.2S796.5,67.8,796.7,67.7Zm-7.5,1.7c.1,0,.1-.2,0-.2S789.1,69.4,789.2,69.4Zm-10.6-6.2c-.1.1,0,.2.1.3S778.8,63.3,778.6,63.2Zm28.3,2c-.1,0-.1.2.1.3S807,65.2,806.9,65.2Zm-5-19.6c-.1,0,0,.2.1.2S802,45.6,801.9,45.6Zm-.1,21.1c0,.1,0,.2.1.2S801.9,66.7,801.8,66.7Zm-5.7-27.1c0,.2.2.3.2.1S796.2,39.5,796.1,39.6Zm33.8,26.8c0,.1,0,.2.1.2S830,66.2,829.9,66.4Zm-48,.4c0,.1,0,.3.1.3A.2.2,0,0,0,781.9,66.8Z"/>
  <path id="_18" data-name="18" class="cls-4" d="M768.2,69.6c.2.6.6,1.1.3,1.8s-.7-.3-.8.1.4,1-.3,1.6-.3.6-.7.4-1-.3-.8-.6,0-.2-.1-.2.5,1.1,0,1.4l.6.5a3.5,3.5,0,0,1,.8.5c-.2.1.2.2.1.5s.2,0,0,.1-.4.3-.2.4-.3,1.5-1.1,1.6a2.1,2.1,0,0,0-1.7.5c-.3-.4-.4-1.2-.8-1.3s.1-.3-.2-.2-.8.1-.7.7-.5.7-.3,1.1-.3.2-.4.1a.5.5,0,0,1-.6-.4c-.3.2-.1-.2-.3-.2s-.2-.1-.8.1H760c0-.1-.2,0-.3-.2s.1-.4-.2-.5-.3,0-.3,0-.1-.3-.3-.3-.1-.3-.3-.3a.2.2,0,0,0,0-.3c-1.4-.6-.3-2.2-.8-3.6-1.5-4-3.5-2.2-3-4.3s-1.8.2-3.1-2.8c-.6-.5-1.3-.4-2-.9s-1.5.1-1.5-.7-.7-.7-.2-1.2a4.1,4.1,0,0,1,.4-1.9c-1.4-.7.1-1.2-1.6-3.3-.1-1.8-1.7-3.1-1.1-5s-1.6-2.3-.4-5.7c.1-.7-.7-.9-.8-1.5s-.8-.1-.6-.4-.7-3.2-1.1-4.7,1.5-4.6-.2-6.8.9-2.1,1.7-3.4-.2-.9.3-1-.3-1.2.5-.9-1-3,.2-2.4.3-.4.7-.3.3-.7.7-.7-.1.6.4,1.1.2.4.3.4.3-.5.7-.5.3.4.5.5.6,0,.8.3.4-.6,1.3-.4.6.3.5-.2.2-.3.3-.4.3-.3.3-.1.3.1.5-.2a.6.6,0,0,1,.3-.8.9.9,0,0,0,.1-.5c.1-.2.3,0,.2-.4s.2-.9.6-1.2.6-1.8,1.2-.9.2-.1.2-.1-.1.2.1.2a.2.2,0,0,0,.1-.3l.3-.2c-.1.2,0,.2.1.1s0,.5.2.8.2.6.2,1-.3.3.1.3.6.3.7.6.6.1.5.4.4.8-.1.9.1.5-.3.5.4,0,.2.3.2.2.1.3.2.3.4.2.4-.1.4-.1.3.7.4.9-.1,1.1-.1,1.3.3.2.3.4.2.2.3.4-.1.4.2.3-.2,1-.5,1.5-.5.5-.2.8-.2.7,0,1-.4.1-.5.1-.1-.1-.2-.1.3.9.1,1.2-.2.1-1,.3,0,.1,0,.1-.1.5.2.6a.5.5,0,0,0,0,.5c-.2.4.7.1.3.9s-.1.8.1.5.3.2.4.3-.2-.1-.2,0,.1,1.1-.5,1.2.1.3.1.4-.4.7-.2,1-.7.3-1.1.1-.3.4-.5.2-.1.1-.1,0a.5.5,0,0,1-.6-.1c-.4.6-.1.3.1.6s.2,1.1,0,1.6.2.3,0,.4,0,.5.2,1-.2.4.2.7.2.3.1.5.2.4.4.5,0,.3.2.4v1c.1.1-.2.2,0,.3s0,.2.1.2.1-.1.3.2,0,0,.2.1.1.4.3.5a1.2,1.2,0,0,0,.9-.8c.3.5.7-.1,1.1-.1s.2.3.3,0-.3.4-.1.6-.2.1,0,.3l-.3.3c-.1.4.1.1.4.2s.1,0,.3.4.8,0,.5.5.1.7-.1,1.1-.1.5.1.7.1,0,.3.1.6.5.8.9a1.2,1.2,0,0,1,.7.2c.4-.4.2.1.4.3s1,.1.6.4.4.5.5.5-.4.8-.2,1.2.4-.1.5.1.5-.6,1-.8,0-.7.4-.7.2-.4.3.1.4-.2.5.3.2,0,.3.3.4.3.3.5,0,.4-.3.7.1.2.1.2.1.3.1.5a.7.7,0,0,0,.5.9c.1.1.3.1,0,.2s-.1.7-.3.8-.5.2-.5.6-.7-.1-.6.5,1,1.6.8,2.4.7.3.9,1.2.5.3,0,1,.1.5.3.7.4-.5.3,0,.4.6.6.8-.2.1-.1.4.8.7.9,1.3-.8,1.1-.6,1.6S768,69.2,768.2,69.6ZM754,70.8c.1.4,1,1.5,1.2.5S753.4,69.4,754,70.8Zm.5,2.8c-.3-.4-.4-.9-.7-1.3S754,75,754.5,73.6Zm-2.2-3.4c.1.3.6.1.5-.3S752.1,69.8,752.3,70.2Zm-1.8-3.8c-.3-.3-.6,0-.7,0s-.9.1-1-.3-.3-.6-.6-.3-.8-.1-.3.3.4.5.7.6.2.6.5.7,2.4.5,3.1-.2S751,66.7,750.5,66.4Zm-.4,4c-.2.5.9,1.2,1,.4S750.4,70,750.1,70.4Zm-.1-.6c-.3,0-.2.5.1.5S750.3,69.7,750,69.8Zm-5.8-23.2-.3-.5C742.9,45.4,744,47.8,744.2,46.6Z"/>
  <path id="_17" data-name="17" class="cls-4" d="M733.8,71.7c-.8,2.4-2,.8-1.8,2.5s-.8,1.4-2.4,1.3-.7-2.5-1.6-1c-2.3,3.2-1.4-1-2.7.8-.5-.6-.4-.3-.9.3s-2.7,2.6-3.7,1.3c-.8.7-1.5,1-1.9-.2-.6,1-1.9,2.6-2.4.8s-.5,1.8-1.4.1-.8.5-2.1,1.1-.6-.4-.6-.9-1.1-.6-1.2-1.6c-2.2-.2-1-3.8-2.8-4.2-5,5.5-1-3.5-4.1.9-1.4-1-.2,1.7-1.3,1.3-1.5-3.5-1.3,1.3-2.3-4.6-1.8.5-.5-1.3-.8-2.3a2.6,2.6,0,0,1-1.5-2.8c-1.7-.5-2.3,1.1-3,2.8s-1.4,1.9-3.2,2.4-1.3-1.4-2-.3c-1-2.1-.4-1-2-1-1.1-5.3,4.2-9.8,5.4-15.6,1.4-4.1,2.7-8.7,1.8-13.1.4-1.7,2.1-7.3,2.5-3.8s1.4,1,3-.3c2.5.8,4.8,1.4,6.8,1,.7-5.3,3.8.3,5.2-4.5,3.3.1-.2,2.1,1.9,2.5s2.4-5,1.6-7.1,1.1-2.7.7-4-.4-1.3-1.2-1.7.6-.1,1.1-.7,1.4,2.5,2.4,2.7.3,1.1.7,1.3,1.1,3.2,2.3,2.5c.6,4.4,5.3,7.1,3.2,11.6.4,3.3,4.7,7.4,2.7,9.9-.4,1.6,1.2,2.4,1.9,3.7s-1.5,1.3-.3,1.6-.7,1.5-1.2,2.3.3,2.7-.4,1.6-2.2-1.3-3.7-.1-.1,2.8.4,3.7-.3,1.2.4,1.2-.1,3.2,1.3,1.8c.6.3.9.4,1.5,0s2.3.8,2.5-.3,1,3,2.4,1.4c0,1.4,3,3,1.3,4S736,71.4,733.8,71.7Z"/>
  <path id="_16" data-name="16" class="cls-4" d="M686.5,35.6c-1.4.3-1.7.3-2.7-1.9-.6,1.1-2.2,3.7-2.7,1.3-.3-.4-.3.4-.5.6s-.3-.6-.4-.5-1.5.7-1.7,1.5-1.7.4-2.2,1.3c-.4-1.7-1.4,1-2-.4s-1,3.2-3.5-.7c-.1.4,0,2.2-.4,1.5s-.7.1-1.4-1c-.5.5-.1,1.8-1.2,2.1s.1-1.5-1-1.6-.3-.9-.5-1.1-1-.2-1.4-1-.6-4.2-2.5-2.1-1.1.2-2-1.6c-.5,1.3-2.3,1.1-1.9,1.9-.7,2.9-.8-2.2-2-.3s-.5,3-1.6,3.6a1,1,0,0,1,.1,1.5c-1.6-1.4.1,1.2-.3,1.8s.4.3.2,1.8,0,1.3-.7,1.8-3-.2-1.9.4c0,2.2.7,8.5,3.2,6.8s-.1,1.3,1.3,1.3-.4,3,2.4,3.7.1,2.6,2.2,2.5c.5-.5.7-2.1,1.3-1.4s.1,2.4,1.3,3.3c0,2.7-2-.2-.5,4.5.8.4,1.6,1.8.6,2.4.6,1,2.1-.1,1.8-1,1.6,1,.9-.3,1.7-1.2s-1.7,2-2.9-2.5c.4-3.7,3.1-.3,2.7-3.7-2.1-2.9,2.9-3.7-.1-6.1,1.4-.7.9-2.2,1.1-3.3,3-2,1,.9,1.2,2.6-2.1,4.6-.8,10.1.4,2,1.7-1.3,3,.7,1.1,2.5.4.2.7,1.8,1.3,1.3s.7.5,1.3.3,2.9.7,3.6.9c1.4-2,2-.5,1.9-2,1.5-.5.2-.7.3-1.7a40.7,40.7,0,0,0,2.8-5.5c.6-1.2-.4-1.6.9-1.8s-.8-3.1,1.1-3c1.6-2.1,1.1-2.6,1-5.1-.5-1,.9-.2,1.1-.9C685.3,37.1,686.6,37.2,686.5,35.6Z"/>
  <path id="_15" data-name="15" class="cls-4" d="M644.3,57.5c0-.1.1-.2-.1-.3s-.1-.1-.2-.1-.6-.3-.4,0-.8,0-1,.2-.5.5-.7.3-.2-.1.1-.3.2-.2-.1-.6.4-.2.1-.5.2-.2.3-.6.7-.3.8-.6l.4-.6c.2-.2.4-.1.1-.3s-.1-.5-.5-.6-.1-.3-.1-.5a.3.3,0,1,1-.1-.6c.1.2.2-.4.2-.5s.4-.6.8-.9,0-.3-.1-.4a.5.5,0,0,0-.3-.5c-.6-.4-.2-1.1.2-1.4s1-1-.1-1a2.5,2.5,0,0,0-.9-.4c-.2.1-.3.5-.5.4s-.4-.3-.6-.5-.2-.6,0-.8.6-.3.4-.6,0-.1.1-.3-.2.7-.9,0-.6.6-1.1.6-.6.4-.7.3-.2.3-.4.2-.1,0-.3,0-.3-.1-.2-.3,0-1-.3-1.4.8-.7.6-1.3-.4-.1-.3-.4-.1,0-.1-.1-.3,0-.6-.3,0-.8-.4-.9-.6.4-.8.4a.9.9,0,0,0,0-.7c-.2-.1-.1-.4-.1-.5s-.3-.1-.4.2-.4.5-.6.5-.3,0-.5.2-.2-.1-1.2-.1-.2-1.1-.7-.3-.2-.1-.1-.3a.4.4,0,0,1-.1-.5c.3-.6.2-1-.3-.5s-.4.5-.5.3a1.2,1.2,0,0,1-.7-1.4c.2-.2-.1-.3-.1-.5s.1-.6-.1-.8.2-.9-.4-.9.3-.5-.2-.3-.5-.2-.6.2,0-.2-.5-.7-.3-.2-.5-.4-.2,0-.4.2-.7,0-.8-.4-.5.8-.7.4,0-.4-.8-.1-.8.4-.8-.7-.1-.1-.1-.4-.6,0-.5-.5.5-.2.5-.6.4-.2.3-.5a1.8,1.8,0,0,0-.5-2c-.3.2-.1.9-.5.4s-.7.1-.7-.2-.2.3-.1.4a8.6,8.6,0,0,1-.2,2.3c.1.2-.4,0-.5.3s-.1.3-.2.5-.1.8-.3,1.1-.2.3-.4.2-.3,0-.3-.1-.2-1.3.3-1.9.5-2,.9-2.8-.3-.3-.2-.5-.1-.3.2-.5.4-.3.2-.6,1.2-2,.2-3.6c-1.1,1.8-1.3.1-1.3,1.2s.3.7.1,1.2-.1.9-.5,1.1,0,.3-.1.6-.5.6,0,.8.3.7.4,1-.1.6-.3.9,0,.4-.3.3-.1.6-.6.6-.1,1.9-.1,2.5.2,2.7-.4,2.2-.8-.3-1.6.6-.3.9,0,1.8.3.7-.1.8.2.2.3.3.1.5.3.3.3.2.4.3.3-.1.3.2.2-.6.8-.6.3.4.5.2a1.4,1.4,0,0,1-.6,1.1c.1.2-.1,1.5-.5.9s-.5-.3-.7-.3-.2,1-.5,1.1.1,1,.2,1.1-.2.1-.1.2,0,.8.3.7a1.2,1.2,0,0,1,.6.8c0,.5-.7,1-.4,1.6s-.3.4-.2.6.6,1,.5,1.5,0,.8-.4.6-.7.2-.8.4a1.2,1.2,0,0,1-.3,1.6c-.3.3-1,0-1.3-.4s-.1-.5-.2-.2.2,1.6.4,1.5.4.5.7.4l.5.7c.2.2.1.5-.2.6a1.2,1.2,0,0,1-.2,1.1c-.8.9-1.5.3-2.5.9s.1.2,0,.3.1.3-.2.3.3.3.3.6a2.9,2.9,0,0,0,.3,1.5c-.2,0-.1.4,0,.4s-.1.5.2.2,1.2,1,.9,0,0-.2.2-.3.1.4.6.4,1.4,2.1,1.9,1.7a.9.9,0,0,1,1.4.8c-.2.5.7.7,1.3,1s.3.6.4.3-.5,1.6-.3,2.5.6.7,1.3.6.5-.3.6.2.6,1.1.6,1.8-.4.1-.4.1,0,.4.1.5,0,.1.1.1.5.5,1.3.4,1.6-.1,2.1.1.1,1,.1,1.3.6-.5.7-.2.2-.2.1-.4.5-.6.7-1,.8-.4.9-.5.5-.8.5-1.4.6-.3,1-.6.6-.3.6-.8a5,5,0,0,1,1.7.2c-.2.4.2.5.2.8s.4,2.1.8,1.9,0-.3.1-.1-.1-.5,0-.6.2-.7.5-.9a1.7,1.7,0,0,1,1,.1,1.5,1.5,0,0,1,.7-.3c.3-1,1,.1.9-1s.1-2,.8-1.8.1-.2.2-.3-.2,0-.2-.1.2-1,.1-1.3-.2-1.1.8-.9.1.9.8.6.3,0,.4.1,0,0,.1-.2.4-1.5-.3-2.2.3-.9.3-1.5.9-.2,1.5-1.3.6-.3.4-.4.1-.6.3-.8.1-.7.1-1.1S644,57.6,644.3,57.5Z"/>
  <path id="_14" data-name="14" class="cls-4" d="M607.5,49c0,.5-.1,1-.6,1s-.6.7-.2.6.5.2.1.4.1.2-.1.3-.5.2-.4.5-.7-.1-1.1.1-.3-.1-.7.2.1.7-.3.7-.4.8-.1.8.5.3.7.5-.6.7-.5,1.2.1.8.5,1.1-.3.4-.4.6-.5-.3-.8.2-1,.5-.9,1.1-.4.1-.6,0-.3.1-.5.1-.6,0-.9.4-.5-.2-.6.1,0,.7.1.9a.8.8,0,0,1,.7-.2c-.2.4.1.6.4.3a.6.6,0,0,0,.5.5c.4-.2.2.2.4.4s.1.3.4.1-.2.5.1.8.6.5.1.9-.2.4-.4.7.1.3-.1.4-.9.3-.8.6a1.9,1.9,0,0,0-.3,1c.2.2-.3.4-.1.6a2.1,2.1,0,0,1,0,1.1c-.4,0-.2.3-.7.5s-.6-.2-.9.1a1,1,0,0,1-1,.9c-.6.1-.5.7-1.1.9s-.2,0-.5,0,.2-.4-.9-.3-1.2.3-1.5-.1-.3-.3-.5-.4-.3-.8,0-.9.6-.4.3-.6.3-.3.1-.3-.2-.6-1.3.6-.8.5-1.3.3-.2.2-.3.3-.3.1-.4-.2-.2-.2-.3-.3.1-.2,0-.5-.3-1.1.3-1.6-.3-.8-.5-1.2-.2.2-.2,0-.3-.4-.4-.6-.2-.4-.5-.4-.3.5-.5.4-.2-.8-.1-1.2-.7.7-1.1.8-.8.6-1,.1h-.5c-.2.1-.2.2-.2,0s-.1-.3-.2-.5-.6.9-.6.1-.1-.3-.1-.6.3-1.2-.2-.6-.4.7-.7.2-.7-.8-.5-1.2-.1-.5-.3-.7-.2-1-.1-1.5,0-.7.7-.8,1.2.5,1.2-1.3.7.3.7-.7-.4-1.7.2-2.2,1.2-.3,1.3-1.8,0-.2,0-.4a5,5,0,0,1,.4-1.3c.1-.5.8-.8.7-1.5-.1-2.3.5-.1.7-1.2s-.1-.7-.1-.9-.4-1.2.2-1.2.7-.7,1.2-.8,0-.5.2-.8.1-.3.3-.1.2-.2.4-.1.1-.5.1-.6.2-.3.1-.5.2-.3-.1-.5.3-.3.1-.5,0-.1-.1,0,0-.3-.1-.2.2-.3,0-.4.1-.2,0-.3-.2-.1-.2-.1.2-.4.2-.7-.1-1.1.8-.8.6-.6.1-.9-.2-1.3,0-2.1.8,0,.4-.7v-.6c0-.2,0,.3.1.3s.3.1.2-.2.1-.6.1-1,.2-.4.2-.8.2,0,.4-.1.7-.2,1-.5a2.5,2.5,0,0,0,.2-.7c-.4-.2,0-.7.3-.5s0-.5.3-.5.5.3,1.2,1.9,0,.3,0,.5.3.4.5.4.5.8.6,1.1-1.2.4.5,1.8-.1.7.4.6.1-.2.3-.2.3.3.6.4.8.5.8-.1.4,0,.5-.1.2-.1.4-.3c.3,1.6,1.2.1,1.2.7s.6.4.8.4.4-.1.3.2,0,.2.2.1-.3.9,0,1.4-.5-.7-.7-.1-.1.3-.2.3,0,.5-.1.6.2.5-.3.7.6.1.4.4-.4.4.1.6.1,0,.3.1a.9.9,0,0,0,.5,1c-.2.4,0,.3.2.5s.2.3,0,.5.7.3.7.9-.5,2.4.2,2.1,0,.2.2.2.3.2.5,0,.5.2.8.1.3.2.4-.1.4-.6.5,0,.4.6.3.9S607.9,48.7,607.5,49Z"/>
  <path id="_13" data-name="13" class="cls-4" d="M583.4,80.7c-1.5-.8-3.4-4.4-4.9-1.9-2.4.3-3.3,2.1-4.9,3.8-.9-1.5-1.5,1.2-2.1.2s-.3-.8-1-.9c.3-1.9-2-1.4-2-.3a8.4,8.4,0,0,1-3.7-.7c-.2-1.9,2.8-4.2.6-5.7s-2.1-.5-2.8-2-.5-.9-.5-2.7c1.1-.2-.5-.9,0-1.7s-.2-.6-.2-1a2.6,2.6,0,0,1-.7-1.1c-.5-2.3-1.6.1-2.3-.3s-.1-1-.9-1.9-.5-.6-1.1-.5-.7-1.3-1.4-1.8-.8-.1-1.5.2.8,2.2.1,3c-1.1-1.5-1,.1-1.5,1a19.9,19.9,0,0,0,2.1,4.7,3,3,0,0,1-.7,1.5c0,.5.1.7-.2,1.1-2.4.6-.7.7-2.5,2.3-.8-.6-.9-2.2-1.9-2.2s-1.9,3.6-2.5-.7c-1.2,0-1.5-1.5-1.7-2.4a1.9,1.9,0,0,0-1.2-2.4c-.6-.4-1.7-2.5-.9-2.7s1.2.8,1.9-.1c1.7,2,.6-1.7,2.1-1.2s-1.3-.7.8-2.3,1.4,1.5,3,.2,1.2-2.3,2.1-4.2c.7.5,1.1.1,1.9.1.1-2.5-1.2-3.4-3-4.6-.3-.6-.6-.3-1.2-.7s-.2-1.6-1-1-2.1.7-1.5,1.8-1.2,2.8-2,1.6.4-2.4.6-3.4-1.1-1.4-1-.4-1.7,1.5-1.6,3.3-2-2.6-2.7,0c-1.2.6,0-1.1-.6-1.3s-.5-1.5-1.2-2.1.8.1.7-.7,1.1-2.2,1-3.3c.3-2.9,2,1.8,2.2-1.9-1.9-2.4,1.7-2.8,2-4.9.9-3.8-2.1-.1-2.2-1.8s2.7-2.2,1.2-3.7.6-1.6,1-2.5-1-1-.8-1.7,1.3-.8,2.2-1.2a11.4,11.4,0,0,1,3.2-2.2,4.9,4.9,0,0,1,1.7-4.1c1.3-3-5.5-3.2-1.3-4.4,1.3.2,1.6-.5,2.4-1.5.8.5,1.7-1.2,2.1.1s1.7,2.3,1,3.4.7-.3,1,.4c.1,2.7-.9,4.4-1.4,6.7s.2,1.4,1.2,3,1.1,1.9,1.6,3.1.9,0,1.3.1,1.1.5,1.2,1.2-.6,1-.7,1.9a28.4,28.4,0,0,0,.5,3.8c-2.5,3,1.2,3.9,2.5,6.3s.2,2.8,1.8,2.9a6.6,6.6,0,0,0,2,2.7c3.3,1.3,4.7,1.2,4.6,5.4-1.1,2,.6,4-.2,6.4.7,1.1,1.8,1.6,1.9,3s.6.3,1.1.2.6,2.5,2.3,2.7c0,1.3.7,2.3,1,3.9s.8,1.7,1.1,2.5,2.8,0,3.5,1.5C584.5,77.7,584.5,79,583.4,80.7Z"/>
  <path id="_12" data-name="12" class="cls-4" d="M531.4,47.6a2.1,2.1,0,0,0-.7,1.3c-.4.4-.8,1.3-.4,1.6s-.2.5,0,.8,0,1.1-.2,1.6-.2.8-.5.9c-2.4-.3-3.9,2.1-5.4,3.4s-5.9,3-7.3,5.9,1.8,7.5-1.4,8.4c0-.2-.2-.2-.3-.2s-.2-.4-.4-.4-.5-.2-.8-.4-1.8.1-2.1-.6-.9-.5-.4-.4a3.4,3.4,0,0,1,.1-1c-.8-1-1-.3-1.2-2a2.1,2.1,0,0,1-.4-1.9c-.5-.3-.7-.5-.4-1s-.6-.3-.8-.5-.3.1-.4,0-.5-.5-.8-.9.1-.7-.2-.8,0-.4,0-.5-.4,0-.8-.1-.6-.2-.5-.5-.3-.6-.2-.9l-.4-.4c-.6-.4-.5-.3-.9-1s-.4-.9-.1-1.5-.4-1.6.2-2.2-.7-.3-.4-.7-.2-.3-.3-.6a.4.4,0,0,0,0-.5c-.5-.4.5-1.1.4-1.6s.1-1.1-.2-1.6a1.9,1.9,0,0,0-1.1-2.2c-.4-.2-.3-.7-.7-.4s-1-.4-1.6-.5-.8-.1-.9-.5-.3-.1-.5-.3-.4-.2-.4-.5-.5-.2-.7-.4.1-1.4-1.3-1.5-1.6-1.3-.9-1.7-.1-.7-.2-1a.7.7,0,0,1-.4-.5c.2-.2-.2-.2-.2-.4s-.1-.6-.4-.8-2.7-1.5-2.2-2.5-.1-1.3.3-1.6.4-.2.3-.4.5-.3.1-.6-.4-1.1-.3-1.8,0-.4,0-.6a2.5,2.5,0,0,1-.1-.9c0-.4.2-1.2.7-1s.2-.6.6-.7a13.2,13.2,0,0,0,4.4.9,10,10,0,0,0,2.3,1.5c.5.1.2,1,.8.8s1.3,2.6,2.3,2.1.5,1.5.9.8h.5c.4.3.9,0,1.3-.1a1.7,1.7,0,0,0,1.4-.1c.4,0,.9.3,1.1-.1s1.8,1.6,1.8,1.2.7-.4,1.1-.4a1.6,1.6,0,0,0,.9-.2c.5.5.6-.1,1.1-.1s.5-.2.7-.3,1-.5,1.4-.3.4,0,.6.1.2-.2.2.1.1-.1.1-.1.3.1.4,0,.4.3.6.5.6.2.8.5h.6c.1-.1.2.4.3.4s.5.4.7.6.4.5.7.7.6.1,1,.4.3-.2.5.1.9.4,1.3.7.2.6.5,1,.2.1.4,0,.8.5,1.1.8,1.6-.7,1.9.4.3.1.5.3.1.3.2.3.1.5.5.6.4.3.4.7.2,0,.2,0l.5.2c-.1.7.4.7.5,1.2s-.1.4.1.4a4.2,4.2,0,0,1,.4,1.2c.2.2.5.3.5.7S531.3,47,531.4,47.6Z"/>
  <path id="_11" data-name="11" class="cls-4" d="M487.3,46a29.5,29.5,0,0,0-1.6,3.7c.1,1.9-1.3,1.9-2.6,1-.5,1-.9,1.2-1.1,2.1s1,.3.9,1.1,1.4,2.9-.1,1.9-.1-.7-.7-1-.9-1.2-1.3-1.5-1.6.2-2.5.3-1.9.9-3.2.4,1,1,1,1.8.3,1.2.8,1.8,3.2,1.9,2.6,4.6,1.4,2,.8,3.7,1.7,2.5,2,4c-.8-.3-1.1-.3-1.1.6-1.2-2-1.8.9-2.6-2-.6-1.3-2.3-3.8-4-4.3s-1.5-.7-2.4-.5c-1-2.6-3-1.4-4.5-3.6s-3.3-1.9-5.2-1.1-2.5.1-3.6,1.1-2.1-1.8-3.7-1-2,.1-3,.1-.3-1-1-.8-1.8-2.8-3.5-3.4-6.1-1-7.9-3.6c-2.5.4-2-3.9-4.5-4.5.6-2.6,2.2-5.5,1.9-8.6-2,0,.1,0-1.3-2.7-.5-.3-.8-2-1.4-1.3s-1.2-2-.4-2.6c-1.1,0-.9-1-.4-1.6s.5-.5.9-.6-.6,2,.5,2.2,3.4.9,3.5-.5c.9.2,1.4.6,2.3.2,2.9-1.7,1.9-1,4.2.7,1.3-.1,1.6.7,1.8,1.7,1.9.3,3.4,1.3,5.3,1.2s3.9.1,6,0,2.2-.7,3,.2,1.3,1,2.3.6.4-1.2,1.5-.5,1-1.4,2-1.5,1,.7,1.5,1.6,1,1,1.8.9.6,1.2,1.4,1.1.3,2,.9,2.4,1.9-.3,2.6.6.7,1.3,1.4,1.5c.7,2,2.7-2.5,3.8.3,1.9.1,3,.3,2.8-2.2.6,0,1.2-.3,1.7.2s1.1-1.4,1.8-.9.2,3.7,2.1,3.6S488.1,45.1,487.3,46Z"/>
  <path id="_10" data-name="10" class="cls-4" d="M442.8,74.8c-1.9.7-4.1.9-3.2,3.6,0,.9-.1,3.2-.9,3.7s-2.1.5-2.8-.9-1.1.4-1.7.2-.7,1.3-1.1.9-1.3-2.1-2.2-2.5c-1.3,1.2-3-.6-3.3-1.9s-1.3.2-1.2-1.7c-2,.2-1.9-3.3-3.8-2.5s-1.3,2-2.1,1.1c-1.6,2.3-3.8-1.2-6.3-.1s-4-.7-6.2,0-3.3-1-5.3-1.2c.2-1.5-.9-1.6-2.2-1.9s-1.4-2.2-2.3-1.3-4,.1-3.8,1-2,.3-2.4,1a2.2,2.2,0,0,1-1.5-2.7c.5-.5,1.2-.5,1.5-1.5s-.6-.3-.2-.6.9-2.3.6-3.5c-1.4,1.2-3.5.3-2.6-2a21.3,21.3,0,0,1-2.1-4.3c.6-.7.2-1.6,1.2-1s.6-1.4-.1-1.4-.1-.3-.5-.4-1.3-.1-1.8-.8-1.3,1-1.8.1-2.2-1.1-1.7-2.5c-1.4-1.5-1.1-3.4-2.2-4.5.1-2.7,1.9.4-.3-3.1-.2-.8-1.1-.8-1-1.6s-.7.5-1.4-.3c-1-2.7-.5-.1-2-.5a3.3,3.3,0,0,1-1.5-.5c-.4.5-.6.6-1.1.3s-1.1,1.1-1.2-.7-.3-1.2-1-1.6a12.5,12.5,0,0,0-.8-4.2c1.8-1.3,2.6-2.2,4-.3s.7-.9.6-1.7,1.4-.9,1.1-2.1,1.4-1.9-.3-2.3l-1.3-1.9a2.8,2.8,0,0,1,1-2.3c-.5-1.4-1.8-2.5-.5-4.1s1.1-.7,1.5-1.5.3-.6.9-.5,1.3-.9,2.4,1.1c.9.2.7-1.1,1.7-.2s.1.2.5.5,1.5-.5,1.8-1.7,2-.6,2,.2c1.5-1.3,2.7.3,3.6,1,.6-.9,1.2.6,2-.1s.4,1.3,1.3,1.1.9,1.1,1.5.6a4.4,4.4,0,0,0,2.6-.4c.6,0,1.4,2,1.7.7s1.1.3,1.3-.5c.4.8.9.8,1.8,1.2s-.3.8.6.7.6,1.3,1.1,2.2,1.4-.7,2.4-.3a42.2,42.2,0,0,1,3.9,4.7c1.4-.7,1.7,1.9,2.6,1.8.7,1.4.8-3.6,4.6-.4.5-.3-.1.6-.2.9a1.7,1.7,0,0,0,.8,1.6c-.1,1,.1.6.5.7a1.2,1.2,0,0,0,.4,1.4c1.4,0-.4,2.4.7,2.6-.7,2.4,2.6.7,2.7,4.9a5.1,5.1,0,0,1,1.1,3.1,22.8,22.8,0,0,1,2.1,3c.7.2.5,2,2.1,1.4s.5,1,1.1,1.1a2.7,2.7,0,0,1-.1,2.6c-1.7.6-.2,1.6-.2,3.2a8.9,8.9,0,0,0,3.4,5.4c1.3,2.2,2.6-.6,4.4,1.7s-.1,7,3.1,8.4c1-1.4,1.1.7,2.1.8s2.1,1.2,2.8-.2C445.9,72.3,443.4,74.4,442.8,74.8Z"/>
  <path id="_9" data-name="9" class="cls-4" d="M367.3,47.4c.5.4.4.7.7,1s1,.1.7.4c-2,1.2-2.1,3.1-4.1,4.2-.5.1-.1-.1-.3-.4s-.9-.1-.7-.6-.5.1-.6-.5c-1,2-.7.6-2.3,1.6s-.4-1.5-1.1-.7-.8,1.1-1.5.9a4.4,4.4,0,0,1-1.7-1.4c-3.1.6-1.8.8-3,2.5s.7,2.9-.5,4.3c.7-.7.7,1.3-.4.7s-1.1,0-.5.9a2.4,2.4,0,0,1-1.8,2.6c-.5-1.2-2.1-.5-1.7-2.2s-.8.8-1.2.5-1.3.2-.9-.3-.9-.5-.4-1.5-.2-1.6-.2-2.3-.8-1.5-1.5-1.9-1.6-1.9-.3-2.7,0-.3-.2-.3c-5-3.4-3,3.6-5.8-.9-.3-.8-1.4-.4-1.5-.9s-1.1-1.7-2-2.4-.8-.8-1.4-1.4a1.4,1.4,0,0,0-2.3-.2c-.8-.2-.9-1.3-1.3-1.9s-1,0-.4-.8c-1-.5-3.1-1.1-1.6-2.3s.6,0,1,.3.2-1.1-.2-1.7,1.1-1.1,1.5-.4.6.2,1-.3-2.4-2.2-1.4-2.1,1.1,1.6,1.7,1.1.1.3.2.4.9-.4.9.3.3.9.7,1.3.5.4,1,.5.9-.3,1.4-.2.3-.3.6-.1.5,2.8,2.1,3.3.3,1.1.9.5c.1.9.6.9,1.3.5s.6-.7,1-1.6.6.7,1,1,.3,0,.5-.1,1.2-1.2,1.4-.3.3-1.1-.2-.6,0-.3-.2-.5.8-.5,1.6-.7,1.6-1.3,2.3-.2,1-.7,1.3.2,1.5.2,1.4,1.7.8-.2,1,.3a2.6,2.6,0,0,0,1.4.9c1.4,0,.2-1.5,1.4-1.8-1.5-1.4.8-.9,1.4-1s.7-.3,1.2,0,.7-.2,1.1-.5c0,1.3,1.6,1.1,1.8,2s1.2-.3,1.6-.5.3.6.6.9.8-1,1.2-.4a3.5,3.5,0,0,1,2.2,1.6c2.4-1.1,1.7-2.1,3.2,0s-.1,1.2-1.2,1.4S367.9,46.6,367.3,47.4Z"/>
  <path id="_8" data-name="8" class="cls-4" d="M313.1,28.6c1.5,1.3-1.4,3.9,1.1,3.5.5,0,2.1-1.4,1.6-.3s.6,1.5,1.4.7.2.3.3.1.5-1,.7-.2,1.1-.1,1.1.6a12.8,12.8,0,0,0,1.3,2.1c-.3.3.2,1.3.1,2s-.4,3.8.1,5.6-.9.1-1.1,1.3-.9,3.2-.8,4.9-1.8,1.2-1.8,2.9c-.8,3.6-2.9,1.6-2.4,6.1,0,.6-.7.9-.8,1.4s.1.1.2.2-.1.3.1.2,1.4,1,.6,1.9c.7.4.9,1.3,1.7,1.5s.4.4.6.6.4,1.5,1.1,1.6.2.4.6.4.9-1,1.3-.6c2.3.1,1,2.7,0,3.4s1.2.6,1,1.4-.7,1.6-1.2.8-.9,1.7-.9-.4-3.8,1.1-5.3.8-.9-.2-.5-.6c-1.6-.6-3.2-.8-4.4-1.7-2,.9-4.7-1.9-6.5-.3s-.2-.9.2-.7.1-.8.4-.9-.6-1.8-.1-2.7,1.9-2.3,1.4-3.8.8-.1.7-.6.6.6.4.1.7,1.9.7.4,1.4.5,1.1-.3-.4-1.2-.6-1.7-.7-.6-1.3-1.7c.2-2.9-.9-2.2-.9-4.5s-.4-3.1-1.8-2.8-.2-.8-.7-.7,0-1.3-.5-1.2,0-1.4-.5-1.7-.7,0-1.1-1.4a2.9,2.9,0,0,0,2.9-.8c.2-.1.4.5.7.3s.9.3,1.1-.3,1.7,1.2,2.6,1.6,0,.5.3.2-.1.8.5.9.6-.2.6,0-.4-2-.7-2.1-.7-.3-.8-.7-.2-.2.1-.3.2,0-.1-.4.9-.2.3-.3.8-.5.5-1.1.5.1,1.1.1.9.4,1.4.1.1-1.6.8-2.5a1.5,1.5,0,0,1,.5-1.2c.4-.2-.2-.5.2-.7s2.6-2,2.2-3.3-1.1-.8-1.6-1.4S311.1,29,313.1,28.6Z"/>
  <path id="_7" data-name="7" class="cls-4" d="M270.6,24.1c-.1,1,1.1.8,1.4,1.6s1.1-1.4,1.3-1.1.3-.2.6,0,.2.2.3.3.3.6.2,1.2-.6,1.2-.1,1.6-.2.9.8,1,.2,1.2.7.5-.5,1.3.2,1.4.7.4,1.1,0,.9-.6,1.3,0,.1.3.3,0,1.2,0,1,.5.6-.3.9-.1.9.1.9.5,1-.6.9-.5.2-.1.5,0,.2-.3.7-.2.3.5,1.3.5.5.7.7,0,.2,0,.1-.1.2,0,.2,0,.3-.1.4,0,.1.1.3,0-.2.4.1.2-.1.1.1.1-.3.5-.2.6-.1.5.2.4-.2.4.1.5c-1.6,3.7.6,1.4.2,2.8s-1.2,2.9-1,4.8-1.9,4.3,1,3.2.8-1.5,2.6,0c.2,1.1.6,1.3.8,2.2s.1,1.6.5,2,1.5,3.7,1.7,4.5,1.2.2,1.1.4-.9,1-.1,1.1.5-.7.9-.3-.3-.6,0-.5.1-.1.2-.2,1.2-1.3,1.6-1.1.2-.5.3-.1.1.4.2.5,0,.3.2.4,1.2.5.7.4.5.1.2.3-.8-.1-.8,1.2c-.5-.3-.8-.4-1.2,0s-.6-.6-.8.4,0,.7-.1,1.2-.6.2-.2.5-.3.7-.8.6-1.3,1.1-1.6,1.6-1.2-.3-1.3-.8-1.2.2.1.9-.8.7-.1,1.5c-.7,3,1.2,1.8,0,2.7s-1.8,3-1.2,3.4.3,2.8.7,4-.1,1.4-.6,1.6-.5.8-1.1.8-.4.6,0,.4a2,2,0,0,1,1,.7c-.1.1-.1.5-.2.3s-.7.8-.5,1.5c-1.6.2-.2-.9-1.5-.9s.7-.6-.2-.3-.9.9-1.6.6-.4.2-.5.2-.1-1.6.1-2.3-1.2-1.4-1.9-.3a.8.8,0,0,1-.5-.2c-.2.2-.6,0-.8.4s-.8,0-.6.5c-2.6-.1-1,.2-1.7-2a1.9,1.9,0,0,1,1.9-2.4c.9-.1,1.6-.8,2.4-1.1s.4-.9.8-.8h0c.6-.3,0-.1-.4-.5s-.9,1.3-1.9,1.2-1.6-.5-2.2-1.4-.9-.1-1.3-.1-.3-.4-.5-.2c-3-1.7-.5-7.4-3.5-8.9-.9-.9-2.3.9-2.9-.5a14.2,14.2,0,0,1-2.5-2.4c.2-1.1-1.7-2-1.2-3.1a18.4,18.4,0,0,0-.9-2.5c.6.8-.1-.5.4-.8s.7-.8,1-1.3-.5-1.3-.5-1.7.1-1.1-.7-.8-.6.1-.9.1-1.1-.7-1.1-1,.1-.5-.1-.5-1.6-2.2-2.4-3.3-.4-1.8-.9-2.4-.7-2.2-.7-2.9,0-1.4.4-1,0,1.2.6,1.3,0,.4.2.2.3,1.1,1.8.4,1.4-1,.8-1.7-1-1.2.6-2.2c-.2.8.8,1.1,1,.3s-1.2,0,.1-1.2.3-.6-.2-.8.3-1-.1-1.1.4-.9.1-1.4.7-.1.4-.7-.2-.9.1-1,.7.2.7-.8A2.4,2.4,0,0,0,270.6,24.1Z"/>
  <path id="_6" data-name="6" class="cls-4" d="M256.4,41.5c.3,1.3,1.2-.9,1,.5.4-.2,0,.2.3.2s.5,0,.2.4.4.3.2.3.3.8-.5,1-.1,2.5-.6,2.9-.4.2-.5.6-1.1,1.5-1,2.3.3.4-.1.5.3,0,.2.2-.5,1.2-.9,1.6-.5.2-.9.3-.3,0-.4-.1-.4.8-.7.5-.4,1.2-1,.3-.2,1.2-.5,1.2-.4-.1-.4.2-1.2,1.1-1.8.3-.5.1-.7-.5-.1-.9-.6-.7c-1.6-1.6-.6,1.6-1.7,1.6s-.1-.3-.4-.2-.6,1.6-.6.5-1.7,3.9-2.4,2.4c-.5,0-.7.3-1,.7s.5-1.1-.5-.8-.6-.3-.8.3-2.1-.7-2-.5-.3,1-1,.9-2.2-.6-2.1-1.7-.4.8-1-1.4c-.2-.3-.1-.6-.2-1s-.4-3,.2-3.7-.4-2-.1-2.2-2.6-3.3-.9-3.3.4-1.1,1,.3,1.7,3.6,3.3,4.1,2.5,1.3,3.6,1.7,0,.3.1.1.4,0,.5-.1.3-.2.5-.1a4.3,4.3,0,0,0,2,1.4c.7-.3,0-1.3.5-1.3s1.1-1.1,1-1.4-.8-1-.1-1.6,2.7.9,2.8-.6-.8-1.3-.1-.8a7.3,7.3,0,0,0,2.1-1.6c1.5-.4,1.9-1.5,2.9-2.3s.7.8.7.2S255.6,42.3,256.4,41.5Z"/>
  <path id="_5" data-name="5" class="cls-4" d="M220.6,31.4c.6.4,1.3,1.1,1.3,0s.8-.7.9.1.8,1,1.5,1.2-.1.2.1.3.1.5.4.4.2.8-.1.8-.6.3-.9.4,0,.2-.2.3-.7.7-.5,1-.1.3-.1.5v1.7c-1,1-.1,1.8.7,2.5s-.6,3.3-.4,4-1.3,2.3-1.1,2.7.6.2.6,1-.8.4-.4.8c-.4,2.8-1.6,5.3-2.2,7.5.1.2.7-.7.9-.7s-.7.3-.3,1.6.2,0,.2.1.2.2.5.3-.6,1.8-.6,2a1.3,1.3,0,0,0-1.4,1.5c-1.1-.3-1.1.8-1.8,1.2s-1-1.2-.7-1.7,1.3-.8.8-1.2-.2-.6.2-1.3-.4-.5-.8-.5-.6-.7-1.5.6l-1,.7c-.1.3-.8.1-.8.4s-.6-.7-.8-.2-3.4,3.4-5.2,3.7c.4.4.8,1.7-.2,1.5s-1,0-1.3-.5-.3.6-.6.4,1,2.6-1.4,3.4c.1.6.1,1.1-.6,1s-.3-.7-.6-.4-1-1.5-2.1-.7-2.9-.4-3.7-1.8-2.2-2.9-3.3-4.1-.5-.7-.9-.1-.4.4-.8.3-1.5-1.1-1.6,0c-1.3-.7,1.6-1.1.2-2s-.9.1-.7-.5.9-.1.9-.5.6-.3.7-.8.6-1.2.2-1.7-.8-1.7-1-2.5.6-.9,0-1.5.3-2.4,1.7-3.1-.5-.3-.4-1.2.3-1.2,0-1.7.8-.8.3-1.1-1.1-1.2-.4-1.2,1.3,1.1,3.2-.3c-.2-.4,1-.5.6-1s.6-.3.4-.4-.1-.7-.2-1,.5-.8.9-.2.4-1,1.3-.5-.1-.9,1.3-.7,1-.2,1.3,0,.4.1.9.2.4,1.2.7,2.3a2.3,2.3,0,0,0,2.1.5c.3.3.1,1.2.6.5a1.1,1.1,0,0,0,.8-.8c.6-1.7,2.2.6,2.7-.9s2.4-.2,1.1-1.1c.2-.5.7-.7,1-.5s0-.5,1.2-.5-.1-1.2.7-.4-.2-.4.5-.3.5,0,.4.2.1-.1.1,0,.6.5.8.3-.4-1,.1-1.5.2-.8.1-.4c1.8.8.3-1.2,1.7-2s.4.4.6,0,.6-1.6.8-1.9.3-.1.3-.4.4-.7.5-.4.2,0,.1-.1.4-1.5,1.2-1S220.2,31.4,220.6,31.4Z"/>
  <path id="_4" data-name="4" class="cls-4" d="M178.9,49.2c-.5,1.8-.5,1.1-1.8,2s2.3,2.9.2,3.8c-4.5.8-.3-4.1-3.1-3.4s-1.1,2.7-2.6,3.9-2.3-.5-1.5.5-.2,3.1-1.2,2.8c-1.2,2,.7,1-.6,2.6s-.7.6-1-.1c0,3-1-1.1-1.5.5s.2-.6-.5-.9-.8.6-1.6,1.5c1.3.6,1,3.5-.3,1.5s-.8-1.9-2.8-.7c-1.3-1.9-4.8,4.3-5.3,4.8s-1.7.5-1.1,2-1.6-.3-1.7.5-1.4,1.2-2.3.9.4,1.6-1.4,1.1-1,1.3-2.1.9-1.1,1.6-2.4,1.6-.3-.6-.9-.8c-3-.3-.7-3.7-4.4-3.3-2.9-4-3,1.4-5.1,0s-2.3-8.7-5-10.8c-5.8,5-.1-7-2-8,.9-.9.2-2,.6-3s-1.3.1-1.8-.4a4,4,0,0,0-3.5.2c-2.5-.2-1.8-2.1-2.9-.7-1.1-.5-3.4,1-2.7-1.3-1.5-1-2-.7-1.8-2.7s2.3-1.2,2.5-2.5.5,0,1.2,0c1.5,2.7,2.8-2.3,4.9-3.2-3.4-2.6-1.7-1.6.5-2.7-1.5-1.2-2.9-2.5-2.1-4.6-1.3,0,.9-.4-.7-2.3,1.6.1,1.3-2.6,2.4-3.4s5.9-.2,4.6,1.8,1.4,1,1.8.6-.4.6.2.5.1,1.3.3,2,.9-1.4,1.6-1.5,2,3.1,2.7,2.4c3.1-.4-.2,1.4,2.7,2.3s.4,1.2.7,2.4.7-2.1,1.6-1.1-.3,1.1.2.6.7.2,1.3.3-.2,2.1.4,1c.1.6,0,2,.9,1.2-.1,1.6-.3,1.7,1.8,1.8s.1,1.8,1.1.4,2.6-.7,3.4.7c.1-2.2,2.8-1,3.5,0s.1-.9.7-.9.5.2.3.6.8.5.6,1.1,1-.9,1.1,0,1,3.4,1.8,3.4-1,1.3.3.8c-.1,2.4,1.9.1,1.3,1.5,1.2,1.2,2.2,3,3.7,2.1s1.7,1.3,2.2.4-.1,1.2.8.9a11.2,11.2,0,0,1,3.3-1c.9-5.2,6-2.8,5.6-7.5,1-1.4.4,3.7,2,3.1,1.6,1.1.6-1.2,1.8-1.3s.8-2.9,1.7-4.1.6-.8-.6-.9,0-.9-.8-.6c.4-3.5,1.6,1.2,3.6-.6C184.8,42.8,178,44,178.9,49.2Z"/>
  <path id="_3" data-name="3" class="cls-4" d="M95.8,80.9c0-.3.8-.6.9-.2S95.8,81.5,95.8,80.9Zm19.7-54.2c.1-1.7-2.8-7.8-4.1-7s-.6.9-1,.4-.3.4-.5.6.2-2-1.6-2.2c-.1.5-.5.2-.9,0s-.8.6-1.2.3-1.3,1.1-1.9.5-.8.9-1.7.3-1.6.4-1.9-.4-.8-1.3-1.6-.3-.4.4-.7.4-.5-.4-.5.1-1.4.3-1.2,1.4-.6.3.2.5,1.3-.4.6.8-.1,1.1-1.4,1.3-.2.4-.4.2h0c.1.3,0,.1-.2.2s-.4.8-.1.8-.3,0-.4-.1-.4.6-.8.4-.1.5-.5.8.4.5-1.1.8-.2.7-.4,1.2-.6,1.2-1,1.6.3.3,0,.5.3,0,.2.2.2.1,0,.3-.4.6-.8,1.1-.4.3-.4.4-.2-.1-.3,0-.2-.2-.3,0,0-.2-.1-.2-.4,0-.2.1-.5.2-.7.6-.3.4-.5.6-.4-.2-.7-.5,0,1.7-.7,1.2,0,.6-.5.4-1.3.9-1.5-.4c-1.2,1-.2-.9-1.1-.6s-.7-.1-.8-.6-.1,2.3-1.1,2.3-.9,1.7-.9.1c-.8.5-1.6,3.2-2.2,2.9s-1-.2-1.2.3.4-1.4-.5-.8-.5.3-1.1.3c-3.3-1.7-1.2,1.2-3.6.1s-.9-2.2-1.6-1.7-.4.3-.8.2-.5.5-1,.6.2.7-.2,1-.4.4-.3.7a17.7,17.7,0,0,1-.1,2.3c.8,2.3-1.6,1.6-1.8,3.8s-.5,2-1.5,2.5-.4.5-.6.8-.1,2-.2,2.9-.6.5-.6,1-.3.3,0,.3-.2.3.1.3c1.8,1.8-.2,1.9,1.2,2.3s.5.8.8,1,.4.2.6.5.4.9.9,1.3.4-.2,1.1,1c.7-.4,1.2-1.1,2.1-.5,16.1-5.6,11.5,5.7,18.1-1.5,2.6,0,3.2,4.5,5.3,4.1.9,4,1,7.6,4.1,11.3,1.3,1.9,1-1.2,2.4,2.9,2.4.2,2.3,2.6,4,4.1.1.7-2.3-.3-2.9.9s-2.4.5-1.9,1.5,1.5.9,1.7-.3c13.6-3.9.2-19.7-2.6-28.1-1.2-4.6,1.5-8.9,4.7-12.2,2-1.2,1-6.2,4.7-5.5.8.5.3-1.4.6-1.7s2.6-4.1,4-2.7A6.3,6.3,0,0,1,115.5,26.7Z"/>
  <path id="_2" data-name="2" class="cls-4" d="M59.4,44.5a14.4,14.4,0,0,1-6,4.1c1,3.3-.3,6.4-1.7,9.2,1.4,3.3-1.3,6.1-1.1,9.4.3.4-.1.5-.3.4s-.2.2-.4.1-.6.8-1,.6-.8.4-1,.2.1-.6-.1-1-.4-.9-.6-.8-.5-.4-.4-.1-.8,0-1-.2-.6.7-1.1.4-1,.5-1.4.9a.7.7,0,0,0-.8-.4c-.1.3-.4.7-.7.7s-.3-.2-.6-.3-.2-.6-.7-.7-1.2,1.1-1.3.2-.5-.7-.9-.5-.5-.2-.6.1-.2-.3-.7.5-.4-.5-.7-.1-.7.8-.7.5-.5.2,0-.4-1.4,1.4-.9.2.5-.5.4-.8a.5.5,0,0,1,.1-.7c-.1-.6.7-1.1.7-1.8a2.9,2.9,0,0,1,.3-1c.1-.1,0-.5.3-.5s.4-1.8.2-2.7.6-.4.6-1,.1-.6-.2-.6-.2.2-.4.1.4-1.1.4-1.4a1.4,1.4,0,0,1,.3-1c.2-.1.9-.4.4-.8s.6-1.5.6-2.3.3-.7,0-1.1-.3-.1-.5-.2,0-.1-.1-.2a.8.8,0,0,1-.5-.5c-.3,0-.1-.2-.2-.4s.1-.1.1-.3-.2-.2-.1-.3.4-.5.4-.8-.3-.6.1-1.1.5-.5,0-.9.3-.4.2-.7.3,0,.5-.3-.1-.1,0-.2.1.1.2,0l.6-.5c.6.4.3-.1.4-.5s.5-.4.2-.7.3-.3.1-.3-.5-.3-.9-1.5.6,0,.3-.5.3.2.6-.2-.2-.4-.1-.9.2.5.4.4.6-.7.7-.2.1.2.1.3-.4.4-.2.7.4-.3.6-.7.1-.1,0,0,.2,0,.3,0,.3.7.8,1.4-.2-2,.5-.9,0-.1.7-.3.1-.2.2-.4.2-.3.3-.3-.2-.2-.2-.3-.2-.5-.2-.7.2-.3-.1-.5.3.3.3,0,.2,0,.1-.3.1.4.2.3,0-.1.1-.2-.1-.4,0-.4.4.7.5.2.1-.1.2-.1.2,0,.2-.1a.4.4,0,0,1,0-.5c.1-.1.2.3.4.2s-.1-.3.1-.3.1-.4,0-.5,0-.3-.2-.4a.5.5,0,0,0,.1-.7c-.3,0,.1-.4-.1-.3h-.3c.2-.3,0-1.2.3-.4s.2-.4.4-.2.3.2.1.3.4-.1.4.2.5-.4.7-.5.1-.2,0-.3.4-.3,0-.3.3-.2.5-.3.1-.4.4-.4.1-.3,0-.4.1-.4,0-.6.3-.1.2-.3.2,0,.2-.2-.2.1-.2-.1-.1-.6.2-.6.3-.1.5-.3,0-.4.2-.2.1-.2.2-.1.3.9.4.1.3-.2.7-.3.1.3,0,.4v.2c.3-.1.1.4.3.5s0,.5.1.7-.3.9-.1,1.3,0,.9.3.8-.1-.4.3-.3.2.2.3.5.6-.8.6-.4.2.1.3,0,.2.1.4.1.3-.4.4-.2-.1,1.1,0,1.7.5.2.3.8.3.9,0,1.1l-.2.3c-.2-.2,0-.5-.3-.5s-.3,1.1-.4,1.4a6.2,6.2,0,0,0,.3,1c.4.1-.1.4-.1.6s-.3.6,0,1.2.2.6.2,1,.3-.3.3-.1.1.8.3,1,0,.6-.1.8-.1-.1-.2.1.1.9.2,1.1.2-.3.2-.4,0,.2.1,0h0c.1-.3.1.1.2-.3h.1c0,.3.1-.1.1,0s.1-.1.1-.2h.1c-.2-.2.2,0,.2-.3s.2-.1.2-.2.1,0,.1,0h0c.4,0-.2,0,.3-.4s.1-.1.1-.1.2-.1.1-.2.1,0,.1.1l.2-.2c.1-.1.1.1,0,.1s.2-.2.3-.1.1.1.2-.1l1.2-.4c.1,0,.1-.1.2-.2s.1.1,0,0,.5.3.3-.3.1.2.2.2v-.2c.1.1,0,.2,0,.1s0-.1.1,0,0-.1.1,0,0-.2.1-.1S59.5,43.5,59.4,44.5Z"/>
  <path id="_1" data-name="1" class="cls-4" d="M26.8,43.7c-1.2-.8-.9-1.9-2.1-2.1s0,0,0,.1-.1-.2-.3.4-.7-1.1-1.2-.6-.4-.3-.5-.5.1-.2.1-.3h.1c0-.2,0,0,.1.1s-.1-.3,0-.3,0-.2.1-.3,0-.2-.1-.4.4-.1.4-.2.3-.4,0-.5-.8-.2-1.2-.5-.5-.5-.7-.3-.2-.2-.4-.3-.4-.6-.6-.4a.9.9,0,0,1,.1-.5c-.5-.1-.4-.4-.8-.3s-.1.1-.2,0l-.2-.2c0-.1-.1-.1-.2,0s-.1-.4.1-.4.1-.2.1-.4,0-.1.1-.2.1-.2,0-.4.1-1-.2-1-.2-.1-.8-.8-.1.7-.2.7-.2-.2-.3,0,.1-.4-.4-.3-.3-.2-.3-.5-.1-.4-.4-.6.3-.8,0-.5-.6-.2-.9-.3h-.1c-.1,0-.2-.2-.1-.2s-.1-.3.1-.4-.6,0-.8-.1-.2,0-.2.2-.2-.2-.2,0,0,.3-.1.4-.6.3-.4.2-.1.3-.1.4a.5.5,0,0,1-.1.6c-.3-.1.1.9-.3.4s-.2-.1-.2-.3-.2.1-.1-.2,0,.5,0,.7-.3,0-.1.1.1.2,0,.2a1.7,1.7,0,0,1,.1.7c.2.3-.4.4-.1.6s-.4.6-.3,1.1-.3.2-.4.4-.2,0-.1.2,0,.4-.1.5-.3.5-.2.6H12c0,.1.1,0,.1.1s.2.1,0,.2,0,.1-.1.1-.1.4-.1.4.2.3-.1.3,0,.6.1.7-.1.4.1.6h.2c0,.1-.2.5,0,.3s.2,0,.2.2,0,.2.1.3,0,.4,0,.6.2-.1.2.1.2.1.1.3.1.2,0,.4.2-.1.2,0-.5.8-.1,1.2-1.1,1.2-.3,1.6.1.3-.1.2.1,1.2-.4.8-.3-.4-.5-.3-.2.1-.2.3,0,.3-.1.2-.2-.6-.9.5-.5.4-.3.6-.2.5.1.7a.2.2,0,0,0-.2.2c-.2-.1-.5.4-.2.6s-.4.2-.4.6-.6.3-.3.8-.2.3,0,.6.5.7,0,.7,0,.1-.1.1.1.2.1.3.1.4-.1.7-.2.1-.3.1-.1.2-.2,0,.1.2-.3.3,0-.3-.2-.1-.1.3-.2.3-.2.5-.3.7,1.6,1.7,1,2.5A1.6,1.6,0,0,0,8.4,58c.1.4-.2.7,0,1.1s.3.2.3.6.3,1.1,0,1.3-.3.1-.4-.2,0,0-.1.2-.2.8-.4,1.1.2.6.2,1,.1-.1.1,0a.2.2,0,0,1,.1.3c-.2.2-.2.5-.3.9s-.1.3.1.7.2.5.2,1,.6.4.5.8.1.5.1.9-.3.1-.4.3a4.6,4.6,0,0,1,.3.9c.1,0,.1-.2.1-.1s-.1-.1,0-.1.1-.1,0-.2.1-.2.1,0H9c.1.1-.1.2,0,.2s.1-.3.1-.2,0-.1.1.1v-.2s0,.1.1,0h0c.2,0,.2-.1.2-.2h.1c-.1.1-.1-.1-.1,0h.2c0-.1.1-.3.1-.2s.2-.3.3-.2.1,0,.1-.1.1.2.2.1-.2-.3-.1-.2.3-.3.5-.5,0-.1,0-.1.2.3.2.1.1,0,.1,0h0c0,.1,0,.2.1,0h.3c0,.2.2-.3.5-.1s.1-.1.4-.2.4-.4.6-.3.5.2.3-.3.1.2.1.1h.1c0,.1-.1,0,0,.1s0-.2.1-.1.1,0,0,0,0-.1.1-.1h.1c.1,0,0-.2.1,0s.2,0,.1,0,.6-.1.6.4.8-.3.4-.7.9-1,1.5-.9.7.1.6.7.2-.7,1.7-.6,2.1-.1,1-.9.2-.4,0-.9c.3-4.1-4.5-.3-3.2-4.4,0-.8-.9,0-1-.7s-.1-.7,0-.6.6-.6.2-.7.3.3.5-.3-.6,0-.5-.7.4-.9.7-1.4,1.6-1,1.6-1.8.3-.2.4.1.7-.3.3-.5.1-.5,1.3.1.6-1.6,0-1-.5.1-.6,0,.6-.1.7-.3.8-.7,1.2-.9-.1-.8.6-1.4.2-.6.6-.5.6-1,1.2-1.4.4-.2.2.1C26,48.1,26,44.7,26.8,43.7ZM10.5,67Zm0,0Z"/>
</svg>
