<svg id="Layer_1" data-name="Layer 1" xmlns="http://www.w3.org/2000/svg" width="500" height="500" viewBox="0 0 500 500">
  <defs>
    <style>
      .cls-1 {
        fill: #5c98ff;
        stroke: #fff;
        stroke-linecap: round;
        stroke-linejoin: round;
        stroke-width: 2px;
      }
    </style>
  </defs>
  <path id="4" data-name="4" class="flubber-path cls-4" d="M470.5,169.4c-13.4,12.1-21.3-19.1-24.4,4.2,5.7-2,3.4,4.5,5.7,3.6,7.6.6,2.9,1.5,3.9,6-5.9,7.9-.6,22.7-11.2,27.3-8.3.6-1.7,16.4-12.5,9.1-10.3,3.8-6.6-29.9-12.9-21.1,2.7,31.7-31.4,15.4-37.6,49.9-8.3,2-12.7,2.3-21.5,7.1-6,1.8-.7-8.4-5.4-6.3-3.7,5.8-8.8-2.5-14.7-2.4-10.2,6.1-16.5-6.1-25.1-13.9,4.4-9.4-9.3,6.1-8.1-10-8.6,3.4-1.5-2-2.1-5.6-5.4.2-16-17.6-12.4-22.8-.3-5.8-6.8,2.4-7.1,0s-.5-4.4-4.2-7.3c1.6-2.2,2.3-8.2-1.7-3.7-3.8-.2-2,4.5-4.6,5.6-5-6.5-23-14.1-23.7.1-5.4-9.1-12.9-7.7-22.4-4.3-6.4,8.9-2.7-2.3-7.5-2.6-13.9-1.1-12.4-1.6-12.1-12.1-5.7,5.3-4.8-3.9-5.7-7.9-4,7.1-3.4-6.6-2.9-6.9-3.6-.3-5.9-6.7-8.2-1.9s-3.3-1.1-1.7-3.8c-6-7-7.1,14.9-10.5,6.9-1.9-7.9,4.8-11.3-4.5-15.8-19.5-6.1,2.3-17.9-18.1-15.1-4.6,4.3-12.7-13.4-17.9-16.5-4.6.9-4.8,12.3-10.8,10.5-1.3-4.8,7.1-9.6-2-13.3-4.2.3,1-2.6-1.6-3.7-2.5,2.8-12.8.8-11.6-3.9,8.4-13.1-20.5-19.9-30.7-12.2-7.1,5.6-5.7,23.7-15.8,22.9,10.4,12.3-4.6,15.4,4.2,15.6-5.3,13.7,4.5,22.2,14.1,30.3-14.4,7.2-26.2.7-3.3,17.7-14,6.4-22.5,39.6-32.7,21.8-4.4-.4-4.1-5.5-7.9-.3-1.4,9-13.5.6-16.9,16.5-1.2,13.6,2.2,11.3,11.9,18.4-4.5,15,10.8,5.1,18.4,8.2,7.1-8.9,2.3,3.7,19.5,5,10.3-4.4,13.6-4.2,23.3-1.4,3,3.7,10.1-5.3,11.5,2.9-2.4,6.2,2.1,13.6-4.1,20.1,12.7,6.3-24.8,86.2,13.9,53.3,17.8,13.8,25.8,55.2,32.8,71.7,14.2,9.3,14.7-26.4,34,0,25-2.9,9.4,20.2,29.3,21.8,4.2,1.2,6.4.3,6.4,5.5,8.6-.1,8-15.3,15.6-10.5,7.4,2.7,10.3-.3,14-6.3,12.3,3.1.2-6,9.3-7.1,6.4,1.9,9.9-6.3,15.3-6,.8-5.3,15.5,9.4,11.6-3.3-3.7-9.9,10.4-2.6,7.4-13.7,3.3-3,26.3-44.4,34.9-31.5,13.6-8.4,5.8-5.8,19.2,4.4,8.6,13.5,10.5-6.3,1.7-9.7,5.6-6.2,3.9-9,11-10.2,4.3,1.9-5,9.4,2.9,6,3.6-10.8,10.2,16.4,9.9-3.2,2.3,4.2,4.3,3.5,6.9.8,8.9-11.2-4.1-4.5,3.9-17.8,7,2.3,13.5-6.3,8.4-18.2-5.5-7,8.6,2.3,9.5-3.6,10.1-8,5.7-30.3,17.5-26,19-4.4-9.4,28,21,22.3,13.8-5.7-2-17.2-1.8-25,8.9-6.2,9.1-1.4,12-13.3C445.5,210.2,490.9,202.3,470.5,169.4Z"/>
  <path id="5" data-name="5" class="flubber-path cls-4" d="M365.8,140.2c-2.5.5-.8-3.1-2.8-2.8s1.2-2.4-.8-1.5c-4.6-1.4-5.5-7.3-9.9-8.5-.4-5.1-3.8-1.2-6-.5.3,7.5-4.3,2.7-8.3-.4-3,.1-3.1,3.2-3.4,4-5.6-3.6-5.6,5.2-7.9,6.6.4.7-.5,1.6-.9.8s-4.1,1.2-3.8,2.5-2.3.3-2,2.4-7.8,6.2-4.9,12.7c-1.6,3-4.8-6.5-4.3.3-9.3,5.4.4,18.3-11.2,12.9.3-2.5-1.7,2.9-.7,3-3.4,3.1,2.7,6.8-.8,9.6-1.6,1.4-3.9-1.4-5.9-1.7.5-1.1-.1.2-.4-.3s-1.9-2.5-2.4-1.5c-5.1-.2-.3.6-3.5,2.3-5.1-5.4-1.2,2.6-4.6,2.8-8.4,0-2.8,3.4-8.1,3.1-2.1-1.3-5.4.1-6.5,3.2,8.4,6.3-5.5.9-7.4,7-3.7,10.5-14.5-5.5-18.5,6.1-.8,2.8-2.5,4.8-5.1,5.1-3.6,5-2.3-1.2-4-3.1-5.3.5-9.5.2-14.3-3.7-1.8-7.7-5.7-8.6-4-15.4-3.5-.9-4-5.1-6.2-1.1-2.1-1.7-5.7-3.5-8.6-.6-9.3-1.6-6.2,2.9-9,4.8-6-3.3-5.5-.8-8.8,3.1-2.6-3.7-3.5-2.4-5.4,1,.6,2.4,0,4.1.9,7.2,1.6.6-3.2,1.3-2.3,2.3,2.3,3.2-6,3.8-4.2,6.9-13.2,9.3-12.2,10.5-21.4,1.7-5,0,.3,6.8,2.6,8.1s-4.8,4.9-2,7.1.6,6.9-.3,11.1c-.9,6.3,6.6,5.4,2.6,8-9.3,4.8-6.6,13.2-11.4,20.7,3.5,4,.3,4.8-.2,9.8,1.1,5.7.8,12.9,6.4,17.1,2.4,3.6-3.6,7.4-1.9,11.1-.3,3.1-2.6,2.8-4.6,5.6.3,2.6-5,2-5.9,2.8-1.2,4.3,3.4,1.4,4.5,3.7,9.6,6-10.1,8.8-1.1,13,.5-7.3,5.7,2,10.2.6,3.1.3-.8-6.3,5.4-2.3,2.6-3.9,3.7-3.4,6,.9,7.1,8.3,10.5,24.7,22,27.7,4.8,9.4,19.1,7.5,24.1,12.3,7.7-5.2,6.3.3,14.2,4.7,2-1.7.3,4,3.8,2.4,4.8.8,5-2.3,4.5-6.5,15.9-5.1,0-17,9-22.5,2.2,1.7,1.5-3,4-2.2,2.2,2.8,8-2.6,9,3.3,6.8,1.5,4.3-7.5,1.5-9.9,11.9-2,26.9-16.6,34.6-24.8,1.7-3,4.8,3.4,5.4,1.7s4.8-.7,5.6-2.4c2.6-1.3,4.3-3.3,6.6-5,6.2-8.5,3.3,3.6,9.9-3.8,3.1.1-.3,6.3,5.3,3.5-2.3,4.7,1.4,4.7-1.6,8.8,3.4,2.8-4.1,3.9-4.9,7.6s.1,22.9,4.5,11.3c4.8-2,4.3-9.8,11.9-7.4a8.7,8.7,0,0,1,9.4-9.8c.1-1.4,12.2-19,4.3-13.3-1.8-1-8.2.7-3.7-2,.2-1-.5-.6-1.1-1-2.4-8.5.5-3.6,2.5-10.2-1.5-.4-5.6,5.7-6.2,4.1,4.3-14.8,12.2-31.3,15.2-49.7-2.7-2.8,1.2-3.6,2.4-5.1.3-5.4.8-11-3.7-7.1-1.1-2.5,4.2-17.2,7.8-18-1.4-4.6,8.6-24.7,2.7-26.2-5.2-5.1-11.2-9.9-4.1-17a77.6,77.6,0,0,1-.2-10.8c.3-1.4,2.9-2.8.9-3.9s1.6-6.6,3.3-6.6-.6-3.4,1.5-1.7c2-.7,4.2-5.1,6.1-2.7C366.8,145.9,366.8,140.7,365.8,140.2Z"/>
  <path id="06" data-name="06" class="flubber-path cls-4" d="M333.1,200.6c2.1-2.4,1.7-4.4-1.1-2.7-2,.2.6-2.8-2-1.5,1-9.3-4.7,5.9-6.8-3.3-5.4,5.4-9.1,10.5-15.8,10.7-.1,4-2.6-2.5-5.1-1.4-6,5.7-9.1,12.7-18.8,15.9-4.5,4.5-10.1,8.5-14.3,10.1-4.7-3.3,1.6,3.4,1,5.7-1.1,10.2-8.1-5.7-19,3.8-4.7,4.1.6,5.9.6,10.6.9,2.1-4.2,13.1-6.5,9.5-3.2-.1,1.1,6.8-3.2,8.5-4.5-1.8-9.5-3.8-13.6-9.2-1-.8-4.1-2.8-3.1.4-.5,1.3-1.9-1.8-3.4,1-.8,1,.1-1.4-.8-.8-7.4-2.8-18.2-3.1-23.8-11-11-3.5-14.7-19.1-21.8-27.8-4.5-9.1-4-.3-6.8-1.7-11.1-.3,7.3,18.4,6,22.1-2.1,1.4,3.4,10.5.3,14.7s-1.3,17.9-1,24.7c.6,2.2-.2,4.6,1.5,6.3,3.6,14.7,3.3,2.5,6.3,9.1-.3,7.9,8.7,11,14.3,11.6s1.5-6.9,6.6-6c-.5-1.5,12.2,5.6,13.3,3.1s4,.5,5.4-1.9c6.2-2.1,1.7,3.3,2.9,5.8,2-3.1,3.3-5.1,7-4.8,4.8,10.2,9.6-14.6,15.7-16.4,0,7.4,3-2.9,4.5-3.1s.5,3.6,2.7,1.7c6.8-.5.3-21.3,11.2-10.8,3.3-1.7,3.1,2.5,3.7,4.5,1.7,4,5.1-4.5,4.5,3.1,4,5.8,9.5.6,12.1-1.9.1-2.2.9-2.3,2.6-1.4s1.1-10.6,3.6-7.6c3.7,5.6,4.7,1.3,6.4-2.3,2.1,2.3,1.6-4.6,4.7-3.5.9,1.1,1.8-3.6,2.8.7,2.7-.6,3.4,1.9,6.1-1.5s6.4-6.6,6.2-10.8c.3-1.4-1.7-.2-1.5-1.4,2.3-.8-.9-2.3.9-3.4-.8-5.6,7.3-9.1,6-15,1.3-2.8,1-3.7,3.9-4,2.9-2.8-3.4-17.6,3.5-19.6,5.3-1.6.8-3.3,3.6-6.4C335.7,203,331.4,201,333.1,200.6Z"/>
  <path id="7" data-name="7" class="flubber-path cls-4" d="M370.4,272.8c1.4-1.5-3.4-1.4-1.4-2s-4-4.2-4.7-2.6c-1.5-.6-2.1-.5-1.4-2.6-1-1-2.6-1.3-1.7-3.4s-.3,1-2,.4-7.5,6.7-10.8,7.4c-.4.3.2,2.8-.9,1.1s1.7,3.4-.2,3.9c-2.6-3-3.7,1.5-5.7,1.8-5.2-.9-2.8-5.5.3-7.4.7-1.2-8,.2-7.1-2.6-1.5-5.4-9.1-32.6-11.1-29.8-3.1-3.3-2-9.6-3.7-13.5-1.2-6-4-7.7-5.6-14.8-11.9-9.9-6.8-8-17,.1-19.3,7.2-8.8-14-6.6-21.4-1.4-12.5-2-23.1,6.3-31.7,2.8-9.6-11.4,5.4-1.2-19-1.6-.8.1-2.9-.5-3.3s0-2.4-1.4-2.9,3.4-4.5,1.4-3.7,0-.6-.7-.8c-1.7,1.4-.2-.3-.4-1.4-1.8,1.1-1.3-2.1-2.4,0-.5-.4-1.4.7-2.2,0s-2.5-2.3-1.4,0-1.5.2-.9,1c-1.1,4.3-1.6-1.9-4.6,0-6.7.1-2.8-3.1-8.9-3.7-3-.2-.3,3.5-4.3,1.7-2.3-.8-.3,2.1-3.4,0,.3-1.1-5.8,4.4-5.8,2.9s-4.2,1.5-6.5-3.1c-1.4-1.4-4.7,4.2-5.4.6s-4.8-9.1-7.3-3.2c-1.1,1.8-.8-.8-1.9,0-2.3-4.2-5.8,2.4-8.2.3-3.2,2.6-2.7,2-7.7-.3s.9-7.9-1.2-9.5c-3.6,4.8-2.8-3.8-5-3-6.6-1-8.9-1.6-5.2-6.8-3.3-3-.6-7.5.9-10.5s1.3-6.1-1.1-8.4c-.9-.3-1.5-4-2-1.7-2.3-1.5-1.2,2.2-4.3-.1-1.1-1.9-.9,6.4-8.8,7.4-1.7-5.4-10.1-3.9-9.3-10.7-4.3,2.5-9.6,5-13.9,2.9-.3,6.7-1.7,1.9-4.8,5.1-1.7.5,2.5,5.3-.4,6.5,1.7,3.9-2.8,2.8-3,5,2,3.4-1.7,6.5-.4,8.9,2.4.8,1,5.1.6,7.3,3.4,1.5,1.4,3.1,1.7,5.9-8.7,7.9-3.1,2.8-.9,7.5-1.3,5.6-8.2,3.3-7-2.1-10.2,6.6-1.5,5.4-3.6,14.8,3.9,4.8-3.8,7.1-5.4,11.8-9.8,4.6-2.7-5.6-12-3.3-1.7,1.4-.3.5-1.1-.9-4.3-.6-1.4-9-4.5-8.7-2.1-2.9-8.2,6.5-2.8,6.2.4,5,5.3,13.3,4.8,19.9,3.6,3.4,9.1,11.5,6.2,16,5.1,6.8,10.1,17.6,16.1,21.6,1.1,0,1.5,2.3.4,3.2.2,2.5,4.8,7.8,7.5,7s3.2-1.4,5.7-.5c5.5-2,1.7,4.4,4.8,5.3.3,2.3,5.2,6.9,3.2,11s-1.5,8.8-6.2,8.9c-3.5,1.7.8,10.5-2.9,5a156.3,156.3,0,0,1,6.3,17c-3.7,6.9,8.8,13.1,7.8,20.8,4,6.3,11.2,10.7,16.6,15.8,4.1,9.1,13.2-2.8,19.1,3.4,20.5,10,3.7,47.7,23.4,58.8,1.7-.7,2.5,1,3.6,1.4,2.8,0,6-6.8,8.2,1,4.2,6.1,10.3,4.9,15.3,8.9,6.5.8,8.2-3.8,12.2-7.6,2.9,2.5,6.8,1.4,2.9,3.1-.1.3,0,1.7-.3.8-2.3-.8-4.2,4.3-5.1,5.6-5.4,1.7-10.2,6.2-15.8,7.4-10.1.8-13.7,6.6-13.1,15.9,4.8,14.5-5.7,12.7,11.6,13.3-1.2-3.4,4.8-.3,3.9-3.7,1-2.6,3.8-1.1,5.4-2.6a7.1,7.1,0,0,0,3.1,1.7c4.9-7.3,10.9-9.9,12.9,1.5-1.3,4.8-7.7,13-.9,15.3,1.1.2,2.6-1.9,3.7-.9,4.4,1.8,5.6-4.4,10.2-4.2,6.2-1.9-1.7,2,1.6,2.3,8.6,0-.5,7.1,10.2,5.4-1.7-4.6-3.7-5.1,3.1-9.6.7,1.3.4-1.3,1.5-1.8-1.7-1.4-3.2-4-6.6-4.8-2.7,1.4-.8-2.3.1-3.1,3.4.5,5.1-1.7,6.8-4.9,3.7-1.1,1.4-7.8,4.3-10.8-3.1-7.8-10.2-17.8-4.4-26.6-4.2-2.7,2.7-19.8,7.5-22.4,8.1-6.1-4.3,1.8.2-18.3-4.5-5.2,4.5-6,.6-9.7-8.5-4.9-.3-12-.6-6.5.8,3.4,5.4,4.5,8.5,5.4,1.8-3.2,12.6-5.8,10.8-10.5,3.2.6,3.7-2.6,5.6-3.7-3.3-2.5,3.8-2,1-3.9.8-2.7-1.8-6,.8-7.7,1.1-6.8,5.4,5.1,5.4-2.8,2.6-2.3,4.3-2,8.1,0C364.5,272.2,376.9,277.6,370.4,272.8Z"/>
  <path id="8" data-name="8" class="flubber-path cls-4" d="M313.8,373.4c6.6-4.6,15-22.4,0-22.6-2.9-2.7-7.3,6.2-9,3.9-2.3-.2-2.1-6.2-4.1-2.8-4.7-.6-5.3-7.7-7.2-10.5s-3-1.5-4.1-4c-5-1.2-6.2-7.4-11.1-9.9,5-6.2-2.4-7.7-4.2-13-1.3.8-.8-.7-.5-1.2s-2,0-1.2-1.2c.9-3.4,5.2-5.8,4.9-9.3-2.9-30.5,10.8-16.7,16.2-40.8-.1-11.1,13.3-9.9,12.3-19.2-1.1-11.7-1.6-24.2,4.9-32.7,1.9-8.4,8.2,1.7,7.6-8.7-3.6-11.9-5.3-27.2-.6-37.4.4-4.9-2.8-10.9-.5-12.9-3.7-4.7-5.6-8.2-8.7-14.1-.3-5-5.1-4.5-7.8-4-1-5.3-6.7-3.9-4.2.9-1.1,1.2-2-1.7-2.5-.8-5.1,5.4-2.9-6.5-9-4.5,3.3-7.4-7.5,2.4-10.5,2.2-16.8,2.5,2.2-15-7.2-23.3-13.3,2.8-8.5,17.3-5.6,25.3,3.6,4.2,8.8,4,10.7,9,2.5,9.1-13.2,13.1-14.7,22.4-2.8,1.1,1.1,3.1-1.2,4.6s-3.6,5.1-3.7,8.2c-4.4,5.9-2.7,11.8-5,16.1-3.5,2.6-8-.8-9.6-.3-3.5-.3-4.8-5.4-7.2-1,2.3,4.4-6.7,4.7-3.1,7.6,4,.6-3.1.8-2.2,1.7,2.2,2.6-1.1,1.9.8,3.1-2.2.8,1.2.3-.8,1.7.8,2.8,6.8.3,5.4,4.8,2.2.5,7.9,16.4,4.8,13.9-.3-1.1-3.7,3.1-4.2,0-3.8-.8-.3-4.9-3.5-5.9-1.7,1.9-.5-1.2-1.7-1.5-6.2-2.8-7.9-14.7-17.6-10.4-1.1,3.7-4.7,1-7.4,2s-3.3-2.6-4.2-1.8c-5.7,4.9-12.2,6.8-19.5,5.1,2.8,9.1,8.5,6.5,7.3,9.4,3.2,1.9,1.2,6.7,3.5,11.4,3-1,1.1,5.9,2.8,7.8,3.9-1,4.3,1.8,5.3,4.8,9.1-2.2,10.3,12.5,11.4,18.7.5,15.1,7.7,10.6,6.5,29.9,3.5,7,1.8,5.7,8.2,11,1.8,3.6.3,8,4.3,11.4,1.9,5.7-7.4-3.5-7.3,1.9-.1,10.2-2.6-3.3-4.4-2.5,1,3.3-2.5.5-2.8-.8.1,3.4-6.2,2.2-5,3.9,3.7,10.5-6.1,15.9-9.1,25.7-3.4,6,.5,10.6.5,17.6-2.2.9-.6,4.6-2.3,6.3-3.3-1.1-4.2,7.1-1.6,4.5,11.8-10.8,29.7,8,43.4,1.8,7.6,6.1,18.6,7.5,28.9,11.5-2.6,2.8,1,4,3.6,3.8,9.7,2.2,31.7-14.2,35.2-4.9-.1,14,2.2,3.4,6.2,2.8,3.6,5.1,5.3-3.1,7.7-5.3C321.8,377.3,313,379.1,313.8,373.4Z"/>
  <path id="9" data-name="9" class="flubber-path cls-4" d="M377.1,227.5c7.6-1.7,20.3-.7,8.5-9.5-10.2-13.7-5.8-7.1-21.6-.3-1.1-4-8.5-9.1-14.8-10.6-2.2-3.9-2,4-7.9,2.7-2.2-1.5-3.6-2.3-4.2-5.7-2.3,1.3-10,8.8-10.3,3s-11.9-4.5-12.1-13.2c-2.9,1.9-5.8.2-7.5,3.4-3.1-1.7-4.4-.4-7.9,0s-19.2-2.4-9.4,7c-7.9,1.8,0,12-9,11.4-4.2-.3-7.1-2.8-9.7-5.4-.8-3.9-5.6,5.6-6.5-2.3.6-9.7-5.6-7.6-9.3-11.6-2.2-5.9-4.5-2.3-8.3-1.2-4.7-7.4-17.4-9-16,1.2-4.8,1.9-7.7-.2-10.6,5.3,1.5,1.2-1,3.4,1.4,2.9,3.7-3.1,7.1,5.7,1.7,4.3-1.7-6.3-6.1.3-9.2,2-1.3.2-2.7-3.2-3.5.2-2.9-1.9-2.5-8.1-6.8-6.4-2.3,5.9-9.6,1.3-6.5,10.7-4.5,2.6-8.3,2.8-9-3.4-4,3.9-4.7.3-6-3.2-10.5-3.6-7.2-14.4-13.4-22.3-2-1.1-1.3,3.7-4.3.6-3.1-.3-6.8,1.9-9.6,1.7s-3-6.5-6.7-3.4c-2.4-2.9-.1-6.5-4.1-8.9-.5-4.4-3.6.1-6.2-1.9-.5-.8-.8-2-1.3-2.6-4.3,3.4-6.3-8.4-11.4-7.6s11.6,12.8,9.1,14.4c-2.5,3.5,1.3,9.7-6.3,2.2-2.8-5-17-6.8-10.2,2.1,2.8,4.5,7.6,7.1,1.4,11.3-2.5-1.7-3.3-3.7-6.5-1.6-9.9,7.6,3.5,11.9,10.2,15.5-3.7,4.8,2.2,1.2,3.1,5.3s2.9,10.9,8.6,12.3c2.8-4.5,13.3-4.8,15.5,1.4,3.7,4,7.4,4.2,9.3,9.4,5.7,4.8,7.5,12.7,13.1,16.3.6,2.7,7.7.6,9.7,5.5,18.9,29.8,5.6-16.4,38.8,5.9,1.1.1,2,1.2,1.1,2.3-8.2,5.3,3.8,12.8,2.3,17.6,4.5,2.8,1.7,10.2,10,13.2,0,4.6-4.1,13.9,1.1,15.4-3.1,6.3-.6,5.7,3,9.7-2.5,3.4,3.7.7,6,2.2s4.5-6.8,8.2-3.2c-3,10.9,7.9,6.3,10.8,14,9.6-1.4,12.5-9.4,11.9-16.8-4-5.9,1.4-14.5,3.4-5.9,7.6,3.9,7.3-9.4,2.9-4.6,7.9-9.8,1.9-18,3.1-28.8,8.4-11.6-.3-12.6,20.1-16.8,3.1,3.7,8,7.9,11.4,9.3s6.8-8.5,10.1-5.8c4.6-5.5,4.3,7.8,7.1,4.4,10.5-6.8,8.9,2.4,15.7-10.5.4,3.8,3.6,1.4,3.9,3.2-1.4,3.3,4.5,2.2,4.8,4.2s-1.4,3.1,2,2.8c12.8-7.9,13.9-20.1,27.4-28.5,1.3-1.7-3.4-3.7-4.8-2.1-2.2-2.4-1.7-4.5-4.8-6.8C382.2,227.3,366.2,232.7,377.1,227.5Z"/>
  <path id="10" data-name="10" class="flubber-path cls-4" d="M491.1,403.7c-4.8,9-12.5,3.2-19,.8-6.6-.6-7.3-14.4-14.1-4.9-21.3-9.6-11.5-37.4-20.8-56.2-11.9-15-20.4,3.3-28.9-10.9-12.1-8.2-19.8-22.3-23.2-36,.4-10.5-10.1-17.1,1.3-21.5,2.8-6,4.2-11,1.1-17.4-3.9-.2-.5-9.2-7.3-7.3-10.8,4-9.8-7.5-14.2-9.2-4.8-7.1-8.9-13.8-14-19.8.6-7.6-3.3-14.5-7.7-20.7-.3-28.1-22.5-16.9-17.7-32.4-7.3-1.4,4.3-17.8-5-17.3-2.8-1.5-3.7-7.2-2.8-9.7-2.2-.8-3.4,2-2.8-4.3-3.4-2.4-6-6.8-5.7-11,.7-1.7,5.1-7.7,1.7-5.6-25.6-21.2-26,12-30.9,2.6-6.2.6-7.9-16.6-17.5-12.4a261.1,261.1,0,0,0-25.9-31c-6.6-2.9-9.7-.1-15.7,2.1-3.6-5.9-4.5-9-7.9-15-5.9,1.1.7-2.9-3.6-4.3-6.3-2.5-9.3-2.6-12.2-8.4-1.1,5.5-4.5,3.6-8.7,3.9-1.8,8.5-7.1-4.9-11.4-4.6-4.8,2-10.7,4.1-17.2,2.2-3.8,3.6-7.5,2.6-9.7-3.5-6,1.1-4-8.5-8.8-7.4-5.4,4.5-9.8-5.7-13.3.3-6.2-4.3-14.2-14.8-24-6.6,0-4.9-11.1-4.6-13.6-.9-1.8,7.7-1.5,15.1-11.7,11-2.8-1.5-3.7,1.1-3.4-3.2C70,39.2,71.4,48,65.2,46.8c-7.7-13.6-6-1.7-16.4-7.7-3.5-.6-1.8,6-5.7,3.5-2.7,5.3-8.5,4.9-10.2,9.6-8.4,11.2.4,18.4,3.8,27.9-4.3,2.1-6.8,8.6-6.6,15.3,3.7,4.9,5.7,8.3,8.8,12.3,11,3.1-8.5,11.9,1.9,15.5,1.7,7.8-4,9.5-7.7,14.2.9,4.8,4.2,18.8-3.7,11.1-9.6-12.6-14.5-6.6-26.4,2.1a104.7,104.7,0,0,1,5.2,28.2c4.3,2.7,7.2,4.7,6.3,10.7,1.1,11.7,2.8,2.5,8.2,4,3.6,2.5,4.8,1.7,7.4-1.6,2,2,8.5,3,10.2,2.9,9.9,2.7,6.5-14.5,13.2,3.4,4.6,5.4,4.8,5.3,9.5,2.3-.7,5.1,5,5.3,6.2,10.5,14.8,23.5,3.1,2.6,1.9,20.7,7.8,7.1,5.8,19.8,15.1,29.8-3.4,9.8,3.6,15.3,11.3,17,3.7,5.7,13-4.7,12.3-.8,2.8,4.3,7.3,2,11.6,4.9,2.5,1.2,3.8-2,3.8,2.8,4.3.1-.8,6,.3,9.3-6.4-3.7-3.9,2.3-7.7,6.6,3.2,10.4,7.6,18.9,13.6,28.9-5.8,15.1,8.1,21.3,17.8,13.4,1.7,8,4.4,19.5-4.1,22.9-2.9,2.1-.2,3.1,1.4,4.6-2.3,6.3-6.6,6.5-10,9.8-1.7,8.6,1.8,15.4,9.7,18.2,3-4.8,12.9.4,16.1-6.9-1.1-6.1,18.2,4.5,25.3-6.8,6.2-6.2,11.6,5.1,15.6,8.9,8.4,1.9,15.5,2.6,14.6,12.5,13.3,1.2,22.1,9.1,34.9,7.7,14.7-4.8,26.9-.1,41.6.1,16.5-7.6,31.4,16,42.2.6,5.4,5.6,10.3-3.2,13.9-7.5,12.8-5.6,11.6,17.7,24.9,16.4-.3,13,11.6.6,8,11.3,2.5,9,13.3,20.7,22.3,13.1,5.7,2.6,9.3,12.5,14.7,16.3,2.9,3,4.5-4.9,7.3-5.8,4.1,1,8.7-5.8,11.4-1.3,4.5,8.8,11,3.2,18.4,5.5,5.5-3.2,6-18.4,6-24.1-5.9-18.5,8.6-19.8,21.2-24.1C489,412,505.8,397.8,491.1,403.7Z"/>
  <path id="11" data-name="11" class="flubber-path cls-4" d="M434,203c-12.9.2-10.2-19.4-14.1-24.2s-9.4,2.1-12.2,5.7c-3.4-2.9-7.4-1.2-11-1.1,1.4,16.8-6.2,15.3-19.1,14.5-6.8-18.8-20.3,11.3-25.2-2.1-4.8-1-5.1-7.9-9.1-10.1-4.7-5.5-6.1,6.4-17.5-3.7-3.9-2.5-9-9.9-6.2-16.2-5.2,1.2-9.6.1-8.9-6.8-5.8.5-8.1-2.3-12.1-6.5s-1.9-10.3-9.9-10.2-6,10.8-13.3,9.9c-7.5-5.1-4.6,7.7-9.9,2.9-7.2,3.3-8.9-1.2-15.4-3.5-5.6-6.2-14.5-1-20.1-1.4-13.9.3-27.2-6-40.3.1-12.7.7-22.3-6.3-35.1-8-1.2-6.8-3.4-12.2-11.9-11.3-15.6-11.4-8.5-16-27.8-5.1-6.2,2.8-9.6.2-15.6-1.2-.5,9.1-20.9,12.4-23.3,3.5-7.5-1.7,1.2-12.2-3-14.8-2.9.8-6.8,0-6,3.7-3.4,4-5.1,11.1,2.3,11.3-4.9,3.6-2.2,20.7,2.8,17.3,3.7-5.2,6.2,6.2,9.3,8.7,9.1,17.7-4.5,17.6,8.6,17.9,2.2,20.4-8.5,39.8-13,57.2,17.2,4.1,13.8,32.2,30.3,30.1,12.2,17.3,37.7,10.8,52.7,23.5,11.6,4.3,13.3,15.4,23.2,23.1,4.5-1.7,4.8,1.9,6.5,5.3,6.6,0,14.2-1.5,19.9-.8,10.7-5.2,17.5,5.1,25,6.4,7.6-6.2,16.6-1,24.1-7,12.2-5.2,23.4,2,34.2,7.1,10,14.5,23.9,6.7,30.4,24,5.6-1.3,9.3,7.8,15.8,3.7,11.3,3.1,22.4,19.6,26.4,28.4,5.6,19.3,9.6-.2,17.6,13.3.3-6.2,2-5.7,7.4-3.7-1.8-10.4-8.5-16.4-13.3-26.8,3.8-11.5-4.4-15.6-5.7-24.7,4.2-17.9-14.2-21.9-17-30.6-3.2-4-2.7-9.2-5.5-12.2.1-5.4-10.2-6.2-6.2-11.9,8,3.4,14.4-7.5,21.3-2.9,6-.2,10.2-4.9,16.1-1.9,3.1,2.4,5.9,9.9,8.9,9.8,3.9,2.6,2.7,3.5,4.4,6.9,10.5,6.7,5.2-8.3,1.1-12.8.7-5.1-6.2-2.3-5.9-6.9s4-7.5,6.8-14.3c8.6,5.8,18.2,6.2,17.4-6.5,4.1-8.6,5.3-16.2,10.9-24.5C429.2,217.2,440.4,211.4,434,203Z"/>
  <path id="12" data-name="12" class="flubber-path cls-4" d="M130.1,107c9.8,4.5,22.9,4.9,29.7,6,5.4,4.8,9,6.5,15,9.5,3.2,1,1.4,6.9,5.1,5.5,5.1,4.8,8.8,17.2,15.5,14.4,2.1-.2,3.3,9.6,6.3,5.2h3.4c2.1,2,6-.1,8.6-.7s6.7,1.2,9.5-.8c2.3,0,5.8,2,7.2-.8,2.5,1.9,11.6,10.8,12.1,8.2,2,.2,4.1-2.8,6.8-2.5a10.1,10.1,0,0,0,5.8-1.5c3.4,3.2,4.5-.6,7.5-.5s3.4-1.4,4.8-2.4c1.8,2,6.4-3.4,9.4-2.1,1.4,1.4,2.9.2,3.8.7s1.6-.8,1.6.6.6-.6.8-.5a1.9,1.9,0,0,0,2.7-.1c.5,1.8,2.5,2.1,3.4,3.4s4.2,1.7,5.4,3.4a8.7,8.7,0,0,1,4.1-.3c1-.8,1.4,2.1,2.4,2.3s3.1,2.9,4.4,4.3,2.6,3.2,4.8,4.5,4,.4,6.4,2.3c1.7.2,2-.9,3.4,1.1,3.6-1.6,6.4,2.3,8.8,4.5.2,3.2,1,4.1,3,6.6s1.4.6,2.8,0c2.1,2.6,5.4,3.7,7.5,5.1,3.9,1.2,10.7-4.3,12.6,3.2.9,1,2.3.7,3.5,1.9a1.6,1.6,0,0,0,1.2,2.2c-.4,2.1.7,3.2,3.1,3.7.5,2.3,3.1,2,2.7,4.6s1.3-.1,1.8.2a7.2,7.2,0,0,0,2.9,1c-.6,4.5,2.8,4.7,3.6,8.4-1.1.8-1.1,2.5.3,2.3,1.7,2.2,2.5,5.4,3.1,8s2.9,2.2,2.9,4.7c3.7,4.6-3.2,7.4-2.6,11.6-2.5,2.3-3.5,4.8-4.8,8.3s-5.1,8.5-2.5,11-1.5,3.2-.1,5.4,0,7.4-1.2,10.6c-6.4,2.7-1,4.8-3.4,6.1-15.8-2.2-25.5,14-36,22.7-16.9,11.4-39,19.6-48.6,38.9-16.5,17.8,12.2,50.2-9.4,55.8,0-.9-1.2-1.1-1.7-.9s-1.7-3-2.9-2.8c0-2.9-3.3-1.2-4.8-2.6-5.1-.7-12.4.3-14.5-4.1-1.4.5-5.6-3.5-2.2-2.7a12,12,0,0,1,.2-7c-5.1-6.2-6.4-1.8-7.8-12.7-2.9-3.4-4-8.1-2.9-13.2-2.8-1.4-4.2-3.1-2.6-6.4s-4-1.7-5.4-3.1-1.6.6-2.7,0c-.4-3.1-2.9-3.5-4.8-6.1.2-2.7.4-4.8-1.5-5.8a4.3,4.3,0,0,0-.3-3.2c-2-1.6-2.5.5-4.8-.3-2.2,2-4-1.3-3.9-3.7-.9-.6-1.5-3.9-1.4-5.7s-1.8-1.4-2.1-2.7c-4.5-2.8-3.7-2.3-6-6.6s-2.7-6.2-1.1-9.9c-.6-4.6-2.2-10.8,1.4-14.7,1-2.6-4.8-2.5-2.7-4.6.3-2.5-1.5-2.5-2-4.3,1.1-1,.5-2.5-.1-3.4-3.1-2.2,3.4-7.2,3.2-10.4-2.9-2.9.2-7.1-1.5-10.8.9-6.2-1.7-11.9-7.1-14.5-2.8-1.4-2.7-4.5-5.3-2.7-3.7,0-6.6-2.7-10.5-3.5s-5.2-.5-6-3c-2,.7-1.6-.9-3-2s-2.6-1.4-2.6-3.5-3.4-1.3-4.8-2.6c-2.3-5.6.6-9.5-8.9-10.4-1.6-3.2-10.7-8.5-5.7-11-1.1-2.1-1-4.8-1.3-6.9a5,5,0,0,1-2.6-3.3c1.4-1.5-1.7-1-1.4-2.4-2.2-1.3-.9-3.9-2.9-5.3-4.1-5.7-18.1-9.9-14.6-17,.5-4-.6-8.5,1.9-10.3,1.5.7,2.8-1.3,1.8-2.7s3.3-2,1-3.8c-.3-4.7-2.7-7.6-1.9-12.2-1.1-2-.1-2.8-.1-4.2s-.5-3.6-1-6.2,1.6-7.6,5-6.3C128,110.4,127.7,107.2,130.1,107Z"/>
  <path id="13" data-name="13" class="flubber-path cls-4" d="M386.8,440.3c-5-9.6-17.2-2.8-23.4-10.1-2-4.8-.7-11.3-7.4-16.4-1.8-10.3-6.8-17.6-6.8-26.1-11.1-1.2-11.2-10.2-15.6-17.6-2.9.2-5.7,2.2-7.2-1.5-.5-9.6-7.6-12.6-12.2-20.3,5.1-15.4-6.1-28.9,1-42.5.5-27.8-8.9-27.5-30.7-35.8-6.5-6.3-10.1-9.6-13.3-17.8-10.7-1.1-12.7-10.6-12.2-19.3-8.5-16.1-32.9-22.2-16.2-42.5-2.8-8.8-2.2-17.1-3.7-24.9.7-6.3,12.2-7.4,4.6-12.8-.3-4.5-8-2.3-7.7-7.9-2.8-.4-6.5,1.3-8.7-.4-3.2-8.2-10.5-12.5-10.8-20.7-6.6-11-17.6-3.1-8-20.4,3.5-15.5,9.9-26.3,9.2-44.7-1.5-4.5-6.9,1.9-6.6-2.1,4.9-7.9-2.9-16-6.6-23.2s-8.2,3.1-13.8-.3c-5.4,6.5-7.6,11.1-16.2,9.5-28,8.5,17.3,9.6,9.1,29.7-8.8,7.4-11.4,15.8-11.4,27.4-7.1,3.5-16.3,8.1-21.8,14.5-5.6,2.8-9.5.6-14.2,8.2-1.6,4.8,2.4,6.8,4.9,10.8-2.2,6.3-12.5,10.3-6.2,17.1,9.9,10.1-7.5,11.5-8.2,24.6,1,11.1,20.9-13.1,14.7,11.9-2.3,13.9-26.3,16.5-13.4,32.6-1.3,24.4-12.4-6.3-14.7,12.5.6,7.7-2.9,13.9-6.7,22.4.8,5.1-2.7.8-4.7,4.7,4.7,3.5-.5,13.2,8,14,4.2,1.3-3.7,12.4,4.2,8.5,4.4-17.1,12.6,9.8,17.7,0-.3-12,18.3-9.6,11.2-22.2-.8-6.7,7.1-.5,6.6,2.9-1.9,6.3-2.6,14.5-4.5,22.3,5.7,8.3,8.8-6.4,13.3-10.6-3.7-7.4,3.9-9.8,10.2-11.5,5.3-4.5,3.3,4.6,7,6.5s5.5.3,8,4.6c12,8,20.4,13.7,19.6,30.3-4.9,0-8.2,2.8-12.5-.2-6.3,12.7-1.7,25-13.7,28-10.9,8.2.3-3.4-20.3-1.9-14.1,10.7,4.5,15-5.2,15.5-10.1-3-2.5,21.8-14.1,8.2-4.6,5.8-9.1.4-12.8.7s2,15.3,6.3,18.1c6.8,3.1,9.7,7.1,7.6,15.8,1.8,6.2,3.7,16,11.3,16,4,28.3,6.9,7.5,16.6,4.5,6.8.3,7.9,10.8,12.7,14.7,12.1-10.8.9-11,17.2-15.3,1.5-2.6.7-4,.9-7.4,2-3.4,4.9-6,4.9-9.6-6.6-10.2-10-20.4-13.9-31.8,3-5.9,2.5-16.2,9.9-6.2,4.5-5.7-.8-13.9-1.1-20.4,5.1-2,8.8-9.6,10.5-1.2,4.4,3.5,10.9,5.8,9.2,12.2,4.1-1.1,4.1,2.8,7.4,2.9,5.4,6-4.5,8.7,6.2,12.8,4.6,2.5,11.5-12.9,14.9,1.9.5,2.8,2.8,5.6,5,7.7-.5,2.3-2.5,4.7.9,6.8-3.1,4.8,7.3,9.9-.1,11.3.3,11.6,7.8,7.4,3.8,17.8,4.4,9.9,13,.3,18.4,13.1,14.8,10.2-5.6,25.3-4.2,38.2,7.9,2.7,18,6.1,24.8,4.6.4-7.6,15.4-10.7,13.7,1.9,4.2.7.9,9.1,6.7,6,4,6.6,8-11.1,13.7-1.1,10.7-11.3,16.8-23.5,32.5-25.7,9.8-16.3,23,7.5,33,13C400.7,443.2,400.4,434.2,386.8,440.3Z"/>
  <path id="14" data-name="14" class="flubber-path cls-4" d="M330.8,235.7c.9-1.8-1.9-3.4-2.2-5.5-.2-4.2-2-3.1-2.8-.5s-1.2.6-2.9.9-3.7,1.4-5.1-.3c-1.6,1.3-1-.4-3.3-.3s-.3-3.4-1.8-1.5c-4.2,2.3-3.4-11.2-1.1-13.6,0-4.2-4.2-2.4-4.5-6.4,1.4-1.4-3.2-1.4,0-3.2-1.2-1.6-2.9-.8-1.7-2.9-2.9-2.2-3.1-4.2-3.2-7.3-1.3-.3-.8-2.3-2.2-.6-3.1-.8.3-3.1-.8-3.6,1.6-2.3-1.5-2.1-2.4-2.6,3.5-1.9-1.6-3.3,1.8-4.8,1.3-1.1.9-2.6.9-3.9a2,2,0,0,0,1.1-2.4c1.6-3.6,2,4.9,4.8.6-2-3.3,3.4-8.2.3-9-1.2.5-1.2-.1-1.4-.9s-.9-3.1-1.8-1.1c-1.7-.1-4.8-.9-5.9-2.6.3-3.9-5.4,6.2-7.4-4.8-1.6,1.1.1,3.4-2.8,2-.9.9-1.7,2-3.2.8-.5,3.7-5.1,1.7-5.8.3s-2-2.2-3.7-2.3-1,1.5-2.1.9c-3.4,1.2-1.6-2.6-3-3.6-10.9-9.7-1.3-2.7-3.2-12-.8-2-2.9-3.7-3.7-7.7-1.7.3-1.7-2.8-3.6-2.7-.1-1.2.7-1.7-.1-2.9-4.2-11,3.7-5.1-7.9-12.7-1.9-.1-1.4,1.6-1.9,3.4-2.1-1.7-4.7,1.9-1.7,3.1-.3,1.4-1,2.8-1.5,4.5s-5.4.8-7,3.4-3-2.9-2.3.8,1.3,4.3-1.2,5.2c0,3-.6,3.9-.6,7.1.1,1.6-1.3.3-1.7,1s-.3-3.3-.6-1.9a10.9,10.9,0,0,0,.3,3.7c2.3,5.1-1.9,2.6-3.3,5.1-1.1,5.4-2.6,10.7.6,13.8s-.3,4.4-1,6.3c-5.9-2.3-6.1.6-5.4,5.3.1,1.7-1,2.6-1.3,4.4.2,0,2.2-.6,1.7.8s-.9,1.4-.4,1.7-.4,1.9,0,2.8.9.3.6,1.1,1.5-.6,1.2.6c1.2.9-1.2,1.8-1.1,3.1,1.9,1.1-1.1,2.3.5,3.2s-.2,2.3-.6,3.3.6,3.1-.5,3.8-1.8.5-2.8.8-2.4-.6-1.8.8c-1.3,2-2.5,3.2-1.4,5.1-3,1.1-8.2.7-8.2,5.7-3.4-.2,1.4,5.6-1.4,8,.5,1.4,4.8,5.1,1.2,5.9-1.5,7.4-5.5-7.3-4.9,8,.9,4.7-4,6.5-4.6,10.1a32.6,32.6,0,0,0-2.8,8.5c.3,1.1,2.3,1.7,0,2.9-.5,9.6-5.7,1.9-8.4,11.9-4,3.3-6.8,13-1.4,14.7-.3,6.3-4,1.2-4.6,4.8-.3,11.6-6,.1-7.9,8.3-4.6.9-.9,3.6-4.6,5.1-1.1,3.6,2,6.5.5,10.4,1,1.4,2.7,2.8,1.7,4.5s.3,8.1,3.5,7.8c1.7,3.7,2.8-.3,5-1.4,3.2-3.7,3.7,2.2,1.2,4.5-.3,1.6,2.3,2.3.6,3.7.2,5.1,1.7-2.3,3.7-.3s.2,4,1.6,2.8c.1,1.5.1,1.1,1.4.2s2.3.4,2.9.4c1.4,3.7,4-.4,6.6-.3s5.6-6.9,7.8-5.1c-1,2.6,1.8,4.5.6,7.6,1.2.6,1.4-3.3,3.2-2.6s3.1.1,3.3,2.4-.3,4.4,2.6,4.4c.5,1.3.9.1,1.4.1,1.5,2.8,5.7,4.2,3.5,8-4,3.4-3.5,5.5-2.3,10.4.8,1.9-.4,2.2-.1,3.7s1,2.2,2.6,1.9c.1,1.8.9-.8,2.2.9,1-.3,2-2.5,2.3-1.9,3.1,1.1,4-3.2,8.3-1.7,7.6-8.3,1.7,1.9,8.7-4.1,1.4-.2-.8,2-.2,1.7,1.4,1.8-.8,2.6-2,4s-1.2,4.6-.2,6,3,1.4,3.3,2.6c1.7,3.1,1.5-6.1,9.9.6,7.6-.6.9,4.4,6,2.2,1.9.2,1.7,2.8,3.6.3,3.7-1.4,3.1-5.5,7.4-5.9a7.6,7.6,0,0,0,6.5-6c1.7-2.3,4,0,5.8-.9s2-3.1,4.7-3.6a15.5,15.5,0,0,0,0-7.1c-1.1-1.2,1.8-2.4.9-4a9.1,9.1,0,0,1,2-6.8c-1.1-1.8,3.9-2,5.3-3.8s-.3-1.9.3-2.8,2.3-1.7,2.8-4.5c3.2-2.5-2.4-4-.4-6.3-2.4-1.9,3-3.1-1.2-4.8-2,.7-.8-1.9-2.5-1.3-1.2-.9.3-3.4-2.4-2.6a3.6,3.6,0,0,1-3.7-2.8c-1.9,1.4-3.6.3-2.5-2.1a5.9,5.9,0,0,0-4.5,1.4c-1.1-1.4-2.9-5-.8-6.2.5-1.7,2.3-.8,3.7-1,2.2-2.3,3.9-1.8,6.5-2.4s2,.6,3.1-.3,3.3,1.8,4.2-.3c-.8-3.8,5.2-2.2,6-7.2s2.3-1,5.1-1.2c.8-1.7,3.3-1.5,2.6-4.2-2.4-2-.9-6-3.2-7.5-.6-3.4,1.9-5.4,3.2-8.1-1-1-4.3.5-4.3-2.9-2.5-.5-.8-4.5.5-5.7s.4-5,2.1-4.7c2.2-1.7.7-2.4,4.2-.9,2.9-1.4,5.1,1.6,7.7-1.2-.4-1.7,2.8-1.3,2.4-3.1,1.5-.5.7-.5,1-1.9,2.7-1-.1-1.7-.6-2.9-2.6,1.1,0-5.7,1.3-3.9,3.4,0,3.7-3.5,3.7-6.4C332.3,241.6,330,238.2,330.8,235.7Z"/>
  <path id="15" data-name="15" class="flubber-path cls-4" d="M345.8,300.1c0-1.1,1-1.4-.4-1.9s-.7-.6-1.4-.6-4-2.5-2.8-.2c-.5,2.5-4.9-.3-6.3,1.4s-3.4,3-4.7,1.7-1.7-.7.3-1.8c-2.7-3.4,1.6-1.7-.6-4.2-.1-1.9,2.6-1.4,1.1-3.2a7.7,7.7,0,0,0,1.5-4.2c1.3-.9,4.8-1.6,5.3-3.6s2.3-2.8,3.2-4.5,2.2-.6.7-1.5-1.1-3.2-3.4-3.9-1.1-2.4-1.1-3.8c-3.1.6-2.8-3.9-.3-3.9.4,1.6,1.2-2.3.9-2.9,2.5-1.9,3.2-4.3,5.6-6.7,2.7,0,.1-1.7-.4-2.3a4.6,4.6,0,0,0-2.6-3.5c-3.8-2.2-1.2-7.3,1.7-9.3,2.2-3.6,6.8-6.5-.6-6.5-1.5-1.5-3.9-2.2-6.2-2.6s-2.1,3.4-3.4,2.6-2.3-2.2-3.8-3.4-1.4-4.2-.2-5.2,4-2.4,2.8-4.2.3-.5.5-1.6c-2.1-2.9-1.3,4.7-5.6,0-2.2,4.1-4.3,3.4-7.6,3.7-1.7,1.7-3.7,2.4-4.8,1.7-.6,1-1.2,2.1-2.4,1.7s-.7,0-1.7,0-2.1-.7-1.6-2c-2-1.5,0-6.5-2.3-9.4.3-3.5,5.6-4.5,4.2-8.6.3-1.7-2.4-.5-1.9-2.5-.5-.3-.8-.5-.9-1.1s-1.9.2-3.9-1.9-.1-5.4-2.6-5.7c-2.3-2-4,2.2-5.1,2.2a6.1,6.1,0,0,0-.5-4.2c-.7-.8-.3-2.6-.1-3.5-1.4-.2-2.3-.3-3.3,1.7s-2.4,2.9-4,3.2-1.8-.5-2.8,1.2c-5.1,2.8-1.8-1-8.2-.7-1,3.5-1.3-7.3-4.4-2.2-1.6,2.6-1.4-.3-.7-1.7-.9-1.1-1.8-2.2-.6-3.7,1.9-3.5.8-6.3-2.6-3.4-1.1.8-2,3.9-3.2,2.3-3.1-2-6.1-4.6-4.5-9.4,1.5-1.2-1-2.2-1-3.6s.8-3.4-.4-5.1,1.2-6-2.5-5.8c.6-1.3,1.7-3.6-1.1-2.3-1.7-1-3.4-1-4.4,1.3-2.8-1,.1-1.3-3.3-4.7-.5-2.5-2-1.1-3.1-2.5-1.2,2.3-1.5,0-2.6,1.5-1.1-1.8-4.8-.1-5.3-2.4-1.4-.5-3.8,4.7-5.2,2.6-3.1,1.2.6-2.8-5.1-.9-.6-3.9-5,2.9-5-4.4-1.8-1.4-.9-.9-.9-2.8s-4-.1-3.2-3.3,2.9-1.6,3.1-4.4c1.3-.7,2.6-1.4,2-3.2,2.7-5.4-.5-10.4-3.3-13.5-2,1.9-.8,6.5-3.2,3-1.3-1.3-4.5.4-4.5-1.7-.2,1.1-1.5,2.3-1.1,3.2.8,5-.3,10.2-.9,15,.1,1.1-2.6,0-3.3,2.3s-.9,2-1.8,3.3c1.2,2.7-.5,5.4-2,7.1s-1.3,2.1-2.6,1.1-1.6.6-2.2-.7c.3-3.7-.9-8.6,2.2-12.5s3.2-13.4,5.8-18.5c0-1.1-1.5-2.2-1.1-3.4,2.2-.9-.6-2.2,1.1-3.4s2.7-2.2,1.6-3.9c-2.7-5.7,8.3-13.3,1.1-23.8-6.8,11.6-8.7.8-8.5,7.9-3.6,3.7,2.4,4.5.6,8s-.6,5.9-3.1,7.3.1,2.2-.9,3.7c-5,.5-2.8,4,0,5.7,0,2.5,2.4,4.4,2.9,6.7s-.9,4-2,5.8c-1.3-.3-.3,2.7-1.9,1.7-2.3,1.3-1.1,4.7-4,4.1-4.8,4.3-.9,13.1-.8,17.1,4.2-.5,1.4,17.8-2.4,14.2-9-4.5-5.3-1.8-11,4.2-4.2,8.8-2,6.2.3,12.2-.5,1.2,1.5,4.5-.8,5.1-.6,1.5,1.4,1.2,1.9,2s.4,3.4,1.7,2.3,2,1,2.8,1.6c1.4-1.1,2.1-.5,2.3,1.4,2.6-1.6,1.1-4.2,5.1-3.9,2-1.4,2,2.6,3.5,1.2a9.5,9.5,0,0,1-4.1,7.6c.6,1.2-.7,9.7-3.4,5.6-.5-2.3-3-1.9-4.7-2,2,3.2-1.2,6.6-3.2,7.5-5.9,1.4.9,6.7,1.5,7.6s-1.7.8-.9.9.3,5.4,2.3,5c2.2,1.1,3,3.1,3.9,4.9-.3,3.4-5,7.3-3,11,1,1.7-2,2.6-1,4.2.1,3.7,3.7,6.3,3.1,10-.7,2,.4,5.3-2.7,3.9s-4.8,1.2-5.1,2.3c2.2,4.3,1.3,8.5-2.1,11.1-1.9,1.7-6.5-.3-8.4-2.6,1-.9-1.2-3.7-1.4-1.9s1,11.2,2.7,10.5,2.1,3.1,4.1,2.4c1.9,1.5,2.5,2.7,3.6,4.9s.8,3.1-1.4,3.9a7.1,7.1,0,0,1-.9,7.4c-5.7,5.7-10.2,2.1-16.9,6-1.7.3.3,1.2-.1,1.5s.7,2.4-1,2.1c-2.1,1.5,1.6,2.4,1.4,4a21.6,21.6,0,0,0,2.4,10c-1.7,0-.7,2.8-.2,3.1-3.1,3.1-.8,3.4,1.7,1.4,3.4-.5,7.4,6.3,6,0,.6-1.1,0-1.9,1.3-2s.4,2.6,3.7,2.6c3.2,3.4,9.4,13.5,12.9,10.8s10.4-.4,9.3,5.9c-1.5,3.1,4.8,4.3,8.4,6.3,1.2-.7,2.4,4.4,3.1,2.2.9,3.6-3.6,10.5-2.4,16.5,1.4,8.2,3.9,4.5,8.7,3.7,2.3.2,3.5-1.8,4.3,1.4,3.4,2.7,3.9,7.3,4,12.1a2.1,2.1,0,0,1-3.2.6c-.5,1.2.5,2.9.8,3.9-2,1.5-.2.6,1,.4,5.8,2.3,3.4,3.6,8.5,2.3,8.4,5.8,10.4-.4,14.1,1.1,2-1.1.8,6.5.3,8.4,1.1-1.6,4.3-3,5.1-1.3.2-1.2,1.4-1.4.5-2.6s3.4-3.9,4.3-6.6,5.6-2.4,6.5-3.6c.5-3.5,3.2-5.4,3.4-9.1,3.8,2,3.8-1.7,6.6-3.7-.9-2.8,3.9-2.3,3.9-5.3,2.3-.1,8.5-.4,11,1.3-1.4,2.6,1.8,2.8,1.7,5.2s2.7,14.1,5.2,12.2c.5-.3-.1-1.4.8-.6s-.9-3.2-.2-3.5c2.8-.8,1.3-4.7,3.6-6.2s3.5-.3,6.2.6c1.7-.8,3.1-2,4.6-1.9,2.2-6.4,7,.5,6.2-6.4,6.5-8.5.6-13.5,5.4-12.6a3.5,3.5,0,0,1,1.2-1.8c-.6.1-1.4-.2-1.2-.8,2.2-1.8,1.1-6.2.9-8.5,3-3.7-1.4-7.2,5-5.9,1.8,2.7,1,5.8,5.2,4.1.6,1,2.2-.2,2.6.3s0,.3,1.3-1.1c-1.9-4.5,2.5-10.2-2.3-14.4s1.7-6,1.7-10.2c-2.4-2.8,6.1-1.2,10-8.8,1.5.3,4-2,2.8-2.8,1.7-1.4.6-4,1.8-5.2-2.4-2.2,1.1-4.7,1.1-7C346.4,301.6,344,300.8,345.8,300.1Z"/>
  <path id="16" data-name="16" class="flubber-path cls-4" d="M364.9,154.2c-9.6,1.7-11.9,1.5-18.4-12.5-3.6,6.8-14.7,24.6-17.6,8.2-2-2.3-2,3.1-3.3,4.3s-2.3-4-2.9-3.4c-1.5,6.2-9.7,4.6-11.1,9.9-2.7,8.8-11.6,2.5-14.7,8.8-2.9-11.1-9.6,6.6-13.6-2.6-12.7-1.7-6.8,21.1-23.5-4.7-.4,2.8,0,14.6-2.8,10.1-3.5-11.1-4.1.4-9.1-6.7-3.1,3-.6,11.6-8.2,13.5-4.8-1.9,1.3-9.9-6-10.4-4.3,2.7-2.3-6.2-3.6-7.5-4.9-1.1-6.4-1.4-9.2-6.4-3.7-13.9-4.2-27.9-16.9-14.4-20.2,11.5-7.5,1.6-13.3-10.1-3.4,8.4-15.6,7.1-12.3,12.6-4.8,19.5-5.7-14.5-13.5-1.8-3.2,12.6-3.5,19.7-10.8,23.8,3.4,2.4,3.6,7.7.8,9.5-10.7-8.8.6,8.5-2,12.1,3.5,6.5,2.5,2.5,1.4,12-4,.5.1,9-5.1,12.3-2.6-1.3-19.5-1.4-12.4,2.6,0,14.8,4.3,56.4,21,45.6,14.4-8.5-.3,8.3,9.2,8,7.4,6.3-2.8,20.4,15.7,25,17.5,6.2.5,17.5,14.8,16.9,3-3.4,4.4-14.1,8.9-9.3,12.2,2.6.3,15.4,8.5,21.5.1,18.2-13.5-1.1-3.8,29.9,5.8,2.8,11,12.6,4.5,16.3,3.9,6.3,14.1-.8,11.8-6.8,10.3,6.8,6-2,11.4-7.9-2.8-13.6-11.1,13.3-19.2-16.5,2.4-24.6,20.1-1.9,17.7-24.8-14.1-19.3,19.4-24.5-.7-40.6,9.5-4.5,6.1-14.5,7.1-21.8,20.3-13.6,7.2,5.9,8.1,17.2-13.5,30.4-4.8,67,2.9,12.9,11.3-8.3,19.9,5.3,7.4,16.9,2.3,1.5,4.8,11.7,8.4,8.6,4.1,1.6,4.8,3.3,8.9,2.2,6.8-5.4,19,4.8,24.1,6.2,8.8-13.9,13.2-3.4,12.7-13.5,9.6-3.7.8-4.6,2-11.4a381.6,381.6,0,0,0,18.6-36.6c3.8-7.9-3-11,6.1-12.4,1.4-6.5-5.5-20.1,7.3-19.8,10.7-13.5,7-16.9,6.3-33.8-2.9-6.6,6.2-1.2,7.1-6.3C356.5,163.8,365.5,165,364.9,154.2Z"/>
  <path id="19" data-name="19" class="flubber-path cls-4" d="M394.9,320.7c-3.6-5.4-7.7-2.1-12.1-1.4s-8.6-5.7-10.5-8.3c-.1-.9-1.7-3.2-2-1.4s-3.9-1.3-1.7-1.2a176.9,176.9,0,0,1-17.4-21.6c-6.8-4.6-12.9-10.9-21.5-12.7-5.5-2.8-13.6-4.8-16.9.6.2-5.6-1.7-3.3-5.6-5.7-3-.8-4.1,1.8-6.3,2s1.1,3.2-1.3,3.2-8.1-4.5-8.3,2.2c-.1,2.1-1.1-.2-2-.3-1.1,2.4-1.3,3.2-3.4,3.7-1.6,2-4,.7-6.3,1.5.3.5,3.4.9,1.4,2.3s-1.7-1.5-2.7-1.7c-3.3.5-2.3,4.2-5,4.3-.3,2.5-1.2,6-4.4,5.1-.8,2.2-2.3,3.9-3.9,4.3-3.4,4.5-.8,6.3-5.8,7.7,5.3,3.3-3.3.3-2,3s-1.9-.7-1.6.3-1.2,1.4-1.1,2.6-2.3,3.8-3.1,1.8c-2.4.2-1.9,3.3-4.6,2.2-1.7,2.5,3.8,1.8,4,5.8s-3.2-2.1-4.9,1.3c-1.7-4.2,1.6-5.3-2-3-1.9.2-2.2-5-2.2-2.4s0,1.4-1,.8c-.4,1.6-.7,1.8-2.2,2.7,2.1,2.3-.9,1.4-1.5,2-.7,2.2-3.2-.1-2.8-2.9-3.5.3-1.9-.2-2.1,2.6-2-.4-3.3.2-5.3-.6s-1.4,2.6-3.6,1.7c-4.2-5.7,4.7-6,8.1-7.7s6-7.4,11-6.3c4.1-4.3,20.2-15.3,10.3-23-5.1,4.8-4-4-7.8-2.7-1.3-1-.9-.8-1-.1a.8.8,0,0,1,.5,1.3.6.6,0,0,1-.7-.4c-.1.1-.1.2-.2.2s-2-1.5-1.3-2.3.8-.9-.3-.6-.4,2.3-1.5,3.1-1.1-2.8-2.9-.9c-3.9.1-2.8-1.6-1.8-4.2-2.4-2.5-.7-4.5-.8-6.5-1.1-4-3.3-3.2-6.3-2.4-3.7-1.7-.5,1.4-3,.4s-1.7-3.4-2.6-4.9-3.5-.5-3.6-3.1c-.2-4.3,1.5-4.9-2.4-9.2s.2-9.1,2.7-12.5c2.6-9.7,3.7-4.3,9.4-3.7,0-.9,3.3-2,.8-2.8-1.1-4.7,4.2,2.7,6.2.3,3.2-4.3-1.5-8.7-7.2-7.7-2.6-3-5.8-3-9.4-2.9-5.1-1.5-7.5-4.8-7.6-10.2-11.3-3.8,1.7-7.8,7-9.2,7.5.9,5.5-6.9,1.1-10.3-2.4-2.9-6.3-4.9-8.3-7.4,5.6-3.2-1.7-4.9,9.4-3.1,6.1-.8,3.3-12.5,11.6-9.7,7.2-5.5,9.5-.9,16.1-6.5a38.7,38.7,0,0,0,15.1,5.7c3.3,5.3,8.3,1,13.3,3.7,3.4-1.2,9.4,3,13.8,3.4,4.5-3.4,9.4,1.3,14.1,1.9-.7-1.7,2.8-.2,3.7-1,3.3-1.5,5.3.8,7.9,2.2,3.2-.8,3.4,1.2,4.2,3.9s2.8,3,1.7,6.1c-3.6,1.4-3,7.1-7.4,6.5-1.7,1.4,1,6,.7,8.6-2.5,4.5,1.5,12.6,5.5,15.7,1.7,1.9,5.9,3.9,5,5.4s-1.3,1.1-2.2,2,.8.9,0,.8c-.7,3.1,2.2,1.2,4,1.8s1.8,4.2-1,3.1c.9,2.9-2.6,1.7-1.9,3.7-1.1,1.6-.5,2,1.5,4-2.2,1.4.2,3.3-.9,5.6s2.2,3,2.7,5.5c-1.9-.3-1.3,1.1-.5,3.1-3.8,5.1,12.4,8,8.8-.3,5.1,1.5,0,6.1,3.4,5.5.2,5.1,1.9,1.3,4.2,3.3,4.9,4.6-1.7-6.5-.6-7.3s3.5,1.3,2.5-1.7c.6-.6,4.6,2.6,3.2,3.9.3,3.7,2.1,2.1,3.7,2.9,3.1,1.4,2.2-.8,4.4-.6.2,1.1,1.3,1.4,3,2.6-.5.5.3,4.8.3,2.5,5.5,2.6-1.9,8.4.1,9.4-.7-2.5,2.1,1.7,2.6.1,3.4-1.8,1.2,3.4,2.6,5.4,3.5-4.5,3.8,5.1,5.2,5.6.5,2.7,3.1,3.3,5.3,2.1-.5-2,.8.2,1.6-.1,2,3.8.9,4.7,4.7,6-.3,2.4,2.2-2.3,2.3.7.3,6.5,3,1.1,4.9,6-1.6,2.4.3,5,.9,7.3s1.9,4.1,3.8,5.5C394.9,315.3,395.4,322.9,394.9,320.7ZM275.4,289.5c-1.6,3.8-5.5,4.1-6.5,8.4,2.1,1.6,2.2,4.2,3.9,5.9s-2.9.3-2.6,2.9c7.7.8,3.3-.8,6.3-4.6,3.2-2.2,7.9-5.1,3.7-10.6-1.2-1.1,4.4-.2,2.2-2.8S278.5,282.1,275.4,289.5Zm-58.9,30.8c-2.6,4.1-6.3-2.2-6.5,6-2.6,1.2-1.5-1.3-4.2-1.7s-3.1,4.8-6,5.4c-1.7,4.4,4.7.9,5.7-.9,2.5-.4,9.4.3,11.3-4.4-1.4-3.3,8.9,1.4,5.6-3.3C219.6,323.4,220.2,318.9,216.5,320.3Zm-35.9,12.5c-.8,3.2-9.4-2.4-13.3-2.2s-7.2,2.8-9.4.5-8.2-.2-5.7-5.6c1.6-.3,2.5,2.9,3.8,1.1,2.5.9-1.6,1.8.1,1.5s1.9-2.7,2.7.5c1.4-2.5,2.2-.2,3.6.8.2-5,2.2.4,4.5.3s4.6.4,5.4-1.7C175.6,325.7,173.5,331.7,180.6,332.8Zm-22.3-3.7c.2.3-.1,1,.2.9S158.6,329.1,158.3,329.1Zm37.2-102.2c4.7,3.7,1.8,6,7.5,4.2.1,2.9,2.8-2.2.9-2.2s-5.3-1.4-4.8-4c-2.4-2.4-5.7-.3-7.9-3.8C189.2,226,191.7,226.5,195.5,226.9Zm20,39.6c.5-1.5,1.9-.3,2.8-1.5-.1-3.4-1.8-6.8-4.5-6.2C204.9,259.7,211,263.4,215.5,266.5ZM106,295.8c-3.4,1.2,2.2,4.1,3.3,5.1C112.9,300.4,108.7,295.9,106,295.8Zm88.5,35.4c2.5.5,4.1,0,3.6-2.8S194.2,328.9,194.5,331.2Zm-59.7-9.5c-.9,1.8,6,8.4,4.4,4.3C137.7,325,137.2,322,134.8,321.7Zm50-73.1c-5,0,6.3,9.6,2.5,3.4C185.6,251.9,185.4,249.7,184.8,248.6Zm-56.1,70.1c.3-1.7,3.8.8,2.7-1.4C131.5,312.7,125.7,316.4,128.7,318.7Zm103.6,1.7c-2.8,2.8,4.4,5,2.8,1.6A12.8,12.8,0,0,0,232.3,320.4ZM108.5,303.8c1.6,2,3.5,2,3.2-.6C110.9,302.7,108.5,302.4,108.5,303.8Zm86.2-16.2c.6.6,2.8-.8,3.1-1.1C196.2,284.5,194.2,285.3,194.7,287.6Zm-58.9,31.3c-.8-.9-4.7-3.2-2.8-.3C133.9,319,136.1,321.5,135.8,318.9Zm14.9,9.5a5.6,5.6,0,0,0-3.8-1.2C146.3,328.4,150.8,330.3,150.7,328.4Zm30.8,3.7c.8,1,2.8.5,2.5-.7S180.9,330.4,181.5,332.1Zm-41-9.4c1.9.3,1.9-1.3.8-2.3S139.1,322,140.5,322.7Zm50.9,9.4c1.1.2,2.8-.9,1.6-2S190.1,331.1,191.4,332.1Zm-43.9-3c-.6.7-1.2.6-1.4,1.5C145.8,333.4,150,329.8,147.5,329.1Zm113.1-20.2c.8,2,2.8,2.1,1.3-.3C261.9,306.7,260.3,307.3,260.6,308.9Zm7.4,2.6c-2.2-2.3-1.9,3.8.1,1.5C268.3,312.7,267.8,312.1,268,311.5Zm-20.4,8.2c-1.5.4.7,2.1,1.6,2S248.6,319.5,247.6,319.7Zm-58.6,11c-.6-.1-.4,1-.4,1.3C190,334.3,191.5,328.6,189,330.7Zm11-37.5c-.3-.8-1.4-.8-2-1.1S199.8,295.3,200,293.2Zm-86.8,8.4c-2-2.4-1.4,1.3.5,1.6S114,301.5,113.2,301.6Zm19.9,17.6c-1.6.9,2.4,3.7,1.3,1.1A2.8,2.8,0,0,0,133.1,319.2Zm16.1,7.9a1.2,1.2,0,0,0,.2-1.9C147.8,324.3,147.7,327.1,149.2,327.1Zm227.5-7.3a2.7,2.7,0,0,0-.5-1.4C374.7,316,375.3,321,376.7,319.8Zm-71.6-41c.8-.6.5-1.3.2-2S304,278.7,305.1,278.8ZM121.7,310.3a.6.6,0,1,0,.9-.8C121.7,308.1,121.2,309.3,121.7,310.3Zm108.1.7c.3.5.1,1.1.9,1.3S229.9,309.6,229.8,311Zm-79.1,18.4c-.7.6.4,1.5,1.1,1.2S151.4,329.4,150.7,329.4Zm34.4-76c-.9.6.8,1.9,1,.6S185.7,253.3,185.1,253.4Zm22.1-38a.8.8,0,0,0-.5-1.3C205.8,214.4,206.6,215.4,207.2,215.4ZM166.5,328.7c1.1.5.9-1.3-.2-1.2S166,328.4,166.5,328.7Zm37.4-121.3c.8-.3,0-1.4-.6-1.3A.7.7,0,0,0,203.9,207.4Zm30.4,20c0,.5,0,1.1.6,1.2S235.1,227.1,234.3,227.4ZM206.6,322c.5-.6-.3-1.7-.8-1.1A.8.8,0,0,0,206.6,322Zm-37.8,6.9a.7.7,0,0,0,0-1.1C167.9,327.4,168,328.9,168.8,328.9Zm-53.5-25.4c-.8.3-.4,1.1.3,1.2S115.9,303.8,115.3,303.5Zm143.1,8c-.4.3-.3.9.3,1.2A.6.6,0,0,0,258.4,311.5ZM233.2,232c-.8.3-.3,1.1.5,1.1S233.8,232,233.2,232Zm-.6,85.7c-.2.4-.2.9.5,1S233.4,317.7,232.6,317.7ZM203.8,208c-.2.7,1.1.9.9.1S204.1,207.5,203.8,208ZM375.1,316.4a.7.7,0,0,0,.7.9C376.4,317,375.6,315.8,375.1,316.4Zm-243.2,1.9c-.4.4-.2.9.4,1S132.5,318.3,131.9,318.3Z"/>
  <path id="20" data-name="20" class="flubber-path cls-4" d="M326.7,298.3a45,45,0,0,1-6.4,3.8c-3.2,1.7-4-.9-5.5,1.6a3.5,3.5,0,0,1-1.9,1.2c-.9,0-1.1,1-1.7,1.4s-1.8.6-2.3,1.6-4.8,10-6.9,5.7c0-.9-1.1-.9-1.7-1.3s-2.5-1.2-3.8-2a8.7,8.7,0,0,1-2.1-4.3,59,59,0,0,1,.6-5.9c.3-1.8-.8-3.2-1.1-4.9s-1.2-3.4-1.7-5.1-.6-.6-1.1-.9-.7-2.2-1.5-3.3,0-3.7,1.4-4.5,1.5-2.4,2.9-2.4a21.1,21.1,0,0,1,2.3-3.9c-5.7-7.3-.9-15.1,6.7-7.3.9.2,1.4,1.1,2.1,1.4a12.3,12.3,0,0,1,4.1,1c1.4.4,2.6,1.4,4,2a13.4,13.4,0,0,1,4.3,2.6,13.8,13.8,0,0,1,3.9,3.7c1,.9.9,2.3.9,3.7s1.7,0,2.2.9a8.2,8.2,0,0,1,1.5,3.6c.8.3.6,1.2,1.4,1.7s3.2.9,3.7,2.8S328.1,296,326.7,298.3Zm-34.6-50.5c-.7-1.4-2.2-1.4-3.1-2.4s-1.1-1.4-2-1.7-1.3-1.7-2-2.3c-4.2-3.1-6.8,2-7.6-1.4-.2-1.5-1.7-2.4-2.8-3.2s-4.5,1.1-5.1,3.2.8,6.5,3.4,7.9c.8.5,1.6,1.4,2.6.9.5,1.7,0,1.3-1,2s-1.4-.1-2.2.4-2.9,1-3.9,2.3.8,4.8,3.1,4,3.4.6,4.2-1.1-.8-3.2,1.4-.9,4,.8,6,0,1.7,0,2.8,0,1.4-.9,2.3-.8C291,254.2,293.6,250.5,292.1,247.8Zm-31.9-11.5c.5.8,1.3.6,1.9.9s2.8,1.9,4.6,1.7,3-.9,4-2,1.9-.7,1.9-1.8-1.2-3.4-3.1-3.7-2.6.1-3.7-.5c-3.1-3.4-2.3.3-6-1.4-1.4-.1-2.2-1.4-3.6-1.2s-2.1,1.4-2.9,2.5c-4,4.4,1.4,5.7,5.2,5.4C259,236.3,259.6,236.8,260.2,236.3Zm5.6,3.6c-2-1.1-5.1-2-7-.2-2,3.4,1.9,3.9,1.1,5.3s.8,4.1,3,3.8,1.5.5,2.1,0,1.9-.4,2.5-1.4C270,245,268,241.9,265.8,239.9ZM243.9,223a4.1,4.1,0,0,0-.5-1.8c-.2-1.1.6-2.6-.9-3.3s-1.4.5-1.9-.1,0-.9-.3-1.4a11,11,0,0,0-1.5-2.5c-.5-.8-.2-1.5-.7-2.3a18,18,0,0,0-1.8-2.5c-2.9-1.7-4.8,1.9-6.7,3.3s-6-1.3-5.8,1.8c.3,1.4,1.7,1.4,1.1,3.1s1.3,2,1.2,3.1.9,1.1,1.2,1.7.5,3.6,2.5,3.7a31.6,31.6,0,0,0,3.2-.3,5,5,0,0,0,2.7.8c.7.4,1.1,1.5,2.1,1.8a3.1,3.1,0,0,0,2.3-.4,2.2,2.2,0,0,0,1.4.6c1.6,0,3.6-1.4,3.4-3.3A2.2,2.2,0,0,0,243.9,223Zm-46.1-36.4a3.4,3.4,0,0,0-2.6-1,4.5,4.5,0,0,0-2.3,0,2.5,2.5,0,0,0-2.5-.3c-1.5,1.1-3.4,1.4-5.1,2.2s-.9,1.5-1.4,2.2-1.4,1.4-1.7,2.4c-.6,2.5,1.6,4.2,3.6,5s1.2,2.3,2.4,2.6,1.9.8,2.8.8,2,1.4,3.1.6,3.7-1.9,4.5-3.7,2.3-4.2,2-6.8S199.5,187,197.8,186.6Zm-24.1,5.7c-3.9.6-7.1,6.8-2.5,8.6,2.2.8,2-2.4,3.6-2.7s3.4-1.1,2.9-2.8,1.4-1.4,1.4-2.3C178.2,189.7,174.9,188,173.7,192.3Z"/>
  <path id="17" data-name="17" class="flubber-path cls-4" d="M402.4,383.5c11.6-6.8-8.1-17.5-8.6-26.6-9.3,10-8.4-10.7-15.5-9.9-1.8,7.7-12.2,3.5-17.1,2-3.7,2.9-5.6,2.2-9.7.3-9.6,9-3-8.3-8.7-12-4.5.1-5.1-5-2.8-7.9-2.9-6.2-8.5-22.1-2.6-24.7,9.9-8.1,16.2-8.1,24.7.7,4.5,7.4,5.1-7.9,2.5-10.8,3.7-5.6,9.3-7.3,7.9-15.3-8.1-2.1.6-7.4,2-10.6-4.7-8.7-15.2-14-12.4-24.6,13.1-17-15.1-44.2-18.2-66,14.2-30.3-17.3-48-20.9-77.4-8.5,4.9-5.1-14.7-15.4-16.8-2.7-1.3,3.7-11.8-4.7-8.2-6.5-1.4-6.6-18.3-16.2-18.3-3.4,3.7-14.4-4.8-7.6,4.8,5.6,2.7,13,2.3,8.4,11.3,2.5,8.5-7.9,16.4-4.5,26.6,4.9,13.7,10.4,46.8-11.1,47.3-14.1-2.7,9.3-16.3-12.4-16.4-9.1,31.7-30-5.3-34.9,29.7-13.3,2.9-28.3-1.1-45.3-6.7-10.2,9-8.8,22.9-19.8,2.2-2.9-23.4-13.7,13.6-16.8,25.2,6.2,29.5-2.8,59.8-11.6,87.6-7.9,38.3-43.2,68.3-36.4,103.8,11.1-.2,7.2-7.9,13.6,6.3,4.7-6.9,7.4,3.4,13.5,2,11.5-3.5,16.6-3.4,21.4-16,4.3-10.8,8.2-21.7,19.4-18.7-.4,7.9,2.4,15.9,10.4,19.1,2,6.2-6.8,18.7,5.1,15.3,6.6,38.8,5.2,7,15.8,30.5,6.9,2.6-1.3-15.2,8.1-8.7,20.7-29-6,30.6,27.2-6,12.2,2.9,4.2,26.9,18.9,27.6.8,6.7,2.6,7.9,7.9,10.7,0,3.9-1,10.7,3.8,6.2,8.7-3.9.3-17.8,14.4-7.1,6.2,11.4.2-17.8,9.3-1.1,3.4,12.4,12.2,1.5,15.9-4.9,2.9,7.8,7.4,6,12.5,1.5,7,8.2,16.5-5.6,24.7-8.8,3.7-4.2,2.8-6.3,6.2-1.9,8.7-12.2,2.3,15.8,17.8-5.5,5.8-9.9,7.2-.5,11.1,6.3,10.2.8,12.4.6,15.4-8.5-1.3-11.3,7-.8,11.9-16.7C414.2,392.7,400.3,395,402.4,383.5Z"/>
  <path id="21" data-name="21" class="flubber-path cls-4" d="M321.4,261.4c-.3,2.7-3.4,3.1-5.7,3.5a30.1,30.1,0,0,1-6.8.9,8.7,8.7,0,0,1-6.9.5c-3.6,1.9-9.5-.8-9.1-5.1s3.5-3.5,5.2-4.8a9.6,9.6,0,0,1,7.3-2.6,4.5,4.5,0,0,0,3.7.9l4.2.9c1.3.7,3,.2,4.4.8S321.9,259,321.4,261.4Zm-27.6-24c-1.1.3-2.6,2.8-3.6,1.1s-1.5-.8-1.8-1.5c-1.9-1.9-4.5-1.7-6.5-2.8s-3.1-.5-4.6-1.6a6.2,6.2,0,0,0-3.8-.1,18.2,18.2,0,0,0-3-1.1c-4.4,0-8.5-1.4-13.2-1.6-1.7-1.3-3.5-.1-5.2-.4s-3.9,0-5.6-1.3-6.2-1.2-9,.2c-1.2.9-3.2-.8-4.7-.9s-5.3-.8-7.9-.8a17.5,17.5,0,0,0-4,.5c-1.3.6-2.4-.3-3.4-.8s-4.5-.5-6.7-.6-2.6.6-3.9.1a34,34,0,0,0-3.4-.7,9.9,9.9,0,0,0-4-1.6c-4.6-.9-10.6-1.1-13.1,3.7a5.5,5.5,0,0,0-.3,3.6c-.6,2-4.3,1.2-5.9,2.4-3.7,2.5-.4,6.5.8,9.5.6,1.4,2.6,1.4,3.2,2.7s-.7,1.4-.9,2.2.3,2.6.2,3.9-.3,1.2-.5,1.8a4.8,4.8,0,0,0-1.4,2,8.1,8.1,0,0,0,0,2.7c-.6,1.7-.5,3.4-1.1,5.1s-.4,2.7.3,3.8,2.2,3.3,4.1,3.6,3.2-1.1,4.9-.6,5.7,1.4,8.8,1.2c2.6,1.5,5.7.9,8.3.5s3.1-.8,4.7-1,3.8-.4,5.9-.3,2.4,1.6,4,1.4a14.3,14.3,0,0,1,2.9-.3c.6,0,1.2-.6,1.9-.1,2.9.1.1,1,.9,3,.9,3.9,5.7,3,8,1,.6-1,2-.3,3-1.1s1.5.9,2.4.9,3.6-.4,5.4-.3,4.8,2.9,8.1.9,4.5,1,6.6-.6,2,1.1,4.8.3,3.1-1.5,4.6-2,4.2.2,5.8-1.1a4,4,0,0,0,3.1-.7c1.5-1.4,4-1.6,4.3-4.2a5.9,5.9,0,0,0,2.8-3.7c.3-.8,1.3-1.1,1.5-2s.9-.8,1.5-1.3,1.6-.6,2.7-.7c1.4-1.7,4.5-3.6,6.6-5.4C301.8,249.3,302.6,235.3,293.8,237.4Z"/>
  <path id="18" data-name="18" class="flubber-path cls-4" d="M333.3,380.4c.9,3.9,4.2,7.8,2,12.1-1.5.9-4.8-2.2-5.6.5-3.8,2.1,2.5,6.9-1.7,11.1-1.7.8-2.3,3.8-4.9,2.1-.5.5-6.5-1.8-4.9-3.4-.4-.6-.4-1.3-1.1-1.7-3.1,1.3,3.2,7.5.1,9.6a24.8,24.8,0,0,1,4.2,3.4c1.7.8,3.1.8,4.8,2.8-1.2,1.2,1.8,1.9,1.2,3.6s1.4,0,0,.9-2.6,1.8-1.5,2.5c2,3.2-2.3,10.2-7.6,10.8-4.3-1.3-7.7,1.4-11.1,2.9-2.3-2.3-3-7.4-5.4-8.2s.9-2.4-1-1.7c-3.2-1.8-5.4,1-5.2,4.7s-2.9,4.7-1.5,7.7-2.1,1.2-3.1.1a3.4,3.4,0,0,1-3.6-2.1c-2,.9-.6-1.4-2.3-1.7-4.3,4.1-1.6-.3-5,.9-.9.2-.4-.5-1.5-.8s-1.4-.3-1.9-1.4.4-2.6-1.8-3.1-1.4-.1-1.7-.4-.6-1.6-1.7-2-1.1-1.9-2-2,.6-1.1-.2-1.4c-9.2-4.7-2.1-15-5.7-24.4-9.6-26.3-23.2-14.6-19.8-28.8-4.8-8-11.9,1.6-20.4-18.4-4-3.2-9.1-2.9-13.6-6.3-2.6-2.8-10.2.8-10-4.2-2.3-2.7-4.6-4.6-1.1-8.2-.8-4.7,1.4-8.3,2.3-12.8-8.9-4.2.8-7.9-10.5-21.6-.7-11.9-11.3-21.2-7.5-33.5,6.1-10.4-10.6-15.3-2.7-38.2,1.1-4.3-4.5-5.7-5.1-10-1.1,2-4.9-.2-3.7-2.2,7.3-9.7-4.9-21.6-7.4-31.8,1.7-15.6,9.9-30.5-1.2-45-2.7-9.9,5.8-14.1,11.1-22.4,1.2-2-1.4-6.2,2-7.1s-2-7.9,3.1-5.9c4.9-4.3-6.8-20.2,1.2-15.9.8-3.2,2.3-2.5,5-2s1.8-4.8,4.8-4.6c4.6,2.3-1.1,3.7,2.7,7.1,2.1.3.8,3.1,2.1,2.9s2-3.4,4.3-3.2,2,2.1,3.1,3.4,4.3-.5,5.4,1.8c3.4-.1,2.6-4.2,8.9-2.5,1.4,3.4,3.9,1.6,3.6-1.7-.3-1.7,1.1-1.7,2-2.3-.8-.6,1.5-2.5,1.4-1.1,1.7,3.1,2.6,1.1,3.9-1.4a3.4,3.4,0,0,1,1.5-5.1,11.1,11.1,0,0,0,1.2-3.4c.5-1,1.9-.1,1.3-2.3,1.5-3.4.9-6,3.5-8.2s4.2-12,8.5-6.1c.3.6.8-.4,1.3-.4s-.7,1.3.1.8,1.6-1.4,1.3-2,2-1.2,1.8-.8.2,1.3.8.4c.8,2.3-.5,3.7,1.4,5.7-1.1,2.4,1.2,3.7.9,6.3.3.8-1.5,2.3.6,2,.3,3.1,4.3,2,5.1,3.7s3.9.9,3.3,3.3,2.6,5.2-.7,5.7c-.3,1.5.3,3.2-2.3,3.2-1.7,1.6,2.6.2,1.7,2s.8,1.4.5,2.4,1.1,2,2.3,1c.2,2,2.9-.6,2.9-.7,2.5,1,2,4.8,2.8,6.3-1.7.5-.6,6.8-.8,8.3s1.7,1.4,1.9,3,1.2,1.1,1.9,2.6-.4,2.5,1.5,1.9c-1.7,2.9-1.5,6.4-3.6,9.7,1.6,1.2-3,3.9-.7,5.9-2.8,3.4-1.6,4.1-.5,6.6s-2.6.2-3.4.6-.5-.9-.8-.7c-6.3,1.8,1.9,5.8.3,8.1-2.4,10.2-1.3.5-6.8,1.9-1,.5,0,.1.2.8s-.6,2.9,1.4,3.8c-.5,1.1-.8,2,.1,3.1-1.7,2.8,4.7.6,1.7,6.2-.9-.2-.4,5.3,1,3.4,1.1-.3,2,.9,2.4,1.9s-1.5-.5-1.3.1c-2.2,3.7.9,7.3-3.1,8-1.3.4.6,1.9.7,2.5-.3,2.2-2.9,4.7-1.2,6.5-1.4,3.7-5.3,2.5-7.4,1.1s-2.3,2.1-3.3.8-.7.7-.9.6-2.9.1-4.3-.8c-2.5,4-.3,1.5.8,4-.5,4,1.5,7.3-.2,10.7.6.8,1.6,1.5.5,2.3,1.5,2.9-.5,3.2.9,6.5,2.9,0-1.1,2.9,1.4,5.1-.5,1.4,1.2,1.7.9,3.2,2-.6,1.1,2.5,2.5,3.3-.5,1.7.5,2,1.4,2.9v6.5c.4.5-1.4,1.2-.2,1.9s.2,1.2,1.1,1.5.6-.9,1.5,1.1.5.3,1.6,1.1.9,2.6,1.8,2.7c2.8-.3,5.8-2.6,6.4-4.9,1.5,3.2,4.8-.8,7.2-1.1.7-.9,1.6,2.2,2.2.5.6,1.2-2,2.8-1.1,4s-.9.2,0,1.9a7.8,7.8,0,0,0-1.8,2.1c-.3,2.2.7.6,2.4,1.4,3.8,0,1.3-.1,2.1,2.2,2-1,5.7.3,3.4,3.7-3,1.5.6,4.8-.4,7.2.8,1.6-.6,3,.2,4.5s1.2.3,2,1c1.1,2.6,4,3,5.6,5.5,2.4,0,3.2.6,4.9,1.7,2.3-2.8,1.4.8,2.6,2.2s6.4.1,3.9,2.6c.3,1.1,2.5,3.1,3.4,2.9-.5,2.8-2.8,5.4-1.4,8.1s2.8-.8,3.6.4c4.1,3.1,3.1-3.7,6.3-5.1.6-1.5-.2-4.8,2.8-4.8,1.4,1.7,1.1-2.6,2.1,1,2.1,1.1,2.2-1.3,3.4,2.1s1.3-.1,1.6,1.9c1.8-2.2,3.1,1.7,1.8,3.4s0,2.5-1.7,4.6.5,1,.5,1.1.8,2.2.6,3.3a5.4,5.4,0,0,0,3.7,6.1c.8.5,1.6.8.2,1.4s-1.1,4.8-2,5.1c-2.8.3-3.4,1.7-3.4,4.2-2.6.1-4.7-.9-3.9,3.2s6.5,10.9,5,16.1c4.6,3.1,4.6,1.7,6.3,7.7-1.7,4.4,2.9,2-.6,7.1-3.7,1.3.9,3.3,2,4.4.9-.6,3.2-3,2,.1s3.1,3.9,4.3,5.4c-1.5-.4-1.5.8-.4,2.3.4,4.8,5.1,4.7,5.5,9s-4.9,7.1-3.7,10.5C333.5,377,331.9,377.8,333.3,380.4Zm-94.7,7.9c.6,2.6,6.5,10.4,8,3.6C247.4,387.1,234.7,379.5,238.6,388.3Zm3.4,19.2c-2-2.8-3-6.4-4.8-9.1C229.3,396.5,238.7,416.8,242,407.5Zm-15-23.2c.9,2.3,4,.6,3.5-1.5S226.2,382.1,227,384.3Zm-11.9-25.2c-1.9-2.1-4-.1-4.8.2-1.5-2-5.9.9-6.5-2-.9-1.3-2.1-4.2-3.8-2-.5-3-5.3-.5-2.2,1.8-.8,2.8,2.8,3.3,4.6,3.9s1.4,4.3,3.6,4.9c6.5-2.9,15.7,3.1,20.7-1.1C223.9,360.8,218.3,361.4,215.1,359.1Zm-2.6,26.8c-1.3,3.2,6.3,7.7,6.8,2.9C218.5,386.3,214.6,383.4,212.5,385.9Zm-.5-4.2c-1.8.3-1.7,3.5.3,3.2S214,381.5,212,381.7ZM173.1,227.2c-.2-1.3-1.4-1.9-1.7-3.1C164.9,219.4,171.7,235.4,173.1,227.2Z"/>
  <path id="3" data-name="3" class="flubber-path cls-4" d="M298.8,454.5c.2,2.6-6.3,5.1-6.4,1.5C292.8,454,297.9,451.7,298.8,454.5ZM396.7,47.9c-.8,5.5-4.4,6.1-6.8,3.1.7,3.1-2.2,2.5-3.3,3.7-7.4-2.4,1.1-13.4-10.5-14.8-1.1,3.6-3.6,1.9-6.5,0s-4.8,4.3-7.7,2.3c-4,3-8.5,7.4-12.7,3-4.5,3.2-5.4,6.6-11.6,2-4.9-10.5-10.6,3.2-12.2-2.3-4.8,2-5.4-8.7-10.9-1.9-1.4-2.5-2.5,2.6-4.4,2.6s-3.5-2.6-3.7.6c-4,4.1-9.3,1.9-7.9,9.3,4.1,1.4-3.8,1.7,1.1,3.4,6.8-2.1,8.7-2.6,4,5.4-5.7,5.3-.4,7-8.9,8.4-1,0-1.4,2.4-2.5,1.5s0,.2,0,.3c.6,2.5-.3,1-1.5,1.6s-2.8,5.5-.8,5.1c0,1.4-1.9,0-2.5-.5-2.3-.5-2.9,4-5.5,2.9-1.6,2.2-.5,3-3,5.1-5.9,1.3,2.2,3.1-7.6,5.1-2.3-.4-1.7,5.3-2.4,8.2-4.7,1.6-4.5,7.9-6.7,11,.3,1.2,1.4,2-.3,2.8,0,1.1,2,0,1.4,1.5s1.4,1.1,0,2.2c-1.4,4.2-2.9,3.7-5.1,7.1,1.1.5-2.8,2.2-2.8,2.6-.9,2.3-1.2-.3-2.1.5s-1.6-1.9-1.9-.5-.5-1.4-.8-1.4-2.7,0-1.2.6c-2.9-.9-3.2,1.9-5.1,4.1-1.9-1.6-1.5,2.7-2.8,4.3-3.1,1.2-2.6-1.6-4.9-3.3-2.5.7.1,11.2-5,7.6-1,1.6.3,4.3-2.7,3.3-3.1,4.6-9,6-10.1-3-8,6.5-1.5-6.3-7.6-3.8-1.7-1.9-4.3-1.1-5.1-3.9-4.9,3.6-.6,14.8-7.7,15.1-2-8.9-5.5,11.3-6,.5-5.1,3.3-10.4,21.5-14.2,19.5.1-5.9-7-1.6-8.1,1.8-.9-2.3,2.4-9.2-3.4-4.9-3.8-1.7-3.7,1.4-7.2,1.8-22.4-11.5-8.4,8.1-23.8.7-11.1-4.4-6.7-14.6-11-11.6-4.8-3.9-2.6,2-5.4,1.7-3.5-4.5-3.2,3.2-6.3,3.8s.7,4.8-1.6,6.7c-.1,2.1-2.6,2.8-2.3,4.6A90.2,90.2,0,0,1,109,189c4.7,15.2-10.7,10.7-11.9,25.4-2.2,6.9-3.9,12.8-10.2,16.2-2.8-1.4-2.7,3.4-4.1,5.1-3.4,5.9-1,13.6-1.7,19.6-.3,2.8-4,3.2-3.7,6.6-.7.8-1.8,2.2,0,2.4s-1.2,1.4,1,1.8c11.7,11.8-1.6,12.8,8,15,1.4,2.3,2.8,5.6,4.9,7.1,1.7-.4,2.7,1.4,4.1,3.3,4,.4,2.4,5.8,5.8,8.6,1.9,6.7,3.1-1.4,7.8,6.5,4.3-2.6,7.7-7.1,13.9-3.4,107.3-37.5,76.3,38.2,120.6-9.6,17.2-.3,21,29.4,35.4,26.8,5.9,27.1,6.2,50.6,26.9,75.2,8.8,12.7,6.5-7.6,16.2,19.3,15.8,1.6,15,17.6,26.4,27.5,1,4.5-15.3-2.1-19.1,6.4-2.8,5.7-16.4,2.9-12.5,9.5,4.9-1.8,9.5,6.1,11.4-1.5,90.2-26.6,1.2-131.8-17.8-187.4-8.2-30.8,10.4-59.5,31.7-81.5,13-8,6.5-41.2,31.4-36.6,4.9,3.7,1.7-8.9,3.8-11.4,3.1-9.4,17.3-27.2,26.6-17.6,2.3-10.7,9.7-22.9,19.6-27.4C424.8,83.5,404.8,42.5,396.7,47.9Z"/>
  <path id="1" data-name="1" class="flubber-path cls-4" d="M314.3,208.1c-8.4-5.7-6.2-12.5-14.1-14.2-.8-.5-.1.2-.3.6,1.7,3.4-.8-1.2-2,3.1-3.6-.3-4.5-7.7-8-4.2s-2.4-1.8-3-3.4.6-1.2.3-1.8.8.4.7-.5.4.6.7.9-.6-2.1.2-2.1,0-1.3.8-1.6-.2-1.8-.7-3.1,2.4-.3,2.5-1.2,1.7-2.6,0-3.2c-.3-3.9-5.2-1.4-7.7-3.3-.9-.8-3.7-3.5-4.7-1.8s-1.8-1.7-2.6-2.3-3.2-3.8-4-2.5a9.7,9.7,0,0,1,.2-3.7c-2.8-.2-2.5-2.3-5.1-2-.7-.7-.8.9-1.3,0s-.4.3-1.4-1.1-.6-.6-1-.2-.8-2.8.4-2.3c-.3-1.5.5-1.7.6-2.9s-.3-.6.3-1.1c-1.2-.9,1.1-1.2.5-2.9,1.4-1.6.8-6.7-1.2-6.5-3.4-8.7-1.9-1-5.9-5.4-2.5-.8-.2,4.4-1.1,4.6s-1.2-1.1-2.1,0c-1.6-.6.6-2.3-2.5-2.2.9-1.8-1.7-.9-1.7-2.8-2.2-.7-.6-3-3.1-4.4.8-1,2.3-5-.2-3.4-1.7-1.7-3.4-1.3-5.8-1.9-.5-.8-.3,0-.7.3s-1.2-1.7-.6-1.8c2.5.1-.4-1.4.6-2-4.3-4.1-3.8,0-5.2-1.1-.6.6-1.2-.2-1.4,1.2s-1.2-1.2-1.1,0-.4,2.3-.9,2.6c-1.6-2.6-4.2,2.5-2.6,1.7.3,1.3-.3,1.7-.6,2.5s.7,2.9-.4,3.7.5,6.2-2,3.1c-1,2.6-1.4-.8-1.8-1.8s-1.3.1-.8-1.4c-2,1.5.5,3.1.2,4.1s-2,.3-.7,1.3,1.1,1.2,0,1.2c.7.9.8,3.1.5,4.3,1.4,2-2.6,2.8-.5,4.1.4,3.7-2.4,4.1-1.8,7.7s-1.9,1.1-2.8,2.3c1.2,1.4-.9.2-.3,1.2a4.4,4.4,0,0,1-.9,3.3c-1.6-1.7-2.3,3.4-1.6,4.2l-1.2,1c-.2.2.9-.3.5.7s1.7.1,0,1,.6.5-.4.8-.9,2.5-.4,2.8c-1.1.6.9,1.7-.8,2,0,1.8-.1,3.7.8,4.5s-1.1,2.8.1,4,1.1-.3,1.6-.6-1.6,3.1.1,1.8,1.4-.1,1.4,1.3c2.2-.5-.1,1.5.6,1.8s-.1,2.6,0,4c1.6-.4,1.1-.4,1.4,1.3s1,.1.5,1.5.8,1.3.2,2.5,1-.6,1.2.3c1.8,2.2-3.1,5.1-.6,7.7-2.3,2.7-7.3,8.5-2,10.7.1.8.6,2.1-.7,1.4-6.1-3.6.8,8.2-3,5.4-.7-1.1-2.1-2.6-3-1.9.9,1-1.2,1-1.4,1.7s.2,2.5-.7,1.9c-4.2.8-1-4.2-6.1,3.4-.1,2.3-3.1,2.1-1.7,3.7-2.3.8-1.5,3.5.6,4.8-.9-.2-1.2.4-1.7,1.2s-2.9,3-.7,3.7c.3,3.4-3.3,1.7-3.1,4.2s-3.7,2.3-2,5.1-1,2.5-.2,4.5c-.9.9,3.7,4.6.2,4.3,0,.6.1.9-.8.8a2.1,2.1,0,0,1,.6,2c-.4,1.1.6,2.8-.3,4.9.9,1.3-1.7.5-1.8.3s-.8,1.3-1.6.3c-1.2.5.5,1.4-1.8,2.1s-.2-2.1-1.6-.8c-1.8-1.1-.5,2-1.4,2.1s-1.4,3-1.7,4.2c.6,5.7,10.7,11.8,6.5,17-1.2,1.6-1.1,5.1-.8,7.7s-.9,4.8,0,7.3c.2,4.5,2,1.9,2.2,4s1.7,7.3,0,8.8-1.9.5-2.5-1.4c-2.4-.4-.4.2-1.2,1.6s-1.2,5.1-2.3,6.9,1.5,4.4,1.2,6.7.6-.2.8.4,1.1,1.4.4,1.6c-1.2,1.8-1.3,3.4-1.5,6.2s-.8,2.3.2,4.4c-.7,1.7,1.3,3.9,1.3,7,3.8-3.2,3.9,2.9,3.3,5.4,2.9.8,1.1,3.3.8,5.7-1.6-.6-2,.8-2.5,1.9s1.8,4.5,2,6.5c.3,0,.5-1.7.3-1s-.5-.4.2-.7.7-.3.3-1.1c.3.8.6-1.1.7,0s.4-.3.4-.5-.4,1,.1.8.3-1.4.5-.8,0-.9.4.2a2.9,2.9,0,0,0,.3-1.4c.4,0,.4.8.5,0,.3.9.2-.2.3-.3s.9-.9.9-1.6c.5.8.2-.1.8-.3s-.3-.9-.1-.3.3-.1.7-.1,1.3-1.4,1-1,1.5-1.8,1.8-1.7.5.5.5-.1,1.1.8,1.4.3-1-1.7-.5-1.1,2.3-2,3.3-3.2,0-1.3.3-1.1.9,2.3,1.4.9c0,.3.1-.1.4.2s.2-.8.3-1,0,1.3.5.2a4.3,4.3,0,0,1,1.8-.2c-.1,1.1,1.6-2,3.6-.7-.6-.8.5-.5,2.2-1.4s3.2-2.3,4.4-1.6c-1-2.6,3.4.8,1.7-2.4-.1-1.6.5,1.2,1.1.6s.3-.8.3-.6-.6.3.2.6-.3-1.1.3-.3.6.1,0-.2c.9.5.2-.9.8-.9s.3.3.3.3.3-.3.4-.2-.1-1.2.5,0c.3-1.5,1.7.3.8.3,1.8,1.3,4.1-1,3.8,2.4,3.1,4.3,5.9-1.9,2.7-4.4,3.8,1,6.6-6.6,10-5.8.9,2.7,5.1.4,4.5,4.3,4,4,1.4-4.5,11.3-3.9,5.4,3.1,13.9-.6,6.5-6.3-4.1-1.4,1-2.6-.2-5.6,2.5-27.3-30-1.8-21.3-29.2.3-5.7-6-.1-6.2-4.8-.6-.6-.9-4.9,0-4,4,2,3.4-4.1.8-4.5-.2-4.1,2.3,1.7,3.4-2.1-.8-3.4-4-.2-3.1-5.1,2.8-1.7,2.8-6,4.5-8.8,2.3-5.9,10.5-7.1,10.9-12.2,2.4-2.7,1.6-1.6,2.8.6s4-1.7,2-3.1c6.1-.9.2-3.9,8.2.1,2.2-1,4.3-10,0-6.6-.6.2-3.1,1.2-3.5.6-2-1.5,3.8-.8,4.6-2.1,3.5.4,4.8-4.7,7.6-6.4,3.1-3.5-.5-5.1,4.1-9.2,4.1.7,1.1-3.6,3.7-3.3,5.1-.8,4.4-6.5,8.5-9,1.4-2.7,2.4-1.7,1.1.5C308.7,237.5,309,214.8,314.3,208.1ZM205.8,363.6Zm0-.2Z"/>
</svg>
