<svg xmlns="http://www.w3.org/2000/svg" width="500" height="500" viewBox="0 0 500 500">
  <defs>
    <style>
      .cls-1 {
        fill: none;
        stroke: #999;
        stroke-width: 0.75px;
      }

      .cls-1, .cls-3 {
        stroke-linejoin: round;
      }

      .cls-2 {
        opacity: 0.5;
      }

      .cls-3 {
        fill: #5c98ff;
        stroke: #fff;
        stroke-linecap: round;
        stroke-width: 2px;
      }
    </style>
  </defs>
  <g id="hucs">
    <g>
      <path class="cls-1" d="M275.5,279.6c-.2-12.5.5-30.5-.2-42.9a36.2,36.2,0,0,0-3.3-2c-.4-1.3-1.9-3-2.2-4.3l.2-.9c2.6-1.4,4.4-4.5,3.7-7.4l.5-2.1c-.8-2.9-.5-5.8-2.4-8.3a20.7,20.7,0,0,0-1-4.3c0-1.7.1-4.9.3-6.6l-1-1.8a34.1,34.1,0,0,0-.1-6.4c.3-4.6-.1-10-2.4-14-.2-1.3-.8-4.7-1.5-5.8-.1-3.2.2-7.2-.3-10.3l.9-1.9c-.4-1.6-1.3-3.7-1.2-5.3a4.3,4.3,0,0,1-.4-2.5c7.2,0,20.6.4,27.8-.1v-8.6l1.7.5,1.1-.4a3.1,3.1,0,0,0,1.8.9c.4,4.2,2,8.7,2,13.1a12.8,12.8,0,0,0,3,1.7l1-.5,1.7.3.2.9c.6-.1,4.5.1,5.2.1l.8.9c0,.6-.1,1.7.3,2.1l4.3-1.3.6-1.1c1.8-1.3,4.1-.6,6.1-.9s3.1,1.9,4.6,1.5v1.2l-.8.4-.2,1h2.5l.8.8c-.3,1.1.7,3.1,1.2,4.1l1.2-.6a3.4,3.4,0,0,1,.2-2.2,14.6,14.6,0,0,1,2.9-.2l.7.9.3,1.5,1.3.3.4.5,2,.4.2,1.4,1,.6h.8l.2.8,1.3-.2.6.3a4.8,4.8,0,0,0,3.3-2c.7-.9,2.2-1.4,2.8-2.4l1.5-.4.4,1.4.8.4.2,1.2.5.3,1.7-.7c.9.7,3,.2,3.8,0a3,3,0,0,0,1.9-.2l1.5.2a9.3,9.3,0,0,0,3.2,2.4l1.2-.8,3.9.2a5.1,5.1,0,0,0-2.5,1.8c-1.2,1.2-4.3,2.8-5.8,3.7a24.8,24.8,0,0,0-8,4.7,4.2,4.2,0,0,0-1.8,1.7c-2.9,2.4-4.9,6.5-7.2,9.3a31.3,31.3,0,0,0-5.8,5.7c-1.8,1.6-4.8,3.3-5.2,5.9l-1.1.3c.2,3.8.8,9.8.6,13.5l-.8,1.1H332l-.3.8-1.1.3c-1.2,1.6-3.8,1.9-3.3,4.6-.1.6-1.1,1.5-1.4,1.9s-.6,2.2-.3,2.7l1.9.3a30.7,30.7,0,0,1,1.6,3.1,10.5,10.5,0,0,0-1.2,3.1l-.3.2.3,1.5-.3.5a5.7,5.7,0,0,1-.1,2.9l.7,2.8a1.9,1.9,0,0,0,.1,1.9,4.2,4.2,0,0,0-.5,2.7,8.5,8.5,0,0,0,1.9,1.4l1.3,1.9c2.2.7,4,1.1,5,3.3,1.7.4,4.3,1.2,5.2,2.8a17.6,17.6,0,0,0,1.5,3.5c1.3.6,2.9,2.3,4.1,3s2.6,1.4,2.8,2.2a2.7,2.7,0,0,1,1.1,1.7l.5.2a7.3,7.3,0,0,1,0,3.6l.5,1.3-.2,1.8.5,1.3C327,278.5,300.9,279.2,275.5,279.6Z"/>
      <path class="cls-1" d="M167.8,218.5c1.8-19,4.3-50.8,5.9-70,30,2.4,61.6,4,91.6,4.5a4.1,4.1,0,0,0,.4,2.4c-.1,1.7.9,3.8,1.2,5.3l-.8,1.9c.4,3.1,0,7.1.2,10.3.7,1.1,1.3,4.5,1.5,5.8,2.3,4,2.8,9.4,2.4,14,.1,1.7.5,4.7.1,6.4l1,1.8c-.2,2.3-.9,5.9.2,8a9.7,9.7,0,0,0,2.1,5.7c.2,1.7-.1,4,.7,5.4a9.9,9.9,0,0,0-.4,3.4C239.1,223.2,202.5,221.3,167.8,218.5Z"/>
      <path class="cls-1" d="M275.2,303h-1l-1-1.1-.5.2-.4-1.3c-1-.2-1.3-1.5-1.5-2.4l-.9-.2-.2-.6h-1l-.7-.5h-.8l-.3-.6c-1.1.2-2.8-.9-3.6-1.6v-.7l-1.8-.4-1.1.6c-.9-.5-3,0-3.8.2l-.6-.6-.6.4-1.1-.4-.4.2c-.1.7-1,1.5-1.5,1.9s-3.2-2.3-4.7-3.2a4.1,4.1,0,0,1-3.1-2.6c-27.1-.9-55.8-2-82.6-4.9,1.8-21.5,4.2-45.8,5.9-67.3,34.7,2.9,71.3,4.7,106,4.8.5,2.5-1.8,5.1-3.8,6.2l-.2.9c.3,1.3,1.9,2.9,2.2,4.2l3.3,2.1c.7,12.5,0,30.3.2,42.8h-2.3l-.2,1.1c.1.5,1,1.3,1.3,1.8s-.3,1.8-1,2.2l.2,1.1,1.3.4a7,7,0,0,1,.4,3.8l-1,.6.2.4v1.5l-.3.5c.2,1.6-1.6,3.4-1.3,5.1a16.1,16.1,0,0,1,1.9,3.1A3.6,3.6,0,0,0,275.2,303Z"/>
      <g id="_09" data-name="09" class="cls-2">
        <path class="cls-3" d="M362.3,147.9c-7.2-9.8-4.1-5.1-15.3-.2-.8-2.9-6-6.5-10.5-7.6-1.6-2.7-1.5,2.9-5.6,2-1.5-1.1-2.5-1.7-3-4.1-1.6.9-7.1,6.3-7.3,2.1s-8.4-3.2-8.6-9.3c-2,1.3-4.1.1-5.3,2.4-2.2-1.2-3.1-.3-5.6,0s-13.6-1.7-6.7,4.9c-5.6,1.4,0,8.6-6.3,8.1-3-.2-5.1-1.9-6.9-3.8s-4,4-4.6-1.6-4-5.4-6.6-8.2-3.2-1.7-5.9-.9c-3.3-5.3-12.3-6.4-11.3.9-3.4,1.3-5.5-.2-7.6,3.7,1.1.9-.6,2.4,1,2.1,2.6-2.2,5.1,4,1.2,3-1.2-4.5-4.2.2-6.4,1.4s-2-2.3-2.6.2c-2-1.4-1.7-5.7-4.8-4.5-1.6,4.1-6.8.8-4.6,7.5-3.2,1.9-5.9,2-6.3-2.4-2.9,2.8-3.4.2-4.3-2.3-7.4-2.5-5.1-10.2-9.5-15.8-1.5-.7-.9,2.7-3.1.5-2.2-.2-4.8,1.3-6.8,1.2s-2.1-4.6-4.7-2.4c-1.7-2.1-.1-4.6-3-6.4-.3-3-2.5.1-4.3-1.3a16.3,16.3,0,0,1-.9-1.9c-3.1,2.5-4.5-5.9-8.1-5.3s8.2,9.1,6.4,10.2.9,6.9-4.4,1.5c-2-3.5-12.1-4.8-7.3,1.5,2,3.2,5.4,5.1,1,8-1.7-1.2-2.3-2.6-4.6-1.1-7,5.4,2.5,8.5,7.2,11-2.6,3.4,1.6.9,2.2,3.7s2.1,7.8,6.2,8.8c1.9-3.2,9.4-3.4,10.9,1,2.6,2.8,5.3,2.9,6.6,6.6,4,3.4,5.4,9,9.3,11.5.4,2,5.5.5,6.9,4,13.4,21.1,3.9-11.6,27.5,4.1.8.2,1.4.9.8,1.7-5.8,3.7,2.7,9.1,1.6,12.5,3.2,1.9,1.2,7.2,7.1,9.3,0,3.3-2.9,9.8.8,10.9-2.2,4.5-.5,4.1,2.1,6.9-1.8,2.4,2.6.5,4.2,1.6s3.2-4.8,5.8-2.3c-2,7.7,5.6,4.5,7.7,9.9,6.8-.9,8.9-6.6,8.4-11.9-2.8-4.2,1-10.3,2.5-4.2,5.3,2.8,5.1-6.6,2-3.2,5.6-6.9,1.4-12.8,2.2-20.4,5.9-8.2-.2-9,14.3-12,2.2,2.7,5.7,5.6,8.1,6.6s4.8-6,7.1-4c3.3-4,3.1,5.4,5,3,7.5-4.8,6.4,1.8,11.2-7.4.2,2.7,2.5,1,2.7,2.3s3.2,1.5,3.4,2.9-1,2.2,1.5,2c9-5.6,9.8-14.2,19.3-20.1,1-1.3-2.4-2.7-3.4-1.6-1.5-1.6-1.2-3.2-3.3-4.8,2.9-3.9-8.5-.1-.7-3.8C361.7,153.4,370.6,154.1,362.3,147.9Z"/>
      </g>
    </g>
  </g>
</svg>
