<svg xmlns="http://www.w3.org/2000/svg" width="500" height="500" viewBox="0 0 500 500">
  <defs>
    <style>
      .cls-1 {
        fill: none;
        stroke: #999;
        stroke-width: 0.75px;
      }

      .cls-1, .cls-2 {
        stroke-linejoin: round;
      }

      .cls-2 {
        fill: #5c98ff;
        stroke: #fff;
        stroke-linecap: round;
        stroke-width: 2px;
        opacity: 0.5;
      }
    </style>
  </defs>
  <g id="hucs">
    <g>
      <path class="cls-1" d="M169.4,426.6a3.1,3.1,0,0,1-.7-1.8l-1-1,1.3-.4c0-.7.1-3.1-.3-3.5a5.2,5.2,0,0,0,1.9-3.2l-.8-.3-.7-1.6.9-.6v-1l.9.5.4-.7.7.2c0-1.7,1.7-3.2,1.2-4.9l1.1-1.1a4.2,4.2,0,0,1,.7-2.3c-.3-1.3.9-2.4,1.9-3.1l.4-.9-1.3-2.9a17.1,17.1,0,0,0,0-3.2l-.8-.6-.2-1.7c-.4-.4-1.8-1.5-2-2,1.4-1.3,1.4-2.7.8-4.4l1.3-1.5c-1.8-20.9-3.5-42.7-5.6-63.5,3.4,5,9,1.3,12.5-1.9,11.1-.9,24.5-2.9,35.4-4.1,2.8,22.3,5.2,48.2,8.1,70.8a5.1,5.1,0,0,0-1.2,2,4,4,0,0,1,1,2.2l-.4.8.3.6,1.5.8-.5.5.7,1.4-.3.6-3.2.4-3.1,2.8a2.6,2.6,0,0,1-1.7-1.2,5.6,5.6,0,0,0-3,.8c-.9,1.3.2,3.5.5,4.7a10.9,10.9,0,0,0-1.4,2.3l-1.4.5c-.6.4-.7,3-.9,3.5l-1.2,1.5-.8-.4-1,1a15,15,0,0,1-1,3.2,6.2,6.2,0,0,1-.5,3.6h-1.2l-.6.7-.8-.7a3.9,3.9,0,0,1-3.1-.9,10.2,10.2,0,0,0-1-3.4h-1.4v.7l1.1.7-1,.5-1.3-.3-.3.6.6,1v.6l-1,.3-.4,1.2.4,1.1-.3.6-1,.2v1.6l-.9.3v-1.4l-1.5.2-1.6-2-.9.2c-2.5,2.6-3.2.8-3.9,5.7h-.8l-.4-.9c-2.1-.3-3.8-2.7-6.1-2.6l-.6.5h-.8l-.9-1-.5,1,.4,1.4-.6,1.3-.9-.3v-1l-.5-.5-2.2.7-1.2-.9-.7.5a2.6,2.6,0,0,0,.4,1.9l-.3,1.1Z"/>
      <path class="cls-1" d="M451.8,233.1c-1.7-.2-2.3-2.1-2.4-3.5-2.3-1.6-4.2-3.5-4.4-6.4-3.8-12.1-10.7-33.8-14.4-46.2l.5-.2.3-.9,1.1-.3,1.2,1.9.5.2.6-.7c-.1-.6-.8-3.5-.5-4.2l2.3.3.3-.7c-3.1-2.3-1.9-3.5-.9-6.5l1.3-1a4.4,4.4,0,0,1,1.1-2,5.5,5.5,0,0,1-.5-2.6,2.8,2.8,0,0,0,1.3-3.3l-.9-.5-.5-1.4c.4-.6.2-2.6.1-3.2l-1.1-1.1.5-4c2.8-2.8.5-7.3.6-10.6s4.6-18.6,6.6-22.9l2.7-.2c.5,1.2.6,3.6,1.4,4.8a10,10,0,0,0,2.6,1c1.4-.7,2.3-2.8,4-2.9s1.8-2,3.1-2v-1.5c.6-.5,2-1.3,2.8-1s5.2,2.5,6.4,4.3c6.7,7,8.4,22.6,11.4,31.8l.9,1.1c-.6,1.2.2,2.8.9,3.7l1.3-.5,1.1,1.3,2.3.4.9-.8.9.5c.1.5.8,1.7.5,2.2l-.6.4c-.1.6,1.7,2.5,1.9,3v2.4c.4.4,2.2,2.7,2.8,2.7s.8-1.3,1-1.8,3,1.2,3.7,1.9v1.5l1.3,1.1v1.5l-1.7.5.4,1.6h1l.7-.6.6.9,1-.6.3,1.6-.9.7a12.3,12.3,0,0,1-1.4,4.2h-1.1l-.6-1.1-1.4.3a5.1,5.1,0,0,1,.4,2.4h-.6l-.8-.8-.4.8-1.1-.2.5,1.8-.5,1.2h-1.2l-.3,1.2-.7-.2-.2-1-1.4.3a2.6,2.6,0,0,0,.2,2.1l-.2,2.1-.7-.6h-1.1l.7,1.5-1.4.5-1-.5.3-.8-.5-.5-.5.5-1.1-1.1h-.5l.2,1.2-1.1-.4c.2.6-.9,2.3-1.1,2.8l-.9-.4v-.9l-.9-.2.3,1-.9,1.4v2.3l1,.5-.5.9-1.1-.3-.4.7-.6-1.2-2.1.3-.5-.7.8-.3v-1.3l.8-.5-1-.5-.7-2.2-1.1-.8.3,2.7-.4.6-1,.3-.6,1.1a4.5,4.5,0,0,1,.6,4.2,17,17,0,0,1-.4,4l.8.8v.9l-.8.9.2.6-.7.9v1.3l-.7.3-.4-.6.4-1-1.3.4-.3.7H468v-1.1h-.6v1.1l-.4.3.3,1.7-.4.8v1.2h-.5l-.4-1-1.4-.5.6,1.7-.6.7-1-.8-1.4.4v2.3l.7,1.4v1.1h-.6a7.3,7.3,0,0,1-1.2-3.2,4.6,4.6,0,0,0-2.3.5c-.4,1.2-1.8,2.1-2.4,3.1v1l-.4.7v1.4l1.5,1.5-.5,1.1-1.4.8a4.8,4.8,0,0,0,.5,3.1l-.9,2.8-1.1.2a45.9,45.9,0,0,0-.4,7.4l-.4.4Z"/>
      <path class="cls-1" d="M241,312.3l-23.6,4.1-.2-1.8c-11,1.3-24.4,3.2-35.5,4.1a4.3,4.3,0,0,0,1.4-2.1c1.8-.5,2.5-2.8,2.3-4.3s3.1-7.3,3.9-8.7,1.1-6.6.6-9.1h.8v-1.2l-.6-.5a33.3,33.3,0,0,0-6.2-19.2c.7-2.1-1.4-4-1.7-5.9a8.8,8.8,0,0,0-.8-9.9v-1.3l.8-.4a16.6,16.6,0,0,0,1.4-3.7,10.2,10.2,0,0,1,1-3.9,10.3,10.3,0,0,0,0-3.5c.5-1.4,0-3.7-.5-5.1s2.4-1.8,2.9-3l-.5-2.7.3-.7h.6a4.1,4.1,0,0,0,1.2-1.7l1,.3,1.3-.6.2-1.9a5.3,5.3,0,0,0,1.5-3.3c.5-.2.9-1.2,1.2-1.6l.5-.2v1.5l-.9.8.7,2.4-.5,1c.5,1.4-.2,3.8.1,5.4l.7.2a28.4,28.4,0,0,0,.7-5.2l.8-.4c.2,1.4.1,4.1-.8,5.4l.2.9,1.1-.5c1-2.1,1.1-5.5,1.1-7.7s-1.1-4.3-.5-6l1.7-1v-.8c1-1.2,3.2-1.5,4.6-1.4l.2-.7c-2.1-.3-3.3-2.6-3.3-4.6a13.4,13.4,0,0,1,2.2-3.1l-.7-1.3.7-.3c1.5.2,2.3.2,3-1.3,2.1.6,4.5,2.8,6.7,3l1-.3c2.7.2,2.8,2.1,4.2,3.8l2.3-.5a20.1,20.1,0,0,0,7.8,3,2.9,2.9,0,0,0,1.6,1.3c.4.4.4,1.8.4,2.3l1.8,1.9v1l.9,1.1-.4.3-2.3-.5c-1.2,3.7,3.6,6,3.7,9.6a7.1,7.1,0,0,0,0,2.9c-.2,1.9.7,5.5-.2,7.3l-.5.2-.5,1.5-.8-.3-.5.4c-.5.7-.4,4.3-.5,5.2l-1.2.6-.2,1.3a8.9,8.9,0,0,0-2.8.7c-1.1,1.6-.7,4.3-1.2,6.2s1.2,1.4,1,1.9l1.2,1.4h2l.5,1.2.9-.4a23.1,23.1,0,0,1,1.8-3.5h.8c.4-.4.7-2.5.9-3a6,6,0,0,0,1-2.5c.5-1.6,2.5-2.9,4.1-3.4a2.6,2.6,0,0,1,2.5-1.7,20.8,20.8,0,0,0,3,1.2c1.1.9,1.1,2.3,2.1,3s1.8,5.8,2.2,8.2c2.4,4.2,2.4,10.3,4.7,14.5-1.9,3.4,1,8.7-1.3,11.9l-1.4-.6.5-1.1v-.6l-1.1-.6a4.4,4.4,0,0,0-1.8,1.5l.5,1.5-.9,1.4c1.7,6.8-4.7,4.2-3.7,10.1a5.9,5.9,0,0,0,.3,3.7,9.5,9.5,0,0,0-1.1,2C242.1,307,240.8,310.1,241,312.3Z"/>
      <path class="cls-1" d="M110.7,195.5c.5,0,1.8-1.4,2.1-1.6l3.3-1.3a31.5,31.5,0,0,0,4.3-4.7,11.1,11.1,0,0,1,3.6-.4l.7-.7c2.5.6,5-1.5,5.8-3.8,1.1-.1,2.3-1,3.4-1.1l.4-2.1,1.2-.7.2-.9,1.2-.4,1.2-1.9h1.2c1.3-.9,1.6-3.4,2.7-4.4s2.6-1.9,3.8-2.4a24.5,24.5,0,0,0,3.7-.8l.9.3.2-.5,1.4.5.5,1-.2.6-3.3.8v1.4a33.7,33.7,0,0,1-3.9,3.7,4.4,4.4,0,0,0-.3,2,4.6,4.6,0,0,1-1.8,1.6c.4.5-.3,1.9-.4,2.5l-.9-.2.5,1.4c-.4.6-.2,3-.2,3.7l1.4-.8-.2-.9c.7-.2,2.6-2.4,3.1-2.8l.5.4a20.4,20.4,0,0,0-1.8,2.9l.5.3,1.1-1.9a12,12,0,0,1,3.8-.5c.5.1,2.4,1.1,2.9.8l.5.9.9-.2.3.8,1,.2.4,1.8c.6.2,1.2,1.8,1.6,2.3h.7v.9l1.1.6v.9l.5.9a10.5,10.5,0,0,0,5.5-1.4,7.3,7.3,0,0,1,1.9,2l.9.3c.5-.3,1.5-1.2,2.2-1a4.1,4.1,0,0,1,1.4,1.5c.4-.4,1.5-2.7,2.1-2.7l.4-1.1c1.6,0,3.9-3.6,5.1-4l1.1.3a3.6,3.6,0,0,1,2.2-.7l.3-.5a7.5,7.5,0,0,0,4.7-.5c3.5,1.3,5.9-3.5,9.3-2.5l1.3-.8a17.3,17.3,0,0,0-.1,7.5l.7.5.7-.2c.7.9,2.8.9,3.7.4l.5-.9,1.4.2v.8l.8.3c1-.7,2.9-2.1,4.2-1.3l1.1,2a7.3,7.3,0,0,0,.8,3.3l-.5,1.4.4.4h1.4l1.5,1.2c.1,1.4,1.7,2.3,2.8,2.6v.7l-2.1.7-1.1-.6a4.4,4.4,0,0,1-3.4.1l-.8.4c-.6-.4-2,.1-2.6.4l-.4-.9h-1.2l-.7-.3-.5.3.2.9-.6.7a6.9,6.9,0,0,0,.4,2.5l-.3.5-1.7-.5-.2-1-1.4-.3a7.9,7.9,0,0,0-1.4-1.7,10,10,0,0,0-3.3-.6c-.9-.2-2.8-.8-3.7-.6l-.7.4-1-.3c-1,1.1-1.5,3-2.8,3.6a5.4,5.4,0,0,0-3.3.5l-.4.7c-2-.9-5-.6-6.2,1.4s-.2,2.9-.5,3.3a5.9,5.9,0,0,0-2.3,1.4l-.2.7-.7.4-.2.8-.5.4.2.7-.6.5-1.2-.8-.2-.9.8-.4.3-1.7.9-.5a4.6,4.6,0,0,1,.6-2.2l-.3-.9-.9.2-.5,1.5-2.3-.4c.4,1-.3,3-.8,3.8l-2,.9c0-1.6-.7-3.9.2-5.6l-.5-.2c-.7.9-.9,2.4-1.6,3.4a4,4,0,0,1,.2,2.2c-2.3,1.5-3,7-4,9.4s-2.7,4.7-3.3,7.2l.2.7c-.9-.1-2.1-1.4-2.8-2s.7-3.2.9-4.6l-.5-.8c-.4.5-2,.9-2.7,1.1l-.6-.8,1-3.2a5.8,5.8,0,0,1,0-3.2l-.6-1.1.4-.8c-.5-1.5-2.5-1.7-3.6-2.4l-.9.2-1-.4-.5-1.1.6-1a4.7,4.7,0,0,0-1.5-1.9l-2.7-.2c-.8-.6-2.5-.5-3.4-1.1a3.9,3.9,0,0,0-2,.8,5.4,5.4,0,0,0-3.3-.8c-5.8-4.3-14.8-3.7-21.4-6.6a9,9,0,0,0-1.6-4.2l-1.7-.3-.4-.8-.6.3Z"/>
      <path class="cls-1" d="M12.2,280.3c-.3-14.5.6-35.4-.3-49.8A31.1,31.1,0,0,0,8.1,228c-.4-1.5-2.2-3.4-2.6-4.9l.3-1.1c3-1.6,5.1-5.2,4.3-8.6l.5-2.5c-.9-3.3-.5-6.7-2.8-9.6a16.5,16.5,0,0,0-1.1-5,66.2,66.2,0,0,1,.4-7.7l-1.2-2.1c.4-2,0-5.5-.1-7.4.4-5.4-.1-11.6-2.8-16.4-.3-1.5-.9-5.4-1.8-6.7-.1-3.7.2-8.4-.3-12L2,141.8c-.6-1.9-1.6-4.3-1.4-6.2a4.1,4.1,0,0,1-.6-2.8c8.5,0,24,.4,32.4-.1V122.6l2.1.6,1.2-.5a3.5,3.5,0,0,0,2.1,1c.5,5,2.3,10.2,2.3,15.3a10.4,10.4,0,0,0,3.6,1.9l1.1-.5,1.9.4.3,1c.7-.1,5.2.2,6.1.2l.9,1c0,.6-.1,1.9.4,2.4l4.9-1.5.7-1.3c2.1-1.5,4.8-.6,7.1-1a7.5,7.5,0,0,0,5.4,1.8v1.4l-.9.3-.3,1.2h3l.9,1c-.4,1.3.7,3.6,1.4,4.7l1.4-.6c-.1-.6-.3-2,.2-2.6s3-.5,3.4-.2l.8,1,.3,1.8,1.5.3.5.6,2.3.5.3,1.5,1.1.8h.9l.3.9,1.5-.3.8.4a5.5,5.5,0,0,0,3.8-2.3c.8-1,2.6-1.6,3.2-2.8l1.8-.5.5,1.7.9.5.2,1.4.5.2,2.1-.7c1,.7,3.4.2,4.4,0a3.2,3.2,0,0,0,2.2-.3l1.8.3a11.3,11.3,0,0,0,3.7,2.8l1.4-.9H123a5.7,5.7,0,0,0-2.8,2.2c-1.4,1.4-5.1,3.2-6.8,4.3a25.8,25.8,0,0,0-9.3,5.5,4.1,4.1,0,0,0-2.2,1.9c-3.3,2.8-5.7,7.5-8.4,10.8-1.9,1.6-5.3,4.6-6.7,6.7s-5.5,3.8-6,6.9l-1.3.3c.2,4.4.9,11.4.6,15.7l-.9,1.3H78l-.4.9-1.3.4c-1.4,1.9-4.3,2.1-3.8,5.3a7.6,7.6,0,0,1-1.7,2.2c-.1.6-.6,2.5-.2,3.2l2.1.4a20.1,20.1,0,0,1,1.9,3.5,11.3,11.3,0,0,0-1.4,3.6l-.3.3.3,1.7-.3.6a6.6,6.6,0,0,1-.2,3.4l.8,3.2a2.7,2.7,0,0,0,.1,2.3,5.2,5.2,0,0,0-.5,3,7.2,7.2,0,0,0,2.2,1.7l1.5,2.3c2.6.8,4.6,1.3,5.9,3.8,1.9.4,4.9,1.4,6,3.2a16.2,16.2,0,0,0,1.7,4.1c1.6.8,3.4,2.7,4.8,3.6s3,1.5,3.3,2.5,1.3,1.3,1.3,1.9l.5.3c.5,1.1.2,2.9,0,4.2l.6,1.5-.3,2.1.7,1.5C72.1,279,41.7,279.9,12.2,280.3Z"/>
      <path class="cls-1" d="M425,250.1c-3-2.8-2.3-4.2-1.6-7.7l-.4-.6c.4-1-.5-3.6-.9-4.6.1-2.8-.9-6.5-1-9.3.2-.8.9-2.4.5-3.3a16.1,16.1,0,0,0,1-3.6c-.5-1.6.8-3.9.1-5.6s.8-3.3-.1-4.5c0-2.8-1.3-4.5,2.3-5.4,1.8-3.5,3.2-3.5,2.9-7.9l-2.1-3.6c.3-1.7.9-5-.3-6.4a3.5,3.5,0,0,0,.4-2.5,23.3,23.3,0,0,0,.4-3.7l-.8-1.1a3.1,3.1,0,0,0,1.5-1.7l.8-.4.8.6h.6l1.5-1.6c3.7,12.4,10.6,34,14.4,46.1,0,2.9,2.1,4.9,4.4,6.4.1,1.4.7,3.3,2.4,3.6v1l.8,1c-.5.6-.7,3.6-.8,4.3l-.9-.2c-.4.1-2.3.6-2.4,1.1v1.3l-1.8.6-.2.5.4,1.3a3.1,3.1,0,0,0-1.6,1.6C439.4,247.4,430.6,248.8,425,250.1Z"/>
      <path class="cls-1" d="M303,289c1.8-2.1,4.7-4.1,5.6-6.8,2.7-2.1,4.7-3.6,5.1-7.4a6.3,6.3,0,0,0,2.3-1.6c.4-1.7-1.4-3.6-1.8-5.1a2.6,2.6,0,0,1-1.8-.7v-1.5l-1-1.4.5-1.2-.5-3.4a41.5,41.5,0,0,1,21-5.3l2.5,1.5h1.4l.3.5c1.4-3.3,5.9-2.7,8.7-3.3l.6.6.8-1.4,1.3-.2,1.3-1.4h.7a9.7,9.7,0,0,1,1.6-3.6l1.1-.4a3,3,0,0,1,.6-2,12.7,12.7,0,0,0,2.8-.3c1.3-2.6,0-6.6-2.1-8.5v-.6l.5-.7,1,.3a4.4,4.4,0,0,0,.4-2.5l-1.2-.5.8-1.2a2.5,2.5,0,0,1-1.4-.8l-.5.9.5.4v.9l-.9.3-.9-2.1-1-.5v-.8c1.8-2.4,5-4.5,6.1-7.4a5.7,5.7,0,0,0,1.7-4.3l-.3-.4c.8-2.4,5.1-8.8,6.3-11.2s3.4-3,4-4.1l2.9-1.8c7-.5,16.6-3.9,23.7-5.6a5,5,0,0,1,.4,3.8,4.4,4.4,0,0,0,1,2.2c0,5,4,9.3,3.8,14.3-.7.7-.7,3.7-.7,4.7s1.2,3,2,4.2a6.5,6.5,0,0,0,1.3,3.1c.1,1.6-.5,3.8.2,5.3l.5.3.7-1.7.7.3c3.5,6.5,3.6,15.3,5.9,22.4.8,5.4,0,12.4.3,17.7,2.3,6.1,1.5,17.6,5.6,22.8-.3.6-2.8,3.2-3.2,3.7l1.4,2.1a6,6,0,0,1-1.8,4.7l.5,1.4-1.8-.5a10.5,10.5,0,0,1-.7-4c-4.9-1.9-11.9-4.2-16.6-6.3l-1-1.6-1.6.4c-.7-.5-2.1-.6-2.9-1.3s-2.5-3.8-2.3-6.1l-1.3-.7-.2-.9-.9-.8a3.4,3.4,0,0,1-2.2-.5,6,6,0,0,0-2.1-2.8c-24.8,5.6-51.2,10.7-76.2,15Z"/>
      <path class="cls-1" d="M412.3,306.3l-.3,2.3-.9.4a12.1,12.1,0,0,1,.7-3.3Z"/>
      <path class="cls-1" d="M408.2,316.1l-.4-.5c.8-1.1.5-3,1.2-4.2l.5-.2-.2.3,1.1-.7.9,1.1C410.6,313.1,409.5,315.8,408.2,316.1Z"/>
      <path class="cls-1" d="M297,333.9a5.3,5.3,0,0,0-2.4,1.1v.8a21.9,21.9,0,0,1,1.6,3c-.4.7.4,3.5.5,4.1a25.6,25.6,0,0,0-1.1,10.3l-.7.4.3,1c-.4.9,0,2.2-.5,3.1l.5,1.4c-.4.4-.4,1.9-.5,2.4s-2.8,3.5-3.5,4.7a11.5,11.5,0,0,1-4.2,4,3.4,3.4,0,0,0-1.7-1.1c-1.3.5-2,2.6-2,3.8h-1.4l-.5.4v1.1l-.5.4c-.4,1,.3,2.7-.2,3.6l-.9.2v.8l1,.7a4.6,4.6,0,0,0,.4,2.1h-1.4l-.3,1.3-1.1.5v-1.9c-.2-.8-1.9-1.3-2.4-1.6a5.5,5.5,0,0,0-1.5,5l-1.2,1.3a38.1,38.1,0,0,1,1.2,5.1l-1.6,1-.2,3.3c-.9.5-3.3,1.8-4.4,1.7a9.2,9.2,0,0,0-2.9-3.3,13.6,13.6,0,0,1-2.8-1.1,10.3,10.3,0,0,0-1.4-3.5h-.6l-3.1,2.4-.5,1.3a3.3,3.3,0,0,0-2.8.9c-.9-1.1-3.4-1.7-4.6-2l-1.7.7-.7,1.4a5.8,5.8,0,0,1-3.3-1.4,4.5,4.5,0,0,0-2.7-1.8,8.6,8.6,0,0,1-5-.3,7.4,7.4,0,0,0-4.2-6.1l-.2-.7-.9-.3a7.3,7.3,0,0,1-2.6,1.4,6.4,6.4,0,0,1-2.4-1.1l-1.3.6c-2.7-22.1-5.2-47.2-7.8-69,7.2-1.1,16.5-2.8,23.6-4.1v2.8c.6-1,2-1,2.8-1.8a5.3,5.3,0,0,0,3.8,1.8c1,.4,2.4,1.8,3.6,2.1l1.5-.5V315h.8l.5,1.1h1l-.4,1-3.2,1-.5,1,.8.7.5-.4.8.3.5-1.2a6.2,6.2,0,0,0,2.6-.9l.8,1c1.9.8,2.9,1.7,4.7-.2a16.5,16.5,0,0,0,5.3-3c3.3.4,6.8-.5,8.4-3.7,1.1-1.1,3-3.1,3.3-4.8l2.9-1.4a8.8,8.8,0,0,1,1.8-2c2.9-.7,5.5-3.5,8.3-4.4,1.1,6.3,2.8,15.7,3.8,22.1h.1C295.5,324.3,296.6,330.7,297,333.9Z"/>
      <path class="cls-1" d="M303,289l1.4,6.7c25-4.3,51.4-9.4,76.1-15,.8.5,2.1,1.8,2.2,2.8a4,4,0,0,0,2.2.5l.9.8.2.9,1.3.7c-.3,2.3,1,4.4,2.3,6.1s2.1.7,2.9,1.3l1.5-.4,1.1,1.6c-1.6,1.8-1.8,4.6-2.2,6.7a7.7,7.7,0,0,0-1.2,2.6l-1.5,1.8a4.1,4.1,0,0,0,1.5,2.5l.2.8c-.4.4-.4,1.5-.4,2.1l-.9.7c0,.5-.1,2.3.4,2.5a5.7,5.7,0,0,0,.2,2.3l.7.4.9-.2,1,.3.8,2.8.3.4,1.6.3c.7,1.4,2.5,2.4,3.5,3.6h.7l1.4,2c-1.2.5-1.8,1.8-2.8,2.4s-1.8,3-2.8,4.1l-.2,2.1c-1,1.2-3.4,1.5-4.2,3.1-.4-.5-1.8-.6-2.3-.7a4.5,4.5,0,0,0-3.5,4.1c-27.8,6.1-57.3,11.4-85.3,16.4-2.2-12.1-4-25-6.2-37.1h-.1c-1-6.4-2.7-15.8-3.8-22.1,2.4-1.4,5.3-3.4,6.2-6.1h.8l.3.8C298.9,292.3,301.7,289.9,303,289Z"/>
      <path class="cls-1" d="M395.6,194.4c8.8-1.9,21.4-6,30.2-7.7l-.5.9c1.1,1.5.6,4.7.2,6.4l2.2,3.6c.1,4.4-1.1,4.4-2.9,7.9-3.6.9-2.3,2.8-2.3,5.4s.5,3.2.1,4.5-.6,3.8-.1,5.6-.7,2.7-1,3.6a5.6,5.6,0,0,1-.6,3.3c.2,2.8,1.2,6.5,1.1,9.3.3,1,1.1,3.5.9,4.6l.3.6c-.6,3.5-1.4,5,1.7,7.7-2.9.6-10.8,2.5-13.8,3-2.3-7.1-2.4-15.9-5.8-22.4l-.8-.2-.6,1.6-.6-.2c-.7-1.6-.2-3.7-.2-5.4a12.6,12.6,0,0,1-1.3-3.1c-.7-1.1-1.1-3.1-2-4.2s0-3.9.7-4.7c.2-5-3.8-9.3-3.8-14.3a4.5,4.5,0,0,1-1-2.1A3.8,3.8,0,0,0,395.6,194.4Z"/>
      <path class="cls-1" d="M162.7,300.7c-16,1.4-33.4,2.7-49.6,3.5-.6-4.5-4.8-3.9-7.6-6.3-.4-3.1-2.6-6.8-2.6-9.8.6-1,2.1-3.6,1.6-4.7l-1.6-1.7a3.5,3.5,0,0,0-1.4-2.4,4.2,4.2,0,0,0-.7-2.7l.2-2-.6-1.6a8.5,8.5,0,0,0,0-4.2l-.5-.2a3.3,3.3,0,0,0-1.3-1.9c-.2-1.2-2.4-2.2-3.3-2.6s-3.1-2.9-4.7-3.6-1.6-3-1.8-4-4.1-2.8-6-3.2c-1.3-2.6-3.3-3.1-5.9-3.9l-1.5-2.2a11.8,11.8,0,0,1-2.2-1.7,6.5,6.5,0,0,1,.5-3.1,4.4,4.4,0,0,1-.1-2.3l-.7-3.1a10.3,10.3,0,0,0,.1-3.5l.4-.5-.4-1.8.4-.2a7.6,7.6,0,0,1,1.4-3.6,24.7,24.7,0,0,0-1.9-3.6l-2.2-.4c-.4-.6.1-2.5.2-3.1a8.7,8.7,0,0,0,1.7-2.2c-.5-3.2,2.4-3.5,3.8-5.4l1.3-.4.4-.8h1.3l.8-1.3c.3-4.4-.3-11.4-.6-15.7l1.3-.4a4.6,4.6,0,0,1,.9-2v1.4h.4l.6-1.4c2.3,2.7,5.5,1.7,7.8-.4a8.3,8.3,0,0,0,6-3h1.2c1.7-.8,3.5-2.7,5.3-3.1l1.4,1.3-.2,1.9-.8,1a10.8,10.8,0,0,0-.2,3.1l-1.2,1.9,1,.5,1-1.3a3.1,3.1,0,0,0,1.8-1.1l2.3,1.6c.6.3,2.6.8,2.9,1.5l.6-.3.4.8,1.7.2a9.4,9.4,0,0,1,1.6,4.2c6.5,3.1,15.6,2.4,21.5,6.7a7.5,7.5,0,0,1,3.3.7,3.4,3.4,0,0,1,1.9-.7c.9.6,2.5.3,3.4,1.1h2.7a4,4,0,0,1,1.5,1.9l-.6,1.1.5,1.1,1,.4.9-.3c1,.8,3.1.9,3.6,2.5l-.4.7.6,1.2a6.9,6.9,0,0,0,0,3.2l-1,3.1.7.8c.6-.1,2.3-.5,2.6-1l.6.8c-.2,1.4-1.1,3-.9,4.5s1.7,2,2.8,2.1l-.2,2.4a28.2,28.2,0,0,0-2.9,1.8,5.6,5.6,0,0,1-1.7,3.8v1l-.8,1.3c0,.7.1,1.9-.4,2.3v1l-.5,1.1.9.5,1-.2.4-1.8a3.4,3.4,0,0,1,2.2-1.2l1.7-5.3a5.3,5.3,0,0,0,3.4-1.7l.8,1.2.3-.9c-1.4-2.8,2.2-5.3,1.4-8.1h1.5l.5-1-.2-1.2.8-.5v-.8l1.7.2v1a4.9,4.9,0,0,0-.9,3.9l-1,1.1c-.1,1.5-1.4,3-1,4.6-2.2,2.1-1.8,5.8-3.1,8.2s-.8,7.6-.5,11a5.2,5.2,0,0,1-1.9,2,4.4,4.4,0,0,0-.1,2l-.5,1,.2,1.4c-1.4,2.8,1.7,6.4-.2,9.2.1,2.5-1,6-1.7,8.2a22.3,22.3,0,0,0,.2,4.5,8.2,8.2,0,0,1,.6,3.8c1.5,1.6.5,4.6,2.4,5.8S161.6,298.3,162.7,300.7Z"/>
      <path id="_04" data-name="04" class="cls-2" d="M340.7,210.3c3.9-1.7-.5,6.7,4.5,5.2,7.3-4,10.8-4.2,17.7-5.9,5.1-28.4,33.3-15,31-41.2,5.2-7.2,2.2,20.6,10.7,17.5,8.9,6,3.5-7,10.3-7.5,8.7-3.8,4.4-16.1,9.2-22.6-.7-3.7,3.1-4.4-3.2-5-1.9.8,0-4.5-4.7-2.9,2.6-19.2,9.1,6.5,20.2-3.4,16.8,27.1-20.7,33.6-15.7,62.1-2.4,9.8-2.6,5.8-10,10.9-.1,6.5,12.9,16,1.6,20.7-25.2,4.7-1.7-22.1-17.4-18.4-9.7-3.5-6.1,14.8-14.4,21.5-.8,4.8-12.4-2.9-7.9,2.9,4.2,9.8-1.1,16.9-6.9,15-6.6,11,4.1,5.5-3.2,14.7-2.1,2.3-3.8,2.8-5.7-.6.2,16.1-5.2-6.3-8.2,2.6-6.5,2.8,1.2-3.4-2.4-4.9-5.9,1-4.5,3.3-9,8.4,7.2,2.8,5.7,19.1-1.4,8-11.1-8.4-4.6-10.6-15.9-3.7-7.1-10.6-26.1,23.6-28.8,26,2.4,9.2-9.2,3.2-6.1,11.4,3.2,10.4-8.9-1.7-9.6,2.6-4.4-.2-7.4,6.6-12.6,5-7.5.9,2.4,8.4-7.6,5.9-3.1,5-5.5,7.4-11.6,5.2-6.3-3.9-5.8,8.6-12.9,8.7,0-4.4-1.8-3.6-5.2-4.6-16.5-1.3-3.6-20.4-24.3-18-15.9-21.8-16.3,7.7-28,0-5.8-13.6-12.4-47.8-27-59.1-32.1,27.1-1.1-38.8-11.5-44,5.1-5.4,1.4-11.5,3.3-16.6-1.2-6.8-7,.6-9.4-2.4-8.1-2.3-10.8-2.5-19.3,1.1-14.2-1-10.2-11.5-16.1-4.1-6.2-2.5-18.8,5.6-15.1-6.7-8.1-5.9-10.9-4-9.9-15.2,2.9-13.1,12.8-6.2,13.9-13.6,3.2-4.4,3-.2,6.5.2,8.5,14.7,15.5-12.7,27.1-18-18.9-14-9.2-8.6,2.7-14.6-7.9-6.7-16-13.7-11.6-25-7.3-.1,5.1-2.7-3.5-12.9,8.3.6,7.2-14.3,13-18.9,8.4-6.3,32.3-.7,25.4,10.1-1,3.8,7.5,5.5,9.6,3.2,2.1.9-2.2,3.3,1.2,3.1,7.6,3,.7,7,1.7,10.9,5,1.5,5.1-7.9,8.9-8.7,4.3,2.6,11,17.3,14.8,13.7,16.8-2.3-1.1,7.4,14.9,12.5,7.7,3.7,2.2,6.5,3.7,13s3.7-11.5,8.7-5.7c-1.3,2.2-1.4,5.9,1.4,3.1s3.8,1.3,6.7,1.6c-.3.2-.8,11.6,2.5,5.7.7,3.3,0,10.8,4.7,6.5-.3,8.7-1.5,9.1,9.9,10,4,.2.9,9.5,6.3,2.1,7.8-2.8,14-3.9,18.5,3.6.5-11.7,15.4-5.5,19.5-.1,2.1-.9.6-4.8,3.8-4.6,3.3-3.7,2.7,1.3,1.4,3,3.1,2.5,4.3,3,3.4,6s5.7-4.7,5.9,0c-2.9,4.4,5.8,19,10.2,18.9.5,2.9-5.3,7.4,1.8,4.6-1,13.3,10.3.5,6.6,8.3,7.2,6.4,12.4,16.4,20.8,11.5C333.5,208.2,337.7,215.1,340.7,210.3Z"/>
    </g>
  </g>
</svg>
