<svg xmlns="http://www.w3.org/2000/svg" width="500" height="500" viewBox="0 0 500 500">
  <defs>
    <style>
      .cls-1 {
        fill: none;
        stroke: #999;
        stroke-width: 0.75px;
      }

      .cls-1, .cls-3 {
        stroke-linejoin: round;
      }

      .cls-2 {
        opacity: 0.5;
      }

      .cls-3 {
        fill: #5c98ff;
        stroke: #fff;
        stroke-linecap: round;
        stroke-width: 2px;
      }
    </style>
  </defs>
  <g id="hucs">
    <g>
      <path class="cls-1" d="M244.4,159.5c-6.9,27.5-18.6,70.6-25.1,98.3,30.7,51.2,63.9,106.9,95.2,158a22.6,22.6,0,0,0-.1,4.5l1.3,1.6-1,1.1,2.4,3.9c0,2.2.5,5.9.3,8.1,1.8,1.9,5,5,4.5,7.9l-1.4.3a10.5,10.5,0,0,1-6,3.3c-.6.7-2,2.4-2,3.6-3.4.6-3.6,5.7-3.4,8.5-.6.6-.8,2.4-.8,3.2l-1.6,2.5-1.4.3v1a10,10,0,0,1-3.5,2.6v1.6l-.8,1.4,1,1.8c-.5,1.1-1.8,4.6-1.5,5.9l.8,1.1,2.9,1,1.1,1.7-.6,4a14.6,14.6,0,0,0-2.6,3.4l-1.1.5c-16.3-2.1-47.7-4.8-64-6.9l.6-2.6,1-.9V479l-1.3-1.7-1.1.6-.7-.3a4,4,0,0,1,1.1-2.7l-.8-1.1v-1l.8-.6c1.8-5-.3-10.6-1.7-15.2-.3-.7-2.9-4.1-2.7-4.9a17.8,17.8,0,0,1-2.8-3.2c-.6-1.6-1.4-4.6-3.3-5.1-1.3-2.2-3.1-5.9-5.6-6.9l-1.6.2-.7,1.3c-.6,0-2.2-1.3-2.7-1.6l-.3-1.5.9-1.6c.2-1.6-.8-3.8-.8-5.4a9.5,9.5,0,0,0-7.5-2.6c-1.6-.9-4.8-2.4-5.4-4.3l-1.9-.3c-1.2-1-1.6-5.1-2-6.6s-3.2-3.5-3.8-4.9-3.4-2.4-5.5-1.8-3-1.6-4-1.4l-2.4-1.8c-3.5-2.4-12.1-.6-12.3-6.4l-2.4-1.6.2-1.6a4.5,4.5,0,0,0,1.4-5,5.6,5.6,0,0,1,1.6-2.4l-.6-2.7c.6-2.2,2.9-4.8,2.2-7.4l-1.4-1.1-.8.3c-.8-1.6-2.9-3.2-2.1-5.2l1-1,.9.5-.3-4.5-2.7-1-2.3-6.1c-1.4-1.4-3.2-3.8-2.1-5.9l-.6-.6c-.6-2.3-2.7-4.3-2.1-6.9a3.6,3.6,0,0,0-1.1-2.4l-1-4.5a7.1,7.1,0,0,0-3-3.8l-1.3-2.8c.5-1.7,1.3-5.4.3-7l.7-.5-.2-1.4,1.5-1.6,1.2.8,1.2-.7a28.2,28.2,0,0,0,2.7-7,8.8,8.8,0,0,0-2.4-4.3l-.5.5-1-.7H156c-1.6-.8-3.5-3.5-3.5-5.4s-1.4-2.8-1.4-3.9a3.3,3.3,0,0,1-.5-2.5,16.3,16.3,0,0,0,1.6-4.7,5.2,5.2,0,0,1-.3-3.5l-.8-.6a8.3,8.3,0,0,1,.5-3.2l.8-.4.9-5.1a10.9,10.9,0,0,1,3.2.3V284l-1.2.4c.2.9.2,2.7-.4,3.3a7.1,7.1,0,0,1,2.8,3.1,9.7,9.7,0,0,1,2.8,3.5l1.6.8.6-1a5.6,5.6,0,0,1-2.2-2.4,13.5,13.5,0,0,0-2.4-9.3l.9-3.5-1.6-1.6v-1.1l1.4-1.8,1.8.5.6-.6,1.8-.5-1.5-1.6.3-1-1.2-.3-1.6-1.8-1,1.2-1.1.3-1.3,3,1,1.1-1.2,1.2v1.2l-.8,1v1.6l-1.1-.3c-.3-.6-.9-1.8-1.6-2.1l-.6-1.4-.8-.2c-.5-.6-1.9-2.1-1.8-2.9a11.5,11.5,0,0,0-2.7-2.7l-.6,1-1.2-.4c.5-1.6,2.6-3.3,2.4-5.1l1.6.2a6.3,6.3,0,0,0-1.4-5h-.8c.2-8-2.2-5.2-4-10.4-.2-1.6-.2-4.4-1.6-5.3s-1.9-3.6-1.6-5.2-1.8-3-1.9-4l2-3.3c-.6-3.9-.8-8.7.5-12.5a18.7,18.7,0,0,0,3.4-7.1c-.2-1.1-.3-3.8.3-4.9l-.6-1.9-1-.7c.7-2.7-2.2-6.5-1.4-9.3-1.5-1.9-2.9-5.1-4.2-7.3s.8-1.8,1.1-2.3a3.7,3.7,0,0,0-.3-2.9c2.2-6.4,8.8-11.2,12.2-16.9l-.2-4.2,1.1-1.8,1.2.4a7.4,7.4,0,0,1,1.7-4.2c.8-1.6,1.9-5,1.6-6.7l.7-1a5.2,5.2,0,0,1-.2-3.5c0-1.3-.3-3.7-1.3-4.8s2.3-5.1,2.7-6.1C183.9,143.1,215.8,151.6,244.4,159.5Z"/>
      <path class="cls-1" d="M341.4,353.8c-2.2,7.2-3.3,25-8.3,30.9a4.2,4.2,0,0,1-4-.9v-2.4a6.1,6.1,0,0,0-3.7-1.5c-1.6-1.4-4.1-.9-6-.1l-.8,1.4a6.9,6.9,0,0,1-.2,3.5,7.7,7.7,0,0,1-.3,5.6c-1,3.4-.2,7.9-1.5,11.3,1.3,2.7,1.2,8.6-.6,11.2l-1.1.3-.5,2.9c-31.4-51-64.5-106.8-95.3-158.1,6.6-27.7,18.1-70.7,25.2-98.3,40.1,10.6,87.7,20.8,128.5,29.3C363.1,242.7,351.5,299.9,341.4,353.8Z"/>
      <path class="cls-1" d="M340,44.7c.5,1.1,2.4,5.9,2.4,7l1.1-.8.7,1.5,1.4.6c.7.5.7,2.4.5,3,2.1,3.1-1.6,5-2.4,7.6-3.5,3.6-4.8,10.1-9.1,13.1V78c-1.1,2.7-2.9,6.5-6.2,6.9-1,1.4-3.7,6.7-5.3,7.5a9.2,9.2,0,0,1-1.4,3.2,11.7,11.7,0,0,1-.2,3.7l.8.9h1.4l.7,1.6,1.1-.5,1.4,2.3v1.8c-5.5,5.6-16,61-18.3,69.6-50.7-11.4-103.1-25.8-153-40.5v-1c-2.1-2.4-1.4-5.9-1.7-8.6a4.2,4.2,0,0,0,.4-2.7,7.5,7.5,0,0,0,1-3.4,15.9,15.9,0,0,1,2.2-3.5l.2-3.2a5.8,5.8,0,0,1-.3-2.9l-.8-1.1a5.1,5.1,0,0,0-.3-3.2c3.5-3.4,7.2-9.3,8.3-14,3.3-2.4,5.8-7,8-10.4a139.1,139.1,0,0,1,8.2-19.7c.1-.9.8-3,1.6-3.6l.4-2.8c.4-.9,2.3-4.6,2-5.6s1.1-2,1.1-2.8,3.5-6.8,3.8-9c.3-.7,2.4-3.5,2.1-4.3s1.6-3.6,1.4-4.8l1.5-1.6-.2-2.4.7-.5,1.1,1.3c.9-2.3-1-4.7,1.1-6.8a15.9,15.9,0,0,1,.3-4.8A9.1,9.1,0,0,0,199,8.2c2.8-1.3,3.2-5.6,2-8.2l1.5.2a8.8,8.8,0,0,0,1.9,3.2l.5-.7-.5-1.1,1.9.2.3,1.4,1.2.3a4.7,4.7,0,0,0,2.5-1.3l1.6.5L211.6,4l.6,1.8c1.5.9,3.7-.2,5.3.4l3.2,4.4c.3,2.7,1.3,6.1,0,8.8.5,2.2-2.1,4.8-.6,7s5.7,2.7,7.3,5A36,36,0,0,0,238.5,29c4.2,1.4,11.7,1.3,12.8,6.7.6.2,2.1-.6,2.6-1l2.8,1c.9-.2,6.3-1.6,6.9-1.6l2.8,2.6c1.4-.2,5.7,0,6.8-1.2,2.9-.1,6.8-.8,9.6-.3l2.6-1.4a2.7,2.7,0,0,1,1.8,1.1c1.7-.3,5.1-.2,6.7.8s4.3-1.6,5-1.3l19.5,4.3.2.5C324.5,40.5,334.2,43.1,340,44.7Z"/>
      <g id="_18" data-name="18" class="cls-2">
        <path class="cls-3" d="M308.8,419.4c-.5-4.4-5.3-4.3-5.8-9.2-1.1-1.6-1.1-2.9.5-2.4-1.3-1.6-4.3-3.3-4.5-5.7,1.3-3.2-1.1-.8-2.1-.1-1.1-1.1-5.9-3.2-2.1-4.5,3.7-5.3-1.1-2.9.7-7.4-1.8-6.2-1.8-4.8-6.6-8,1.6-5.4-4.5-11.5-5.1-16.6s1.3-3.2,4-3.4c0-2.5.6-4,3.5-4.3,1-.3.7-4.5,2.1-5.3s.6-.9-.2-1.4a5.6,5.6,0,0,1-3.8-6.4c.2-1.2-1.4-2-.6-3.4s-1.5-.5-.5-1.1c1.7-2.3.1-3.5,1.7-4.8s0-5.8-1.9-3.5c-.3-2.1-1.1,0-1.6-2s-1.4-1.1-3.5-2.2c-1.1-3.7-.8.8-2.3-1-3,0-2.2,3.4-2.8,5-3.4,1.4-2.3,8.5-6.6,5.3-.8-1.3-3,1.4-3.7-.5s1-5.4,1.5-8.3c-1,.1-3.2-1.9-3.6-3.1,2.6-2.5-2.5-1.2-4-2.7s-.3-5.1-2.7-2.2c-1.8-1.1-2.6-1.8-5.1-1.8-1.6-2.6-4.7-3-5.8-5.8-.8-.6-2.4.8-2.1-.9s.7-3.1-.1-4.7c.9-2.5-2.7-5.9.3-7.5,2.4-3.5-1.4-4.8-3.5-3.8-.8-2.4,1.7-2.3-2.1-2.3-1.8-.8-2.9.8-2.6-1.4a7.3,7.3,0,0,1,2-2.2c-1-1.8.4-1,0-2s1.7-2.9,1.1-4.1c-.7,1.7-1.6-1.5-2.3-.5-2.5.3-5.9,4.5-7.5,1.1-.6,2.4-3.7,4.8-6.6,5.1-.9-.1-.6-2.1-1.9-2.9s-1.7.8-1.6-1.1-.5.5-1.6-1.1-.3-1.1-1.1-1.6.6-1.4.2-1.9v-6.7c-1-1-2-1.3-1.5-3.1-1.4-.8-.5-4-2.5-3.3.3-1.6-1.5-2-1-3.4-2.6-2.2,1.6-5.3-1.4-5.3-1.5-3.4.6-3.7-1-6.7,1.1-.8.2-1.6-.5-2.4,1.8-3.5-.3-6.9.2-11.1-1.1-2.5-3.4,0-.8-4.1a4.8,4.8,0,0,0,4.5.8c.1.1.6-.7.9-.7,1,1.5,2.4-.8,3.4-.8,2.2,1.5,6.2,2.8,7.7-1.1-1.8-1.9.9-4.5,1.2-6.7-.1-.7-2-2.3-.8-2.6,4.2-.8,1-4.5,3.3-8.3-.2-.6.9,0,1.4-.2s-1.4-2.2-2.6-1.9c-1.4,1.9-1.9-3.7-.9-3.5,3-5.8-3.6-3.5-1.8-6.4-1-1.1-.6-2.1-.2-3.2-2-1-1.4-2.6-1.4-4s-1.3-.3-.2-.8c5.7-1.5,4.5,8.6,7.1-1.9,1.6-2.4-6.9-6.6-.3-8.5a.6.6,0,0,1,.8.8c.8-.5,3.3,1.1,3.5-.7s-2.4-3.3.5-6.8c-2.4-2.1,2.4-4.8.8-6.1,2.1-3.4,1.9-7.1,3.7-10.1-2,.6-1-1.1-1.6-1.9s-1.6-.7-2-2.8-2.4-.8-1.9-3-.9-8.2.8-8.6c-.8-1.6-.3-5.5-2.9-6.6,0,.1-2.8,2.9-3,.8-1.3.9-2.4.8-2.4-1.1s-1.5-1.6-.5-2.4-3.5-.5-1.8-2.1c2.8,0,2.1-1.8,2.4-3.4,3.4-.5-.9-3.5.7-5.9s-2.9-1.3-3.4-3.4-4.9-.6-5.3-3.8c-2.2.3-.3-1.3-.6-2.1.3-2.7-2.1-4-1-6.6-1.9-2-.6-3.5-1.4-5.9-.6,1-1.6.7-.8-.3s-1.8,1-1.9.8-.5,2.6-1.3,2.1.2-.7-.2-.8-.9.9-1.2.3c-4.5-6.1-6.8,4-8.8,6.4s-2.1,5-3.7,8.5c.6,2.2-.8,1.3-1.3,2.4a17.3,17.3,0,0,1-1.3,3.5,3.6,3.6,0,0,0-1.6,5.3c-1.3,2.6-2.2,4.6-4,1.4.2-1.4-2.2.5-1.4,1.2-1,.6-2.4.6-2.1,2.4s-2.3,5.2-3.7,1.7c-6.6-1.7-5.8,2.4-9.3,2.6-1.1-2.4-4.8.8-5.6-1.9s-1.3-2.8-3.2-3.6-2.4,2.8-4.5,3.4,0-2.7-2.1-3c-4-3.6,2-5-2.8-7.4-3.1-.2-1.6,3.8-5,4.8s-4.3-1.3-5.1,2.1c-8.4-4.5,3.8,12-1.3,16.5-5.3-2.1-.2,4.3-3.2,6.1s-.8,5.2-2.1,7.3c-5.4,8.7-14.2,13-11.5,23.2,11.5,15.1,3,30.5,1.3,46.6,2.5,10.6,15.2,22.9,7.6,33-1.2,2.1,2.8,4.3,3.9,2.3.6,4.4,6.4,5.9,5.3,10.4-8.2,23.7,9.1,28.8,2.7,39.5-3.8,12.8,7,22.4,7.8,34.8,11.7,14.2,1.6,18,10.9,22.4-.9,4.6-3.2,8.3-2.4,13.3-3.7,3.6-1.3,5.6,1.1,8.4-.1,5.2,7.7,1.5,10.5,4.4,4.6,3.5,9.9,3.2,14,6.5,8.8,20.7,16.2,10.8,21.2,19.1-3.5,14.7,10.5,2.5,20.5,29.8,3.7,9.7-3.7,20.5,5.9,25.3.8.3.6.8.2,1.4s.9,2.6,2,2.1.5,2.9,1.8,2.1,1,1.1,1.8.4.8,2.3,1.9,3.2,1.7.9,1.9,1.5.6,1,1.6.8c3.5-1.3.6,3.4,5.1-1,1.8.4.3,2.8,2.4,1.8a3.5,3.5,0,0,0,3.7,2.2c1.1,1.2,4.5,2.8,3.2-.1s1.8-5,1.6-8,2.1-6.8,5.5-4.8c1.9-.8-.5,1.1.9,1.7s3.2,6.1,5.6,8.5c3.5-1.6,7.1-4.3,11.6-3,5.4-.7,9.9-7.9,7.8-11.2-1.1-.7,1.6-1.3,1.6-2.6s-.3.3,0-1-2.6-2.4-1.3-3.6c-1.7-2.1-3.2-2.1-4.9-2.9a22.6,22.6,0,0,0-4.4-3.5c3.2-2.3-3.3-8.7-.1-10,.8.3.8,1.1,1.1,1.8-1.6,1.6,4.6,4,5.1,3.5,2.7,1.8,3.4-1.4,5.1-2.2,4.4-4.4-2.2-9.3,1.8-11.6.8-2.7,4.2.5,5.8-.4,2.2-4.5-1.2-8.5-2.1-12.5s.1-3.6.6-6.3C303.6,426.8,307.8,423,308.8,419.4Z"/>
        <path class="cls-3" d="M214.5,448.4c.8-4.9-12.4-12.8-8.4-3.7C206.8,447.5,212.9,455.5,214.5,448.4Z"/>
        <path class="cls-3" d="M209.7,464.6c-2.1-2.9-3.1-6.6-5-9.5C196.5,453.2,206.3,474.2,209.7,464.6Z"/>
        <path class="cls-3" d="M197.8,439c-.8-2.9-4.5-.7-3.7,1.6S198.3,441.2,197.8,439Z"/>
        <path class="cls-3" d="M193.8,420.4c-2.9-4.2-8.6-3.5-12-5.9s-4.2-.2-5,.1c-1.6-2-6.1,1-6.7-2-1-1.3-2.2-4.4-4-2.1-.5-3.1-5.4-.5-2.2,1.9-.8,2.9,2.8,3.4,4.8,4s1.4,4.5,3.7,5.1C179.1,418.5,188.7,424.7,193.8,420.4Z"/>
        <path class="cls-3" d="M186.1,445.2c-.8-2.5-4.8-5.6-7-3S185.6,450.2,186.1,445.2Z"/>
        <path class="cls-3" d="M178.9,441.2c1.9-.3,1.8-3.5-.3-3.3S176.8,441.5,178.9,441.2Z"/>
        <path class="cls-3" d="M138.2,277.7c-.1-1.2-1.4-1.9-1.7-3.2C129.8,269.7,136.8,286.2,138.2,277.7Z"/>
      </g>
    </g>
  </g>
</svg>
