<svg xmlns="http://www.w3.org/2000/svg" width="500" height="500" viewBox="0 0 500 500">
  <defs>
    <style>
      .cls-1 {
        fill: none;
        stroke: #999;
        stroke-width: 0.75px;
      }

      .cls-1, .cls-3 {
        stroke-linejoin: round;
      }

      .cls-2 {
        opacity: 0.5;
      }

      .cls-3 {
        fill: #5c98ff;
        stroke: #fff;
        stroke-linecap: round;
        stroke-width: 2px;
      }
    </style>
  </defs>
  <g id="hucs">
    <g>
      <g>
        <path class="cls-1" d="M233.9,215.6c-5,.4-8.7-2.6-8-8l-7-11.6-3.3.3-5.7,5.7-8.7-.4c1,1.7,2.7,5,2.4,7.4,2,2.6,7.6,10,8.3,13.3,1.3.7,6.3,1,7.7,1.3l-2.4-4,2.4-.3,1.3,4,3.3-.3c1.3,1.6,4.3,5,6.3,6s7.7.3,9.7-1.4C237.2,224.6,233.9,219.3,233.9,215.6Z"/>
        <path class="cls-1" d="M417.8,369.9c-3.7-2.3-9.3-8-10.3-12.3l-4.7-1.7-2-9-7.7-9c-9.3-5-31.9-17.3-39.9-24l-2.4,1c-2,4.7,2.7,13.7,4.7,17.7l-4.7,8c-2.6,1.6-6.3,6.3-7.6,9.3a211,211,0,0,1,12,27c.3,3.3,0,19.7,2.6,22s13.7,10,16.3,9,4-7.3,4.7-9.7l12.7-9.3,15.3-2.7c3-2.3,13.3-8.6,13.7-13Z"/>
        <path class="cls-1" d="M333.5,271.9c-1.3-2.6-8.3-7.3-11-9a53.1,53.1,0,0,0-10.7,1.4c-2.6-2.4-5-7.4-8-9.3h-4.3l-2,4.9c.4,5,6,10.4,10,12.4l3.7-.4c1.3,3.4,3.3,10,3.6,13.4,1,1.3,6.4,2,7.7,2.3,2.7-1.7,9-2,12-2s6.3-4.7,6.3-7.3S335.2,273.3,333.5,271.9Z"/>
        <path class="cls-1" d="M282.9,242l-2.4-2c-3.6,1-14.6-2.7-18-4.4V239c-1,1-1.6,3.3-2,4.6,6.7,1,20.4,4,26,7.4l6.4-2.7,2-3.3C294.2,244.3,284.2,242.3,282.9,242Z"/>
        <path class="cls-1" d="M282.9,259.6l-6.4.3c2,2.7,5.4,8.4,5.4,11.7l4,1.3,3.3-1.6,2-4C289.5,265.3,285.5,260.6,282.9,259.6Z"/>
        <path class="cls-1" d="M135.3,146.7l-13.4-2.4-8.3,4.7-3.3,6.3c1.6,5.4,8.6,6.7,11,11.4,2.3.3,7,2,8.6,4,5-2.7,7.4-5.4,7.4-11.4C139.9,155,137.9,150,135.3,146.7Z"/>
        <path class="cls-1" d="M88.6,158.3,85.3,161c-.7,1.7-1.4,4.7-.7,6.7l2,.6a15.7,15.7,0,0,1,2.7-5.3l4.3-1.3a9.6,9.6,0,0,1,1.7-6.7l-3-1.3Z"/>
      </g>
      <g id="_20" data-name="20" class="cls-2">
        <path class="cls-3" d="M425.7,366.5c-1-4-5.6-4-8-6s-1.3-3-3-3.6c-.6-2.7-1.3-5.7-3.3-7.7s-4.7-.3-4.7-2,.4-6-2-8a31.6,31.6,0,0,0-8.3-8c-2.3-2.6-6-4-9.3-5.6s-5.7-3.4-8.7-4.4-5.7-2-8.7-2-2.6-2.6-4.6-3c-16.3-17-26.7,0-14.3,15.7-1.7,2.3-4,5.3-5,8.3-3,0-4.4,3.3-6.4,5.3s-3.6,6.7-3,9.7,1.4,5.3,3.4,7,2,.7,2.3,2c1,3.7,1,8,3.7,11,.6,3.7,3,6.7,2.3,10.7s-1,8.3-1.3,12.6a18.2,18.2,0,0,0,4.6,9.3c2.7,1.7,6,1.7,8,4.4,1.4.6,3.7.6,3.7,2.6,4.6,9.4,15-7.3,15-12.3,1-2,3-2.3,5-3.3s1.6-3,3.6-3,3-1.7,4-2.7c3.4-5.3,5,.4,12-3.3,4.7-2.7,9.7-5,13.7-8.3C419.4,376.9,426.7,373.5,425.7,366.5Z"/>
        <path class="cls-3" d="M322.4,289.6c2-1.4,3.7,0,6,0s3-2,5-1.7c6-1,11.7-9,8.4-15-1.4-3-4.7-3-6.7-5s-2.3-3-4.3-3.7-2.7-3.6-4.4-5c-9-6.6-14.6,4.4-16.3-2.9-.3-3.4-3.7-5.4-6-7-5.3-2.4-9.7,2.3-11,7s1.7,13.9,7.3,16.9c1.7,1,3.4,3,5.7,2,1,3.7,0,2.7-2.3,4.4s-3-.4-4.7.6-6.3,2.4-8.3,5c-4,4,1.6,10.4,6.6,8.7,3.4,0,7.4,1.3,9-2.3s-1.6-7,3-2C312.8,291.9,318.1,291.2,322.4,289.6Z"/>
        <path class="cls-3" d="M269.5,247.9c1,.4,2.3,1.4,3.6.4,1,1.6,2.7,1.3,4,2,3,1.3,6,4,10,3.6s6.3-2,8.7-4.3,4-1.7,4-4c.6-4.3-2.7-7.3-6.7-8s-5.6.3-8-1c-6.6-7.3-5,.7-13-3-3-.3-4.6-3-7.6-2.7-5-2-4.7,3-6.4,5.4C249.5,245.9,261.1,248.6,269.5,247.9Z"/>
        <path class="cls-3" d="M288.8,272.2c5.3-5.3,1-12-3.7-16.3-4.3-2.3-11-4.3-15-.3-4.3,7.3,4,8.3,2.4,11.3,0,3.7,1.6,9,6.3,8.3,1.7,0,3.3,1,4.7,0S287.5,274.2,288.8,272.2Z"/>
        <path class="cls-3" d="M240.1,223.9c0-1.6-.6-3.6-2.3-4.3a8.5,8.5,0,0,0-1-4c-.3-2.3,1.3-5.7-2-7-1.3-1-3,1-4-.3s0-2-.7-3-2-3.4-3.3-5.4-.3-3.3-1.3-5a42.8,42.8,0,0,0-4-5.3c-6.4-3.7-10.3,4-14.3,7-4,0-13-2.7-12.7,4,.7,3,3.7,3,2.3,6.7.4,2.6,3,4.3,2.7,6.6s2,2.4,2.7,3.7c.3,3.3,1,7.7,5.3,8,2.3-.3,4.7-.3,7-.7a10.8,10.8,0,0,0,5.6,1.7c1.7,1,2.4,3.3,4.7,4a7,7,0,0,0,5-1,3.6,3.6,0,0,0,3,1.3C236.1,230.9,240.5,227.9,240.1,223.9Z"/>
        <path class="cls-3" d="M144.5,149.6c-1-3.3-2.3-7.6-6-8.6a7.1,7.1,0,0,0-5.6-2,7.8,7.8,0,0,0-5,0c-1.7-1.4-3.4-1.4-5.4-.7-3.3,2.3-7.3,3-11,4.7-1.6,1-2,3.3-3,4.6s-3,3-3.6,5.4c-1.4,5.3,3.3,9,7.6,10.6,1.7,1.7,2.7,5,5.4,5.7s4,1.7,6,1.7,4.3,3,6.6,1.3,8-4,9.7-8C139.8,159,145.2,155.3,144.5,149.6Z"/>
        <path class="cls-3" d="M98.2,155c-2-7.4-9-11-11.7-1.7-8.3,1.3-15.3,14.7-5.3,18.7,4.7,1.6,4.3-5.4,7.7-6s7.3-2.4,6.3-6C96.5,158.3,98.2,157,98.2,155Z"/>
      </g>
    </g>
  </g>
</svg>
