<svg xmlns="http://www.w3.org/2000/svg" width="500" height="500" viewBox="0 0 500 500">
  <defs>
    <style>
      .cls-1 {
        fill: none;
        stroke: #999;
        stroke-miterlimit: 10;
        stroke-width: 0.75px;
      }

      .cls-2 {
        opacity: 0.5;
      }

      .cls-3 {
        fill: #5c98ff;
        stroke: #fff;
        stroke-linecap: round;
        stroke-linejoin: round;
        stroke-width: 2px;
      }
    </style>
  </defs>
  <g id="hucs">
    <g>
      <g>
        <path class="cls-1" d="M435.6,352.7c-.7-.5-.7-1.4-1.1-2a8.3,8.3,0,0,1-1.2-1.6c0-1.1-1.1-2-.8-3.1a4.4,4.4,0,0,0,.2-1.6h0c0-.2-.2-.9-.2-1.1l-1.2-1.6-.9.5c-.2-.2-.8-.2-1.3-.2l-.7-1.4c-1.1.2-1.8-.6-2.4-1.3-2.3.2-4.3-.9-6.1-2.3a3,3,0,0,1-1.5.5,5.5,5.5,0,0,0-1.1-2v-.7a9.6,9.6,0,0,1-1.8-.7c0-.6-.2-1.7-.2-2.4l-2.3-.2.2-1.8-12-14.3.4-.7a20.6,20.6,0,0,1-4-3.3c-1.1-.5-2.9-.9-3.8-2v-.7l-.6-.2v-.9l-.9-1.1h-.5a4.4,4.4,0,0,1-1.3-1.4l-1.8-.2-.7-.9v-.7l-.7-.4c0-.2.3-.5.3-.7s-.3-.9-.3-1.1h-.6c-.2-.2-.7-.7-.7-.9l-1.8-1.1a24,24,0,0,1-2.4,2.2,4.6,4.6,0,0,0-2.3,1.4l.9.4s0,.5.2.5l-.2.8-.4.3h-.7l.7,2.4-.2.2v.3l-.3,1.3-1.5.5c-.9,1.3-2.5,2.4-3.2,4l-.4.2c0-6.3-8.3-7.6-10.3-12.5a7.2,7.2,0,0,1-3.6-2c0-.2.3-3.6,0-3.6l-3.5.7a9,9,0,0,1-1.4,2.2,22.6,22.6,0,0,1-3.3-1.3l-.2,1.1a15,15,0,0,0-3.2-.7c-7.6-38.8-15.4-79.7-23-118.6a5.9,5.9,0,0,0-2-.2h0c-2.9-1.3-6-2.7-8.9-3.8a1.9,1.9,0,0,0-2-.2l-1.1-.2-1.2.4a.7.7,0,0,0-.6.2c0,.3-.2.3-.2.5s-.9.4-1.6.7-1.1.4-1.3.9-1.2-.5-1.6,0h-.2c-1.2-1.2-3.6-1.2-5.2-2.3s-1.8-.4-2.4-.2h-1.4l-.9-.7-.6-.2h0a1.6,1.6,0,0,0-.9.2c0-.4-.5-.6-.9-.6s-1.1-.7-1.6-.3a1.8,1.8,0,0,0-.9-.4c0-.9-1.3-1.1-1.8-.5v.3c-.4-.5-2-.7-1.7.4l.2.2-.9-.2c-1.6-.9-4-1.8-5.8-1.3a.9.9,0,0,0-1.1.2c-.5-.5-1.6-.2-1.6.4h-1.3a1.9,1.9,0,0,0-1.6.5c-.5.2-1.1,0-1.6.4a3.9,3.9,0,0,1-1.5-.2v-.2a1,1,0,0,0,.2-.7,1.3,1.3,0,0,0-.7-.4,24.6,24.6,0,0,1-2.2-2.5c0-.9-1.4-.9-1.8-1.3a13.8,13.8,0,0,0-2.5-.5l-.4-.2h-.2a3.9,3.9,0,0,0-2.3.5,4.5,4.5,0,0,0-2,0c-2.6-.7-4.4-3.4-7.1-3.8a4,4,0,0,0-2.2-.7c-.5-.9-1.8-1.1-2.7-1.6s-1.4-.6-1.6,0c-3.1,1.4-6,8.3-9.8,4.3a11,11,0,0,0-5.6.9c-3.6,2.9-6,5.5-10.7,4-6.3,1.8-5.8,8.2-8.7,12.3a5.7,5.7,0,0,1-5.4,2,6.6,6.6,0,0,1-2,0c-2,1.1-7.6-2.9-6.9.6,0,.5-.2.7,0,1.2l-.2.4c.2.9-.5,1.1-.5,2h0c-1.3,0-4.5,1.6-1.8,1.8a5.1,5.1,0,0,1,3.1,2,3.3,3.3,0,0,0,2.5,2.2l.2-.2c2.3,1.1,3.8,4,5.6,5.4s2.9,3.6,3.4,6c-.3,0-.5.2-.7.5.9,2.4,4.7,2,6.2,3.8-1.3,1.1-3.1,2-4.4,3.1-6.7-2.3-14.3,1.5-20.1,4.7-1.6,1.3-4,.9-5.6,2.4a2,2,0,0,0,.7,2.5c.2.2.4.4.6.4a3.7,3.7,0,0,0,.9.9c.9,1.6,2.9,1.8,4.5,2.7a2.4,2.4,0,0,0,.4,3.8v.2c.5.7,1.6,1.4,1.6,2s-.4,1.4-.4,2,.9,1.6,1.5,2.3a.4.4,0,0,0-.4.4c-.2,1.4,1.8,1.6,1.5,0,4.3,2.7,8.3,2.5,13,2,1.1.5,2.4.7,2.7,2s2,1.6,2.9,2.1a2.5,2.5,0,0,0,1.5-1.2c.3-.9.3-1.5,1.2-1.8l3.5,3c.5.4,1.1.8,1.4.2s1.3,1.5,2,2.2c-.5,2.5,2.2,4.7.4,6.9-.2.3-.6.3-.6.7v.2c-.5.2-.7.7-.9.9s-1.4-.2-1.8,0-1.1,0-1.6,0-.2-.7-.4-.9l-1.6-.6c0-.3,0-.3-.2-.5s-.2-.7-.5-.7-.4-.2-.9-.2-1.7.2-2,1.1.7,1.6,1.4,1.6h.2c.2,0,.4-.2.7,0s-1.4,2-1.8,2.7-1.4.4-1.4,1.1a3.7,3.7,0,0,0-.9.9h-.9c-.6-.5-1.1-1.4-2-1.8a2.2,2.2,0,0,0-1.5-1.3c-1.8-1.4-4.3-.3-5.2,1.5v.2h0c-.4,0-.9.3-.9.5v.4s-.2.3,0,.5h0v.4c0,.3-.2.5-.2.7l-.2.2c-.4,0-.9.7-.4.9s0,.5.2.5h-.2l-.3.2c-1.1-.7-1.5.7-.9,1.3h-.4c-.5.2-.5.7-.5,1.1s-.4.5-.2.7a1.8,1.8,0,0,0-.4.9,7.6,7.6,0,0,0-1.8,2.2.6.6,0,0,0-.5.5.4.4,0,0,0-.4.4c-.9-.6-1.8.9-1.1,1.6a3,3,0,0,0-.2,1.3c-.9.5-.7,1.6-1.2,2.3a3.8,3.8,0,0,0,1.2,4.2,2.5,2.5,0,0,0,1.1,2.2c0,.3.2.5.2.7s1.1,2.9,2.7,2.9.4-.2.6-.4h0c-.2.4-.6.9-.2,1.3s0,.5.2.5.3.4.5.4v.7a.7.7,0,0,0,0,.9v.4a.8.8,0,0,0-.2.5c-.3,0-.5,0-.5.2h0c-.2,0-.4.2-.7.4s-1.5,1.1-.6,1.8.4.7.6.7.3.4.7.2c.5,1.4,1.6,2.9,2.9,3.1a5.5,5.5,0,0,0,.9,1.4,10.7,10.7,0,0,1,.7,1.5,3.1,3.1,0,0,0,.7.9h0l-.7.5a5.9,5.9,0,0,0,2,3.6c0,.4.4.8.7,1.1s.4.2.6,0l.5.4h.2c.9-.2.2-1.5-.4-1.3a4.6,4.6,0,0,1-.7-.7v-.2c1.6.9,3.6.7,5.3.4s.7.7,1.2.5h.2a.8.8,0,0,0,.9-.9c.2-.2.7-.2.7-.7s.6.2.8,0l.7.2c-.2.9.9,1.4,1.6,1.2h0c.2.2.2.6.4.8s0,.5.2.5a2,2,0,0,0,.5.9h0l.9,1.8a.7.7,0,0,0-.2.6l-.3.3c-.4,0-.6.6-.6,1.1s-.5,2.9.2,4.2v-.2a4.2,4.2,0,0,1,.7,1.8,5,5,0,0,0,.2,1.8c-.2.2-.5.4-.2.6a.5.5,0,0,0-.5.5c-.2,0-.4-.2-.7,0s-1.1.2-1.5.4a.9.9,0,0,0,.7,1.2,1,1,0,0,0,.8.4l.3.2h.6s.3,0,.3.2.2,1.2.9,1.2,1.1,0,1.1-.5.6-.2.6-.4,1.2-.3,1.6-.7l.5.4a1.4,1.4,0,0,0,.6,1.8l.5-.2c1.8.5,2.4-3.1,2.7-4.2l1.7-.3v.3c-.2.9,1.2,2,1.6.9s.2.4.4.6,1.8.5,2.1-.2.6.2,1.1.5,2,4,2.7,5.1.6,1.6,1.1.9a1.2,1.2,0,0,0,1.8-.5c.4,0,.4-.4.4-.6l2.5-.9h.4l.7.9c-1.6,6.9-2.9,14-4.9,20.7a29.5,29.5,0,0,1-4.5,3.4l-2.2,1.1c-.5.4-.7.9-1.2,1.3a2.6,2.6,0,0,0-1.5,1.4c-.2.2-.7.4-.9.9s-.5,1.1-.5,1.5,0,1.2-.6,1.6a13.9,13.9,0,0,0-4-.4,8.3,8.3,0,0,1-2.1.6,6.5,6.5,0,0,1-2.2.5,5.7,5.7,0,0,0-1.1,1.1h-.2v.2h-.3c-.4,0-.6.2-.6.7s-1.6,1.8-2.3,2.4-.8.9-1.3,1.4-2.2,1.8-3.1,2.7a8.6,8.6,0,0,1-5.2,1.3c-.6-.2-.9.4-1.3.7s-.7-.3-.9,0-.4.6-.9.6a1.4,1.4,0,0,0-1.5-.4l-.5.2v.2c-.4,0-.4.9-.4,1.2s-.5,1.3-.9,2a.8.8,0,0,0-.7.2h0c-1.1.4-1.3,1.3-1.1,2.4s.9,2.5,2,2.5a2.3,2.3,0,0,0,1.6-.2l.2.2h.2c1.6-1.6,2.5-2.9,5.1-2,.5.2,1.4,1.1,1.6,0s.4,0,.4-.2,1.6,0,2.3.2.9,0,1.1-.5-.7-1.5-1.1-2.2h0v-.4h.2v-.3h0c.2,0,.2-.2.2-.4h.7c.2.2.2.4.4.7s.7-.3.7-.5h0c.2,0,.5,0,.5-.2h0c.2,0,.2-.2.4-.2a.5.5,0,0,0,.5.4c-.5.5-.3,1.4.4,1.4l.2.2c-.9.2-.4,1.5.2,1.8a1.1,1.1,0,0,0,0,1.1c-.6,1.1,1.4,1.8,1.2.4h.2a.7.7,0,0,0,.2-.6h.5c.6.9,1.5,0,.8-.7l.3-.2h0l.2.2h.2a1.3,1.3,0,0,0,.7.4h.2c.2,0,.5-.2.5-.4l.4-.2c.9.6,1.3-.7.7-1.1h0a.9.9,0,0,0-.5-.9h0c.3-.3.5-.5.3-.9h.6c0,.2.5.2.7.2h.4v-.2c.7.2.9-1.2.3-1.4h0a.2.2,0,0,0,.2-.2c.9.4,1.1-.7.9-1.3h0a.6.6,0,0,0,.6-.3c1.6.9.9-2.4-.2-.9a.7.7,0,0,0-.4-.2c.2-.2.6-.2.6-.4l1.6-.9h.5c-.3.2-.3.4-.3.4h0a1.1,1.1,0,0,0-.2,1.1.8.8,0,0,0,.2.7c-.2.5-.2.9.3,1.1s0,1.6.9,1.4.4-.3.4-.5h.2l.2.2h.5c-.2,1.4,1.8,1.2,1.1,0v-.2c.2,0,.2-.2.2-.4a.7.7,0,0,0,.3-.7c.4.5.8-.4.8-.9a.6.6,0,0,0,0-.9h0l.3.2a1.3,1.3,0,0,0,.2.9.8.8,0,0,0,.2.7c0,.2-.2.5-.2.7s-.5.2-.5.4a.7.7,0,0,0-.2,1.1c0,.3,0,.7.2.7l-.2.2v.5a1.8,1.8,0,0,0,.5,2.4,1,1,0,0,0,.9-1.1h0c.4.2.9,0,.9-.4s.4.4.6.4.7-.4.5-.9a.7.7,0,0,0,.2-.6.7.7,0,0,1,.2.4c.2.2.7,0,.9.2h0c.5.5,0,1.4.7,1.6h.2c.2.9,1.1,2,1.8.7s.2-1.6-.7-2.1h0l.2-.2a.9.9,0,0,0-.8-1.3h0c0-.2-.3-.2-.5-.2s-.2-1.2,0-1.8l.2-.2c.3-.7-.4-1.6-1.1-.9a2.8,2.8,0,0,1-.7,1.1c-.2,0-.4,0-.4.2s-.4-2-1.3-1.8-.3-.7-.5-.9a.6.6,0,0,1-.4-.2h0V367l.2-.5a.2.2,0,0,0,.2-.2c0-.2.5-.4.5-.7h2c.6.5,1.3-.2.9-.9a.4.4,0,0,0,.4-.4l8.5.7c4-5.2,8.3-10.3,12.3-15.7l-.2-2.9c.2,0,.2-.2.2-.4v-.5a1.5,1.5,0,0,0,.4-1.8,2.9,2.9,0,0,0,.5-1.3.4.4,0,0,0,.4-.4c.9,0,1.4-.9,1.6-1.6s1.1.2,1.3-.2v-1.1h.2l.9-.5.7.2c.2,0,.7-.4.5-.6h.2a7,7,0,0,1,.6-.9v-.7c1.4.2,1.2-1.8,1.4-2.5h.2a.6.6,0,0,0,1.1,0,6.5,6.5,0,0,0,2-.2l.5-.4c.4,0,.7-.5.7-.7s.6-.4.6-.9.5-.4.2-.7a4.4,4.4,0,0,1,.5-1.5c.4,0,.7-.7.7-.9s-.3-.7-.3-.9a1.1,1.1,0,0,0,.5-.9,1.5,1.5,0,0,0,.9.2.6.6,0,0,0,.6-.6c.9,0,1.2-.7.7-1.4s.9-.4.9-.9h.5a.9.9,0,0,0,.2-1.3c.4-.2.4-1.1,0-1.4l.9-1.3a37.9,37.9,0,0,0,21-6.9c.2-1.1.9-3.6,1.8-4.3s4.4-.6,6.4-.6,1.1,1.3,1.8,1.8a3.7,3.7,0,0,0,4-2.1,2.9,2.9,0,0,1,.5-2.4c2.2-1.4,5.1-3.6,7.8-4s3.3,1.8,4.9,2,3.4.2,3.8,1.5a9.5,9.5,0,0,1-1.1,2.5v.7l.7.6h.9l.6-.4a10.5,10.5,0,0,1,1.4-2.5c10.2-2.2,9.3-2.9,19.8.9v.2c.5.3,1.2,0,1.6.3a10.4,10.4,0,0,0,2.5,0c4.9,2.9,10.2,5.1,15.4,7.6.6.4,1.5,1.1,1.5,2s2,1.5,2.7,2.7.7.2,1.1.4,1.6,1.1,2.5,1.6.9.9,1.3.6a.7.7,0,0,0,.2-.4,3.2,3.2,0,0,0,1.2,1.1c.2.2.4.9.9.9s1.1.4,1.3,0l.2-.2.2.4c-.2.2-.6.5-.6.9a3,3,0,0,0,.2,1.4h.2c0,.2,0,.4.2.4s.7,1.3,1.6,1.3c4.5,8.1,10.1,15.7,17.4,21,.5.7,1.6,1.4,1.8,2.3-2,2.2,1.3,2.9,2.9,3.3a12.8,12.8,0,0,0,.5-2.7h0a.8.8,0,0,0,.2.5c-.2.7.9,1.3,1.1.4h.2a.8.8,0,0,0,.2.7.8.8,0,0,0,.5,1.3s0,.3.2.3v2c-.4.6.2,1.5.9,1.1s.2.4.2.7.3,1.1.9,1.5a.9.9,0,0,0,.9.7,7.8,7.8,0,0,1-.4,2.2c0,1.8,1.5,3.6,2.2,5.4,6.5-2,13.4-3.6,20.1-5.6a.7.7,0,0,1-.2-.4l-.2-.3v-.2C435.6,358.7,434.9,355.1,435.6,352.7Z"/>
        <path class="cls-1" d="M318.8,311.6c-.2-.2-.2-.9-.7-.9s-1.8-1.1-1.1.2v.7c-1.1,1.3.7,2.7,1.6,1.1S319,311.8,318.8,311.6Z"/>
        <path class="cls-1" d="M279.5,319.4c0,.2,0,.7.2.7s.9,1.1,1.1.4a1,1,0,0,0,.7-.2c.4.4,1.1.7,1.3,0s.3-1.3-.2-1.6-.7-.4-.9-.2-.9-.2-.9.2h0c-.2-.4-.6-.2-1.1,0s-.2.5,0,.7S279.5,319.4,279.5,319.4Z"/>
        <path class="cls-1" d="M285.3,328.8a1.4,1.4,0,0,0-.5-.9c.9-.7-.4-2-.9-.9a5,5,0,0,1-.8-.7c-.3-.4-.7-.4-1.2-.4h0c1.2,0,.7-1.6-.2-1.6s-.7-2.2-1.3-1.5c0-1.2-1.4-1.2-1.4,0a2.9,2.9,0,0,0-.9,2c-.4,0-.6.4-.6.9a15.3,15.3,0,0,0-1.8,2.9c-.5.2-.7.4-.7.9a.8.8,0,0,0-.7.8c-.4.5-.6,1.2-.2,1.6a10.5,10.5,0,0,0-2,1.4c-.4-.3-1.1-.3-.9.4a9.2,9.2,0,0,1-1.8,2.2h-.2c-.2,0-.2.3-.4.3h-.5a1.5,1.5,0,0,0-.4.8c-.3,0-.5.3-.7.3a.7.7,0,0,0-.2.6,1.3,1.3,0,0,0-.7,1.2,1.6,1.6,0,0,0-.4,1.1c-.3.2-.7.4-.7.9v.2c-.5.7.2,1.3.7,1.6h0l.2.2h.4c0,.2.3.4.5.6s.4,2.1,0,2.3,1.3.9,1.8,1.5.9,1.8,1.3,2.5-.2.4,0,.7-.4.2-.7.4a1.5,1.5,0,0,0-2,.2c-2.4,1.6-1.1,5.4,1.1,2.3a1.3,1.3,0,0,0,1.2,0c.4.2.9.4,1.3,0a3,3,0,0,0,1.3.2h.3c.2,0,.2-.2.4-.2s.9-2.5-.2-1.8h-.5c0-.2,0-.2-.2-.5s.7-.2.7-.4.2,0,.4-.2.7-.9.5-1.1a1.1,1.1,0,0,0,.9-.7l.6-.2a1.1,1.1,0,0,0,.3-1.2v-.2h0c.2.2.4.5.6.2s1.4-.2,1.6-.8v-.5c1.1-.2,2.9-1.1,1.6-2.5a3,3,0,0,0,1.3-.2c.2-.4.7-.6.7-1.3l.6-.7h0c0,1.8,2.7,0,1.2-.9v-.4c.2-.7,1.1-1.1.8-1.8a.9.9,0,0,0-.2-1.1c-.2-.9-.2-2.3-1.3-2.5a1.4,1.4,0,0,0-.2-1.5h-.3a1.3,1.3,0,0,0-1.1-.9l.2-.3h.3c.4.3.6,0,.9-.2s1.5-.4,1.7-1.1c.5,1.3,2.1,0,1.6-.9A7.2,7.2,0,0,1,285.3,328.8Z"/>
        <path class="cls-1" d="M223.9,246.4a.8.8,0,0,0-1.6.4C222.8,247.9,223.9,247.5,223.9,246.4Z"/>
        <path class="cls-1" d="M219.9,253.5c.4.7,1.5,0,1.1-.6S219.4,252.6,219.9,253.5Z"/>
        <path class="cls-1" d="M181,220c1.1-.2.7-2-.4-1.8s-.3,1.4-.3,1.6Z"/>
        <path class="cls-1" d="M181.4,220.5c-.6.6.3,1.5.9,1.1S181.9,220,181.4,220.5Z"/>
        <path class="cls-1" d="M184.1,230.3c2,1.8,2-2.5,0-.9Z"/>
        <path class="cls-1" d="M262.5,360.7l-.2-.4c-.9-.7-1.4,0-1.8.6a1.1,1.1,0,0,0-.2,1.8,3.7,3.7,0,0,0,1.8.5l.4-.5A3.4,3.4,0,0,1,262.5,360.7Z"/>
        <path class="cls-1" d="M230.6,321.2v.2l.2.2h0c1.3.3,1.1-1.5,0-1.7A1.4,1.4,0,0,0,230.6,321.2Z"/>
        <path class="cls-1" d="M227.5,319.2c0,.4.4,1.1.8.9h0c-.6,1.1,1.2,1.8,1.2.4a1.1,1.1,0,0,0,.4-.9c.7-.4.5-1.3-.4-1.3s-.5-.5-.7-.5-1.3,0-1.3.7S227.7,319.2,227.5,319.2Z"/>
        <path class="cls-1" d="M254.9,357.8a1.1,1.1,0,0,0-.2-.7c0-.2-.2-.4-.7-.6h0c.5-.5,0-1.1-.2-1.6s-1.3-.2-1.1.5-.2,1.5.4,1.7v.5a.7.7,0,0,0,0,.9C252.7,359.8,255.1,359.2,254.9,357.8Z"/>
        <path class="cls-1" d="M160.9,244.1a3.5,3.5,0,0,0,2.2,3,1,1,0,0,0,1.4,0c.4.2.9-.3,1.1-.7s3.8,1.3,4.5,2.7.2,1.1.6,1.1.3.2.3.2.4.2.4.2,1.1,1.1,1.1,1.6v.9a2.2,2.2,0,0,0,1.6,1.1.4.4,0,0,0,.4-.4h.5c.4-.3.2-.9.2-1.4a1.6,1.6,0,0,0,1.1-.7,2.4,2.4,0,0,1,2,.7c-.6.9.7,1.6,1.4.9l.2-.4c0-.3-.2-.5-.2-.7,3.1-3.4-1.8-3.4-4.1-4.5-.4-1.3-1.7-1.1-2.6-2-.7-3.6-2.9-4.5-5.8-2.7a13.2,13.2,0,0,1-3.2-2,1.2,1.2,0,0,0-.9-1.8h-.4a.6.6,0,0,0-.5.5c.3.4-.2.9-.2,1.3a1.3,1.3,0,0,0-.4.7h0a6.5,6.5,0,0,0-.5,1.8A1.5,1.5,0,0,0,160.9,244.1Z"/>
        <path class="cls-1" d="M183.9,292.6c0,.2,0,.2.2.5a.6.6,0,0,0,.3.6c-.3.5,0,1.4.6,1.4l.2.2.5.2a35.8,35.8,0,0,0,2.9,2.7,2.1,2.1,0,0,0,2,.9,1.3,1.3,0,0,0,.7.4c.6,1.8,2.2,1.6,3.1,0,.2,0,.4-.2.7-.4a.7.7,0,0,1,.4.2c.2-.2.7,0,1.1-.2a9.1,9.1,0,0,0,.7-1.4l-.2-.2c0-.2-.2-.6-.5-.6a.8.8,0,0,0-.2-.5v-.2a1.1,1.1,0,0,0,0-1.1v-.5a.8.8,0,0,0,0-.9l.2-.2v-.2a.7.7,0,0,0-.4-1.1c.2-.5-.7-1.2-1.1-.7s-.9-.2-.9,0a.2.2,0,0,0-.2-.2c.2-.7-.5-1.4-.9-1.8s-.9.2-.9.7a.5.5,0,0,0-.5.4l-.2-.2a.7.7,0,0,0-1.1-.2,1.3,1.3,0,0,0-.7.4.7.7,0,0,0-.9.2.5.5,0,0,0-.4.5c-.3,0-.3.2-.5.4h-.4a1.3,1.3,0,0,0-.7-.4h-.2a.7.7,0,0,0-.7-.3c-.2-.2-.4-.2-.7,0h-.8c-.9.7-.9,1.2-.5,1.6Z"/>
        <path class="cls-1" d="M235.5,373.4c-.5-.4-.7-1.3-1.4-.8-1.3-1.2-2.6.6-1.1,1.7a1.3,1.3,0,0,0,.9-.2c0,.7.5.9.9,1.1A1.6,1.6,0,0,0,235.5,373.4Z"/>
        <path class="cls-1" d="M224.3,367c-1.5-1.1-1.3,2.2,0,.9A.7.7,0,0,0,224.3,367Z"/>
        <path class="cls-1" d="M208.9,361.6c.5,2.9,2.9,0,.9-1.3s-1.1.4-.7.9A.6.6,0,0,0,208.9,361.6Z"/>
        <path class="cls-1" d="M149.3,279.2c0,.2.2.2.2.5a.7.7,0,0,0-.2.6c-.7.9.9,1.4,1.1,2a.9.9,0,0,0,.7,1.2c.4.2.9,1.3,1.5,1.1s.5.2.7,0h.2c0,.2.3.4.5.6h.2c.4.3.9-.2,1.1-.4a3.2,3.2,0,0,0-2-2.2h-.2a4.6,4.6,0,0,1-1.8-2.3.9.9,0,0,0-.7-1.3c.3-1.1-1.1-2.2-1.5-.9l-.3.2C148.8,278.5,149.1,278.8,149.3,279.2Z"/>
        <path class="cls-1" d="M211.8,371.2c.5.7,1.1.2,1.1-.2S211.4,370.1,211.8,371.2Z"/>
        <path class="cls-1" d="M151.7,284.6s-.2-.3-.4-.3a1.9,1.9,0,0,0-1.1.5c-.5,1.1,1.1,1.6,1.5.4S152,284.8,151.7,284.6Z"/>
        <path class="cls-1" d="M215.6,377a2.9,2.9,0,0,0-1.1-1.1h-.2c0-.2-.5-.4-.7-.4s-.4-.5-.7-.5h0l-.2-.2h0c0-.2-.2-.2-.4-.2h0c-.7-.7-1.8-.7-1.4.4h0c0,.2-.2.5-.2.7s-.4,1.1,0,1.3h.4a.6.6,0,0,0,.5.5c0,.2.2.2.2.4a.8.8,0,0,0,.9.9h.2c.5.5.7-.2,1.2-.4s.6,0,.8-.3S215.8,377.7,215.6,377Z"/>
        <path class="cls-1" d="M164.9,330.3c.9,0,1.1-1.3,0-1.5S164,330.1,164.9,330.3Z"/>
        <path class="cls-1" d="M164,329.5h0a.9.9,0,1,0-1.1-1.4,1.5,1.5,0,0,0-.9-.2c-.2,0-.4,0-.4.2h0a1.1,1.1,0,0,0-.5.9v.2a1.2,1.2,0,0,0,.5.9h0c-.9.2-.5,1.8.4,1.6s.5-.5.5-.7.6-.4,1.1-.7h0A1.5,1.5,0,0,0,164,329.5Z"/>
        <path class="cls-1" d="M198.4,376.6c-.4-.9-1.8-.5-2,.2H196s-.3.2-.3.4a1.7,1.7,0,0,0-1.5.3h-.5a.8.8,0,0,0,0-1.6c0-.2-.2-.4-.2-.7a1,1,0,0,0-1.3-.9c-.7-.6-1.4.7-1.4,1.2h-.2a1.5,1.5,0,0,0-2-.5v.2a1.9,1.9,0,0,0-.9.9v.3c-.2.2,0,.6,0,1.1l.2.2v.2c-.2-.2-.6-.2-.6,0l-.3-.2a6,6,0,0,0-3.8-.9c-.2,0-.6-.2-.9.2h-.4c-.2,0-.7.2-.7.5a.6.6,0,0,0-.6.6c-.7.3-.5.9-.5,1.4a2.1,2.1,0,0,1,.7,1.5,1.2,1.2,0,0,0-.2.5,1,1,0,0,0-.7,1.3l-.5.3a.6.6,0,0,0-.9.4h-.2c-.2-.2-.6,0-.9.2h-.2c-.2,0-.4,0-.4.2s-.7,0-.7.3v-.3a1.1,1.1,0,0,0-.7-2c-.2-.4-.7-.9-1.1-.6s-.4-.3-.9,0h-.2l-.7.2a.7.7,0,0,0-.2.4h-.5s-.2.3-.4.3v.2a1,1,0,0,0-.4,1.3h0c-.3.5-1.6.2-1.6,1.1h-.2c-.5.5-1.4.9-1.4,1.8s0,.7,0,.9l-.2.2h0c-.4,0-.7.7-.7,1.2s-.6,0-.9.2a.7.7,0,0,0-.6-.2.9.9,0,0,0-.3,1.5c-.8.2-1.5,1.6-.4,1.8l.7-.2.4-.2h0a.5.5,0,0,0,.7-.3,1.1,1.1,0,0,0,.7-.2.7.7,0,0,0,.6-.2c.5.2.9.2,1.1-.2s.7-.3.5-.5h0v-.2h.2c0,.2.2.4.5.7h.2c.7-.3,1.1-.7.9-1.4a.4.4,0,0,0,0-.6c.2,0,.4-.5.6-.7h0a.8.8,0,0,0,.7-.2c0-.3.2-.5.2-.7s.3,0,.3-.2a.6.6,0,0,0,.6-.3c0,.5.9.7,1.1.7s3,1.4,3.4,0h0l.2-.2c.5.2,1.1,0,1.1-.5l.9-.4h.9a.5.5,0,0,0,.7,0,.8.8,0,0,0,.7.2h.2a.2.2,0,0,0,.2-.2c.5.2,1.1-.4,1.4-.7h0c.6-.2,1.1-1.1,1.5-1.5s.2,0,.2-.3a.8.8,0,0,0,.5-.2l.4-.2v-.2c.3,0,.5-.2.7-.5s.2-.2.2-.4l.2-.2h.3a2.3,2.3,0,0,0,.4-2.3l.7-.6h.4l.3-.5a.7.7,0,0,0,.6-.2h.3c0,.2.2.7.2.9l.2.2a1.8,1.8,0,0,0,1.1-.4h.2c0,.2.5.4.5.6h.2l.7-.4a2.8,2.8,0,0,0,2.2,0,.8.8,0,0,0,.2-.5h.3c0-.2.2-.4.2-.6h.2l.2-.3C198.4,377.9,198.4,377,198.4,376.6Z"/>
        <path class="cls-1" d="M164.9,338.2a.5.5,0,0,0,.5.4,1.2,1.2,0,0,0,1.5.9c.7-.4,1.8-1.6.5-2.2s-1.4-.3-1.8-.7S164.5,337.5,164.9,338.2Z"/>
        <path class="cls-1" d="M174.7,376.1h0a.7.7,0,0,0-.6-.2c-.7.2-.5,1.3.2,1.8S175.2,376.6,174.7,376.1Z"/>
        <path class="cls-1" d="M162.5,387.1a1.6,1.6,0,0,0-.5-.9c-.4-1.8-2.4-.2-1.3.9s-.2.6,0,1.1H160c-.2-1.8-3.1-.9-1.8.9a.7.7,0,0,0-.6.7c-.5.2-.3.8-.3,1.3s2,.7,2-.5.7.3.9-.2.3,0,.3.2,1.3,1.2,1.5,0l.2-.2V390c0-.2.3-.7,0-.9h0v-.5c0-.2.3-.2.3-.4Z"/>
        <path class="cls-1" d="M155.3,390c-.4-.5-1.1-.9-1.5-.5s-.5.3-.7.5-1.4,2-.5,2.4.9.3,1.4-.2S155.8,390.9,155.3,390Z"/>
        <path class="cls-1" d="M151.1,390.4c-.5-.4-1.1-.4-1.4.5-2.9.2.3,4.9.9,1.3.5,0,.9-.7.9-1.1S151.3,390.4,151.1,390.4Z"/>
        <path class="cls-1" d="M142.4,392c0-.7-.9-1.4-1.4-1.6h-.4a7.8,7.8,0,0,0-1.4.5c-.2.4-.6.6-.6,1.3s0,.7.2.9h.2c0,.2.5.2.7.2s.7.2.7,0h.4c.2.2.5,0,.7-.2s.4,0,.4-.2h.2c.3,0,.3-.5.3-.9Z"/>
        <path class="cls-1" d="M137.5,394c-.3-.2-.3-.5-.7-.5h-.2a8.9,8.9,0,0,0-2-.6,1.1,1.1,0,0,0-.7-.2,1,1,0,0,0-.7-.5H133c0-.2-.2-.7-.5-.7h-.4c-.9,0-1.8-.4-2.7-.4h-.2c.2-.7,1.1-1.3.9-2.2a.9.9,0,0,0-.5-1.2c0-.2-.2-.4-.4-.6a1,1,0,0,0-1.3-.5.6.6,0,0,0-.9.2h-.3c-.2.3-.2.5-.4.5s-1.1.7-.9,1.3-.5.3-.7.5-.9,0-1.1.4h-.2l-.2.3h0l-.3-.3h-.2a1.1,1.1,0,0,0-1.1,0l-.4-.2c-.3,0-.3.2-.5.2a.8.8,0,0,0-.9,0c-.2-.2-.4-.2-.7,0h0c-.2,0-.4.3-.6.5s-.7-.2-1.1,0l-.5-.2h-.4c0-.3-.3-.3-.5-.3a.4.4,0,0,0-.4-.4h0c0-.2,0-.7-.3-.9s-.4-.2-.4,0,0-.5-.2-.5-.5-.6-.7-.6h0c-.2-.3-.7-.3-.9-.3a1.8,1.8,0,0,0-.7,2.1v.6h0v.5h-.2l-.4-.2h-.2c-.3,0-.5-.3-.9-.3v-.6c.4-.9-.7-2.1-1.6-1.4s-1.3.5-2,1.4h-.2l-.3.2c.7-2-2.2-3.6-2.2-.7h-.2l-.2.2h-.5a.6.6,0,0,0-.9.3h-.7v-.3l.3-.2v-.2c.4-.5,0-1.1-.7-1.1h-.7c-.2-.3-.4-.3-.4-.3v-.2c0-.2,0-.4-.2-.4a1,1,0,0,0-.9-.9h0c-.3,0-.3-.2-.5,0s-.6-.2-.9-.2c-1.8.2-.6,2,0,2.9-.9.2-.9,1.8,0,2.2s.3.4.5.4h.2c.4,1.2,1.6.9,1.6-.2a.2.2,0,0,0,.2-.2l.2.2a.9.9,0,0,0,1.6.5h0c.4.4.6,0,1.1-.3s.2.7.4.7.9,0,1.4.2.9-1.1,1.1-2a.7.7,0,0,0,.4-.2h0c-.2.2-.4.9,0,1.1h0c-.4.2-.9.7-.9,1.1h0c-.4.9.7,2.5,1.4,1.4.2.4.7.2.9.2h0a.7.7,0,0,0,.6-.2h0a.9.9,0,0,0,.9-.5h0l.7-.2h.5a1,1,0,0,0,1.5-.2c.2.2.7.4.9.2h0a.2.2,0,0,0,.2-.2c.3.4.9.2,1.2-.5s.2.3.4.3.4-.5.4-.9.7.2.9,0h0c.3,0,.3,0,.5-.3h0c.2.3.4.3.9.3l.2-.3h.4a.4.4,0,0,0,.7-.2,1,1,0,0,0,.7.2l1.3.7h.3l1.3-.2v.2a.7.7,0,0,0,.4.2c.3.5.7.5,1.2.5h.4l.7.7h.2c.2.2.4,0,.7,0s.4-.5.4-.7h.2a1.1,1.1,0,0,0,.7.2c.2,0,.5.2.5,0h.6v.2h0c.2.5,1.1,1.1,1.6.9h0a.2.2,0,0,1,.2.2h.2s.3.3.5.3h.2c0,.2.4.4.7.4h.6a.7.7,0,0,0,.9,0s.5.2.5,0a1.1,1.1,0,0,0,.4.9c.5.2.9-.4.7-.9h.7c.2.2.9.2.9-.2h0C137.5,394.9,137.7,394.4,137.5,394Z"/>
        <path class="cls-1" d="M120.5,388.9c.7,1.1,1.8-.7.7-1.2s-.5,0-.7.3S120.3,388.4,120.5,388.9Z"/>
        <path class="cls-1" d="M117.4,388.4c.4,1.4,1.5.7,1.3-.4A.7.7,0,1,0,117.4,388.4Z"/>
        <path class="cls-1" d="M102.8,388.2c.9,1.6,2.5-.7.7-1.4A.9.9,0,0,0,102.8,388.2Z"/>
        <path class="cls-1" d="M92.1,386.6c.7,1.4,1.8,1.8,2.3,0s-.5-1.5-1.2-1.5A1.3,1.3,0,0,0,92.1,386.6Z"/>
        <path class="cls-1" d="M96.8,391.5a.9.9,0,0,0-.7-.6c-.9-.7-1.3,1.3-.2,1.3S97.3,392.2,96.8,391.5Z"/>
        <path class="cls-1" d="M95.5,390.4c.2-.4,0-1.1-.5-1.1s-.2-.7-.6-.4a.8.8,0,0,0-1.4.2h-.2c-.2-.7-.9-.5-1.3,0-.7-2.7-2.7.9-.7.9h0c.2,0,.4-.2.7-.5s.4,1.4,1.1,1.4.6,0,.9,0h.2C94.1,391.1,95,390.6,95.5,390.4Z"/>
        <path class="cls-1" d="M91.9,391.3c-.4-1.1-1.1-1.1-1.8-.2l-.2.4c-1.1-.4-1.4,1.4-.9,2.3a1.5,1.5,0,0,0,.9.2c.2-.2.7-.5.9-.9H91l.2-.2C92.1,392.9,92.1,392,91.9,391.3Z"/>
        <path class="cls-1" d="M83.9,380.1h0l-.7-.8a.9.9,0,0,0-1.6-.3c-.4,0-.9.3-.9.7s.9,3.4,2,2.2C83.6,382.2,84.3,380.8,83.9,380.1Z"/>
        <path class="cls-1" d="M70.9,376.6a1.8,1.8,0,0,0,.9.4c.2.5.4,1.1,1.1,1.1.5,1.6,2,1.6,2.2,0s-.8-2-1.7-1.5a2.8,2.8,0,0,0-.9-.5c.2-1.3-2-2-1.8-.4A1.5,1.5,0,0,0,70.9,376.6Z"/>
        <path class="cls-1" d="M80.1,387.5c0-.2-.3-.4-.5-.4a.7.7,0,0,0-.7-.7h-.2c0-.2-.2-.2-.4-.2s-.2-.7-.5-.9h0c-.2-.2-.2-.9-.4-1.1a.8.8,0,0,0-.5-1.1h-.2c-.2-.5-.7-.7-.9-.9h-.2l-.2-.3h-.3c-.8-1.1-2-.4-1.5.9h0a4.6,4.6,0,0,0,1.1,1.6.8.8,0,0,0,.7.7h.2a7.6,7.6,0,0,0,1.1,2.2c.2.7.5,1.6,1.4,1.3s.8.5,1.1.3a.7.7,0,0,0,.4.2A1,1,0,0,0,80.1,387.5Z"/>
        <path class="cls-1" d="M69.6,375.5c-.3-.3-.5-.5-.7-.5l-.2-.2c2-1.1-.5-4.3-1.6-1.8h0a1,1,0,0,0-.4.7c-.5,0-1.2-.3-1.4.4-1.8,0-1.3,1.6-.6,2.5h0c.2.9,1.5.6,1.3-.2l.2-.5c.2.2.5.5.7.2h0c.2.3.4.3.7,0s.4.3.6,0h.5C69.1,377,70,376.1,69.6,375.5Z"/>
        <path class="cls-1" d="M73.6,380.1c-.2-.6-.5-1.7-1.4-2s-1.7.7-.8,1.4a1,1,0,0,0,.8.9c.3.4.7.4,1.2.4S73.6,380.4,73.6,380.1Z"/>
        <path class="cls-1" d="M71.1,377.5c-.4-1.4-1.8-.3-.9.6S71.1,377.9,71.1,377.5Z"/>
        <path class="cls-1" d="M66,372.8c.4.9,1.6,0,.9-.7S65.5,372.1,66,372.8Z"/>
        <path class="cls-1" d="M57.7,365.2c0-.2-.2-.5-.4-.5s-.2-.2-.2-.4h-.3C53.9,363.4,58,369.2,57.7,365.2Z"/>
        <path class="cls-1" d="M46.1,355.1c-.2-.2-.7-.6-1.1-.4s-.2-.5-.4-.5h-.3c-.9-1.3-2-.2-1.1.9a15.4,15.4,0,0,0,2,1.8C46.1,356.7,46.6,355.6,46.1,355.1Z"/>
        <path class="cls-1" d="M38.5,352.7h.7c.2.2.4.7.7.9s.9-.5.9-.9.4.4.9.4.6-.9.2-1.3a1.4,1.4,0,0,0-.5-.9h-.2c.2-.7,0-1.6-.7-1.6a1.8,1.8,0,0,0-1.8-1.3c-.2-.2-.4-.5-.6-.5a2.9,2.9,0,0,0-3.1-.2c-1.2-.2-.9,1.6,0,1.6s.6,2.4,1.7,2.7.7,1.1,1.6.6l.2-.2C38.1,352.5,38.3,352.7,38.5,352.7Z"/>
        <path class="cls-1" d="M42.8,357.1c0-.4-.7-.4-1.1-.6h-.3a.7.7,0,0,0-.9,0c-.2,0-.4,0-.4.2l-.2-.2c-.3,0-.5,0-.5.2-1.8.2-.7,2.5.7,2.5s.4.9.9.9h0c.4.4.9,0,1.1-.3s.2-.9,0-1.3S43.2,357.6,42.8,357.1Z"/>
      </g>
      <g id="_19" data-name="19" class="cls-2">
        <path class="cls-3" d="M449.4,374.2c-2.7-2-5.8-2.7-5.4-8-.9-3.4-3.6-7.1-1.4-10.5-2.7-7.1-6.5.7-7-8.7-.2-4.4-3.8,2.5-3.4-1.1-5.4-1.8-3.8-3.1-6.8-8.7-1.1.5-2.9-2.6-2.2.3-3.2,1.7-7,.9-7.7-3.2-2.1-.6-2.5-14.4-7.5-8-2-2.9,1.1-10.4-3.8-7.8-.7,2.3-4.8-3.7-3.7-.2-2.9-1.3,7.7-9.8-.2-13.6,0,3.4-1.1-2.9-.4-3.5-2.5-1.8-4.1-2.3-4.3-3.8-3.2-.2-1.9,2.9-6.4.9-2.2-1.1-5,1.1-5.4-4.3,2-1.7-3.6-6.4-4.5-5.5,1.3,4.2-3.9-.2-3.7,2.4-1.6,1.1,8,17.2.9,10.5-3.4-2.9-5.9,2.7-6.1-4.7-5,.9,2.5-5.8-5-8,5.2,12-18.1,7.8-12.6.5-1.2-2.9-2.1-4.9.6-4.5-.6-3.6-3.6-4.7-3.8-8,1.6-3.4-1.8-6,1.4-8-3-2.9-3.9-3.6-2.3-5.8-.9-2.9,4.1-1.1,2.7-5.4,4.1,1.6,6.3-2,1.6-4.4-2.7-.9-6.8,1.8-5.9-2.7,1.1.2.7-1.1,0-1.1,1.4-1.3,1.4-2.9,3.2-2.9,1.3-2.2-4.8-5.1-7.3-7.8-5.6-4.4-11.5-16.2-7.9-22.7.5-3.8-3.4-10.5-.9-12.5,6.3.9,5.4-7.3,10.6-9.3,1.6-4.5-1.1-5.8-2.5-8.9s-1.3-6.7-6.1-5.6c-3.6-2-6.5-5.3-11.3-3.1-1.3,1.1-6.3-1.1-5.4,1.3-6.8-.9-13.8-7.5-20.4-2.6-6.3-.7-14.9-6.7-19.9-4.9-7.3-4-14.5,2.2-19.3-5.4a56.3,56.3,0,0,1-21.7-8.2c-9.5,8-12.9,1.3-23.3,9.3-12-4-7.9,12.9-16.8,14.1-16.1-2.7-5.4-.3-13.6,4.4,3,3.6,8.6,6.5,12,10.7,6.4,4.9,9.3,16.3-1.5,14.9-7.7,2-26.5,7.8-10.2,13.4.2,7.8,3.6,12.4,11.1,14.7,5.2-.3,9.7-.3,13.5,4.2,8.2-1.6,15,4.9,10.5,11.1-3,3.4-10.7-7.3-9.1-.4,3.6,1.1-1.1,2.7-1.1,4-8.2-.9-9.8-8.7-13.6,5.3-3.6,4.9-10.2,11.4-3.9,18.1s3.2,7.1,3.4,13.3c.3,3.8,4.1,2.3,5.2,4.5s1.6,5.3,3.9,7.1-1.1-3.1,4.3-.7c4.3-1.1,7.5-2.2,9,3.6.3,2.9-2.2,5.8,1.2,9.3-1.4,3.8-3,6.3,2.7,6.1,2.5-2.7,1.6,1.7,4.1,1.3s1.1-3.3,2.2-4.5,2.1,1.8.5.9c-1.1,1.1,1.1,4.9,1.8,3.4s-.7-3.6,2-1.6c5.5-1.8,3.9,10.9,11.4,4,14.2,11.2-9.1,27-15,33.2-7.2-1.6-11.8,4.9-15.8,9.1-5,2.5-17.9,2.9-11.8,11.2,3.2,1.3,3.4-1.6,5.2-2.5,2.9,1.1,4.8.2,7.7.9.2-4-2-3.3,2.9-3.8-.4,4,3.2,7.4,4.1,4.2.9-.9,5.2.5,2.3-2.9,2-1.3,2.5-1.5,3.2-4,1.3.9,1.1,2.5,1.3-1.1s.5,3.8,3.2,3.6c5.2-3.4.4-1.8,2.9,4.2,2.5-4.9,9.5,4,7-1.8-.2-5.8-8.1-4.9-5.6-8.4,3.8,1.5,3.1-2.9,6.5-3.1,1.2,2.9,3.2-1.8,4.6-2.7-.3-1.8,3.6-.5,1.6-3.8-.5-1.3,4.7,3.6,2.2-.4s10.7.4,3-4.3c7.2-2,3.4-4.6,8.3-11.1,2.3-.7,4.6-3.1,5.7-6.2,4.5,1.3,5.9-3.8,6.3-7.4,3.9-.2,2.5-5.6,7.3-6.2,1.3.2.9,2.7,3.8,2.4,3-2-1.5-2.6-2-3.3,3.4-1.1,6.8.7,9.1-2.2,3.1-.7,3.4-1.8,4.9-5.4,1.4.2,2.8,3.6,3,.5.2-9.6,8.6-1.1,12-3.2,3.4,0,.7-3.1,1.8-4.6,3.2-.2,4.7-4,9-2.9,5.7,3.5,8.4.2,8.2,8.2,4.8-7.8,16.5-4.9,24.5-.9,12.4,2.7,21.2,11.8,31,18.5,7.2,10.9,16,21.2,25.1,31.2-3.2-.2,1.1,2.2,2.5,1.8.4-2.7,2.7.6,2.9,2,2.8,3.7,9.8,14.9,15.2,12,6.3-1.1,12.2-5.8,17.4,2C450.1,383.1,449.4,372.2,449.4,374.2Z"/>
        <path class="cls-3" d="M286.9,333.7c-4.6-5.8-5.7-9.6-10.2,1.1-2.3,5.6-7.9,6-9.3,12.2,2.9,2.3,3.2,6,5.7,8.5.2,2.2-4.3.4-3.9,4.2,11.1,1.1,4.8-1.1,9.1-6.7,4.7-3.1,11.5-7.3,5.4-15.3C281.9,336.1,290,337.5,286.9,333.7Z"/>
        <path class="cls-3" d="M200.2,380.9c-4.1,2.9-3.2-3.6-8.6-1.6-3.7,6-9.1-3.1-9.3,8.7-3.9,1.8-2.3-1.8-6.1-2.4s-4.6,6.9-8.6,7.7c-2.5,6.5,6.7,1.4,8.1-1.3,3.6-.4,13.6.5,16.3-6.2C190,380.9,204.9,387.8,200.2,380.9Z"/>
        <path class="cls-3" d="M139.7,397.3c-10.2-1.5-7.2-10.2-12-6.9-1.1,3.2-4.7,1.6-7.7,2.5s-6.3-7.6-6.6-.4c-2-1.4-3.1-4.7-5.2-1.2-1.1-4.6-2.2,0-3.8-.6s3.4-.9-.2-2.3c-1.9,2.7-3.2-2-5.5-1.5-3.6,7.8,5.9,5.1,8.2,8s9.9-1.1,13.6-.7C126.1,394,138.6,402,139.7,397.3Zm-31.9-4c-.5.3,0-.8-.2-1.3S107.8,392.9,107.8,393.3Z"/>
        <path class="cls-3" d="M161.2,244.4c6.8,5.3,2.7,8.7,10.9,6,.2,4.2,4.1-3.1,1.3-3.1-2-1.8-7.7-2-7-5.8-3.4-3.6-8.1-.4-11.3-5.6C152.2,243.1,155.8,243.7,161.2,244.4Z"/>
        <path class="cls-3" d="M187.7,290.5c-12.9,1.3-4.1,6.7,2.5,11.1.7-2.2,2.7-.4,4.1-2.2C194,294.5,191.6,289.6,187.7,290.5Z"/>
        <path class="cls-3" d="M36.7,351.3c5.2-.7-.9-7.2-4.8-7.4C27,345.7,35.1,349.9,36.7,351.3Z"/>
        <path class="cls-3" d="M165.1,391.1c-1.2-2.4-5.7.7-5.2,4C163.5,395.8,165.7,395.1,165.1,391.1Z"/>
        <path class="cls-3" d="M79.9,387.6c-2.2-1.4-2.9-5.8-6.3-6.3C72.2,384,82.2,393.6,79.9,387.6Z"/>
        <path class="cls-3" d="M149.4,280.7c-2.4-.2-2.7-3.3-3.6-4.9C138.6,275.8,154.9,289.6,149.4,280.7Z"/>
        <path class="cls-3" d="M68.6,375.1c.2-6.7-8.1-1.3-3.8,2C65.2,374.6,70.2,378.2,68.6,375.1Z"/>
        <path class="cls-3" d="M218.5,381.8c-1.4-.7-2.5-1.8-4.1-2.3C210.3,383.5,220.8,386.7,218.5,381.8Z"/>
        <path class="cls-3" d="M40.1,354.6c-1.1-.7-4.5-1.1-4.5.9C37.8,358.4,40.5,358.4,40.1,354.6Z"/>
        <path class="cls-3" d="M160.1,332.1c.9.9,4.1-1.1,4.5-1.5C162.3,327.7,159.4,328.8,160.1,332.1Z"/>
        <path class="cls-3" d="M70.9,376.9c1.3.6,4.5,4.2,4.1.4C73.8,376,68.2,372.6,70.9,376.9Z"/>
        <path class="cls-3" d="M96.5,391.1c-1.4-1.5-3.9-1.8-5.5-1.8C90.1,391.1,96.7,393.8,96.5,391.1Z"/>
        <path class="cls-3" d="M144.7,395.3c-1.1-2.6-4.5-1.3-3.6,1.2S145.1,397.1,144.7,395.3Z"/>
        <path class="cls-3" d="M82.9,379.5c-2.5-1.3-3.2,2.3-1.2,3.4S84.5,380.9,82.9,379.5Z"/>
        <path class="cls-3" d="M157.6,393.6a1.9,1.9,0,0,0-2.3,2.9C156.9,396.7,159.4,395.1,157.6,393.6Z"/>
        <path class="cls-3" d="M91.9,392c-.9,1.1-1.8.9-2,2.2C89.4,398.2,95.6,393.1,91.9,392Z"/>
        <path class="cls-3" d="M257.2,362.4c0-2.7-2.2-1.8-1.8.4S259.5,366,257.2,362.4Z"/>
        <path class="cls-3" d="M266,366.6c-3.1-3.3-2.7,5.6.3,2.3C266.5,368.4,265.8,367.5,266,366.6Z"/>
        <path class="cls-3" d="M236.6,378.4c-2.3.7.9,3.1,2.3,2.9S238,378.2,236.6,378.4Z"/>
        <path class="cls-3" d="M151.9,394.5c-.9-.3-.6,1.3-.6,1.7C153.3,399.6,155.6,391.3,151.9,394.5Z"/>
        <path class="cls-3" d="M167.8,340.1c-.5-1.1-2.1-1.1-3-1.5C163,339.9,167.6,343.2,167.8,340.1Z"/>
        <path class="cls-3" d="M42.4,352.4c-3-3.6-2.1,1.8.6,2.2S43.5,352.2,42.4,352.4Z"/>
        <path class="cls-3" d="M72.9,379.3c-.4-.9-1.1-1.1-1.8-1.5C68.8,379.1,74.5,383.1,72.9,379.3Z"/>
        <path class="cls-3" d="M94.4,389.1c.9-.4.9-1.8.3-2.7C92.4,385.1,92.2,389.1,94.4,389.1Z"/>
        <path class="cls-3" d="M422.5,376.6c-2.3-3.5-1.4,3.8.7,2C422.9,378,422.9,377.3,422.5,376.6Z"/>
        <path class="cls-3" d="M319.9,316.5c-1.3-2.2-1.8,2.7-.2,2.9S320.4,317.4,319.9,316.5Z"/>
        <path class="cls-3" d="M55.9,363.7c-1.3-2-2-.2-1.3,1.1S57.1,364.6,55.9,363.7Z"/>
        <path class="cls-3" d="M212.2,367.7c1.8-.9-1.2-3.7-1.4-1.7S211,367.5,212.2,367.7Z"/>
        <path class="cls-3" d="M96.5,392.5c-.9.8.6,2.2,1.5,1.7S97.6,392.5,96.5,392.5Z"/>
        <path class="cls-3" d="M146.3,282.7c-1.4.9,1.1,2.7,1.3.9S147.2,282.5,146.3,282.7Z"/>
        <path class="cls-3" d="M178.2,227.7a1,1,0,0,0-.7-1.8C176.2,226.4,177.3,227.7,178.2,227.7Z"/>
        <path class="cls-3" d="M231.9,325a1.2,1.2,0,0,0-1.2-1.8C230.3,324.1,231,325.2,231.9,325Z"/>
        <path class="cls-3" d="M119.3,391.6c1.6.6,1.4-2-.2-1.8A1.3,1.3,0,0,0,119.3,391.6Z"/>
        <path class="cls-3" d="M173.4,216.1c1.2-.4,0-2-.9-1.8S172.3,216.1,173.4,216.1Z"/>
        <path class="cls-3" d="M218.3,246.9c1.3-.7.2-2.3-.9-1.8S217.4,246.6,218.3,246.9Z"/>
        <path class="cls-3" d="M177.3,381.8c.7-.9-.5-2.5-1.1-1.6S176.4,382,177.3,381.8Z"/>
        <path class="cls-3" d="M122.7,391.8a.9.9,0,0,0,0-1.6C121.4,389.6,121.6,391.8,122.7,391.8Z"/>
        <path class="cls-3" d="M45.3,355c-1.1.5-.5,1.6.4,1.8S46.2,355.5,45.3,355Z"/>
        <path class="cls-3" d="M252.2,366.6c-.6.5-.4,1.4.5,1.8A1,1,0,0,0,252.2,366.6Z"/>
        <path class="cls-3" d="M216.5,253.3c.4-.7.2-1.6-.7-1.6S215.3,253.3,216.5,253.3Z"/>
        <path class="cls-3" d="M215.6,377.1c1.1-.5.4-1.6-.7-1.6S214.7,376.9,215.6,377.1Z"/>
        <path class="cls-3" d="M173.2,217c-.2,1.1,1.6,1.4,1.4.2S173.7,216.3,173.2,217Z"/>
        <path class="cls-3" d="M421.8,375.1c.9-.5-.2-2.2-.9-1.3A1,1,0,0,0,421.8,375.1Z"/>
        <path class="cls-3" d="M69.3,376.4c-.5.7-.2,1.4.7,1.6S70.2,376.4,69.3,376.4Z"/>
      </g>
    </g>
  </g>
</svg>
