<svg xmlns="http://www.w3.org/2000/svg" width="500" height="500" viewBox="0 0 500 500">
  <defs>
    <style>
      .cls-1 {
        fill: none;
        stroke: #999;
        stroke-width: 0.75px;
      }

      .cls-1, .cls-2 {
        stroke-linejoin: round;
      }

      .cls-2 {
        fill: #5c98ff;
        stroke: #fff;
        stroke-linecap: round;
        stroke-width: 2px;
        opacity: 0.5;
      }
    </style>
  </defs>
  <g id="hucs">
    <g>
      <path class="cls-1" d="M93.1,301.5Z"/>
      <path class="cls-1" d="M445.2,242.1v1.4a4.2,4.2,0,0,1,1.6,2.7l1.7,1.9c.5,1.3-1.2,4.1-1.7,5.3,0,3.4,2.2,7.7,2.8,10.9,3.6,2.9,8.6,1.9,8.6,8,2.2,1.7,5.2,3.2,5,6.4,1.2,1.2,3.4,2,4.7,3.2,1.2,2.8.8,6.4.2,9.4l-2.1,2a39.7,39.7,0,0,0-.7,4.8l-2,1.9c-1.3.4-3,1.1-3.7,2.4a33.5,33.5,0,0,0-4.4.7,4.4,4.4,0,0,1-2.7.7,4.5,4.5,0,0,0-.7,3.2,7.1,7.1,0,0,0-.5,2.9,7.6,7.6,0,0,1,2.7,8.9c-2,1.8-2.4,5.1-2.4,7.7s-3.4,2-4.7,2.3l-1.1,1.7.8,1.7a6.5,6.5,0,0,0-.1,3.1l-.6.6-1.6-1.2a4.3,4.3,0,0,0-2.1-2.7l-.7-1.7h-1l-.7-1.5c-26.8,1.5-54.6,3-81.5,2.1-.5-1.3-2.2-2.7-2.5-4.1a4.9,4.9,0,0,0,.3-3.2,9.6,9.6,0,0,0,.7-2.8c-.5-1.2-1.7-3.3-.7-4.4-.6-1.8-1.4-4.7-.4-6.6l-.9-.7c.2-.9-.3-2.7-.4-3.6l-1-.8-.3-1.5-1.4-.5.7-1.6-1.4-1c0-.8,0-2.8.7-3.4v-2.3a5.1,5.1,0,0,1-1.2-4.3l-.6-1H349l-.2-.8-1-1c-.1-.7-.4-2-1.1-2.4a3,3,0,0,1,.3-1.9,9.9,9.9,0,0,0-1.7-3.6c-.2-1.2.6-2.7.3-3.9s-.9-.5-.9-.3-.7-2.2-.7-2.9a21.1,21.1,0,0,0-2.6-4c-.3-2.1,2-4.5,1.7-6.7l.5-.5v-2l-.3-.6,1.3-.7a9.6,9.6,0,0,0-.5-5l-1.7-.6-.3-1.4c.8-.4,1.2-2.1,1.3-2.9a9.8,9.8,0,0,1-1.7-2.2l.3-1.5C376.4,244.5,411.3,243,445.2,242.1Z"/>
      <path class="cls-1" d="M382.5,437.7c-52.3,2-105.3.1-157.7-3.3,2-29.2,3.9-60.3,5.5-89.4h.1c15.5,1.1,33.6,2,49.2,2.7h0c28.6.3,58.7,2.3,87.3.7,1.5.7,2.9,3.5,4.3,4.4l1.6-.4,1.4-1.4.6,1.7h1.1c0,.9,0,2.6.6,3.3l-2.3.2v1.1a12,12,0,0,0-2.7,5.1c1.1,1.3,3.1,2.3,3.6,4.2l1,.4c-.5,1.1,1.3,4.1,1.7,5.1l1.7,1,1-.5,1.8,1.7C381.8,395.2,382.6,417.1,382.5,437.7Z"/>
      <path class="cls-1" d="M345.3,244.5c-.3-16.2.7-39.6-.3-55.7a45,45,0,0,0-4.3-2.7c-.4-1.7-2.4-3.9-2.8-5.6l.3-1.1c3.4-1.9,5.7-5.9,4.8-9.7l.6-2.7c-1-3.7-.6-7.6-3.2-10.8-.1-1.3-.5-4.5-1.2-5.6a83.8,83.8,0,0,1,.4-8.6l-1.3-2.4c.4-2.1,0-6.1-.1-8.2.4-6-.2-13-3.2-18.3-.3-1.7-1-6.1-2-7.5-.1-4.2.3-9.5-.3-13.4l1.2-2.5c-.6-2.1-1.7-4.8-1.6-6.9a5.1,5.1,0,0,1-.6-3.2c9.4,0,26.8.4,36.2-.1V68.2l2.3.7,1.5-.5a3.6,3.6,0,0,0,2.2,1.1c.6,5.6,2.6,11.4,2.6,17.1a12.8,12.8,0,0,0,4,2.1l1.3-.5,2.1.4.3,1.1c.8-.1,5.8.2,6.8.2l1,1.1c0,.7-.1,2.2.5,2.7L398,92l.7-1.4c2.5-1.7,5.4-.7,8-1.2,1.4,1.3,4,2.5,6,2V93l-1,.4-.2,1.3h3.2l1,1.2c-.4,1.4.9,4,1.6,5.2l1.6-.7c-.2-.7-.3-2.3.3-2.8s3.2-.6,3.7-.3l1,1.1.2,2,1.8.3.5.7,2.6.6.3,1.7,1.3.9h1l.2,1,1.8-.3.8.4a6.3,6.3,0,0,0,4.3-2.6c.8-1.1,2.8-1.8,3.5-3.1l2-.6.6,1.9,1,.5.3,1.6.6.3,2.2-.9c1.2.9,3.9.3,5,0a3.6,3.6,0,0,0,2.5-.2l2,.2a11.7,11.7,0,0,0,4.1,3.2l1.6-1h4.9a7.6,7.6,0,0,0-3.1,2.5c-1.6,1.5-5.7,3.5-7.5,4.8a29.9,29.9,0,0,0-10.5,6.1,5.6,5.6,0,0,0-2.4,2.2c-3.7,3.1-6.4,8.4-9.4,12.1-2.1,1.7-6,5.1-7.5,7.4s-6.2,4.3-6.7,7.7l-1.5.4c.3,4.9,1,12.7.8,17.5l-1,1.5h-1.5l-.4,1-1.4.4c-1.6,2.1-4.9,2.4-4.3,6a6.3,6.3,0,0,1-1.9,2.4c-.1.7-.7,2.9-.2,3.6l2.4.4c.3.6,2.1,3.4,2.1,4a8.8,8.8,0,0,0-1.5,4l-.5.3.5,2-.5.5a7.4,7.4,0,0,1-.1,3.9l.8,3.5a3.9,3.9,0,0,0,.2,2.6c-.6.7-.7,2.6-.6,3.4a10.6,10.6,0,0,0,2.4,1.9l1.7,2.5c2.9.9,5.2,1.5,6.6,4.3,2.1.4,5.6,1.6,6.7,3.6a20,20,0,0,0,2,4.5c1.7.9,3.7,3,5.3,4s3.4,1.7,3.7,2.9,1.4,1.4,1.4,2.1l.6.3a9.4,9.4,0,0,1,0,4.7l.7,1.7-.3,2.3.7,1.7C412.3,243.1,378.4,244.1,345.3,244.5Z"/>
      <path class="cls-1" d="M358.5,330.9c27,.9,54.8-.6,81.6-2.1l.7,1.5h1l.7,1.7a5.7,5.7,0,0,1,2.1,2.7l1.6,1.2c-1.9,4-1.9,9.3.6,13-.3.5-.9,2-.5,2.5a12.3,12.3,0,0,1,2.6,4.2,19.9,19.9,0,0,1,5.8,7.4,19.3,19.3,0,0,1,7.5,6.7c0,.7,0,2.5.7,3.2-.6,2.2.5,6,2.4,7.5s2.6-2.9,2.8-3.3a18.2,18.2,0,0,0,4.5,1l2.1,1.7.6,1.7-1.2,1a17.9,17.9,0,0,0,.2,4.6,3.7,3.7,0,0,1-1.2,2.2c-.3,1.3-1,4.2-2.1,5s-.1,3.9.1,5a25.9,25.9,0,0,1,3.7,3.7l1,.3c.5,1.1,2.6,2.3,3.6,2.9l.4,1.5,1.7,1.2,1.3-.5c.7.5,2.9,2.2,3.7,2.3l.7,1.7,2.9,2c.4.4.1,2.3,0,2.7s2,4.2,2.4,5.9-1.4,1.7-1.7,2l.3,1.4.7.3c.1.8.7,2.8,1.6,3.3a9.1,9.1,0,0,0,1.8,3.7l1.2.2.3-.5-.6-1,.3-1,2.1,2.5c.6-.1,1.4.6,1.9.9v2.3c-.3.6-1.1,1.8-1,2.4l.9.6c.4,1.7-1.3,4.5-.8,6.2l-1.1.6c-.6,0-2.1-1.7-2.4-2-.3,1.2-1.3,4.7-2.2,5.6l-.5-.4a8.8,8.8,0,0,0-.2-2.8l-.8-.4-.9,1.2,1,.8a4.1,4.1,0,0,0-.6,2.4l1,1.5-.5.8h-.6l-1.1.5,1.2,1.3-.2,1-2-.4-.2,1.4,1.5.7c.4.9-.3,3-.6,3.9h-.7l-.6,1.7-5.3.3h-.1c-1.3,0-7.6.6-8.9.5.8-1.3,2.5-4.6,3.8-5.5v-.7l1.1-.5.3-1.8.5-.4a8,8,0,0,0,.3-3.1l-1.3-.4-.4-2-.8-.9c-24.1,1.4-49.2,2.7-73.3,3.4h-.1c-2.6.3-7.7.1-10.3.4H382.9c-.7-25.8-1-52.6-.6-78.4l-1.8-1.7-1,.5-1.7-1c-.4-1-2.2-4-1.7-5.1l-1-.4c-.5-1.7-2.5-2.9-3.6-4.2s1.6-4.2,2.7-5.1v-1.1l2.3-.2c-.6-.7-.6-2.4-.6-3.3h-1.1l-.6-1.7-1.4,1.4-1.6.4c-1.8-1.8-4-4.2-5.7-6.1a5.5,5.5,0,0,0-.3-3.1l-1-.9-.2-1.5-1-.3-.6-1-1.4-.6c.7-2.4-1-5.1-2.5-7v-1.4Z"/>
      <path class="cls-1" d="M212.9,73.9c-3.3,36.6-6.7,82.8-10.3,119-43.3-3.7-87.1-8.8-130.1-15.7l-2.6,14.9-1.1-.7c.1-.9-1-2.2-1.5-2.7l.2-1.6c-1-.9-1.2-3.4-2.3-4.1l-1.1.9h-.7a15.1,15.1,0,0,1-1.3,2.9l.5,2.1c-1.2-1-4.9-.4-6.4-.1l-.8-1.5-3.7.3a3.3,3.3,0,0,0-2.2-.1l-1-1.6-2,.9-.4,2.1H45l-.7-1-4.9-1.7-1.6.7a4.2,4.2,0,0,0-.8,2.6l-.6.3-.7-1.3-1.3-.6-.7-1.8c.6-.9-.1-3.1-.4-3.9l.6-1c-.2-1.5-.9-4.8-2.2-5.9l-2.6.7v-.9a7.9,7.9,0,0,1-1.7-4.1l1.2-.7.4-2.7-.9-2.2-.9-.6c-1-3.2-2.3-8.6-1.3-12.1l-.9-.8.7-1.2v-.8a5.4,5.4,0,0,1-1.9-3l-1-.4a33.9,33.9,0,0,1-4.1,4.4l-1.3-.3-1,1.6-1.4.2c-.4-.5-2-2.5-1.9-3.2l-1.2-.5v-1.8l1.4-.7c.3-1.4-.6-3.4.3-4.7a7.1,7.1,0,0,1,3.1-1.3,5.1,5.1,0,0,1,0-3l-.9-.7-.4-1.4,1.2-1.6-.8-1.1.2-.9h1.3a4.6,4.6,0,0,0,.1-2.6c1.3-1.2,2.9-5.1,2.6-6.9l1-.2a11,11,0,0,1,1.1-3.5v-.8l-1-.2-1.2.6-2.4-.3-.7-.7.3-2-.4-.7-1.9,1H14l.6-1.5c-.3-.5-1.1-2.1-1.7-2.2a5,5,0,0,1-.1-3.2c0-.5-1-1.5-1.5-2l-1.4-4.7c-.6-.8-2.3-3.5-2.1-4.7L4.9,94.9c-.1-1.7-2.1-4-3.4-4.9l1.6-.7v-.4L2.1,86.6l1.1-1.7-.6-1a4.7,4.7,0,0,0-.1-3.3l-1-.6c.1-1.8-1.7-4.7-2-6.5C.6,64.8,4.1,52,5.8,43.1,73.8,57.9,143.5,67.8,212.9,73.9Z"/>
      <path class="cls-1" d="M197.5,252.5c35,3.9,72.2,5.1,107.4,6.4a6.2,6.2,0,0,0,4,3.4c2,1.2,3.9,3.7,6.2,4.2a5.2,5.2,0,0,0,2-2.4l.5-.3,1.5.4.7-.4.8.7c1.2-.3,3.9-.9,4.9-.3l1.4-.7,2.4.6v.8A9.2,9.2,0,0,0,334,267l.3.8h1.1l.9.7h1.3l.3.7,1.1.3c.2,1.1.7,2.8,2,3.1l.6,1.7.5-.3,1.3,1.5a9,9,0,0,1,2.3.2c.3,1.2-.4,2.7-.3,4a13.1,13.1,0,0,1,1.7,3.6,2.2,2.2,0,0,0-.2,1.8c.7.5.9,1.8,1.1,2.5l1,1v.8h.9l.6,1c-.6,1.4.2,3.2,1.1,4.3V297c-.5.5-.7,2.5-.7,3.4l1.5,1-.8,1.6,1.5.5.2,1.5,1,.8a14.9,14.9,0,0,1,.5,3.6l.8.7c-.8,1.7,0,4.7.5,6.5s.1,3.3.7,4.5a12.8,12.8,0,0,1-.7,2.8c.4.7,0,2.3-.3,3.2s3,3.4,2.4,5.7c1.6,1.8,3.1,4.5,2.4,6.9l1.4.6.6,1,1,.3.3,1.6,1,.8a5.4,5.4,0,0,1,.3,3.1l1.4,1.8c-28.6,1.5-58.6-.3-87.4-.8h0c-15.5-.7-33.6-1.6-49.1-2.7.2-8.8,1.2-20.8,1.7-29.7l-39.9-3.1C194.1,293.7,196.1,270.7,197.5,252.5Z"/>
      <path class="cls-1" d="M205.2,165c2.3-24.7,5.5-66,7.7-91.1,39,3.1,80.1,5.3,119.1,5.9a4.8,4.8,0,0,0,.6,3.1c-.1,2.3,1.1,5,1.6,7L333,92.3c.6,4,0,9.3.3,13.4,1,1.4,1.7,5.8,2,7.6,3,5.2,3.6,12.2,3.1,18.2.2,2.1.6,6.1.2,8.3l1.3,2.4c-.3,3-1.2,7.7.3,10.4s.9,5.5,2.7,7.4c.2,2.1-.2,5.1.8,7a11,11,0,0,0-.4,4.4C298,171.1,250.4,168.7,205.2,165Z"/>
      <path class="cls-1" d="M344.9,275h-1.3l-1.3-1.4-.6.3-.6-1.7c-1.2-.3-1.7-2-1.9-3.2l-1.2-.2-.3-.8h-1.3l-.8-.7h-1.1l-.3-.7c-1.5.2-3.7-1.3-4.7-2.1v-.9l-2.5-.5-1.4.7c-1.1-.6-3.8,0-4.8.3l-.9-.8-.7.5-1.4-.5-.6.3c-.1.9-1.3,1.9-2,2.4-2.4-.4-4.1-2.9-6.1-4.1a5.1,5.1,0,0,1-4-3.4c-35.2-1.1-72.6-2.6-107.5-6.4,2.3-28,5.4-59.6,7.7-87.5,45.2,3.7,92.8,6.1,138,6.2.6,3.2-2.4,6.6-5,8L338,180c.4,1.7,2.4,3.8,2.9,5.5s3.2,2,4.2,2.7c1,16.3,0,39.5.3,55.8l-3-.2-.3,1.4a12.1,12.1,0,0,0,1.8,2.3c-.2.9-.5,2.4-1.3,2.9l.3,1.4,1.7.6a10.5,10.5,0,0,1,.4,5l-1.3.7.3.5v2l-.4.6c.3,2.1-2,4.4-1.7,6.7a18,18,0,0,1,2.5,4C344.3,272.9,344.4,274.5,344.9,275Z"/>
      <path class="cls-1" d="M93.1,301.4c-9.8-1.6-29.7-4.6-39.6-6,6.6-38.9,12.3-79.4,19.1-118.3,43.1,6.8,86.8,11.8,130.2,15.7-3.5,39-6.9,80.2-10.3,119.3-32.4-2.6-67-7.7-99.4-10.7Z"/>
      <polygon class="cls-1" points="92.9 302.1 76.8 420.4 110.2 424.8 171.6 431.6 204.1 433.1 224.8 435.2 231.8 316.4 192.3 312.8 145 308.3 92.9 302.1"/>
      <path id="_10" data-name="10" class="cls-2" d="M31.4,178.3c.9-5.5-1.8-7.4-5.8-9.8a102.4,102.4,0,0,0-4.7-26.1c10.9-8,15.5-13.5,24.3-1.8,7.3,7.1,4.3-5.9,3.5-10.3,3.4-4.3,8.6-5.8,7.1-13.1-9.6-3.3,8.4-11.4-1.7-14.3-2.9-3.7-4.7-6.8-8.2-11.4-.1-6.1,2.2-12.1,6.2-14.1C48.9,68.7,40.8,62,48.7,51.8c1.5-4.4,6.8-4,9.4-8.9,3.5,2.3,2-3.8,5.2-3.2,9.6,5.5,8-5.5,15.1,7.1,5.7,1.1,4.5-7,10.4-1.6-.2,4,.6,1.6,3.2,3,9.4,3.9,9.1-3,10.8-10.1,2.3-3.4,12.6-3.7,12.6.9,8.9-7.6,16.4,2.1,22.1,6.1,3.2-5.6,7.2,3.8,12.2-.3,4.4-1,2.6,7.8,8.1,6.8,2,5.7,5.5,6.6,9,3.3,6,1.7,11.4-.1,15.8-2,4-.3,8.9,12.1,10.6,4.3,3.8-.3,7,1.4,8-3.6,2.7,5.3,5.4,5.4,11.2,7.7,4,1.3-2.1,5,3.3,4,3.1,5.6,4,8.4,7.3,13.8,5.5-2,8.4-4.5,14.5-1.8a231.3,231.3,0,0,1,23.8,28.6c8.8-3.8,10.4,12,16.1,11.4,4.6,8.7,5-21.9,28.5-2.2,3.2-2-.8,3.5-1.5,5.1-.3,3.8,2.1,8,5.2,10.1-.5,5.9.6,3.3,2.6,4-.9,2.3,0,7.6,2.6,9,8.5-.4-2.2,14.7,4.5,15.9-4.4,14.3,16.1,4,16.3,30,4.1,5.7,7.7,12.1,7.1,19.1,4.7,5.5,8.4,11.7,12.8,18.2,4.2,1.6,3.2,12.3,13.1,8.6,6.3-1.7,3.2,6.5,6.7,6.7,2.9,6,1.6,10.5-1,16.1-10.5,4-.8,10.1-1.2,19.8,3.1,12.7,10.2,25.6,21.3,33.2,7.9,13.1,15.7-3.7,26.7,10.1,8.5,17.4-.6,43.1,19.1,51.9,6.3-8.7,6.8,4,13,4.6,5.9,2.2,13.1,7.5,17.5-.7,13.5-5.5-2,7.6-6,10.4-11.7,3.9-25.1,5.1-19.7,22.2,0,5.3-.4,19.2-5.5,22.2-6.9-2.1-12.9,3-17-5.1-2.4-4.1-6.7,2.1-10.5,1.1-2.6.9-4,8.2-6.7,5.5-5-3.6-8.3-12.7-13.6-15.2-8.2,7-18.2-3.8-20.5-12.1,3.3-9.8-7.7,1.6-7.4-10.4-12.3,1.2-11.1-20.4-23-15.2-3.2,4-7.8,12.1-12.8,7-10,14.1-23.6-7.7-38.9-.8-13.5-.1-24.8-4.5-38.3-.1-11.9,1.3-20-6-32.2-7.1.8-9.1-5.7-9.9-13.4-11.6-3.8-3.5-8.7-13.9-14.4-8.2-6.6,10.4-24.4.5-23.4,6.2-3,6.7-12.1,1.9-14.8,6.3-7.3-2.6-10.6-8.8-9-16.8,3.1-3,7.1-3.1,9.2-9-1.4-1.4-3.9-2.3-1.2-4.3,7.8-3.1,5.4-13.7,3.8-21.1-9,7.3-21.8,1.6-16.4-12.4-5.5-9.2-9.5-17.1-12.5-26.6,3.5-4,1.3-9.6,7.1-6.1-1-3,3.7-8.5-.3-8.6,0-4.4-1.1-1.4-3.4-2.6-4-2.7-8.1-.5-10.7-4.5.6-3.6-8,6-11.4.7-7.1-1.6-13.5-6.7-10.4-15.7-8.6-9.3-6.7-20.9-13.8-27.5,1.1-16.7,11.8,2.6-1.7-19.1-1.2-4.8-6.4-5-5.7-9.7-4.5,2.7-4.6,2.9-8.9-2.1-6.1-16.6-3-.7-12.1-3.2-1.6,0-7.5-.8-9.4-2.7-2.4,3-3.6,3.7-6.8,1.5C34,180.6,32.4,189.2,31.4,178.3Z"/>
    </g>
  </g>
</svg>
