<svg xmlns="http://www.w3.org/2000/svg" width="500" height="500" viewBox="0 0 500 500">
  <defs>
    <style>
      .cls-1 {
        fill: none;
        stroke: #999;
        stroke-width: 0.75px;
      }

      .cls-1, .cls-2 {
        stroke-linejoin: round;
      }

      .cls-2 {
        fill: #5c98ff;
        stroke: #fff;
        stroke-linecap: round;
        stroke-width: 2px;
        opacity: 0.5;
      }
    </style>
  </defs>
  <g id="hucs">
    <g>
      <path class="cls-1" d="M170.8,374.3a2.8,2.8,0,0,1-.6-1.5l-.8-.9,1.1-.3c0-.6.1-2.6-.3-3a4.5,4.5,0,0,0,1.7-2.7l-.8-.3-.5-1.3.7-.6v-.9l.8.5.3-.6h.7c0-1.4,1.4-2.7,1-4.1l.9-1a3.9,3.9,0,0,1,.6-2c-.2-1.1.8-2.1,1.6-2.6l.4-.8-1.1-2.5a12.2,12.2,0,0,0,0-2.7l-.7-.6-.2-1.4c-.3-.3-1.5-1.3-1.6-1.8a2.9,2.9,0,0,0,.6-3.7l1.1-1.3c-1.5-18-3-36.7-4.8-54.5,2.9,4.2,7.8,1,10.7-1.7,9.5-.8,21-2.5,30.5-3.5,2.4,19.2,4.5,41.4,6.9,60.8a3.7,3.7,0,0,0-1,1.7,4.1,4.1,0,0,1,.9,1.9l-.4.7.2.5,1.4.7-.5.4.6,1.2-.2.6-2.8.3-2.6,2.4a2.3,2.3,0,0,1-1.5-1,4.3,4.3,0,0,0-2.6.7c-.7,1.1.1,2.9.5,4a5.9,5.9,0,0,0-1.2,2l-1.2.4c-.6.4-.7,2.6-.8,3l-1.1,1.3-.7-.3-.8.9a14.3,14.3,0,0,1-.9,2.7,5.5,5.5,0,0,1-.4,3.1h-1l-.6.5-.6-.5a4.3,4.3,0,0,1-2.7-.8,10.2,10.2,0,0,0-.8-3l-1.2.2-.2.5,1,.7-.8.4-1.1-.3-.4.5.6.9v.5l-.9.3-.3.9.3,1-.2.6H194v1.4l-.8.2v-1.2l-1.3.2-1.3-1.7-.8.2c-2.2,2.2-2.7.7-3.4,4.8h-.6l-.3-.7c-1.9-.3-3.3-2.3-5.3-2.2l-.6.4h-.6l-.8-.9-.4.9.3,1.2-.5,1.1-.8-.2v-.9l-.4-.4-1.9.5-1-.7-.6.4a2.2,2.2,0,0,0,.3,1.6l-.2,1Z"/>
      <path class="cls-1" d="M413.4,208.2c-1.4-.2-2-1.9-2.1-3.1-2-1.3-3.6-2.9-3.7-5.5-3.3-10.4-9.2-29-12.4-39.6l.4-.2.3-.8,1-.2.9,1.6h.5l.5-.5c-.1-.6-.7-3.1-.4-3.6l2,.2.2-.6c-2.7-1.9-1.7-3-.8-5.5l1.1-.9a4.6,4.6,0,0,1,1-1.8,5.1,5.1,0,0,1-.4-2.2,2.4,2.4,0,0,0,1-2.8l-.7-.4-.5-1.3c.4-.5.3-2.1.2-2.7l-1-1,.4-3.4c2.4-2.4.4-6.2.6-9.1s3.9-16,5.6-19.7h2.3c.5,1,.6,3.1,1.3,4.1a7.6,7.6,0,0,0,2.1.8c1.2-.5,2-2.4,3.5-2.5a2.5,2.5,0,0,1,2.7-1.6v-1.3a3.2,3.2,0,0,1,2.4-.9c1.5.9,4.5,2.2,5.5,3.7,5.8,6,7.2,19.4,9.8,27.3l.8,1c-.6,1,.1,2.4.7,3.1l1.1-.4,1,1.1,2,.3.8-.6.7.4c.1.5.7,1.4.5,1.9l-.6.3c-.1.6,1.4,2.2,1.7,2.6v2.1c.3.3,1.8,2.3,2.4,2.3s.6-1.1.8-1.5,2.6,1,3.2,1.6v1.2l1.1,1v1.3l-1.4.5.3,1.3h.9l.5-.6.6.8.9-.4.2,1.3-.8.6a10.1,10.1,0,0,1-1.2,3.7h-1l-.4-1-1.2.2a4.9,4.9,0,0,1,.3,2.1H450l-.7-.7-.3.7h-1l.4,1.5-.4,1h-1l-.3,1.1-.6-.3-.2-.8-1.2.3a2.9,2.9,0,0,0,.2,1.8l-.2,1.8-.5-.5h-1l.6,1.3-1.2.4-.8-.4.2-.7-.5-.4-.4.4-.9-1h-.4v1l-.9-.3a5.6,5.6,0,0,1-1,2.4l-.7-.3v-.8l-.8-.2.2.9-.7,1.2v1.9l.8.5-.4.7-1-.2-.3.6-.6-1-1.7.2-.4-.5.6-.4v-1.1l.8-.4-.9-.4-.7-1.9-.8-.7.2,2.3-.3.6-.9.2-.6,1a3.6,3.6,0,0,1,.6,3.6,12.2,12.2,0,0,1-.4,3.4l.7.7v.7l-.6.8v.5l-.6.8v1.1l-.6.3-.4-.5.4-.9-1.1.3-.3.7h-.5v-1h-.5v1l-.4.2.3,1.5-.4.7v1h-.4l-.3-.9-1.2-.4.5,1.5-.5.6-.9-.7-1.2.3v2l.6,1.2v1h-.5a7.3,7.3,0,0,1-1-2.8c-.6-.2-1.5.3-2,.5s-1.5,1.7-2.1,2.6v.9l-.3.5v1.2l1.3,1.4-.4.9-1.2.7a3.8,3.8,0,0,0,.4,2.6l-.8,2.4-.9.3a32.8,32.8,0,0,0-.4,6.3l-.3.3Z"/>
      <path class="cls-1" d="M232.3,276.2l-20.2,3.5-.2-1.5c-9.5,1.1-21,2.7-30.5,3.5a5.7,5.7,0,0,0,1.2-1.8c1.5-.4,2.1-2.4,2-3.7s2.6-6.2,3.3-7.5,1-5.6.5-7.8h.7v-1l-.6-.5a28.6,28.6,0,0,0-5.2-16.5c.5-1.7-1.2-3.4-1.6-5a7.5,7.5,0,0,0-.6-8.6v-1.1l.7-.3a17.5,17.5,0,0,0,1.2-3.2,9.4,9.4,0,0,1,.8-3.4,7.1,7.1,0,0,0,0-2.9c.5-1.2,0-3.2-.4-4.4s2.1-1.5,2.5-2.6l-.4-2.3.2-.6h.5a2.9,2.9,0,0,0,1-1.5l.9.3,1.1-.5.2-1.7a4.3,4.3,0,0,0,1.3-2.8c.5-.1.8-1,1-1.3l.5-.3v1.4l-.8.6.6,2.1-.5.9c.5,1.2-.1,3.3.1,4.6l.7.2a32.6,32.6,0,0,0,.5-4.5l.7-.3c.2,1.2.1,3.5-.7,4.6l.2.7.9-.4c.9-1.8,1-4.7,1-6.6s-1-3.7-.4-5.1l1.4-.9v-.7c.9-1.1,2.7-1.3,3.9-1.2l.3-.6c-1.9-.2-2.9-2.2-2.9-4a11.5,11.5,0,0,1,1.9-2.6l-.6-1.1.6-.3c1.3.2,2,.2,2.6-1.1,1.8.5,3.8,2.4,5.7,2.6l.9-.3c2.3.2,2.4,1.9,3.6,3.3l2-.5a20,20,0,0,0,6.6,2.7,3.3,3.3,0,0,0,1.5,1.1c.3.3.3,1.5.3,1.9l1.5,1.7v.9l.8.8-.3.4-2-.5c-1.1,3.2,3.1,5.2,3.2,8.2a5.7,5.7,0,0,0,0,2.6c-.2,1.6.5,4.7-.2,6.2l-.5.2-.4,1.2-.7-.2-.4.3c-.4.7-.3,3.8-.4,4.5l-1,.6-.2,1.1a11.1,11.1,0,0,0-2.5.5c-.8,1.4-.5,3.7-.9,5.4s.9,1.2.8,1.6l1,1.2h1.8l.4,1,.8-.3a16.8,16.8,0,0,1,1.5-3h.7a11.1,11.1,0,0,0,.7-2.6,4,4,0,0,0,.9-2.1c.4-1.4,2.2-2.5,3.5-2.9a2.3,2.3,0,0,1,2.2-1.5,10.9,10.9,0,0,0,2.5,1c1,.8,1,2,1.9,2.6s1.5,5,1.8,7.1c2.1,3.6,2.1,8.8,4.1,12.4-1.6,2.9.9,7.5-1.1,10.2l-1.2-.5.4-.9v-.5l-1-.6a4.7,4.7,0,0,0-1.5,1.3l.4,1.3-.7,1.2c1.4,5.8-4.1,3.7-3.2,8.7a5.8,5.8,0,0,0,.2,3.2,13.1,13.1,0,0,0-.9,1.7C233.2,271.6,232.1,274.3,232.3,276.2Z"/>
      <path class="cls-1" d="M120.4,175.9c.4,0,1.5-1.2,1.8-1.5l2.8-1.1a20,20,0,0,0,3.7-4,10.9,10.9,0,0,1,3.1-.3l.7-.6c2,.5,4.2-1.3,4.9-3.3a24.7,24.7,0,0,0,2.9-1l.4-1.7,1-.7.2-.7,1-.4L144,159h.9c1.1-.8,1.5-2.9,2.3-3.7s2.3-1.7,3.3-2.1l3.2-.7.8.2.2-.4,1.2.4.4.9-.2.6-2.8.6v1.2a32.7,32.7,0,0,1-3.3,3.2c-.4.3-.4,1.3-.4,1.8a3.2,3.2,0,0,1-1.5,1.3c.3.4-.2,1.6-.3,2.2l-.8-.3.5,1.3c-.4.5-.3,2.6-.3,3.1l1.2-.6v-.8c.6-.2,2.2-2.1,2.7-2.4l.4.3a20.7,20.7,0,0,0-1.5,2.5l.4.3.9-1.7a11.9,11.9,0,0,1,3.3-.4c.4.1,2,1,2.5.7l.4.8.8-.2.2.7.9.2.3,1.5c.6.2,1.1,1.5,1.4,2h.6v.7l1,.6v.8l.4.7a8.7,8.7,0,0,0,4.7-1.2c.6.2,1.3,1.2,1.7,1.8l.7.2c.5-.2,1.3-1,1.9-.9a3.7,3.7,0,0,1,1.2,1.3c.3-.3,1.3-2.3,1.9-2.3l.3-1c1.3,0,3.3-3,4.4-3.4l.8.3a3.1,3.1,0,0,1,2-.6l.2-.4a7.2,7.2,0,0,0,4.1-.5c2.9,1.1,5-3,8-2.1l1.1-.7a13,13,0,0,0-.1,6.5l.6.4.6-.2c.6.7,2.4.7,3.1.3l.5-.8,1.2.3v.6l.7.2c.8-.5,2.5-1.7,3.6-1.1l1,1.8a5.2,5.2,0,0,0,.6,2.8l-.4,1.2.3.4H209l1.3,1c.1,1.2,1.4,1.9,2.4,2.3v.5l-1.8.7-.9-.6a3.5,3.5,0,0,1-3,.1l-.6.4c-.6-.4-1.8.1-2.3.3l-.3-.8h-1l-.7-.3-.4.3.2.8-.5.5a7.3,7.3,0,0,0,.3,2.2l-.2.5-1.5-.5-.2-.8-1.2-.3a8.8,8.8,0,0,0-1.2-1.5,9,9,0,0,0-2.8-.4,7.3,7.3,0,0,0-3.2-.6l-.6.3-.8-.2c-.9.9-1.4,2.5-2.4,3.1a4.8,4.8,0,0,0-2.9.4l-.3.6c-1.8-.8-4.3-.5-5.4,1.2s-.1,2.5-.4,2.8a5.6,5.6,0,0,0-2,1.2v.7l-.7.3v.7l-.4.3v.7l-.4.4-1.1-.8V192l.6-.4.2-1.4.8-.4a4.1,4.1,0,0,1,.5-1.9l-.2-.8-.7.2-.5,1.3-2-.4c.4.9-.3,2.6-.7,3.3l-1.7.8c0-1.4-.6-3.4.1-4.8l-.4-.2c-.5.7-.8,2-1.3,2.9a4,4,0,0,1,.1,1.9c-2,1.3-2.5,6-3.4,8.1s-2.3,4-2.8,6.1l.2.7a5.3,5.3,0,0,1-2.4-1.8c-.1-1.2.5-2.7.7-3.9l-.4-.7c-.3.5-1.8.8-2.3.9l-.5-.7.8-2.7a4.9,4.9,0,0,1,0-2.7l-.5-1,.3-.7c-.4-1.3-2.1-1.4-3.1-2.1l-.7.3-.9-.4-.4-1,.5-.8a5.5,5.5,0,0,0-1.3-1.7h-2.3c-.7-.5-2.2-.4-3-1a3.3,3.3,0,0,0-1.6.7,5,5,0,0,0-2.9-.7c-5-3.7-12.7-3.1-18.4-5.7a7,7,0,0,0-1.4-3.6l-1.4-.2-.3-.7-.6.3Z"/>
      <path class="cls-1" d="M35.7,248.7c-.2-12.5.6-30.4-.2-42.8a18.5,18.5,0,0,0-3.3-2.1c-.3-1.3-1.8-3-2.2-4.3l.3-.9a7,7,0,0,0,3.7-7.4l.4-2.1c-.7-2.8-.4-5.8-2.4-8.3a12.8,12.8,0,0,0-1-4.3,47.3,47.3,0,0,1,.4-6.5l-1-1.9a34.2,34.2,0,0,0-.1-6.4c.3-4.6-.1-9.9-2.4-14-.3-1.3-.8-4.7-1.6-5.8-.1-3.2.2-7.2-.2-10.3l.9-1.8c-.5-1.7-1.3-3.8-1.2-5.4a3.5,3.5,0,0,1-.5-2.4c7.3,0,20.6.3,27.9-.1v-8.7l1.7.6,1.1-.5a2.4,2.4,0,0,0,1.8.9c.4,4.3,1.9,8.8,1.9,13.1a10.5,10.5,0,0,0,3.1,1.7l1-.4,1.6.3.2.9a47.3,47.3,0,0,1,5.3.1l.8.8c0,.6-.1,1.7.3,2.1l4.3-1.3.5-1.1c1.9-1.3,4.2-.5,6.1-.9a6.1,6.1,0,0,0,4.6,1.6l.2,1.2-.8.3-.2,1h2.5l.8.9c-.4,1.1.6,3,1.2,4l1.2-.5c-.1-.6-.3-1.8.2-2.2s2.5-.5,2.8-.2l.8.8.2,1.6,1.3.2.5.5,1.9.5.3,1.3.9.6h.8l.2.8,1.3-.2.7.3a5.3,5.3,0,0,0,3.3-1.9c.6-.9,2.2-1.5,2.7-2.5l1.6-.4.4,1.4.8.5.2,1.2.4.2,1.8-.7c.8.7,2.9.3,3.8,0a3.1,3.1,0,0,0,1.9-.2l1.5.2a9.3,9.3,0,0,0,3.2,2.4l1.2-.7h3.8a4.9,4.9,0,0,0-2.4,1.8c-1.2,1.3-4.4,2.8-5.8,3.8a21.7,21.7,0,0,0-8,4.7,4.2,4.2,0,0,0-1.9,1.6c-2.8,2.4-4.9,6.5-7.2,9.3a39.1,39.1,0,0,0-5.8,5.7c-1.7,1.7-4.7,3.3-5.1,5.9l-1.1.4c.2,3.7.7,9.7.5,13.4l-.8,1.1h-1l-.4.8-1.1.3c-1.2,1.7-3.7,1.9-3.3,4.6a5.5,5.5,0,0,1-1.4,1.9c-.1.5-.5,2.2-.2,2.7l1.9.4a21.9,21.9,0,0,1,1.6,3,8.4,8.4,0,0,0-1.2,3.1l-.3.2.3,1.5-.3.5a5.7,5.7,0,0,1-.1,2.9l.6,2.8a2.8,2.8,0,0,0,.1,2,4.5,4.5,0,0,0-.4,2.6A6.7,6.7,0,0,0,90,220l1.3,2c2.2.6,3.9,1.1,5,3.3,1.6.3,4.3,1.2,5.2,2.7a11.9,11.9,0,0,0,1.5,3.5c1.3.7,2.8,2.3,4,3.1s2.7,1.3,2.9,2.2a2.9,2.9,0,0,1,1.1,1.6l.4.2c.5,1,.2,2.5,0,3.6l.6,1.4-.3,1.7.6,1.3C87.2,247.6,61.1,248.4,35.7,248.7Z"/>
      <path class="cls-1" d="M390.4,222.7c-2.6-2.4-2-3.6-1.4-6.5l-.4-.6c.4-.8-.4-3-.7-3.9s-.8-5.6-.9-8c.2-.7.8-2.1.4-2.9a11.4,11.4,0,0,0,.9-3c-.4-1.5.7-3.4.1-4.8s.7-2.9-.1-3.9-1.1-3.9,2-4.7c1.5-2.9,2.7-2.9,2.5-6.8l-1.9-3c.4-1.5.8-4.3-.2-5.5a2.5,2.5,0,0,0,.3-2.2,11.7,11.7,0,0,0,.4-3.2l-.7-.9a2.7,2.7,0,0,0,1.3-1.5l.7-.3.6.5h.6l1.3-1.4c3.2,10.7,9.1,29.2,12.4,39.6,0,2.6,1.7,4.2,3.7,5.5.1,1.2.7,2.9,2.1,3.1v.9l.6.8c-.4.6-.5,3.1-.6,3.8l-.8-.3c-.3.2-1.9.6-2.1,1v1.1l-1.5.6v.4l.3,1.1a2.9,2.9,0,0,0-1.4,1.3C402.8,220.4,395.2,221.7,390.4,222.7Z"/>
      <path class="cls-1" d="M285.6,256.2c1.5-1.8,4-3.6,4.8-5.9,2.3-1.8,4-3,4.4-6.3a6.7,6.7,0,0,0,1.9-1.4c.4-1.5-1.2-3.1-1.5-4.4a1.8,1.8,0,0,1-1.5-.6v-1.3l-.9-1.2.4-1-.4-2.9a35.4,35.4,0,0,1,18.1-4.6l2,1.3H314l.4.4c1.2-2.8,5-2.3,7.4-2.8l.6.5.6-1.2,1.1-.2,1.1-1.2h.7a7.1,7.1,0,0,1,1.3-3.1l1-.3c0-.4.1-1.4.5-1.7a9.3,9.3,0,0,0,2.4-.3c1.1-2.3,0-5.7-1.8-7.3v-.5l.4-.6.9.2a3.7,3.7,0,0,0,.3-2.1l-1-.4.7-1.1a2,2,0,0,1-1.2-.6l-.5.7.5.4v.7l-.8.3L328,206l-.9-.5v-.6c1.5-2.1,4.3-3.8,5.2-6.4a5,5,0,0,0,1.5-3.7l-.3-.3c.7-2.1,4.4-7.6,5.4-9.7s3-2.5,3.4-3.5l2.5-1.5c6-.4,14.3-3.4,20.4-4.8a4.2,4.2,0,0,1,.3,3.3,4.4,4.4,0,0,0,.9,1.8c0,4.3,3.4,8,3.3,12.3-.7.7-.7,3.2-.7,4.1s1.1,2.6,1.8,3.6a5.4,5.4,0,0,0,1.1,2.6c.1,1.4-.5,3.3.2,4.6l.4.2.6-1.4.6.2c3,5.6,3.1,13.2,5.1,19.3s0,10.6.2,15.2c2,5.3,1.3,15.1,4.8,19.6a41.5,41.5,0,0,1-2.7,3.2l1.2,1.8a5.4,5.4,0,0,1-1.5,4l.4,1.2-1.5-.4a8,8,0,0,1-.7-3.4c-4.2-1.7-10.2-3.6-14.2-5.5l-.9-1.3-1.3.3c-.7-.4-1.9-.5-2.5-1.1s-2.2-3.3-2-5.2l-1.1-.7-.2-.8-.8-.6a2.6,2.6,0,0,1-1.9-.5,6.1,6.1,0,0,0-1.8-2.4c-21.3,4.9-43.9,9.2-65.4,13Z"/>
      <path class="cls-1" d="M379.4,271l-.2,2-.7.3a15.1,15.1,0,0,1,.5-2.8Z"/>
      <path class="cls-1" d="M375.9,279.5l-.3-.5c.7-.9.4-2.6,1-3.6l.4-.2v.3l.9-.6.8,1C378,276.9,377,279.2,375.9,279.5Z"/>
      <path class="cls-1" d="M280.4,294.7a5.8,5.8,0,0,0-2.1,1v.6a18.2,18.2,0,0,1,1.5,2.7c-.4.5.3,2.9.4,3.5a22,22,0,0,0-1,8.9l-.5.3.2.9c-.3.7,0,1.8-.5,2.6l.5,1.2c-.3.3-.3,1.6-.5,2.1s-2.4,2.9-2.9,4a10.6,10.6,0,0,1-3.6,3.4,4.4,4.4,0,0,0-1.6-1c-1.1.5-1.6,2.3-1.6,3.3h-1.2l-.4.4v.9l-.5.4c-.3.8.2,2.3-.2,3l-.8.3v.6l.9.7a4.7,4.7,0,0,0,.3,1.7h-1.2l-.2,1.1-1,.5v-1.7c-.2-.6-1.6-1.1-2-1.3a4.9,4.9,0,0,0-1.4,4.3l-.9,1.1a27.2,27.2,0,0,1,.9,4.3l-1.3.9-.2,2.9c-.8.4-2.8,1.5-3.7,1.4a9.9,9.9,0,0,0-2.5-2.9,8.5,8.5,0,0,1-2.4-.8,9.9,9.9,0,0,0-1.2-3.1h-.6l-2.6,2.1-.5,1.1a3.7,3.7,0,0,0-2.4.7c-.7-.8-2.9-1.4-3.9-1.6l-1.4.5-.7,1.3a4.3,4.3,0,0,1-2.8-1.3,4.9,4.9,0,0,0-2.3-1.5,7,7,0,0,1-4.3-.2,6.6,6.6,0,0,0-3.6-5.3l-.2-.6-.8-.2a8,8,0,0,1-2.2,1.2,7.9,7.9,0,0,1-2.1-1l-1.1.5c-2.3-18.9-4.5-40.5-6.7-59.2l20.3-3.5v2.4c.5-.9,1.7-.9,2.4-1.6a4.7,4.7,0,0,0,3.3,1.6c.9.3,2.1,1.5,3.1,1.7l1.3-.4v-1.1h.6l.5,1h.8l-.3.8-2.7.9-.5.9.7.5.4-.3.7.2.4-1a5.6,5.6,0,0,0,2.3-.7l.7.9c1.6.6,2.5,1.4,4-.3a12.4,12.4,0,0,0,4.5-2.5c2.9.3,5.9-.4,7.2-3.2,1-.9,2.7-2.7,2.9-4.1l2.5-1.2a6.8,6.8,0,0,1,1.5-1.8c2.6-.5,4.8-2.9,7.2-3.7,1,5.4,2.4,13.5,3.3,18.9v.2C279.1,286.5,280.1,292,280.4,294.7Z"/>
      <path class="cls-1" d="M285.6,256.2l1.2,5.8c21.4-3.8,44.1-8.1,65.4-13a5.3,5.3,0,0,1,1.8,2.4,3.2,3.2,0,0,0,1.9.5l.8.6.2.8,1.1.7c-.2,1.9.8,3.7,1.9,5.2s1.9.6,2.6,1.1l1.3-.3.9,1.3c-1.4,1.5-1.6,3.9-1.9,5.8a5.5,5.5,0,0,0-1,2.2l-1.3,1.5a3.2,3.2,0,0,0,1.3,2.2v.7c-.3.3-.3,1.3-.3,1.8l-.8.6c0,.4-.1,2,.3,2.2a3.1,3.1,0,0,0,.3,1.9l.5.4.8-.2.9.3.6,2.4.3.3,1.4.2c.6,1.2,2.1,2.1,3,3.1h.6l1.2,1.8c-1,.4-1.6,1.5-2.4,2.1s-1.6,2.5-2.4,3.5l-.2,1.7c-.8,1.1-2.9,1.3-3.6,2.7-.3-.4-1.5-.5-1.9-.6a3.8,3.8,0,0,0-3.1,3.5c-23.9,5.3-49.2,9.9-73.3,14.1-1.8-10.4-3.4-21.4-5.2-31.8v-.2c-.9-5.4-2.3-13.5-3.3-18.9,2-1.2,4.6-3,5.3-5.3h.7l.2.7A19.5,19.5,0,0,1,285.6,256.2Z"/>
      <path class="cls-1" d="M365.1,174.9c7.5-1.7,18.4-5.2,25.9-6.6l-.4.8c1,1.3.6,4,.2,5.5l1.9,3c.1,3.9-1,3.9-2.5,6.8-3.1.8-2,2.4-2,4.7s.4,2.8.1,3.9-.5,3.2-.1,4.8a11.4,11.4,0,0,1-.9,3c.4.7-.1,2.2-.4,2.9.1,2.4,1,5.6.9,8a10.4,10.4,0,0,1,.7,3.9l.4.6c-.6,2.9-1.2,4.2,1.4,6.5l-11.8,2.7c-2-6.2-2.1-13.7-5.1-19.3l-.6-.2-.6,1.4-.4-.2c-.7-1.3-.2-3.2-.2-4.6a8.5,8.5,0,0,1-1.1-2.6c-.7-1-1-2.8-1.8-3.7s0-3.4.7-4c.1-4.3-3.3-8-3.3-12.3a3.4,3.4,0,0,1-.9-1.8A3.3,3.3,0,0,0,365.1,174.9Z"/>
      <path class="cls-1" d="M165.1,266.2c-13.8,1.2-28.7,2.3-42.6,3-.6-3.8-4.2-3.3-6.6-5.4-.3-2.6-2.2-5.8-2.2-8.4.5-.9,1.8-3.1,1.3-4.1l-1.3-1.4a3.5,3.5,0,0,0-1.2-2.1,4.9,4.9,0,0,0-.6-2.3l.2-1.7-.6-1.3c.2-1,.5-2.7,0-3.7l-.4-.2A3.6,3.6,0,0,0,110,237c-.2-1-2.1-1.9-2.9-2.2s-2.6-2.5-4-3.1-1.3-2.6-1.5-3.5-3.5-2.4-5.2-2.7c-1.1-2.2-2.8-2.6-5-3.3l-1.3-2a6.7,6.7,0,0,1-1.9-1.4,5.5,5.5,0,0,1,.4-2.6,3.4,3.4,0,0,1-.1-2l-.6-2.7a7.6,7.6,0,0,0,.1-3l.3-.4-.3-1.6.3-.2a8.4,8.4,0,0,1,1.2-3.1,17.3,17.3,0,0,0-1.6-3l-1.9-.3c-.3-.6.1-2.2.2-2.8a8.4,8.4,0,0,0,1.5-1.8c-.5-2.8,2-3,3.2-4.6l1.1-.4.4-.7h1.1l.7-1.1c.2-3.8-.3-9.8-.5-13.5l1.1-.3a4.2,4.2,0,0,1,.7-1.8v1.2h.4l.5-1.2c2,2.3,4.7,1.4,6.7-.3a6.7,6.7,0,0,0,5.1-2.6h1.1c1.5-.7,3-2.3,4.5-2.7l1.2,1.1v1.7l-.7.9a7.4,7.4,0,0,0-.2,2.6l-1,1.6.8.5.9-1.1a2.4,2.4,0,0,0,1.5-1l2,1.4c.6.2,2.3.7,2.5,1.2l.6-.2.3.7,1.4.2a7.1,7.1,0,0,1,1.5,3.6c5.5,2.6,13.3,2.1,18.4,5.7a7.1,7.1,0,0,1,2.8.6,3.1,3.1,0,0,1,1.6-.6c.8.5,2.2.3,3,1h2.3c.6.2,1.1,1.1,1.3,1.6l-.5.9.4,1,.9.3.8-.2c.8.6,2.6.8,3,2.1l-.3.6.5,1a5.3,5.3,0,0,0,0,2.8l-.8,2.7.5.6a5.2,5.2,0,0,0,2.3-.8l.4.6c-.1,1.2-.8,2.7-.7,4a4.8,4.8,0,0,0,2.4,1.7v2.1a15,15,0,0,0-2.5,1.5,5.1,5.1,0,0,1-1.5,3.3v.9l-.7,1.1c0,.5.1,1.6-.4,2l.2.8-.5.9.8.5h.9l.3-1.6a3.1,3.1,0,0,1,1.8-1.1l1.6-4.5a4.1,4.1,0,0,0,2.8-1.5l.8,1.1.2-.8c-1.2-2.4,1.9-4.6,1.2-7H169l.5-.9-.2-.9.6-.5v-.6h1.5v.8a4.4,4.4,0,0,0-.7,3.4l-.9.9c-.1,1.3-1.2,2.6-.9,4-1.8,1.8-1.5,5-2.6,7.1s-.8,6.4-.4,9.4a9.6,9.6,0,0,1-1.7,1.8,2.9,2.9,0,0,0-.1,1.6l-.4.9.2,1.2c-1.2,2.4,1.4,5.5-.2,7.9.1,2.2-.9,5.1-1.5,7.1a16.2,16.2,0,0,0,.2,3.8,7.4,7.4,0,0,1,.5,3.3c1.3,1.3.4,3.9,2.1,4.9S164.1,264.1,165.1,266.2Z"/>
      <path id="_04" data-name="04" class="cls-2" d="M318,188.5c3.3-1.4-.5,5.8,3.8,4.5,6.3-3.4,9.3-3.6,15.2-5,4.4-24.4,28.6-12.9,26.7-35.4,4.4-6.2,1.8,17.6,9.2,15,7.6,5.2,2.9-6,8.8-6.4,7.5-3.3,3.7-13.8,7.9-19.4-.6-3.2,2.6-3.9-2.7-4.3-1.7.7,0-3.9-4.1-2.5,2.2-16.6,7.8,5.6,17.3-3,14.5,23.4-17.7,28.9-13.4,53.4-2.1,8.4-2.2,5-8.6,9.4-.1,5.6,11.1,13.7,1.3,17.7-21.6,4.1-1.4-18.9-14.9-15.7-8.3-3.1-5.2,12.7-12.4,18.4-.6,4.1-10.6-2.5-6.7,2.5,3.6,8.4-1,14.5-6,12.9-5.7,9.4,3.5,4.7-2.7,12.6-1.9,2-3.3,2.4-4.9-.6.2,14-4.5-5.3-7,2.3-5.6,2.5,1-2.9-2.1-4.2-5.1.9-3.8,2.8-7.8,7.2,6.3,2.4,4.9,16.4-1.2,6.9-9.5-7.2-3.9-9.1-13.6-3.2-6.1-9.1-22.4,20.3-24.7,22.4,2.1,7.9-7.9,2.7-5.3,9.7,2.8,9-7.7-1.4-8.2,2.3-3.8-.2-6.4,5.6-10.8,4.3-6.5.8,2,7.2-6.6,5-2.6,4.3-4.7,6.4-10,4.5-5.4-3.4-4.9,7.4-11,7.5,0-3.8-1.6-3.1-4.5-4-14.2-1.1-3.1-17.5-20.8-15.4-13.7-18.7-14.1,6.6-24.1,0-5-11.7-10.7-41.1-23.3-50.8-27.5,23.3-.8-33.3-9.8-37.8,4.4-4.6,1.2-9.9,2.8-14.3-1-5.8-6,.6-8.1-2-6.9-2-9.2-2.1-16.5.9-12.2-.8-8.8-9.8-13.8-3.5-5.4-2.2-16.2,4.9-13.1-5.8-6.9-5-9.3-3.4-8.4-13,2.4-11.3,11-5.4,12-11.7,2.7-3.7,2.5-.1,5.5.2,7.3,12.6,13.3-11,23.3-15.4-16.3-12.1-7.9-7.5,2.3-12.6-6.8-5.7-13.7-11.8-10-21.5-6.3-.1,4.4-2.3-3-11.1,7.2.6,6.2-12.2,11.2-16.2,7.2-5.5,27.7-.6,21.8,8.7-.9,3.3,6.5,4.7,8.2,2.7,1.9.8-1.8,2.9,1.1,2.6,6.5,2.7.6,6.1,1.4,9.5,4.3,1.3,4.4-6.8,7.7-7.5,3.7,2.2,9.4,14.8,12.7,11.7,14.5-1.9-1,6.4,12.8,10.8,6.6,3.1,1.9,5.5,3.2,11.1s3.2-9.8,7.4-4.9c-1,2-1.2,5.2,1.3,2.7s3.2,1.1,5.8,1.4c-.4.2-.8,9.9,2,4.9.7,2.8,0,9.3,4.1,5.6-.2,7.4-1.3,7.7,8.5,8.5,3.4.2.8,8.2,5.4,1.9,6.7-2.4,12.1-3.4,15.9,3,.4-10,13.2-4.7,16.7-.1,1.9-.7.6-4,3.3-3.9,2.9-3.2,2.3,1.1,1.2,2.6,2.7,2.1,3.8,2.5,3,5.2s4.8-4.1,5,0c-2.5,3.7,5,16.3,8.8,16.2.4,2.5-4.6,6.3,1.5,3.9-.9,11.4,8.9.5,5.7,7.1,6.2,5.5,10.6,14.2,17.9,9.9C311.7,186.8,315.3,192.7,318,188.5Z"/>
    </g>
  </g>
</svg>
