<svg xmlns="http://www.w3.org/2000/svg" width="500" height="500" viewBox="0 0 500 500">
  <defs>
    <style>
      .cls-1 {
        fill: none;
        stroke: #999;
        stroke-width: 0.75px;
      }

      .cls-1, .cls-3 {
        stroke-linejoin: round;
      }

      .cls-2 {
        opacity: 0.5;
      }

      .cls-3 {
        fill: #5c98ff;
        stroke: #fff;
        stroke-linecap: round;
        stroke-width: 2px;
      }
    </style>
  </defs>
  <g id="hucs">
    <g>
      <g>
        <path class="cls-1" d="M225.4,161.1c-7.1.5-12.4-3.8-11.4-11.4L204,133l-4.8.5-8.1,8.1-12.4-.5c1.5,2.4,3.8,7.2,3.4,10.5,2.8,3.8,10.9,14.3,11.9,19.1,1.9.9,9,1.4,10.9,1.9l-3.3-5.7,3.3-.5,1.9,5.7,4.8-.5c1.9,2.4,6.2,7.2,9.1,8.6s10.9.5,13.8-1.9C230.2,174,225.4,166.4,225.4,161.1Z"/>
        <path class="cls-1" d="M488.5,381.8c-5.2-3.3-13.3-11.4-14.7-17.6l-6.7-2.4-2.9-12.9-10.9-12.8c-13.4-7.2-45.8-24.8-57.2-34.4l-3.4,1.5c-2.8,6.6,3.8,19.5,6.7,25.2l-6.7,11.5c-3.8,2.4-9,9-10.9,13.3,5.2,9.1,13.8,28.6,17.1,38.6.5,4.8,0,28.1,3.8,31.5,3.4,1.9,19.6,14.3,23.4,12.9s5.7-10.5,6.7-13.9L450.9,409l21.9-3.8c4.3-3.4,19.1-12.4,19.5-18.6Z"/>
        <path class="cls-1" d="M367.9,241.7c-1.9-3.8-11.9-10.5-15.7-12.9a82,82,0,0,0-15.2,1.9c-3.8-3.3-7.2-10.5-11.5-13.3h-6.2l-2.8,7.1c.4,7.2,8.5,14.8,14.3,17.7l5.2-.5c1.9,4.8,4.8,14.3,5.3,19.1,1.4,1.9,9,2.8,10.9,3.3,3.8-2.4,12.9-2.9,17.2-2.9,2.4-1.9,9-6.6,9-10.5C377,248.4,370.3,243.6,367.9,241.7Z"/>
        <path class="cls-1" d="M295.5,198.8l-3.3-2.9c-5.3,1.5-21-3.8-25.8-6.2v4.8c-1.4,1.4-2.4,4.8-2.8,6.7,9.5,1.4,29,5.7,37.1,10.5l9.1-3.8,2.9-4.8C311.7,202.1,297.4,199.3,295.5,198.8Z"/>
        <path class="cls-1" d="M295.5,224.1l-9.1.4c2.9,3.8,7.7,11.9,7.7,16.7l5.7,1.9,4.8-2.4,2.8-5.7C305,232.2,299.3,225.5,295.5,224.1Z"/>
        <path class="cls-1" d="M84.4,62.5,65.3,59.1,53.4,65.8l-4.8,9.1C51,82.5,61,84.4,64.3,91.1c3.4.5,10,2.8,12.4,5.7,7.2-3.8,10.5-7.6,10.5-16.2C91,74.4,88.2,67.2,84.4,62.5Z"/>
        <path class="cls-1" d="M17.6,79.2,12.9,83c-1,2.4-1.9,6.7-1,9.5l2.9,1a23.1,23.1,0,0,1,3.8-7.7l6.2-1.9a13.6,13.6,0,0,1,2.4-9.5l-4.3-1.9Z"/>
      </g>
      <g id="_20" data-name="20" class="cls-2">
        <path class="cls-3" d="M499.9,377c-1.5-5.7-8.1-5.7-11.5-8.6-2.4-1.4-1.9-4.3-4.3-5.2-.9-3.8-1.9-8.1-4.7-11s-6.7-.5-6.7-2.8c0-4.3.5-8.6-2.9-11.5s-7.1-8.6-11.9-11.4c-3.3-3.8-8.6-5.7-13.3-8.1s-8.1-4.8-12.4-6.2-8.1-2.9-12.4-2.9c-2.4-.9-3.8-3.8-6.7-4.3-23.3-24.3-38.1,0-20.5,22.4-2.4,3.4-5.7,7.7-7.1,12-4.3,0-6.2,4.7-9.1,7.6s-5.2,9.5-4.3,13.8,1.9,7.6,4.8,10,2.9,1,3.3,2.9c1.5,5.2,1.5,11.4,5.3,15.7.9,5.2,4.3,9.5,3.3,15.3s-1.4,11.9-1.9,18.1c1,4.7,3.3,10,6.7,13.3s8.6,2.4,11.4,6.2c1.9,1,5.3,1,5.3,3.8,6.6,13.4,21.4-10.5,21.4-17.6,1.4-2.9,4.3-3.4,7.2-4.8s2.3-4.3,5.2-4.3,4.3-2.4,5.7-3.8c4.8-7.6,7.2.5,17.2-4.8,6.7-3.8,13.8-7.1,19.5-11.9C490.8,391.8,501.3,387,499.9,377Z"/>
        <path class="cls-3" d="M352.1,266.9c2.9-1.9,5.3,0,8.6,0s4.3-2.9,7.1-2.4c8.6-1.4,16.7-12.8,12-21.4-1.9-4.3-6.7-4.3-9.6-7.2-2.8-.9-3.3-4.3-6.2-5.2s-3.8-5.3-6.2-7.2c-12.8-9.5-20.9,6.2-23.3-4.3-.5-4.7-5.3-7.6-8.6-10-7.6-3.3-13.8,3.4-15.7,10-3.8,8.6,2.4,20.1,10.5,24.4,2.3,1.4,4.7,4.2,8.1,2.8,1.4,5.3,0,3.8-3.4,6.2-1.4,1.9-4.3-.5-6.6,1-3.9,2.3-9.1,3.3-12,7.1-5.7,5.7,2.4,14.8,9.6,12.4,4.7,0,10.5,1.9,12.8-3.3s-2.3-10,4.3-2.9C338.3,270.2,345.9,269.3,352.1,266.9Z"/>
        <path class="cls-3" d="M276.3,207.3c1.5.5,3.4,1.9,5.3.5,1.4,2.4,3.8,1.9,5.7,2.9,4.3,1.9,8.6,5.7,14.3,5.2s9-2.9,12.4-6.2,5.7-2.4,5.7-5.7c1-6.2-3.8-10.5-9.5-11.4-3.8-.5-8.1.4-11.5-1.5-9.5-10.5-7.1,1-18.6-4.3-4.2-.4-6.6-4.3-10.9-3.8-7.2-2.8-6.7,4.3-9.1,7.6C247.7,204.5,264.4,208.3,276.3,207.3Z"/>
        <path class="cls-3" d="M304,242.1c7.6-7.6,1.4-17.1-5.3-23.3-6.2-3.4-15.7-6.2-21.4-.5-6.2,10.5,5.7,11.9,3.3,16.2,0,5.2,2.4,12.9,9.1,11.9,2.4,0,4.7,1.4,6.6,0S302.1,245,304,242.1Z"/>
        <path class="cls-3" d="M234.4,173c0-2.4-1-5.2-3.3-6.2a12.1,12.1,0,0,0-1.5-5.7c-.5-3.3,1.9-8.1-2.8-10-1.9-1.4-4.3,1.4-5.8-.5s0-2.8-.9-4.3-2.9-4.7-4.8-7.6-.5-4.8-1.9-7.2a55.6,55.6,0,0,0-5.7-7.6c-9.1-5.2-14.8,5.7-20.5,10-5.7,0-18.6-3.8-18.1,5.7.9,4.3,5.2,4.3,3.3,9.6.5,3.8,4.3,6.2,3.8,9.5s2.9,3.4,3.9,5.3c.4,4.7,1.4,10.9,7.6,11.4,3.3-.5,6.7-.5,10-1a15.4,15.4,0,0,0,8.1,2.4c2.4,1.5,3.3,4.8,6.7,5.7a9.8,9.8,0,0,0,7.1-1.4,5.4,5.4,0,0,0,4.3,1.9C228.7,183,234.9,178.7,234.4,173Z"/>
        <path class="cls-3" d="M97.6,66.7C96.2,62,94.3,55.8,89,54.3c-2.4-2.3-5.2-2.8-8.1-2.8s-4.7-1-7.1,0c-2.4-1.9-4.8-1.9-7.7-1-4.7,3.4-10.4,4.3-15.7,6.7-2.4,1.4-2.8,4.8-4.3,6.7-3.3,1.4-4.3,4.3-5.2,7.6C39,79.1,45.6,84.4,51.8,86.7c2.4,2.4,3.9,7.2,7.7,8.1s5.7,2.4,8.5,2.4,6.2,4.3,9.6,1.9c5.2-2.8,11.4-5.7,13.8-11.4C90.9,80.1,98.6,74.8,97.6,66.7Z"/>
        <path class="cls-3" d="M31.3,74.4C28.5,63.9,18.5,58.6,14.7,72,2.8,73.9-7.3,92.9,7,98.7c6.7,2.3,6.2-7.7,11-8.6s10.5-3.4,9.1-8.6C29,79.1,31.3,77.2,31.3,74.4Z"/>
      </g>
    </g>
  </g>
</svg>
