<svg xmlns="http://www.w3.org/2000/svg" width="500" height="500" viewBox="0 0 500 500">
  <defs>
    <style>
      .cls-1 {
        fill: none;
        stroke: #999;
        stroke-width: 0.75px;
      }

      .cls-1, .cls-3 {
        stroke-linejoin: round;
      }

      .cls-2 {
        opacity: 0.5;
      }

      .cls-3 {
        fill: #5c98ff;
        stroke: #fff;
        stroke-linecap: round;
        stroke-width: 2px;
      }
    </style>
  </defs>
  <g id="hucs">
    <g>
      <path class="cls-1" d="M142.9,430.8c6.2-1.5,22.1-4.9,28.2-6.1l.3,1.9,2.5-.4v-2.1c11.6-2.8,27.2-6.7,38.6-9.8,4.3,9.5,8,27.6,10.4,37.7l-1.8,1.2.9,4.6-5.5,2.2-.6,1.2c-1.3.3-4.9,1.2-5.9,2.1l-2.4-.3-3.7,3.7H203l-2.2-2.5c0,1.3,0,3.7-.9,4.9l-2.1-.6c-1.6,1.6-5.2,2.5-7.4,2.2-2.7,1.8-7.9,2.4-10.7,4.3l-1.5-3.1-1.6.3c0,1.5-.6,5.5-1.5,6.7l-2.8,1.9-.6,2.7-3.9-.3-2.2,3.7-4.9,1.2c-.9,4.3-5.2,9.8-9.8,8.6l-3.4-4.9c1.3-1.2,7.1-7.6,7.7-8.9C146.3,471.3,146.9,444.6,142.9,430.8Z"/>
      <path class="cls-1" d="M238.5,337.1c-4-.6-5.5-5.2-5.8-8.6-5.5-3.7-10.1-8.3-10.4-15.3-9.2-29.1-25.7-81.2-34.6-110.9l1.2-.6.6-2.2,2.8-.6,2.7,4.6,1.2.3,1.6-1.5c-.3-1.6-2.2-8.6-1.2-10.1l5.5.6.6-1.6c-7.4-5.5-4.6-8.5-2.2-15.6l3.1-2.4c0-1.3,1.8-4,2.8-4.9-1-1.3-1.3-4.6-1.3-6.2,2.8-2.1,4-4.6,3.1-7.9l-2.1-1.3-1.3-3.3c.9-1.6.6-6.2.3-7.7l-2.7-2.8,1.2-9.5c6.7-6.7,1.2-17.4,1.5-25.4,3.7-11.6,11.1-44.7,16-55.1l6.4-.3c1.2,2.7,1.5,8.5,3.4,11.3a21.6,21.6,0,0,0,6.1,2.4c3.4-1.5,5.5-6.7,9.8-7,.9-3.7,4.3-4.6,7.4-4.6l-.3-3.7c1.5-1.2,4.9-3,6.7-2.4,4.3,2.4,12.6,6.1,15.3,10.4,16.3,16.8,20.2,54.2,27.6,76.3l2.1,2.7c-1.5,2.8.3,6.8,2.2,8.9l3-1.2,2.8,3.1,5.5.9,2.2-1.9,2.1,1.3c.3,1.2,1.8,4,1.2,5.2l-1.5.9c-.3,1.5,4,6.1,4.6,7.4v5.8c.9.9,5.2,6.4,6.7,6.4s1.9-3.1,2.5-4.3c2.7-.3,7,2.8,8.9,4.6l-.3,3.4,3,2.7.3,3.7-3.9,1.2.9,3.7,2.4.3,1.6-1.5,1.5,2.1,2.4-1.2.7,3.7-2.2,1.8a28.1,28.1,0,0,1-3.4,10.1h-2.7l-1.2-2.7-3.4.6c.9,1.2.9,4.6.9,5.8h-1.5l-1.9-1.8-.9,1.8-2.7-.3,1.2,4.3-1.2,2.8-2.8-.3-.9,3-1.6-.6-.6-2.4-3.3.9c-.3,1.2-.3,3.7.6,4.9l-.6,5.2-1.6-1.5-2.7-.4,1.8,3.7-3.4,1.3-2.4-1.3.6-1.8-1.2-1.2-1.2,1.2-2.5-2.8-1.2.3.3,2.8-2.5-.9c.3,1.5-2.1,5.5-2.7,6.7l-2.2-.9.3-2.1-2.1-.7.6,2.5-2.1,3.4.3,5.5,2.4,1.2-1.2,2.1-2.8-.6-.9,1.6-1.5-2.8-4.9.6-1.2-1.5,1.8-.9-.3-3.1,2.1-1.2-2.4-1.2-1.9-5.3-2.4-1.8.6,6.4-.9,1.6-2.5.6-1.5,2.7c2.1,2.5,3.1,7.1,1.5,10.2,0,1.8-.3,7.9-.9,9.5l1.8,1.8.4,2.1-1.9,2.2.3,1.5-1.5,2.2v3l-1.8.9-1-1.5,1-2.4-3.1.9-.6,1.8-1.6-.3v-2.7h-1.5l.3,2.7-.9.6.6,4.3-.9,1.9.3,2.7-1.2.3-.9-2.4-3.4-1.3,1.5,4.3-1.5,1.6-2.5-1.9-3.3.9-.3,5.6,1.8,3.3-.3,2.8-1.5-.3c-1.3-1.6-2.5-5.8-2.8-7.7s-4.3.6-5.5,1.2c-.9,2.8-4.3,4.9-5.8,7.4v2.4l-1,1.6-.3,3.4,3.7,3.6-1.2,2.8-3.4,1.8c-.6,2.2.3,5.5,1.2,7.4l-2.1,6.7-2.8.6c-.9,5.5-.9,12.3-.9,17.8l-.9.9Z"/>
      <path class="cls-1" d="M297.1,441.9l2.4-3.1,2.5,2.8c-1.6,2.1-7.4,2.4-9.5,2.7l-1.6-1.2,3.1-1.5Z"/>
      <path class="cls-1" d="M142.9,430.8c-2.1-6.4-.3-19.9-1.2-26.6,0-4.3,1.2-15-.3-19,25.4-6.1,55.5-11.7,80.6-17.5a8,8,0,0,1,4-3.7l-1-3,.4-1.2,4.2-1.6.4-3c.3-1.3,4.9-2.5,5.8-2.8l2.1.6.3,4c.6.9,3.4,4.3,3.1,5.8l2.4.6.7,2.2,2.1-.3,1.8,3c-.9,1.9-3.6,3.4-5.5,3.7l-1.2,2.2,1.5,1.2v1.8l-3.7,2.5c0,1.5-.6,4.3-1.8,5.5.3,1.8,1.5,5.5,2.8,6.7l3,1.6,1.3-.7.3-3.9,2.7,1.8a8.8,8.8,0,0,1,5.5,1.5l1.6,4.3,3.6,1.6,1.3,3.3-1.9.9v2.5l2.5,2.4h4.3c3.3,7.4,3,11.4,12.8,10.5,4.9-3.4,14.4-8,9.5-15.4l-2.4.4-1.2-4.9-4.3-2.2-1.9,2.2-1.8-1v-2.4c7.4-3.1,12.6,5.8,15.6,11l-.3,3.1,1.9,2.1c-1,3.7,3,7.4,2.1,10.7l-1.2.7-1.2-3.1-2.5-.9c-1.2.9-4,2.1-5.5,1.5l-1.9,2.8-1.2-.3c-1.2,1.2-4.6,2.7-6.1,3.3l-.9,4.9-7.1,2.5c-.9-2.8-.6-6.5-1.8-8.9l.6-2.5-3.4-.6-1.2.6-.6,5.3c-.6.9-2.5,3.9-2.2,5.2h-2.7l-1.5,2.1.9,2.8-1.6.3v1.8l-2.1.9-1.5-2.7-1.3.6-5.8-12.3a25.1,25.1,0,0,1-6.7,0c-1.6-1.2-3.1-6.4-3.4-8.2l-1.2.3-2.5-7.1c-2.7.6-12.8,4.3-15.9,5.2l-1.2-1.5c-11.7,3.4-27,7-38.6,9.8v2.1l-2.5.3-.3-1.8Z"/>
      <path class="cls-1" d="M278.7,438.5v3.1a77.3,77.3,0,0,1-10.8,4l-2.1,2.7-1.5-1.2-.3-1.9,2.1.4c.6-2.2,2.2-7.7,3.7-9.5l1.2,1.2,3.1-.3.6,2.4h2.4Z"/>
      <path class="cls-1" d="M174.2,377.8c-7.4-6.7-5.5-10.1-4-18.3l-.9-1.6c.9-2.4-1.2-8.6-2.2-11,.3-6.8-2.1-15.6-2.4-22.4.6-1.8,2.1-5.8,1.2-7.9a48.8,48.8,0,0,0,2.5-8.6c-1.3-4,1.8-9.5.3-13.5.9-3.1,1.8-8-.3-10.7,0-6.8-3.1-11.1,5.5-13.2,4.3-8.3,7.6-8.3,7-19l-5.2-8.6c.9-4,2.2-11.9-.6-15.3,1.2-1.2,1.2-4.3.9-6.1a45.6,45.6,0,0,0,.9-8.9l-1.8-2.5c1.5-.6,3.1-2.7,3.7-4.3l1.8-.9,1.9,1.6H184l3.7-4c8.9,30,25.4,81.8,34.6,110.9,0,7,4.9,11.6,10.4,15.3.3,3.4,1.8,8,5.8,8.6v2.4l1.9,2.5c-1.3,1.5-1.6,8.6-1.9,10.4l-2.1-.6c-.9.3-5.5,1.5-5.8,2.8l-.3,3-4.3,1.6-.3,1.2.9,3a8,8,0,0,0-4,3.7C208.8,371.4,187.7,374.8,174.2,377.8Z"/>
      <path class="cls-1" d="M222.3,457.5l-.9-4.6,1.8-1.2c-1.8-9.5-7-26.7-9.5-36.2,3.1-1.2,12.9-4.9,15.9-5.2l2.5,7.1,1.2-.3c.6,1.8,1.9,7,3.4,8.2s5.2.3,6.7,0c.6,1.6,6.5,12.9,6.2,14.4l-2.5,3.4-1.2-2.8-1.2.7.9,3.9-3.4,1.6-1.5-1.9c.6-2.4-.6-7.9-1.6-10.4l-1.5-1.5-1.8.6c0,1.5-.3,4.6-1.3,5.8l2.5,4.3a19.4,19.4,0,0,0,0,8.3l-3.1-1.6v1.6c-2.7,2.7-7.9,4.6-9.8,7.9h-1.8Z"/>
      <path class="cls-1" d="M103.4,243.9c21.1-4.6,51.5-14.4,72.6-18.3l-1.2,2.1c2.8,3.7,1.5,11.3.6,15.3l5.2,8.6c.3,10.7-2.7,10.7-7,19-8.6,2.1-5.5,6.7-5.5,13.2,2.1,2.4,1.2,7.6.3,10.7,1.5,4-1.6,9.2-.3,13.5a48.8,48.8,0,0,1-2.5,8.6c.9,1.8-.3,6.1-1.2,7.9.3,6.8,2.7,15.6,2.4,22.4,1,2.4,2.8,8.3,2.2,11l.9,1.6c-1.5,8.2-3.4,11.9,4,18.3-7.1,1.6-26.1,6.2-33.1,7.4-5.5-17.2-5.8-38.3-14.1-53.9l-1.8-.7-1.6,4-1.2-.6c-1.8-3.7-.6-8.9-.6-12.8-1.2-1.3-2.5-5.6-3.1-7.4s-2.7-7.7-4.9-10.1c0-2.5,0-9.5,1.9-11.4.3-11.9-9.2-22.3-9.2-34.3-1-1.2-2.5-3.6-2.5-5.2C105.2,250.7,105.2,246.4,103.4,243.9Z"/>
      <g id="_01" data-name="01" class="cls-2">
        <path class="cls-3" d="M184.9,470.6c-.3,0,0-.3,0,0Z"/>
        <path class="cls-3" d="M174.8,481c-.3,0,0,.3,0,0Z"/>
        <path class="cls-3" d="M164.6,490.5c.4,0,.4-.3,0,0Z"/>
        <path class="cls-3" d="M396.6,166.9c-16.6-11.3-12.3-24.8-27.9-28.2-1.5-.9-.3.4-.6,1.3,3.4,6.7-1.5-2.5-4,6.1-7-.6-8.9-15.3-15.9-8.3-5.2,9.2-4.6-3.6-5.8-6.7-1.3-1.2,1.2-2.5.6-3.7s1.5.9,1.2-.9.9,1.2,1.5,1.8c3.1,1.9-1.2-4.3.3-4.3s0-2.4,1.6-3-.3-3.7-1.3-6.1,4.6-.7,4.9-2.5,3.4-5.2,0-6.4c-.6-7.7-10.4-2.8-15.3-6.5-1.8-1.5-7.3-7-9.2-3.6-2.7,1.5-3.6-3.4-5.2-4.6-3,.6-6.4-7.4-7.9-4.9,0-2.5-.7-3.7.3-7.4-5.6-.3-4.9-4.6-10.1-4-1.3-1.2-1.6,1.9-2.5,0-1.8,0-.9.6-2.8-2.1-.3-1.3-1.2-1.3-2.1-.3-.9-1.6-1.5-5.5.9-4.6-.6-3.1.9-3.4,1.2-5.9-1.5-1.2-.6-1.2.7-2.1-2.5-1.8,2.1-2.4.9-5.8,2.7-3.1,1.5-13.2-2.5-12.9-6.7-17.1-3.7-1.8-11.6-10.7-4.9-1.5-.3,8.9-2.2,9.2-1.2-1.9-2.4-2.2-4.3,0-3-1.2,1.3-4.6-4.9-4.3,1.9-3.7-3.3-1.8-3.3-5.5-4.3-1.6-1.3-6.2-6.2-8.9,1.6-1.8,4.6-9.8-.3-6.7-3.3-3.4-6.7-2.5-11.6-3.7-.9-1.6-.6,0-1.2.6-.6-.9-2.5-3.4-1.3-3.7,4.9.3-.9-2.7,1.3-4-8.6-7.9-7.7,0-10.4-2.1-1.3,1.2-2.5-.3-2.8,2.4-.6,1-2.5-2.4-2.1,0-1.3,1.6-1,4.6-1.9,5.2-3.1-5.2-8.3,4.9-5.2,3.4.6,2.5-.6,3.4-1.2,4.9,1.2,2.8,1.5,5.8-.6,7.4-4.3-.3.9,12.2-4,6.1-2.2,5.2-2.8-1.5-3.7-3.7s-2.4.3-1.5-2.7c-4,3,.9,6.1.3,8.2.3.6-4,.6-1.2,2.5,1.2,0,2.1,2.4,0,2.4,1.2,1.9,1.5,6.2.9,8.6,2.7,4-5.2,5.5-.9,8,.6,7.3-4.9,8.3-3.7,15.3-1.2,4.6-3.7,2.1-5.5,4.6,2.4,2.8-1.9.3-.7,2.5s-.3,5.2-1.8,6.4c-3.1-3.4-4.6,6.7-3.1,8.3a15,15,0,0,0-2.4,2.1c-.3.3,1.8-.6.9,1.2-3,2.2,3.4.3,0,2.2-.6.6,1.2.9-.6,1.5-4.3-2.1-1.8,4.9-.9,5.5-2.2,1.2,1.8,3.4-1.5,4,0,3.7-.4,7.4,1.5,8.9s-2.2,5.5.3,8c.3-.4,2.1-.7,3.1-1.3s-3.1,6.2.3,3.7c2.1,0,2.7-.3,2.7,2.5,4.3-1-.3,3,1.2,3.6-1.2,2.5-.3,5.2,0,8,3.1-.9,2.2-.9,2.8,2.5-1.2,4.5,1.8.3.9,3s1.6,2.5.3,4.9c.3,1.2,2.2-1.2,2.5.6,3.7,4.3-6.2,10.1-1.2,15.4-4.6,5.2-14.4,16.8-4,21.1.3,1.5,1.2,4.3-1.3,2.8-12.2-7.1,1.6,16.2-6.1,10.7-1.2-2.2-4-5.2-5.8-3.7,1.8,1.8-2.5,1.8-2.8,3.4s.3,4.9-1.5,3.6c-8.3,1.6-1.8-8.2-11.9,6.8-.4,4.6-6.2,4.3-3.4,7.3-4.6,1.6-3.1,7.1,1.2,9.5-1.8-.3-2.4,1-3.4,2.5-2.4-1.2-5.8,5.8-1.5,7.3.6,6.8-6.4,3.4-6.1,8.3s-7.4,4.6-4,10.1c2.8,3.7-1.8,4.9-.3,8.9-1.8,1.9,7.3,9.2.3,8.6,0,1.2.3,1.8-1.5,1.5a5,5,0,0,1,1.2,4c-.9,2.2,1.2,5.5-.6,9.8,1.8,2.5-3.4.9-3.7.6-.6,2.2-1.5,2.5-3.1.6-2.4,1,1,2.8-3.6,4-2.8,2.8-.3-4-3.1-1.5-3.7-2.2-.9,4-2.8,4.3-4.3-1.2-2.7,5.8-3.3,8.3,1.2,11.3,21.1,23.2,12.8,33.7-2.4,3-2.1,10.1-1.5,15.3s-1.8,9.5,0,14.4c.3,8.9,4,3.7,4.3,7.9-2.2,6.8,3.4,14.4,0,17.5-4.9,4.9-3.7.9-4.9-2.7-4.9-1-.9.3-2.5,3-1.5,4.9-2.4,10.1-4.6,13.8s3.1,8.6,2.5,13.2c-.3,2.1,1.2-.3,1.5.9s2.2,2.8.9,3.1c-2.4,3.6-2.7,6.7-3,12.2-2.8,3.1-1.6,4.6.3,8.9-1.2,3.4,2.7,7.7,2.7,13.8,7.4-6.4,7.7,5.8,6.5,10.7,5.8,1.5,2.1,6.5,1.5,11.4-3.1-1.3-4,1.5-4.9,3.6s3.7,8.9,4,12.9c.6,0,.9-3.4.6-1.8,1.5-1-.9-1,.3-1.6s1.5-.6.6-2.1c.6,1.5,1.3-2.2,1.6,0,.3.3.6-.6.6-.9,1.5.3-.6,1.8.3,1.5s.6-2.8.9-1.5c0-1,0-1.9.9.3a6,6,0,0,0,.6-2.8c.6,0,.6,1.5.9,0,.7,1.9.4-.3.7-.6s1.8-1.8,1.8-3.1c.9,1.6.3-.3,1.5-.6-.9.9-.6-1.8-.3-.6s.6-.3,1.6-.3,2.4-2.8,1.8-1.8c1.8,1.5,3.1-3.7,3.7-3.4s.9.9.9-.3c-.9,1.2,2.1,1.5,2.7.6s-1.8-3.4-.9-2.1,4.6-4,6.5-6.5c-1,0,0-2.4.6-2.1s1.8,4.6,2.7,1.8c0,.6.3-.3,1,.3s.3-1.5.6-1.8,0,2.4.9.3a8.5,8.5,0,0,1,3.7-.3c-.3,2.1,3-4,7-1.5-1.2-1.6.9-1,4.3-2.8,3.4.9,6.4-4.6,8.9-3.1-2.2-5.2,6.7,1.6,3.4-4.9-.4-3,.9,2.5,2.1,1.3s.6-1.6.6-1.3-1.2.6.3,1.3-.6-2.2.6-.7,1.3.3,0-.3c1.9,1,.3-1.8,1.6-1.8s.6.6.6.6.6-.6.9-.3-.3-2.4.9,0c.6-3.1,3.4.6,1.5.6,3.7,2.5,8.3-2.1,7.7,4.6,6.1,8.6,11.6-3.7,5.2-8.6,7.7,1.9,13.2-13.1,19.9-11.6,1.9,5.5,10.1.9,8.9,8.6,8,7.9,2.8-8.9,22.4-7.7,10.7,6.1,27.6-1.2,12.9-12.6-8-2.7,2.1-5.2-.4-11,4.9-54.2-59.4-3.7-42.2-57.9.6-11.3-12-.3-12.3-9.5-1.2-1.2-1.8-9.8,0-8,8,4,6.7-8.2,1.5-8.8-.3-8.3,4.6,3.3,6.8-4.3-1.6-6.8-8-.3-6.1-10.1,5.5-3.4,5.5-12,8.8-17.5,4.6-11.7,20.9-14.1,21.8-24.2,4.6-5.2,3.1-3.1,5.5,1.2s8-3.4,4-6.1c11.9-1.9.3-7.7,16.2.3,4.3-2.2,8.6-19.9,0-13.2-1.2.3-6.1,2.5-7,1.2-4-3,7.6-1.5,9.2-4.3,7,1,9.5-9.1,15-12.5,6.1-7.1-.9-10.1,8.3-18.4,7.9,1.5,2.1-7,7.3-6.4,10.1-1.6,8.6-12.9,16.9-17.8,2.7-5.5,4.6-3.4,2.1.9C385.6,225.2,386.2,180.1,396.6,166.9ZM181.5,475.2Zm0-.3Z"/>
      </g>
    </g>
  </g>
</svg>
