<svg xmlns="http://www.w3.org/2000/svg" width="500" height="500" viewBox="0 0 500 500">
  <defs>
    <style>
      .cls-1 {
        fill: none;
        stroke: #999;
        stroke-width: 0.75px;
      }

      .cls-1, .cls-2 {
        stroke-linejoin: round;
      }

      .cls-2 {
        fill: #5c98ff;
        stroke: #fff;
        stroke-linecap: round;
        stroke-width: 2px;
        opacity: 0.5;
      }
    </style>
  </defs>
  <g id="hucs">
    <g>
      <path class="cls-1" d="M191.7,302.9c2-7.3,10.5-52.1,14.9-56.9l.2-1.5-1.2-1.8-.9.4-.6-1.3H203l-.7-.8a6.1,6.1,0,0,0,.1-3,7.6,7.6,0,0,0,1.2-2.6c1.3-.7,3.7-5,4.3-6.2,2.8-.3,4.2-3.4,5.2-5.6l-.2-1.1c3.4-2.5,4.5-7.7,7.5-10.7.6-2.1,3.7-3.7,2-6.2,0-.5.1-2.1-.4-2.5l-1.2-.5-.5-1.2-1,.7c-.6-3.8-3.2-6.4-.7-10.4a4.4,4.4,0,0,1,0-3l-.8-1.9c4.9-21.6,10.8-49.5,16.1-71,4.3,1.2,11,2.5,15.4,3.4-1.5,8.1-4.7,19.9-5.7,27.9.4,1.7,1.9,4.3,1.8,6l.9.5a4.7,4.7,0,0,1,.1,3.1l.6.9-1.1,1.5,1.1,2.1-.2.4-1.4.7c1.2.9,3,3,3.1,4.4l2.7,1.7c-.2,1.1,1.4,3.4,1.9,4.4l1.3,4.3a5.5,5.5,0,0,1,1.3,1.8,4.8,4.8,0,0,0,.2,2.9c.6.1,1.3,1.6,1.5,2.1l-.5,1.3h.5l1.7-.9.4.7-.2,1.8.6.7,2.3.2,1-.5h.9l.2.8a13.5,13.5,0,0,0-1.1,3.2l-.9.2c.4,1.6-1.2,5.3-2.4,6.3a3.9,3.9,0,0,1-.1,2.4h-1.2v.8l.6,1-1,1.5.4,1.3.8.6a4.5,4.5,0,0,0,0,2.8,6.7,6.7,0,0,0-2.9,1.2c-.8,1.1,0,3-.3,4.3l-1.3.6v1.7l1.2.4c-.1.7,1.3,2.5,1.7,3l1.3-.2.9-1.5,1.2.3a36.9,36.9,0,0,0,3.8-4.1l.9.4a4.6,4.6,0,0,0,1.7,2.8l.2.8-.7,1,.8.8c-.9,3.1.3,8.1,1.2,11.1l.9.6.8,1.9-.4,2.5-1.1.7a7.6,7.6,0,0,0,1.6,3.8v.7l2.4-.6c1.1,1,1.8,4.1,1.9,5.5l-.5.9c.3.8.9,2.9.4,3.5l.6,1.7,1.2.6.7,1.1.5-.2a4.3,4.3,0,0,1,.8-2.4l1.4-.6,4.5,1.5.6,1,1.1-.2.4-1.9,1.8-.8.9,1.4a3.3,3.3,0,0,1,2,.2l3.4-.3.8,1.3c1.4-.3,4.7-.7,5.9.1l-.5-1.9a15.3,15.3,0,0,0,1.1-2.7l.7.2,1-.9c1.1.7,1.2,3,2.1,3.8v1.4c.5.5,1.4,1.7,1.3,2.5l1.1.6c-3.7,21.9-7.4,45.7-10.8,67.7C263.9,318.4,225.8,310.4,191.7,302.9Z"/>
      <path class="cls-1" d="M439.9,147.5c-3.1,33.6-6.2,76.1-9.5,109.3-39.8-3.4-80-8.1-119.5-14.4L308.5,256l-1-.6c.1-.8-.9-2-1.3-2.5v-1.4c-.9-.8-1.1-3.2-2.1-3.8l-1.1.9-.6-.2a9.3,9.3,0,0,1-1.2,2.7l.5,1.9c-1.1-.9-4.5-.4-5.9-.1l-.7-1.3-3.4.3a3.5,3.5,0,0,0-2-.2l-.9-1.4-1.9.8-.4,1.9-1,.2-.7-1-4.4-1.5-1.4.6a3.7,3.7,0,0,0-.8,2.4l-.6.2-.6-1.1-1.2-.6-.6-1.7c.5-.7-.2-2.8-.4-3.5l.5-.9c-.1-1.4-.8-4.5-2-5.5l-2.3.6v-.7a7.1,7.1,0,0,1-1.6-3.8l1-.7.4-2.5-.8-1.9-.9-.6c-.9-3-2.1-8-1.1-11.1l-.8-.8.6-1v-.8a4.6,4.6,0,0,1-1.7-2.8l-.9-.4a29.8,29.8,0,0,1-3.8,4.1l-1.2-.3-.9,1.5-1.3.2c-.4-.5-1.9-2.3-1.7-3l-1.2-.4v-1.7l1.3-.6c.3-1.3-.5-3.2.3-4.3a6.3,6.3,0,0,1,2.8-1.2,6.6,6.6,0,0,1,0-2.8l-.7-.6-.4-1.3,1-1.5-.6-1v-.8h1.2a6.4,6.4,0,0,0,.1-2.4c1.2-1,2.6-4.7,2.4-6.3l.9-.2a9.2,9.2,0,0,1,1-3.2v-.8h-.9l-1.1.5-2.2-.2-.7-.7.3-1.8-.4-.7-1.7.9h-.5l.5-1.3c-.3-.5-1-2-1.6-2.1a4.1,4.1,0,0,1-.1-2.9c0-.5-.9-1.4-1.3-1.8l-1.3-4.3c-.5-.8-2.1-3.3-2-4.4l-2.6-1.7c-.1-1.5-2-3.6-3.1-4.4l1.4-.7v-.4l-1-2.1,1-1.5-.5-.9a5.5,5.5,0,0,0-.1-3.1l-.9-.5c.1-1.7-1.6-4.3-1.9-6,1.1-8,4.2-19.8,5.8-27.9C312.1,132.8,376.1,141.9,439.9,147.5Z"/>
      <path class="cls-1" d="M218.7,449.2c-1.8,5.9-2.8,20.4-6.8,25.3a3.3,3.3,0,0,1-3.3-.8v-2a5.6,5.6,0,0,0-3-1.2c-1.3-1.1-3.4-.7-5-.1l-.6,1.2a5.7,5.7,0,0,1-.2,2.9,5.9,5.9,0,0,1-.2,4.5c-.8,2.8-.2,6.5-1.2,9.2,1,2.2.9,7.1-.5,9.2l-1,.2-.3,2.4c-25.7-41.6-52.8-87.3-78-129.2,5.4-22.7,14.8-57.9,20.6-80.4,32.9,8.6,71.8,17,105.2,23.9C236.4,358.3,226.9,405.1,218.7,449.2Z"/>
      <path class="cls-1" d="M217.5,196.3c.4.9,2,4.9,2,5.8l.9-.7.5,1.2,1.2.5c.5.4.5,2,.4,2.5,1.7,2.5-1.3,4.1-2,6.2-2.9,3-3.9,8.2-7.4,10.7v1.1c-.9,2.2-2.4,5.3-5.1,5.6-.8,1.2-3,5.5-4.3,6.2a8.8,8.8,0,0,1-1.2,2.6,7.6,7.6,0,0,1-.2,3l.7.8h1.2l.5,1.3.9-.4,1.2,1.8V246c-4.5,4.5-13.1,49.9-15,56.9-41.5-9.3-84.3-21.1-125.1-33.1V269c-1.7-2-1.2-4.8-1.5-7.1a2.8,2.8,0,0,0,.4-2.2,6.1,6.1,0,0,0,.8-2.7,11.2,11.2,0,0,1,1.9-2.9v-2.6a5,5,0,0,1-.3-2.4l-.6-.9a3.9,3.9,0,0,0-.3-2.6,26.8,26.8,0,0,0,6.8-11.4c2.8-2,4.7-5.8,6.6-8.5a106.8,106.8,0,0,1,6.6-16.1,7.3,7.3,0,0,1,1.4-3.1l.3-2.2c.3-.8,1.9-3.8,1.6-4.6s.9-1.7.9-2.3,2.9-5.5,3.2-7.4,1.9-2.8,1.7-3.5a9.3,9.3,0,0,0,1.2-3.9l1.1-1.3v-2l.5-.4.9,1.1c.8-1.9-.7-3.8,1-5.5a13.6,13.6,0,0,1,.2-4,6.1,6.1,0,0,0,.9-4c2.4-1.1,2.7-4.6,1.7-6.7H105a6.3,6.3,0,0,0,1.6,2.6l.4-.5-.4-.9h1.6l.2,1.2.9.3a4.3,4.3,0,0,0,2.1-1.1l1.3.4-.2,1.1.5,1.4c1.2.8,3-.1,4.3.4l2.6,3.5c.3,2.3,1.1,5,0,7.2s-1.7,4-.5,5.8,4.7,2.2,6,4.1a29.5,29.5,0,0,0,9.1-2c3.4,1.2,9.5,1,10.5,5.5a4.2,4.2,0,0,0,2.1-.8l2.3.8c.7-.1,5.1-1.3,5.6-1.3l2.3,2.1c1.1-.1,4.7,0,5.6-.9,2.4-.2,5.5-.7,7.9-.3l2.1-1.2a2.2,2.2,0,0,1,1.4.9c1.4-.2,4.2-.1,5.5.7s3.5-1.3,4.1-1.1l15.9,3.6.2.4C204.8,192.9,212.8,195,217.5,196.3Z"/>
      <path class="cls-1" d="M244.5,314.2c16.5,3.4,36.9,6.8,53.4,9.5-1.2,6.6-3.4,20.6-4.4,27.3,9,1.3,27.3,4,36.4,5.5-5.1,34.7-10.4,73.8-14.8,108.7-32.1-4.5-64.6-10.1-96.4-16C226.9,405.1,236.4,358.3,244.5,314.2Z"/>
      <path class="cls-1" d="M217.5,196.3c-4.7-1.3-12.6-3.2-17.4-4v-.4l-16-3.6c-.5-.2-3.6,1-4.1,1.1s-3.9-.9-5.5-.7a1.9,1.9,0,0,0-1.4-.9l-2.1,1.2c-2.4-.5-5.5.1-7.9.3-.9,1-4.4.9-5.6.9l-2.2-2.1c-.5,0-5,1.2-5.7,1.3l-2.3-.8c-.4.1-1.7.9-2.1.8-.9-4.5-7.1-4.3-10.5-5.5a24.6,24.6,0,0,1-9,2c-1.5-1.9-4.5-2.5-6-4.1s.9-3.9.5-5.8.1-4.9,0-7.2l-2.6-3.5c-1.2-.5-3.1.3-4.4-.4l-.5-1.4.3-1.1.9,1.3.4-.9-.4-.9a10.9,10.9,0,0,0-3.1-1.4l-1-1.4-.9.4a10.3,10.3,0,0,0-2.5-.1l-.5-.5v-1.1a1.9,1.9,0,0,0-1.7-.6,31.9,31.9,0,0,0,2.3-8l.8.3c.1.9-1.3,5.7-1.4,6.6h1a7.4,7.4,0,0,0,1.2-2.9l.7-.6-.4-3h.7l.7-1.2,1.2-.4-.5-1.3-2,.6-1.2-.6c-.1-1.1.7-3.5.4-4.8l.8-.3v1.2l1.6-1.2a7.8,7.8,0,0,0,3.4-.5,5.1,5.1,0,0,0-2.6-1.4l-.3-1.6h-.9l-1.1,1.7-.5-.6c.8-2.6,2.1-7.2.5-9.7,0-1.7.7-5.7.9-7.3s.2-3.7.3-4.4l-.5-1,.2-1.3c-1.8-1.8-2.1-5.1-1.1-7.4s1.7-4.9,2.5-6.8l-.6-.6V100h1.6a6.3,6.3,0,0,1,2.1,2.5c1.3,1.1,3,3.1,4.4,4.2l.3.9c1.6,1.4,4.1,2.9,6.2,2.7.4.8,1.4,1.9,2.5,1.7s3.4,1.6,4.7,2.1l.8-.5c1,.7,1.3,2.4,1.4,3.5l.8-1.3.9.6-.3.9a2.6,2.6,0,0,0,1.6.9l-.4-1.6.5-.9h1.2v.8l-.8.5v1.4a3.3,3.3,0,0,0,1.7-1.8l.4.8a5.5,5.5,0,0,1-1.3,3.4v2.2l-.8.3-.4.9h-.9l-.4,1-.8.2-.7-1.8-.4,2.1h-.6c-.2,1.2-2.5,2.2-3.4,2.7a30.1,30.1,0,0,0-3.6,5.9l.5.5c1.6.6,3.7-.1,5-1l-.7-.4-1.8.8-1.7-.4v-.7c1.8-2.1,4.3-5.3,7.3-5.2a19.9,19.9,0,0,1,3.5-4.1l.7.7c.5-1-.3-2.4.3-3.4.7,1,1.7,3,.6,4.1v1.5l-.7.3-.4-.8-1.2,1.2h-.8v2.2a8.4,8.4,0,0,1-2.1,2.1l.8.3,1.6-.6.4,1.9a14.5,14.5,0,0,1-1.7,2.6c-.2.4-.6,1.3-1.1,1.4l-.4,1.9-1.3-1.2.4-1.1-.4-.7a2.3,2.3,0,0,0-1.3,2.8l-.9,1.6-.5-.3c-.2-1.5,1.1-3.6,1.4-5.1l-.3-.2-.9,1.7-1.4.4a7.1,7.1,0,0,1-3.2,3.2l-.2,1,1.8-1.2.5.2-1.7,1.7,1.3-.2-.4,1.8.6.2.6-2.7h1.9v1.3l1.2.6c1.1-1,2.6-3,3.6-3.8l.3-1.1c.3.5.8,1.9,1.4,2.1l.2-1.8,2.1-.9a4.9,4.9,0,0,1,.1-2.1c0-.8-.3-3.4.1-4.1h.9l.3-.5-.8-1.7.7-.2a14.7,14.7,0,0,0,.8-3.5,10,10,0,0,0,2.7-3.6l1.3-.4.7-1.2-1.1-.3-.8-1.8c.4-1.6.3-3.9,1.1-5.4a5.7,5.7,0,0,1-1.2-2.3l-.8-.7.2-1.3-1,.3-.6-2.4.8-.4a11.7,11.7,0,0,1,2.1,2.3l.6-2.8.8-.2.3-.8-.4-1.5c.1-.5.9-2.3.8-2.9l-.7-.7h-.8l-.9,1-.4-.3.4-1-.8-.7.4-1.4-.8-1.4.9-1.3-.7-.4,1.1-1c29.1,8,59.3,15.8,88.6,22.7-5.3,21.6-11.2,49.4-16.2,71l.8,1.9c-.2.8-.4,2.4,0,3S217.2,195,217.5,196.3Z"/>
      <path class="cls-1" d="M139.9,114.6l-.3-1.8,2.6-3.2,1.1.3-.3.8.8.6v1.2h-2.3l-.4,1.6.7,1.1-.3,4.1.7-1.3h.4a14.4,14.4,0,0,1,1.3,3.2c-.2.5-.6,1.8-1.3,2.1l-.5-.7.3-1.7h-.7l-1-1.3c-.3-.7.4-3,.5-3.8l-.9-.2Z"/>
      <path class="cls-1" d="M141.7,102.7l-.5-.3V101l-.6-.3V103l-.6-.2-.3-.9-.9.4.3-1.2,1.1-.6.4-1.1c.7,0,1.7,2,2.1,2.4Z"/>
      <path class="cls-1" d="M139.2,107.9v-.7l-.5-1.1.2-.9,1.3-.4-.3,1.2.6,1.3-.4.6Z"/>
      <path class="cls-1" d="M137.4,102.6l.8,1.7-.7.5V106l-.5.4-.4-1.3-.8-.4c-.4-1.2-.4-2.7.5-3.4h.7Z"/>
      <path class="cls-1" d="M329.9,356.5c-9.1-1.5-27.4-4.2-36.4-5.5,6-35.8,11.2-73,17.5-108.7,39.5,6.3,79.8,10.9,119.6,14.4-3.2,35.9-6.3,73.7-9.5,109.6-29.7-2.4-61.5-7.1-91.2-9.8Z"/>
      <path id="_17" data-name="17" class="cls-2" d="M268.8,230.5c-1.9,2.5-1.4,6.8,2.4,6.6,4.8,3.2-.8,17.9,7.3,10.3,3.5,1.5,5.1,2.2,8.3-.3,4.2,1.3,12.9,4.8,14.5-1.7,6-.7,5.2,16.9,13.1,8.4.4,7.7,17.1,16.7,7.3,22.5-1.8,9.8,10,7.9-2.9,9.3-4.1,13.5-11.2,4.6-10,14.1-2.7,7.8-4.5,7.9-13.1,7.2-3.3-5.7-4.5-13.7-9.5-5.3-13.1,18-7.7-5.7-15,4.7-2.9-3.8-2.1-2-5.3,1.6-6.9,2.7-15,14.4-20.9,7.4-4.3,3.8-8.1,5.4-10.6-1.3-3.2,5.5-10.6,14.7-13.5,4.2-7.7-14.1-2.6,10.6-7.9.9-11.9-9-4.8,2.8-12.1,6-4.1,3.8-3.3-1.9-3.3-5.2-4.5-2.3-6-3.4-6.7-9-12.4-.7-5.6-21-16-23.5-28.1,31.1-5.5-19.5-23,5.1-8-5.5-1.1,9.6-7,7.4-8.9-19.9-7.7,7-13.3-25.8-10.1,2.9-2.6-7.8-4.3-13-6.8-2.7-9.2-9.5-8.8-16.2-9.6-2.5-12.8,6.7-16.5,15.8-4.1,10.8-8.4,10.6-18.1,13.6-5.2,1.2-7.4-7.6-11.5-1.7-5.4-12-2.1-5.5-11.5-5.3-5.8-30.2,24.2-55.6,30.9-88,7.4-23.6,15-49.3,9.8-74.3,2.6-9.8,11.8-41.1,14.3-21.3,9.3,17.5,8.1,5.7,16.7-1.9C147,86.6,159.7,90,171,87.5c4.2-29.6,21.9,1.7,29.6-25.2,18.3.2-1.4,11.7,10.5,13.9,18.2-.4,13.6-28.4,9.4-40.1-2.9-8.6,5.9-15.3,3.8-22.5,3.9-7.6-2.4-7.3-7.1-9.5-5.7-8.2,3.6-1,6.4-4.1,8.2,0,8.3,14.3,13.8,15.5,7.1-3.1,1.7,5.8,3.9,6.9,8.8,1.8,5.9,18.5,13.1,14.3,3,24.8,29.7,39.9,17.7,65.6,2.6,18.4,26.6,41.5,15.4,55.9-2.3,9,6.6,13.5,10.5,20.8-1.2,2.8-8.5,7.2-1.7,9,1.2,6.9-3.5,8.3-6.7,13,2.3,2.5,1.7,15.5-2.1,9.2-7.2-7.5-12.5-7.5-20.9-.7C261.6,211.7,266.3,225.2,268.8,230.5Z"/>
    </g>
  </g>
</svg>
