<svg xmlns="http://www.w3.org/2000/svg" width="500" height="500" viewBox="0 0 500 500">
  <defs>
    <style>
      .cls-1 {
        fill: none;
        stroke: #999;
        stroke-width: 0.75px;
      }

      .cls-1, .cls-2 {
        stroke-linejoin: round;
      }

      .cls-2 {
        fill: #5c98ff;
        stroke: #fff;
        stroke-linecap: round;
        stroke-width: 2px;
        opacity: 0.5;
      }
    </style>
  </defs>
  <g id="hucs">
    <g>
      <path class="cls-1" d="M119.5,287.6Z"/>
      <path class="cls-1" d="M390,241.9V243a2.8,2.8,0,0,1,1.2,2.1l1.4,1.4c.4,1-.9,3.2-1.4,4,0,2.7,1.8,6,2.2,8.5,2.8,2.2,6.6,1.4,6.6,6.1,1.8,1.3,4.1,2.4,3.8,4.9,1,.9,2.7,1.6,3.7,2.4s.6,5,.2,7.3l-1.7,1.5c-.2.6-.4,3.2-.5,3.7l-1.5,1.5a5,5,0,0,0-2.9,1.8l-3.4.6a3.6,3.6,0,0,1-2.1.5,4.2,4.2,0,0,0-.5,2.4,4.6,4.6,0,0,0-.3,2.3,5.9,5.9,0,0,1,2,6.8c-1.5,1.4-1.8,4-1.8,5.9s-2.7,1.6-3.6,1.8l-.9,1.3.6,1.3a6.5,6.5,0,0,0-.1,2.4l-.4.5-1.2-.9a3.3,3.3,0,0,0-1.7-2.1l-.5-1.3h-.8l-.5-1.2c-20.6,1.2-42,2.3-62.7,1.6-.3-1-1.6-2.1-1.8-3.1a4.2,4.2,0,0,0,.2-2.5,8,8,0,0,0,.5-2.1c-.4-.9-1.3-2.6-.5-3.4s-1.1-3.7-.3-5.1l-.7-.5a13.3,13.3,0,0,0-.3-2.8l-.8-.6-.2-1.1-1.1-.5.5-1.2-1.1-.7c0-.7,0-2.2.6-2.7v-1.7a4,4,0,0,1-.9-3.3l-.4-.8h-.7v-.6l-.8-.8a3.6,3.6,0,0,0-.8-1.9,1.8,1.8,0,0,1,.2-1.4,8.4,8.4,0,0,0-1.3-2.7c-.1-1,.4-2.1.2-3.1s-.7-.3-.7-.2a4,4,0,0,1-.5-2.2,20.5,20.5,0,0,0-2-3.1c-.2-1.6,1.5-3.5,1.3-5.1l.3-.4v-1.6l-.2-.4,1-.6a8.2,8.2,0,0,0-.3-3.8l-1.3-.4-.2-1.1a4.7,4.7,0,0,0,.9-2.2,6.4,6.4,0,0,1-1.3-1.8l.2-1.1C337.1,243.8,364,242.5,390,241.9Z"/>
      <path class="cls-1" d="M341.8,392.2c-40.1,1.5-80.9.1-121.1-2.6,1.5-22.4,3-46.3,4.2-68.6h.1c11.9.8,25.8,1.5,37.8,2v.2c22,.2,45.1,1.7,67.1.5,1.1.5,2.2,2.6,3.3,3.4l1.2-.3,1.1-1.1.4,1.3h.9a5.1,5.1,0,0,0,.4,2.5h-1.7v.9a8.3,8.3,0,0,0-2.1,3.9c.9,1,2.4,1.8,2.8,3.2l.7.3c-.3.9,1,3.2,1.3,4l1.3.8.8-.5,1.4,1.3C341.3,359.5,342,376.4,341.8,392.2Z"/>
      <path class="cls-1" d="M313.3,243.8c-.3-12.5.5-30.5-.3-42.9l-3.2-2.1c-.4-1.3-1.9-2.9-2.2-4.2l.2-.9c2.6-1.4,4.4-4.5,3.7-7.4l.4-2.1c-.7-2.9-.4-5.8-2.4-8.4a15.8,15.8,0,0,0-.9-4.2c0-1.7.1-5,.3-6.6l-1-1.9a33.2,33.2,0,0,0-.1-6.3c.3-4.6-.1-10-2.4-14-.2-1.3-.8-4.7-1.6-5.8-.1-3.2.3-7.3-.2-10.3l.9-1.9c-.4-1.6-1.3-3.7-1.2-5.4a3.3,3.3,0,0,1-.4-2.4c7.2,0,20.5.4,27.8-.1v-8.6l1.7.5,1.1-.4a3.1,3.1,0,0,0,1.8.9c.4,4.2,1.9,8.7,1.9,13.1a15.3,15.3,0,0,0,3.1,1.6l1-.4,1.6.3.3.9c.6-.1,4.5.1,5.2.1l.8.9c0,.5-.1,1.6.3,2.1l4.3-1.3.5-1.1c1.9-1.4,4.2-.6,6.2-.9a5.9,5.9,0,0,0,4.6,1.5v1.2l-.8.4-.2.9h2.5l.8.9c-.4,1.1.6,3.1,1.2,4.1l1.2-.6a3.4,3.4,0,0,1,.2-2.2,14.2,14.2,0,0,1,2.9-.2l.7.9.2,1.5,1.4.2.4.6,2,.4.2,1.3,1,.7h.7l.3.8,1.3-.3.6.4a4.8,4.8,0,0,0,3.3-2c.7-.9,2.2-1.4,2.8-2.4l1.5-.4.4,1.4.8.4.2,1.2.4.2,1.8-.6c.9.6,3,.2,3.8,0a3,3,0,0,0,1.9-.2l1.5.2a10.8,10.8,0,0,0,3.2,2.4l1.2-.8h3.8a6.3,6.3,0,0,0-2.4,1.9c-1.2,1.2-4.3,2.7-5.8,3.7a24.8,24.8,0,0,0-8,4.7,3.7,3.7,0,0,0-1.8,1.7c-2.9,2.4-5,6.4-7.3,9.3a34.7,34.7,0,0,0-5.8,5.7c-1.7,1.6-4.7,3.3-5.1,5.9l-1.1.3c.2,3.7.8,9.8.5,13.5l-.7,1.1h-1.1l-.3.8-1.1.3c-1.2,1.6-3.8,1.8-3.3,4.6a5.2,5.2,0,0,1-1.5,1.8c-.1.6-.5,2.2-.2,2.8l1.9.3c.2.5,1.6,2.6,1.6,3.1a7.9,7.9,0,0,0-1.2,3l-.3.3.3,1.5-.3.4a6.1,6.1,0,0,1-.1,3l.6,2.7a2.3,2.3,0,0,0,.2,2,4.1,4.1,0,0,0-.5,2.6,9,9,0,0,0,1.9,1.5l1.3,1.9c2.2.7,3.9,1.1,5,3.3,1.7.3,4.3,1.2,5.2,2.8a17.6,17.6,0,0,0,1.5,3.5c1.3.6,2.9,2.3,4.1,3s2.6,1.3,2.8,2.2a2.5,2.5,0,0,1,1.1,1.7l.4.2a5.5,5.5,0,0,1,0,3.6l.6,1.3-.2,1.8.5,1.3C364.7,242.7,338.7,243.4,313.3,243.8Z"/>
      <path class="cls-1" d="M323.4,310.1c20.7.7,42.1-.4,62.7-1.6l.5,1.2h.8l.6,1.3a3.8,3.8,0,0,1,1.6,2.1l1.2.9a10.8,10.8,0,0,0,.4,9.9c-.2.5-.6,1.6-.3,2a9.1,9.1,0,0,1,2,3.2,15.6,15.6,0,0,1,4.5,5.7,14,14,0,0,1,5.7,5.1c0,.6,0,2,.5,2.5a6.7,6.7,0,0,0,1.9,5.7c.4,0,2-2.2,2.2-2.5a13,13,0,0,0,3.4.8l1.6,1.3.5,1.3-.9.8a13.7,13.7,0,0,0,.1,3.5,3.5,3.5,0,0,1-.9,1.7c-.2,1-.8,3.2-1.6,3.9s-.1,2.9.1,3.8a24.7,24.7,0,0,1,2.8,2.8l.8.3c.3.8,2,1.7,2.7,2.2l.4,1.2,1.3.8,1-.3c.5.3,2.1,1.7,2.8,1.8l.6,1.3,2.1,1.5c.4.3.2,1.8,0,2.1s1.6,3.2,1.9,4.5-1.1,1.3-1.3,1.5l.2,1.1.6.2c.1.7.5,2.2,1.2,2.5a6.5,6.5,0,0,0,1.4,2.9l.9.2.2-.4-.5-.8.3-.8,1.6,2c.4-.1,1.1.5,1.4.7v1.7c-.2.5-.8,1.5-.7,1.9l.6.4c.4,1.3-1,3.5-.5,4.8l-.9.5c-.4,0-1.6-1.3-1.9-1.5s-.9,3.6-1.6,4.2l-.4-.3a7.6,7.6,0,0,0-.1-2.1l-.7-.3-.7.9.8.6a3.1,3.1,0,0,0-.4,1.9l.7,1.1-.4.6h-.4l-.9.5,1,.9-.3.8-1.5-.3v1.1l1.1.5c.3.7-.2,2.3-.4,3h-.6l-.4,1.3-4.1.2h-.1c-1,0-5.8.5-6.8.4.6-1,1.9-3.5,2.9-4.2V408l.8-.4.3-1.3.4-.3a9.7,9.7,0,0,0,.2-2.4l-1-.4-.3-1.5-.6-.7c-18.6,1.1-37.8,2.1-56.3,2.7H359c-1.9.2-5.9.1-7.8.3h-9c-.6-19.9-.8-40.4-.5-60.3l-1.4-1.3-.8.5-1.3-.8c-.3-.8-1.6-3.1-1.3-4l-.7-.3c-.4-1.3-1.9-2.2-2.8-3.2a6.8,6.8,0,0,1,2.1-3.9v-.9h1.7a5.1,5.1,0,0,1-.4-2.5h-.9l-.4-1.3-1.1,1.1-1.2.3-4.4-4.7a4.8,4.8,0,0,0-.2-2.4l-.8-.7-.2-1.2-.8-.2-.4-.8-1.1-.4c.6-1.9-.8-4-1.9-5.4v-1.1Z"/>
      <path class="cls-1" d="M211.5,112.6c-2.5,28.2-5.1,63.7-7.9,91.5-33.3-2.8-66.9-6.8-100-12l-1.9,11.3-.9-.5c.1-.7-.8-1.6-1.1-2.1v-1.2c-.8-.6-.9-2.6-1.8-3.2l-.8.8h-.6a7.2,7.2,0,0,1-1,2.2l.5,1.6c-1-.7-3.9-.3-5-.1l-.6-1.1-2.9.2a2.9,2.9,0,0,0-1.6-.1l-.8-1.2-1.5.7-.3,1.6h-.9l-.6-.7L78.2,199l-1.2.5a2.8,2.8,0,0,0-.6,2l-.5.2-.5-1-1-.4-.6-1.5c.5-.6-.1-2.4-.3-2.9l.4-.8c-.1-1.2-.6-3.7-1.6-4.6l-2,.6v-.7a6.1,6.1,0,0,1-1.3-3.2l.9-.5.3-2.1-.6-1.6-.8-.5c-.8-2.5-1.8-6.7-1-9.3l-.6-.6.5-.9V171a3.5,3.5,0,0,1-1.4-2.3l-.8-.3a25.8,25.8,0,0,1-3.2,3.4l-1-.2-.7,1.2-1.1.2c-.4-.4-1.6-2-1.4-2.5l-1-.3v-1.5l1.1-.5c.2-1.1-.5-2.6.2-3.6a5.1,5.1,0,0,1,2.4-1,4.5,4.5,0,0,1,0-2.3l-.7-.6-.3-1.1.9-1.2-.6-.8v-.7h1a4.4,4.4,0,0,0,.1-2,8.4,8.4,0,0,0,2-5.2l.8-.3a6.7,6.7,0,0,1,.9-2.6l-.2-.6-.7-.2-.9.5-1.9-.2-.5-.6.2-1.5-.3-.6-1.4.8h-.5l.5-1.1c-.3-.4-.9-1.6-1.4-1.8a3.9,3.9,0,0,1-.1-2.4c0-.4-.7-1.2-1.1-1.5l-1.1-3.6c-.4-.7-1.7-2.8-1.6-3.6l-2.2-1.5c-.1-1.3-1.6-3-2.6-3.7l1.2-.5v-.4l-.9-1.7.9-1.3-.4-.8a3.7,3.7,0,0,0-.2-2.5l-.7-.4c.1-1.5-1.3-3.7-1.6-5.1.9-6.7,3.6-16.5,4.9-23.3C104.6,100.4,158.2,107.9,211.5,112.6Z"/>
      <path class="cls-1" d="M199.7,249.9c26.9,2.9,55.5,3.9,82.6,4.9a4.4,4.4,0,0,0,3,2.6c1.6.9,3,2.9,4.7,3.2a3.1,3.1,0,0,0,1.6-1.8l.4-.3,1.1.4.6-.4.6.6c.9-.2,3-.7,3.7-.2l1.1-.6,1.9.5v.6a7.1,7.1,0,0,0,3.6,1.7l.2.5h.9l.7.6h.9l.3.5.8.2c.2.9.6,2.2,1.6,2.4l.4,1.3.5-.2.9,1.1a5.2,5.2,0,0,1,1.8.2c.2.9-.3,2.1-.2,3.1a16.6,16.6,0,0,1,1.3,2.7c-.2.4-.5,1-.2,1.5s.7,1.3.8,1.8l.8.8v.7h.7l.4.7a3.7,3.7,0,0,0,.9,3.3v1.8a5.3,5.3,0,0,0-.5,2.6l1,.8-.5,1.2,1.1.4.2,1.1.8.7a11.8,11.8,0,0,1,.3,2.7l.7.5c-.7,1.4,0,3.7.3,5.1s.1,2.5.5,3.4a8.7,8.7,0,0,1-.5,2.2c.3.5,0,1.7-.2,2.4s2.3,2.6,1.8,4.4c1.2,1.4,2.4,3.5,1.9,5.3l1.1.5.4.7.8.2.2,1.2.8.7a4.9,4.9,0,0,1,.2,2.4l1.1,1.3c-22,1.2-45-.2-67.1-.5h0c-12-.6-25.9-1.2-37.8-2.1.2-6.8,1-16,1.3-22.8L195.5,296C197.1,281.5,198.6,263.9,199.7,249.9Z"/>
      <path class="cls-1" d="M205.6,182.6c1.7-18.9,4.3-50.7,5.9-70,30,2.5,61.6,4.1,91.6,4.5a3.8,3.8,0,0,0,.4,2.4c-.1,1.8.9,3.9,1.2,5.4l-.9,1.9c.5,3,0,7.1.3,10.3.7,1.1,1.3,4.5,1.5,5.8,2.3,4,2.7,9.4,2.4,14a34.1,34.1,0,0,1,.1,6.4l1,1.8c-.2,2.3-.9,5.9.2,8a9.7,9.7,0,0,0,2.1,5.7c.2,1.6-.1,3.9.7,5.4a7.8,7.8,0,0,0-.4,3.4C276.9,187.3,240.3,185.5,205.6,182.6Z"/>
      <path class="cls-1" d="M312.9,267.2h-1l-.9-1.1-.5.2-.4-1.3c-1-.2-1.3-1.5-1.5-2.4l-.9-.2-.2-.6h-1l-.7-.5h-.9l-.2-.6c-1.1.1-2.8-1-3.6-1.6v-.7l-1.9-.4-1.1.5c-.8-.4-2.9,0-3.7.3l-.6-.6-.6.3-1.1-.3-.4.2c-.1.7-1,1.5-1.5,1.9s-3.2-2.3-4.8-3.2a4,4,0,0,1-3-2.6c-27.1-.9-55.8-2-82.6-4.9,1.7-21.5,4.2-45.8,5.9-67.3,34.7,2.9,71.3,4.7,106,4.8.5,2.4-1.8,5.1-3.8,6.2l-.2.8c.3,1.4,1.8,3,2.2,4.3a30.2,30.2,0,0,1,3.3,2.1c.7,12.5,0,30.3.2,42.8h-2.3l-.2,1.1a8.9,8.9,0,0,0,1.3,1.8c-.1.6-.4,1.8-1,2.1l.2,1.1,1.3.5a7,7,0,0,1,.3,3.8l-.9.6.2.4v1.5l-.4.5c.3,1.6-1.5,3.4-1.3,5.1a12.7,12.7,0,0,1,2,3.1A4.5,4.5,0,0,0,312.9,267.2Z"/>
      <path class="cls-1" d="M119.5,287.5l-30.4-4.6c5-29.9,9.4-61.1,14.6-91,33.1,5.3,66.7,9.1,100,12.1-2.6,30-5.2,61.7-7.9,91.7-24.8-2-51.4-5.9-76.3-8.2Z"/>
      <polygon class="cls-1" points="119.3 288 107 378.9 132.6 382.3 179.8 387.5 204.8 388.7 220.7 390.3 226 298.9 195.7 296.2 159.4 292.7 119.3 288"/>
      <path id="_10" data-name="10" class="cls-2" d="M72.1,192.9c.6-4.3-1.5-5.7-4.5-7.6a76.5,76.5,0,0,0-3.6-20c8.4-6.1,11.9-10.4,18.7-1.4,5.6,5.5,3.3-4.5,2.6-7.9,2.6-3.3,6.7-4.5,5.5-10.1-7.3-2.5,6.5-8.8-1.3-10.9-2.2-2.9-3.6-5.3-6.3-8.8-.1-4.7,1.7-9.3,4.7-10.8-2.4-6.7-8.6-11.9-2.6-19.8,1.2-3.4,5.3-3,7.2-6.8,2.8,1.8,1.6-2.9,4.1-2.5,7.3,4.3,6.1-4.1,11.6,5.5,4.4.9,3.4-5.4,8-1.2-.2,3.1.4,1.2,2.4,2.3,7.2,3,7-2.3,8.3-7.8,1.8-2.6,9.7-2.8,9.7.7,6.9-5.8,12.6,1.6,17,4.7,2.5-4.3,5.5,2.9,9.4-.2,3.4-.8,1.9,6,6.2,5.2,1.6,4.4,4.2,5.1,6.9,2.5,4.6,1.4,8.8-.1,12.2-1.5s6.8,9.3,8.1,3.3c2.9-.2,5.3,1.1,6.1-2.7,2.1,4,4.2,4.1,8.7,5.9s-1.7,3.8,2.5,3c2.4,4.3,3.1,6.5,5.6,10.7,4.2-1.6,6.4-3.5,11.1-1.5a167.4,167.4,0,0,1,18.3,22.1c6.8-3,8,9.2,12.4,8.7,3.5,6.7,3.8-16.8,21.9-1.7,2.4-1.6-.6,2.7-1.2,3.9-.2,3,1.7,6.1,4.1,7.8-.5,4.5.4,2.5,1.9,3.1-.6,1.7,0,5.8,2,6.9,6.6-.4-1.6,11.2,3.5,12.2-3.4,11,12.4,3.1,12.5,23,3.2,4.4,5.9,9.3,5.5,14.7,3.6,4.3,6.4,9,9.8,14,3.2,1.2,2.4,9.4,10.1,6.6,4.8-1.3,2.4,5,5.2,5.1,2.1,4.6,1.2,8.1-.8,12.4-8.1,3.1-.7,7.8-1,15.2,2.4,9.8,7.9,19.8,16.4,25.6,6.1,10,12.1-2.9,20.5,7.7,6.6,13.4-.4,33.1,14.7,39.9,4.8-6.7,5.3,3.1,10,3.5s10,5.8,13.4-.5c10.4-4.2-1.5,5.9-4.6,8-8.9,3-19.2,3.9-15.1,17,0,4.1-.3,14.8-4.3,17.1-5.2-1.6-9.8,2.3-13-3.9-1.9-3.2-5.1,1.6-8.1.9s-3.1,6.2-5.1,4.1c-3.9-2.7-6.4-9.7-10.4-11.6-6.4,5.4-14.1-2.9-15.8-9.3,2.5-7.6-5.9,1.2-5.7-8-9.4.9-8.6-15.7-17.6-11.7-2.6,3.1-6.1,9.3-9.9,5.4-7.7,10.8-18.2-6-29.9-.6-10.4-.1-19.1-3.5-29.5-.1-9.1,1-15.3-4.6-24.7-5.5.6-7-4.4-7.5-10.3-8.8-2.9-2.8-6.7-10.8-11.1-6.4-5,8-18.7.4-17.9,4.8-2.3,5.2-9.4,1.4-11.4,4.8-5.6-1.9-8.1-6.8-6.9-12.9,2.4-2.3,5.4-2.4,7.1-6.9-1.1-1.1-3.1-1.7-1-3.3,6-2.4,4.2-10.5,3-16.2-6.9,5.6-16.8,1.2-12.6-9.5a90.9,90.9,0,0,1-9.7-20.5c2.8-3.1,1-7.3,5.5-4.7-.8-2.3,2.8-6.5-.2-6.6,0-3.4-.9-1.1-2.6-1.9s-6.3-.5-8.3-3.5c.5-2.8-6.1,4.6-8.7.5-5.5-1.2-10.4-5.2-8-12.1-6.6-7.1-5.2-16.1-10.6-21.1.8-12.8,9,2-1.4-14.7-.8-3.7-4.9-3.8-4.3-7.4-3.4,2.1-3.5,2.2-6.8-1.7-4.7-12.7-2.3-.5-9.3-2.4-1.2,0-5.8-.6-7.3-2-1.8,2.3-2.7,2.8-5.2,1S72.8,201.2,72.1,192.9Z"/>
    </g>
  </g>
</svg>
