<svg xmlns="http://www.w3.org/2000/svg" width="500" height="500" viewBox="0 0 500 500">
  <defs>
    <style>
      .cls-1 {
        fill: none;
        stroke: #999;
        stroke-width: 0.75px;
      }

      .cls-1, .cls-2 {
        stroke-linejoin: round;
      }

      .cls-2 {
        fill: #5c98ff;
        stroke: #fff;
        stroke-linecap: round;
        stroke-width: 2px;
        opacity: 0.5;
      }
    </style>
  </defs>
  <g id="hucs">
    <g>
      <path class="cls-1" d="M117.3,478.6l-.7.9-1.6.2v1.8l-2,.5v1.8c-3.2.9-12,3.4-15,3.4l-.2-1.4,7.7-1.6c.4-1.3-1.6-4.1-2.3-5.2-2.7-.4-3.4-3.2-3.8-5.7l.9-2.7a7.9,7.9,0,0,1-.5-4.1c-1.1-.6-2.5-4.3-2.9-5.4l-1.6.2c0,2.5-1.2,5.9-.9,8.4l-1.2,1.4c.5.4.3,9.5.3,10.4l-1.4,1.1-2.5-2.5H86l-.7-.9-1.4.7c-12.2-69.4-7-140.4-7-210.5l-.9-.2-2.3-4.1.3-.9c28.5-2.1,60.8-4.6,89.3-7.1,7.1,27.9,15.9,57.9,22.7,85.8.5.5,3,10.9,3.2,11.3,1.4,1.9,4.5,8.2,4.5,10.7,1.2.5,2.1,2.5,2.3,3.6l2.5,2.5a6.4,6.4,0,0,0,.9,3.4,9.1,9.1,0,0,1-.4,4.1c.9,1.4,3.4,2.1,4,3.6-2,1-2.7,4.1-4.7,5-.5,1.4.2,6.4.4,7.8-2.9,4-2,10.2-.4,14.5,1.3,1.6,2.5,5.2,2.9,7.2s-.4,7.5-.2,10.7l-.7.9c.5,2.5.9,6.8,3.9,7.7a17.5,17.5,0,0,0,1.6,5.2c-30.2,2.5-64.7,6.8-94.9,9.3v3.4a5.1,5.1,0,0,0-.4,3.7c1.6,1.6,6.6,6.8,8.6,7.7l.7,2.7c-.5,1.1-2.1,4.1-1.4,5.2l2.5,2.3v1.3l-1.3.5Z"/>
      <path class="cls-1" d="M347.1,371.9l1.6.3.2,1.6c-.4.9-2.5,2-3.4,2.4l.7,2.3-2.1,1.6-3.1-.2.9,2.5,1.6,1.1a8.5,8.5,0,0,0-1.8,3.2l-2.5-.2.2,3.1,1.6-.4c.4,1.6.7,4.7,0,6.3l-1.6-.9-2.3,1.4-.2,1.6,2.9-.9.5.9a15.1,15.1,0,0,0-1.1,5.6l-1.6-.4-.9.7.2,3.1-.5.7-2.5-.4-1.1.9,1.8,2.7-1.1,3,.7,3.1-1.2.5-2-2.1-.2,2.5,2,1.4,1.1,2.7.9-.9.3-2.7.9.7.2,2.5c-.9.9-2.7,2.7-2.7,3.8l1.8.5c-1.4,1.3-1.6,5-1.6,6.8l1.4,1.1-.5,2.5c-.9.9-3.4.9-4.5.7l-.7-.7-1.4.7c-1.3-1.4-5.4-2.3-7.2-2.5l-.7-.9-1.8.4-1.1,1.9-1.4.2c-1.4,3.4,0,7.7,1.6,10.9l.4,9a11.8,11.8,0,0,1-4.3.7l-2-1.3c-.2-1.4-.7-5.2-2.1-5.9l.9-1.8c-32.2,2.2-66.2,3.8-98.2,5.6a12.4,12.4,0,0,1-3.2-2.9l-.4-4.8c-2.5-2.3-4.3-6.6-5-10-3-.9-3.4-5.2-3.9-7.7l.7-.9c-.2-2.9-.9-7.7.2-10.7a16.1,16.1,0,0,0-2.9-7.2c-1.6-4.3-2.5-10.4.4-14.5-.2-1.4-.9-6.4-.4-7.7,2.3-1,2.7-3.9,4.8-5-.9-1.6-3.2-2.1-4.1-3.7a7.6,7.6,0,0,0,.4-4,6.8,6.8,0,0,1-.9-3.5l-2.5-2.4a6.2,6.2,0,0,0-2.2-3.7c0-2.2-3.2-8.8-4.6-10.6s-2.7-10.9-3.2-11.4c-6.8-27.9-15.6-57.8-22.6-85.7,12.2-1.2,32.2-4.1,44.4-5.5l.2-.4v.2c13,0,29.1-4.8,42-5.5-1.3,4.4-6.6,8.7-7.2,13.7l.9,2.2,1.3.5,1.6,2h2.5c5.5,3.9,3.6,5,11.4,5,1.3.7,2.4,3,2.9,4.6s4.8,6.3,5.4,9a22.7,22.7,0,0,1,7.1,8.9c5.9,4.3,12.9,7.9,16.8,14.7l2.2.2c2.1,1.2,4.8,4.1,6.8,5a10.1,10.1,0,0,0,.7,5.7l2.5.7a7.7,7.7,0,0,1,1.4,3.8l3.2,1-.3,1.3,1.6,2.1c3,.6,7.7,2.5,9.8,4.7v3c.7.7,2.2,2.2,2.2,3.4l1.2.4c.2,1.2,1.6,5.2.9,6.4l.9,1.1v1.8l2.3,2.3c5.6.5,7.4,6.6,10.2,10.7a45.7,45.7,0,0,1-.3,6.5l1.9,3c.9.7,3.6.7,4.7.7C343,370.6,347.1,371.9,347.1,371.9Z"/>
      <path class="cls-1" d="M244.1,82.2a17.3,17.3,0,0,0,1.4,7.5,6.3,6.3,0,0,0,0,4.3l-.9,1.2.2,1.6c1.8,1.8,4.7,4.5,5.9,6.8l-.5,1.8.7,1.3,1.4.5,1.6,3.6,2.9,2.1c.2,2.2,2.7,5,4.3,6.1l1.2-1.4,1.8,3.7a11.7,11.7,0,0,0,5.9.2c-2.3,4.1-8,10-10,14l-6.8,4.1c.2.7-4.8,4.8-5.2,5l.4,3.9a12.5,12.5,0,0,1-3.8,2.5l-.7,1.1a8.4,8.4,0,0,1,.2,3.9c-1.6,1.8-5,2.5-6.8,3.8l-.5,3.9c-2,.4-7.2,3.8-8.8,5a21.8,21.8,0,0,0-9.3,5.6c-22.5,3.4-47.9,3-70.3,6.6-8,.9-19.1-.7-26.6,2.3-12.9-.2-30.8,3.6-44,3.8l-.7-1.1H69.9a22.1,22.1,0,0,1,1.1,7.7c-13.6,1.6-32.4,2.7-46,3.9l2-6.6c.7.5,3.2,3.2,3.9,3.2l1.8-.9c-.7-2.8,2-7.3,1.1-10l-1.4-.9c-.2-1.2,1.2-3.2,1.6-3.9l-.2-3.6c-.7-.7-2-1.6-2.9-1.4l-.7-1.8c.4-1.1,1.1-4.5,2.2-5,0-2.5,2.1-4.3,4.4-5s6.5,2.1,8.3,3.4,5.5,2.8,8.2,3l.9-.5c.7-2.9.7-5.6-1.8-7.7l-.4-2.5c1.1-1.6.2-4.3,1.5-5.9,3.4-.2,7.8-3.1,10.9-3.6l1.2-1.1c-.9-2.8-4.6-5.9-3-9.1.7-.9,3.4-3.6,3.6-4.8l3.4-.2.5-2a4.7,4.7,0,0,1-.7-3.4l1.4-1,2,1.6,3.9-1.1.9.9v1.8l1.6.5,1.1-2.3-.7-2.5.9-1.8,1.6,1.8h1.4l1.1-.9c4.1-.2,7.1,4.1,10.9,4.5l.7,1.6h1.3c1.4-8.6,2.5-5.2,7.1-10l1.6-.4,2.7,3.6,2.7-.4.2,2.5,1.6-.5v-2.9l1.8-.3.5-1.1-.7-2,.7-2.1,1.8-.4v-1.2l-1.1-1.8.7-1.1,2.2.7,1.8-.9-2-1.4.2-1.1,2.5-.3a26,26,0,0,1,1.8,6.2,7.7,7.7,0,0,0,5.5,1.5l1.3,1.2,1.2-1.2,2-.2c.7-1.6,1.4-4.5.9-6.3s1.8-4.3,1.8-5.7l1.9-1.8,1.3.7,2.3-2.8c.2-1.1.7-5.4,1.6-6.1l2.5-.9a14.6,14.6,0,0,1,2.5-4.1c-.7-2.2-2.5-6.1-.9-8.4,1.1-.7,3.6-1.8,5.2-1.3a4.2,4.2,0,0,0,3.2,2l5.4-5,5.7-.7.4-1.1-1.1-2.5.9-.9-2.7-1.4-.5-1.1.7-1.4a6.2,6.2,0,0,0-1.8-3.8,5.4,5.4,0,0,1,4.3-4.5c.7.9,3.2,1.5,4.3,2s3.6-1.8,4.5-2.5l1.6.5.5,1.3c3.8,1.4,7.5,6.8,7.5,10.9,2.2.9,6.6,1.6,8.8.5,1.4.4,4.1,1.8,4.8,3.1s4.1,2.5,5.9,2.5l1.3-2.5,3-1.1c2.3.2,6.6,1.6,8.2,3.4,1.1-.7,3.6-1.8,4.9-1.6l1-2.3,5.4-4.3H230c.7,1.4,2.3,4.8,2.5,6.4a17.6,17.6,0,0,0,5,1.8C240.7,77.7,243.2,80.6,244.1,82.2Z"/>
      <path class="cls-1" d="M480.7,130.6l1.2-.3c2.9,6.4,6.8,15.7,10.8,21.6,2.8,2.5,5.5,7,7.3,10l-.9,1.1a23.1,23.1,0,0,0-5.7-7.9l-.2-1.4-2.5-.9a18.9,18.9,0,0,1-1.8-5.2C485.7,143.3,483.2,135.5,480.7,130.6Z"/>
      <path class="cls-1" d="M414.9,273.3c-9.5-8.7-26.7-21.4-37-29.1V244c-.6-.2-9.3-7.5-9.9-7.3-11.6,2.1-26.1,4.3-37.7,5.7l-.7-5-7-7.9-3,3.1-.9-1.8.7-3.1c-15.2,1.1-32.9,4-47.8,4.9l-1,1.9-1.3-.5c-1.8,1.4-4.8,4.1-7.3,3.4V239l-2.2,1.6-1.4-.5c-2.3,1.4-7.7,4.6-10,5.7-12.9.7-29,5.4-42,5.4,0-.2-.2-10.6-.2-10.8l1.6-2.5,2.5,1.1a10.3,10.3,0,0,0,4.8-3.4,33.8,33.8,0,0,0-.3-5.5c3.7-5.8,8.9-10.4,16.1-9.3,1.2-1.3,4.6-4.7,5.9-5.8l.9-.3c1.6-2.7,6.2-6.8,9.4-7,1.3-.7,2.4-3.2,2.9-4.5l-1.1-2.3,1.6-1.4,1.3.7,1.1-1.6-.2-1.1,3.9-4.3,2,1.1a4.4,4.4,0,0,0,.5,3c2.9.9,5-2.8,6.3-4.6a7.3,7.3,0,0,1,1.6-3.6,12.7,12.7,0,0,0,5.7-2.3,5.8,5.8,0,0,0,3.4,1.4l2-2.1c.3-3.1,2.5-8.6,4.8-10.9l3.9-.2a5.8,5.8,0,0,0-1.4-2.7,10.2,10.2,0,0,0,.2-7.3l1.6-2.2c63.1-5.5,126.1-18.6,187.8-32.5l.3.5-.9,1.3.2,1.2,1.8.2,3.2,4.1,1.1-1.6c.9,1.1,2.3,5.2,2.7,6.6s3.9,5.2,3,7.7c-.7-1.1-2.1-3.9-3.4-4.3v-1.4l-2.3-.7.2,3.7c-.6-.7-3.1-2.5-4-2.5l-1.9-1.8-1.8.9,2.5,1.8v1.1l3,1.2.2,1.5-2.5.5-.7,1.4-3.4-3c-.2.9.9,3.4,1.4,4.1s-4.3-1.4-5-1.8l-.9,1.3,2.3.9-1.2,1.4-2.5.5.9,1.5-.2,1.2-2,1.6-3.7-1.2-1.3.7a4,4,0,0,1-1.2-3.2c-1.1-.6-1.5-3.6-1.8-4.7l.9-.9-.2-2.8-2-1.8-.9,1.4,1.8,2.5-.9,2.5c.4,2.7,2.2,7.7,4,9.7l-.9,1.4.3,2.5c2.5-.5,5.9-2.7,8.4-3.2l.4-1.1,1.6-.7.9,2a3.4,3.4,0,0,0,3-.9l.4-1.1c1.6-1.4,6.1-2.7,8.2-2.3l-.2,1.4,1.3.2c.2,2.1-.7,4.6.5,6.6l-1.4,1.6,1.8.4c.2.7.9,2.5.5,3.2l-1.8-.4v1.1l2.9.5a13.5,13.5,0,0,1,.7-4.6c.2-2.3-1.6-5.4-.7-7.7l2.5-.4-.5-1.4,1-1.8,3.1,1.6c.5,1.6,1.8,3.8,3.2,4.5-.2,1.4,0,4.1.9,5.4l-1.6,1c.5.6,2.1,2.9,1.6,3.8l-2.5,2.3-1.8-1.8a7.7,7.7,0,0,0-.7,3.6l-1.6.9a8.7,8.7,0,0,1-.6,4.8l-2.3-.7.7,3.2c-.9.2-2.1,1.8-2.5,2.7l-2.1-.2-1.1-1-1.8,1-1.4-1.4-.7,1.8-1.8-.9.3-2-2.3,1.3-.5,1.2-1.6.2-1.8-4.3,2.5-1.6.3-2.3-1.9-.4.5,1.5-3,1.2-1.8-.9-.7,1.6,2.5,1.3-.4.9,1.1,1.6-1.1,1.8-2.3-1.1a4.5,4.5,0,0,1-3.6,0l-1.1-1.6-1.4,1.4-5-1.2-.5,1.6c1.2.3,4.1,1.2,5,2.1h2.5l.5,1.6,2-1V192l.7.7,1.8-1.1,7.7.7a11.3,11.3,0,0,1-.6,5.4l-1.9-.4-1.3,2.5,1.3.2,1.4-.9.9.9c-.9,1.1-2.7,3.4-2.7,5l-1.6.6-.9,2.1a6.5,6.5,0,0,0-3.2,1.8,8.9,8.9,0,0,0-4.1-1.8l-.9-1.6c-1.3-.2-4.1-2.3-5.2-3.2l-.7,3.7c2.3.6,5,3.1,6.6,4.9h1.4l1.3,1,2.1-.3,1.3.9,1.6-2.5,1.4-.4.4,2.3,1.2-.3-.7-2.2.7-1.4,1.6,2,.9-.9-1.2-1.1v-1.4l3,.3-.2-3.7h1.3l.2,1.8,1.2.7-1.2,1.8,2.5-.4.9-3,1.9,1.6.4,1.6-1.3.9.9,1.2-1.4,1.5-1.1.3.2,1.6-1.4.9.5,1.3-1.4,1.4.2,1.6-1.5,1.3-1.4-.2v-2.5h-1.4l-.2,2.7-1.3-.9-.7-2-1.6.9,1.1,1.4v1.5a17.8,17.8,0,0,0-11.8,4.6,12.5,12.5,0,0,1-2.2-4.3l-1.4.2,1.4,2.3a7.2,7.2,0,0,0,0,4.1l-1.6.6c.2,1.2-1.9,3-2.5,3.9l-1.4.2-2.3-1.8,1.4-1.8-1.4-1.1v-1.4l-1.8-.7-.4,1.6,1.8,1.4v1.3l-1.2.7.7,2.5,2.1.2.2,1.4a17.1,17.1,0,0,1-4.3,2.9c-6.1,7.1-10.9,16.4-9.3,25.9l-1.1-.7v-3.2l-1.4-.9a16.3,16.3,0,0,1-2.1,9.6l-4.7.4L427,268l-3.7,1.9-1.8-.7-3.2,3.4Z"/>
      <path class="cls-1" d="M477.1,131.2l2-.4.5.2,1.1,2.5-2,.2-1.2-2.5Z"/>
      <path class="cls-1" d="M248.6,246.5c2.3-1.2,7.8-4.6,10-5.7l1.4.5,2.3-1.6v-1.6c2.4.7,5.4-2.3,7.2-3.4l1.4.4.9-1.8c15-.9,32.9-3.8,47.8-5l-.6,3.2.9,1.8,2.9-3.2,7.1,8,.6,5c11.6-1.6,26.1-3.9,37.7-5.7.7-.2,9.5,7,10,7.3v.2c10.2,7.7,27.7,20.4,37,29-9.1,6.8-14.8,18-17.3,28.6l-2,1.4-.5-2.7-1.3.2c-.3,1.1.6,3.2,1.1,4.1l2.9,1.6.3,2.7-1.8.9.4,1.3c-.7,1-2.5,2.5-3.6,2.5l-.5,1.9-1.6.4-.6,1.6-3,.5c-.4.9-3.6,4.5-3.2,5.6l.9.9a24.1,24.1,0,0,0-5.6,7.1l-1.4.2-1.4-2.5-1.3,3.2,1.6.4.2,1.2-1.1.9-.5,2.7c-1.1.4-4.1,2-5.2,2L370,342h-2.5l.2,2.5c-.6.9-2.9,3.4-4,3.6l-1.9-1.1c-.9.9-3.4,1.3-4.5,1.3l-.4,1.9,2.7.9v1.3a5.8,5.8,0,0,0-2.3,3.9l-2,2.3h-1.6a31.2,31.2,0,0,1-5.2-5.7l-.9.2v2.7a9.4,9.4,0,0,1,2.9,7.1l2-2.3,1.6.9.3,1.1c-.7,1.6-2.1,4.3-3.7,5.3l-1.1-.7c-.5,1.1-2.3,3.8-1.6,5.2l-4.3-1.6c-1.1,0-3.9.2-4.8-.7l-1.8-2.9c.2-1.4.2-5,.2-6.6-2.7-4.1-4.7-10-10.2-10.7l-2.2-2.2v-1.9l-.9-1.1c.4-1.1-.7-5.2-1-6.3l-1.1-.5c0-1.1-1.3-2.7-2.3-3.4v-2.9c-2-2.3-7-4.1-9.7-4.8l-1.6-2,.2-1.4-3.1-.9a7.7,7.7,0,0,0-1.4-3.9l-2.5-.7a11.6,11.6,0,0,1-.7-5.6c-2-.9-4.7-3.9-6.8-5l-2.3-.2c-3.6-6.9-10.8-10.5-16.7-14.8a20.2,20.2,0,0,0-7.1-8.8c-.4-2.8-3.6-7.1-5.4-9.1-.2-1.4-1.6-3.9-3-4.5-7.9.2-5.9-1.2-11.3-5h-2.5l-1.6-2.1-1.4-.4-.9-2.3C242.1,255.1,247.3,250.8,248.6,246.5Z"/>
      <path class="cls-1" d="M16.3,222l.9-2.7h1.2c.4-1.4,1.8-4.6.9-6.2L17,212l.2-2.3,3.2.7.5-1.6-1.8-2.2,1.3-2.1.9.2.9-1.3-1.6-2.3a5.8,5.8,0,0,1,1-3.8L20,195.9l1.3-1.8,1.4.7c.7.9.4,3.4.2,4.3l.9.7,1.4-2.3c13.8-1.2,32.4-2.3,46-3.9a20,20,0,0,0-1.1-7.7h7.3L78,187c13.2-.2,31.1-4,44.1-3.8,7.2-3,18.6-1.1,26.5-2.3,22.5-3.6,47.9-3.2,70.3-6.6l1.2-.9c18.6-1.8,39.4-5,57.8-8.1l.7-.9L287,163l.4,1.1-1.6,2.3a11.4,11.4,0,0,1-.2,7.3c.9.4,1.4,2,1.4,2.7l-3.9.2a21.8,21.8,0,0,0-4.7,10.9l-2.1,2a5.7,5.7,0,0,1-3.4-1.3,16.5,16.5,0,0,1-5.7,2.2,5.4,5.4,0,0,0-1.5,3.7c-1.4,1.8-3.4,5.2-6.4,4.5a4.1,4.1,0,0,1-.5-2.9l-2-1.2-3.9,4.3.3,1.2-1.2,1.6-1.3-.7-1.6,1.3,1.1,2.3c-.4,1.4-1.6,3.9-2.9,4.6-3.4.2-7.7,4.3-9.3,7l-.9.2c-1.4,1.4-4.8,4.5-5.9,5.9-7.3-1.4-12.7,3.4-16.1,9.3a25.3,25.3,0,0,1,.2,5.5,11.1,11.1,0,0,1-4.8,3.4l-2.5-1.2-1.6,2.5c0,.5.5,10.7.3,11.1-43.6,6.2-89.9,9.3-133.9,12.5l-.2.9C49.5,268,23.1,270.5,0,271.4l.2-1.8,1.8-.4.7-2.1,3.2-.4L7,264.2,6.6,263l.4-1.5c-1.1-1.6-2-7.3-2.2-9.3l-1.4,1.3L2,252.8v-1.3l1.6-1.2.5-1.5H5.2l.2,2,1.4.7c1.1-.7,1.6-4.1,1.8-5.2l2.3-.5a19.8,19.8,0,0,1,1.4-6.3l-1.9-.5-.9-1.1-.2-2.1,3.6-1.6a13,13,0,0,1,3.2-3.4l-.4-3.1,2.4-.7v-1.6l-2-1.8Z"/>
      <path class="cls-1" d="M394.7,14c3-.5,5.9,1.5,8.4,2.2l.5,1.4c-.7.9-2.1,2.9-1.6,4.3s3.6,2.3,4.3,2.7a8.6,8.6,0,0,1,4.8.5l1.6,2.2c6.8.7,7.7,5.5,8.8,11.2-1.4,1.1-2.9,3.6-2.9,5.2l-2.1,1.6c-1.1,4-2.5,10.2,1.8,12.9,1.6-.2,3.2-2.5,4.8-2.5l1.1-1.4,1.4.3.4,1.3-.4,1.6a10.3,10.3,0,0,0,3.6,3v1.3c3.2,1.6,7.7,2.3,11.4,3l.9-.7c1.1.7,2.7,2.5,2.9,3.8l1.6.3.9,1.8,1.4-1.4c1.6,1.2,5.4,2.5,7.5,3,.2.7.9,2.5.4,3.2l-1.8.4-.5,2,1.2,1.4c0,.7,0,2.7-.7,3.2l1.1,2.7-.9.7-2.7-.5-.9-1.1-1.8.9c-.9-3.2-4.8-5.2-7.7-6.3l-1.6-2.5c-2.5-.5-5.2-3.7-6.8-5.5l-.5,1.8,3.2,3.4c1.4.3,2.9,2.3,3.6,3.4l1.6.5,1.4,2a7.2,7.2,0,0,1,5.2,5.7l1.6.7,3.2-.7,2,1.1,2-.4.5,1.6-4.3.7c.7.9,2.5,1.3,3.6,1.3l2.1,1.8h1.5c1,1.2,1,3.7.5,5-1.4-.4-4.1-1.6-4.8-2.9l-1.8,2.9,1.4,1.2-1.2,1.3,1,.9,1.5-.9,1,1.8-.5.7-3,.2c-4-2-8.8-6.8-12.2-10.2l-1.1,1.4c3.8,3.4,9.7,11.6,15.2,10.6l2,2.3,2.3-.4v2.9l1.6-.7,1.1,1.4v2.3l-1.8.4-2.5,2.5-2.5-2.7-1.1-.2-1.4-1.6-1.1.4-1.6-1.1.2-1.4-1.6-2.7h-2.3l-1.3.9-4.3-1.1-.5-2.7-1.1.4v2.5l-2.1.2.7,1.6c1.4.9,4.3.5,5.7,0l1.6,1.6,2.9-.2a11.9,11.9,0,0,1,1.2,5l1.6.7,1.1-.3.4,1.6,1.6-.4,2.3,1.1.7,2.9c1.1-.9,3.8-1.1,5.4-1.1l.5-.9-.7-1.6.9-1.3c2,1.1,5.2.6,7,1.8l1.9-1.8,1.3.4a69.6,69.6,0,0,1,3.9,7.7,25,25,0,0,1,4.1,7.5l-1.2.2-.4-2.5-2.5-1.5-.7,1.3a8.1,8.1,0,0,0,1.6,3.2,5.2,5.2,0,0,0-2.5,1.1l-.2-.4c-61.8,13.8-124.8,27-187.9,32.4l-.4-1.1-8.4,1.3-.7.9c-18.4,3.2-39.3,6.4-57.9,8.2,1.9-2,5.7-3.8,8.2-4.5s7-4.6,8.8-5l.5-3.9c1.8-1.6,5-2.2,6.8-3.8a8.6,8.6,0,0,0-.2-3.9l.7-1.1a12.5,12.5,0,0,0,3.8-2.5l-.4-3.9c.4-.4,5.4-4.3,5.2-5l6.8-4c2-4.1,7.7-10,10-14.1l1.1,1.4-1.4,1.8c.7.9,2.1,2.7,2.1,3.8a11.5,11.5,0,0,0,3.8,4.1l1.9-.2c2.7,2.5,4.7,3.6,8.4,2.7l1.3-2.5.9-.2c1.4-.7,2.5-3.2,2.7-4.6,1.2.7,3.7,2.3,4.4,3.4l2,.3c1.6-1.6,6.1-4.1,8.4-3.9.7-.7,2.9-2.3,3.2-3.2l-1.8-1.5,1.3-1.9,1.8.3.9,1.6c1.2-1,6.6-5.9,8.2-5.7l.9,1.6h1.1c.7-.9,2.8-4.1,3.9-4.6l-1.1-1.3v-1.2l3.6-2.7L326,109l-.9-1.8c.4-6.6,5-12.5,7.7-18.2.7-4.9,0-8.6,4.1-12.4L336,75c0-.9,1.6-2.3,2.2-3,.7-3.1-.9-7.5.3-10.6l.9-.9,3.6,1.8,2.1,4.1c1.3.2,4.7.9,6.3.4,3.2-2.7,2.5-10.9,4.8-14.1a4.6,4.6,0,0,1,.7-3.6l-.3-1.6,1.8-2.5,4.6,3c.7-2.5,1.1-7.1,2.9-9.1l1.2.7,1.1-3,1.6-.4.9-2.1-.7-.6c.7-1.2,3.9-5.7,3.9-7.1l-1.4-.9.7-2.9-.9-.5,1.6-4.7H373a10.5,10.5,0,0,1,.6-4.6c2.8,1.4,15.9,9.8,18.9,11.6l.4-.5C392.9,20.5,394.1,16.2,394.7,14Z"/>
      <path id="_06" data-name="06" class="cls-2" d="M285.1,131.6c3.2,13.4,11.6-8.8,10,4.8,3.9-1.8,0,2.5,3,2.3,4-2.5,4.7.4,1.6,3.8-2.5.7,3.8,3.6,2.2,3.6-4.1,4.6,2.5,7.1-5.2,9.3-10.2,3-.9,24.8-5.2,28.9-4.3.4-3.9,1.8-5.7,5.9,1.8,8.6-10,13.8-8.8,22-2.8,1.5,2,3.8-1.4,5-.2,1.8,2.7,0,2.3,2,.2,6.1-5.2,11.6-9.1,15.9s-5,1.3-9.1,2.2c-1.3-6.3-2.7.5-4.1-1.1-4.5-1.6-3.8,8.6-6.8,5.2-2.5,5.2-4,11.6-9.5,3.4-3.6-4.5-1.6,11.4-5.2,11.1s-3.6-1.1-3.9,2.1c-3.8,3.6-11.8,11.3-17.7,2.7.9-11.1-4,1.4-6.5-4.5-.9-3-.7-9.1-5.5-6.6-16.1-15.4-6.6,15.2-16.5,15.9-3.2,2.7-1.9-3.2-3.9-2.5s-6.6,15.4-6.6,4.5c-9.1,2.7-16.1,39-23.1,24.1-5.5-.5-7.3,2.5-10.2,7-1.8-3.6,4.7-11.6-4.3-8.4-2.1,3.4-5.9-2.5-8,2.7s-20.2-6.8-19.5-4.5c-7.5-1.4-3.2,9.7-9.7,8.8-8.2-.9-21.4-5.4-20.9-17-4.6-9.7-4.1,8.2-9.3-13.4-2.5-2.5-1.4-6.1-2.3-9.3-.4-9.9-4.1-29.9,1.6-36.3s-3.6-19.5-.5-21.5c1.9-5.5-25.1-32.9-8.8-32.5,4.1,2.1,3.4-10.8,10,2.5,10.4,12.7,15.9,35.7,32,40.9,8.1,11.5,24,12,34.9,16.1,1.4-.9,0,2.7,1.1,1.1,2.3-4.1,4.4.5,5-1.3-1.3-4.8,3.2-1.9,4.6-.7,6.1,7.9,13.4,10.9,19.9,13.6,6.4-2.5,0-12.7,4.8-12.5,3.4,5.2,10.9-10.9,9.5-14.1,0-6.8-7.7-9.5-.9-15.4,16.1-14.1,26.3,9.3,27.9-5.7.9-3.4-8.4-13.1-1.3-8.4,6.1-2.2,14.3-8.1,20.8-14.7,14.3-4.8,18.9-15,27.7-23.4,3.6-1.6,7.3,8,7.5,2.1C271.7,147.1,277.2,139.6,285.1,131.6Z"/>
    </g>
  </g>
</svg>
