<svg xmlns="http://www.w3.org/2000/svg" width="500" height="500" viewBox="0 0 500 500">
  <defs>
    <style>
      .cls-1 {
        fill: none;
        stroke: #999;
        stroke-width: 0.75px;
      }

      .cls-1, .cls-2 {
        stroke-linejoin: round;
      }

      .cls-2 {
        fill: #5c98ff;
        stroke: #fff;
        stroke-linecap: round;
        stroke-width: 2px;
        opacity: 0.5;
      }
    </style>
  </defs>
  <g id="hucs">
    <g>
      <path class="cls-1" d="M369.4,274.7c0-4.2-.3-12.8-.4-17.1l-.9-.8-1.6.5-.9-.8h-.8l-.4,1.1-.9-.3-.6.6h-2.2l-.6-.9h-.6l-1.1-2.2c.3-29.6,1.2-61.3-4.3-90.5h12.6c2.7-.3,8.3-.1,11-.4h.2c25.9-.8,52.8-2.1,78.7-3.7l1,.9.4,2.2,1.4.5a18.4,18.4,0,0,1-.3,3.3l-.6.5-.3,1.8-1.3.6v.8c-1.3.8-3.3,4.4-3.9,5.8,1.2.2,8.1-.3,9.5-.4v-.2l5.7-.3v.6l1.4,1.2v1.1l-1.7.5.3,2.1a11.2,11.2,0,0,0-2.1,2.3l-2.5,1.1.2,1.4.6.7,1.2.3a17.4,17.4,0,0,0-.9,4.3l-1.5.3c-.2,1-.5,3.1-1.2,3.6l-1-.5v-1.4h-.8l-.3,1.1-1.1.8v.9l1,.4.9-.9c.3,1.4.7,5.2,1.5,6.3l-.3,1.1.3.7-.8,1.7-2.1.3-.5,1.4-1.2.3v1.3l.9,1.9a7,7,0,0,1-3.7,3.3,6.6,6.6,0,0,1-.9,2.7h-1.7v.9l1.2.4.5,1.9-1.7-.8-.9,1.5c.3.5,1.2,1.9,1,2.5l-.9,1.5.3,2.2-.9,1.5a7.1,7.1,0,0,1-3.1.8c-.4.4,0,2.1.2,2.7l-1.4.3-.9,1.6h-1.5l-.2,1,2,.5v1.2l-2.1-.4-1.4.6,1.4,1.4c.3,1.2-.8,3.3-1.7,4.1l-.9-1.1-.7,1.1.7,1.8c-.7,1.1.3,2.6-.3,3.7l-1.6,1.4v1.1l1.4.3.3.9-1.8.3-1.3-1.1-.7.5a7.2,7.2,0,0,0,1.5,2.7v.7l-1.7,1,.7,1.9-.4,1.5.6.5.9-1.4.9.6-1.2,1.5.2,1.1.9-.5.6-1,.9.3c-.1.7-1.5,1.8-2.1,2.3l-.2.6,1.2,2.6,1.6-1.2.3,1a5.8,5.8,0,0,0-.9,2.8l-1,.8H439l-.3.9,1.2,1.2c.2.8-.6,2-1,2.6C416.3,274.1,391.5,275.4,369.4,274.7Z"/>
      <path class="cls-1" d="M353.4,147.9c-56.3,2.1-113.3.1-169.5-3.6,2.1-31.4,4.1-64.8,5.8-96l.2-.2c16.7,1.2,36.1,2.2,52.8,2.9v.2c30.8.3,63.2,2.4,94,.7,1.5.8,3,3.7,4.6,4.8l1.6-.5,1.6-1.5.6,1.8,1.2.2c0,.9,0,2.7.6,3.5l-2.4.2v1.2c-1.3.9-2.8,4.1-2.9,5.5s3.3,2.5,3.8,4.5l1.1.4c-.5,1.2,1.3,4.5,1.8,5.5l1.8,1.1,1.1-.6,2,1.8C352.6,102.2,353.5,125.8,353.4,147.9Z"/>
      <path class="cls-1" d="M369.4,274.7c22.1.7,47.1-.6,69.3-1.2l-.5.6v1.7l1,.9a5.2,5.2,0,0,0,1.5-1.8l.9.5c-.6,1.2-2.1,4.1-1.4,5.5l.8.4h1.1v1.3l-1.6.7c-.3.3-.1,2-.1,2.5l2.1-.8.8.2v1l-.9,1.1,1.7,1.5-.5,1-1.7-1.6-.4.9.4,1,1.9.7.3,2a14.8,14.8,0,0,0,2.7,1.6,9.1,9.1,0,0,0-1,3.3c-.2.3-4.8.8-5.1.8l.2,2,1.6.6,1.7-1.4.3-.9,1.4.6c-.3.5-2,3.1-2.4,3.2h-1.6l.9,1.7-1.5,1.1a10.5,10.5,0,0,1-1.7,2.9l.2,1.7-2-.3-.9.6v1.2l1.7.6-.8.9h-1.1a5.1,5.1,0,0,0-.9,3.7l-1.5-.3-.3,1.2h1.3V319l-1.7.8v1.7l1.2,1.7v.9l-1.9-.6v1.7l.9,1v1.7l-.8.6H431a5.3,5.3,0,0,1,.7,3.9l1.2,2.4-1.2,1.5.3.8c13.9-.6,32.3-1.8,46.1-2.8l.8,1.3a13.5,13.5,0,0,0-1.1,4.6c-.2.7-1.2,4-.9,4.7l.7.5.6,3c1.6,1.3,3.6,3.6,3.6,5.6l.7.9a5.4,5.4,0,0,0,2.5,4.9c-1.5.1-5.5-.6-6.9-1.5h-.9l-1.1-.8h-2.6l-.3-1.4a3.9,3.9,0,0,1-1.9-1.5,7.6,7.6,0,0,0-4.2-.3c-.5.6-1.4,2.3-2.2,2.4v1.4l-1.7,2.1a4.2,4.2,0,0,0,.3,3.1c3.3,1.5,10.1,2.8,12.5-.8l.3-1.3,1.3-.2v.9l1.4.2.5-1.5,1.3.4,1.1-.6-.3,2.1-.8.7.2,1-1.7-.4-1.2.6-.5,2,.8.9,2,.6,1.4,1.7h1l1.3-1.2a14.7,14.7,0,0,1,.4-3.6l1.6-1.2v-.9c2.7,1.1,5.2-.3,6.4-2.8l.6,2,1.2.5-1,1.7.3,2.3h1v1.1l-2.6,1.2-.7,2.2-2.2.3a4,4,0,0,0-.6,3.2l-.8.6h-1.2l-.6,1.3-1.2.5-.5.9c.3,1.5,1.4,4,2.8,4.8l-.2,1,.5.5a4.8,4.8,0,0,1,4.7,1.1v1.3l.5.4,1.4-.5.4.6.9-.5.2,1.1h.8l.4,1.2h3.1l.3,1.1-.9.5.9,1.4-.6.9-1.2-.5-1.3.3a4.5,4.5,0,0,0,.3,2.8l-.7.4c-.8-.3-1.4-1.9-1.7-2.6l-1.1.3c-.3,1-1.4,3.3-2.3,3.9l-.7-1.1,1.2-1.4.3-1.8-2.9-1.9a6.3,6.3,0,0,0-1.6-2.7l-.7.8a12,12,0,0,0-3.1-1.3l-.6-1.5-.6.6-3.4-.3a9.4,9.4,0,0,1-.8-3.4,7,7,0,0,0-3.8-.6l-1.1-.7-.3.9.7,1.2-.5,1.1.6,1.3-1.1,1,.2,1.2,1.4,1.4c-.5.4-1.6,2.1-2.2,2.3s-2.1,2.4-3.4,2.6l-.6-2.6a5.2,5.2,0,0,1-1.8-3.1h-1.1l-1.2,2.6-1.4-.2a3.9,3.9,0,0,0-.9-2.6l-1.5-.2-.6,1.1.3,1.1a4.1,4.1,0,0,0-2.3,1.5l-.3,1.9c-.8-.2-2.7.9-3.3,1.2s-3.2-2.3-3.8-2.9a16.8,16.8,0,0,1-4-.5c-.9-1.4-.4-4-1.7-5l-1.3-.5-.5-1.2-1.1-.2-.3-1.4h-1.4a2.4,2.4,0,0,0-2-.8l-1-.9-1.9,1.1-.4-.3.3-1.9-.9-1.3H432c.1-.9.6-3.2,1.3-3.7a4.9,4.9,0,0,0-2.9.2c-.9-.2-2.7.6-3.5.9l-.6-.3v-1.4l.8-.6-.2-1.1a10.2,10.2,0,0,1-3.5.5l-.5,1.2a13.7,13.7,0,0,0-2.9,2l-.3-1.1-1.5.8,1,1.4h1.3v1.8l1.5.2v1.2c-1.6.2-4.3.6-5.6,1.7-2.6-.5-7-.3-9.5-1.2l-6.1-2.6a6.8,6.8,0,0,0-4.3-1.9l-.6-.8-2.8-.6c-.7.2-2.9.6-3.6.2l-.6.3c-3.9,0-8.6.5-12,2.3a9.8,9.8,0,0,0-2.1-2l.6-1.7c2-1.4,3-5.2,4.7-6.9l-.3-.7c.6-1,.9-3.9,1.1-5l-2.2-2.6.2-2.1.6-.6c.8-1.9-1.4-4.6.6-6.1v-1.3a28.4,28.4,0,0,0,3.2-7.3l-.3-.6.6-1.7-.9-1.4,1.1-1.7c-.9-1.1-.6-3.7-.5-4.9l-.7.2-.9-.8v-.8a10.5,10.5,0,0,0-2.3-2.4l.9-1.9a5.1,5.1,0,0,1-1.6-2.4l-.9-.5.2-1.7-1.3-.3-1.2-1.8.5-1.2-.5-1.1.9-1.2a5,5,0,0,1-.9-2.3l-1.1-1.3v-.9c-.7-.7-3.6-4.6-4.5-4.9C370.1,303.1,369.4,279.2,369.4,274.7Z"/>
      <path class="cls-1" d="M327.6,33.1c29,.9,58.9-.6,87.7-2.3l.7,1.7h1.1l.8,1.8a6,6,0,0,1,2.3,2.9l1.7,1.3c-2,4.2-2,9.9.6,13.9-.3.6-1,2.1-.5,2.8a13.7,13.7,0,0,1,2.8,4.4c2.6,1.8,4.9,5.2,6.2,8a19.1,19.1,0,0,1,8,7.2c0,.7,0,2.7.8,3.5-.6,2.3.6,6.4,2.6,8,.6,0,2.7-3.1,3-3.6s3.7,1.3,4.8,1.1l2.3,1.9.6,1.8-1.2,1.1a16.2,16.2,0,0,0,.1,4.9,4.2,4.2,0,0,1-1.2,2.4c-.3,1.4-1.1,4.5-2.3,5.4s-.1,4.1.2,5.3,3,3,4,4l1,.3c.5,1.3,2.8,2.5,3.9,3.1l.4,1.7,1.9,1.2,1.3-.4c.8.4,3.1,2.3,4,2.4l.8,1.8,3,2.2c.5.4.2,2.4,0,2.9.4,2,2.2,4.4,2.7,6.3s-1.6,1.8-1.9,2.1l.3,1.6.8.3c.1.9.8,3,1.7,3.5a8.9,8.9,0,0,0,2,4l1.2.3.3-.6-.6-1.1.3-1.1,2.3,2.8c.6-.2,1.5.6,2,.9v2.5c-.3.6-1.2,1.9-1,2.6l.9.6c.4,1.8-1.4,4.9-.8,6.7l-1.2.6c-.6,0-2.3-1.8-2.6-2.1-.3,1.2-1.4,5-2.3,6l-.6-.5a9.5,9.5,0,0,0-.2-2.9l-.9-.5-.9,1.3,1.1.9a3.9,3.9,0,0,0-.7,2.6l1.1,1.5-.6.9h-.6l-1.2.6,1.3,1.4-.3,1-2.1-.4-.2,1.5,1.6.8c.4.9-.3,3.2-.6,4.1h-.8l-.6,1.9-5.7.3h-.1c-1.4,0-8.2.6-9.5.5.7-1.4,2.6-4.9,3.9-5.9v-.7l1.3-.6.3-1.9.6-.4a18.7,18.7,0,0,0,.3-3.4l-1.4-.5-.5-2.1-.9-.9c-25.9,1.5-52.8,2.9-78.7,3.7l-.2-.2c-2.7.3-8.3.2-11,.5l-.2-.2H353.8c-.8-27.7-1.1-56.5-.6-84.3l-2-1.8-1.1.6-1.8-1.1c-.5-1-2.3-4.3-1.8-5.5l-1.1-.4c-.5-1.9-2.6-3.1-3.8-4.5a9.3,9.3,0,0,1,2.9-5.5V60.4l2.4-.2c-.6-.8-.6-2.6-.6-3.5l-1.2-.2-.6-1.8-1.6,1.5-1.6.5c-2-2-4.3-4.6-6.2-6.6a6.6,6.6,0,0,0-.3-3.4l-1.1-.9-.3-1.7-1-.3-.7-1.1-1.5-.6c.8-2.6-1.1-5.5-2.6-7.5V33.1Z"/>
      <path class="cls-1" d="M162.1,143,161,159.7l-1-.2c-3.1,44.1-7.8,98.4-11.4,142.2-27.5-2.1-59.3-4.7-86.7-8.1l-.6.3a9.3,9.3,0,0,1-.2,3.7,13.7,13.7,0,0,0,2,2.9l-40.9-5.1c-.4,2.3-1.7,11.1-2,13.7-5.6-.6-14.5-1.6-20.2-2.8,8-58.1,16.7-120,25-177.7l35.8,4.7.3.5C94.2,136.8,128.9,142.2,162.1,143Z"/>
      <path class="cls-1" d="M184,144.5c56.1,3.5,113.3,5.7,169.5,3.5,2.5,35.1,6.9,71.6,4.9,107h-1.2a3.4,3.4,0,0,0-1.9-1.4l-.9.4a6.1,6.1,0,0,0-2.9-1.9l-.3-.8h-1.7c-.7-.1-2.6-3-3-3.6h-1l-.9-.3a17.1,17.1,0,0,0-2.1-2.6h-2a4.3,4.3,0,0,0-.9,2.1,7,7,0,0,0-2.9.9c-.8-.3-2.3-.7-3.1-.3l-.6-.6-.3-1.2-1.4-.2a6.7,6.7,0,0,1-2,1.7h-2v1.5h-4.3l-.8.6h-1.7a5.7,5.7,0,0,0-3.4,3.2l-2.4.3-.6,1.4h-.6c-.2-.8-1.7-1.9-2.2-2.5l-1.4.2-.6-1.4-2-.3-.3-.8,1.1-.8a3.3,3.3,0,0,1-1.8-1.5l-1.1,2.6-.6.3-1.6-1.2h-2l-.3-2.9-.6-.6-1.8.3.3,2.2-1.4,1.7-1.2-.8h-.6a13.4,13.4,0,0,1,0,4l-1.4.2-1.1-2.5.9-1.7L293,247h-1.2l-.5,1.2h-1.2l-1.6,2.1-1.5-1a8.4,8.4,0,0,0-.8-2.7l-1.3-.4-1,.6-.7-2.1h-2.3c-1.4.9-2.3,3.6-4,4.2l-1.7-.9-.5-1.5.8-2.2-1.2-.9-1.1.3-1.2-1.3a10.8,10.8,0,0,1,.1-3.1l-.9-.6-1.2,1.1-2.3-.4L266,238l-.9.7-.5,1.9-1.8.7-1.2-1-.3-1.6-1.3-1-.6.7a6.3,6.3,0,0,0-2.9.6l-.4-.6a10.1,10.1,0,0,1-3.7-1.2,3.2,3.2,0,0,0-1.6-1.4c-.9.6-3.2.3-4.2.2l-1-1.1.3-3.1h-.6c-.6-1.5-2.4-2.6-3.2-3.8l-.6.5-.2,1.2-.9.8-.9-1.1-2.1-.3-1.1,1.4-2.6-.7c-.5-1.2-2.2-2.4-2.3-3.6l-2.3-1.9h-1.9c.5-19.8,1.7-41.7,2.5-61.6-22.1-.8-46.7-2.6-69-3.7l1.1-16.7C165,143.9,181,145.3,184,144.5Z"/>
      <path class="cls-1" d="M358.3,255l1,2.1h.6l.7.9h2.1l.6-.6.9.3.5-1h.8l.9.7,1.5-.4.9.7c.5,13.5,1.1,35.7,1.1,49.4.9.4,4,4.1,4.6,4.9v.9l1.1,1.2c-.2.6.6,1.9.9,2.3l-.9,1.2.4,1.1-.4,1.2,1.2,1.9,1.2.3v1.7l.9.4a5,5,0,0,0,1.5,2.5l-.9,1.8a9.2,9.2,0,0,1,2.3,2.5v.7l.9.8h.8c-.3,1.2-.5,3.8.4,4.9l-1,1.6.9,1.4-.6,1.7.3.6a34.5,34.5,0,0,1-3.2,7.4v1.2c-2,1.5.1,4.3-.6,6.1l-.7.6v2.2l2.1,2.6c-.1,1.1-.4,4-1,4.9l.3.8c-1.7,1.7-2.8,5.5-4.8,6.9l-.6,1.6a6.1,6.1,0,0,1,2.2,2c-3.7,0-9.9,3-13.1,4.8a27.6,27.6,0,0,0-8.1,4.3,8,8,0,0,1-2.1,2l-.5-.8c.5-1.1,2.1-1.7,2.6-2.9h.8l1.4-1.4h1.6l-.3-1-.7-.3a38.6,38.6,0,0,1-4.8,1.6l-.9-.3c1.2-2.2,1.7-5.7,2.3-8a7.9,7.9,0,0,0-5.5,4.1h-.5l-1.7-1.5-.7,2.3.9,1.2-.8,1.4.5,1.1,1.7.7-.8,1.7,1.1.2c.3.9.4,3.2-.2,4.1l-1.2-.3-2.6,3.8-1.2.3-1.4-.4-.2,2.1-1.3,1.1.4,1.1,1.4-.2c-7.7,9.7-21.6,13.7-30.8,21.6l-.5-.4.8-1.4c.9.1,2.3-1.1,2.9-1.5s5.5-3,6.3-4.3,4.3-1.7,5.4-2.5l.6-1.2h-1.6c-3.3,1.8-7.5,4-10.7,6.1l-.6-1.2h1.7l-.2-.8-1-.3.7-2.4-1.7,1.4-.3-1.4-.9,2.3-1.1.4-1.2-1.8-.9.3,1.1,2.1a7.1,7.1,0,0,1-2.9,0l-.8-1.8-1.1.5-.8-1.9H304l.8,2.9-.5,1.4,2-.3,1.7,1.7-1.8,1.2.7.6,2.2-.7.9,1.7a27,27,0,0,1-6.6,3.8l-.8-.8-.3-2-1.2-.7-.8-1.7-.7.9.7.8-1.8.9,1.7,2.3c0,.9,0,3.2-.5,4a10.8,10.8,0,0,0-3,2.1,12.1,12.1,0,0,1,.6-3.8l-.6-.2-1.3.8.8,1.8-1.1,1.3h-.9V428l-.6-.6-2.3,1.5-1.2-.8-.3,2-1.3.9v.8l2.9,5.8-2.5,1.6h-.4l-1.2-1.3-1.7.2.3-1.4-2.2.5-.6-.6h-1.5l1.4,1.4,2.9.6-.3,2.1,1.4,1.4-1,1.9h.8l1.5-1.6.5,1.3c-.8.6-1.8,5.2-2.2,5.9s-1.5,4.6-3.8,5.7h-.9c.9-.8,1.1-2.8,1.1-3.9l-1.7,2.5c-1.1.4-3.2-.5-4.2-.8v.8l1.1,1.2-1.7.6,1,.9c.6.3,2.1,0,2.9-.1l1.3.7,2.3-1,.7.3v3.2l-1.4,1.7.4,1.4-.3.7-1.2.5-.6,1.2c.4.8.1,2.8,0,3.5,2.4,1.4,2.4,7.2,3.2,9.5l-.8,2,.5,2.2h.9l1.2,1.7V486l1.4.7-.6,1.6,1.1.7a7,7,0,0,0-.2,2.9l.8.6,1.4-.5.4.6c-.4.5-1.3,1.3-1.3,2l.3,1.3.9-.3.9-1.6.9.2-.4,2.7h-2.8l-.8.9c-2.4,0-6.2.4-8.2-1.3l-1-1.9-3.8-.3-.4-.7c-1.4-.3-5.4-.7-6.6.1l-1.4-.6-1.4.3-3.4-1.4-.6-1-.6.3-.5-1.4-1.5-.2V489l-1.1-.2-.5-1.1-1,.3-.8-.7h-.9l-.6-.6-2,.3c-.3-.3-2.2-2-2-2.6l-2.9-1.5c-1.9.6-3.3-1.2-4.8-1.4l-.6.5-.8-.3v-2.3l-1.3-2.2c.3-.8-.8-2.7-1.1-3.4s-1.4-4.9-1.7-5.9l-1.1-.6-.7-1.4-1.4-.2c-.2-1.5-1.9-2.9-2.2-4.3s1-4.1.8-5.5-1.5-1.2-1.5-1.8l-1-.3,1-2c-.3-.8.1-3.2.3-4.2h-.9l-.2-2.5-2.1-1.6-.7.3-.6-1h-1c-.5-.6-2-2.5-2-3.1l-1.4-.7-.8-2.8a5,5,0,0,1-1.1-2.6l-1.5-1.1c-.6-2.3-2.1-5.2-4.4-6.1a12.7,12.7,0,0,0-2.3-2.8,16.7,16.7,0,0,1-1.6-5.5l-.7-.8v-1.8l-1.2-.9v-1.4l-.9-.8-.3-1-1.1-.5c-.6-1.2-.5-3.2-1.1-4.7l-.6-.3v-2.2h-.9c-1.8-2.8-.6-7.1-3.8-9.2l-.3-2.2c-1.6-1.1-3.7-3.2-5.4-4.1l-.6-2.6c-1.1-1.3-2.6-.9-3.7-2.2h-1.1l.5-2.6-.8-.7-.4,1.3-.9-.4.3-1.2-1.4-1-.6-2.9-1.3.3-.6-1h-1.8l-.2-1.1-1.7,1.2a9.7,9.7,0,0,1-4.5-1.2l-3.6.3-.6-1.4-2.3.8c-1.7-.8-4.9-3.1-6.7-3.4l-1.1.5-.6,2.6-.5.3a4.6,4.6,0,0,1-2.6-1.1l-1.2,1.2-.6-.6-1.2.6h-1.4a13.8,13.8,0,0,1-2.6,4l-.6,2.1-.8.3c0,1.4-.9,3.5-.9,4.9l-1.2.5-.8,2.4.4,1.7h-.7c-.5.8-2,1.2-2.8,1.4l-.7,1.5a4.4,4.4,0,0,0-1.9,1.9c-.1.4-.3,2-.9,2.3a7.7,7.7,0,0,0-4-.3l-1.2-2-1.4.6c-.3-.5-1.2-1.6-2-1.6l-.4-1.9c-1.4-1.1-3.6-1.1-5.3-1.7l-2.3-3.3-5.2-1.5c-.6-.6-3.5-3.4-4.3-3.7a5.7,5.7,0,0,0-4.6-4.6l-1-1.8-.9-.3c-1.4-1.1-2-4.6-2-6.1v-.6c-3.3-6.9,1-11.8-3.6-18.3l-.7-.4c.1-.5-.3-5.1-.3-5.7s-2-2.5-2.5-3.5-3.7-3.4-5.3-4.5c-3.6-1.5-7.9-5.8-8.3-9.9-.8-1-2.6-2.8-3.9-3.1-1.3-2.5-3.5-5.5-5-7.8l-2.2-.3a13.3,13.3,0,0,0-2.9-2.9,7.9,7.9,0,0,0-1.3-3.3c-.4-1.5-1.4-4.7-2-6.2-.8,0-2.3,0-2.9-.5a18.7,18.7,0,0,1-2.7-4,9.2,9.2,0,0,0,.2-3.7l.6-.3c27.4,3.4,59.3,6,86.7,8.2,3.4-43.7,8.3-98.3,11.4-142.2,22.5,1.2,47.5,2.9,70,3.6-.8,20-2,41.9-2.4,61.6l1.8.2,2.3,1.8c.1,1.4,1.8,2.5,2.3,3.7l2.6.6,1.1-1.4,2.1.3.9,1.1,1-.7v-1.3l.6-.4c.9,1.2,2.8,2.3,3.2,3.8h.7l-.4,3.1,1,1c1,.2,3.3.5,4.3-.1a2.3,2.3,0,0,1,1.5,1.4,11.5,11.5,0,0,0,3.7,1.2l.4.6a4.1,4.1,0,0,1,2.9-.6l.6-.8,1.3,1.1.3,1.5,1.2,1.1,1.8-.8.5-1.8.9-.8,1.7,1.4,2.3.3,1.2-1.1,1,.7a7.5,7.5,0,0,0-.2,3l1.2,1.4,1.1-.3,1.2.9-.7,2.2.4,1.5,1.7.9c1.7-.6,2.6-3.4,4-4.3h2.3l.8,2.2.9-.7,1.4.5a5.6,5.6,0,0,1,.7,2.6l1.6,1.1,1.5-2.2,1.2.2.5-1.2h1.2l.8,1.8-1,1.7,1.1,2.4h1.4a13.4,13.4,0,0,0,0-4h.6l1.2.7,1.4-1.7-.3-2.1,1.8-.3.7.6.3,2.9h2l1.5,1.2.6-.3,1.1-2.6a4.4,4.4,0,0,0,1.8,1.5l-1.1.8.3.7,2,.3.7,1.4h1.3a6.4,6.4,0,0,1,2.2,2.4h.6l.6-1.4,2.5-.3a6.1,6.1,0,0,1,3.3-3.2l1.7.2.8-.6h4.3v-1.6l2,.2a6.3,6.3,0,0,0,2-1.7h1.4l.3,1.3.6.6a6.6,6.6,0,0,1,3.1.3c.6-.3,2.1-1.2,2.9-.9s.4-1.9.9-2.2l2,.2a5.4,5.4,0,0,1,2.1,2.6l1,.3.9-.2c.4.6,2.3,3.4,3,3.7h1.7l.3.8a4.8,4.8,0,0,1,2.9,1.8l1-.3a4.2,4.2,0,0,1,1.8,1.4Z"/>
      <polygon class="cls-1" points="42.1 2.1 24.7 129.3 60.6 134.1 126.6 141.4 161.6 143 183.8 145.2 191.3 17.5 148.9 13.6 98.1 8.7 42.1 2.1"/>
      <path id="_11" data-name="11" class="cls-2" d="M378.8,244.5c2.7,8.6,21,12.6,16.8,30.3,1.3,9.1,9.4,13.1,5.7,24.6,4.7,10.2,11.3,16.2,13.2,26.5-5.4-2-7.1-2.5-7.4,3.7-7.9-13.4-11.9,5.9-17.4-13.2-4-8.8-15.1-25.2-26.3-28.2-6.4,4.1-10.1-4.9-15.6-3.7-6.4-17.2-20.2-9.3-30.2-23.7-10.7-5.1-21.7-12.3-33.8-7.1-7.5,6-16.4.8-23.9,6.9-7.5-1.2-14.3-11.5-24.9-6.3-5.6-.8-13.1.8-19.7.8-1.7-3.4-2-6.9-6.5-5.2-9.8-7.7-11.5-18.7-22.9-23-14.9-12.6-40.2-6.1-52.3-23.3-16.4,2.1-13-25.7-30-29.9,4.4-17.1,15-36.5,12.8-56.7-13-.3.5-.1-8.5-17.8-3.1-2.4-5.6-13.7-9.2-8.5C93.8,94,91,77,95.9,73.5c-7.4-.2-5.7-7.2-2.3-11.2-.8-3.7,3.1-2.9,6-3.7,4.1,2.6-4.5,13.1,2.9,14.7,2.4,8.8,22.7,5.6,23.1-3.5,6,1.4,9.4,4,15.5,1.2,19.2-10.8,12.1-6.2,27.6,5.1,8.4-.9,10.6,4.4,11.8,11.2,12.7,1.7,22.2,8.6,34.8,8,13-6.2,26.2.1,40-.2,5.5.5,14.4-4.7,19.9,1.4,6.4,2.3,8.1,6.7,15.3,3.5,5.2,4.8,2.3-8,9.8-2.9,7.2.9,6.1-9.5,13.2-9.8s6.7,4.6,9.8,10.1,6.3,6.9,12,6.4c-.7,6.9,3.6,8,8.8,6.8-2.7,6.3,2.3,13.6,6.2,16.1,11.3,9.9,12.7-1.9,17.3,3.7,4,2.1,4.3,9,9,9.9,4.9,13.3,18.3-16.5,25,2.2,12.9.7,20.4,2.3,19-14.4,3.5-.2,7.5-1.9,10.9,1,2.7-3.5,7-9,12.1-5.6s1.2,24.2,13.9,24c6.5,8.3-4.7,14.1-10.1,20.4-5.5,8.3-6.7,15.8-10.7,24.4.8,12.5-8.7,12.1-17.3,6.4-2.8,6.7-5.5,8.3-6.8,14.1s6.6,1.8,5.9,6.9c4.1,4.4,9.3,19.3-1.1,12.7-1.7-3.4-.5-4.3-4.3-6.9-3.1.2-5.8-7.3-8.9-9.6-5.8-3.1-10,1.6-15.9,1.8-6.9-4.6-13.2,6.3-21.2,2.9-4,5.7,6.3,6.4,6.2,11.8C376,235.3,375.6,240.5,378.8,244.5Z"/>
    </g>
  </g>
</svg>
