<svg xmlns="http://www.w3.org/2000/svg" width="500" height="500" viewBox="0 0 500 500">
  <defs>
    <style>
      .cls-1 {
        fill: none;
        stroke: #999;
        stroke-width: 0.75px;
      }

      .cls-1, .cls-3 {
        stroke-linejoin: round;
      }

      .cls-2 {
        opacity: 0.5;
      }

      .cls-3 {
        fill: #5c98ff;
        stroke: #fff;
        stroke-linecap: round;
        stroke-width: 2px;
      }
    </style>
  </defs>
  <g id="hucs">
    <g>
      <path class="cls-1" d="M319.1,271.7h-.8a6.5,6.5,0,0,0-1.7-1.6l-.2-.7.3-.8c.4-.4,2.9-.1,3.3-.1l.8,1Z"/>
      <path class="cls-1" d="M209.8,283l-.3.4h-.8v.9l-1,.2v.9c-1.5.4-5.8,1.6-7.2,1.6v-.6l3.7-.8c.2-.7-.7-2-1.1-2.5s-1.6-1.6-1.8-2.8l.4-1.3a4,4,0,0,1-.2-1.9c-.6-.4-1.2-2.1-1.4-2.7h-.8c0,1.2-.5,2.9-.4,4.1l-.6.6a42.5,42.5,0,0,1,.1,5.1l-.6.5-1.2-1.2h-1.8l-.3-.4-.7.3c-5.9-33.5-3.4-67.8-3.4-101.6h-.4l-1.1-2v-.4c13.8-1,29.4-2.2,43.2-3.4,3.4,13.4,7.6,27.9,10.9,41.4.2.2,1.4,5.2,1.5,5.4s2.2,4,2.2,5.2,1,1.2,1.1,1.7L249,231a3.1,3.1,0,0,0,.5,1.7,4.6,4.6,0,0,1-.2,2c.4.6,1.6.9,1.9,1.7s-1.3,2-2.3,2.4a15.1,15.1,0,0,0,.2,3.7c-1.4,2-.9,5-.2,7.1a10,10,0,0,1,1.5,3.5c-.6,1.4-.3,3.6-.2,5.1l-.3.4c.2,1.2.5,3.3,1.9,3.8a11.7,11.7,0,0,0,.7,2.5c-14.5,1.2-31.2,3.3-45.7,4.5V271a2.3,2.3,0,0,0-.3,1.8c.8.7,3.2,3.3,4.2,3.7l.3,1.3c-.2.6-1,2-.6,2.5l1.2,1.1v.7l-.7.2Z"/>
      <path class="cls-1" d="M251.9,264.9a9.4,9.4,0,0,0,1.6,2.3l.2,2.3a7.3,7.3,0,0,0,1.6,1.4c15.4-.9,32-1.6,47.4-2.7l-.4.9c.6.3.8,2.1,1,2.8l.9.7a7.1,7.1,0,0,0,2.1-.4l-.2-4.4a6.8,6.8,0,0,1-.8-5.2h.7l.5-.9.9-.2.3.4c.9.1,2.9.5,3.5,1.2l.7-.3.3.3h1.5l.4.6.7.3h.8v1.7c.7,1.1,1.7,3.3,1,4.5l.2.4,1.1-.5c.8,3.4,3.1,7.6,3.5,11l.9.9.4,2.4,1,1c-.1.8,3.2,5.8,3.2,6.6s3.5,4.5,3.3,6.3l1,.2c.1,2.3,2.5,3.9,3.7,5.8l-.3.4-1-.7-.3.3c2.8,9.9,10.5,17.9,14.2,27.2.8,1.8,3.7,4.3,3.4,6.5,2.6,0,3.1,4.7,4,6.6,2.1,7.3.7,15.7,2.5,22.9l-.7.3-.2-.9h-.6v1.8l-.7.9c0,.7-.2,2.3-.9,2.8s-.2,2.2-.1,3.1a4.6,4.6,0,0,1,.9,2.3l-.9.6v.7c-.5.3-.7,1.3-.7,1.9l-.5-.2-.8.8-.9-.5h-.7l.2.5a4.6,4.6,0,0,0-2.1,1.4l-1.5.3a3.2,3.2,0,0,0-2.1-.3c-1,1.5-2.4,1.3-3.8,1.7s-2.2-2.4-1.8-3.8l.9-.2c.5.6,1.8,1.8,2.7,1.8l1.2-1V380l-.3-.3-1,.3-.4-.5-1.3-.5-.8.2a1.9,1.9,0,0,1-1.8-1.8l-.8-.8v-.8c-.7-.1-1.5-1.6-1.8-2.2-1.9-1.5-2.5-4-5.3-4.2l-.4-.5-.6.4c-.5-.5-2-.1-2.6,0l-.8-.5a20.9,20.9,0,0,1-3.4-9.7l-.5-.3v-.9l-1.1.3-.8-.8H320l-.4-.6.2-.7-1.1.3c-.6-.7-.4-1.9-1.2-2.5s.8-3.5-1.1-5.3l.2-.6.8-.3V347a6,6,0,0,1-2.2.9l-1.4-.6-.4.5a10,10,0,0,1,2.2,2.4v.9a2.3,2.3,0,0,0-1.4.1,3.3,3.3,0,0,1-2.2-2.4c-.8-.2-2.5-2.6-3-3.2v-1.2a12.3,12.3,0,0,1-2.6-5.4l-2.2-1.1v-1.3h1.5l-.5-1.4a3.2,3.2,0,0,0,.6-1.8,6.7,6.7,0,0,0,1.4-1.5l-.2-.8a4.3,4.3,0,0,0,1.4-2.1,4.6,4.6,0,0,1-.8-2.1h-1a2.5,2.5,0,0,0,0,1.9l-.2.7-1-.7-.2-1.8a6.2,6.2,0,0,1-2-1l-.4.2-.8-.5a5,5,0,0,1-.2,2.4,3.3,3.3,0,0,1,2,.8c.1.8.2,2.9.3,3.7l-.7.2c-.3-.5-1.3-.9-1.6-1.1s-.3-1.4-.7-1.6l-.7.4c-1.8-2.4,1.1-4.4-.6-7.8,1-1.8.8-4.4,1.4-6.2l-.3-.4a5.9,5.9,0,0,0-.2-3.7l.5-1.3c-.5-.4-.5-1.7-.5-2.3l-1-.3v-.8l.9-.2.2-.6c-.5-.6-1.6-.8-2-1.5a2.4,2.4,0,0,0-.7-1.3v-.8l-1.2-.4v-1.3l-.2-.4c-.9,0-4.1.4-4.9-.2v-1.1l-.5-.5h-1c-.2-.4-.7-1-.7-1.5a10,10,0,0,0-1.4-1.5h-1.1a4.2,4.2,0,0,0-2.2-1.9c.1-1-.6-2.1-.6-3.1l-1.4-.3-.3-.7h-1.1l-.4-.8-.5-.2-.3-.8.4-.5c-1.7-.8-3-3.3-5-3a13.6,13.6,0,0,0-3.9-2.2l-1.8.8a5.7,5.7,0,0,0-2.6-.2v.9h-1l-.9.9.6,1.1-.7.4,1.1.4-.2,1a3.7,3.7,0,0,1-1.8-.4l-.6.4h-1.1a8.2,8.2,0,0,1-2.6,2c-.6.4-2.4,2.1-3.1,2.2v-1.1l-.8.2v.6l-.6.3-.3.8a18.4,18.4,0,0,1-3.3.3l-.8.9-1.4.2-.8.6h-.6a5.8,5.8,0,0,1-1.5-3.8l.8-.9.4,3.4.9.8a4,4,0,0,0,.2-3.2,13.8,13.8,0,0,1-1.7-2.5,5.2,5.2,0,0,1-2.2-.7v-.6l-3.1-1.5-.2-.6c.8-.1,2.6.9,3.3,1.2l-.3-1.6-1.2.2c-.6-.2-2.3-.7-2.7-1.3l.5-.5-1.1-1.8-1-.2a3,3,0,0,0-1,1.7l.8.2.4-.5.9.5.3,1.9h-.5c-3.7-3-8.9-4.4-13.4-4.6l-.3-.7h2.5l.6-.4a10.9,10.9,0,0,1,3.1.3l.4-.7a3.7,3.7,0,0,0-2.3-1.2l-.6.5h-1.2a2.4,2.4,0,0,1-1.4.5l-.6-.9h-.6v1h-.8l-.4.7c-3,.8-7.1,1-9.8,2.6l-.3-.7c.7-.3,2.7-.9,3.2-1.8l-.3-.6-.6-.5-.5-1.1-.6,2.1h-.8v-1l-1-1h-.6l.6,1.7-.3,1.3c-.4.3-1.9,1.5-2,2.1l-1.1.2-.4.6-1.4.7-.5-.3.9-.8a2.2,2.2,0,0,1,.3-1.4l.7-.2v-.7l-1.2-1.1c-.2-.5.4-2,.6-2.5l-.3-1.3a29.2,29.2,0,0,1-4.1-3.7,2.8,2.8,0,0,1,.2-1.8v-1.6C220.7,268.1,237.3,266,251.9,264.9Z"/>
      <path class="cls-1" d="M320.8,231.5h.7l.2.8a10.4,10.4,0,0,1-1.7,1.2l.3,1.1-.9.7h-1.6l.5,1.2.7.6a7.5,7.5,0,0,0-.9,1.5h-1.2l.2,1.5.7-.2a6.5,6.5,0,0,1,0,3.1l-.7-.5-1.1.7-.2.8,1.5-.5.2.5a7.6,7.6,0,0,0-.6,2.7l-.7-.2-.5.3v1.5l-.2.4-1.2-.3-.5.5.9,1.3-.6,1.4.3,1.6-.5.2-1-1v1.2l1,.7.5,1.3.5-.5v-1.3l.4.3v1.2c-.4.5-1.3,1.4-1.3,1.9l.9.2c-.7.7-.8,2.4-.8,3.3l.7.6-.2,1.2a3.4,3.4,0,0,1-2.2.3l-.4-.3-.6.3c-.7-.7-2.7-1.1-3.5-1.2l-.4-.4-.8.2-.6.8-.6.2c-.7,1.6,0,3.7.7,5.2l.2,4.4a6.4,6.4,0,0,1-2,.3l-1-.6c-.1-.7-.3-2.6-1-2.9l.4-.9c-15.5,1.1-31.9,1.9-47.4,2.8a6.6,6.6,0,0,1-1.5-1.4l-.2-2.3a10.4,10.4,0,0,1-2.5-4.9c-1.4-.4-1.6-2.5-1.8-3.7l.3-.4c-.1-1.4-.4-3.7.1-5.2a7.6,7.6,0,0,0-1.4-3.5c-.8-2.1-1.2-5,.2-7a15.3,15.3,0,0,1-.2-3.7c1.1-.4,1.3-1.9,2.3-2.4s-1.5-1-2-1.8a3.1,3.1,0,0,0,.2-1.9,3.3,3.3,0,0,1-.4-1.7l-1.2-1.2a2.7,2.7,0,0,0-1.1-1.7c0-1.1-1.5-4.3-2.2-5.2s-1.3-5.2-1.5-5.5c-3.3-13.4-7.6-27.9-11-41.4,5.9-.5,15.6-1.9,21.5-2.6v-.2h0c6.3,0,14-2.3,20.3-2.6-.7,2-3.2,4.1-3.5,6.5l.4,1.1.7.3.7.9h1.2c2.7,1.9,1.8,2.4,5.5,2.4a4,4,0,0,1,1.4,2.2,15.3,15.3,0,0,1,2.7,4.4,11.8,11.8,0,0,1,3.4,4.3c2.8,2.1,6.2,3.8,8.1,7.1h1.1a33.3,33.3,0,0,0,3.2,2.4,4.5,4.5,0,0,0,.4,2.8l1.2.3a3.9,3.9,0,0,1,.6,1.9l1.6.4v.7l.7.9c1.4.4,3.7,1.2,4.7,2.3v1.5a2.9,2.9,0,0,1,1.1,1.6l.6.2c.1.6.7,2.5.4,3.1l.5.5v.9l1,1.1c2.8.2,3.7,3.2,5,5.2s0,2.5-.1,3.1l.8,1.5a6.1,6.1,0,0,0,2.3.3C318.8,230.8,320.8,231.5,320.8,231.5Z"/>
      <path class="cls-1" d="M188.2,180.1l1.1,2h.5c-.5,34.2-1.7,68.8,3,102.6h-.6l-.4.5h-1.1l-.7-1.2-.3-.2a3.5,3.5,0,0,1-3.2,1.4l-.3-.9-1.6-.8-.3,1.3-1-.2a5.3,5.3,0,0,1-1.8.5l-3.7,1.9-.5-.2v-.8h-.9l.2,1a3.8,3.8,0,0,0-1.6,2.4l-1.8,1a3.6,3.6,0,0,1-1.7-3.5l-.6-.6c0-1.6-1.4-3.1-2.5-4l-.4-2.2-.6-.3c-.2-.5.6-2.8.7-3.4a12.3,12.3,0,0,1,.8-3.3l-.6-.9c-9.7.7-23,1.6-33,2l-.2-.5.9-1.1L135,271a4.2,4.2,0,0,0-.4-2.7h1.2l.5-.5v-1.2l-.6-.7v-1.2l1.3.4v-.6l-.9-1.3V262l1.2-.5v-1h-.9l.2-.9,1.1.2a5,5,0,0,1,.6-2.6h.8l.5-.6-1.2-.5v-.9l.7-.4,1.4.2v-1.2a5.5,5.5,0,0,0,1.2-2.1l1.1-.7-.6-1.2h1.1a19.5,19.5,0,0,0,1.7-2.3l-1-.5-.2.7-1.2,1-1.2-.7v-1.4a20.8,20.8,0,0,0,3.6-.6,5.7,5.7,0,0,1,.8-2.4,4.9,4.9,0,0,1-2-1.1l-.2-1.4-1.3-.5-.4-.7.4-.6,1.2,1.1.3-.7-1.2-1.1.6-.8v-.7h-.5l-1.5.5a4.9,4.9,0,0,1,.1-1.7l1.1-.6v-.9h-.8l-.5-.3c-.6-1,.6-3.1.9-3.9l-.6-.4c-.2.5-.7,1.2-1.1,1.3l-.7-.6v-1.2a3.4,3.4,0,0,0,1.1-2.3l-.9-.9.3-.7h.6l.7-.5a15.2,15.2,0,0,1,.6-2l-.2-.7-1.1.8-.9-1.8.2-.5c.4-.3,1.4-1.1,1.5-1.6l-.7-.2-.4.7-.7.4v-.8l.9-1.1-.7-.4-.6,1-.4-.4.3-1.1-.6-1.3,1.2-.7v-.5a6.3,6.3,0,0,1-1-2l.5-.3.9.8,1.3-.2-.2-.7-1-.2v-.8l1.1-1c.3-.7-.3-1.8.2-2.6l-.4-1.3.4-.8.7.8a3.9,3.9,0,0,0,1.2-3l-1-1,1-.4,1.5.3v-.8l-1.4-.4v-.7h1.1l.6-1.1,1-.2c-.1-.5-.4-1.7-.1-2a3.3,3.3,0,0,0,2.2-.6l.7-1.1-.3-1.5.7-1.1c.1-.4-.6-1.4-.8-1.7l.7-1.1,1.2.5-.3-1.3-1.2-.2v-.7h1.2a4.2,4.2,0,0,0,.6-1.9,4.9,4.9,0,0,0,2.6-2.3l-.6-1.5C164.4,182.2,177.1,181,188.2,180.1Z"/>
      <path class="cls-1" d="M385.3,114.9h.5c1.5,3.1,3.3,7.6,5.3,10.4a24.3,24.3,0,0,1,3.5,4.9l-.4.5a12.9,12.9,0,0,0-2.8-3.8v-.7l-1.2-.4a12.5,12.5,0,0,1-.9-2.5C387.7,121.1,386.5,117.4,385.3,114.9Z"/>
      <path class="cls-1" d="M353.5,183.8c-4.6-4.1-12.9-10.3-17.8-14h0c-.4-.1-4.5-3.6-4.8-3.5-5.6,1-12.6,2.1-18.2,2.7l-.4-2.4-3.4-3.8-1.4,1.5-.4-.8.3-1.6c-7.3.6-15.9,2-23.1,2.4l-.4.9-.7-.2c-.9.6-2.3,2-3.5,1.6v.8l-1.1.8-.6-.3-4.9,2.8c-6.2.3-14,2.6-20.2,2.6V168l.7-1.2,1.2.5a4.8,4.8,0,0,0,2.3-1.6,24.4,24.4,0,0,0-.1-2.7c1.8-2.8,4.3-5,7.8-4.5a37,37,0,0,1,2.8-2.8h.5c.8-1.3,2.9-3.3,4.5-3.4a4.6,4.6,0,0,0,1.4-2.2l-.5-1.1.7-.7.7.4.5-.8v-.5l1.9-2.1,1,.5a2.1,2.1,0,0,0,.2,1.4c1.4.5,2.4-1.3,3-2.1a3.7,3.7,0,0,1,.8-1.8,6.1,6.1,0,0,0,2.8-1.1,2.6,2.6,0,0,0,1.6.7l1-1a10.2,10.2,0,0,1,2.3-5.3h1.8a2.6,2.6,0,0,0-.6-1.3,5.2,5.2,0,0,0,.1-3.5l.8-1.1c30.4-2.6,60.9-9,90.7-15.7v.3l-.5.6v.6h.9l1.5,1.9.6-.7a16.9,16.9,0,0,1,1.3,3.1c.8.8,1.9,2.6,1.4,3.8-.3-.6-1-1.9-1.6-2.1v-.7l-1.1-.3v1.8a4.1,4.1,0,0,0-2-1.2l-.8-.9-.9.4,1.2.9v.5l1.4.6v.8l-1.2.2-.3.6-1.7-1.4a5.3,5.3,0,0,0,.7,2,7.8,7.8,0,0,1-2.4-.9l-.5.7,1.1.4-.5.7-1.2.2.4.7v.6l-1,.8-1.7-.6-.7.3a2,2,0,0,1-.5-1.5c-.6-.3-.8-1.8-.9-2.3l.4-.4V123l-1-.8-.4.6.9,1.2-.5,1.2c.3,1.4,1.1,3.8,2,4.7l-.4.7v1.2c1.2-.2,2.8-1.3,4-1.5l.3-.6.7-.3.5,1a1.6,1.6,0,0,0,1.4-.5l.2-.5a6.3,6.3,0,0,1,3.9-1.1v.7h.7c.1,1-.3,2.2.2,3.1l-.6.8.8.2c.1.4.5,1.2.3,1.6l-.9-.3v.6l1.4.2a8.3,8.3,0,0,1,.3-2.2c.1-1.1-.7-2.6-.3-3.7l1.2-.2-.2-.7.4-.9,1.6.8a3.5,3.5,0,0,0,1.5,2.2,4.6,4.6,0,0,0,.4,2.6l-.7.5c.2.3.9,1.4.7,1.8l-1.2,1.1-.9-.8a3.4,3.4,0,0,0-.3,1.7l-.7.4a3.5,3.5,0,0,1-.4,2.3l-1.1-.3.4,1.5a2.8,2.8,0,0,0-1.2,1.4h-1l-.6-.5-.9.5-.6-.7-.3.9-.9-.5v-1l-1.1.7-.2.6h-.8l-.9-2.1,1.2-.8v-1.1l-.8-.2.2.8-1.4.5-.9-.4-.3.7,1.2.7-.3.4.6.8-.6.9-1-.6a1.9,1.9,0,0,1-1.8,0l-.5-.7-.7.6-2.4-.5-.2.7a12.2,12.2,0,0,1,2.4,1H376l.2.8,1-.4v.7l.3.4.9-.6,3.7.3a6.3,6.3,0,0,1-.3,2.7l-.9-.3-.6,1.2.6.2.7-.5.4.5a5.1,5.1,0,0,0-1.3,2.4l-.8.3-.4,1a2.4,2.4,0,0,0-1.5.9,4.5,4.5,0,0,0-2-.9l-.5-.8a11,11,0,0,1-2.5-1.5l-.3,1.7a10.8,10.8,0,0,1,3.2,2.4h.6l.7.5h1l.6.4.8-1.2.7-.2.2,1.1h.5l-.3-1.1.3-.7.8,1,.4-.4-.5-.6V152h1.4v-1.8h.6l.2.9.5.3-.5.9,1.2-.2.4-1.4.9.7.2.8-.7.4.5.6-.7.7-.5.2v.7l-.7.5.2.6-.6.7v.7l-.8.7h-.6v-1.2h-.7v1.3l-.7-.4-.3-1-.7.4.5.7v.7a8.5,8.5,0,0,0-5.7,2.2,6,6,0,0,1-1.1-2.1l-.6.2.6,1.1a4.1,4.1,0,0,0,0,1.9l-.8.4c.2.5-.8,1.4-1.2,1.8h-.6l-1.1-.9.6-.8-.6-.6v-.6l-.9-.4-.2.8.9.7v.6l-.6.3.3,1.3h1v.6a6.6,6.6,0,0,1-2,1.4c-3,3.4-5.3,7.9-4.5,12.5l-.6-.3v-1.5l-.6-.5a8.4,8.4,0,0,1-1,4.6l-2.3.2-.6-.3-1.7.9-.9-.3-1.5,1.6Z"/>
      <path class="cls-1" d="M383.5,115.3l1-.2h.2l.6,1.2h-1l-.5-1.2Z"/>
      <path class="cls-1" d="M273.2,170.9c1.1-.5,3.8-2.2,4.9-2.7l.6.2,1.1-.8v-.7c1.2.3,2.6-1.1,3.5-1.7l.7.2.4-.8c7.2-.5,15.9-1.9,23.1-2.4l-.3,1.5.4.9,1.5-1.6,3.4,3.9.3,2.4,18.2-2.8c.3-.1,4.6,3.4,4.8,3.5h0c4.9,3.8,13.3,9.9,17.8,14.1-4.3,3.3-7.1,8.6-8.3,13.8l-1,.6-.2-1.3h-.6a3.3,3.3,0,0,0,.5,2l1.4.8v1.3l-.8.4.2.7c-.4.4-1.2,1.2-1.8,1.2l-.2.8-.8.3-.3.7-1.4.3c-.2.4-1.8,2.1-1.5,2.7l.4.4a11,11,0,0,0-2.7,3.4h-.7l-.7-1.2-.6,1.6.7.2.2.5-.6.5-.2,1.3a16.3,16.3,0,0,1-2.5,1l-.4.6h-1.2v1.2a5.4,5.4,0,0,1-1.9,1.8l-.9-.6a3.4,3.4,0,0,1-2.2.7l-.2.9,1.3.4v.7a3.1,3.1,0,0,0-1.1,1.8l-1,1.1H324a16.6,16.6,0,0,1-2.6-2.7H321v1.3a4.4,4.4,0,0,1,1.4,3.4l1-1.1.8.4v.6a5.1,5.1,0,0,1-1.8,2.5l-.5-.3c-.2.5-1.1,1.8-.8,2.5l-2.1-.8c-.5,0-1.8.1-2.3-.3l-.8-1.4c.1-.7.1-2.4.1-3.2s-2.3-4.8-5-5.1l-1.1-1.1v-.9l-.4-.6a10.3,10.3,0,0,0-.4-3l-.6-.2a2.5,2.5,0,0,0-1.1-1.7V212a10.9,10.9,0,0,0-4.7-2.3l-.8-1,.2-.7-1.6-.4a4.7,4.7,0,0,0-.6-1.9l-1.2-.3a5,5,0,0,1-.4-2.7c-1-.5-2.3-1.9-3.3-2.4h-1c-1.8-3.3-5.3-5.1-8.2-7.2a9.5,9.5,0,0,0-3.3-4.2,13.4,13.4,0,0,0-2.7-4.4,3.3,3.3,0,0,0-1.4-2.2c-3.8.1-2.8-.6-5.5-2.4h-1.2l-.7-1-.7-.2-.4-1.1C270.1,175.1,272.6,173,273.2,170.9Z"/>
      <path class="cls-1" d="M343.8,58.6c1.4-.2,2.8.8,4,1.1l.3.7a2.6,2.6,0,0,0-.8,2.1c.2.4,1.7,1.1,2.1,1.3a4.5,4.5,0,0,1,2.3.2l.7,1.1c3.3.3,3.8,2.6,4.3,5.4a3.8,3.8,0,0,0-1.4,2.5l-1,.8c-.6,1.9-1.2,4.9.9,6.2s1.5-1.2,2.3-1.2l.5-.7.7.2.2.6-.2.8a4.6,4.6,0,0,0,1.7,1.4v.7a26.1,26.1,0,0,0,5.5,1.4l.4-.3a3.3,3.3,0,0,1,1.5,1.8h.7l.5.9.6-.7a16.1,16.1,0,0,0,3.6,1.5c.2.3.5,1.2.3,1.5l-.9.2-.2,1,.5.7c0,.3,0,1.3-.3,1.5l.5,1.3-.4.3-1.3-.2-.5-.5-.8.4c-.5-1.5-2.3-2.5-3.8-3.1l-.7-1.2c-1.2-.2-2.5-1.7-3.3-2.6l-.2.9,1.5,1.6c.7.1,1.4,1.1,1.8,1.7l.7.2.7,1a3.3,3.3,0,0,1,2.5,2.7l.8.3,1.5-.3,1,.6,1-.3.2.8-2.1.3a2.3,2.3,0,0,0,1.8.7l.9.9h.8a2.5,2.5,0,0,1,.2,2.4,5.5,5.5,0,0,1-2.3-1.4l-.8,1.4.6.5-.5.7.4.4.8-.4.4.9-.2.3h-1.4c-2-1-4.3-3.3-5.9-4.9l-.6.6c1.9,1.7,4.7,5.6,7.3,5.2l1,1.1,1.1-.2V105l.8-.4.5.7v1.1l-.8.2-1.2,1.2-1.2-1.3h-.6l-.7-.8-.5.3-.8-.6v-.7l-.7-1.3h-1.1l-.7.5-2.1-.6-.2-1.3-.5.2v1.2h-1l.3.8a4.5,4.5,0,0,0,2.8,0l.7.8h1.4a4.8,4.8,0,0,1,.6,2.4l.8.3h.5l.2.8.8-.3,1.1.6.3,1.4a5.8,5.8,0,0,1,2.6-.5l.3-.5-.4-.7.5-.7c1,.6,2.5.3,3.4.9l.8-.9.7.2c.6.9,1.5,2.9,1.9,3.7a13,13,0,0,1,1.9,3.7h-.5l-.2-1.2-1.2-.8-.4.7a4.4,4.4,0,0,0,.8,1.5,2.6,2.6,0,0,0-1.2.5v-.2c-29.8,6.7-60.3,13.1-90.7,15.7l-.2-.6-4.1.7-.3.4c-8.9,1.6-18.9,3.1-27.9,4a8.4,8.4,0,0,1,3.9-2.2,23.2,23.2,0,0,1,4.3-2.4l.2-1.9c.9-.8,2.4-1.1,3.3-1.9a3.7,3.7,0,0,0-.1-1.8l.3-.6a4.7,4.7,0,0,0,1.9-1.2l-.2-1.8c.2-.2,2.6-2.1,2.5-2.4l3.3-2c.9-2,3.7-4.8,4.8-6.8l.5.7-.6.8c.3.5,1,1.3,1,1.9a5.8,5.8,0,0,0,1.8,2h.9c1.3,1.2,2.3,1.7,4,1.3l.7-1.2h.4a4.4,4.4,0,0,0,1.4-2.2,7.8,7.8,0,0,1,2,1.6h1c.8-.7,3-2,4.1-1.8s1.4-1.1,1.5-1.6l-.9-.7.7-.9h.9l.4.8c.5-.5,3.2-2.9,3.9-2.8l.5.8h.5c.4-.5,1.3-2,1.9-2.2l-.6-.7v-.5l1.8-1.3-1.2-.5-.4-.8c.2-3.2,2.4-6.1,3.7-8.8s0-4.2,1.9-6l-.4-.8c0-.4.8-1.1,1.1-1.4s-.4-3.6.1-5.2l.5-.4,1.7.9,1,1.9a7.8,7.8,0,0,0,3.1.3c1.5-1.3,1.2-5.3,2.3-6.8a2.8,2.8,0,0,1,.3-1.8v-.7l.9-1.2,2.1,1.4c.4-1.2.6-3.4,1.5-4.4l.5.3.6-1.4.7-.2.5-1-.4-.3c.4-.6,1.9-2.8,1.9-3.4l-.7-.5.4-1.4-.5-.2.8-2.3h-.4a5.3,5.3,0,0,1,.3-2.2l9.1,5.6.2-.2A20.4,20.4,0,0,1,343.8,58.6Z"/>
      <g id="_03" data-name="03" class="cls-2">
        <path class="cls-3" d="M309.7,396.8c-.7-1.9-4.3-.3-4.6,1.1S309.8,398.7,309.7,396.8Z"/>
        <path class="cls-3" d="M398,142c.9-8.1-13.2-37.2-19-33.3-.6,3.8-3.1,4.2-4.8,2.2.5,2.1-1.6,1.7-2.3,2.6-5.3-1.8.7-9.5-7.5-10.5-.7,2.5-2.5,1.3-4.6,0s-3.4,3-5.5,1.6c-2.8,2.1-6,5.3-8.9,2.1-3.2,2.3-3.9,4.7-8.2,1.4-3.6-7.4-7.6,2.3-8.7-1.6-3.4,1.4-3.8-6.2-7.8-1.3-1-1.8-1.7,1.8-3,1.8s-2.6-1.8-2.7.5c-2.8,2.8-6.5,1.3-5.6,6.5,2.9,1-2.7,1.2.8,2.4,4.8-1.5,6.1-1.8,2.9,3.9-4.1,3.7-.4,4.9-6.4,5.9-.7,0-1,1.7-1.8,1.1s0,.1,0,.2c.5,1.8-.2.7-1,1.1s-2,3.9-.6,3.6-1.3,0-1.7-.3-2.1,2.8-4,2.1c-1.1,1.5-.3,2.1-2.1,3.6-4.1.9,1.6,2.2-5.3,3.6-1.7-.3-1.2,3.7-1.8,5.8-3.3,1.1-3.2,5.6-4.7,7.8.2.9,1,1.4-.2,2s1.4,0,1,1,1,.8,0,1.6c-1,2.9-2.1,2.6-3.6,5,.7.3-2,1.6-2,1.9s-.9-.2-1.6.3-1-1.3-1.3-.3-.3-1-.5-1-2,0-.9.4c-2.1-.6-2.3,1.3-3.6,2.9-1.3-1.1-1.1,2-2,3s-1.8-1-3.5-2.3c-1.7.5.1,7.9-3.5,5.4-.8,1.1.2,3.1-2,2.3-2.1,3.3-6.3,4.3-7.1-2.1-5.7,4.6-1.1-4.5-5.3-2.7-1.2-1.3-3.1-.8-3.7-2.7-3.5,2.5-.4,10.5-5.4,10.7-1.5-6.4-4,8-4.3.3-3.6,2.3-7.3,15.2-10.1,13.8.1-4.1-4.9-1.1-5.7,1.3-.6-1.6,1.7-6.5-2.4-3.5-2.7-1.2-2.6,1-5.1,1.3-15.9-8.2-6,5.7-16.9.5-7.9-3.1-4.7-10.3-7.8-8.2-3.4-2.8-1.8,1.4-3.8,1.2-2.5-3.2-2.3,2.3-4.5,2.7s.5,3.4-1.1,4.7-1.9,2-1.6,3.3a58.8,58.8,0,0,1-.2,11.1c3.4,10.7-7.5,7.5-8.4,17.9-1.5,5-2.7,9.1-7.2,11.5-2-1-1.9,2.4-2.9,3.6-2.4,4.2-.7,9.7-1.2,14-.2,1.9-2.8,2.3-2.6,4.7-.5.5-1.3,1.5,0,1.6s-.9,1,.7,1.3c8.3,8.3-1.1,9.1,5.7,10.6.9,1.7,1.9,4,3.5,5.1s1.8,1,2.8,2.3c2.9.3,1.8,4.1,4.2,6.1,1.3,4.7,2.2-1,5.4,4.6,3.1-1.8,5.5-5,9.9-2.4,76.1-26.6,54.1,27.1,85.5-6.8,12.2-.2,14.9,20.8,25.1,19,4.2,19.2,4.4,35.9,19.1,53.3,6.2,9,4.6-5.4,11.5,13.7,11.2,1.1,10.6,12.5,18.7,19.5.7,3.2-10.8-1.5-13.6,4.5-1.9,4-11.6,2.1-8.8,6.8,3.5-1.3,6.8,4.2,8.1-1.1,63.9-18.9.8-93.4-12.6-132.9-5.8-21.8,7.3-42.1,22.4-57.7,9.2-5.7,4.6-29.2,22.3-26,3.5,2.7,1.2-6.3,2.7-8.1,2.2-6.6,12.3-19.2,18.8-12.4C385.8,153.8,391,145.1,398,142Z"/>
      </g>
    </g>
  </g>
</svg>
