<svg xmlns="http://www.w3.org/2000/svg" width="500" height="500" viewBox="0 0 500 500">
  <defs>
    <style>
      .cls-1 {
        fill: none;
        stroke: #999;
        stroke-width: 0.75px;
      }

      .cls-1, .cls-3 {
        stroke-linejoin: round;
      }

      .cls-2 {
        opacity: 0.5;
      }

      .cls-3 {
        fill: #5c98ff;
        stroke: #fff;
        stroke-linecap: round;
        stroke-width: 2px;
      }
    </style>
  </defs>
  <g id="hucs">
    <g>
      <g>
        <path class="cls-1" d="M346.4,292.2c-6.2-2.8-15.7-2.8-22.1-.4l1.1,2.7c5.9,2.1,15.5-.2,21.4-1.3Z"/>
        <path class="cls-1" d="M301.6,264.1c-1.1-.2-16.4-3.4-17.2-3.1l1.7,3.6-2.4.2a14.9,14.9,0,0,1-4.2-4.1c-20-.6-61.9-9.1-80.8-7.2-.8,5.7-4.7,9.1-9.7,11.1a24.8,24.8,0,0,0,4.2,7.4c4.3,6.6-.8,18.3-1.9,25.1,2.8,3.2,11,3.1,14.7,3.2a25.7,25.7,0,0,0,14.2,1.9c4.5-3.6,14.6-1.3,19.7-.9,5.8-1.1,10,.6,15.1,3.2l6.8-.8c13.6,4.6,28.7,2.1,40.8-6,4-6.2,11.9-12.3,18.7-15.1l.4-12.1A85.7,85.7,0,0,1,301.6,264.1Z"/>
      </g>
      <g id="_21" data-name="21" class="cls-2">
        <path class="cls-3" d="M353.7,291.6c.6-2.8-2.1-5.1-4.5-6s-3.8-.2-5.5-.9a23.6,23.6,0,0,0-5.1-1.2,5.9,5.9,0,0,1-4.6-1.1,10.9,10.9,0,0,0-8.8,3.2c-2.1,1.5-6.3,2.3-6.5,5.9-.3,5.2,6.8,8.5,11.2,6.2a11.4,11.4,0,0,0,8.5-.6,37.7,37.7,0,0,0,8.3-1.1C349.5,295.4,353.3,295,353.7,291.6Z"/>
        <path class="cls-3" d="M325.5,283c4.2-6.1,5.1-23.3-5.6-20.6-1.4.3-3.2,3.4-4.4,1.3-.9-.6-1.9-1-2.2-1.9-2.3-2.3-5.5-2.1-8-3.4s-3.8-.6-5.6-1.9-3.1-.4-4.6-.2a24.3,24.3,0,0,0-3.8-1.3c-5.2,0-10.3-1.7-16-1.9-2.1-1.7-4.4-.2-6.4-.6s-4.8,0-6.8-1.5c-3.6-.2-7.6-1.5-11,.2-1.5,1.1-4-.9-5.9-1.1s-6.4-1-9.6-1a20.5,20.5,0,0,0-4.9.6c-1.5.8-2.8-.4-4.2-.9s-5.4-.6-8.1-.8-3.2.8-4.7.2-2.8-.6-4.2-1a11.2,11.2,0,0,0-4.9-1.8c-5.6-1.2-13-1.4-16,4.5a6.3,6.3,0,0,0-.4,4.3c-.8,2.5-5.3,1.5-7.2,3.1-4.5,3-.6,7.9,1,11.5.7,1.7,3.2,1.7,3.9,3.4s-.9,1.7-1.1,2.6.4,3.2.2,4.8l-.6,2.2c-.6.8-1.5,1.3-1.7,2.5s0,2.4,0,3.2-.6,4.1-1.3,6.2-.6,3.4.4,4.7,2.6,4,4.9,4.4,3.9-1.3,6-.8c3.6.2,7,1.7,10.8,1.5,3.2,1.9,7,1.2,10.2.6s3.8-.9,5.7-1.1,4.7-.6,7.1-.4,3.1,1.9,5,1.7a10.5,10.5,0,0,1,3.5-.4c.8,0,1.6-.7,2.3-.2,3.6.2.2,1.4,1.1,3.8,1.2,4.7,7,3.6,9.9,1.1.7-1.1,2.4-.3,3.6-1.3s1.8,1.2,3,1.2,4.3-.6,6.6-.4,5.8,3.6,9.8,1.1,5.5,1.1,8.1-.7,2.5,1.3,5.9.3,3.8-1.9,5.7-2.4,5.1.2,7-1.3a4.6,4.6,0,0,0,3.7-1c1.9-1.7,4.9-1.9,5.3-5.1a6.6,6.6,0,0,0,3.4-4.5c.4-1,1.7-1.3,1.9-2.5s1.1-.9,1.9-1.5,1.9-.7,3.2-.9C319.1,287.5,322.9,285.2,325.5,283Z"/>
      </g>
    </g>
  </g>
</svg>
