<svg xmlns="http://www.w3.org/2000/svg" width="500" height="500" viewBox="0 0 500 500">
  <defs>
    <style>
      .cls-1 {
        fill: none;
        stroke: #999;
        stroke-width: 0.75px;
      }

      .cls-1, .cls-3 {
        stroke-linejoin: round;
      }

      .cls-2 {
        opacity: 0.5;
      }

      .cls-3 {
        fill: #5c98ff;
        stroke: #fff;
        stroke-linecap: round;
        stroke-width: 2px;
      }
    </style>
  </defs>
  <g id="hucs">
    <g>
      <g>
        <path class="cls-1" d="M479,291.4c-17.8-8.1-44.8-8.1-63.2-1.1l3.2,7.5c16.8,6,44.3-.5,61.1-3.7Z"/>
        <path class="cls-1" d="M351,210.9c-3.3-.6-47-9.8-49.2-8.7l4.9,10.3-7.1.5c-3.7-2.1-9.7-8.1-11.8-11.9-57.3-1.6-177.2-25.9-231.3-20.5-2.1,16.2-13.5,26-27.5,31.9,1.6,5.9,7.6,16.2,11.9,21.1,12.4,18.9-2.2,52.4-5.4,71.8,8.1,9.2,31.3,8.7,42.1,9.2,11.4,5.4,28.1,7.6,40.5,5.4,13-10.3,41.6-3.8,56.2-2.7,16.8-3.2,28.6,1.6,43.2,9.2l19.5-2.2c38.9,13,82.1,6,116.7-17.3,11.3-17.8,34-35.1,53.4-43.2l1.1-34.6C392.6,227.1,364.5,217.9,351,210.9Z"/>
      </g>
      <g id="_21" data-name="21" class="cls-2">
        <path class="cls-3" d="M499.8,289.7c1.6-8.1-6-14.6-13-17.3-4.8-2.1-10.8-.5-15.7-2.7a68.6,68.6,0,0,0-14.5-3.2c-4.9,1.1-8.7-.5-13-3.2-8.6-1.1-18.9,2.7-25.4,9.1-5.9,4.4-17.8,6.5-18.4,16.8-1,15.1,19.5,24.3,31.9,17.8,7.6,2.7,17.3,2.2,24.3-1.6,8.1,0,16.2-1.6,23.8-3.2S498.7,299.5,499.8,289.7Z"/>
        <path class="cls-3" d="M419.3,264.9c11.9-17.3,14.6-66.5-16.2-58.9-3.8,1.1-9.2,9.7-12.4,3.8-2.7-1.6-5.4-2.7-6.5-5.4-6.5-6.5-15.7-6-22.7-9.7-6-1.7-10.8-1.7-16.2-5.4s-8.7-1.1-13-.6c-3.8-1.1-7-3.2-10.8-3.8-15.1,0-29.7-4.8-45.9-5.4-6-4.8-12.4-.5-18.4-1.6s-13.5,0-19.4-4.3c-10.3-.6-21.6-4.3-31.4.5-4.3,3.3-11.3-2.7-16.7-3.2-9.2-.6-18.4-2.7-27.6-2.7a61.4,61.4,0,0,0-14,1.6c-4.3,2.2-8.1-1.1-11.9-2.7-7.5-3.2-15.6-1.6-23.2-2.2-4.9-1.6-9.2,2.2-13.5.6s-8.1-1.6-11.9-2.7c-4.3-2.7-9.2-4.9-14-5.4-16.3-3.3-37.3-3.8-46,12.9a19.6,19.6,0,0,0-1,12.5c-2.2,7-15.2,4.3-20.6,8.6-12.9,8.7-1.6,22.7,2.7,33,2.2,4.8,9.2,4.8,11.4,9.7,1.1,2.7-2.7,4.8-3.3,7.6-2.1,4.3,1.1,9.1.6,13.5-.6,2.1-1.1,4.3-1.7,6.4s-4.3,3.8-4.8,7.1,0,7,0,9.1c-2.2,6-1.6,11.9-3.8,17.9.5,4.3-1.6,9.7,1.1,13.5s7.5,11.3,14,12.4c7.1,3.8,11.4-3.8,17.3-2.2,10.3.6,20,4.9,30.8,4.4,9.2,5.4,20,3.2,29.2,1.6,5.9.5,10.8-2.7,16.2-3.3,7,0,13.5-1.6,20.5-1,4.9.5,8.7,5.4,14.1,4.8,3.7-.5,6.4-1.6,10.2-1.1,2.2,0,4.3-2.1,6.5-.5,10.3.5.5,3.8,3.2,10.8,3.3,13.5,20,10.3,28.1,3.2,2.2-3.2,7.1-1,10.3-3.7,2.2-.6,5.4,3.2,8.6,3.2,6.5,0,12.5-1.6,19-1.1,9.1-1.1,16.7,10.3,28,3.3,7.1-4.4,15.7,3.2,23.3-2.2s7,3.8,16.7,1.1c6.5.5,10.8-5.4,16.2-7s14.6.5,20-3.8c3.8.5,7.6,0,10.8-2.7,5.4-4.9,14.1-5.4,15.1-14.6,4.9-2.7,8.1-7,9.8-13,1.1-2.7,4.8-3.7,5.4-7s3.2-2.7,5.4-4.3c2.1-3.3,5.4-2.2,9.2-2.7C400.9,277.8,411.7,271.4,419.3,264.9Z"/>
      </g>
    </g>
  </g>
</svg>
