<svg xmlns="http://www.w3.org/2000/svg" width="500" height="500" viewBox="0 0 500 500">
  <defs>
    <style>
      .cls-1 {
        fill: none;
        stroke: #999;
        stroke-width: 0.75px;
      }

      .cls-1, .cls-2 {
        stroke-linejoin: round;
      }

      .cls-2 {
        fill: #5c98ff;
        stroke: #fff;
        stroke-linecap: round;
        stroke-width: 2px;
        opacity: 0.5;
      }
    </style>
  </defs>
  <g id="hucs">
    <g>
      <path class="cls-1" d="M165.4,273.1c0-3.1-.2-9.2-.3-12.3l-.7-.5-1.1.3-.6-.5h-.6l-.3.7-.7-.2-.4.5h-1.5l-.5-.7h-.4l-.8-1.5c.2-21.2.9-43.8-3.1-64.8h9c2-.2,5.9-.1,7.9-.3h.1c18.5-.5,37.8-1.5,56.3-2.6l.7.7.3,1.5,1,.3a9.3,9.3,0,0,1-.2,2.4l-.5.4-.2,1.3-.9.4v.6c-.9.5-2.4,3.1-2.8,4.1s5.8-.2,6.8-.3h.1l4-.2.2.4.9.9v.7l-1.2.4.3,1.5a6.1,6.1,0,0,0-1.6,1.6l-1.7.8v1l.4.5.9.3a10.9,10.9,0,0,0-.7,3l-1.1.3c-.1.6-.3,2.1-.8,2.5l-.7-.4v-.9h-.5l-.3.7-.7.6v.6l.6.4.7-.7c.2,1,.5,3.7,1.1,4.5l-.2.8.2.5-.6,1.2-1.5.2-.3,1-.9.2v.9l.6,1.4a4.5,4.5,0,0,1-2.6,2.3,3.5,3.5,0,0,1-.7,2h-1.2v.7l.9.3.3,1.3-1.2-.6-.6,1.1c.2.4.9,1.4.8,1.8l-.7,1.1.2,1.5-.6,1.1a6.6,6.6,0,0,1-2.2.6c-.4.3,0,1.5.1,1.9l-1,.3-.7,1.1h-1.1v.7l1.5.3v.9l-1.6-.3-1,.4,1,1a3.9,3.9,0,0,1-1.2,3l-.6-.8-.5.8.5,1.3c-.5.8.2,1.9-.3,2.6l-1.1,1v.8l1,.2.2.6-1.3.3-.8-.8-.6.3a6.4,6.4,0,0,0,1.1,2v.4l-1.2.8.5,1.3-.3,1.1.4.3.7-.9.7.4-.9,1.1v.8l.7-.4.4-.7.6.2c-.1.5-1,1.3-1.5,1.6v.5l.9,1.8,1.1-.9.2.8a4.8,4.8,0,0,0-.7,2l-.6.5h-.7l-.2.7.9.9c.1.5-.5,1.4-.8,1.8C198.9,272.7,181.2,273.5,165.4,273.1Z"/>
      <path class="cls-1" d="M212.1,54.5c13.9-.7,28.7-1.8,42.6-3,.2,4.1-.7,6.6,2.7,9.9,1.2,2,1,5.8,2.9,7.3,1.7,18,3.2,36.6,4.8,54.6l-1.1,1.3a3.1,3.1,0,0,1-.7,3.7c.1.4,1.4,1.4,1.7,1.8l.2,1.4.6.5c.3.4,0,2.4,0,2.8l1.1,2.5-.3.8c-.9.5-1.9,1.5-1.6,2.6a3,3,0,0,0-.6,2l-1,.9c.4,1.5-1.1,2.9-1,4.2h-.6l-.3.5-.8-.4v.9l-.8.5.6,1.3.7.4c-.2.8-.8,2.3-1.6,2.7s.2,2.5.2,3l-1.1.3.9.9a2.2,2.2,0,0,0,.6,1.5,14.1,14.1,0,0,1-1.8,2.3c-.8,1.4.9,3.1,1.4,4.4l-.5.5c-1.6.3-3.7,1.7-5.3,1.8s-.3,2.1-.7,2.8l.2,1.2c1.2,1,1.1,2.5.8,3.8l-.4.2c-1.3,0-2.6-1.3-3.9-1.4a7.9,7.9,0,0,0-4.1-1.7,2.7,2.7,0,0,0-2.1,2.4,6.4,6.4,0,0,0-1.1,2.4l.4.9-1.7-2-.2.8.4.8-.2.4-.9-.2a7.8,7.8,0,0,1-1.4-2.9c-.6-.3-1.1-1.8-1.2-2.5l-.5-.2-.2-1.1c.2-.2,1.3-1.2,1.3-1.5s-1.7-3.1-1.9-4.5.3-1.8,0-2.1l-2.2-1.5-.5-1.3c-.6-.2-2.3-1.5-2.9-1.8l-1,.3-1.3-.8-.3-1.2c-.8-.5-2.4-1.4-2.8-2.2l-.7-.3a25.4,25.4,0,0,0-2.9-2.8c-.2-.9-.7-3-.1-3.8s1.4-2.9,1.7-3.9a3.8,3.8,0,0,0,.8-1.7,10.4,10.4,0,0,1-.1-3.5l.9-.8-.4-1.3-1.7-1.3a11.1,11.1,0,0,1-3.4-.8c-.3.3-1.7,2.4-2.2,2.5a6.3,6.3,0,0,1-1.8-5.7c-.5-.4-.6-1.8-.6-2.5a14,14,0,0,0-5.7-5.1,18.1,18.1,0,0,0-4.5-5.7,7.8,7.8,0,0,0-1.9-3.2c-.2-.4.2-1.5.3-2-1.9-2.9-2.1-7.6,0-10.4a6.6,6.6,0,0,1,.1-2.4l-.6-1.3.8-1.3c1.1-.2,3.1-.8,3.6-1.8s.4-4.5,1.9-5.9a5.8,5.8,0,0,0-2.1-6.8,4.9,4.9,0,0,1,.4-2.3c-.3-.5.2-1.8.5-2.4a3.8,3.8,0,0,0,2.1-.5,12.8,12.8,0,0,1,3.4-.6,4.5,4.5,0,0,1,2.8-1.8l1.6-1.5c.1-.6.3-3.1.5-3.7l1.7-1.5c.4-2.3.7-5.1-.3-7.3s-2.6-1.5-3.6-2.4c.2-2.5-2.1-3.6-3.8-4.9Z"/>
      <path class="cls-1" d="M345.7,135a8.8,8.8,0,0,0,.6,3.6,3.8,3.8,0,0,0,0,2.1l-.4.5v.8a18.1,18.1,0,0,1,2.9,3.3l-.3.9.4.6.6.2.8,1.8,1.4,1a4.8,4.8,0,0,0,2.1,2.9l.5-.6.9,1.7a4.1,4.1,0,0,0,2.9.1c-1.1,2-3.9,4.9-4.8,6.8l-3.3,2c.1.3-2.3,2.3-2.6,2.4l.3,1.9a6.2,6.2,0,0,1-1.9,1.2l-.3.5a4,4,0,0,1,.1,1.9c-.8.9-2.4,1.2-3.3,1.9l-.2,1.8c-1,.2-3.5,1.9-4.3,2.4a11.8,11.8,0,0,0-4.5,2.8c-10.8,1.6-23.1,1.4-33.9,3.1-3.9.5-9.2-.3-12.9,1.1-6.2-.1-14.8,1.8-21.2,1.9l-.3-.6h-3.5a12,12,0,0,1,.5,3.8c-6.6.7-15.6,1.3-22.2,1.8l1-3.1c.3.2,1.5,1.5,1.8,1.5l.9-.4c-.3-1.4,1-3.6.6-4.9l-.7-.4a3.3,3.3,0,0,1,.8-1.9v-1.7c-.4-.3-1-.8-1.5-.7l-.3-.9c.2-.5.5-2.1,1.1-2.4a2.8,2.8,0,0,1,2.1-2.4,8,8,0,0,1,4,1.7c1.3.1,2.7,1.3,4,1.4l.4-.2c.3-1.4.3-2.8-.9-3.7l-.2-1.3c.6-.7.1-2,.8-2.8s3.7-1.5,5.2-1.8l.6-.5c-.5-1.3-2.2-2.9-1.4-4.4s1.6-1.7,1.7-2.3h1.7l.2-1a2,2,0,0,1-.4-1.6l.7-.5,1,.8,1.9-.5.4.4v.9l.8.2.5-1.1-.3-1.2.4-.9.8.9h.6l.6-.4c2-.2,3.4,1.9,5.2,2.1l.4.8h.6c.7-4.2,1.2-2.5,3.4-4.8l.8-.2,1.3,1.7,1.3-.2v1.2l.8-.2v-1.4h.9l.2-.6-.3-1,.3-1,.9-.2v-.5l-.6-.9.3-.6,1.1.4.9-.5-1-.6v-.6h1.2a10.4,10.4,0,0,1,.9,3,3.7,3.7,0,0,0,2.7.7l.6.6.6-.6h.9a5.2,5.2,0,0,0,.5-3,13.1,13.1,0,0,0,.9-2.8l.8-.8.7.3,1.1-1.3c.1-.6.3-2.7.8-3l1.2-.4a5.1,5.1,0,0,1,1.2-2c-.4-1.1-1.2-3-.5-4a3.8,3.8,0,0,1,2.5-.7,2.5,2.5,0,0,0,1.6,1l2.6-2.4,2.7-.4.3-.5-.6-1.2.5-.4-1.4-.7-.2-.6.3-.6a3.3,3.3,0,0,0-.8-1.9,2.8,2.8,0,0,1,2.1-2.2c.3.5,1.5.8,2,1s1.8-.9,2.2-1.2l.8.2.2.7a6.4,6.4,0,0,1,3.6,5.3,7,7,0,0,0,4.3.2c.7.2,2,.8,2.3,1.5a4.2,4.2,0,0,0,2.8,1.2l.7-1.2,1.4-.5a7.4,7.4,0,0,1,4,1.6,4.9,4.9,0,0,1,2.4-.8l.4-1.1,2.6-2h.6a15.7,15.7,0,0,1,1.2,3,7,7,0,0,0,2.4.9C344,132.8,345.2,134.2,345.7,135Z"/>
      <path class="cls-1" d="M165.4,273.1c15.8.4,33.6-.4,49.5-.9l-.3.5v1.2l.6.6c.5-.2.9-1,1.1-1.3l.7.3c-.5.9-1.5,3-1,4l.5.3h.8v.9l-1.1.5a5.5,5.5,0,0,0-.1,1.8l1.5-.6.6.2v.7l-.7.8,1.2,1.1-.3.6-1.2-1.1-.3.7.3.7,1.3.5.2,1.4a6.6,6.6,0,0,0,2,1.1,7.5,7.5,0,0,0-.8,2.4c-.1.3-3.4.6-3.6.6v1.4l1.2.4,1.2-.9.3-.7,1,.4a15.4,15.4,0,0,1-1.8,2.3h-1.1l.7,1.2-1.1.8a10.5,10.5,0,0,1-1.2,2.1v1.2l-1.5-.2-.6.4v.9l1.2.4-.6.7h-.7a3.6,3.6,0,0,0-.7,2.6l-1.1-.2-.2.9h1v1l-1.2.5v1.2l.9,1.2-.2.7-1.3-.5v1.2l.7.8v1.2l-.6.5h-1.2a3.6,3.6,0,0,1,.5,2.7l.8,1.7-.8,1.1.2.6c10-.5,23.1-1.3,33-2l.5.9a12.3,12.3,0,0,0-.8,3.3c-.1.5-.8,2.8-.6,3.4l.5.3.5,2.2c1.1.9,2.5,2.5,2.5,3.9l.5.7a3.9,3.9,0,0,0,1.8,3.5,10.4,10.4,0,0,1-4.9-1.1h-.7l-.8-.5h-1.8l-.2-1a3,3,0,0,1-1.4-1.1,4.4,4.4,0,0,0-3-.2c-.4.4-1,1.6-1.6,1.7v1l-1.2,1.5a3.3,3.3,0,0,0,.2,2.2c2.5,1.1,7.3,2,9-.5l.2-1h.9v.6h1l.3-1.1,1,.4.8-.5-.2,1.6-.6.4v.8l-1.2-.4-.8.5-.4,1.4.6.7,1.4.4,1,1.2h.8l.8-.9a7.7,7.7,0,0,1,.4-2.5l1.1-.9V336a3.6,3.6,0,0,0,4.6-2l.4,1.4.9.4-.8,1.2.2,1.6h.8v.8l-1.9.9-.5,1.5-1.6.2a3.2,3.2,0,0,0-.4,2.3l-.5.4h-.9l-.5,1-.8.4-.4.6c.3,1.1,1,2.9,2,3.4v.8l.3.3a3.6,3.6,0,0,1,3.4.8v1l.4.2.9-.4.4.5.6-.3v.7h.6l.3.9h2.2l.2.8-.6.3.6,1-.4.6-.9-.3-.9.2a3.5,3.5,0,0,0,.2,2l-.5.3c-.5-.2-1-1.4-1.2-1.8l-.8.2a7.4,7.4,0,0,1-1.6,2.7l-.6-.7.9-1,.2-1.3-2-1.4a5.2,5.2,0,0,0-1.1-1.9l-.6.5a7.3,7.3,0,0,0-2.2-.9l-.4-1.1-.5.5-2.4-.2a6.9,6.9,0,0,1-.5-2.4,4.5,4.5,0,0,0-2.8-.5l-.7-.5-.2.6.4.9-.3.8.4,1-.8.6.2.9.9,1c-.3.3-1.1,1.5-1.5,1.6a4.1,4.1,0,0,1-2.4,1.9l-.4-1.9a4,4,0,0,1-1.4-2.2h-.7l-.9,1.9h-1a2.9,2.9,0,0,0-.6-1.9h-1.1l-.5.8.2.7a3.6,3.6,0,0,0-1.6,1.1l-.2,1.3c-.6-.1-1.9.7-2.3.9s-2.3-1.6-2.8-2.1a12.7,12.7,0,0,1-2.8-.3c-.7-1-.3-2.8-1.2-3.6l-1-.3-.3-.9h-.8l-.2-1h-1a2,2,0,0,0-1.4-.6l-.8-.6-1.3.7-.3-.2.2-1.3-.7-1h-1.6c.1-.6.4-2.3,1-2.6a3.7,3.7,0,0,0-2.1.1,6.6,6.6,0,0,0-2.5.7l-.5-.2v-1l.6-.5v-.7a7.2,7.2,0,0,1-2.5.3l-.4.9a12.8,12.8,0,0,0-2.1,1.4l-.2-.8-1.1.6.8,1h.9v1.3H203v.9c-1.1.1-3.1.4-4,1.2s-5-.3-6.8-.9l-4.4-1.9a5.2,5.2,0,0,0-3-1.3l-.5-.5-1.9-.5c-.6.1-2.1.5-2.7.1l-.4.3c-2.7,0-6.1.3-8.5,1.6a7,7,0,0,0-1.6-1.4l.5-1.2c1.4-1,2.2-3.8,3.4-5l-.3-.5a10.5,10.5,0,0,0,.8-3.5l-1.5-1.9v-1.5l.4-.4c.6-1.4-1-3.3.5-4.4V327a25.7,25.7,0,0,0,2.3-5.3l-.3-.4.5-1.2-.7-1,.8-1.2c-.7-.8-.5-2.6-.3-3.5h-.6l-.6-.5v-.6a6.9,6.9,0,0,0-1.7-1.7l.7-1.4a3.2,3.2,0,0,1-1.1-1.7l-.7-.3v-1.2l-.9-.3-.8-1.3.3-.8-.3-.8.6-.9c-.2-.3-.7-1.2-.6-1.6l-.8-.9v-.7c-.5-.5-2.6-3.3-3.3-3.5C165.8,293.4,165.4,276.3,165.4,273.1Z"/>
      <path class="cls-1" d="M262.9,223.5l1.1,2h.4c-.4,34.1-1.6,68.8,3.1,102.6h-.7l-.4.4h-1.1l-.7-1.2h-.3a3.2,3.2,0,0,1-3.2,1.3l-.3-.8-1.5-.8-.4,1.3-.9-.2a6.5,6.5,0,0,1-1.9.4l-3.6,2-.6-.2v-.8h-.9l.3,1a3.2,3.2,0,0,0-1.7,2.4l-1.7,1a3.7,3.7,0,0,1-1.8-3.5l-.5-.7c0-1.5-1.5-3-2.6-3.9l-.4-2.2-.5-.3c-.3-.6.5-2.9.6-3.4a17.7,17.7,0,0,1,.8-3.3l-.6-.9c-9.7.7-23,1.6-32.9,2l-.3-.6.9-1-.9-1.8a3.6,3.6,0,0,0-.4-2.7h1.2l.6-.5V310l-.7-.7V308l1.3.5v-.7l-.8-1.2v-1.2l1.2-.5v-1h-1l.2-.9,1.1.2a4.3,4.3,0,0,1,.7-2.6h.7l.6-.7-1.2-.4v-.9l.6-.4,1.5.2-.2-1.2a5.5,5.5,0,0,0,1.2-2.1l1.1-.7-.6-1.2h1.1c.3-.2,1.5-2.1,1.7-2.3l-1-.5-.2.7-1.2,1-1.2-.7V290l3.6-.6a7.5,7.5,0,0,1,.8-2.4,5.6,5.6,0,0,1-2-1.1l-.2-1.4L217,284l-.3-.7.3-.7,1.2,1.1.3-.6-1.2-1.1.7-.8v-.8h-.6l-1.5.6a5.6,5.6,0,0,1,.1-1.8l1.1-.5v-.9h-.8l-.5-.3c-.6-1,.6-3.1,1-4l-.7-.3c-.2.4-.6,1.2-1.1,1.3l-.6-.6v-1.2c.4-.6,1.2-1.5,1.1-2.3l-.9-.9.2-.7h.7l.6-.5a5.9,5.9,0,0,1,.7-2l-.3-.8-1,.9-.9-1.8V264c.4-.3,1.4-1.1,1.5-1.6l-.6-.2-.5.7-.6.3v-.7l.8-1.1-.6-.5-.7,1-.4-.3.3-1.1-.5-1.3,1.2-.8V258a4.9,4.9,0,0,1-1.1-2l.5-.3.9.8,1.3-.3-.2-.6-1-.2v-.8l1.1-1c.3-.8-.3-1.9.2-2.6l-.4-1.3.4-.8.7.8a4.1,4.1,0,0,0,1.2-3l-1-1,1-.4,1.5.3v-.9l-1.4-.3v-.8h1.1l.7-1.1.9-.2c-.1-.4-.4-1.6-.1-1.9a4,4,0,0,0,2.2-.6l.7-1.1-.2-1.5.6-1.1c.1-.5-.5-1.4-.7-1.8l.6-1.1,1.2.6-.3-1.3-1.2-.2v-.7h1.2a4.3,4.3,0,0,0,.6-2,4.7,4.7,0,0,0,2.7-2.3l-.7-1.4C239,225.6,251.7,224.4,262.9,223.5Z"/>
      <path class="cls-1" d="M135.5,100.4c20.7.6,42.1-.5,62.6-1.7l.6,1.2h.8l.5,1.4a4.2,4.2,0,0,1,1.7,2l1.2.9a10.4,10.4,0,0,0,.4,10c-.2.4-.7,1.5-.3,2a10,10,0,0,1,1.9,3.1,16.5,16.5,0,0,1,4.5,5.7,14.2,14.2,0,0,1,5.7,5.2,4,4,0,0,0,.6,2.5,6.4,6.4,0,0,0,1.8,5.7c.5,0,2-2.2,2.2-2.5a14.7,14.7,0,0,0,3.4.7l1.7,1.3.4,1.4-.9.7a13.6,13.6,0,0,0,.1,3.5,3.3,3.3,0,0,1-.8,1.8c-.3,1-.8,3.2-1.7,3.8s-.1,3,.1,3.9a19,19,0,0,1,2.9,2.8l.7.2c.4.9,2,1.8,2.8,2.2l.3,1.2,1.3.9,1-.3c.6.3,2.2,1.6,2.9,1.7l.5,1.3,2.2,1.6c.3.3.1,1.7,0,2s1.5,3.2,1.9,4.5-1.1,1.4-1.4,1.6l.3,1.1.5.2c.1.6.6,2.2,1.2,2.5a7.8,7.8,0,0,0,1.4,2.9l.9.2.2-.5-.4-.7.2-.8,1.7,2c.4-.1,1.1.4,1.4.6V182c-.2.4-.9,1.4-.8,1.8l.7.5c.3,1.3-1,3.5-.6,4.8l-.8.4c-.5,0-1.7-1.3-1.9-1.5a15.9,15.9,0,0,1-1.6,4.3l-.5-.4a6.7,6.7,0,0,0-.1-2l-.7-.4-.6.9.8.7a2.4,2.4,0,0,0-.5,1.8l.8,1.1-.5.7h-.4l-.9.4,1,1-.2.8-1.5-.4v1.1l1.1.6c.3.6-.3,2.3-.5,2.9h-.5l-.5,1.4-4,.2h-.1c-1,0-5.8.4-6.8.3.5-1,1.8-3.5,2.8-4.2v-.5l.9-.4.2-1.4.5-.3a9,9,0,0,0,.2-2.4l-1-.3-.3-1.6-.7-.6c-18.5,1.1-37.8,2.1-56.3,2.6h-.1c-2,.2-5.9.1-7.9.3h-9c-.5-19.8-.7-40.4-.4-60.2l-1.4-1.3-.8.4-1.3-.8c-.3-.7-1.7-3-1.3-3.9l-.8-.3c-.3-1.3-1.9-2.2-2.7-3.2a7,7,0,0,1,2-3.9v-.9h1.8a5.7,5.7,0,0,1-.4-2.6H148l-.5-1.3-1,1.1-1.3.3c-1.4-1.4-3-3.2-4.3-4.7a4.1,4.1,0,0,0-.3-2.4l-.7-.6-.2-1.2-.8-.3-.4-.7-1.1-.5c.5-1.8-.8-3.9-1.9-5.3v-1.1Z"/>
      <path class="cls-1" d="M235.7,202.5l.5-1.4h.5c.2-.6.9-2.1.4-2.9l-1.1-.6.2-1.1,1.5.4.2-.8L237,195l.7-1h.4l.5-.6-.8-1.1a3.1,3.1,0,0,1,.4-1.9l-.7-.6.6-.9.7.3a3.8,3.8,0,0,1,.1,2.1l.4.3.7-1.1c6.7-.5,15.7-1.1,22.2-1.8a12,12,0,0,0-.5-3.8h3.5l.3.6c6.4-.1,15-2,21.3-1.9,3.5-1.4,8.9-.5,12.8-1.1,10.8-1.7,23.1-1.5,33.9-3.1l.6-.5c9-.9,19-2.4,27.9-3.9l.3-.5,4.1-.6.2.5-.8,1.1a4.7,4.7,0,0,1-.1,3.5,1.7,1.7,0,0,1,.7,1.3l-1.9.2a10.2,10.2,0,0,0-2.3,5.2l-1,1a2.4,2.4,0,0,1-1.6-.7,7.7,7.7,0,0,1-2.7,1.1,2.5,2.5,0,0,0-.8,1.8c-.7.9-1.7,2.5-3.1,2.2a2.2,2.2,0,0,1-.2-1.4l-1-.6-1.8,2.1v.5l-.6.8-.6-.3-.8.6.5,1.1c-.2.7-.7,1.9-1.4,2.2s-3.7,2.1-4.5,3.4h-.4l-2.9,2.9c-3.5-.7-6.1,1.6-7.7,4.5a11.1,11.1,0,0,1,.1,2.6,6,6,0,0,1-2.3,1.6l-1.2-.5-.8,1.2c0,.2.2,5.1.1,5.4-21,2.9-43.4,4.4-64.6,6v.4c-11.2.9-23.9,2.1-35.1,2.5v-.8l.9-.3.3-.9,1.6-.3.5-1.2-.2-.5.2-.8a15.6,15.6,0,0,1-1.1-4.5l-.6.7-.7-.3v-.7l.8-.5.2-.8h.6v1l.6.3c.6-.3.8-2,.9-2.5l1.1-.2a11.3,11.3,0,0,1,.6-3.1l-.8-.2-.5-.6v-1l1.8-.7c.2-.6,1.1-1.3,1.5-1.7l-.2-1.5,1.2-.3v-.8l-1-.9Z"/>
      <path id="_08" data-name="08" class="cls-2" d="M225.1,159.3c6.7,5.9-6.8,18.3,5.1,16.5,2.1.1,9.8-6.8,7.5-1.5,4.2-1.4,2.7,7,6.3,3.2.4-.7,1,1.4,1.8.5-1.8-3.4,2.3-4.4,2.9-.7,2-.3,5.4-.6,5.6,2.9a51.4,51.4,0,0,0,6.2,10c-1.7,1.4.6,5.7.3,9.2-3.3,7.2-2.1,18,.4,26.5.5,7.3-4,.2-5.3,6.1-4.6,6-4.3,14.9-3.5,23.2.7,6.6-8.8,5.7-8.7,13.6-3.8,17.1-13.6,7.3-11.5,28.9.2,2.5-2.9,4.2-3.5,6.6-.6.9.6.2.9.9s-.6,1.4.3.8c1.3,3.8,6.6,4.9,3,9.2,3.5,1.8,4.3,6.2,7.8,7.1.8,1.7,2.1,1.6,3,2.8s1.8,7,5,7.4c1.5-2.4,1.4,1.9,3,2,1.2,1.7,4.3-4.7,6.3-2.7,10.7.1,4.8,12.7,0,16-.5,4,5.7,2.7,4.5,6.7-1.7,1.5-2.9,7.3-5.4,3.7-2.9.4-4.5,8-4.4-2-2.5-6.6-18.1,5-25,3.5-1.9.1-4.4-.8-2.5-2.7-7.4-2.9-15.1-3.9-20.5-8.1-9.7,4.3-22.4-9-30.8-1.3-1.8,1.8-1.2-4,1.1-3.2,1.2-1.2.1-3.9,1.7-4.5,0-4.9-2.8-8.2-.4-12.5,2.1-6.9,9.1-10.7,6.5-18.2-.9-1.2,3.6-.3,3.5-2.7.2.9,2.7,2.8,2,.5,1.3-.5,3,9,3.2,1.8-.2-3.9,6.4,2.7,5.1-1.3-2.8-2.4-1.8-5.6-3.1-8.1-4.5-3.8-3.3-2.9-5.8-7.8.9-13.7-4.2-10.5-4.6-21.3-.7-4.3-1.6-14.8-8.1-13.2-.6-2.1-1-4.1-3.7-3.4-1.2-1.3.1-6.3-2-5.5-1.6-3.4-.2-6.8-2.5-8.1.9-2.1-3.2-.2-5.1-6.7,5.1,1.2,9.7-.1,13.8-3.6.6-.5,1.7,2.1,2.9,1.3s4.5,1.2,5.3-1.4c6.9-3.1,8.1,5.4,12.5,7.3.8.3,0,2.4,1.2,1.1,2.3.7-.3,3.6,2.5,4.2.3,2.2,2.7-.8,2.9,0,2.2,1.7-1.8-9.5-3.4-9.9,1-3.1-3.2-1.4-3.8-3.4,1.4-.9-1-.6.6-1.2-1.4-.8.9-.3-.6-2.2s4.4-.7,1.5-1.2,3.9-2.3,2.2-5.3c1.8-3.2,2.7.4,5.2.6s4.3,2.1,6.8.3.4-7.3,3.5-11.4c.1-2.2.7-4.5,2.6-5.8s-1.1-2.6.9-3.3c1.1-6.6,12.1-9.4,10.4-15.9-1.3-3.5-5-3.4-7.6-6.4C219.1,171.5,215.7,161.2,225.1,159.3Z"/>
    </g>
  </g>
</svg>
