<svg xmlns="http://www.w3.org/2000/svg" width="500" height="500" viewBox="0 0 500 500">
  <defs>
    <style>
      .cls-1 {
        fill: none;
        stroke: #999;
        stroke-width: 0.75px;
      }

      .cls-1, .cls-3 {
        stroke-linejoin: round;
      }

      .cls-2 {
        opacity: 0.5;
      }

      .cls-3 {
        fill: #5c98ff;
        stroke: #fff;
        stroke-linecap: round;
        stroke-width: 2px;
      }
    </style>
  </defs>
  <g id="hucs">
    <g>
      <path class="cls-1" d="M271.9,425.3c-.5-30,1.3-73-.5-102.7a69.8,69.8,0,0,0-7.9-4.9c-.8-3.2-4.4-7.1-5.2-10.3l.5-2.1c6.3-3.4,10.5-10.7,8.9-17.8l1.1-5c-1.9-6.8-1.1-13.9-5.8-20-.3-2.3-1.1-8.1-2.4-10.2,0-3.9.3-11.8.8-15.7l-2.3-4.5c.7-3.9,0-11.3-.3-15.2.8-11.1-.3-23.9-5.8-33.6-.5-3.2-1.8-11.3-3.7-13.9-.2-7.7.6-17.4-.5-24.7l2.1-4.5c-1-3.9-3.1-8.9-2.9-12.8-1-1.3-1.3-4.2-1-5.8,17.3,0,49.3.8,66.6-.3V100.6l4.2,1.3,2.7-1a6.8,6.8,0,0,0,4.2,2.1c1,10.2,4.7,21,4.7,31.5,1.3,1.3,5.8,3.4,7.3,3.9l2.4-1.1,3.9.8.6,2.1c1.5-.2,10.7.3,12.6.3l1.8,2.1c0,1.3-.3,3.9.8,5l10.2-3.2,1.3-2.6c4.5-3.1,10-1.3,14.7-2.1,2.7,2.4,7.4,4.5,11.1,3.7l.2,2.9-1.8.8-.5,2.3h6l1.8,2.1c-.8,2.6,1.6,7.4,2.9,9.7l2.9-1.3c-.3-1.3-.5-4.2.5-5.2s6.1-1.1,6.9-.6l1.8,2.1.5,3.7,3.2.5,1,1.3,4.7,1.1.6,3.1,2.3,1.6H431l.5,1.9,3.1-.6,1.6.8c2.9-.5,6.3-2.1,7.9-4.7s5.2-3.4,6.6-5.8l3.6-1,1.1,3.4,1.8,1,.5,2.9,1.1.5,4.2-1.5c2.1,1.5,7.1.5,9.2,0s3.4.2,4.4-.6l3.7.6c1.6,1.8,5.3,5,7.6,5.7l2.9-1.8,9.2.3a12.9,12.9,0,0,0-5.8,4.4c-2.9,2.9-10.5,6.6-13.9,9-6.3,2.1-14.4,6.5-19.1,11.2a9.7,9.7,0,0,0-4.5,4c-6.8,5.8-11.8,15.5-17.3,22.3-4,3.1-11.1,9.4-13.9,13.6s-11.3,7.9-12.4,14.2l-2.6.8c.5,8.9,1.8,23.4,1.3,32.3L410,283h-2.7l-.7,1.8-2.7.8c-2.8,4-8.9,4.5-7.8,11.1-.3,1.3-2.7,3.6-3.4,4.4s-1.4,5.3-.6,6.6l4.5.8c.5,1,3.9,6.3,3.9,7.3a19.1,19.1,0,0,0-2.9,7.4l-.7.5.7,3.7-.7,1a13.2,13.2,0,0,1-.3,7.1l1.6,6.6a5.5,5.5,0,0,0,.2,4.7c-1,1.3-1.3,4.7-1,6.3a17.9,17.9,0,0,0,4.4,3.4l3.2,4.7c5.2,1.6,9.4,2.6,12.1,7.9,3.9.8,10.2,2.9,12.3,6.6a34.7,34.7,0,0,0,3.7,8.4c3.1,1.5,6.8,5.5,9.7,7.3s6.3,3.2,6.8,5.3,2.6,2.6,2.6,3.9l1.1.5c1,2.4.5,6.1,0,8.7l1.3,3.1-.5,4.2,1.3,3.2C395.3,422.6,332.8,424.5,271.9,425.3Z"/>
      <path class="cls-1" d="M13.9,278.8c4.2-45.4,10.2-121.5,14.2-167.7,71.9,5.8,147.5,9.7,219.4,10.8-.3,1.5,0,4.4,1.1,5.7-.3,4.2,2.1,9.2,2.8,12.9l-2.1,4.5c1.1,7.3,0,17,.6,24.6,1.8,2.6,3.1,10.8,3.6,13.9,5.6,9.7,6.6,22.6,5.8,33.6.3,4,1.1,11.3.3,15.3l2.3,4.4c-.5,5.5-2.1,14.2.6,19.2.2,4.4,1.8,10.2,5,13.6.5,4-.3,9.5,1.5,12.9-.5,1.8-1.3,6.3-.8,8.1C184.8,290.1,97.1,285.6,13.9,278.8Z"/>
      <path class="cls-1" d="M271.1,481.4h-2.3l-2.4-2.6-1,.5-1.1-3.1c-2.4-.5-3.1-3.7-3.7-5.8l-2.1-.5-.5-1.3h-2.4l-1.5-1.3H252l-.6-1.4c-2.6.3-6.8-2.3-8.6-3.9v-1.6l-4.5-1-2.6,1.3c-2.1-1.1-7.1,0-8.9.5l-1.6-1.3-1.3.8-2.6-.8-1.1.5c-.3,1.6-2.4,3.4-3.7,4.5-4.4-.8-7.6-5.5-11.3-7.6-2.8-.3-6.5-3.4-7.3-6.3C133.1,448.9,64.3,446.3,0,439.2,4.2,387.7,10,329.5,14.2,278c83.2,6.8,170.8,11.3,254,11.6,1.1,5.7-4.4,12-9.1,14.7l-.6,2.1c.8,3.1,4.5,7.1,5.3,10.2,2.1,1.1,6,3.7,7.9,5,1.8,29.9,0,72.7.5,102.6l-5.5-.2-.6,2.6c.3,1,2.4,3.1,3.2,4.2s-.8,4.4-2.4,5.2l.6,2.7,3.1,1c.8,2.6,1.6,6.3.8,9.2l-2.4,1.3.6,1.1v3.6l-.8,1.1c.5,3.9-3.7,8.1-3.2,12.3,1.3,1.1,4,5.8,4.7,7.4S270.3,480.4,271.1,481.4Z"/>
      <g id="_09" data-name="09" class="cls-2">
        <path class="cls-3" d="M480,109.7c-17.3-23.4-10-12.1-36.7-.5-1.9-6.8-14.5-15.5-25.2-18.1-3.7-6.6-3.4,6.8-13.4,4.7-3.7-2.6-6-3.9-7.1-9.7-3.9,2.1-17.1,14.9-17.6,5-2.6-9.5-20.2-7.6-20.5-22.3-4.9,3.1-9.9.2-12.8,5.7-5.3-2.9-7.4-.8-13.4,0s-32.5-4.2-16,11.8c-13.4,3.2,0,20.5-15.2,19.5-7.1-.6-12.1-4.8-16.6-9.2-1.3-6.6-9.4,9.4-11-4,1.1-16.5-9.4-12.8-15.7-19.6-3.7-10-7.7-4-14.2-2.1-7.9-12.6-29.4-15.3-27,2.1-8.2,3.1-13.2-.3-18.2,8.9,2.7,2.1-1.5,5.8,2.4,5,6.3-5.3,12.1,9.7,2.9,7.3-2.9-10.7-10.2.5-15.5,3.4-2.4.3-4.7-5.5-6,.3-5-3.2-4.2-13.7-11.6-10.8-3.9,10-16.3,2.1-11,18.1-7.6,4.5-14.2,4.8-15.2-5.7-6.9,6.5-8.2.5-10.3-5.5-17.8-6.1-12.3-24.5-22.8-37.8-3.4-1.9-2.1,6.3-7.3,1-5.3-.5-11.6,3.2-16.3,2.9s-5-11-11.3-5.8c-4.2-5-.3-11-7.1-15.2-.8-7.3-6,.3-10.5-3.1-.8-1.4-1.3-3.5-2.1-4.5-7.3,5.8-10.8-14.2-19.4-12.9C27,17.8,58,40.4,53.8,43c-4.2,6.1,2.1,16.6-10.8,3.7-4.7-8.4-28.9-11.5-17.3,3.7C30.4,58,38.5,62.5,28,69.5c-4.1-2.8-5.5-6.3-11-2.6C.2,79.8,23.1,87.1,34.3,93.2c-6.3,8.1,3.7,2.1,5.3,8.9,3.9,6.8,5,18.6,14.7,21,4.7-7.6,22.6-8.1,26.2,2.4,6.3,6.8,12.6,7,15.8,16,9.7,8.1,12.9,21.5,22.3,27.5,1.1,4.7,13.1,1.1,16.5,9.5,32.1,50.6,9.5-27.9,65.9,9.9,1.9.3,3.4,2.1,1.9,4-14,8.9,6.5,21.8,3.9,29.9,7.6,4.7,2.9,17.3,17,22.3,0,7.9-7,23.6,1.9,26.3-5.3,10.7-1.1,9.7,5,16.5-4.2,5.8,6.3,1,10.2,3.7s7.6-11.6,13.9-5.5c-5,18.6,13.4,10.7,18.4,23.8,16.3-2.3,21.3-16,20.2-28.6-6.8-9.9,2.4-24.6,5.8-9.9,12.8,6.5,12.3-16.1,5-7.9,13.4-16.6,3.1-30.5,5.2-48.8,14.2-19.7-.5-21.6,34.1-28.6,5.3,6.3,13.7,13.3,19.5,15.7,7.8,2.6,11.5-14.4,17-9.7,7.9-9.5,7.4,13.1,12.1,7.3,17.8-11.5,15.2,4.2,26.8-17.8.5,6.6,6,2.4,6.5,5.5-2.3,5.5,7.6,3.7,8.2,7.1s-2.4,5.2,3.4,4.7c21.8-13.4,23.6-34.1,46.4-48.3,2.4-2.9-5.7-6.3-8.1-3.7-3.7-3.9-2.9-7.6-8.1-11.5,7-9.4-20.3-.3-1.6-9.2C478.4,122.8,500,124.7,480,109.7Z"/>
      </g>
    </g>
  </g>
</svg>
