<svg xmlns="http://www.w3.org/2000/svg" width="500" height="500" viewBox="0 0 500 500">
  <defs>
    <style>
      .cls-1 {
        fill: none;
        stroke: #999;
        stroke-width: 0.75px;
      }

      .cls-1, .cls-2 {
        stroke-linejoin: round;
      }

      .cls-2 {
        fill: #5c98ff;
        stroke: #fff;
        stroke-linecap: round;
        stroke-width: 2px;
        opacity: 0.5;
      }
    </style>
  </defs>
  <g id="hucs">
    <g>
      <path class="cls-1" d="M336.4,265.6c0-3-.2-9.2-.3-12.2l-.7-.6-1.1.4-.6-.6h-.6l-.3.8-.6-.2-.5.4h-1.5l-.5-.7h-.4l-.8-1.5c.3-21.1.9-43.8-3-64.7h9c1.9-.2,5.9-.1,7.8-.3h.2c18.5-.6,37.7-1.6,56.2-2.7l.7.7.3,1.5,1,.4a10.1,10.1,0,0,1-.2,2.4l-.4.3-.3,1.3-.8.4v.6c-1,.5-2.4,3.2-2.9,4.2s5.8-.3,6.8-.4h.1l4.1-.2v.4l1,.9v.8l-1.2.3.2,1.5a5.9,5.9,0,0,0-1.5,1.7l-1.8.8v.9l.4.6.9.2a11.3,11.3,0,0,0-.6,3.1l-1.1.2c-.1.6-.4,2.2-.9,2.5l-.7-.3v-1h-.5l-.2.8-.8.5v.7l.6.3.7-.7c.2,1,.6,3.8,1.1,4.5l-.2.8.2.5-.5,1.2-1.6.3-.3,1-.9.2v.8l.7,1.5a5.5,5.5,0,0,1-2.7,2.3,4.2,4.2,0,0,1-.6,1.9h-1.2v.7l.8.3.4,1.3-1.2-.5-.7,1.1c.2.3.9,1.3.8,1.7l-.7,1.1.2,1.6-.6,1.1a6.3,6.3,0,0,1-2.2.5c-.3.3,0,1.5.1,2l-1,.2-.6,1.1h-1.1v.8l1.4.3v.9l-1.6-.4-.9.5.9,1c.3.8-.5,2.4-1.2,2.9l-.6-.8-.5.8.5,1.3c-.5.8.2,1.9-.2,2.7l-1.1.9v.8l1,.2.2.7-1.3.2-.9-.8-.6.4a7.2,7.2,0,0,0,1.1,1.9v.5l-1.2.7.6,1.4-.4,1.1.5.3.6-1,.7.4-.9,1.1v.8l.7-.3.4-.8.7.2c-.1.6-1.1,1.3-1.6,1.7v.4l.9,1.9,1.1-.9.2.8a4.2,4.2,0,0,0-.6,1.9l-.7.6h-.6l-.3.6.9.9a2.9,2.9,0,0,1-.8,1.9C369.9,265.2,352.2,266.1,336.4,265.6Z"/>
      <path class="cls-1" d="M324.9,175c-40.2,1.5-80.9.1-121.1-2.6,1.5-22.4,2.9-46.3,4.2-68.6h.1c11.9.8,25.8,1.5,37.7,2h0c22.1.3,45.2,1.8,67.2.6,1.1.5,2.2,2.6,3.3,3.4l1.2-.3,1.1-1.1.4,1.3h.9a5.3,5.3,0,0,0,.4,2.5h-1.7v.9a7.5,7.5,0,0,0-2.1,3.9c.9,1,2.4,1.8,2.7,3.2l.8.3c-.3.9,1,3.2,1.3,4l1.3.7.8-.4,1.4,1.3C324.4,142.3,325,159.2,324.9,175Z"/>
      <path class="cls-1" d="M336.4,265.6c15.8.5,33.7-.4,49.5-.8l-.3.4v1.2l.7.7c.4-.2.8-1,1.1-1.3l.6.3c-.4.9-1.5,2.9-1,3.9l.6.4h.7v.8l-1.1.6c-.2.2-.1,1.4-.1,1.7l1.6-.5h.5v.8l-.6.7,1.2,1.1-.4.7-1.2-1.1-.3.6.3.7,1.3.5.3,1.5a11.8,11.8,0,0,0,1.9,1.1,6.1,6.1,0,0,0-.7,2.4,20.8,20.8,0,0,1-3.6.5V284l1.2.5,1.2-1,.2-.7,1,.5c-.2.3-1.4,2.2-1.8,2.3h-1.1l.7,1.2-1.1.8a8.2,8.2,0,0,1-1.2,2v1.2l-1.4-.2-.7.5v.8l1.2.5-.5.6h-.8a3.7,3.7,0,0,0-.6,2.7l-1.1-.3-.3.9h1v1l-1.2.5v1.3l.9,1.2v.6l-1.3-.4v1.2l.6.7v1.3l-.5.4h-1.2a4.2,4.2,0,0,1,.4,2.7l.9,1.8-.9,1.1.2.5c10-.4,23.1-1.3,33-1.9l.5.8a12.1,12.1,0,0,0-.7,3.3c-.1.6-.9,2.9-.7,3.4l.6.3.4,2.2c1.1.9,2.5,2.5,2.5,4l.6.6a3.5,3.5,0,0,0,1.7,3.5,10.6,10.6,0,0,1-4.9-1.1h-.7l-.7-.5h-1.9l-.2-1a2.4,2.4,0,0,1-1.3-1.1,6.5,6.5,0,0,0-3.1-.2c-.3.4-1,1.6-1.5,1.7v1l-1.2,1.6a2.5,2.5,0,0,0,.2,2.2c2.4,1,7.2,1.9,9-.6l.2-1h.8l.2.7h.9l.4-1.1,1,.3.7-.4-.2,1.5-.5.4v.8l-1.2-.3-.9.4-.3,1.4.5.7,1.4.4,1,1.2h.8l.9-.8a11.5,11.5,0,0,1,.3-2.6l1.1-.8v-.7c2,.8,3.7-.2,4.6-2l.4,1.5.9.3-.8,1.2.2,1.6.8.2v.7l-1.8.9-.6,1.5-1.5.2a2.8,2.8,0,0,0-.5,2.3l-.5.5h-.9l-.4,1-.9.3-.3.6c.2,1.1,1,2.9,1.9,3.4v.8l.4.3a3.6,3.6,0,0,1,3.4.8v1l.3.2,1-.3.3.4.7-.3v.8h.5l.3.8h2.2l.2.8-.6.3.6,1-.4.7-.9-.4-.8.3c-.3.5,0,1.4.2,1.9l-.6.4c-.5-.3-1-1.5-1.2-1.9l-.7.2a8.1,8.1,0,0,1-1.7,2.8l-.5-.8.8-1,.3-1.3-2.1-1.3a4.9,4.9,0,0,0-1.1-2l-.6.6a5.4,5.4,0,0,0-2.2-.9l-.4-1.1-.4.4-2.4-.2a5,5,0,0,1-.6-2.4,4.2,4.2,0,0,0-2.7-.4l-.8-.6-.2.7.4.8-.3.8.4,1-.7.6v.9l1,1c-.4.3-1.1,1.5-1.6,1.7a4.4,4.4,0,0,1-2.4,1.8l-.4-1.8a3.9,3.9,0,0,1-1.3-2.2h-.8l-.9,1.8h-1a3.3,3.3,0,0,0-.6-1.9h-1.1l-.5.8.3.8a3.2,3.2,0,0,0-1.7,1.1l-.2,1.3a5,5,0,0,0-2.3.9,11.5,11.5,0,0,1-2.7-2.1,9.2,9.2,0,0,1-2.9-.4c-.6-.9-.3-2.8-1.2-3.6l-1-.3-.3-.9h-.8l-.2-1h-1a1.9,1.9,0,0,0-1.4-.5l-.8-.7-1.3.8-.3-.2.2-1.4-.6-.9h-1.7a5.8,5.8,0,0,1,1-2.7,3.1,3.1,0,0,0-2.1.2,5.4,5.4,0,0,0-2.5.6l-.4-.2v-1l.5-.4v-.8a6.9,6.9,0,0,1-2.5.3l-.3.9a7.7,7.7,0,0,0-2.1,1.4l-.2-.7-1.1.5.7,1h.9v1.3H374v.9c-1.1.1-3.1.4-4,1.2s-5-.2-6.7-.9l-4.4-1.8a5.2,5.2,0,0,0-3.1-1.4l-.4-.5-2-.4c-.6.1-2.1.4-2.6.1l-.5.2c-2.7,0-6.1.3-8.5,1.6a6.6,6.6,0,0,0-1.5-1.4l.4-1.2c1.4-1,2.2-3.7,3.4-4.9l-.2-.6a12.8,12.8,0,0,0,.7-3.5l-1.5-1.8v-1.6l.4-.4c.6-1.3-.9-3.3.5-4.4v-.9a22.2,22.2,0,0,0,2.3-5.2l-.2-.5.4-1.2-.7-1,.8-1.2c-.6-.7-.4-2.6-.3-3.5h-.6l-.6-.5V306a4.9,4.9,0,0,0-1.7-1.8l.7-1.3a3.7,3.7,0,0,1-1.1-1.8l-.7-.3.2-1.2-.9-.2-.9-1.3.3-.9-.3-.8.7-.9a2.6,2.6,0,0,1-.7-1.6l-.8-.9v-.6c-.5-.6-2.6-3.3-3.3-3.5C336.9,285.9,336.4,268.8,336.4,265.6Z"/>
      <path class="cls-1" d="M306.5,92.9c20.7.7,42.1-.4,62.7-1.6l.5,1.2h.8l.5,1.3a3.6,3.6,0,0,1,1.7,2.1l1.2.9a10.8,10.8,0,0,0,.4,9.9c-.2.5-.6,1.6-.3,2a9.6,9.6,0,0,1,2,3.2,16.8,16.8,0,0,1,4.5,5.7,14.6,14.6,0,0,1,5.7,5.1c0,.6,0,2,.5,2.5s.4,4.6,1.9,5.7,1.9-2.2,2.2-2.5a13.2,13.2,0,0,0,3.3.8l1.7,1.3.4,1.3-.8.8a8.3,8.3,0,0,0,.1,3.5,3.5,3.5,0,0,1-.9,1.7c-.2,1-.8,3.2-1.7,3.9s-.1,2.9.2,3.8a37,37,0,0,1,2.8,2.8l.8.3c.3.8,1.9,1.7,2.7,2.2l.3,1.2,1.3.8,1-.3a28.2,28.2,0,0,0,2.9,1.8l.5,1.3,2.2,1.5c.4.3.1,1.8,0,2.1s1.6,3.2,1.9,4.5-1.1,1.3-1.3,1.5l.2,1.1.5.2c.1.7.6,2.2,1.2,2.5a8,8,0,0,0,1.5,2.9l.8.2.3-.4-.5-.8.2-.8,1.7,2c.4-.1,1.1.4,1.4.7v1.7c-.2.5-.9,1.4-.7,1.9l.6.4c.3,1.3-1,3.5-.5,4.8l-.9.5c-.5,0-1.7-1.3-1.9-1.6s-1,3.7-1.6,4.3l-.5-.3c0-.5.2-1.7-.1-2.1l-.6-.3-.7.9.8.6a3,3,0,0,0-.5,1.9l.8,1.1-.4.6h-.5l-.8.5.9.9-.2.8-1.5-.3v1.1l1.1.5c.3.7-.2,2.3-.5,3h-.5l-.4,1.3-4.1.2h-.1c-1,0-5.8.5-6.8.3.5-.9,1.9-3.5,2.8-4.1v-.6l.9-.4.2-1.3.5-.3a10.1,10.1,0,0,0,.2-2.5l-1-.3-.3-1.5-.7-.7c-18.5,1.1-37.8,2.1-56.3,2.7v-.2c-1.9.3-5.9.2-7.9.4h-8.9c-.6-19.9-.8-40.4-.5-60.3l-1.4-1.3-.8.4-1.3-.7c-.3-.8-1.6-3.1-1.3-4l-.8-.3c-.3-1.3-1.8-2.2-2.7-3.2a6.5,6.5,0,0,1,2.1-3.9v-.9h1.7a5.3,5.3,0,0,1-.4-2.5H319l-.4-1.3-1.1,1.1-1.2.3-4.4-4.7a4.8,4.8,0,0,0-.2-2.4l-.8-.7-.2-1.2-.8-.2-.4-.8-1.1-.4c.5-1.9-.8-4-1.9-5.4V92.9Z"/>
      <path class="cls-1" d="M188.2,171.5l-.7,11.9h-.8c-2.2,31.5-5.6,70.3-8.1,101.6-19.7-1.5-42.4-3.4-62-5.8l-.4.2a8.2,8.2,0,0,1-.1,2.7,6.6,6.6,0,0,0,1.4,2l-29.3-3.6c-.3,1.7-1.2,7.9-1.4,9.8-4-.5-10.4-1.1-14.4-2,5.7-41.5,11.9-85.8,17.8-127l25.6,3.4.3.3C139.7,167.1,164.5,170.9,188.2,171.5Z"/>
      <path class="cls-1" d="M203.9,172.5c40.1,2.6,80.9,4.1,121.1,2.6,1.8,25,5,51.1,3.5,76.4h-.8a4.1,4.1,0,0,0-1.3-1l-.7.3a4.3,4.3,0,0,0-2.1-1.4l-.2-.5h-1.2c-.6-.1-1.9-2.2-2.2-2.6h-.7l-.6-.2a9.7,9.7,0,0,0-1.5-1.9h-1.5a4.7,4.7,0,0,0-.6,1.5,4.8,4.8,0,0,0-2.1.7c-.6-.2-1.7-.6-2.2-.2l-.4-.5-.3-.9h-.9a4.4,4.4,0,0,1-1.5,1.2h-1.4V247h-3.1l-.5.5h-1.2a3.9,3.9,0,0,0-2.4,2.3l-1.8.2-.4,1h-.5c-.1-.6-1.2-1.4-1.5-1.8h-1l-.4-1L292,248l-.3-.5.8-.6a2.3,2.3,0,0,1-1.3-1.1l-.8,1.9-.4.2-1.1-.9h-1.4l-.3-2-.4-.5-1.3.2.2,1.6-1,1.2-.8-.6h-.5a9.4,9.4,0,0,1,0,2.9h-1l-.7-1.8.6-1.2-.5-1.3h-.9l-.3.9h-.9l-1.1,1.5-1.1-.7a5.3,5.3,0,0,0-.5-1.9l-1-.3-.7.4-.5-1.5h-1.7c-1,.6-1.6,2.6-2.8,3l-1.2-.6-.4-1.1.6-1.6-.9-.6-.8.2-.8-1a8.3,8.3,0,0,1,.1-2.2l-.7-.4-.9.8-1.6-.3-1.2-.9-.7.5-.3,1.3-1.3.6-.9-.8-.2-1.1-.9-.8-.4.6a3.9,3.9,0,0,0-2.1.4l-.3-.4a9.5,9.5,0,0,1-2.7-.9c-.2-.3-.6-.9-1-1s-2.3.2-3.1.1l-.7-.7.2-2.2h-.4c-.4-1.1-1.7-1.9-2.3-2.8l-.4.4v.8l-.7.6-.7-.8L242,233l-.8,1-1.8-.4c-.3-.9-1.5-1.8-1.7-2.7l-1.6-1.3h-1.3c.3-14.1,1.2-29.8,1.7-44-15.7-.6-33.4-1.9-49.2-2.7l.7-11.9C190.3,172.1,201.7,173.1,203.9,172.5Z"/>
      <path class="cls-1" d="M328.4,251.5l.8,1.6h.4l.5.6h1.5l.4-.4.7.2.3-.8h.6l.6.6,1.1-.4.7.6c.3,9.6.8,25.5.8,35.3a21.5,21.5,0,0,1,3.2,3.5v.6l.8.9a2.6,2.6,0,0,0,.7,1.6l-.7.9.3.8-.3.9.9,1.3.9.2v1.2l.6.3a4.2,4.2,0,0,0,1.1,1.8l-.7,1.3a5.5,5.5,0,0,1,1.7,1.7v.6l.6.5h.6c-.2.9-.3,2.8.3,3.5l-.7,1.2.6,1-.4,1.2.2.5a21.7,21.7,0,0,1-2.3,5.2v.9c-1.4,1.1.1,3.1-.4,4.4l-.5.4v1.6l1.5,1.8a12.8,12.8,0,0,1-.7,3.5l.2.6c-1.2,1.2-2,3.9-3.4,4.9l-.4,1.2a3.4,3.4,0,0,1,1.5,1.4c-2.6,0-7,2.1-9.3,3.4a21.6,21.6,0,0,0-5.8,3.1,4.4,4.4,0,0,1-1.6,1.4l-.3-.5c.3-.8,1.6-1.2,1.9-2.1h.5l1-1h1.2l-.2-.7-.5-.2c-.6.3-2.8.9-3.4,1.1l-.7-.2c.9-1.5,1.2-4.1,1.6-5.7a5.7,5.7,0,0,0-3.9,2.9H322l-1.2-1-.6,1.6.7.9-.6,1,.4.7,1.2.6-.6,1.2h.8a4.8,4.8,0,0,1-.1,2.9l-.9-.2-1.9,2.8-.8.2-1-.3v1.5l-1,.8.3.7h1c-5.5,6.9-15.5,9.8-22,15.5l-.4-.4.6-1c.7.2,1.6-.7,2.1-1.1s3.9-2,4.5-3,3-1.2,3.8-1.8l.4-.8h-1.1c-2.4,1.3-5.3,2.8-7.6,4.3l-.5-.8h1.2v-.6l-.7-.2.5-1.8-1.2,1-.2-1-.7,1.7-.7.3-.9-1.3-.7.2.8,1.5a3.7,3.7,0,0,1-2.1,0l-.5-1.3-.8.4-.5-1.4h-1.1l.5,2.1-.3,1,1.4-.2,1.2,1.2-1.3.9.5.4,1.6-.5.6,1.2a19.8,19.8,0,0,1-4.7,2.7l-.5-.5-.2-1.5-.9-.5-.6-1.2-.5.6.5.6-1.3.6,1.2,1.7a8.6,8.6,0,0,1-.3,2.8,7.3,7.3,0,0,0-2.2,1.6,13.5,13.5,0,0,1,.4-2.8h-.4l-.9.6.6,1.3-.8.9h-.6v-1l-.5-.5-1.6,1.1-.9-.5-.2,1.4-.9.7v.5l2.1,4.2-1.8,1.1h-.3l-.9-.9h-1.2l.2-1-1.5.3-.4-.4h-1.1l.9,1,2.1.4-.2,1.6,1,1-.7,1.3h.6l1.1-1.1.3.9c-.5.4-1.3,3.7-1.5,4.2s-1.1,3.3-2.8,4.1h-.6a4.5,4.5,0,0,0,.7-2.8l-1.2,1.8c-.7.3-2.3-.3-2.9-.6v.6l.7.9-1.2.4.7.7a4,4,0,0,0,2.1-.2l1,.6,1.6-.8.4.2v2.3l-.9,1.3.3.9-.2.6-.9.3-.4.9a5.3,5.3,0,0,1,0,2.5c1.7,1,1.7,5.2,2.3,6.8l-.6,1.4.3,1.6h.7l.9,1.2v1.3l1,.4-.5,1.2.8.5a4.5,4.5,0,0,0-.1,2l.5.5,1-.3.3.4c-.3.3-.9.9-.9,1.4l.2.9.6-.2.7-1.1h.6l-.3,2h-2l-.5.6c-1.8,0-4.5.2-5.9-1l-.7-1.3-2.7-.2-.3-.5c-1-.3-3.9-.5-4.8.1l-.9-.5-1,.2-2.4-.9-.5-.8-.4.2-.3-1h-1.1v-.5h-.8l-.3-.8-.8.2-.6-.5h-.6l-.4-.5-1.5.3c-.2-.3-1.5-1.5-1.4-1.9l-2.1-1.1c-1.3.4-2.3-.9-3.4-1l-.4.3-.6-.2V412l-.9-1.6c.2-.5-.6-1.9-.8-2.4s-1-3.5-1.2-4.2l-.8-.5-.5-1h-1c-.1-1.1-1.3-2.1-1.5-3s.6-3,.5-4-1.1-.9-1.1-1.3l-.7-.2.7-1.4a10.3,10.3,0,0,1,.2-3h-.6v-1.8l-1.6-1.2-.4.3-.5-.7h-.7a9,9,0,0,1-1.4-2.2l-1-.5-.6-2c-.3-.5-.9-1.3-.7-1.9l-1.1-.7c-.5-1.7-1.6-3.8-3.2-4.4a5.5,5.5,0,0,0-1.7-2,16,16,0,0,1-1.1-3.9l-.5-.6v-1.3l-.9-.7v-.9l-.6-.6-.2-.8-.8-.3c-.4-.9-.3-2.3-.8-3.4l-.4-.2v-1.5H218c-1.3-2-.4-5.1-2.7-6.6l-.2-1.6c-1.1-.7-2.7-2.3-3.9-2.9l-.4-1.9c-.8-.9-1.9-.6-2.6-1.5h-.8l.3-1.9-.5-.5-.3,1-.7-.4.2-.8-1-.7-.4-2.1-.9.2-.4-.7h-1.3v-.8l-1.2.9a6,6,0,0,1-3.3-.9l-2.6.2-.4-1-1.6.6c-1.2-.6-3.5-2.2-4.9-2.4l-.7.3-.5,1.9-.3.2a2.7,2.7,0,0,1-1.8-.8l-.9.9-.5-.4-.8.4h-1a8.2,8.2,0,0,1-1.9,2.8l-.4,1.6-.6.2c0,1-.6,2.5-.6,3.5l-.9.3-.6,1.8.4,1.2h-.6a3.5,3.5,0,0,1-1.9,1l-.6,1.1a2.7,2.7,0,0,0-1.3,1.3c-.1.3-.2,1.4-.7,1.6a6.4,6.4,0,0,0-2.8-.2l-.9-1.4-1,.4c-.2-.3-.9-1.1-1.4-1.1l-.3-1.4c-1-.8-2.5-.8-3.8-1.2l-1.6-2.3-3.7-1.1a25.1,25.1,0,0,0-3.1-2.6,3.9,3.9,0,0,0-3.3-3.3l-.7-1.3-.7-.3c-1-.7-1.4-3.2-1.4-4.3v-.5c-2.3-4.9.7-8.4-2.5-13l-.6-.3c.1-.4-.2-3.6-.2-4.1s-1.4-1.7-1.8-2.5-2.6-2.4-3.8-3.2-5.6-4.1-5.9-7.1a8,8,0,0,0-2.7-2.2c-1-1.7-2.6-3.9-3.7-5.6l-1.5-.2a13.9,13.9,0,0,0-2.1-2.1,5.8,5.8,0,0,0-1-2.3,25.9,25.9,0,0,0-1.4-4.5,5.1,5.1,0,0,1-2.1-.3,16.7,16.7,0,0,1-1.8-2.8,8.2,8.2,0,0,0,.1-2.7l.4-.2c19.6,2.4,42.4,4.3,62,5.8,2.4-31.2,5.9-70.2,8.1-101.6,16.1.8,34,2.1,50.1,2.6-.6,14.2-1.4,29.9-1.8,44h1.3l1.7,1.4c.1.9,1.3,1.7,1.6,2.6l1.9.4.8-1,1.5.3.6.7.7-.5v-.9l.4-.3c.7.8,2,1.6,2.3,2.7h.5l-.2,2.2.6.8c.8.1,2.4.3,3.1-.1a1.9,1.9,0,0,1,1.1.9,5.8,5.8,0,0,0,2.6.9l.3.5a3.1,3.1,0,0,1,2.1-.5l.5-.5.8.7.3,1.1.8.8,1.3-.6.4-1.3.6-.5,1.2,1,1.7.2.9-.8.6.5a7.9,7.9,0,0,0-.1,2.2l.9.9.7-.2.9.7-.5,1.5.3,1.1,1.2.7c1.2-.5,1.9-2.4,2.9-3.1h1.6l.5,1.5.7-.4,1,.3a4.1,4.1,0,0,1,.5,1.9l1.1.8,1.1-1.6h.9l.3-.8h.9l.6,1.3-.7,1.2.8,1.7h1a8.8,8.8,0,0,0,0-2.8h.4l.9.5,1-1.2-.3-1.5,1.4-.3.4.5.2,2.1h1.4l1.1.8.5-.2.7-1.8a4.1,4.1,0,0,0,1.3,1l-.7.6.2.5,1.4.3.5.9h.9c.5.4,1.5,1.2,1.6,1.8h.4l.5-1,1.7-.2a4.2,4.2,0,0,1,2.4-2.3H303l.6-.4h3v-1.1h1.5a3.9,3.9,0,0,0,1.4-1.2h1l.2.9.4.4a5.3,5.3,0,0,1,2.2.2c.5-.2,1.6-.9,2.1-.6s.3-1.4.7-1.6h1.4a4.7,4.7,0,0,1,1.5,1.9l.7.2h.6c.4.4,1.7,2.4,2.2,2.6h1.2l.3.6a3.2,3.2,0,0,1,2,1.3l.7-.2a2.6,2.6,0,0,1,1.3,1Z"/>
      <polygon class="cls-1" points="102.4 70.8 90 161.7 115.7 165.1 162.8 170.3 187.9 171.4 203.7 173.1 209.1 81.7 178.8 79 142.5 75.5 102.4 70.8"/>
      <path id="_11" data-name="11" class="cls-2" d="M343.1,244c2,6.2,15,9,12,21.7.9,6.5,6.7,9.3,4.1,17.5,3.4,7.4,8.1,11.7,9.4,19-3.8-1.4-5-1.8-5.2,2.6-5.7-9.5-8.6,4.3-12.5-9.4-2.9-6.2-10.8-18-18.8-20.1-4.6,2.9-7.2-3.6-11.1-2.7-4.6-12.2-14.5-6.7-21.6-17-7.7-3.6-15.6-8.7-24.2-5-5.4,4.3-11.7.6-17.1,4.9-5.4-.8-10.2-8.2-17.7-4.5-4.1-.5-9.5.6-14.2.6-1.2-2.4-1.4-4.9-4.6-3.7-7-5.5-8.2-13.4-16.4-16.5-10.6-8.9-28.7-4.3-37.4-16.6-11.7,1.5-9.3-18.4-21.4-21.4,3.2-12.2,10.7-26,9.2-40.5-9.3-.2.3-.1-6.2-12.7-2.1-1.7-3.9-9.9-6.5-6.1s-5.5-9.8-2-12.3c-5.3-.1-4-5.1-1.6-8-.6-2.6,2.2-2.1,4.2-2.6,3,1.8-3.1,9.3,2.1,10.5,1.8,6.2,16.2,3.9,16.6-2.5,4.2,1,6.6,2.8,11,.9,13.7-7.8,8.7-4.5,19.7,3.6,6.1-.7,7.6,3.1,8.5,8,9.1,1.2,15.8,6.1,24.8,5.7,9.3-4.4,18.8.1,28.6-.2,4,.4,10.3-3.3,14.3,1,4.6,1.7,5.8,4.9,10.9,2.6,3.7,3.3,1.6-5.7,7-2.1,5.2.6,4.4-6.8,9.4-7s4.9,3.2,7,7.2,4.5,4.9,8.6,4.6c-.4,4.9,2.6,5.7,6.3,4.8-1.9,4.5,1.7,9.8,4.4,11.5,8.1,7.1,9.1-1.3,12.4,2.6,2.8,1.6,3.1,6.5,6.5,7.2,3.5,9.5,13-11.9,17.8,1.5,9.2.5,14.6,1.6,13.6-10.3,2.5-.1,5.4-1.3,7.8.8,1.9-2.6,5-6.5,8.6-4.1s.9,17.3,10,17.2c4.6,5.9-3.4,10.1-7.2,14.6s-4.9,11.3-7.7,17.4c.5,9-6.2,8.6-12.4,4.6-2,4.8-3.9,5.9-4.8,10.1s4.7,1.3,4.2,4.9c2.9,3.2,6.6,13.8-.8,9.1-1.2-2.4-.3-3.1-3.1-4.9-2.2.1-4.1-5.3-6.3-6.9-4.2-2.2-7.1,1.2-11.4,1.3-4.9-3.3-9.4,4.5-15.1,2.1-2.9,4,4.5,4.6,4.4,8.4C341.1,237.5,340.8,241.2,343.1,244Z"/>
    </g>
  </g>
</svg>
