<svg xmlns="http://www.w3.org/2000/svg" width="500" height="500" viewBox="0 0 500 500">
  <defs>
    <style>
      .cls-1 {
        fill: none;
        stroke: #999;
        stroke-width: 0.75px;
      }

      .cls-1, .cls-2 {
        stroke-linejoin: round;
      }

      .cls-2 {
        fill: #5c98ff;
        stroke: #fff;
        stroke-linecap: round;
        stroke-width: 2px;
        opacity: 0.5;
      }
    </style>
  </defs>
  <g id="hucs">
    <g>
      <path class="cls-1" d="M202.3,281.2c1.6-6.1,8.8-43.6,12.5-47.6v-1.2l-1-1.6-.8.4-.4-1.1h-1l-.5-.7a6.9,6.9,0,0,0,.1-2.5,11.2,11.2,0,0,0,1-2.2c1.1-.5,3-4.1,3.6-5.1,2.3-.3,3.5-2.9,4.2-4.7V214c2.9-2.1,3.8-6.5,6.3-9,.5-1.8,3-3.1,1.6-5.1,0-.5.1-1.8-.3-2.1l-1-.5-.4-1-.8.6c-.5-3.2-2.7-5.4-.7-8.7a4.3,4.3,0,0,1,0-2.5l-.6-1.6c4.2-18.1,9.1-41.4,13.5-59.4,3.6,1,9.2,2.1,12.9,2.9-1.3,6.8-4,16.6-4.8,23.3.3,1.4,1.6,3.6,1.5,5l.8.5a4.2,4.2,0,0,1,.1,2.5l.4.8-.9,1.3.9,1.7v.3l-1.2.6c1,.8,2.5,2.5,2.6,3.7l2.2,1.4c-.1.9,1.2,2.9,1.7,3.7l1.1,3.6a8.3,8.3,0,0,1,1.1,1.5,2.8,2.8,0,0,0,.1,2.4c.5.1,1.1,1.3,1.3,1.8l-.5,1.1h.5l1.4-.8.3.6-.2,1.5.6.5,1.8.3.9-.5h.8v.7a8.9,8.9,0,0,0-.9,2.6l-.8.2c.4,1.3-1,4.4-1.9,5.3a3.5,3.5,0,0,1-.2,2h-.9v.6l.5.9-.9,1.2.4,1.1.6.6a4.5,4.5,0,0,0,0,2.3,7,7,0,0,0-2.4.9c-.7,1,0,2.6-.2,3.7l-1.1.5v1.4l1,.4c-.1.5,1.1,2,1.4,2.5l1.1-.2.8-1.3.9.3c.9-.8,2.5-2.6,3.2-3.4l.8.3a3.1,3.1,0,0,0,1.4,2.3v.7l-.5.8.6.7c-.7,2.6.3,6.8,1,9.3l.8.4.6,1.7-.3,2.1-.9.5a6.2,6.2,0,0,0,1.4,3.2v.6l1.9-.5c1,.9,1.6,3.4,1.7,4.6l-.5.8c.2.6.8,2.4.4,2.9l.5,1.4,1,.5.5,1,.5-.3a3.3,3.3,0,0,1,.6-1.9l1.2-.6,3.8,1.3.5.8h.9l.3-1.6,1.5-.7.8,1.2a3.2,3.2,0,0,1,1.7.1l2.8-.2.7,1.1c1.2-.2,3.9-.6,4.9.1l-.4-1.6a12.8,12.8,0,0,0,.9-2.2h.6l.9-.8c.8.7.9,2.5,1.7,3.2v1.2c.4.4,1.2,1.4,1.1,2.1l.9.5c-3.1,18.3-6.2,38.2-9,56.6C262.6,294.2,230.8,287.5,202.3,281.2Z"/>
      <path class="cls-1" d="M409.9,151.2c-2.6,28.2-5.2,63.7-7.9,91.5-33.3-2.9-67-6.8-100-12.1L300,242l-.9-.5c.1-.7-.7-1.7-1.1-2.1v-1.2c-.7-.7-.8-2.6-1.7-3.2l-.9.8H295a21.4,21.4,0,0,1-1,2.2l.4,1.6c-1-.8-3.8-.3-4.9-.1l-.7-1.1-2.8.2a3.3,3.3,0,0,0-1.7-.1l-.7-1.2-1.6.7-.3,1.6h-.9l-.5-.8-3.7-1.3-1.2.6a2.8,2.8,0,0,0-.7,1.9l-.4.3-.6-1-1-.5-.5-1.4c.4-.6-.1-2.4-.4-2.9l.5-.8c-.1-1.2-.7-3.7-1.7-4.6l-1.9.5V229a5.6,5.6,0,0,1-1.3-3.2l.8-.5.4-2.1-.7-1.7-.8-.4c-.7-2.5-1.7-6.7-.9-9.3l-.7-.7.5-.8v-.7a3.9,3.9,0,0,1-1.4-2.3l-.8-.3a25,25,0,0,1-3.1,3.4l-1-.3-.8,1.3-1.1.2c-.3-.5-1.5-2-1.4-2.5l-1-.4v-1.4l1.1-.5c.2-1.1-.4-2.7.2-3.7a7.8,7.8,0,0,1,2.4-.9,4.5,4.5,0,0,1,0-2.3l-.6-.6-.4-1.1.9-1.2-.5-.9v-.6h1a4.5,4.5,0,0,0,.1-2,8.7,8.7,0,0,0,2-5.3l.7-.2a8,8,0,0,1,.9-2.6v-.7h-.8l-.9.5-1.8-.3-.6-.5.2-1.5-.3-.6-1.4.8h-.4l.4-1.1c-.2-.5-.9-1.7-1.3-1.8a3.9,3.9,0,0,1-.1-2.4c0-.4-.8-1.2-1.1-1.5l-1.1-3.6c-.5-.7-1.8-2.8-1.7-3.7l-2.2-1.4c-.1-1.3-1.6-3-2.6-3.7l1.2-.6v-.3l-.8-1.7.8-1.3-.4-.8a4.2,4.2,0,0,0-.1-2.5l-.8-.5c.1-1.4-1.3-3.6-1.5-5,.9-6.7,3.5-16.5,4.8-23.3C303,139,356.5,146.5,409.9,151.2Z"/>
      <path class="cls-1" d="M224.9,403.6c-1.6,4.9-2.3,17.1-5.7,21.1a3.1,3.1,0,0,1-2.8-.6v-1.7a4.3,4.3,0,0,0-2.5-1c-1.1-1-2.8-.6-4.2-.1l-.5,1a4.8,4.8,0,0,1-.1,2.4,5.5,5.5,0,0,1-.2,3.8c-.7,2.3-.1,5.4-1,7.7a9.8,9.8,0,0,1-.5,7.7l-.7.2-.4,2C184.9,411.2,162.2,373,141.2,338c4.5-19,12.4-48.4,17.2-67.3,27.5,7.2,60,14.3,87.9,20.1C239.6,327.6,231.8,366.7,224.9,403.6Z"/>
      <path class="cls-1" d="M223.9,192.1a27,27,0,0,1,1.6,4.8l.8-.6.4,1,1,.5c.4.3.4,1.6.3,2.1,1.5,2-1.1,3.3-1.6,5.1-2.4,2.5-3.3,6.9-6.3,9l.2.9c-.8,1.8-2,4.4-4.3,4.7-.7,1-2.5,4.6-3.6,5.1a5,5,0,0,1-1,2.2,6.9,6.9,0,0,1-.1,2.5l.5.7h1l.4,1.1.8-.4,1,1.6v1.2c-3.7,3.8-11,41.7-12.5,47.6-34.7-7.7-70.5-17.6-104.7-27.7v-.6c-1.4-1.7-1-4.1-1.2-6a2.8,2.8,0,0,0,.3-1.8,4.8,4.8,0,0,0,.7-2.3,9.7,9.7,0,0,1,1.5-2.4v-2.2a4.6,4.6,0,0,1-.2-2l-.5-.8a2.6,2.6,0,0,0-.3-2.1,21.1,21.1,0,0,0,5.7-9.6c2.3-1.6,4-4.8,5.5-7.1a87.5,87.5,0,0,1,5.6-13.5,5.1,5.1,0,0,1,1.1-2.5l.3-1.8c.2-.7,1.6-3.2,1.3-3.9s.8-1.4.8-1.9,2.4-4.6,2.6-6.2,1.7-2.4,1.5-2.9,1.1-2.4.9-3.3l1-1.1v-1.7l.5-.3.7.9c.7-1.5-.6-3.2.8-4.6a12.5,12.5,0,0,1,.2-3.3,5.7,5.7,0,0,0,.8-3.4c1.9-.9,2.2-3.8,1.4-5.6h1a5.4,5.4,0,0,0,1.3,2.2l.3-.4-.3-.8h1.3l.2,1,.8.2a3.8,3.8,0,0,0,1.8-.9l1,.4-.2.9.5,1.2c1,.6,2.5-.2,3.6.3l2.2,2.9c.2,1.9.8,4.2,0,6.1s-1.5,3.3-.5,4.8,4,1.9,5.1,3.4a23.4,23.4,0,0,0,7.5-1.7c2.9,1,8,.9,8.8,4.6.4.2,1.4-.4,1.7-.6l2,.6,4.7-1.1,1.9,1.8c1-.1,3.9,0,4.7-.8a36.4,36.4,0,0,1,6.6-.2l1.7-1a1.7,1.7,0,0,1,1.2.8,9,9,0,0,1,4.6.5c.6-.1,3-1.1,3.4-.8l13.4,2.9v.4C213.2,189.2,219.9,191,223.9,192.1Z"/>
      <path class="cls-1" d="M246.4,290.7c13.8,2.8,30.9,5.6,44.7,7.9-1,5.5-2.8,17.2-3.7,22.8l30.4,4.6c-4.2,29.1-8.6,61.8-12.3,90.9-26.9-3.7-54-8.4-80.6-13.3C231.8,366.7,239.6,327.6,246.4,290.7Z"/>
      <path class="cls-1" d="M223.9,192.1a147.1,147.1,0,0,0-14.6-3.4v-.3l-13.4-3c-.4-.2-2.9.8-3.4.9a7.9,7.9,0,0,0-4.6-.6,1.6,1.6,0,0,0-1.2-.7l-1.7.9c-2-.4-4.6.2-6.6.3s-3.7.7-4.7.7l-1.9-1.7-4.7,1.1-1.9-.7c-.4.1-1.5.8-1.8.7-.8-3.8-5.9-3.6-8.8-4.6a21,21,0,0,1-7.5,1.6c-1.2-1.5-3.7-2.1-5.1-3.4s.8-3.3.5-4.8.1-4.2,0-6l-2.2-3c-1-.4-2.5.2-3.6-.3l-.5-1.2.3-.9.7,1.1.4-.8-.4-.7a6.9,6.9,0,0,0-2.6-1.2l-.8-1.1-.7.3a7.6,7.6,0,0,0-2.1-.1l-.5-.5v-.8a1.6,1.6,0,0,0-1.4-.6,24.8,24.8,0,0,0,2-6.7l.6.3c.1.7-1.1,4.8-1.2,5.5h.9a6.4,6.4,0,0,0,1-2.4l.5-.5-.3-2.5h.7l.5-1,1-.3-.4-1.1-1.7.4-1-.4c-.1-1,.6-3,.4-4.1l.6-.2v1l1.3-1a9.2,9.2,0,0,0,2.9-.4,4,4,0,0,0-2.2-1.2l-.2-1.4h-.8l-.9,1.5-.4-.5c.7-2.2,1.7-6,.4-8.1a59.7,59.7,0,0,1,.8-6.1c0-.8.1-3.1.2-3.7l-.4-.8.2-1.1a6.1,6.1,0,0,1-1-6.2c-.3-1.9,1.4-4.1,2.1-5.7l-.4-.5v-.6h1.3a5,5,0,0,1,1.7,2.1c1.1.9,2.5,2.6,3.7,3.5l.3.7c1.3,1.2,3.4,2.4,5.1,2.3s1.2,1.6,2.1,1.4a15.3,15.3,0,0,0,3.9,1.8l.7-.4c.9.5,1.1,1.9,1.2,2.9l.7-1.1.7.5-.2.7a1.8,1.8,0,0,0,1.3.8l-.3-1.3.4-.8h1v.7l-.6.4V127a3.4,3.4,0,0,0,1.4-1.5l.3.6a4.6,4.6,0,0,1-1.1,2.9v1.8l-.6.3-.4.7H156l-.4.8-.6.2-.7-1.5-.3,1.7h-.4c-.3,1-2.1,1.9-2.9,2.3a26,26,0,0,0-3.1,5l.5.4a4.7,4.7,0,0,0,4.1-.9l-.5-.3-1.5.7-1.5-.4v-.5c1.6-1.8,3.7-4.5,6.2-4.4a15.8,15.8,0,0,1,2.9-3.4l.6.6c.4-.9-.2-2,.2-2.9.7.9,1.4,2.5.5,3.4l.2,1.3-.7.2-.3-.6-1,1h-.7v1.8a9.6,9.6,0,0,1-1.7,1.8l.6.2,1.3-.4.4,1.5a7.8,7.8,0,0,1-1.5,2.2c-.1.3-.4,1.1-.8,1.2l-.4,1.5-1.1-1,.4-.8-.4-.7c-.8.6-1.4,1.3-1,2.4l-.8,1.3-.5-.2c-.1-1.3,1-3.1,1.3-4.3l-.3-.2-.7,1.4-1.2.4a6.4,6.4,0,0,1-2.7,2.7l-.2.8,1.5-1,.5.2-1.4,1.4,1.1-.2-.4,1.6h.5l.5-2.2h1.5l.2,1.1.9.4c1-.8,2.2-2.5,3.1-3.2l.2-.8c.2.4.7,1.5,1.2,1.7v-1.5l1.8-.8a4.9,4.9,0,0,1,.1-1.7c0-.7-.2-2.9.1-3.4h.8l.2-.5-.7-1.4.6-.2c.2-.7.8-2.2.6-2.9a7.8,7.8,0,0,0,2.3-3l1.1-.4.6-.9-.9-.3-.6-1.5c.3-1.3.2-3.3.8-4.5a4.7,4.7,0,0,1-1-2l-.6-.5v-1.1l-.8.2-.5-2,.6-.3a6.6,6.6,0,0,1,1.8,1.9l.5-2.3.7-.2.2-.7-.3-1.2c.1-.4.8-2,.6-2.4l-.5-.7h-.7l-.7.9-.4-.2.4-.9-.7-.5.3-1.2L162,108l.8-1.1-.7-.4,1-.7c24.3,6.6,49.6,13.1,74,18.9-4.4,18.1-9.3,41.3-13.4,59.4l.6,1.6a4.2,4.2,0,0,0,0,2.5C224.3,189.1,223.7,191,223.9,192.1Z"/>
      <path class="cls-1" d="M158.9,123.7l-.2-1.5,2.2-2.6.9.2-.2.6.6.6v1h-2l-.3,1.3.7,1-.4,3.4.7-1.1h.3a9.7,9.7,0,0,1,1.1,2.6c-.2.4-.5,1.5-1.1,1.8l-.4-.6.2-1.4h-.5l-.9-1.1c-.2-.6.3-2.5.4-3.2h-.7Z"/>
      <path class="cls-1" d="M160.5,113.8l-.5-.3v-1.2l-.4-.2V114H159l-.2-.8-.8.3.3-1,1-.5.3-.9c.5,0,1.4,1.7,1.7,2Z"/>
      <path class="cls-1" d="M158.4,118.1v-.6l-.5-.9.3-.8,1.1-.3-.4,1,.6,1.1-.4.5Z"/>
      <path class="cls-1" d="M156.8,113.7l.7,1.4-.5.4v1l-.5.3-.3-1.1-.7-.3a2.5,2.5,0,0,1,.5-2.8h.5Z"/>
      <path class="cls-1" d="M317.8,326l-30.4-4.6c5-29.9,9.4-61,14.7-90.9,33.1,5.3,66.7,9.1,100,12.1-2.7,30-5.3,61.6-7.9,91.6-24.9-1.9-51.5-5.9-76.4-8.2Z"/>
      <path id="_17" data-name="17" class="cls-2" d="M266.8,220.6c-1.6,2.1-1.2,5.7,2,5.6,4,2.6-.7,14.9,6.1,8.6,3,1.3,4.3,1.8,6.9-.3,3.5,1.1,10.8,4.1,12.2-1.4,5-.5,4.3,14.1,10.9,7,.3,6.5,14.4,14,6.1,18.9-1.5,8.2,8.4,6.5-2.4,7.7-3.5,11.3-9.4,3.9-8.4,11.9-2.2,6.4-3.7,6.5-11,6-2.7-4.8-3.7-11.5-7.8-4.5-11,15.1-6.5-4.7-12.6,3.9-2.4-3.1-1.8-1.6-4.4,1.4-5.8,2.3-12.6,12-17.5,6.2-3.7,3.2-6.8,4.5-8.9-1.1-2.6,4.6-8.9,12.3-11.3,3.5-6.5-11.8-2.2,8.9-6.6.8-9.9-7.6-4,2.3-10.2,5-3.3,3.2-2.7-1.6-2.7-4.4-3.7-1.9-5-2.8-5.6-7.5-10.4-.6-4.7-17.5-13.3-19.6-23.6,25.9-4.6-16.3-19.3,4.2-6.7-4.6-.9,8-5.8,6.2-7.5-16.7-6.5,5.9-11.2-21.6-8.4,2.4-2.2-6.5-3.6-10.8-5.7-2.3-7.7-8-7.3-13.6-8-2.1-10.8,5.6-13.8,13.2s-7.1,8.9-15.2,11.4c-4.3,1-6.2-6.3-9.6-1.4-4.5-10.1-1.8-4.6-9.6-4.5-4.9-25.2,20.2-46.4,25.8-73.6,6.3-19.7,12.6-41.2,8.2-62.1,2.2-8.2,9.9-34.4,12-17.9,7.7,14.7,6.8,4.9,14-1.5,12,4,22.7,6.8,32.1,4.7,3.5-24.7,18.3,1.4,24.7-21,15.4.1-1.2,9.7,8.8,11.6,15.2-.3,11.4-23.8,7.9-33.5-2.4-7.2,4.9-12.8,3.2-18.8,3.2-6.4-2-6.2-6-8-4.8-6.8,3-.8,5.4-3.4,6.8,0,6.9,11.9,11.5,12.9,5.9-2.5,1.4,4.9,3.3,5.8,7.3,1.5,4.9,15.4,10.9,11.9,2.6,20.8,24.9,33.4,14.8,54.9,2.2,15.4,22.3,34.7,13,46.8-2,7.5,5.4,11.3,8.7,17.4-1,2.3-7.1,6-1.4,7.5,1,5.7-3,6.9-5.6,10.9,1.9,2.1,1.4,12.9-1.7,7.7-6.1-6.3-10.6-6.3-17.6-.6C260.8,205,264.7,216.2,266.8,220.6Z"/>
    </g>
  </g>
</svg>
