<svg xmlns="http://www.w3.org/2000/svg" width="500" height="500" viewBox="0 0 500 500">
  <defs>
    <style>
      .cls-1 {
        fill: none;
        stroke: #999;
        stroke-width: 0.75px;
      }

      .cls-1, .cls-2 {
        stroke-linejoin: round;
      }

      .cls-2 {
        fill: #5c98ff;
        stroke: #fff;
        stroke-linecap: round;
        stroke-width: 2px;
        opacity: 0.5;
      }
    </style>
  </defs>
  <g id="hucs">
    <g>
      <path class="cls-1" d="M149.1,310.1l.3-2,.7-.2c1.3-1.7,1.4-5.7.5-7.6.9-2.3.3-5.4,1-7.7a6.2,6.2,0,0,0,.2-3.8,5.2,5.2,0,0,0,.1-2.5l.5-.9c1.3-.5,3.1-.9,4.2.1a3.7,3.7,0,0,1,2.5,1v1.6a2.7,2.7,0,0,0,2.8.7c3.4-4.1,4.2-16.3,5.7-21.2,26.6,4.9,53.7,9.7,80.6,13.4-5.9,41.2-12.2,85.5-17.9,127-11.4-1.6-24.7-3.3-36-5.6-19.8-11.9-39.9-24.5-59.2-37.2a24.3,24.3,0,0,1,2.2-4.6,7.7,7.7,0,0,1,2.6.3l.7-.3a8,8,0,0,1,1.8-2.3l.4-2.7-.8-1.2-1.9-.7-.6-.8c-.2-.8.8-3.2,1-4l-.6-1.2.5-1v-1.1a7,7,0,0,0,2.4-1.7v-.7l1-.2,1.1-1.8a4.4,4.4,0,0,1,.5-2.2c0-1.8.1-5.3,2.3-5.8,0-.6,1.1-1.8,1.5-2.4a7.4,7.4,0,0,0,4-2.3l1-.2c.3-2-2-4.1-3.1-5.4s-.2-4-.2-5.6l-1.6-2.6.6-.8-.9-1A14.2,14.2,0,0,1,149.1,310.1Z"/>
      <path class="cls-1" d="M260.4,190.3Z"/>
      <path class="cls-1" d="M346.1,291.4l-.8,11.9h-.7c-2.2,31.6-5.6,70.3-8.1,101.7-19.8-1.6-42.4-3.4-62-5.8l-.5.2a7.6,7.6,0,0,1-.1,2.6,12.8,12.8,0,0,0,1.4,2.1l-29.2-3.6c-.3,1.6-1.2,7.9-1.4,9.7a144.3,144.3,0,0,1-14.5-2c5.7-41.5,12-85.7,17.9-127l25.6,3.4.2.3C297.6,287,322.3,290.8,346.1,291.4Z"/>
      <path class="cls-1" d="M189,154.8c13.8,2.9,30.9,5.7,44.7,8-1,5.5-2.8,17.2-3.7,22.8l30.4,4.6c-4.2,29-8.6,61.8-12.3,90.9-26.9-3.7-54-8.4-80.6-13.4C174.4,230.8,182.2,191.7,189,154.8Z"/>
      <path class="cls-1" d="M260.4,190.2,230,185.6c5-29.9,9.4-61,14.7-90.9,33,5.2,66.7,9.1,100,12-2.7,30-5.3,61.7-7.9,91.7-24.9-2-51.5-5.9-76.4-8.2Z"/>
      <polygon class="cls-1" points="260.3 190.7 247.9 281.6 273.5 285 320.7 290.3 345.7 291.4 361.6 293 367 201.7 336.6 198.9 300.3 195.4 260.3 190.7"/>
      <path id="_14" data-name="14" class="cls-2" d="M254.7,129.3c8.2,5.3,2.7,1.2,5.6,8.9.6.9,0,1.2.1,2.1s1.3,2.1,2.5,1.9c.6,2.8,2.1,4,2.7,5.5,1.3,6.5-5.5,1.6,2.3,8.5,1,.7-.4,3.4,2.1,2.5.7.5.6-.6,1.5-.6s1.4,1.3,2.6,1.6,3.7,2.4,4.1-.2c1.1.9,1.6.1,2.3-.6,2.1,1,.8-.6,1.9-1.4,1.5,7.8,5.5.7,5.3,3.4.8,1.2,3,1.8,4.2,1.9.6-1.5,1.8-.4,1.3.7s.1,1,1,.7-1.7,4-.3,6.3c-1.9,3.1-2.3-2.9-3.4-.4a1.6,1.6,0,0,1-.7,1.8c0,.8.2,1.9-.7,2.7-2.4,1.1,1.2,2.1-1.3,3.4.7.3,2.9.2,1.8,1.9.7.3-1.7,1.9.5,2.5,1-1.2.7.2,1.5.4.2,2.2.3,3.6,2.3,5.2-.8,1.5.4.9,1.2,2-2.3,1.4,1,1.4,0,2.3.3,2.9,3.2,1.6,3.2,4.5-1.6,1.8-2.2,11.3.8,9.7,1.1-1.3.3,1.3,1.3,1.1s1.2,1.1,2.3.2c1,1.2,2.1.6,3.6.2s1.2,1.1,2.1-.7,1.9-2.6,2,.4,2.2,2.6,1.5,3.9,1.1,4.2-1,5.5c0,2.1-.2,4.6-2.6,4.6s-2.7,3.5-.9,2.7c.3.9,2.3,1.3.5,2.1-.3,1,.3,1-.8,1.3s-2,1-1.7,2.2c-1.8,2-3.4-.1-5.4.9-2.6-1.1-1.5-.6-3,.7-1.2-.3.1,3.2-1.5,3.2s-2.1,3.8-.4,4.1c0,2.4,2.3,1.3,3.1,2.1-1,1.8-2.7,3.3-2.3,5.7s.6,3.9,2.3,5.3-1.3,1.8-1.8,3-2.5-1.8-3.7.9-4.8,2.4-4.2,5-2.2.7-3,.2-1.3.4-2.2.2-3,.2-4.6,1.8c-1,.1-2.3-.6-2.6.7s-.2,3.3.5,4.3a4.9,4.9,0,0,1,3.2-1c-.8,1.8.5,2.6,1.8,1.6.4,1.4,1.3,1.8,2.6,2s.9,1.2,1.7,1.8.4,1.4,1.8.9c3,1.2-.9,2.1.9,3.4-1.4,1.6,2.5,2.7.2,4.5-.3,1.9-1,1.9-2,3.2s.8,1.5-.2,1.9-4.5,1.4-3.7,2.8a5.9,5.9,0,0,0-1.4,4.8c.6,1.1-1.5,2-.7,2.8a11,11,0,0,1,0,5.1c-1.9.3-1.1,1.4-3.3,2.5s-2.9-1-4.1.6a5.4,5.4,0,0,1-4.6,4.3c-3.1.2-2.7,3.2-5.3,4.2s-1.2-.1-2.5-.2c-3.6,1.5,1.1-2-4.3-1.6-5.9-4.8-5.8,1.8-7-.4s-1.5-1.3-2.3-1.9-1.4-3.5.1-4.2,2.4-1.6,1.4-2.9c-.4.2,1.1-1.3.1-1.2-4.9,4.3-.7-3-6.1,3-3.1-1.1-3.7,1.9-5.9,1.2-.2-.5-.9,1.1-1.7,1.3s-1.4.6-1.5-.7c-1.1.2-1-1.2-1.8-1.3s.6-1.3.1-2.6c-.9-3.5-1.2-5,1.6-7.4s-1.4-3.7-2.5-5.7c-.3,0-.7.9-1-.1-2.1,0-1.3-2-1.9-3s-.9-1.7-2.3-1.8-1.4,2.3-2.3,1.9c.9-2.2-1.1-3.5-.4-5.4-1.5-1.3-3.4,3.2-5.5,3.6s-3.7,2.9-4.7.2a5.1,5.1,0,0,1-2.1-.3c-.8.7-.8,1-1-.1-.9.9-.4-1.4-1.1-2s-2.5,3.9-2.6.3c1.2-1-.6-1.6-.4-2.7s1.4-5.8-.9-3.2c-1.5.8-2.3,3.7-3.5,1-2.3.3-3.3-3.6-2.5-5.6s-.5-2.1-1.2-3.1c1.1-2.8-1.1-4.8-.4-7.4,2.7-1.1,0-2.9,3.3-3.6,1.3-5.8,5.4,2.3,5.6-5.9.5-2.5,3.1,1.1,3.3-3.4-3.8-1.2-1.9-8.1,1-10.4,1.9-7.1,5.6-1.6,5.9-8.4,1.7-.9.2-1.3,0-2.1a22.3,22.3,0,0,1,2-6c.4-2.6,3.9-3.9,3.3-7.2-.5-10.8,2.4-.4,3.5-5.6,2.5-.6-.6-3.2-.9-4.2,2-1.8-1.4-5.8,1-5.7,0-3.5,3.7-3.3,5.8-4.1-.8-1.3.1-2.2,1-3.6s.6-1.3,1.3-.5,1.2-1,2-.6.3-2.1.3-2.7,1.3-1.5.4-2.3,1-1.5-.3-2.3,1.6-1.5.8-2.2-.4-.7-.9-.4.3-1.2-.5-.8.9-1.5,0-2,.7-.9.4-1.2-1.1-.5-1.2-.5,1-2,.8-3.2c-.4-3.3-.3-5.4,3.9-3.7.5-1.3,2.7-3,.7-4.5s-1.2-5.9-.4-9.8c1-1.7,4,0,2.3-3.6a10.2,10.2,0,0,1-.2-2.6c.2-1,0,1.3.4,1.3s1.3.4,1.2-.7.5-2.9.5-5c1.7-.6.8-2,.8-3.7s.9.2,1.7-.6,3.6-.9,4.9-2.4.9-2.2,1.1-3.1c-2.2-.9-.3-3.4,1.2-2.2C253.7,130.3,253.4,129.1,254.7,129.3Z"/>
    </g>
  </g>
</svg>
