<svg xmlns="http://www.w3.org/2000/svg" width="500" height="500" viewBox="0 0 500 500">
  <defs>
    <style>
      .cls-1 {
        fill: none;
        stroke: #999;
        stroke-width: 0.75px;
      }

      .cls-1, .cls-2 {
        stroke-linejoin: round;
      }

      .cls-2 {
        fill: #5c98ff;
        stroke: #fff;
        stroke-linecap: round;
        stroke-width: 2px;
        opacity: 0.5;
      }
    </style>
  </defs>
  <g id="hucs">
    <g>
      <path class="cls-1" d="M136.4,195.9c-6.3,25.3-17.1,64.8-23.1,90.3,28.3,47,58.7,98.2,87.5,145.1a18.9,18.9,0,0,0-.1,4.1l1.1,1.5-.8,1,2.2,3.6c0,2,.4,5.4.3,7.5,1.6,1.7,4.5,4.5,4.1,7.2l-1.3.3c-1.2,1.6-3.6,2.6-5.5,3.1s-1.9,2.2-1.9,3.2c-3.1.6-3.2,5.3-3.1,7.8-.6.6-.7,2.2-.7,2.9l-1.5,2.4-1.3.3v.9a10.4,10.4,0,0,1-3.2,2.3v1.5l-.7,1.3.8,1.6c-.4,1.1-1.6,4.3-1.3,5.5l.8,1,2.6.9,1,1.6-.6,3.7a11.9,11.9,0,0,0-2.3,3.1l-1,.4c-15-1.9-43.9-4.4-58.9-6.3l.6-2.4.9-.9v-1l-1.2-1.6-1,.6-.6-.3a4.2,4.2,0,0,1,1-2.5l-.7-1v-.9l.7-.6c1.7-4.6-.2-9.7-1.6-14-.3-.6-2.6-3.7-2.5-4.4a23.7,23.7,0,0,1-2.5-2.9c-.6-1.5-1.3-4.3-3.1-4.7-1.1-2.1-2.8-5.5-5.1-6.4l-1.5.2-.6,1.2c-.6,0-2-1.2-2.5-1.5l-.3-1.3.9-1.5c.2-1.5-.7-3.5-.7-5a8.6,8.6,0,0,0-6.9-2.4c-1.5-.8-4.4-2.2-5-3.9l-1.8-.3c-1-.9-1.5-4.7-1.8-6.1s-2.9-3.2-3.5-4.5-3.1-2.2-5-1.6-2.8-1.5-3.7-1.4L79.9,421c-3.2-2.2-11.1-.6-11.3-5.9l-2.2-1.4.2-1.5a4.3,4.3,0,0,0,1.3-4.6,5.2,5.2,0,0,1,1.4-2.2l-.5-2.5c.5-2,2.6-4.4,2-6.7l-1.3-1.1-.7.3c-.8-1.4-2.7-2.9-2-4.8l.9-.9.9.4-.3-4.1-2.5-.9-2-5.5c-1.4-1.4-3-3.6-2-5.5l-.5-.6c-.6-2-2.5-3.9-2-6.3a3,3,0,0,0-1-2.2l-.9-4.1a6.5,6.5,0,0,0-2.8-3.5l-1.1-2.5c.4-1.7,1.1-5,.3-6.5l.5-.5v-1.3l1.3-1.5,1.2.8,1-.6a24.3,24.3,0,0,0,2.5-6.5c-.3-1.2-1.1-3.2-2.2-3.9l-.4.4-.9-.6H55.2a7,7,0,0,1-3.2-5c-.9-.6-1.3-2.5-1.3-3.5a3.5,3.5,0,0,1-.5-2.4,13.2,13.2,0,0,0,1.5-4.2,5.3,5.3,0,0,1-.3-3.3l-.7-.6a9.2,9.2,0,0,1,.4-2.9l.7-.3.9-4.7a9.6,9.6,0,0,1,3,.3l-.2,2.2-1,.3c.1.9.1,2.5-.4,3.1a6.5,6.5,0,0,1,2.6,2.8,8.7,8.7,0,0,1,2.5,3.2l1.5.7.6-.8a6.2,6.2,0,0,1-2.1-2.2,11.9,11.9,0,0,0-2.2-8.6l.9-3.2-1.5-1.5v-1l1.3-1.6,1.6.4.6-.6,1.6-.4-1.3-1.5.3-.9-1.2-.3-1.5-1.6-.9,1-1,.3-1.2,2.8.9,1.1-1,1V304l-.7.9v1.4l-1.1-.3a5.5,5.5,0,0,0-1.4-1.9l-.6-1.3-.8-.2c-.4-.5-1.7-1.9-1.6-2.6a8.5,8.5,0,0,0-2.5-2.5l-.6.9-1-.3c.4-1.5,2.4-3.1,2.2-4.7h1.5a6.5,6.5,0,0,0-1.3-4.5l-.8-.2c.2-7.3-2-4.7-3.7-9.5-.1-1.5-.1-4-1.4-4.9s-1.8-3.2-1.5-4.7-1.6-2.8-1.8-3.7l1.9-3.1c-.5-3.5-.7-7.9.5-11.4a17.7,17.7,0,0,0,3.1-6.5c-.2-1-.3-3.5.3-4.6l-.6-1.7-.9-.6c.6-2.5-2.1-6-1.3-8.5a63.1,63.1,0,0,1-3.8-6.8c-.2-.6.7-1.6,1-2.1a3.4,3.4,0,0,0-.3-2.6c2-5.9,8.1-10.3,11.2-15.6l-.2-3.8,1-1.6,1.1.3a6.4,6.4,0,0,1,1.6-3.9c.7-1.4,1.8-4.5,1.5-6.1l.6-.9a4.7,4.7,0,0,1-.2-3.3,8.1,8.1,0,0,0-1.2-4.4c-.3-1,2.1-4.7,2.5-5.6C80.8,180.9,110.1,188.7,136.4,195.9Z"/>
      <path class="cls-1" d="M195.2,210.1c2.2-8.2,11.8-58.5,16.8-63.9v-1.6l-1.3-2.1-1,.4-.6-1.4h-1.3l-.8-.9a9.8,9.8,0,0,0,.2-3.4,10.8,10.8,0,0,0,1.3-2.9c1.5-.8,4.1-5.6,4.9-6.9,3.1-.3,4.7-3.9,5.7-6.4v-1.1c3.8-2.8,5-8.7,8.3-12.1.8-2.4,4.2-4.1,2.2-6.9,0-.6.2-2.4-.4-2.8l-1.3-.6-.6-1.3-1,.7c-.8-4.3-3.7-7.2-.9-11.6a5,5,0,0,1,0-3.4l-.9-2.2c5.6-24.3,12.2-55.6,18.1-79.7,4.8,1.3,12.3,2.8,17.3,3.8-1.7,9.1-5.3,22.4-6.4,31.3.4,2,2.2,4.9,2,6.8l1.1.6a6.5,6.5,0,0,1,.1,3.4l.6,1-1.2,1.8,1.2,2.3-.2.5-1.6.7c1.3,1,3.4,3.4,3.6,5l2.9,1.9c-.2,1.2,1.6,3.8,2.2,4.9l1.5,4.8a7,7,0,0,1,1.4,2.1,4.4,4.4,0,0,0,.2,3.2c.7.2,1.5,1.8,1.8,2.4l-.6,1.4.6.2,1.9-1,.4.7-.3,2.1.7.7,2.5.3,1.2-.6h1.1v.9a25.3,25.3,0,0,0-1.2,3.6l-1,.2c.4,1.8-1.3,5.9-2.7,7.1a4.9,4.9,0,0,1-.1,2.7h-1.3l-.2.9.8,1.2-1.2,1.6.4,1.4.9.8a5.4,5.4,0,0,0,0,3.1,7.5,7.5,0,0,0-3.2,1.3c-.9,1.3,0,3.4-.3,4.8l-1.5.8v1.9l1.3.4c-.1.8,1.5,2.8,1.9,3.4l1.5-.3,1-1.6,1.4.3a62,62,0,0,0,4.2-4.6l1.1.5a4.3,4.3,0,0,0,1.9,3.1v.9l-.7,1.1.9.9c-1.1,3.5.3,9.1,1.3,12.5l1,.6.9,2.2-.4,2.8-1.2.7a8,8,0,0,0,1.8,4.3v.9l2.6-.8c1.3,1.2,2.1,4.6,2.2,6.2l-.6,1.1c.3.8,1,3.2.5,3.9l.7,1.9,1.3.6.8,1.3.5-.2a5.1,5.1,0,0,1,.9-2.7l1.6-.7,5,1.7.8,1.1,1.2-.2.4-2.2,2.1-.9,1,1.6a4.1,4.1,0,0,1,2.2.2l3.8-.3.9,1.5c1.6-.3,5.3-.8,6.6.1l-.6-2.2a9.3,9.3,0,0,0,1.3-2.9h.8l1.2-1c1.1.9,1.3,3.4,2.3,4.3V154c.6.6,1.6,1.9,1.4,2.8l1.2.7c-4.1,24.6-8.2,51.3-12,76C276.3,227.5,233.5,218.5,195.2,210.1Z"/>
      <path class="cls-1" d="M225.5,374.4c-2,6.6-3.1,23-7.6,28.4a3.9,3.9,0,0,1-3.7-.9v-2.2a5.9,5.9,0,0,0-3.4-1.3c-1.5-1.3-3.8-.9-5.6-.2l-.7,1.4a5.9,5.9,0,0,1-.2,3.2,6.9,6.9,0,0,1-.2,5.1c-.9,3.1-.2,7.2-1.4,10.3,1.2,2.5,1.1,8-.6,10.3l-1,.3-.4,2.7c-28.9-46.8-59.3-98.1-87.5-145.2,6-25.4,16.6-65,23.1-90.3,36.9,9.7,80.5,19.1,118,26.9C245.4,272.4,234.8,324.9,225.5,374.4Z"/>
      <path class="cls-1" d="M224.2,90.4c.4,1.1,2.2,5.5,2.2,6.5l1-.7.6,1.3,1.3.6c.6.4.6,2.2.5,2.8,1.9,2.8-1.5,4.5-2.2,6.9-3.3,3.4-4.4,9.3-8.4,12.1V121c-1,2.5-2.6,6.1-5.7,6.4-.9,1.3-3.4,6.1-4.8,6.9a7.8,7.8,0,0,1-1.4,2.9,7.8,7.8,0,0,1-.1,3.4l.7.9h1.3l.6,1.4,1.1-.4,1.3,2.1-.2,1.6c-5,5.1-14.7,56-16.7,63.9-46.6-10.4-94.7-23.6-140.6-37.2v-.8c-1.9-2.2-1.3-5.5-1.6-8a3.6,3.6,0,0,0,.5-2.5,7.5,7.5,0,0,0,.8-3.1,13.6,13.6,0,0,1,2.1-3.2v-2.9a6.3,6.3,0,0,1-.2-2.7l-.8-1a4,4,0,0,0-.3-3,30.2,30.2,0,0,0,7.7-12.8c3.1-2.2,5.3-6.4,7.3-9.5,1.6-5.6,4.9-12.8,7.5-18.1a8.1,8.1,0,0,1,1.5-3.4l.4-2.5c.3-.9,2.1-4.3,1.8-5.1a3.8,3.8,0,0,0,1-2.7c.9-1.7,3.3-6.2,3.6-8.2s2.2-3.3,1.9-4A9.8,9.8,0,0,0,89.5,75l1.3-1.5V71.3l.6-.4,1,1.2c.9-2.1-.9-4.3,1-6.2a16.6,16.6,0,0,1,.3-4.4,8.2,8.2,0,0,0,1-4.6c2.7-1.2,3-5.1,2-7.5l1.3.2a8.5,8.5,0,0,0,1.7,2.9l.5-.6-.5-1h1.8l.3,1.4,1,.2a4.8,4.8,0,0,0,2.4-1.1l1.5.4-.3,1.2.5,1.6c1.4.9,3.4-.1,4.9.4l2.9,4c.3,2.5,1.2,5.6,0,8.1.5,2.1-1.9,4.4-.5,6.5s5.2,2.5,6.7,4.5c2.5,0,8.1-1.1,10.2-2.2,3.8,1.4,10.7,1.2,11.7,6.2.6.2,1.9-.6,2.4-.9l2.6.9c.8-.1,5.8-1.5,6.4-1.5l2.5,2.4c1.3-.2,5.2,0,6.3-1,2.6-.2,6.2-.8,8.8-.3l2.4-1.4a2.5,2.5,0,0,1,1.6,1.1c1.6-.3,4.7-.2,6.1.7s4-1.5,4.6-1.2l17.9,4,.2.4C209.9,86.6,218.9,89,224.2,90.4Z"/>
      <path class="cls-1" d="M254.5,222.8c18.5,3.8,41.5,7.6,60,10.7-1.3,7.4-3.8,23.1-5,30.6l40.9,6.2c-5.8,39-11.6,82.9-16.6,122.1-36.1-5-72.5-11.4-108.3-18C234.8,324.9,245.4,272.4,254.5,222.8Z"/>
      <path class="cls-1" d="M350.4,270.3l-40.9-6.2c6.8-40.1,12.6-81.9,19.7-122,44.4,7,89.6,12.2,134.3,16.1-3.6,40.3-7.1,82.8-10.6,123.1-33.4-2.6-69.1-7.9-102.5-11Z"/>
      <path id="_16" data-name="16" class="cls-2" d="M225.2,348.3c11.9-11,3.7-23.9-7-16-7.4,51.5-15.6,16.6-2.8-12.3-.9-10.8,11.6-29.3-7.7-16.4-1,6.9,2.2,16.5-6.8,20.8,19.2,15.3-12.7,20.3.6,38.6,2.4,21.8-14.5.2-16.7,23.6,7.6,28.4,15.6,2.8,18.2,15.7-5.1,5.6-1,14-10.9,7.5,2.2,5.7-7.5,12.5-11.2,6.5,6.2-3.5,1.2-12.8-4.2-15.5-9.3-29.5,3.7-11.1,3.5-28.5-7.8-5.7,3.5-17.9-8.1-20.4-4.2-4.6-5.6,5.6-8.4,8.8-13.6.6,2.5-10.2-14.1-16s-7.9-17.8-15-23.9c-8.9.3,5-15.7-8.7-7.6-15.8,10.3-20-29.3-20-43.4-6.7-3.8,9.3-3.7,11.8-2.5,5-3.1,1-11.2,4.9-11.6,1-9.1,2-5.3-1.4-11.5,2.5-3.4-8.2-19.8,2-11.4,2.6-1.8,2.5-6.8-.8-9.2,6.9-3.8,7.2-10.6,10.3-22.6,7.4-12.1,8.2,20.3,12.8,1.8-3.1-5.3,8.5-4,11.8-12.1,5.4,11.2-6.6,20.6,12.6,9.7,12.1-12.9,12.5.4,16,13.7,2.7,4.7,4.2,5,8.9,6,1.1,1.3-.8,9.7,3.4,7.2,6.9.5,1.1,8.1,5.7,9.9,7.2-1.8,4.8-10,7.8-12.8,4.7,6.7,5.3-4.3,8.7,6.3,2.6,4.3,2.2-6.9,2.6-9.6,15.9,24.6,10.3,2.8,22.4,4.4,3.8,8.9,10.1-8,12.9,2.5,2.9-6,11.5,0,14-8.3,1.3-5,9.1-3.6,10.6-9.4.5-.6.3,4.7,2.8,3.2s1.1-6.3,3-4.1c2.8,15.6,13.4-1.4,16.8-7.8,6.2,13.4,8.4,13.5,17.5,11.9.6,10.3-7.9,9.1-1.2,23.7-.9,4.8-9.5-.3-6.7,6,.6,16,4.1,19.3-6.1,32.2-12.2-.3-5.6,12.6-6.9,18.8-8.7,1.3-2.2,4.3-5.9,11.8a344.2,344.2,0,0,1-17.6,34.8c-1.2,6.5,7.2,7.4-1.9,10.9.4,9.6-3.7-.4-12.1,12.8-4.8-1.3-16.4-11-22.9-5.9-4,1.1-4.6-.6-8.5-2C229.8,359.5,227.4,349.8,225.2,348.3Z"/>
    </g>
  </g>
</svg>
