<svg xmlns="http://www.w3.org/2000/svg" width="500" height="500" viewBox="0 0 500 500">
  <defs>
    <style>
      .cls-1 {
        fill: none;
        stroke: #999;
        stroke-width: 0.75px;
      }

      .cls-1, .cls-2 {
        stroke-linejoin: round;
      }

      .cls-2 {
        fill: #5c98ff;
        stroke: #fff;
        stroke-linecap: round;
        stroke-width: 2px;
        opacity: 0.5;
      }
    </style>
  </defs>
  <g id="hucs">
    <g>
      <path class="cls-1" d="M221.5,134.5l-1,16-1-.2c-2.9,42.2-7.5,94-10.9,135.9-26.3-2.1-56.6-4.5-82.8-7.8l-.6.3a10.2,10.2,0,0,1-.1,3.5A10.7,10.7,0,0,0,127,285l-39.1-4.8c-.5,2.2-1.6,10.5-1.9,13-5.4-.6-13.9-1.4-19.3-2.6C74.3,235.1,82.6,176,90.5,120.8c10.7,1.4,23.6,3.2,34.3,4.5l.3.5C156.7,128.7,189.8,133.8,221.5,134.5Z"/>
      <path class="cls-1" d="M408.9,241.5l1,2.1h.6l.6.9h2l.6-.6.9.3.4-1h.8l.9.7,1.4-.5.9.8c.4,12.9,1,34.1,1,47.1.9.5,3.8,4,4.4,4.7v.9l1,1.1a4.3,4.3,0,0,0,.9,2.2l-.9,1.2.5,1-.5,1.2,1.2,1.8,1.2.3-.2,1.6.9.4a6.1,6.1,0,0,0,1.5,2.4l-.9,1.7a7.3,7.3,0,0,1,2.2,2.4v.7l.9.7h.7c-.3,1.1-.4,3.6.4,4.7l-1,1.6.9,1.3-.6,1.6.3.6a33.3,33.3,0,0,1-3.1,7v1.2c-1.9,1.4.2,4.1-.6,5.8l-.5.6-.2,2.1,2.1,2.5c-.2,1-.5,3.8-1.1,4.6l.3.8c-1.6,1.6-2.6,5.2-4.5,6.6l-.6,1.6a4.3,4.3,0,0,1,2.1,1.9c-3.6,0-9.4,2.7-12.5,4.5a27.3,27.3,0,0,0-7.7,4.1,7.6,7.6,0,0,1-2.1,1.9l-.4-.7c.4-1,2-1.6,2.5-2.8h.7l1.3-1.3,1.6-.2-.3-.8-.7-.3c-.7.4-3.7,1.1-4.5,1.4l-.9-.3c1.1-2,1.6-5.4,2.2-7.6a7.7,7.7,0,0,0-5.3,4h-.4l-1.6-1.5-.8,2.2.9,1.2-.7,1.3.4,1,1.6.7-.7,1.7h1a6.8,6.8,0,0,1-.1,4l-1.2-.3-2.5,3.6-1.2.3-1.3-.4v2l-1.3,1.1.4,1,1.3-.2c-7.3,9.3-20.6,13.1-29.4,20.7l-.5-.5.8-1.3c.9.2,2.2-1,2.8-1.4s5.2-2.8,6-4.1,4.1-1.7,5.1-2.4l.6-1.2h-1.5c-3.2,1.8-7.2,3.8-10.2,5.9l-.6-1.2h1.6l-.2-.7-1-.3.7-2.3-1.6,1.3-.3-1.3-.8,2.2-1.1.4-1.1-1.8-.9.3,1,2.1H361l-.7-1.8-1,.5-.8-1.8h-1.4l.7,2.8-.4,1.3,1.9-.3,1.6,1.6-1.8,1.2.8.6,2-.8.9,1.7a25.8,25.8,0,0,1-6.3,3.6l-.7-.7-.3-1.9-1.2-.8-.7-1.6-.8.9.8.7-1.8.9,1.6,2.2c0,.9,0,3.1-.4,3.8a9,9,0,0,0-2.9,2.1c-.2-.8.4-3,.5-3.7h-.5l-1.2.7.7,1.8-1,1.1h-.9v-1.3l-.6-.6-2.2,1.5-1.1-.7-.3,1.9-1.2.8-.2.8,2.8,5.5-2.3,1.5h-.5l-1.1-1.2-1.6.2.3-1.3-2.1.4-.6-.6-1.4.2,1.3,1.3,2.8.6-.3,2,1.3,1.3-.9,1.8h.7l1.5-1.5.4,1.2c-.7.6-1.7,5-2,5.7s-1.5,4.4-3.7,5.4h-.8c.8-.8,1-2.7,1-3.7l-1.6,2.4c-1.1.4-3.1-.5-4-.8v.8l1,1.1-1.6.6.9.9a5.4,5.4,0,0,0,2.8-.2l1.3.8,2.2-1.1.6.3v3.1l-1.3,1.6.4,1.3-.3.8-1.2.4-.5,1.2c.4.7.1,2.6,0,3.3,2.3,1.4,2.3,6.9,3,9.1l-.7,1.9.4,2.1h.9l1.2,1.6v1.8l1.3.6-.6,1.6,1,.6a8.7,8.7,0,0,0-.1,2.8l.7.5,1.4-.4.4.6c-.4.4-1.3,1.2-1.3,1.9l.3,1.2.8-.3.9-1.5h.9l-.4,2.7H343l-.7.9c-2.3,0-6,.3-7.9-1.4l-.9-1.7-3.6-.3-.5-.7c-1.3-.3-5.1-.6-6.3.1l-1.3-.6-1.3.3-3.2-1.3-.6-1-.6.3-.4-1.3-1.5-.2-.2-.7-1-.2-.4-1-1,.3-.8-.7h-.9l-.5-.6-1.9.3c-.3-.3-2.1-1.9-1.9-2.5l-2.8-1.4c-1.8.5-3.1-1.2-4.6-1.4l-.6.5-.7-.3V456l-1.3-2.1c.3-.7-.7-2.6-1-3.2s-1.3-4.7-1.6-5.7l-1.1-.6-.7-1.3h-1.3c-.2-1.5-1.8-2.8-2.1-4.1s.9-4,.8-5.3-1.5-1.2-1.5-1.8l-.9-.2.9-2c-.3-.7.2-3,.3-3.9l-.9-.2v-2.3l-2.1-1.6-.6.3-.5-.9h-1.1c-.4-.6-1.9-2.4-1.9-3l-1.3-.7-.7-2.6c-.5-.6-1.2-1.8-1-2.5l-1.5-1c-.6-2.2-2.1-5-4.3-5.9a7.8,7.8,0,0,0-2.2-2.6,15.4,15.4,0,0,1-1.4-5.3l-.7-.7v-1.8l-1.2-.9v-1.3l-.8-.7-.3-1-1.1-.5c-.6-1.2-.4-3.1-1-4.5l-.6-.3v-2.1h-.9c-1.7-2.6-.5-6.7-3.6-8.8l-.3-2c-1.5-1.1-3.5-3.1-5.1-4l-.6-2.5c-1-1.2-2.5-.9-3.5-2h-1.1l.5-2.5-.7-.8-.5,1.4-.9-.5.3-1.1-1.3-.9-.6-2.8-1.1.3-.6-1h-1.8v-1.1l-1.6,1.2c-1.2,0-3.6-.4-4.4-1.2l-3.4.3-.6-1.3-2.2.7c-1.6-.7-4.7-2.9-6.4-3.2l-1.1.5-.5,2.5-.5.2a4.2,4.2,0,0,1-2.5-1L216,355l-.6-.6-1.2.6-1.3-.2a11.4,11.4,0,0,1-2.5,3.9l-.6,2-.7.3c0,1.3-.9,3.4-.9,4.7l-1.2.4-.7,2.4.4,1.6H206c-.4.7-1.9,1.1-2.6,1.3l-.8,1.5a3.5,3.5,0,0,0-1.7,1.7c-.2.4-.3,1.9-.9,2.2a9.7,9.7,0,0,0-3.8-.3l-1.2-1.9-1.3.6c-.3-.4-1.2-1.5-1.9-1.5l-.4-1.9c-1.3-1-3.4-1-5-1.6l-2.2-3.1-5-1.4c-.6-.6-3.3-3.2-4.1-3.5a5.4,5.4,0,0,0-4.4-4.4l-1-1.8-.9-.3c-1.3-1-1.9-4.4-1.9-5.8v-.6c-3-6.6,1.1-11.3-3.3-17.4l-.8-.5c.2-.4-.3-4.8-.3-5.4a7.4,7.4,0,0,1-2.3-3.4c-1.9-.5-3.5-3.2-5.1-4.2-3.4-1.5-7.5-5.6-7.9-9.5-.8-.9-2.5-2.7-3.7-2.9-1.3-2.4-3.4-5.3-4.8-7.5l-2.1-.3a18.5,18.5,0,0,0-2.8-2.8,7.6,7.6,0,0,0-1.3-3.1,51.6,51.6,0,0,0-1.9-6,6.6,6.6,0,0,1-2.8-.4,16.3,16.3,0,0,1-2.4-3.8,10.3,10.3,0,0,0,.1-3.5l.6-.3c26.2,3.2,56.6,5.7,82.8,7.7,3.3-41.7,7.9-93.8,10.9-135.8,21.5,1.2,45.4,2.8,66.9,3.5-.8,19-1.9,40-2.4,58.9h1.8l2.2,1.8c.1,1.3,1.7,2.3,2.2,3.5l2.5.6,1-1.4,2,.3.9,1.1.9-.8v-1.1l.6-.5c.9,1.2,2.7,2.2,3.1,3.7h.6l-.3,2.9.9,1c1,.2,3.2.5,4.1-.1a2.2,2.2,0,0,1,1.4,1.3,11.2,11.2,0,0,0,3.5,1.2l.5.6a3.8,3.8,0,0,1,2.8-.6l.6-.8,1.1,1.1.3,1.4,1.2,1.1,1.7-.8.5-1.7.9-.8,1.6,1.4,2.2.2,1.1-1,.9.6a9.4,9.4,0,0,0-.1,2.9l1.1,1.4,1.1-.3,1.1.8-.7,2.1.4,1.4,1.7.9c1.6-.6,2.4-3.2,3.8-4.1h2.2l.7,2.1.9-.6,1.3.4a5.5,5.5,0,0,1,.7,2.5l1.5,1,1.4-2h1.2l.5-1.1h1.1l.8,1.7-.9,1.6,1,2.4,1.3-.2a9.7,9.7,0,0,0,0-3.8h.6l1.2.7,1.3-1.6-.3-2,1.8-.3.5.5.3,2.8h1.9l1.5,1.2.6-.3,1-2.5a4.2,4.2,0,0,0,1.8,1.4l-1.1.8.3.7,1.9.3.6,1.3h1.3a6.6,6.6,0,0,1,2.1,2.3h.6l.6-1.3,2.3-.3a6,6,0,0,1,3.2-3.1l1.6.2.8-.6h4.1v-1.5l1.9.2a5.8,5.8,0,0,0,1.9-1.6H385l.3,1.2.6.6c.7-.3,2.2.1,2.9.2s2.1-1.1,2.8-.8.5-1.8.9-2.1l1.9.2a5.8,5.8,0,0,1,2.1,2.5l.8.2h.9c.5.6,2.2,3.2,2.9,3.5h1.7l.2.7a5.1,5.1,0,0,1,2.8,1.8l.9-.3a4.9,4.9,0,0,1,1.8,1.3Z"/>
      <polygon class="cls-1" points="106.8 0 90.3 121.5 124.5 126 187.6 133 221 134.5 242.2 136.7 249.4 14.6 208.9 11 160.4 6.3 106.8 0"/>
      <path id="_13" data-name="13" class="cls-2" d="M108.6,324.2c1.8-7.3,2.5-15.1,4.3-21.1.4-3.2-7-9-6.3-2.8,6.7,12.1-10.8,9.7-10.5,21.1-4.9,9.2-12.6-16.2-16.9,0-7.4,3.7,0-6.9-3.9-8-8.1-.8-3.1-10-7.6-13.3,1.9-3.7,5.2.4,4.5-4.4,3.5-8.1,6.9-13.9,6.3-21.3,2.2-17.8,12.7,11.3,13.9-11.8-12.2-15.2,10.5-17.7,12.7-30.9,5.9-23.7-13-.7-13.9-11.3.6-12.4,17.2-13.7,7.8-23.3-6-6.4,3.8-10.2,5.8-16.2-2.3-3.8-6.1-5.7-4.6-10.2,4.5-7.2,8.2-5.2,13.4-7.8,5.3-6,13.9-10.4,20.7-13.8,0-10.9,2.5-18.9,10.8-25.9,7.8-19-35.1-20-8.6-28.1,8.2,1.5,10.2-2.9,15.3-9.1,5.3,3.3,10.4-7.7,13.1.3s10.9,14.5,6.3,22c-.3,3.8,4.8-2.2,6.2,2,.6,17.5-5.4,27.7-8.7,42.3-9.1,16.4,1.3,9,7.6,19.4.3,7.7,7.1,11.8,10.2,19.6,2.1,1.6,5.6,0,8.2.4-.3,5.3,7,3.2,7.3,7.5,7.2,5.1-3.6,6.1-4.4,12.1,1.5,7.4.9,15.3,3.6,23.6-15.8,19.2,7.3,25,15.3,40.3-.4,8.2,1.5,17.2,11.6,18.3,3.1,7.7,6.4,10.8,12.6,16.8,20.6,7.9,29.6,7.6,29.1,34-6.7,12.8,3.8,25.6-1,40.2,4.4,7.3,11.1,10.1,11.6,19.2,1.4,3.5,4.1,1.6,6.8,1.5,4.1,7,4.3,15.5,14.8,16.6,0,8.1,4.7,15,6.5,24.8,6.3,4.8,5.1,11,7,15.5,5.8,6.9,17.4.4,22.1,9.5,12.9-5.7,13.2,2.8,6.3,13.6-9.5-5.2-22-27.8-31.3-12.3-14.8,2.1-20.7,13.6-30.8,24.3-5.4-9.5-9.2,7.3-13,1.1-5.4,2.9-2.4-5-6.3-5.8,1.6-11.8-12.6-8.9-13-1.7-6.5,1.4-16-1.8-23.5-4.4-1.3-12.2,18.1-26.5,4-36.2-5.1-12.1-13.3-3-17.4-12.4,3.8-9.8-3.4-5.9-3.7-16.8,7-1.4-2.8-6.2.2-10.7-3.3-2.1-1.4-4.3-.9-6.5-2.1-2-4.3-4.7-4.7-7.3-3.2-14-9.8.6-14.2-1.7-10.1-4-.7-6.5-5.9-12.2-3-.1-3-3.8-7-2.8,1.6-6-4.5-8.2-8.6-11.5-1.6-7.9-5.1-.8-10,1.1.3,6.2,5.3,13.9,1.1,19.4-7.1-9.6-6.6.2-9.4,5.8,3.6,10.8,6.9,20.5,13.2,30.2,0,3.3-2.8,5.8-4.7,9-.2,3.3.6,4.6-.9,7.1-15.4,4.1-4.8,4.2-16.2,14.5-4.6-3.7-5.6-13.7-12.1-13.9-9.2,2.7-12,22.5-15.8-4.3-7.1,0-8.9-9.4-10.6-15.2,2-8.2-.8-12-7.2-14.9-4.1-2.7-10.9-15.7-6-17.2s7.7,4.9,12.1-.7c11,12.9,3.8-10.5,13.3-7.8,9.3-.4-8.3-4.5,5-14.6,19.5-1.5,9,9.5,19.2,1.8,11.4-2.8,7-14.5,13-26.5,4.1,2.7,7.2.1,11.9.1.7-15.7-7.2-21.1-18.6-28.7-2.3-4.1-4.2-2-7.6-4.4s-1.6-10.4-6.6-6.1c-6,1.6-13.2,3.9-9.7,11C117,318.2,114.1,332.1,108.6,324.2Z"/>
    </g>
  </g>
</svg>
