<svg xmlns="http://www.w3.org/2000/svg" width="500" height="500" viewBox="0 0 500 500">
  <defs>
    <style>
      .cls-1 {
        fill: none;
        stroke: #999;
        stroke-width: 0.75px;
      }

      .cls-1, .cls-2 {
        stroke-linejoin: round;
      }

      .cls-2 {
        fill: #5c98ff;
        stroke: #fff;
        stroke-linecap: round;
        stroke-width: 2px;
        opacity: 0.5;
      }
    </style>
  </defs>
  <g id="hucs">
    <g>
      <path class="cls-1" d="M351.7,220.5c15.8.4,33.6-.5,49.5-.9l-.3.4v1.2l.6.7c.5-.2.9-1,1.1-1.3l.7.3c-.4.9-1.5,3-1,3.9l.6.4h.7v.8l-1.1.6c-.2.2-.1,1.4-.1,1.7l1.6-.5h.5v.8l-.7.7,1.3,1.1-.4.7-1.2-1.1-.3.7.3.6,1.3.6.3,1.4a7.2,7.2,0,0,0,1.9,1.1,6.1,6.1,0,0,0-.7,2.4,22,22,0,0,1-3.7.5l.2,1.5,1.2.4,1.2-1,.2-.6,1,.4a23.1,23.1,0,0,1-1.8,2.3h-1.1l.7,1.2-1.1.8a8.2,8.2,0,0,1-1.2,2v1.3l-1.4-.3-.7.5v.8l1.2.5-.5.6h-.8a3.8,3.8,0,0,0-.7,2.7l-1.1-.2-.2.8h1v1l-1.2.6v1.2l.9,1.2v.6l-1.4-.4v1.2l.7.8v1.2l-.6.4h-1.2a3.8,3.8,0,0,1,.5,2.7l.9,1.8-.9,1.1.2.5c10-.4,23.1-1.3,33-1.9l.5.8a13.2,13.2,0,0,0-.8,3.3c-.1.6-.8,2.9-.6,3.4l.5.4.5,2.1c1.1.9,2.5,2.6,2.5,4l.5.6a3.7,3.7,0,0,0,1.8,3.5,10.5,10.5,0,0,1-4.9-1h-.7l-.8-.6h-1.8l-.2-1a2.5,2.5,0,0,1-1.4-1.1,6.1,6.1,0,0,0-3-.2c-.3.4-1,1.6-1.6,1.8v.9l-1.2,1.6a2.9,2.9,0,0,0,.3,2.2c2.4,1.1,7.2,1.9,8.9-.6l.3-1h.8v.7h1l.4-1.1.9.3.8-.4-.2,1.5-.6.5v.7l-1.2-.3-.8.4L429,286l.6.6,1.4.5,1,1.2h.8l.8-.9a6.9,6.9,0,0,1,.4-2.5l1.1-.9v-.7a3.6,3.6,0,0,0,4.6-1.9l.4,1.4.9.3-.8,1.2.2,1.7h.8v.7l-1.9.9-.5,1.5-1.5.3a2.7,2.7,0,0,0-.5,2.3l-.5.4h-.9l-.4,1-.9.3-.4.7c.3,1.1,1,2.8,2,3.4v.7l.3.4a3.5,3.5,0,0,1,3.4.7v1l.4.2.9-.3.4.4.6-.3v.8h.6l.3.9h2.2l.2.7-.6.3.6,1-.4.7-.9-.3-.9.2a2.9,2.9,0,0,0,.3,2l-.6.3c-.5-.2-1-1.4-1.2-1.9l-.8.2a6.6,6.6,0,0,1-1.6,2.8l-.6-.8.9-1,.2-1.3-2-1.3a6.6,6.6,0,0,0-1.1-2l-.6.6a5.4,5.4,0,0,0-2.2-.9l-.4-1.1-.4.4-2.5-.2a6,6,0,0,1-.5-2.4,5.1,5.1,0,0,0-2.7-.4l-.8-.6-.2.7.4.9-.3.7.4,1-.7.7v.8l.9,1c-.3.4-1,1.6-1.5,1.7a4.4,4.4,0,0,1-2.4,1.8l-.4-1.8a3.9,3.9,0,0,1-1.3-2.2h-.8l-.9,1.8h-1a2.8,2.8,0,0,0-.6-1.8h-1.1l-.5.7.3.8a2.8,2.8,0,0,0-1.7,1.1l-.2,1.3c-.6-.1-1.9.7-2.3.9s-2.3-1.7-2.7-2.1a13.6,13.6,0,0,1-2.9-.3c-.7-1-.3-2.9-1.2-3.7l-1-.3-.3-.9h-.8l-.2-1h-1a1.9,1.9,0,0,0-1.4-.5l-.8-.7-1.3.8-.3-.2.2-1.3-.7-1h-1.6c.1-.7.4-2.3,1-2.6a3,3,0,0,0-2.1.1,6.6,6.6,0,0,0-2.5.6l-.5-.2v-1l.6-.4v-.8a5.4,5.4,0,0,1-2.5.3l-.4.9a9,9,0,0,0-2,1.4l-.3-.7-1.1.5.8,1h.9v1.3h1.1v.9a9.3,9.3,0,0,0-4,1.2c-1.8-.3-5-.2-6.8-.9l-4.3-1.8a5.1,5.1,0,0,0-3.1-1.3l-.5-.6-1.9-.4a6.2,6.2,0,0,1-2.7.1l-.4.2c-2.7,0-6.1.3-8.5,1.7a5.6,5.6,0,0,0-1.6-1.5l.5-1.2c1.4-1,2.2-3.7,3.4-4.9l-.3-.6c.5-.6.7-2.7.8-3.5l-1.5-1.8V280l.4-.4c.6-1.3-1-3.3.5-4.4v-.9a27.3,27.3,0,0,0,2.3-5.2l-.3-.4.5-1.3-.7-.9.8-1.2c-.7-.8-.4-2.7-.3-3.5H361l-.6-.6v-.5a5.9,5.9,0,0,0-1.7-1.8l.7-1.3a3.1,3.1,0,0,1-1.1-1.8l-.7-.3v-1.2l-.8-.2-.9-1.3.3-.9-.3-.8.6-.8c-.2-.4-.7-1.2-.6-1.7l-.8-.9v-.6c-.5-.6-2.6-3.3-3.3-3.5C352.1,240.7,351.7,223.6,351.7,220.5Z"/>
      <path class="cls-1" d="M203.5,126.3l-.7,11.9H202c-2.2,31.5-5.6,70.3-8.1,101.6-19.7-1.5-42.4-3.4-62-5.8l-.5.3c.3.5,0,2-.1,2.6a13.7,13.7,0,0,0,1.5,2.1l-29.3-3.7c-.3,1.7-1.2,7.9-1.4,9.8a144.3,144.3,0,0,1-14.5-2c5.7-41.5,12-85.7,17.9-127l25.6,3.4.2.3C155,121.9,179.8,125.7,203.5,126.3Z"/>
      <path class="cls-1" d="M343.7,206.3l.8,1.6h.4l.5.6h1.5l.4-.4.7.2.3-.8h.6l.6.6,1.1-.3.7.5c.3,9.6.7,25.5.7,35.3a18.3,18.3,0,0,1,3.3,3.5v.6l.8.9c-.1.4.4,1.3.6,1.7l-.6.8.3.8-.3.9.9,1.3.8.2v1.2l.7.3a3.1,3.1,0,0,0,1.1,1.8l-.7,1.3a5.9,5.9,0,0,1,1.7,1.8v.5l.6.6.6-.2c-.2.9-.4,2.8.3,3.5l-.8,1.3.7.9-.4,1.2.2.5a26.6,26.6,0,0,1-2.3,5.2v.9c-1.4,1.1.1,3.1-.5,4.4l-.4.4v1.6l1.5,1.8a12.8,12.8,0,0,1-.7,3.5l.2.6c-1.2,1.2-2,3.9-3.4,4.9l-.5,1.2a3.2,3.2,0,0,1,1.6,1.4c-2.7,0-7,2.1-9.3,3.4a21.6,21.6,0,0,0-5.8,3.1c-.4.4-1,1.2-1.6,1.4l-.3-.5c.3-.8,1.5-1.2,1.9-2.1h.5l1-1h1.2l-.2-.7-.6-.2a16.9,16.9,0,0,1-3.4,1.1l-.6-.2c.9-1.5,1.2-4,1.6-5.7a5.4,5.4,0,0,0-3.9,3h-.3l-1.3-1.1-.5,1.6.7.9-.6,1,.3.7,1.2.6-.5,1.2h.8a5.1,5.1,0,0,1-.1,3l-.9-.3-1.9,2.8-.9.2-.9-.3-.2,1.5-.9.8.3.7h1c-5.5,6.9-15.5,9.8-22,15.5l-.4-.4.6-.9c.6.1,1.6-.8,2.1-1.1s3.9-2.1,4.4-3.1,3.1-1.2,3.9-1.8l.4-.8h-1.1c-2.4,1.3-5.3,2.8-7.6,4.3l-.5-.8h1.2V320l-.8-.2.6-1.7-1.2.9-.2-.9-.7,1.6-.8.3-.8-1.3-.7.2.8,1.6a7.4,7.4,0,0,1-2.1,0l-.5-1.4-.8.4-.6-1.3h-1.1l.6,2-.3,1,1.4-.2,1.2,1.2-1.3.9.5.4,1.6-.5.6,1.2a16.9,16.9,0,0,1-4.7,2.7l-.5-.5-.3-1.4-.8-.6-.6-1.2-.5.7.5.5-1.3.7,1.2,1.6a9.2,9.2,0,0,1-.3,2.9,5.7,5.7,0,0,0-2.2,1.5,13.5,13.5,0,0,1,.4-2.8h-.4l-.9.6.6,1.3-.8.9h-.7v-1l-.4-.4-1.6,1-.9-.5-.2,1.4-.9.7v.5l2.1,4.2-1.8,1.1h-.3l-.9-.9h-1.2l.2-1-1.5.4-.5-.5h-1.1l1,1,2.1.5-.2,1.5,1,1-.7,1.3h.6l1.1-1.1.3.9c-.6.4-1.3,3.7-1.5,4.2s-1.1,3.3-2.8,4.1h-.6a4.5,4.5,0,0,0,.7-2.8l-1.2,1.8c-.7.3-2.3-.3-2.9-.5v.5l.7.9-1.2.4.7.7a5.1,5.1,0,0,0,2.1-.1l1,.5,1.6-.8.4.3v2.3l-1,1.2.4,1-.2.5-.9.3-.5.9a3.6,3.6,0,0,1,0,2.5c1.8,1,1.8,5.2,2.3,6.8l-.5,1.4.3,1.6h.7l.9,1.2v1.3l.9.4-.4,1.2.8.5a4.9,4.9,0,0,0-.1,2.1l.5.4,1-.3.3.4c-.3.3-1,.9-1,1.4l.3.9.6-.2.7-1.1h.6l-.3,2h-2l-.5.6c-1.8,0-4.5.3-5.9-1l-.7-1.3-2.7-.2-.4-.5c-.9-.3-3.8-.5-4.7.1l-1-.5-.9.3-2.4-1-.5-.8-.4.2-.4-1h-1l-.2-.5H272l-.4-.8-.7.2-.6-.5h-.6l-.5-.5-1.4.3c-.2-.3-1.5-1.5-1.4-1.9l-2.1-1.1c-1.3.4-2.3-.9-3.4-1l-.4.4-.6-.3v-1.6l-1-1.5c.3-.6-.5-2-.7-2.5s-1-3.5-1.2-4.2l-.8-.5-.5-.9-1-.2c-.1-1.1-1.3-2-1.6-3s.7-3,.6-4-1.1-.8-1.1-1.3l-.7-.2.7-1.4a10.3,10.3,0,0,1,.2-3h-.7v-1.7l-1.5-1.2-.4.2-.5-.7h-.7c-.4-.4-1.5-1.7-1.5-2.2l-.9-.5-.6-2a3.3,3.3,0,0,1-.8-1.9l-1.1-.7c-.4-1.7-1.5-3.8-3.1-4.4a6.7,6.7,0,0,0-1.7-2,12.5,12.5,0,0,1-1.1-3.9l-.5-.6V321l-.9-.6v-1l-.6-.6-.3-.7-.7-.4c-.5-.9-.4-2.3-.8-3.4l-.4-.2v-1.5h-.7c-1.3-2-.4-5.1-2.7-6.6l-.2-1.5c-1.1-.8-2.7-2.3-3.9-3l-.4-1.9c-.8-.8-1.9-.6-2.6-1.5h-.8l.3-1.9-.5-.5-.4,1-.6-.3.2-.9-1-.7-.4-2.1-.9.3-.4-.8h-1.4v-.8l-1.2.9a6.6,6.6,0,0,1-3.3-.9l-2.5.2-.4-.9-1.7.5c-1.2-.5-3.5-2.2-4.8-2.4l-.7.3-.5,1.9-.3.2a2.9,2.9,0,0,1-1.9-.8l-.8.9-.5-.4-.9.4h-.9a9.7,9.7,0,0,1-1.9,2.9l-.4,1.5-.6.2c0,1-.6,2.5-.6,3.5l-.9.3-.6,1.8.4,1.2h-.6a3.5,3.5,0,0,1-2,1l-.5,1.1a2.7,2.7,0,0,0-1.3,1.3c-.1.3-.2,1.4-.7,1.6a6.5,6.5,0,0,0-2.8-.2l-.9-1.4-1,.4c-.2-.3-.9-1.1-1.4-1.1l-.3-1.4c-1-.8-2.6-.8-3.8-1.2l-1.6-2.3-3.7-1.1a35.6,35.6,0,0,0-3.1-2.6,3.9,3.9,0,0,0-3.3-3.3l-.8-1.3-.6-.2c-1-.8-1.4-3.3-1.4-4.4v-.5c-2.3-4.9.7-8.4-2.6-13l-.5-.3c.1-.3-.2-3.6-.2-4.1s-1.4-1.7-1.8-2.5-2.6-2.4-3.8-3.2-5.6-4.1-5.9-7.1c-.6-.6-1.9-2-2.8-2.2s-2.5-3.9-3.6-5.6l-1.5-.2a13.9,13.9,0,0,0-2.1-2.1,5.8,5.8,0,0,0-1-2.3,38.8,38.8,0,0,0-1.4-4.5,5.1,5.1,0,0,1-2.1-.3,11.2,11.2,0,0,1-1.8-2.8,8.2,8.2,0,0,0,.1-2.7l.4-.2c19.6,2.4,42.4,4.3,62,5.8,2.4-31.2,5.9-70.2,8.1-101.6,16.1.9,34,2.1,50.1,2.6-.6,14.3-1.5,29.9-1.8,44l1.3.2,1.7,1.3c.1,1,1.3,1.7,1.6,2.6l1.9.4.7-.9,1.6.2.6.7.7-.5v-.9l.4-.3c.7.9,2,1.6,2.3,2.7h.5l-.2,2.2.6.8c.8.1,2.4.3,3.1-.1a1.8,1.8,0,0,1,1.1,1,7.2,7.2,0,0,0,2.6.8l.3.5a3.1,3.1,0,0,1,2.1-.5l.4-.5.9.8.2,1,.9.8,1.3-.5.4-1.3.6-.6,1.2,1,1.7.2.8-.8.7.5a7.9,7.9,0,0,0-.1,2.2l.9,1,.7-.3.9.7-.5,1.5.3,1.1,1.2.7c1.2-.5,1.9-2.4,2.8-3.1h1.7l.5,1.5.7-.4,1,.3a4.5,4.5,0,0,1,.5,1.9l1.1.8,1.1-1.6h.9l.3-.8h.9l.5,1.3-.6,1.2.8,1.7h.9a6.6,6.6,0,0,0,0-2.8h.5l.9.5.9-1.2-.2-1.5,1.3-.2.5.4.2,2.1h1.4l1.1.8.4-.2.8-1.8c.2.4.9.8,1.3,1.1l-.7.5.2.6,1.4.2.4,1h1c.5.3,1.5,1.2,1.6,1.7h.4l.4-1,1.8-.2a4.2,4.2,0,0,1,2.4-2.3h1.2l.6-.4h3v-1.1h1.5c.4-.1,1-.8,1.4-1.2h1l.2.9.4.4a5.3,5.3,0,0,1,2.2.2c.4-.2,1.5-.9,2.1-.6a3.8,3.8,0,0,1,.6-1.6h1.5a4.7,4.7,0,0,1,1.5,1.9l.7.2h.6a11.2,11.2,0,0,0,2.2,2.6h1.2l.2.6a3.2,3.2,0,0,1,2.1,1.3l.7-.2a2.6,2.6,0,0,1,1.3,1Z"/>
      <path id="_12" data-name="12" class="cls-2" d="M191.7,175.9c6.9,3.1,16.2,3.5,21,4.2,3.8,3.4,6.4,4.6,10.6,6.7,2.3.8,1,4.9,3.6,3.9,3.7,3.4,6.3,12.2,11,10.2,1.5-.1,2.4,6.8,4.5,3.8a9.4,9.4,0,0,1,2.4,0c1.5,1.4,4.3-.2,6.1-.6s4.7.9,6.7-.5,4.2,1.4,5.2-.6c1.7,1.3,8.2,7.7,8.5,5.8,1.4.1,3-2,4.8-1.7a7.8,7.8,0,0,0,4.2-1.1c2.4,2.3,3.2-.5,5.2-.4s2.5-.9,3.4-1.7c1.4,1.4,4.6-2.4,6.7-1.4s2.1.1,2.8.4,1.1-.5,1.1.4.4-.4.5-.3,1.4.3,2-.1c.3,1.3,1.7,1.5,2.4,2.4s2.9,1.2,3.8,2.4a8.4,8.4,0,0,1,2.9-.2c.7-.5.9,1.5,1.7,1.6s2.2,2.1,3.1,3.1,1.8,2.3,3.4,3.2,2.8.3,4.6,1.6,1.4-.6,2.4.8c2.5-1.1,4.5,1.6,6.2,3.2.1,2.3.7,2.9,2.1,4.7s1,.4,2,0c1.5,1.8,3.8,2.6,5.3,3.6s7.6-3.1,8.9,2.3c.7.7,1.7.4,2.5,1.3a1.1,1.1,0,0,0,.9,1.5c-.3,1.6.5,2.3,2.2,2.7s2.2,1.4,1.9,3.3,1-.1,1.3.1a4.4,4.4,0,0,0,2.1.7c-.5,3.2,1.9,3.3,2.5,6-.8.5-.8,1.7.2,1.6a14.1,14.1,0,0,1,2.2,5.7c1,1.1,2.1,1.5,2.1,3.3,2.6,3.3-2.3,5.2-1.9,8.2-1.7,1.6-2.5,3.4-3.4,5.9s-3.6,6-1.7,7.8-1.1,2.3-.1,3.8,0,5.3-.9,7.6c-4.5,1.8-.7,3.4-2.4,4.2-11.2-1.5-18.1,10-25.6,16.1-11.9,8.2-27.6,14-34.3,27.6-11.8,12.6,8.6,35.6-6.7,39.6,0-.7-.9-.8-1.2-.7s-1.2-2-2.1-1.9c0-2.1-2.3-.9-3.4-1.9-3.6-.4-8.8.2-10.3-2.8-1,.3-3.9-2.6-1.5-2a7.5,7.5,0,0,1,.1-4.9c-3.6-4.4-4.5-1.4-5.5-9a10.7,10.7,0,0,1-2.1-9.5c-2-.9-2.9-2.1-1.8-4.4s-2.9-1.2-3.9-2.2-1.1.4-1.8,0c-.4-2.2-2.1-2.6-3.4-4.4s.2-3.4-1.1-4.1a3,3,0,0,0-.3-2.3c-1.4-1.1-1.7.4-3.3-.2-1.6,1.4-2.9-.9-2.8-2.6s-1.1-2.8-1-4.1-1.3-1-1.5-1.8c-3.2-2-2.6-1.7-4.3-4.7s-1.8-4.4-.7-7c-.5-3.3-1.6-7.7.9-10.5.8-1.8-3.4-1.7-1.8-3.2s-1.1-1.8-1.4-3.1a1.8,1.8,0,0,0-.2-2.4c-2.1-1.5,2.5-5.1,2.3-7.4-2-2,.2-5-1-7.6.6-4.4-1.3-8.5-5.1-10.3-2-1-1.8-3.2-3.7-1.9s-4.7-1.9-7.5-2.5-3.7-.3-4.2-2.1c-1.5.5-1.1-.6-2.1-1.4s-1.9-1-1.9-2.5-2.4-.9-3.4-1.9c-1.6-3.9.5-6.7-6.3-7.3-1.1-2.3-7.6-6-4.1-7.8-.7-1.5-.6-3.4-.8-4.9a3.5,3.5,0,0,1-1.9-2.3c1-1.1-1.2-.8-1-1.8-1.5-.9-.7-2.7-2.1-3.7-2.8-4.1-12.8-7-10.3-12.1.4-2.8-.4-6,1.3-7.3,1.1.6,2-.9,1.4-1.9s2.3-1.4.6-2.7c-.2-3.3-1.8-5.4-1.3-8.6-.8-1.5-.1-2-.1-3s-.3-2.5-.7-4.4,1.1-5.3,3.5-4.5S189.9,176,191.7,175.9Z"/>
    </g>
  </g>
</svg>
