<svg xmlns="http://www.w3.org/2000/svg" width="500" height="500" viewBox="0 0 500 500">
  <defs>
    <style>
      .cls-1 {
        fill: none;
        stroke: #999;
        stroke-miterlimit: 10;
        stroke-width: 0.75px;
      }

      .cls-2 {
        opacity: 0.5;
      }

      .cls-3 {
        fill: #5c98ff;
        stroke: #fff;
        stroke-linecap: round;
        stroke-linejoin: round;
        stroke-width: 2px;
      }
    </style>
  </defs>
  <g id="hucs">
    <g>
      <g>
        <path class="cls-1" d="M483.1,339.3c-.8-.5-.8-1.6-1.3-2.4a6.8,6.8,0,0,1-1.3-1.8c0-1.4-1.4-2.4-1.1-3.8s.3-1.6.3-1.8h0c0-.3-.3-1.1-.3-1.4a20.3,20.3,0,0,1-1.3-1.8l-1.1.5a3.9,3.9,0,0,0-1.6-.2l-.8-1.6c-1.3.2-2.1-.8-2.9-1.6-2.7.2-5.1-1.1-7.2-2.7a4.9,4.9,0,0,1-1.9.5,7,7,0,0,0-1.3-2.4V318a18,18,0,0,1-2.1-.8c0-.8-.3-2.1-.3-2.9l-2.7-.3.3-2.1-14.4-17,.5-.8a25,25,0,0,1-4.7-4c-1.4-.6-3.5-1.1-4.6-2.4v-.8l-.8-.3v-1l-1-1.4h-.6a4.1,4.1,0,0,1-1.6-1.6l-2.1-.2c-.3-.3-.5-.8-.8-1.1v-.8l-.8-.5c0-.3.3-.6.3-.8s-.3-1.1-.3-1.4h-.8a2.4,2.4,0,0,1-.8-1l-2.1-1.4a23.8,23.8,0,0,1-2.9,2.7,5.7,5.7,0,0,0-2.7,1.6l1.1.5s0,.6.2.6l-.2,1-.6.3H416l.8,2.9-.2.3v.3l-.3,1.5-1.9.6c-1,1.6-2.9,2.9-3.7,4.8l-.5.2c0-7.4-9.9-9-12.3-14.9a7.4,7.4,0,0,1-4.2-2.4,29.4,29.4,0,0,0,0-4.2l-4.3.8a12.2,12.2,0,0,1-1.6,2.6,16.7,16.7,0,0,1-4-1.6l-.3,1.4a13.4,13.4,0,0,0-3.7-.8c-9-46.4-18.4-95.1-27.4-141.4a5.8,5.8,0,0,0-2.4-.3h0c-3.5-1.6-7.2-3.2-10.6-4.5a2.1,2.1,0,0,0-2.4-.3l-1.4-.2c-.2.2-.8.2-1.3.5a.9.9,0,0,0-.8.3c0,.2-.3.2-.3.5s-1,.5-1.8.8-1.4.5-1.6,1.1-1.4-.6-1.9,0h-.3c-1.3-1.4-4.2-1.4-6.1-2.7s-2.1-.5-2.9-.3H317l-1.1-.8-.8-.2h0l-1,.2c0-.5-.6-.8-1.1-.8a1.3,1.3,0,0,0-1.9-.2,1.8,1.8,0,0,0-1-.6c0-1-1.6-1.3-2.2-.5v.3c-.5-.6-2.4-.8-2.1.5l.3.3L305,125c-1.9-1.1-4.8-2.1-6.9-1.6a1.2,1.2,0,0,0-1.3.3c-.6-.5-1.9-.3-1.9.5h-1.6a2.9,2.9,0,0,0-1.9.5c-.5.3-1.3,0-1.8.6a4,4,0,0,1-1.9-.3v-.3a.8.8,0,0,0,.3-.8c-.3-.2-.6-.5-.8-.5a23.8,23.8,0,0,1-2.7-2.9c0-1.1-1.6-1.1-2.1-1.6a12.5,12.5,0,0,0-3-.5.7.7,0,0,0-.5-.3h-.2c-.8-.3-1.9.3-2.7.5a9.6,9.6,0,0,0-2.4,0c-3.2-.8-5.3-4-8.5-4.5a5.6,5.6,0,0,0-2.7-.8c-.5-1.1-2.1-1.3-3.2-1.9s-1.6-.8-1.8,0c-3.8,1.6-7.2,9.9-11.8,5.1a14,14,0,0,0-6.6,1.1c-4.3,3.4-7.2,6.6-12.8,4.8-7.5,2.1-6.9,9.8-10.4,14.6a6.4,6.4,0,0,1-6.4,2.4c-.8,0-1.8.3-2.4,0-2.4,1.3-9-3.5-8.2.8,0,.5-.3.8,0,1.3l-.3.6c.3,1-.5,1.3-.5,2.3h0c-1.6,0-5.3,1.9-2.1,2.2,1.5.2,2.6,1.3,3.7,2.4a3.5,3.5,0,0,0,2.9,2.6l.3-.2c2.6,1.3,4.5,4.8,6.6,6.4s3.5,4.2,4,7.1c-.2,0-.5.3-.8.6,1.1,2.9,5.6,2.4,7.5,4.5-1.6,1.3-3.7,2.4-5.3,3.7-8-2.6-17.1,1.9-24,5.6-1.9,1.6-4.8,1.1-6.7,3a2.3,2.3,0,0,0,.8,2.9c.3.2.6.5.8.5a5.7,5.7,0,0,0,1.1,1.1c1.1,1.8,3.5,2.1,5.3,3.2-1.6,1.3-1,3.4.6,4.5v.3c.5.8,1.8,1.6,1.8,2.4s-.5,1.6-.5,2.4,1.1,1.8,1.9,2.6a.6.6,0,0,0-.6.6c-.2,1.6,2.1,1.8,1.9,0,5,3.1,9.8,2.9,15.4,2.4,1.4.5,3,.7,3.2,2.3s2.4,1.9,3.5,2.4a2.9,2.9,0,0,0,1.8-1.3c.3-1.1.3-1.9,1.4-2.1l4.2,3.4c.6.6,1.4,1.1,1.6.3s1.6,1.9,2.4,2.7c-.5,2.9,2.7,5.6.6,8.2-.3.3-.8.3-.8.8v.3c-.6.3-.8.8-1.1,1.1s-1.6-.3-2.1,0-1.4,0-1.9,0-.3-.8-.5-1.1l-1.9-.8c0-.3,0-.3-.3-.5s-.2-.8-.5-.8-.5-.3-1.1-.3-2.1.3-2.4,1.3.8,1.9,1.6,1.9h.3c.3,0,.5-.3.8,0l-2.1,3.2a1.3,1.3,0,0,0-1.6,1.3c-.3.3-.8.5-1.1,1.1h-1a26.1,26.1,0,0,0-2.4-2.2,2.9,2.9,0,0,0-1.9-1.5c-2.1-1.6-5.1-.3-6.1,1.8v.3h0c-.6,0-1.1.2-1.1.5v.5a.4.4,0,0,0,0,.6h0v.5c0,.3-.3.5-.3.8l-.2.3c-.6,0-1.1.8-.6,1s0,.6.3.6H203l-.2.2c-1.4-.8-1.9.8-1.1,1.6h-.5c-.6.3-.6.8-.6,1.4s-.5.5-.2.8a1.8,1.8,0,0,0-.6,1,9.3,9.3,0,0,0-2.1,2.7.5.5,0,0,0-.5.5.6.6,0,0,0-.5.6c-1.1-.8-2.2,1-1.4,1.8a4.7,4.7,0,0,0-.2,1.6c-1.1.6-.8,1.9-1.4,2.7a4.6,4.6,0,0,0,1.4,5,3.2,3.2,0,0,0,1.3,2.7c0,.3.3.5.3.8.2,1.9,1.3,3.5,3.1,3.5.3,0,.6-.3.8-.6h0c-.2.6-.8,1.1-.2,1.6s0,.6.2.6a.6.6,0,0,0,.6.5v.8a.8.8,0,0,0,0,1.1v.5s-.3.3-.3.5-.5,0-.5.3h0c-.3,0-.6.3-.8.5a1.2,1.2,0,0,0-.8,2.2,1.1,1.1,0,0,0,.8.7c.2.3.2.6.8.3.5,1.6,1.8,3.5,3.4,3.7a5.7,5.7,0,0,0,1.1,1.6,18.2,18.2,0,0,1,.8,1.9c.3.3.5.8.8,1.1h0a3.5,3.5,0,0,0-.8.5,7.4,7.4,0,0,0,2.4,4.3c0,.5.5,1,.8,1.3s.5.3.8,0l.5.5h.3c1.1-.2.3-1.8-.5-1.6a3,3,0,0,1-.8-.8V280c1.8,1,4.2.8,6.4.5.2.3.8.8,1.3.5h.3a.9.9,0,0,0,1-1c.3-.3.8-.3.8-.8s.8.2,1.1,0l.8.2c-.3,1.1,1,1.6,1.8,1.4h0c.3.2.3.8.6,1s0,.6.2.6a1.8,1.8,0,0,0,.6,1h0l1,2.2a1.1,1.1,0,0,0-.2.8l-.3.2c-.5,0-.8.8-.8,1.3-1.6,1.4-.5,3.5.3,5.1v-.3a7.2,7.2,0,0,1,.8,2.2,6.5,6.5,0,0,0,.2,2.1c-.2.3-.5.5-.2.8a.6.6,0,0,0-.6.5c-.2,0-.5-.2-.8,0s-1.3.3-1.8.6a.9.9,0,0,0,.8,1.3,1.1,1.1,0,0,0,1,.5l.3.3h.8a.3.3,0,0,1,.3.3c0,.5.2,1.3,1,1.3s1.4,0,1.4-.5.8-.3.8-.6,1.3-.2,1.8-.8l.6.6a1.6,1.6,0,0,0,.8,2.1l.5-.3c2.1.6,2.9-3.7,3.2-5l2.1-.3v.3c-.2,1,1.3,2.4,1.9,1,.2.3.2.6.5.8s2.1.6,2.4-.2.8.2,1.3.5,2.4,4.8,3.2,6.1.8,1.9,1.4,1.1a1.4,1.4,0,0,0,2.1-.5c.5,0,.5-.6.5-.8l3-1.1h.5l.8,1.1c-1.9,8.2-3.5,16.7-5.9,24.7a35.1,35.1,0,0,1-5.3,4c-.8.5-1.9.8-2.7,1.3s-.8,1.1-1.3,1.6a2.6,2.6,0,0,0-1.8,1.6,5.7,5.7,0,0,0-1.1,1.1c0,.5-.5,1.3-.5,1.9s0,1.3-.8,1.8a15.7,15.7,0,0,0-4.8-.5,7.5,7.5,0,0,1-2.4.8,7.2,7.2,0,0,1-2.7.5,5.5,5.5,0,0,0-1.3,1.4h-.3v.2h-.3a.7.7,0,0,0-.8.8c-1.3.6-1.8,2.1-2.6,2.9s-1.1,1.1-1.6,1.6-2.7,2.2-3.7,3.2-3.8,1.9-6.2,1.6c-.8-.2-1,.6-1.6.8s-.8-.2-1,0-.6.8-1.1.8a1.7,1.7,0,0,0-1.9-.5.7.7,0,0,1-.5.3v.2c-.5,0-.5,1.1-.5,1.4s-.6,1.6-1.1,2.4a1.2,1.2,0,0,0-.8.2h0c-1.3.6-1.6,1.6-1.3,3s1,2.9,2.4,2.9a2,2,0,0,0,1.8-.3l.3.3h.3c1.8-1.9,2.9-3.5,6.1-2.4.5.3,1.6,1.3,1.9,0s.5,0,.5-.3,1.9,0,2.7.3,1,0,1.3-.5-.8-1.9-1.3-2.7h0V362h.2v-.3h0c.3,0,.3-.3.3-.5h.8c.3.2.3.5.5.8s.8-.3.8-.6h0c.3,0,.5,0,.5-.2h0c.3,0,.3-.3.6-.3a.5.5,0,0,0,.5.5c-.5.6-.3,1.6.5,1.6l.3.3c-1.1.3-.5,1.9.3,2.1a1.2,1.2,0,0,0,0,1.4c-.8,1.3,1.6,2.1,1.3.5h.3a1.2,1.2,0,0,0,.2-.8h.6c.8,1.1,1.8,0,1-.8l.3-.3h0l.3.3h.2a1.5,1.5,0,0,0,.8.5h.3a.5.5,0,0,0,.5-.5l.6-.3c1,.8,1.6-.8.8-1.3h0a1.5,1.5,0,0,0-.6-1.1h0c.3-.2.6-.5.3-1h.8c0,.2.5.2.8.2h.5V362c.8.2,1.1-1.4.3-1.6h0a.3.3,0,0,0,.3-.3c1,.5,1.3-.8,1-1.6h0a.8.8,0,0,0,.8-.3c1.9,1.1,1.1-2.9-.2-1a1,1,0,0,0-.6-.3c.3-.3.8-.3.8-.5a10.6,10.6,0,0,0,1.9-1.1h.5a1,1,0,0,0-.2.5h0a1.2,1.2,0,0,0-.3,1.4,1,1,0,0,0,.3.8c-.3.5-.3,1,.2,1.3s0,1.9,1.1,1.6.5-.3.5-.5h.3l.3.2h.5c-.3,1.6,2.1,1.4,1.3,0v-.2c.3,0,.3-.3.3-.6a1.1,1.1,0,0,0,.2-.8c.6.6,1.1-.5,1.1-1a.8.8,0,0,0,0-1.1h0l.3.3c0,.2,0,.8.2,1a.8.8,0,0,0,.3.8c0,.3-.3.6-.3.8a.6.6,0,0,0-.5.6.8.8,0,0,0-.3,1.3c0,.3,0,.8.3.8l-.3.3v.5c-.8.8-.2,2.4.6,2.9s1-.5,1-1.3h0c.6.3,1.1,0,1.1-.5s.5.5.8.5.8-.5.5-1.1a.8.8,0,0,0,.3-.8,1,1,0,0,1,.3.6c.2.2.8,0,1,.2h0c.6.6,0,1.6.8,1.9h.3c.3,1.1,1.3,2.4,2.1.8s.3-1.9-.8-2.4h0l.3-.3a1.2,1.2,0,0,0-1.1-1.6h0c0-.2-.2-.2-.5-.2s-.3-1.4,0-2.2l.3-.2c.2-.8-.6-1.9-1.4-1.1a2.3,2.3,0,0,1-.8,1.3c-.2,0-.5,0-.5.3s-.5-2.4-1.6-2.1-.3-.8-.5-1.1a.9.9,0,0,1-.6-.3h0v-.2l.3-.6s.3,0,.3-.2.5-.6.5-.8h2.4a.8.8,0,0,0,1.1-1.1.6.6,0,0,0,.5-.5l10.1.8c4.8-6.1,9.9-12.3,14.7-18.7l-.3-3.4c.3,0,.3-.3.3-.6v-.5a1.6,1.6,0,0,0,.5-2.1,3.3,3.3,0,0,0,.5-1.6.6.6,0,0,0,.6-.5c1,0,1.6-1.1,1.8-1.9s1.4.3,1.6-.3v-1.3h.3l1.1-.5.8.2c.2,0,.8-.5.5-.8h.3l.7-1v-.8c1.6.2,1.4-2.2,1.6-3h.3a.7.7,0,0,0,1.3,0,9.7,9.7,0,0,0,2.4-.2l.6-.6a.9.9,0,0,0,.8-.8.9.9,0,0,0,.8-1c.2-.3.5-.6.2-.8a4.2,4.2,0,0,1,.6-1.9c.5,0,.8-.8.8-1.1s-.3-.8-.3-1a1.4,1.4,0,0,0,.5-1.1,1.5,1.5,0,0,0,1.1.3.9.9,0,0,0,.8-.8c1.1,0,1.3-.8.8-1.6s1.1-.5,1.1-1.1h.5a1,1,0,0,0,.3-1.6c.5-.2.5-1.3,0-1.6l1-1.6a44.5,44.5,0,0,0,25.1-8.2c.2-1.4,1-4.3,2.1-5.1s5.3-.8,7.7-.8c.8.6,1.3,1.6,2.1,2.1a4.4,4.4,0,0,0,4.8-2.3,3.9,3.9,0,0,1,.6-3c2.6-1.6,6.1-4.2,9.3-4.8,1.6.8,4,2.2,5.8,2.4s4,.3,4.6,1.9a8.7,8.7,0,0,1-1.4,2.9v.8l.8.8h1.1l.8-.5a20.9,20.9,0,0,1,1.6-2.9c12.2-2.7,11.2-3.5,23.7,1v.3c.5.3,1.3,0,1.8.3a15,15,0,0,0,3,0c5.8,3.4,12.2,6.1,18.3,9,.8.5,1.9,1.3,1.9,2.4s2.4,1.9,3.2,3.2.8.3,1.3.5,1.9,1.4,3,1.9,1,1.1,1.6.8a1.2,1.2,0,0,0,.2-.5,3.5,3.5,0,0,0,1.4,1.3c.2.3.5,1.1,1,1.1s1.4.5,1.6,0l.3-.3.2.5c-.2.3-.7.6-.7,1.1a3.9,3.9,0,0,0,.2,1.6h.3c0,.2,0,.5.2.5s.8,1.6,1.9,1.6c5.3,9.6,12,18.6,20.8,25,.5.8,1.8,1.6,2.1,2.7-2.4,2.7,1.6,3.5,3.5,4a17.7,17.7,0,0,0,.5-3.2h0a.7.7,0,0,0,.3.5c-.3.8,1,1.6,1.3.6h.3a1.3,1.3,0,0,0,.2.8,1,1,0,0,0,.6,1.6.2.2,0,0,0,.2.2v2.4c-.5.8.3,1.9,1.1,1.4s.3.5.3.8.2,1.3,1,1.8.6.8,1.1.8a12.8,12.8,0,0,1-.5,2.7c0,2.1,1.8,4.2,2.6,6.4,7.7-2.4,16-4.3,24-6.7,0,0-.3-.3-.3-.5l-.2-.3V351C483.1,346.5,482.3,342.3,483.1,339.3Z"/>
        <path class="cls-1" d="M343.9,290.3c-.3-.2-.3-1-.8-1,.2-1.6-2.2-1.4-1.4.2v.8c-1.3,1.6.8,3.2,1.9,1.4S344.1,290.6,343.9,290.3Z"/>
        <path class="cls-1" d="M297,299.7c0,.2,0,.8.3.8s1.1,1.3,1.3.5a.8.8,0,0,0,.8-.3c.5.6,1.3.8,1.6,0s.3-1.6-.3-1.8-.8-.6-1-.3-1.1-.3-1.1.3h0c-.2-.6-.8-.3-1.3,0s-.3.5,0,.8S297,299.7,297,299.7Z"/>
        <path class="cls-1" d="M303.9,310.8a1.6,1.6,0,0,0-.5-1c1.1-.8-.5-2.4-1.1-1.1-.2-.3-.8-.5-1-.8s-.8-.5-1.4-.5h0c1.4,0,.8-1.9-.2-1.9s-.8-2.6-1.6-1.8c0-1.4-1.6-1.4-1.6,0a3.4,3.4,0,0,0-1.1,2.4.9.9,0,0,0-.8,1,21.6,21.6,0,0,0-2.1,3.5,1.1,1.1,0,0,0-.8,1c-.5,0-.8.6-.8,1.1a1.4,1.4,0,0,0-.3,1.9,8.4,8.4,0,0,0-2.4,1.6c-.5-.3-1.3-.3-1,.5a26.1,26.1,0,0,1-2.2,2.7h-.2c-.3,0-.3.2-.6.2h-.5a1.8,1.8,0,0,0-.5,1.1c-.3,0-.6.3-.8.3a.8.8,0,0,0-.3.8,1.4,1.4,0,0,0-.8,1.3,1.9,1.9,0,0,0-.5,1.3c-.3.3-.8.6-.8,1.1v.3c-.6.8.2,1.6.8,1.8h0l.2.3h.6a1.5,1.5,0,0,0,.5.8c0,.5.5,2.4,0,2.6s1.6,1.1,2.1,1.9,1.1,2.1,1.6,2.9a.6.6,0,0,0,0,.8c-.2,0-.5.3-.8.6a1.6,1.6,0,0,0-2.4.2c-2.9,1.9-1.3,6.4,1.4,2.7a1,1,0,0,0,1.3,0,1.2,1.2,0,0,0,1.6,0,3,3,0,0,0,1.6.3h.3c.2,0,.2-.3.5-.3s1.1-2.9-.3-2.1h-.5c0-.3,0-.3-.3-.6s.8-.2.8-.5.3,0,.6-.3.8-1,.5-1.3,1.1-.5,1.1-.8.5-.3.8-.3.5-1,.2-1.3v-.3h0c.3.3.6.6.8.3s1.6-.3,1.9-1.1v-.5c1.3-.3,3.5-1.3,1.9-2.9a3.2,3.2,0,0,0,1.6-.3c.2-.5.8-.8.8-1.6l.7-.8h0c0,2.1,3.2,0,1.4-1v-.6c.2-.8,1.3-1.3,1-2.1a1.2,1.2,0,0,0-.2-1.3c-.3-1.1-.3-2.7-1.6-3a1.7,1.7,0,0,0-.3-1.8h-.3a1.6,1.6,0,0,0-1.3-1.1l.3-.3h.3c.5.3.7,0,1-.2s1.9-.6,2.1-1.4c.6,1.6,2.4,0,1.9-1A7,7,0,0,1,303.9,310.8Z"/>
        <path class="cls-1" d="M230.7,212.6a.9.9,0,0,0-1.8.5C229.4,214.5,230.7,213.9,230.7,212.6Z"/>
        <path class="cls-1" d="M225.9,221.1c.6.8,1.9,0,1.4-.8S225.4,220.1,225.9,221.1Z"/>
        <path class="cls-1" d="M179.6,181.2a1.1,1.1,0,0,0-.5-2.1c0,.2-.3,1.6-.3,1.8A1.8,1.8,0,0,0,179.6,181.2Z"/>
        <path class="cls-1" d="M180.1,181.7a.9.9,0,0,0,1.1,1.4C181.7,182.3,180.7,181.2,180.1,181.7Z"/>
        <path class="cls-1" d="M183.3,193.4c2.4,2.2,2.4-2.9,0-1Z"/>
        <path class="cls-1" d="M276.8,348.9l-.3-.5c-1-.8-1.6,0-2.1.8s-.8,1.3-.3,2.1a5.9,5.9,0,0,0,2.2.5l.5-.5A3.3,3.3,0,0,1,276.8,348.9Z"/>
        <path class="cls-1" d="M238.7,301.8v.3l.3.2h0c1.6.3,1.3-1.8,0-2.1A1.5,1.5,0,0,0,238.7,301.8Z"/>
        <path class="cls-1" d="M235,299.4c0,.5.5,1.3,1.1,1.1h0c-.8,1.3,1.3,2.1,1.3.5a1.3,1.3,0,0,0,.5-1.1.9.9,0,0,0-.5-1.6c-.3-.2-.5-.5-.8-.5s-1.6,0-1.6.8S235.3,299.4,235,299.4Z"/>
        <path class="cls-1" d="M267.7,345.5a1.1,1.1,0,0,0-.2-.8c0-.3-.3-.6-.8-.8h0c.5-.6,0-1.4-.3-1.9s-1.6-.3-1.3.5-.3,1.9.5,2.2v.5a.8.8,0,0,0,0,1.1C265.1,347.9,268,347.1,267.7,345.5Z"/>
        <path class="cls-1" d="M155.7,209.9a4,4,0,0,0,2.6,3.5,1,1,0,0,0,1.6,0c.5.3,1.1-.3,1.3-.8,1.9-.5,4.6,1.6,5.4,3.2s.2,1.3.8,1.3.2.3.2.3.6.3.6.3,1.3,1.3,1.3,1.8v1.1a2.7,2.7,0,0,0,1.9,1.3.5.5,0,0,0,.5-.5h.5c.6-.3.3-1.1.3-1.6a2,2,0,0,0,1.3-.8,2.7,2.7,0,0,1,2.4.8c-.8,1.1.8,1.9,1.6,1.1l.3-.6c0-.2-.3-.5-.3-.8,3.7-4-2.1-4-4.8-5.3-.5-1.6-2.1-1.3-3.2-2.4-.8-4.3-3.4-5.3-6.9-3.2a15.7,15.7,0,0,1-3.7-2.4,1.4,1.4,0,0,0-1.1-2.1h-.5a.6.6,0,0,0-.6.5c.3.5-.2,1.1-.2,1.6s-.6.5-.6.8h0c-.2.5-.2,1.3-.5,2.1A3.2,3.2,0,0,0,155.7,209.9Z"/>
        <path class="cls-1" d="M183.1,267.7c0,.3,0,.3.2.5a.8.8,0,0,0,.3.8c-.3.6,0,1.6.8,1.6l.3.3.5.3c1.1,1.3,2.4,2.1,3.5,3.2a2.5,2.5,0,0,0,2.4,1c.2.3.5.6.8.6.8,2.1,2.6,1.8,3.7,0,.3,0,.5-.3.8-.6a.7.7,0,0,1,.5.3c.3-.3.8,0,1.3-.3a8,8,0,0,0,.8-1.6l-.2-.2c0-.3-.3-.8-.6-.8a1.2,1.2,0,0,0-.2-.6V272a1.7,1.7,0,0,0,0-1.4v-.5a1.1,1.1,0,0,0,0-1.1l.2-.2v-.3a.9.9,0,0,0-.5-1.3c.3-.6-.8-1.3-1.3-.8s-1.1-.3-1.1,0,0-.3-.2-.3-.6-1.6-1.1-2.1-1.1.3-1.1.8a.6.6,0,0,0-.5.5l-.3-.2a.8.8,0,0,0-1.3-.3c-.3,0-.5.3-.8.5a.9.9,0,0,0-1.1.3.6.6,0,0,0-.5.5c-.3,0-.3.3-.5.6h-.6c-.2-.3-.5-.6-.8-.6h-.2a1.3,1.3,0,0,0-.8-.2c-.3-.3-.6-.3-.8,0h-1.1c-1.1.7-1.1,1.3-.5,1.8Z"/>
        <path class="cls-1" d="M244.6,364.1c-.6-.5-.8-1.6-1.6-1.1-1.6-1.3-3.2.8-1.4,2.2a1.5,1.5,0,0,0,1.1-.3c0,.8.5,1.1,1.1,1.3A2.1,2.1,0,0,0,244.6,364.1Z"/>
        <path class="cls-1" d="M231.3,356.4c-1.9-1.4-1.6,2.6,0,1A.9.9,0,0,0,231.3,356.4Z"/>
        <path class="cls-1" d="M212.9,350c.5,3.4,3.5,0,1.1-1.6-.8-.3-1.4.5-.8,1A.9.9,0,0,0,212.9,350Z"/>
        <path class="cls-1" d="M141.8,251.7c0,.3.3.3.3.6a.8.8,0,0,0-.3.8c-.8,1,1.1,1.6,1.3,2.4a1.1,1.1,0,0,0,.8,1.3c.6.3,1.1,1.6,1.9,1.3s.5.3.8,0h.3a1,1,0,0,0,.5.8h.3c.5.3,1-.2,1.3-.5a4.1,4.1,0,0,0-2.4-2.7h-.3a5.4,5.4,0,0,1-2.1-2.6,1.1,1.1,0,0,0-.8-1.6c.3-1.4-1.3-2.7-1.9-1.1l-.2.3A2.9,2.9,0,0,0,141.8,251.7Z"/>
        <path class="cls-1" d="M216.4,361.4a.7.7,0,0,0,1.3-.2C217.7,359.6,215.8,360.1,216.4,361.4Z"/>
        <path class="cls-1" d="M144.7,258.1a.8.8,0,0,0-.5-.2,1.7,1.7,0,0,0-1.3.5c-.6,1.3,1.3,1.9,1.8.5S145,258.4,144.7,258.1Z"/>
        <path class="cls-1" d="M220.9,368.4a3.2,3.2,0,0,0-1.4-1.4h-.2c0-.2-.6-.5-.8-.5s-.6-.5-.8-.5h0l-.3-.3h0c0-.3-.2-.3-.5-.3h0c-.8-.8-2.1-.8-1.6.6h0c0,.2-.3.5-.3.8s-.5,1.3,0,1.6h.6a.5.5,0,0,0,.5.5c0,.2.3.2.3.5a1,1,0,0,0,1,1.1h.3c.5.5.8-.3,1.3-.6s.8,0,1.1-.2A1,1,0,0,0,220.9,368.4Z"/>
        <path class="cls-1" d="M160.4,312.7c1.1,0,1.4-1.6,0-1.9S159.4,312.4,160.4,312.7Z"/>
        <path class="cls-1" d="M159.4,311.6h0c1.6-1-.3-2.9-1.4-1.6s-.8-.2-1-.2-.6,0-.6.2h0a1.9,1.9,0,0,0-.5,1.1v.3a2.4,2.4,0,0,0,.5,1h0c-1,.3-.5,2.2.6,1.9s.5-.5.5-.8.8-.5,1.3-.8h0A2,2,0,0,0,159.4,311.6Z"/>
        <path class="cls-1" d="M200.4,367.8a1.4,1.4,0,0,0-2.4.3h-.6a1.2,1.2,0,0,0-.2.5,2.7,2.7,0,0,0-1.9.3h-.5a1,1,0,0,0,0-1.9c0-.2-.3-.5-.3-.8a1.1,1.1,0,0,0-1.6-1c-.8-.8-1.6.8-1.6,1.3h-.2a1.7,1.7,0,0,0-2.4-.5v.2a2.3,2.3,0,0,0-1.1,1.1v.3c-.3.2,0,.7,0,1.3l.3.2v.3c-.3-.3-.8-.3-.8,0l-.3-.3a6.9,6.9,0,0,0-4.5-1c-.3,0-.8-.3-1.1.2h-.5c-.3,0-.8.3-.8.6a.8.8,0,0,0-.8.8c-.8.2-.6,1-.6,1.6a2.4,2.4,0,0,1,.8,1.8,1.3,1.3,0,0,0-.2.6,1.1,1.1,0,0,0-.8,1.6l-.6.2c-.5-.2-1,0-1,.6h-.3c-.2-.3-.8,0-1,.2h-.3c-.3,0-.5,0-.5.3s-.8,0-.8.3v-.3c1-1.1.5-2.4-.8-2.4s-.8-1.1-1.4-.8-.5-.3-1,0h-.3c-.3,0-.5.3-.8.3a.7.7,0,0,0-.3.5h-.5s-.3.3-.5.3v.2a1.3,1.3,0,0,0-.6,1.6h0c-.2.6-1.8.3-1.8,1.4h-.3c-.5.5-1.6,1-1.6,2.1s0,.8,0,1.1l-.3.2h0c-.5,0-.8.8-.8,1.4s-.8,0-1,.2a1.3,1.3,0,0,0-.8-.2c-.8.2-.8,1.3-.3,1.8-1.1.3-1.9,1.9-.5,2.2s.5-.3.8-.3l.5-.3h0a.5.5,0,0,0,.8-.2,11474470433443.5,11474470433443.5,0,0,1,1.6-.6c.5.3,1.1.3,1.3-.2s.8-.3.6-.6h0v-.2h.2c0,.2.3.5.6.8h.2c.8-.3,1.4-.8,1.1-1.6s.3-.6,0-.8.5-.6.8-.8h0a.9.9,0,0,0,.8-.3c0-.3.3-.5.3-.8s.2,0,.2-.3a1.1,1.1,0,0,0,.8-.2c0,.5,1.1.8,1.4.8s3.4,1.6,4,0h0l.2-.3c.5.3,1.3,0,1.3-.5l1.1-.6h1.1c.2.3.5.3.8,0a.8.8,0,0,0,.8.3h.2a.3.3,0,0,0,.3-.3c.5.3,1.3-.5,1.6-.8h0c.8-.2,1.3-1.3,1.9-1.8s.2,0,.2-.3a1,1,0,0,0,.6-.3.8.8,0,0,1,.5-.2v-.3c.3,0,.5-.3.8-.5s.3-.3.3-.6l.2-.2h.3c.8-.6.8-1.6.5-2.7a6,6,0,0,0,.8-.8h.6l.2-.5a.8.8,0,0,0,.8-.3h.3c0,.3.3.8.3,1.1l.2.2a2,2,0,0,0,1.4-.5h.2c0,.3.6.5.6.8h.2c.3-.3.6-.3.8-.5a3.6,3.6,0,0,0,2.7,0,1.3,1.3,0,0,0,.2-.6h.3c0-.2.3-.5.3-.8h.2l.3-.2C200.4,369.4,200.4,368.4,200.4,367.8Z"/>
        <path class="cls-1" d="M160.4,322a.6.6,0,0,0,.6.6,1.4,1.4,0,0,0,1.8,1c.8-.5,2.2-1.8.6-2.6s-1.6-.3-2.2-.8S159.9,321.2,160.4,322Z"/>
        <path class="cls-1" d="M172.2,367.3h0a1,1,0,0,0-.8-.3c-.8.3-.6,1.6.2,2.1S172.7,367.8,172.2,367.3Z"/>
        <path class="cls-1" d="M157.5,380.3a2.4,2.4,0,0,0-.5-1c-.6-2.2-2.9-.3-1.6,1-.3.3-.3.8,0,1.4h-.8a1.3,1.3,0,1,0-2.1,1,.8.8,0,0,0-.8.8c-.6.3-.3,1.1-.3,1.6s2.4.8,2.4-.5.8.3,1.1-.3.2,0,.2.3,1.6,1.3,1.9,0l.2-.3v-.5c0-.3.3-.8,0-1.1h0v-.5c0-.3.3-.3.3-.5Z"/>
        <path class="cls-1" d="M149,383.8c-.5-.5-1.3-1.1-1.9-.5a1.5,1.5,0,0,0-.8.5c-1,.3-1.6,2.4-.5,2.9s1.1.3,1.6-.2S149.5,384.9,149,383.8Z"/>
        <path class="cls-1" d="M143.9,384.3c-.5-.5-1.3-.5-1.6.6-3.4.2.3,5.8,1.1,1.6.5,0,1.1-.8,1.1-1.4S144.2,384.3,143.9,384.3Z"/>
        <path class="cls-1" d="M133.6,386.2c0-.8-1.1-1.6-1.6-1.9h-.6c-.5.3-1,.3-1.6.6s-.8.8-.8,1.6,0,.8.3,1h.3c0,.3.5.3.8.3s.8.3.8,0h.5c.3.3.5,0,.8-.3s.5,0,.5-.2h.3c.3,0,.3-.6.3-1.1Z"/>
        <path class="cls-1" d="M127.7,388.6c-.3-.3-.3-.5-.8-.5h-.3a7.5,7.5,0,0,0-2.4-.8.8.8,0,0,0-.8-.3,1,1,0,0,0-.8-.5h-.2c0-.3-.3-.8-.6-.8h-.5c-1.1,0-2.1-.6-3.2-.6h-.3c.3-.8,1.4-1.6,1.1-2.6a1,1,0,0,0-.5-1.4c0-.2-.3-.5-.6-.8a1.2,1.2,0,0,0-1.6-.5c-.2-.3-.8-.3-1,.3h-.3c-.2.2-.2.5-.5.5s-1.3.8-1.1,1.6-.5.3-.8.5-1,0-1.3.6h-.3l-.2.2h0l-.3-.2h-.3a1,1,0,0,0-1.3,0,.7.7,0,0,1-.5-.3c-.3,0-.3.3-.6.3a.7.7,0,0,0-1,0c-.3-.3-.6-.3-.8,0h0a1,1,0,0,0-.8.5c-.3-.5-.8-.3-1.4,0a.7.7,0,0,0-.5-.3h-.5c0-.2-.3-.2-.6-.2a.6.6,0,0,0-.5-.6h0c0-.2,0-.8-.3-1s-.5-.3-.5,0,0-.6-.3-.6a.9.9,0,0,0-.8-.8h0c-.2-.2-.8-.2-1-.2a2,2,0,0,0-.8,2.4v.8h0v.5h-.3s-.3-.3-.5-.3h-.3a7.5,7.5,0,0,0-1.1-.2v-.8c.6-1.1-.8-2.4-1.8-1.6-1.6-.8-1.6.5-2.4,1.6h-.3l-.2.2c.8-2.4-2.7-4.2-2.7-.8H88l-.2.3h-.6c-.2-.3-.8-.3-1,.3h-.8v-.3l.2-.3v-.2c.6-.6,0-1.4-.8-1.4H84a.8.8,0,0,0-.5-.2v-.3c0-.3,0-.5-.3-.5a1.1,1.1,0,0,0-1-1.1h0c-.3,0-.3-.3-.6,0s-.8-.3-1-.3c-2.2.3-.8,2.4,0,3.5-1.1.3-1.1,2.1,0,2.7a.5.5,0,0,0,.5.5h.3c.5,1.3,1.8,1.1,1.8-.3s.3,0,.3-.2l.3.2c0,.8,1.3,1.4,1.8.6h0c.6.5.8,0,1.4-.3s.2.8.5.8,1.1,0,1.6.3,1.1-1.4,1.3-2.4a1,1,0,0,0,.6-.3h0c-.3.3-.6,1.1,0,1.3h0a1.7,1.7,0,0,0-1.1,1.4h0c-.5,1,.8,2.9,1.6,1.6.3.5.8.2,1.1.2h0a1.3,1.3,0,0,0,.8-.2h0a1.2,1.2,0,0,0,1-.6h0l.8-.2h.5a1.4,1.4,0,0,0,1.9-.3c.3.3.8.5,1.1.3h0s.2,0,.2-.3,1.1.3,1.4-.5a.8.8,0,0,0,.5.2c.3,0,.5-.5.5-1s.8.2,1.1,0h0c.3,0,.3,0,.5-.3h0c.3.3.6.3,1.1.3l.3-.3h.5a.5.5,0,0,0,.8-.3.9.9,0,0,0,.8.3l1.6.8h.3c.5,0,1-.3,1.6-.3v.3a.7.7,0,0,0,.5.3c.3.5.8.5,1.3.5h.6a6,6,0,0,0,.8.8h.2c.3.3.6,0,.8,0s.6-.5.6-.8h.2a.9.9,0,0,0,.8.3c.3,0,.5.2.5,0h.8v.2h0c.3.6,1.4,1.4,1.9,1.1h0a.3.3,0,0,1,.3.3h.2l.6.2h.2c0,.3.6.6.8.6h.8a1.1,1.1,0,0,0,1.1,0s.5.2.5,0,.3.7.6,1,1-.5.8-1h.8c.2.2,1,.2,1-.3h0C127.7,389.6,128,389.1,127.7,388.6Z"/>
        <path class="cls-1" d="M107.5,382.5c.8,1.3,2.1-.8.8-1.4a.8.8,0,0,0-.8.3C107.2,381.4,107.2,381.9,107.5,382.5Z"/>
        <path class="cls-1" d="M103.7,381.9c.6,1.6,1.9.8,1.6-.5S103.5,380.9,103.7,381.9Z"/>
        <path class="cls-1" d="M86.4,381.7c1.1,1.8,3-.8.8-1.6A1,1,0,0,0,86.4,381.7Z"/>
        <path class="cls-1" d="M73.7,379.8c.8,1.6,2.1,2.1,2.6,0s-.5-1.9-1.3-1.9A1.6,1.6,0,0,0,73.7,379.8Z"/>
        <path class="cls-1" d="M79.2,385.7a1.1,1.1,0,0,0-.8-.8c-1-.8-1.6,1.6-.2,1.6S79.8,386.5,79.2,385.7Z"/>
        <path class="cls-1" d="M77.6,384.3c.3-.5,0-1.3-.5-1.3s-.3-.8-.8-.5a.9.9,0,0,0-1.6.2h-.2c-.3-.8-1.1-.5-1.6,0-.8-3.2-3.2,1.1-.8,1.1h0c.2,0,.5-.3.8-.5s.5,1.6,1.3,1.6.8,0,1,0h.3C76,385.1,77.1,384.6,77.6,384.3Z"/>
        <path class="cls-1" d="M73.4,385.4c-.5-1.3-1.3-1.3-2.1-.3l-.3.6c-1.3-.6-1.6,1.6-1.1,2.6a1.5,1.5,0,0,0,1.1.3c.3-.3.8-.5,1.1-1.1h.2l.3-.2C73.7,387.3,73.7,386.2,73.4,385.4Z"/>
        <path class="cls-1" d="M63.8,372.1h0A3.5,3.5,0,0,0,63,371a1.1,1.1,0,0,0-1.9-.3.9.9,0,0,0-1,.8c-.8,1.1,1,4,2.4,2.7C63.5,374.5,64.3,372.9,63.8,372.1Z"/>
        <path class="cls-1" d="M48.4,367.8a1.8,1.8,0,0,0,1,.6c.3.5.6,1.3,1.4,1.3.5,1.8,2.4,1.8,2.6,0s-1-2.4-2.1-1.9a2.7,2.7,0,0,0-1.1-.5c.3-1.6-2.4-2.4-2.1-.5C48.1,367,48.1,367.6,48.4,367.8Z"/>
        <path class="cls-1" d="M59.3,380.9a.6.6,0,0,0-.6-.6.8.8,0,0,0-.8-.8h-.2c0-.2-.3-.2-.6-.2s-.2-.8-.5-1.1h0c-.3-.3-.3-1.1-.5-1.3a1.1,1.1,0,0,0-.6-1.4h-.2a3.3,3.3,0,0,0-1.1-1H54l-.3-.3h-.3c-1-1.3-2.4-.5-1.8,1.1h0a4,4,0,0,0,1.3,1.8.8.8,0,0,0,.8.8H54a6.2,6.2,0,0,0,1.3,2.7c.2.8.5,1.9,1.6,1.6s1,.5,1.3.3l.5.2A1.2,1.2,0,0,0,59.3,380.9Z"/>
        <path class="cls-1" d="M46.8,366.5a1.5,1.5,0,0,0-.8-.5l-.3-.3c2.4-1.3-.5-5.1-1.9-2.1h0c-.2.2-.5.5-.5.8s-1.3-.3-1.6.5c-2.1,0-1.6,1.9-.8,2.9h0c.3,1.1,1.9.8,1.6-.2l.3-.6c.2.3.5.6.8.3h0c.2.3.5.3.8,0s.5.3.8,0h.5C46.2,368.4,47.3,367.3,46.8,366.5Z"/>
        <path class="cls-1" d="M51.6,372.1c-.3-.8-.6-2.2-1.6-2.4s-2.2.8-1.1,1.6a1.1,1.1,0,0,0,1.1,1c.2.6.8.6,1.3.6S51.6,372.3,51.6,372.1Z"/>
        <path class="cls-1" d="M48.6,368.9c-.5-1.6-2.1-.3-1,.8S48.6,369.4,48.6,368.9Z"/>
        <path class="cls-1" d="M42.5,363.3c.5,1.1,1.9,0,1.1-.8S42,362.5,42.5,363.3Z"/>
        <path class="cls-1" d="M32.7,354.2a.6.6,0,0,0-.6-.5c0-.3-.2-.3-.2-.5h-.3C28.1,352.1,32.9,359,32.7,354.2Z"/>
        <path class="cls-1" d="M18.8,342.3c-.3-.3-.8-.8-1.3-.6a.6.6,0,0,0-.6-.5h-.2c-1.1-1.6-2.4-.3-1.4,1.1a15,15,0,0,0,2.4,2.1C18.8,344.1,19.3,342.8,18.8,342.3Z"/>
        <path class="cls-1" d="M9.8,339.3h.8a7.6,7.6,0,0,0,.8,1.1c.5.3,1-.5,1-1.1s.6.6,1.1.6.8-1.1.2-1.6a1.8,1.8,0,0,0-.5-1.1H13c.2-.8,0-1.9-.8-1.9a2.4,2.4,0,0,0-2.2-1.6c-.2-.2-.5-.5-.8-.5s-2.6-.8-3.7-.3-1.1,1.9,0,1.9.8,2.9,2.1,3.2.8,1.3,1.9.8l.3-.3C9.2,339.1,9.5,339.3,9.8,339.3Z"/>
        <path class="cls-1" d="M14.8,344.7c0-.6-.8-.6-1.3-.8h-.3a.7.7,0,0,0-1,0c-.3,0-.6,0-.6.2l-.2-.2c-.3,0-.6,0-.6.2-2.1.3-.8,3,.8,3s.6,1,1.1,1h0c.5.5,1,0,1.3-.2s.3-1.1,0-1.6S15.3,345.2,14.8,344.7Z"/>
      </g>
      <g id="_19" data-name="19" class="cls-2">
        <path class="cls-3" d="M499.6,365c-3.2-2.4-7-3.2-6.4-9.6-1.1-4-4.4-8.5-1.7-12.4-3.2-8.5-7.8.7-8.3-10.4-.3-5.3-4.6,2.9-4.1-1.3-6.5-2.2-4.6-3.7-8.1-10.4-1.3.6-3.5-3.2-2.7.3-3.8,2.1-8.3,1-9.1-3.7-2.5-.8-3-17.3-9-9.6-2.4-3.4,1.4-12.5-4.5-9.3-.9,2.7-5.7-4.5-4.4-.2-3.5-1.6,9.2-11.7-.2-16.2,0,4-1.4-3.5-.6-4.3-2.9-2.1-4.8-2.6-5.1-4.5-3.8-.3-2.2,3.5-7.6,1.1-2.7-1.4-5.9,1.3-6.4-5.1,2.4-2.1-4.4-7.7-5.4-6.6,1.6,5-4.6-.3-4.4,2.9-1.8,1.3,9.5,20.5,1.1,12.5-4-3.5-7,3.2-7.3-5.6-5.9,1.1,3-6.9-5.9-9.5,6.2,14.3-21.6,9.2-15.1.5-1.4-3.5-2.4-5.8.8-5.3-.8-4.3-4.3-5.6-4.6-9.6,1.9-4-2.2-7.1,1.6-9.5-3.5-3.5-4.6-4.3-2.7-6.9-1.1-3.5,4.9-1.4,3.3-6.4,4.8,1.9,7.5-2.4,1.9-5.3-3.3-1.1-8.1,2.1-7.1-3.2,1.4.3.8-1.3,0-1.3,1.7-1.6,1.7-3.5,3.8-3.5,1.6-2.6-5.7-6.1-8.6-9.3-6.8-5.3-13.8-19.3-9.5-27,.6-4.5-4-12.5-1.1-14.9,7.6,1.1,6.5-8.8,12.7-11.1,1.9-5.4-1.3-6.9-2.9-10.7s-1.7-7.9-7.3-6.6c-4.3-2.4-7.9-6.4-13.5-3.7-1.6,1.3-7.6-1.3-6.5,1.6-8.1-1.1-16.5-9-24.3-3.2-7.5-.8-17.8-8-23.7-5.8-8.7-4.8-17.3,2.6-23-6.4a67.7,67.7,0,0,1-25.9-9.8c-11.3,9.5-15.4,1.6-27.8,11.1-14.3-4.8-9.4,15.4-20,16.7-19.1-3.1-6.5-.2-16.2,5.3,3.5,4.3,10.3,7.7,14.3,12.8,7.6,5.8,11.1,19.4-1.9,17.8-9.1,2.4-31.5,9.3-12.1,15.9.3,9.3,4.3,14.9,13.2,17.5,6.2-.3,11.6-.3,16.2,5.1,9.7-1.9,17.8,5.8,12.4,13.2-3.5,4-12.7-8.7-10.8-.5,4.4,1.3-1.3,3.2-1.3,4.8-9.7-1.1-11.6-10.4-16.2,6.3-4.3,5.9-12.2,13.6-4.6,21.5s3.8,8.5,4.1,16c.2,4.5,4.8,2.6,6.2,5.3s1.9,6.3,4.6,8.5c4.3,1.6-1.4-3.7,5.1-.8,5.1-1.4,8.9-2.7,10.8,4.2.2,3.5-2.7,6.9,1.3,11.2-1.6,4.5-3.5,7.4,3.3,7.1,2.9-3.2,1.9,2.2,4.8,1.6s1.4-4,2.7-5.3,2.5,2.1.6,1.1c-1.4,1.3,1.3,5.8,2.1,4s-.8-4.3,2.5-1.9c6.4-2.1,4.5,13,13.4,4.8,17.1,13.2-10.7,32.1-17.8,39.5-8.6-1.8-14,5.9-18.9,10.9-5.9,2.9-21.3,3.5-14,13.3,3.8,1.6,4.1-1.9,6.2-2.9,3.5,1.3,5.7.2,9.2,1,.3-4.8-2.4-4,3.5-4.5-.5,4.8,3.8,8.8,4.9,5.1,1-1.1,6.2.5,2.7-3.5,2.4-1.6,2.9-1.9,3.7-4.8,1.7,1.1,1.4,2.9,1.7-1.3s.5,4.5,3.7,4.2c6.2-3.9.6-2.1,3.5,5.1,3-5.9,11.4,4.8,8.4-2.1-.3-6.9-9.7-5.9-6.7-10.1,4.5,1.8,3.7-3.5,7.8-3.7,1.3,3.4,3.8-2.2,5.4-3.2-.3-2.1,4.3-.6,1.9-4.5-.6-1.6,5.6,4.2,2.7-.6s12.7.6,3.5-5c8.6-2.4,4-5.6,10-13.3,2.7-.8,5.4-3.7,6.7-7.4,5.4,1.6,7-4.5,7.6-8.8,4.6-.2,2.9-6.6,8.6-7.4,1.6.3,1.1,3.2,4.6,2.9,3.5-2.4-1.9-3.2-2.4-4,4-1.3,8.1.8,10.8-2.6,3.8-.8,4-2.1,5.9-6.4,1.6.3,3.2,4.3,3.5.5.3-11.4,10.3-1.3,14.3-3.7,4.1,0,.8-3.7,2.2-5.5,3.8-.3,5.7-4.8,10.8-3.5,6.7,4.2,10,.3,9.7,9.8,5.7-9.3,19.7-5.8,29.2-1,14.8,3.1,25.3,14,36.9,22,8.7,13,19.2,25.2,30,37.1-3.8-.2,1.3,2.7,3,2.2.5-3.2,3.2.8,3.5,2.4,3.2,4.5,11.6,17.7,18.1,14.3,7.5-1.3,14.5-6.9,20.7,2.4C500.4,375.6,499.6,362.6,499.6,365Z"/>
        <path class="cls-3" d="M305.8,316.7c-5.4-6.9-6.7-11.4-12.1,1.3-2.7,6.6-9.5,7.2-11.1,14.6,3.5,2.7,3.8,7.2,6.8,10.1.2,2.6-5.2.5-4.6,5,13.2,1.4,5.6-1.3,10.8-7.9,5.6-3.7,13.7-8.8,6.5-18.3C299.9,319.6,309.6,321.2,305.8,316.7Z"/>
        <path class="cls-3" d="M202.5,372.9c-4.9,3.5-3.8-4.2-10.3-1.8-4.3,7.2-10.8-3.7-11.1,10.3-4.6,2.2-2.7-2.1-7.3-2.9-5.1,1.1-5.4,8.2-10.2,9.3-3,7.7,8.1,1.6,9.7-1.6,4.3-.5,16.2.5,19.4-7.4C190.3,372.9,208.1,381.2,202.5,372.9Z"/>
        <path class="cls-3" d="M130.4,392.6c-12.2-1.9-8.7-12.2-14.3-8.2-1.4,3.7-5.7,1.8-9.2,2.9s-7.6-9-7.8-.6c-2.5-1.5-3.8-5.5-6.2-1.3-1.4-5.6-2.7,0-4.6-.8s4-1-.3-2.6c-2.2,3.2-3.8-2.4-6.5-1.9-4.3,9.3,7,6.1,9.7,9.6s11.9-1.4,16.2-.8C114.2,388.6,129,398.2,130.4,392.6Zm-38.1-4.8c-.5.3,0-1.1-.2-1.6S92.3,387.3,92.3,387.8Z"/>
        <path class="cls-3" d="M156,210.2c8.1,6.4,3.3,10.4,13,7.2.3,5.1,4.8-3.7,1.6-3.7-2.4-2.1-9.2-2.4-8.4-6.9-4-4.3-9.7-.5-13.5-6.6C145.2,208.6,149.5,209.4,156,210.2Z"/>
        <path class="cls-3" d="M187.6,265.2c-15.4,1.6-4.9,7.9,3,13.3.8-2.7,3.2-.6,4.8-2.7C195.2,270,192.2,264.1,187.6,265.2Z"/>
        <path class="cls-3" d="M7.6,337.6c6.2-.8-1.1-8.5-5.7-8.7C-4,331,5.7,336.1,7.6,337.6Z"/>
        <path class="cls-3" d="M160.6,385.2c-1.3-3-6.7.7-6.2,4.7C158.7,390.7,161.4,389.9,160.6,385.2Z"/>
        <path class="cls-3" d="M59.1,380.9c-2.7-1.6-3.5-6.9-7.5-7.4C49.9,376.7,61.8,388.1,59.1,380.9Z"/>
        <path class="cls-3" d="M142,253.5c-3-.3-3.2-4-4.3-5.8C129,247.7,148.5,264.1,142,253.5Z"/>
        <path class="cls-3" d="M45.6,366c.3-7.9-9.7-1.6-4.6,2.4C41.6,365.5,47.5,369.8,45.6,366Z"/>
        <path class="cls-3" d="M224.3,374c-1.6-.8-3-2.1-4.8-2.6C214.6,376.1,227,379.8,224.3,374Z"/>
        <path class="cls-3" d="M11.6,341.6c-1.3-.8-5.4-1.3-5.4,1.1C8.9,346.1,12.2,346.1,11.6,341.6Z"/>
        <path class="cls-3" d="M154.7,314.8c1.1,1.1,4.8-1.3,5.4-1.8C157.4,309.5,153.9,310.8,154.7,314.8Z"/>
        <path class="cls-3" d="M48.3,368.2c1.6.8,5.4,5,4.9.5C51.8,367.1,45.1,363.1,48.3,368.2Z"/>
        <path class="cls-3" d="M78.8,385.2c-1.6-1.9-4.6-2.2-6.5-2.2C71.3,385.2,79.1,388.3,78.8,385.2Z"/>
        <path class="cls-3" d="M136.3,390.2c-1.3-3.2-5.4-1.6-4.3,1.3S136.9,392.3,136.3,390.2Z"/>
        <path class="cls-3" d="M62.6,371.4c-2.9-1.6-3.7,2.6-1.3,3.9S64.5,372.9,62.6,371.4Z"/>
        <path class="cls-3" d="M151.7,388.1c-2.2-1.6-4.9,1.6-2.7,3.4S153.9,389.9,151.7,388.1Z"/>
        <path class="cls-3" d="M73.4,386.2c-1.1,1.3-2.1,1.1-2.4,2.7C70.5,393.6,77.7,387.5,73.4,386.2Z"/>
        <path class="cls-3" d="M270.5,350.9c0-3.2-2.7-2.1-2.2.5S273.2,355.2,270.5,350.9Z"/>
        <path class="cls-3" d="M281,356c-3.8-4-3.2,6.6.3,2.6C281.5,358.1,280.7,357,281,356Z"/>
        <path class="cls-3" d="M245.9,370c-2.7.8,1.1,3.7,2.7,3.5S247.5,369.8,245.9,370Z"/>
        <path class="cls-3" d="M145,389.1c-1.1-.2-.9,1.6-.9,2.2C146.6,395.2,149.3,385.4,145,389.1Z"/>
        <path class="cls-3" d="M163.9,324.4c-.6-1.4-2.5-1.4-3.6-1.9C158.2,324.1,163.6,328.1,163.9,324.4Z"/>
        <path class="cls-3" d="M14.3,339c-3.5-4.3-2.4,2.1.8,2.6S15.7,338.7,14.3,339Z"/>
        <path class="cls-3" d="M50.8,371.1c-.6-1.1-1.4-1.3-2.2-1.9C45.9,370.8,52.6,375.6,50.8,371.1Z"/>
        <path class="cls-3" d="M76.4,382.8c1.1-.6,1.1-2.2.3-3.2C74,378,73.7,382.8,76.4,382.8Z"/>
        <path class="cls-3" d="M467.5,367.9c-2.7-4.2-1.6,4.5.8,2.4A5.7,5.7,0,0,0,467.5,367.9Z"/>
        <path class="cls-3" d="M345.2,296.2c-1.6-2.6-2.1,3.2-.2,3.5S345.8,297.3,345.2,296.2Z"/>
        <path class="cls-3" d="M30.5,352.5c-1.6-2.4-2.4-.3-1.6,1.3S31.9,353.6,30.5,352.5Z"/>
        <path class="cls-3" d="M216.8,357.3c2.1-1.1-1.4-4.5-1.7-2.1C215.7,356,215.4,357,216.8,357.3Z"/>
        <path class="cls-3" d="M78.8,386.7c-1.1,1.1.8,2.7,1.9,2.2S80.2,386.7,78.8,386.7Z"/>
        <path class="cls-3" d="M138.2,255.9c-1.6,1.1,1.4,3.2,1.6,1.1S139.3,255.6,138.2,255.9Z"/>
        <path class="cls-3" d="M176.3,190.3a1.2,1.2,0,0,0-.8-2.1C173.8,188.7,175.2,190.3,176.3,190.3Z"/>
        <path class="cls-3" d="M240.2,306.3a1.3,1.3,0,0,0-1.3-2.1C238.4,305.3,239.2,306.6,240.2,306.3Z"/>
        <path class="cls-3" d="M106.1,385.7c1.9.8,1.6-2.4-.3-2.1S105.3,385.2,106.1,385.7Z"/>
        <path class="cls-3" d="M170.6,176.5c1.4-.5,0-2.4-1.1-2.1S169.3,176.5,170.6,176.5Z"/>
        <path class="cls-3" d="M224,213.2c1.7-.8.3-2.7-1-2.2S223,212.9,224,213.2Z"/>
        <path class="cls-3" d="M175.2,374c.8-1.1-.5-2.9-1.4-1.9S174.1,374.3,175.2,374Z"/>
        <path class="cls-3" d="M110.1,385.9a1,1,0,0,0,0-1.8C108.5,383.3,108.8,385.9,110.1,385.9Z"/>
        <path class="cls-3" d="M17.8,342.2c-1.3.5-.5,1.8.6,2.1S18.9,342.7,17.8,342.2Z"/>
        <path class="cls-3" d="M264.5,356c-.8.5-.5,1.5.6,2.1A1.1,1.1,0,0,0,264.5,356Z"/>
        <path class="cls-3" d="M221.9,220.9c.5-.8.3-1.9-.8-1.9S220.5,220.9,221.9,220.9Z"/>
        <path class="cls-3" d="M220.8,368.4c1.4-.5.5-1.8-.8-1.8S219.7,368.2,220.8,368.4Z"/>
        <path class="cls-3" d="M170.3,177.6c-.2,1.3,1.9,1.6,1.7.3S170.9,176.8,170.3,177.6Z"/>
        <path class="cls-3" d="M466.7,366c1.1-.5-.3-2.6-1.1-1.6A1.2,1.2,0,0,0,466.7,366Z"/>
        <path class="cls-3" d="M46.4,367.6a1.2,1.2,0,0,0,.8,1.9C48.1,369,47.5,367.6,46.4,367.6Z"/>
      </g>
    </g>
  </g>
</svg>
