<svg xmlns="http://www.w3.org/2000/svg" width="500" height="500" viewBox="0 0 500 500">
  <defs>
    <style>
      .cls-1 {
        fill: none;
        stroke: #999;
        stroke-width: 0.75px;
      }

      .cls-1, .cls-2 {
        stroke-linejoin: round;
      }

      .cls-2 {
        fill: #5c98ff;
        stroke: #fff;
        stroke-linecap: round;
        stroke-width: 2px;
        opacity: 0.5;
      }
    </style>
  </defs>
  <g id="hucs">
    <g>
      <path class="cls-1" d="M369.4,211.5c22.1.6,47.1-.6,69.3-1.2l-.5.6v1.7l1,.9c.6-.3,1.2-1.4,1.5-1.8l.9.4c-.6,1.3-2.1,4.2-1.4,5.6l.8.4h1.1v1.2l-1.6.8c-.3.3-.1,2-.1,2.5l2.1-.8h.8V223l-.9,1.1,1.7,1.5-.5.9-1.7-1.5-.4.9.4,1,1.9.7.3,2a10.3,10.3,0,0,0,2.7,1.5,10.2,10.2,0,0,0-1,3.4c-.2.3-4.8.8-5.1.8l.2,2,1.6.6,1.7-1.4.3-.9,1.4.6c-.3.5-2,3.1-2.4,3.2h-1.6l.9,1.7-1.5,1.1a12.2,12.2,0,0,1-1.7,2.9l.2,1.7-2-.3-.9.6v1.2l1.7.6-.8.9h-1.1a5,5,0,0,0-.9,3.7l-1.5-.3-.3,1.2h1.3v1.4l-1.7.8v1.7l1.2,1.6v1l-1.9-.6v1.6l.9,1.1v1.7l-.8.6H431a5.2,5.2,0,0,1,.7,3.8l1.2,2.5-1.2,1.5.3.8c13.9-.6,32.3-1.8,46.1-2.8l.8,1.3a13.5,13.5,0,0,0-1.1,4.6c-.2.7-1.2,3.9-.9,4.7l.7.5.6,3c1.6,1.3,3.6,3.6,3.6,5.5l.7,1a5.4,5.4,0,0,0,2.5,4.9c-1.5.1-5.5-.6-6.9-1.6h-.9l-1.1-.7h-2.6l-.3-1.4a4.5,4.5,0,0,1-1.9-1.5,6.8,6.8,0,0,0-4.2-.3c-.5.6-1.4,2.3-2.2,2.4v1.4l-1.7,2.1a4.2,4.2,0,0,0,.3,3.1c3.3,1.5,10.1,2.8,12.5-.8l.3-1.3,1.3-.2v.9l1.4.2.5-1.6,1.3.5,1.1-.6-.3,2.1-.8.6.2,1.1-1.7-.4-1.2.6-.5,2,.8.9,2,.6,1.4,1.7h1l1.3-1.2a14.7,14.7,0,0,1,.4-3.6l1.6-1.2v-.9c2.7,1.1,5.2-.3,6.4-2.8l.6,2,1.2.5-1,1.7.3,2.3h1v1.1l-2.6,1.2-.7,2.2-2.2.3a4,4,0,0,0-.6,3.2l-.8.6-1.2-.2-.6,1.4-1.2.5-.5.9c.3,1.5,1.4,4,2.8,4.8l-.2,1,.5.5a4.8,4.8,0,0,1,4.7,1.1v1.3l.5.3,1.4-.4.4.6.9-.5.2,1.1h.8l.4,1.2h3.1l.3,1.1-.9.5.9,1.3-.6,1-1.2-.5-1.3.3a4.5,4.5,0,0,0,.3,2.8l-.7.4c-.8-.3-1.4-2-1.7-2.6l-1.1.3a11.2,11.2,0,0,1-2.3,3.9l-.7-1.1,1.2-1.4.3-1.8-2.9-1.9a6.3,6.3,0,0,0-1.6-2.7l-.7.7a16.6,16.6,0,0,0-3.1-1.2l-.6-1.5-.6.6-3.4-.3a9.4,9.4,0,0,1-.8-3.4,7,7,0,0,0-3.8-.6l-1.1-.8-.3,1,.7,1.2-.5,1.1.6,1.3-1.1,1,.2,1.2,1.4,1.4c-.5.4-1.6,2.1-2.2,2.3s-2.1,2.4-3.4,2.6l-.6-2.6a5.5,5.5,0,0,1-1.8-3.1l-1.1-.2-1.2,2.6h-1.4a3.7,3.7,0,0,0-.9-2.6l-1.5-.2-.6,1.1.3,1.1a4.1,4.1,0,0,0-2.3,1.5l-.3,1.8c-.8-.1-2.7,1-3.3,1.3s-3.2-2.3-3.8-2.9a16.8,16.8,0,0,1-4-.5c-.9-1.4-.4-4-1.7-5.1l-1.3-.4-.5-1.2-1.1-.2-.3-1.4h-1.4a2.4,2.4,0,0,0-2-.8l-1-.9-1.9,1.1-.4-.3.3-1.9-.9-1.4-2.3.2c.1-.9.6-3.2,1.3-3.7a4.9,4.9,0,0,0-2.9.2c-.9-.2-2.7.6-3.5.9l-.6-.3v-1.4l.8-.6-.2-1.1a10.2,10.2,0,0,1-3.5.5l-.5,1.2a13.7,13.7,0,0,0-2.9,2l-.3-1.1-1.5.8,1,1.4h1.3v1.8l1.5.2v1.2c-1.6.1-4.3.6-5.6,1.7-2.6-.5-7-.3-9.5-1.3l-6.1-2.6a7.3,7.3,0,0,0-4.3-1.8l-.6-.8-2.8-.6c-.7.2-2.9.6-3.6.2l-.6.3c-3.9,0-8.6.4-12,2.3a9.8,9.8,0,0,0-2.1-2l.6-1.7c2-1.4,3-5.2,4.7-6.9l-.3-.8c.6-.9.9-3.8,1.1-4.9l-2.2-2.6.2-2.1.6-.6c.8-1.9-1.4-4.6.6-6.2v-1.2a28.4,28.4,0,0,0,3.2-7.3l-.3-.7.6-1.6-.9-1.4,1.1-1.7c-.9-1.1-.6-3.7-.5-4.9h-.7l-.9-.7v-.8a10.5,10.5,0,0,0-2.3-2.4l.9-1.9a5.6,5.6,0,0,1-1.6-2.4l-.9-.5.2-1.7-1.3-.3-1.2-1.8.5-1.2-.5-1.1.9-1.2a5,5,0,0,1-.9-2.3l-1.1-1.3v-.9c-.7-.8-3.6-4.6-4.5-4.9C370.1,239.9,369.4,216,369.4,211.5Z"/>
      <path class="cls-1" d="M162.1,79.7,161,96.4h-1c-3.1,44.1-7.8,98.4-11.4,142.2-27.5-2.1-59.3-4.8-86.7-8.1l-.6.3a9.4,9.4,0,0,1-.2,3.7,13.7,13.7,0,0,0,2,2.9l-40.9-5.1c-.4,2.3-1.7,11-2,13.7-5.6-.7-14.5-1.6-20.2-2.8C8,185,16.7,123.1,25,65.3c11.2,1.6,24.6,3.4,35.8,4.8l.3.5C94.2,73.6,128.9,79,162.1,79.7Z"/>
      <path class="cls-1" d="M358.3,191.8l1,2.1h.6l.7.9h2.1l.6-.6.9.3.5-1.1h.8l.9.8,1.5-.4.9.7c.5,13.5,1.1,35.7,1.1,49.4.9.4,4,4.1,4.6,4.9v.9l1.1,1.2c-.2.6.6,1.8.9,2.3l-.9,1.2.4,1.1-.4,1.2,1.2,1.9,1.2.3v1.7l.9.4a5,5,0,0,0,1.5,2.5l-.9,1.8a9.2,9.2,0,0,1,2.3,2.5v.7l.9.8.8-.2c-.3,1.3-.5,3.9.4,4.9l-1,1.7.9,1.4-.6,1.7.3.6a34.5,34.5,0,0,1-3.2,7.4V288c-2,1.5.1,4.3-.6,6.1l-.7.6v2.2l2.1,2.6c-.1,1.1-.4,4-1,4.9l.3.8c-1.7,1.6-2.8,5.5-4.8,6.8l-.6,1.7a5.3,5.3,0,0,1,2.2,2c-3.7,0-9.9,2.9-13.1,4.8a27.6,27.6,0,0,0-8.1,4.3,8,8,0,0,1-2.1,2l-.5-.8c.5-1.1,2.1-1.7,2.6-2.9h.8l1.4-1.4,1.6-.2-.3-.9-.7-.3c-.8.5-3.9,1.2-4.8,1.6l-.9-.4c1.2-2.1,1.7-5.6,2.3-7.9a7.9,7.9,0,0,0-5.5,4.1h-.5l-1.7-1.5-.7,2.3.9,1.2-.8,1.4.5,1.1,1.7.7-.8,1.7,1.1.2c.3.9.4,3.2-.2,4.1l-1.2-.3-2.6,3.8-1.2.3-1.4-.4-.2,2.1-1.3,1.1.4,1.1,1.4-.2c-7.7,9.7-21.6,13.7-30.8,21.6l-.5-.4.8-1.4c.9.1,2.3-1.1,2.9-1.6s5.5-2.9,6.3-4.2,4.3-1.7,5.4-2.5l.6-1.2h-1.6c-3.3,1.8-7.5,4-10.7,6.1l-.6-1.2h1.7l-.2-.8-1-.3.7-2.4-1.7,1.3-.3-1.3-.9,2.3-1.1.4-1.2-1.8-.9.3,1.1,2.1a7.1,7.1,0,0,1-2.9,0l-.8-1.8-1.1.5-.8-1.9H304l.8,2.9-.5,1.4,2-.3,1.7,1.7-1.8,1.2.7.6,2.2-.7.9,1.6a24.5,24.5,0,0,1-6.6,3.9l-.8-.8-.3-2-1.2-.8-.8-1.6-.7.9.7.7-1.8,1,1.7,2.3c0,.9,0,3.2-.5,3.9a13.7,13.7,0,0,0-3,2.2,12.1,12.1,0,0,1,.6-3.8l-.6-.2-1.3.8.8,1.8-1.1,1.2h-.9v-1.3l-.6-.7-2.3,1.6-1.2-.8-.3,2-1.3.9v.8l2.9,5.8-2.5,1.5h-.4l-1.2-1.2-1.7.2.3-1.4-2.2.5-.6-.7-1.5.2,1.4,1.4,2.9.6-.3,2.1,1.4,1.4-1,1.9h.8l1.5-1.6.5,1.2c-.8.7-1.8,5.3-2.2,6s-1.5,4.6-3.8,5.7l-.9-.2c.9-.7,1.1-2.7,1.1-3.8l-1.7,2.5c-1.1.4-3.2-.5-4.2-.8v.8l1.1,1.2-1.7.6,1,.9c.6.3,2.1,0,2.9-.1l1.3.7,2.3-1,.7.3v3.2l-1.4,1.7.4,1.3-.3.8-1.2.5-.6,1.2c.4.8.1,2.8,0,3.5,2.4,1.4,2.4,7.2,3.2,9.5l-.8,2,.5,2.2h.9l1.2,1.7v1.8l1.4.6-.6,1.7,1.1.6a7.6,7.6,0,0,0-.2,3l.8.6,1.4-.5.4.6c-.4.5-1.3,1.3-1.3,2l.3,1.2.9-.3.9-1.5.9.2-.4,2.7h-2.8l-.8.9c-2.4,0-6.2.3-8.2-1.3l-1-1.9-3.8-.3-.4-.8c-1.4-.3-5.4-.6-6.6.2l-1.4-.6-1.4.3-3.4-1.4-.6-1.1-.6.3-.5-1.3-1.5-.2v-.8h-1.1l-.5-1.1-1,.3-.8-.7h-.9l-.6-.6-2,.3c-.3-.3-2.2-2-2-2.6l-2.9-1.5c-1.9.6-3.3-1.3-4.8-1.4l-.6.5-.8-.4v-2.3l-1.3-2.1c.3-.8-.8-2.8-1.1-3.4s-1.4-4.9-1.7-5.9l-1.1-.7-.7-1.3-1.4-.2c-.2-1.5-1.9-2.9-2.2-4.3s1-4.1.8-5.5-1.5-1.2-1.5-1.8l-1-.3,1-2c-.3-.8.1-3.3.3-4.2h-.9l-.2-2.5-2.1-1.7-.7.3-.6-.9h-1c-.5-.6-2-2.5-2-3.1l-1.4-.8-.8-2.7a5.4,5.4,0,0,1-1.1-2.6l-1.5-1.1c-.6-2.3-2.1-5.2-4.4-6.1a12.7,12.7,0,0,0-2.3-2.8,16.7,16.7,0,0,1-1.6-5.5l-.7-.8v-1.8l-1.2-.9v-1.4l-.9-.8-.3-1-1.1-.5c-.6-1.2-.5-3.2-1.1-4.8l-.6-.3v-2.1l-.9-.2c-1.8-2.7-.6-7-3.8-9.2l-.3-2.1c-1.6-1.1-3.7-3.2-5.4-4.1l-.6-2.6c-1.1-1.3-2.6-1-3.7-2.2h-1.1l.5-2.6-.8-.8-.4,1.4-.9-.4.3-1.3-1.4-.9-.6-2.9-1.3.3-.6-1.1h-1.8l-.2-1-1.7,1.2a9.7,9.7,0,0,1-4.5-1.2l-3.6.3-.6-1.4-2.3.8c-1.7-.8-4.9-3.1-6.7-3.4l-1.1.5-.6,2.6-.5.3a4.6,4.6,0,0,1-2.6-1.1l-1.2,1.2-.6-.6-1.2.6h-1.4a12.1,12.1,0,0,1-2.6,3.9l-.6,2.2-.8.3c0,1.4-.9,3.5-.9,4.9l-1.2.5-.8,2.4.4,1.7h-.7c-.5.8-2,1.2-2.8,1.4l-.7,1.5a4.2,4.2,0,0,0-1.9,1.8c-.1.5-.3,2-.9,2.3a10.5,10.5,0,0,0-4-.3l-1.2-2-1.4.7c-.3-.5-1.2-1.6-2-1.6l-.4-2c-1.4-1-3.6-1-5.3-1.6l-2.3-3.3-5.2-1.5c-.6-.6-3.5-3.4-4.3-3.7a5.6,5.6,0,0,0-4.6-4.6l-1-1.8-.9-.3c-1.4-1.1-2-4.6-2-6.1v-.7c-3.3-6.9,1-11.8-3.6-18.2l-.7-.5c.1-.4-.3-5-.3-5.6s-2-2.5-2.5-3.5-3.7-3.4-5.3-4.5c-3.6-1.5-7.9-5.8-8.3-10-.8-.9-2.6-2.7-3.9-3-1.3-2.5-3.5-5.5-5-7.8l-2.2-.3a13.3,13.3,0,0,0-2.9-2.9,7.9,7.9,0,0,0-1.3-3.3c-.4-1.5-1.4-4.7-2-6.3a6.8,6.8,0,0,1-2.9-.4,18.7,18.7,0,0,1-2.7-4,9.3,9.3,0,0,0,.2-3.7l.6-.3c27.4,3.4,59.3,6,86.7,8.1,3.4-43.6,8.3-98.2,11.4-142.2,22.5,1.3,47.5,3,70,3.7-.8,19.9-2,41.9-2.4,61.6l1.8.2,2.3,1.8c.1,1.4,1.8,2.5,2.3,3.7l2.6.6,1.1-1.4,2.1.3.9,1.1,1-.8v-1.2l.6-.4c.9,1.2,2.8,2.2,3.2,3.8h.7l-.4,3,1,1.1c1,.2,3.3.5,4.3-.1a2.4,2.4,0,0,1,1.5,1.3,9.6,9.6,0,0,0,3.7,1.3l.4.6a4.1,4.1,0,0,1,2.9-.6l.6-.8,1.3,1.1.3,1.5,1.2,1.1,1.8-.8.5-1.8.9-.8,1.7,1.4,2.3.3,1.2-1.1,1,.6a8.1,8.1,0,0,0-.2,3.1l1.2,1.4,1.1-.3,1.2.9-.7,2.1.4,1.6,1.7.9c1.7-.6,2.6-3.4,4-4.3h2.3l.8,2.1.9-.6,1.4.5a5.6,5.6,0,0,1,.7,2.6l1.6,1.1,1.5-2.2,1.2.2.5-1.2h1.2l.8,1.8-1,1.7,1.1,2.4h1.4a13.4,13.4,0,0,0,0-4l.6-.2,1.2.8,1.4-1.7-.3-2.1,1.8-.3.7.6.3,2.9,2-.2,1.5,1.3.6-.3,1.1-2.6a4.4,4.4,0,0,0,1.8,1.5l-1.1.8.3.7,2,.3.7,1.4,1.3-.2c.6.5,2,1.7,2.2,2.5h.6l.6-1.4,2.5-.3a6.1,6.1,0,0,1,3.3-3.2l1.7.2.8-.7h4.3v-1.5l2,.2a6.3,6.3,0,0,0,2-1.7h1.4l.3,1.3.6.6a6.6,6.6,0,0,1,3.1.3c.6-.3,2.1-1.3,2.9-.9s.4-1.9.9-2.2l2,.2a5,5,0,0,1,2.1,2.6l1,.3.9-.2c.4.6,2.3,3.4,3,3.7h1.7l.3.8a4.8,4.8,0,0,1,2.9,1.8l1-.3a3.6,3.6,0,0,1,1.8,1.4Z"/>
      <path id="_12" data-name="12" class="cls-2" d="M145.6,149.1c9.6,4.5,22.6,4.9,29.4,6,5.3,4.7,8.9,6.4,14.8,9.3,3.3,1.1,1.4,6.9,5.1,5.6,5,4.7,8.7,17,15.3,14.2,2.2-.1,3.4,9.5,6.3,5.2h3.4c2.1,2,5.9-.1,8.6-.7s6.5,1.2,9.3-.8c2.3,0,5.8,2,7.2-.8,2.5,1.9,11.5,10.7,12,8.1,1.9.2,4.1-2.7,6.7-2.4a10.1,10.1,0,0,0,5.8-1.5c3.4,3.2,4.5-.7,7.4-.5s3.3-1.4,4.7-2.5c1.9,2,6.5-3.3,9.4-1.9,1.3,1.3,2.9.1,3.8.6s1.5-.8,1.5.6.6-.6.8-.5a2,2,0,0,0,2.8-.1c.4,1.8,2.4,2.1,3.3,3.3s4.2,1.7,5.4,3.4a11.5,11.5,0,0,1,4-.3c1-.8,1.4,2.1,2.4,2.3s3.1,2.9,4.3,4.3,2.6,3.2,4.8,4.4,4,.5,6.4,2.3c1.7.2,2-.9,3.4,1.1,3.5-1.5,6.3,2.3,8.7,4.4.2,3.3.9,4.2,2.9,6.6s1.4.7,2.8,0c2.1,2.6,5.3,3.7,7.5,5.1,3.8,1.2,10.6-4.3,12.4,3.2.9.9,2.3.6,3.5,1.9a1.6,1.6,0,0,0,1.2,2.1c-.4,2.1.7,3.2,3.1,3.7.5,2.3,3.1,2,2.6,4.6.5,1,1.4-.2,1.9.1a5.4,5.4,0,0,0,2.9,1.1c-.6,4.4,2.7,4.6,3.5,8.3-1.1.7-1.1,2.4.3,2.3,1.7,2.1,2.5,5.3,3.1,7.9s2.9,2.2,2.9,4.6c3.7,4.6-3.2,7.4-2.6,11.5-2.5,2.3-3.6,4.8-4.8,8.3s-5,8.4-2.4,10.9-1.6,3.2-.2,5.3,0,7.4-1.2,10.6c-6.3,2.6-.9,4.8-3.4,6-15.6-2.2-25.3,13.9-35.7,22.5-16.7,11.4-38.6,19.5-48.1,38.6-16.4,17.7,12.1,49.8-9.3,55.4,0-1-1.3-1.1-1.7-1s-1.7-2.9-2.9-2.7c0-2.9-3.3-1.3-4.8-2.6-5.1-.6-12.3.3-14.4-4-1.4.4-5.5-3.5-2.1-2.8a10.9,10.9,0,0,1,.1-6.9c-5-6.1-6.3-1.8-7.7-12.5-2.9-3.4-3.9-8.2-2.9-13.2-2.7-1.4-4.1-3.1-2.6-6.3s-4-1.7-5.3-3.1-1.6.7-2.6,0c-.5-3-2.9-3.5-4.8-6.1.2-2.6.3-4.7-1.5-5.7a4.8,4.8,0,0,0-.3-3.2c-2-1.5-2.5.5-4.8-.3-2.1,2-4-1.2-3.8-3.7-.9-.6-1.5-3.8-1.4-5.6s-1.8-1.4-2.1-2.6c-4.5-2.8-3.7-2.3-6-6.6s-2.6-6.2-1.1-9.8c-.6-4.6-2.1-10.8,1.4-14.6,1.1-2.6-4.8-2.4-2.6-4.6.3-2.4-1.5-2.4-2-4.3,1.1-.9.5-2.4-.2-3.3-3-2.2,3.4-7.1,3.3-10.3-2.9-2.9.1-7.1-1.6-10.7,1-6.2-1.7-11.8-7-14.4-2.8-1.4-2.6-4.5-5.2-2.6-3.7,0-6.6-2.8-10.4-3.6s-5.3-.4-6-2.9c-2,.6-1.6-.9-2.9-2s-2.6-1.4-2.6-3.5-3.4-1.2-4.8-2.6c-2.3-5.5.6-9.4-8.9-10.3-1.5-3.2-10.5-8.4-5.6-10.9-1.1-2.1-1-4.7-1.3-6.8a5,5,0,0,1-2.6-3.3c1.4-1.5-1.7-1-1.4-2.4-2.1-1.2-.9-3.8-2.9-5.2-3.9-5.7-17.9-9.8-14.4-16.9.5-4-.6-8.4,1.9-10.2,1.5.7,2.7-1.3,1.8-2.7s3.2-1.9.9-3.8c-.3-4.6-2.6-7.5-1.8-12.1-1.1-2-.2-2.7-.2-4.1s-.4-3.6-.9-6.2,1.5-7.5,4.9-6.2C143.4,152.5,143.1,149.3,145.6,149.1Z"/>
    </g>
  </g>
</svg>
