<svg xmlns="http://www.w3.org/2000/svg" width="500" height="500" viewBox="0 0 500 500">
  <defs>
    <style>
      .cls-1 {
        fill: none;
        stroke: #999;
        stroke-width: 0.75px;
      }

      .cls-1, .cls-2 {
        stroke-linejoin: round;
      }

      .cls-2 {
        fill: #5c98ff;
        stroke: #fff;
        stroke-linecap: round;
        stroke-width: 2px;
        opacity: 0.5;
      }
    </style>
  </defs>
  <g id="hucs">
    <g>
      <path class="cls-1" d="M155.4,196.7c-4.7,18.8-12.7,48.3-17.2,67.2,21.1,35.1,43.7,73.2,65.2,108.1a16.1,16.1,0,0,0-.1,3.1l.9,1.1-.7.7,1.7,2.7c0,1.5.3,4,.2,5.6s3.4,3.4,3,5.3l-.9.2a7.3,7.3,0,0,1-4.1,2.3c-.4.5-1.4,1.7-1.4,2.5-2.3.4-2.4,3.9-2.3,5.8-.5.4-.6,1.6-.6,2.1l-1.1,1.8-.9.2v.7a9.6,9.6,0,0,1-2.4,1.7v1.1l-.6,1,.7,1.2c-.4.8-1.2,3.2-1,4.1l.5.7,2,.7.8,1.2-.5,2.7a12.4,12.4,0,0,0-1.7,2.3l-.8.4c-11.2-1.5-32.6-3.3-43.8-4.7l.4-1.8.7-.7v-.7l-.9-1.2-.7.4-.5-.2a2.5,2.5,0,0,1,.8-1.9l-.6-.7V411l.6-.4c1.2-3.4-.2-7.3-1.2-10.4-.2-.5-2-2.8-1.9-3.3a19.2,19.2,0,0,1-1.8-2.2c-.5-1.1-1-3.2-2.3-3.5s-2.1-4.1-3.9-4.7H138l-.4.9c-.5,0-1.5-.9-1.9-1.1l-.2-1,.7-1.1c.1-1.1-.6-2.6-.6-3.7a6.2,6.2,0,0,0-5.1-1.8c-1.1-.7-3.3-1.6-3.8-3l-1.3-.2c-.7-.6-1.1-3.5-1.3-4.5s-2.2-2.4-2.6-3.4-2.3-1.6-3.7-1.2-2.1-1.1-2.8-.9l-1.6-1.3c-2.4-1.6-8.3-.4-8.5-4.3l-1.6-1.1v-1.1a3.1,3.1,0,0,0,1-3.4,3.9,3.9,0,0,1,1.1-1.7l-.4-1.8c.4-1.6,1.9-3.3,1.5-5.1l-1-.7-.5.2c-.6-1.1-2-2.2-1.5-3.6l.7-.7.6.3-.2-3-1.8-.7-1.6-4.1c-1-1-2.2-2.7-1.4-4.1l-.4-.4c-.5-1.6-1.9-3-1.5-4.7a2.4,2.4,0,0,0-.7-1.7l-.7-3.1a5.8,5.8,0,0,0-2.1-2.6l-.8-1.8c.3-1.2.8-3.8.2-4.9l.4-.3v-1l1-1.1.9.6.7-.5a16.6,16.6,0,0,0,1.9-4.8,5.9,5.9,0,0,0-1.6-2.9l-.4.3-.6-.4H95a5.4,5.4,0,0,1-2.4-3.8c-.7-.4-1-1.8-1-2.6a2.3,2.3,0,0,1-.3-1.8,11.2,11.2,0,0,0,1-3.1,4,4,0,0,1-.2-2.4l-.5-.5a8.3,8.3,0,0,1,.3-2.2l.6-.2.6-3.5a7.5,7.5,0,0,1,2.2.2v1.7l-.8.2a3.5,3.5,0,0,1-.3,2.3,5.1,5.1,0,0,1,2,2.1,6.3,6.3,0,0,1,1.8,2.4l1.1.5.5-.6c-.6-.2-1.3-1.2-1.6-1.7a8.3,8.3,0,0,0-1.6-6.3l.6-2.4-1-1.1-.2-.8,1-1.2,1.2.3.5-.4,1.2-.3-1-1.1.2-.7-.9-.2-1.1-1.2-.6.8-.8.2-.9,2.1.7.7-.8.8v.9l-.5.6v1.1l-.8-.2c-.2-.4-.6-1.2-1.1-1.4l-.4-1H91c-.3-.5-1.3-1.4-1.2-2a10.7,10.7,0,0,0-1.8-1.9l-.5.7-.7-.2c.3-1.1,1.7-2.3,1.6-3.5h1.1a4.6,4.6,0,0,0-1-3.4H88c.1-5.5-1.6-3.5-2.8-7.1-.1-1.1-.1-3-1.1-3.7s-1.3-2.4-1.1-3.5a5.3,5.3,0,0,1-1.3-2.7l1.4-2.3a18.8,18.8,0,0,1,.4-8.5,12.3,12.3,0,0,0,2.3-4.9,7.9,7.9,0,0,1,.2-3.4l-.4-1.3-.7-.4c.4-1.9-1.5-4.5-1-6.4a40.3,40.3,0,0,1-2.8-5c-.1-.4.5-1.2.7-1.5a2.3,2.3,0,0,0-.2-2c1.5-4.4,6-7.7,8.3-11.6v-2.9l.8-1.2.8.3a4.7,4.7,0,0,1,1.2-2.9c.5-1.1,1.3-3.4,1.1-4.6l.4-.7a3.9,3.9,0,0,1-.1-2.4,5.4,5.4,0,0,0-.9-3.2c-.2-.8,1.5-3.6,1.9-4.2C114,185.5,135.8,191.3,155.4,196.7Z"/>
      <path class="cls-1" d="M199.2,207.3c1.7-6.2,8.8-43.6,12.5-47.7v-1.2l-.9-1.5-.8.3-.4-1.1h-1l-.6-.6a7.1,7.1,0,0,0,.1-2.5,7.2,7.2,0,0,0,1-2.2c1.1-.6,3.1-4.2,3.6-5.2,2.3-.2,3.5-2.8,4.3-4.7V140c2.8-2,3.7-6.4,6.2-8.9.6-1.8,3.1-3.1,1.7-5.2,0-.4.1-1.7-.3-2.1l-1-.4-.5-1-.7.5c-.6-3.1-2.8-5.3-.7-8.6a4.2,4.2,0,0,1,0-2.5l-.7-1.7c4.2-18,9.1-41.4,13.5-59.3,3.6,1,9.2,2,12.9,2.8-1.3,6.8-3.9,16.7-4.8,23.3.4,1.5,1.7,3.7,1.6,5.1l.7.4c.2.7.5,1.9.1,2.5l.5.8-.9,1.3.9,1.8v.3l-1.2.5c.9.8,2.5,2.6,2.6,3.8l2.2,1.4c-.1.9,1.2,2.8,1.6,3.6l1.1,3.6a5.7,5.7,0,0,1,1.1,1.6,3.9,3.9,0,0,0,.1,2.4c.6.1,1.1,1.3,1.3,1.7l-.4,1.1h.4l1.5-.7.3.5-.2,1.5.5.6,1.9.2.9-.4h.7v.6a13.8,13.8,0,0,0-.8,2.7l-.8.2c.3,1.3-1,4.4-2,5.2a4.4,4.4,0,0,1-.1,2h-1v.7l.6.9-.9,1.2.3,1.1.7.5a3,3,0,0,0,0,2.3,6.4,6.4,0,0,0-2.4,1c-.7,1,0,2.5-.3,3.6l-1.1.6v1.4l1,.3c-.1.6,1.1,2.1,1.5,2.5l1-.2.8-1.2,1,.2a34.7,34.7,0,0,0,3.2-3.4l.7.4a4.2,4.2,0,0,0,1.5,2.3v.6l-.6.9.7.6c-.8,2.7.2,6.8,1,9.4l.7.4.7,1.6-.3,2.1-.9.6a6.6,6.6,0,0,0,1.3,3.1v.7l2-.6c1,.9,1.5,3.4,1.6,4.6l-.4.8c.2.7.7,2.4.3,3l.6,1.4.9.4.6,1,.4-.2a4,4,0,0,1,.7-2l1.2-.5,3.7,1.3.6.8h.8l.4-1.7,1.5-.6.8,1.2a1.8,1.8,0,0,1,1.6.1l2.9-.3.6,1.1c1.2-.2,4-.5,4.9.2l-.4-1.7a8.8,8.8,0,0,0,1-2.2h.5l.9-.7c.9.6,1,2.5,1.8,3.1v1.2c.4.5,1.2,1.5,1.1,2.1l.8.6c-3,18.3-6.1,38.2-9,56.6C259.6,220.2,227.7,213.5,199.2,207.3Z"/>
      <path class="cls-1" d="M221.8,329.6c-1.5,5-2.3,17.1-5.7,21.2a2.7,2.7,0,0,1-2.7-.7v-1.6a4.2,4.2,0,0,0-2.5-1c-1.1-1-2.9-.7-4.2-.1l-.6,1a3.3,3.3,0,0,1-.1,2.4,4.6,4.6,0,0,1-.2,3.8c-.6,2.3-.1,5.4-1,7.7.9,1.8.8,5.9-.4,7.6l-.8.3-.3,1.9c-21.5-34.8-44.1-73-65.2-108.1,4.5-18.9,12.4-48.4,17.2-67.2,27.5,7.2,60,14.2,88,20C236.6,253.6,228.7,292.7,221.8,329.6Z"/>
      <path class="cls-1" d="M220.8,118.1a25.2,25.2,0,0,1,1.7,4.8l.7-.5.5,1,1,.4a3.1,3.1,0,0,1,.3,2.1c1.4,2.1-1.1,3.4-1.7,5.2-2.4,2.5-3.2,6.9-6.2,8.9v.9c-.8,1.9-2,4.5-4.3,4.7-.6,1-2.5,4.6-3.6,5.2a4.9,4.9,0,0,1-1,2.2,7.1,7.1,0,0,1-.1,2.5l.6.6h1l.4,1.1.8-.3,1,1.5-.2,1.2c-3.7,3.9-10.9,41.8-12.4,47.7-34.8-7.8-70.6-17.7-104.8-27.7l.2-.7c-1.5-1.6-1-4-1.2-5.9a3,3,0,0,0,.3-1.9,5.2,5.2,0,0,0,.6-2.3,16.7,16.7,0,0,1,1.6-2.4v-2.2a4.1,4.1,0,0,1-.2-1.9l-.6-.8a3.4,3.4,0,0,0-.2-2.2,22.6,22.6,0,0,0,5.7-9.5c2.3-1.7,3.9-4.8,5.5-7.1a83.5,83.5,0,0,1,5.6-13.5,4.4,4.4,0,0,1,1.1-2.5l.3-1.9c.2-.6,1.5-3.2,1.3-3.8a3,3,0,0,0,.8-2c.6-1.3,2.4-4.6,2.6-6.1s1.6-2.4,1.4-3a6.7,6.7,0,0,0,1-3.3l1-1.1v-1.6l.4-.3.8.8c.6-1.5-.7-3.1.7-4.6a9.7,9.7,0,0,1,.3-3.3,6.2,6.2,0,0,0,.7-3.3c2-.9,2.2-3.9,1.5-5.6h.9a7.4,7.4,0,0,0,1.4,2.2l.3-.5-.3-.7h1.3l.2,1,.8.2a4,4,0,0,0,1.7-.9l1.1.3-.2.9.4,1.2c1,.7,2.5-.1,3.6.3l2.2,3c.2,1.9.9,4.2,0,6s-1.4,3.3-.4,4.8,3.9,1.9,5,3.4a23.4,23.4,0,0,0,7.6-1.6c2.8,1,8,.9,8.7,4.6a2.9,2.9,0,0,0,1.8-.7l2,.7c.5-.1,4.2-1.1,4.7-1.1l1.8,1.8c1-.2,4,0,4.8-.8s4.6-.6,6.5-.2l1.8-1a1.9,1.9,0,0,1,1.2.7,8.1,8.1,0,0,1,4.6.6c.5-.1,2.9-1.1,3.4-.9l13.3,3v.3C210.2,115.3,216.9,117,220.8,118.1Z"/>
      <path class="cls-1" d="M243.4,216.7c13.8,2.8,30.9,5.7,44.7,8-1,5.5-2.9,17.2-3.7,22.8l30.4,4.6c-4.3,29-8.7,61.8-12.4,90.9-26.8-3.7-54-8.4-80.6-13.4C228.7,292.7,236.6,253.6,243.4,216.7Z"/>
      <path class="cls-1" d="M314.8,252.1l-30.4-4.6c5-29.9,9.4-61,14.6-90.9,33.1,5.2,66.7,9.1,100,12-2.6,30-5.2,61.7-7.9,91.7-24.8-2-51.4-5.9-76.3-8.2Z"/>
      <path id="_16" data-name="16" class="cls-2" d="M221.6,310.2c8.9-8.2,2.7-17.8-5.3-11.9-5.5,38.3-11.6,12.3-2.1-9.2-.6-8,8.7-21.8-5.7-12.2-.7,5.2,1.7,12.3-5,15.5,14.2,11.3-9.5,15.1.4,28.8,1.8,16.2-10.8.1-12.4,17.5,5.7,21.1,11.6,2.1,13.5,11.7-3.8,4.2-.7,10.4-8.1,5.6,1.7,4.3-5.6,9.3-8.3,4.8,4.6-2.6.9-9.5-3.2-11.5-6.9-22,2.8-8.3,2.7-21.2-5.8-4.3,2.6-13.4-6.1-15.3-3.1-3.4-4.1,4.2-6.2,6.6-10.2.4,1.9-7.5-10.5-11.9s-5.9-13.3-11.2-17.8c-6.7.2,3.7-11.7-6.5-5.7-11.8,7.7-14.8-21.8-14.8-32.3-5.1-2.8,6.9-2.7,8.7-1.8,3.7-2.3.8-8.4,3.6-8.7.8-6.8,1.6-3.9-1-8.5,1.9-2.6-6.1-14.8,1.5-8.6,1.9-1.3,1.8-5-.6-6.8,5.2-2.8,5.4-7.9,7.7-16.8,5.5-9,6.1,15.1,9.5,1.3-2.3-4,6.4-3,8.8-9,4,8.3-5,15.3,9.4,7.2,9-9.6,9.3.4,11.9,10.2,2,3.5,3.1,3.7,6.6,4.5.9,1-.5,7.2,2.5,5.4,5.2.3.9,6,4.3,7.3,5.4-1.3,3.6-7.4,5.8-9.5,3.5,5,3.9-3.2,6.5,4.7,1.9,3.2,1.6-5.2,1.9-7.1,11.9,18.3,7.7,2,16.7,3.3,2.8,6.5,7.5-6.1,9.6,1.8,2.2-4.5,8.6,0,10.4-6.2,1-3.8,6.8-2.7,7.9-7,.5-.5.2,3.5,2.1,2.4s.9-4.7,2.3-3.1c2.1,11.6,10-1,12.5-5.8,4.6,10,6.2,10.1,13,8.9.5,7.6-5.9,6.8-.9,17.6-.6,3.6-7.1-.2-5,4.5.4,11.9,3.1,14.3-4.5,24-9.1-.2-4.2,9.4-5.1,14-6.5,1-1.7,3.2-4.4,8.8a263.2,263.2,0,0,1-13.2,25.9c-.8,4.8,5.4,5.5-1.4,8.1.3,7.1-2.7-.3-9,9.6-3.6-1-12.2-8.3-17.1-4.4-2.9.7-3.3-.5-6.3-1.6C225,318.5,223.2,311.3,221.6,310.2Z"/>
    </g>
  </g>
</svg>
