<svg xmlns="http://www.w3.org/2000/svg" width="500" height="500" viewBox="0 0 500 500">
  <defs>
    <style>
      .cls-1 {
        fill: none;
        stroke: #999;
        stroke-width: 0.75px;
      }

      .cls-1, .cls-3 {
        stroke-linejoin: round;
      }

      .cls-2 {
        opacity: 0.5;
      }

      .cls-3 {
        fill: #5c98ff;
        stroke: #fff;
        stroke-linecap: round;
        stroke-width: 2px;
      }
    </style>
  </defs>
  <g id="hucs">
    <g>
      <path class="cls-1" d="M327,311.6a3.2,3.2,0,0,1-1.3-.2,6.4,6.4,0,0,0-2.4-2.2L323,308l.5-1.1c.5-.6,4.2-.1,4.8-.1l1.1,1.4Z"/>
      <path class="cls-1" d="M167.6,328l-.5.7H166v1.3l-1.5.3v1.3c-2.2.6-8.4,2.4-10.5,2.4l-.2-1,5.5-1.1c.3-.9-1.2-2.9-1.6-3.7-2-.3-2.4-2.2-2.8-4l.7-1.9a5.6,5.6,0,0,1-.3-2.9c-.8-.4-1.8-3-2.1-3.8l-1.1.2c0,1.7-.8,4.1-.7,5.9l-.8.9c.4.4.2,6.8.2,7.4l-1,.8-1.7-1.8h-2.6l-.5-.6-.9.5c-8.6-48.9-5-98.9-5-148.3l-.6-.2-1.6-2.8.2-.7c20.1-1.4,42.8-3.2,62.9-4.9,5,19.6,11.2,40.7,16,60.4.3.3,2.1,7.6,2.2,8s3.2,5.7,3.2,7.5a3.6,3.6,0,0,1,1.6,2.5l1.8,1.8a4.1,4.1,0,0,0,.6,2.4,5.7,5.7,0,0,1-.3,2.9c.6.9,2.4,1.4,2.9,2.5-1.5.7-2,2.9-3.4,3.5s.2,4.5.3,5.5c-2,2.8-1.4,7.2-.3,10.2,1,1.1,1.8,3.7,2.1,5.1s-.3,5.3-.2,7.5l-.5.6c.4,1.8.7,4.8,2.8,5.5a12.1,12.1,0,0,0,1.1,3.7c-21.3,1.7-45.6,4.7-66.8,6.5v2.4a3.8,3.8,0,0,0-.3,2.6c1.1,1.1,4.6,4.8,6,5.4l.5,1.9c-.3.8-1.4,2.9-.9,3.7l1.7,1.6v.9l-.9.4Z"/>
      <path class="cls-1" d="M228.9,301.7c.5.8,1.6,2.8,2.4,3.3l.3,3.4a9,9,0,0,0,2.3,2c22.5-1.2,46.6-2.4,69.2-4l-.7,1.3c1,.5,1.3,3.2,1.5,4.2l1.4.9a10.3,10.3,0,0,0,3-.4L308,306c-1.1-2.1-2.1-5.3-1.1-7.7l1-.2.8-1.2,1.2-.4.5.7c1.3.1,4.2.6,5.1,1.7l1-.4.5.4h2l.7.8.9.5h1.3v2.5c.9,1.6,2.3,4.8,1.4,6.6l.3.4,1.6-.6c1.1,5,4.5,11,5.1,16l1.3,1.3.6,3.5,1.5,1.4c-.2,1.3,4.6,8.5,4.6,9.8s5.1,6.5,4.8,9.1l1.4.3c.2,3.3,3.7,5.7,5.5,8.5l-.5.6-1.4-1.1-.5.5c4.1,14.3,15.3,26,20.7,39.6,1.2,2.7,5.5,6.4,5,9.6,3.8,0,4.5,6.8,5.9,9.6,3,10.7,1,22.8,3.5,33.3l-.9.5-.4-1.3h-.8l.2,2.5-1.1,1.3c0,1.1-.3,3.4-1.3,4.2.7,1.4-.3,3.2-.1,4.4s1.4,2.4,1.2,3.4l-1.2,1v.9a3.8,3.8,0,0,0-1,2.7h-.8l-1.1,1.1-1.3-.8-1.1.2.3.8c-.8.3-2.7,1.2-3,2l-2.3.4a4.5,4.5,0,0,0-3-.4c-1.4,2.1-3.5,1.8-5.6,2.4-1.6-1.3-3.2-3.5-2.6-5.6H358c.8.8,2.7,2.5,4,2.5l1.8-1.4-.2-1.9-.5-.5-1.4.5-.6-.8-2-.7-1.1.4a2.7,2.7,0,0,1-2.5-2.8l-1.3-1.1v-1.1c-1-.2-2.1-2.4-2.6-3.2-2.7-2.2-3.6-5.9-7.6-6.2l-.7-.7-.9.5c-.7-.6-2.9-.1-3.7,0l-1.3-.6a31.3,31.3,0,0,1-4.9-14.2l-.7-.5v-1.3l-1.6.5-1.2-1.1h-.6l-.6-.9.3-1-1.6.3c-.8-.9-.7-2.7-1.8-3.5-.8-3.2,1.1-5.1-1.6-7.8l.3-.8,1.2-.5-.2-1.1a9.3,9.3,0,0,1-3.2,1.3l-2.1-1-.4.8c.4.5,3,2.7,3.2,3.5l-.2,1.3a2.6,2.6,0,0,0-2.1.2,5.3,5.3,0,0,1-3.2-3.6c-1.1-.3-3.7-3.8-4.3-4.6v-1.8c-1.6-1.9-3.5-5.4-3.8-7.8a15.9,15.9,0,0,0-3.2-1.6v-1.9l2.1-.2-.6-2a4.5,4.5,0,0,0,.8-2.6,8.5,8.5,0,0,0,2-2.2l-.3-1.1c1-.5,1.8-2.3,2.1-3.2a6.1,6.1,0,0,1-1.1-3.1h-1.4a3.1,3.1,0,0,0,0,2.8l-.4,1-1.4-1-.3-2.7a6.5,6.5,0,0,1-2.9-1.4l-.6.3-1.2-.8a6,6,0,0,1-.3,3.5,4.9,4.9,0,0,1,2.9,1.3c.2,1.1.3,4.2.5,5.3l-1.1.3a8.7,8.7,0,0,0-2.3-1.6c-.1-.5-.5-2.1-1.1-2.2l-1,.4c-2.5-3.5,1.6-6.4-.8-11.3,1.5-2.6,1.2-6.4,2-9.1l-.4-.5a10,10,0,0,0-.3-5.4l.7-1.9c-.7-.7-.7-2.4-.7-3.4l-1.4-.5v-1.1l1.3-.3.3-.8c-.8-1-2.4-1.3-3.1-2.2a3.1,3.1,0,0,0-.9-2v-1.1l-1.8-.6v-1.9l-.3-.5c-1.3,0-6,.5-7.1-.3v-1.6l-.8-.8h-1.5a5.6,5.6,0,0,1-.9-2.1,15.5,15.5,0,0,0-2.1-2.3l-1.6.2a6.5,6.5,0,0,0-3.2-2.9c.2-1.4-1-3-1-4.4l-2-.5-.4-1h-1.6l-.6-1.1-.8-.3-.3-1.1.5-.8c-2.4-1.2-4.3-4.8-7.2-4.3-1.3-1-4.2-3.1-5.8-3.2L255,329c-1-.3-2.9-.7-3.9-.3v1.2l-1.4.2-1.3,1.3.8,1.6-.9.6,1.6.6-.4,1.5a5.2,5.2,0,0,1-2.7-.7l-.8.7h-1.6a13.3,13.3,0,0,1-3.8,2.9c-.8.7-3.5,3.1-4.5,3.2v-1.6l-1.2.3.2.8-1,.5-.4,1.1c-.8.4-3.9.5-4.8.5l-1.2,1.3-2,.3-1.2,1-.9-.2a8.8,8.8,0,0,1-2.1-5.6l1.1-1.3.7,5,1.2,1.1c.8-1.1.7-3.3.4-4.6a19,19,0,0,1-2.6-3.7,11.9,11.9,0,0,1-3.2-1v-.9l-4.5-2.1-.3-.9c1.1-.2,3.8,1.2,4.8,1.7l-.5-2.4-1.8.3c-.8-.3-3.3-.9-3.8-1.9l.6-.6-1.6-2.7-1.4-.2a4.5,4.5,0,0,0-1.4,2.4l1.1.3.6-.8,1.3.8.5,2.7h-.8c-5.3-4.3-13-6.4-19.5-6.7l-.5-.9h3.7l.9-.7a17.3,17.3,0,0,1,4.5.5l.6-1a5.1,5.1,0,0,0-3.3-1.7l-1,.6h-1.7a4.2,4.2,0,0,1-2.1.8l-.8-1.3h-1v1.5h-1.1l-.6,1c-4.3,1.1-10.2,1.4-14.2,3.8l-.5-1.1c1.1-.3,4-1.3,4.6-2.5l-.3-1-1-.6-.6-1.6-1,3-1.1.2v-1.5l-1.4-1.4-1-.2,1,2.4-.5,1.9c-.6.5-2.7,2.3-2.9,3.1l-1.6.3-.6,1-2.1.9-.6-.5,1.3-1.1a3.1,3.1,0,0,1,.4-2.1l1-.3v-.9l-1.8-1.6c-.3-.8.7-2.9,1-3.7l-.5-1.9c-1.4-.7-4.9-4.3-6.1-5.5a4.4,4.4,0,0,1,.4-2.5v-2.4C183.4,306.3,207.7,303.3,228.9,301.7Z"/>
      <path class="cls-1" d="M329.4,252.9l1.1.2.2,1.1c-.3.6-1.8,1.4-2.4,1.8l.5,1.6-1.5,1.1-2.2-.2.6,1.8,1.2.8a5.6,5.6,0,0,0-1.3,2.2l-1.8-.2.2,2.3,1.1-.3a8.2,8.2,0,0,1,0,4.4l-1.1-.6-1.6,1-.2,1.1,2.1-.7.3.7a10.6,10.6,0,0,0-.8,4l-1.1-.3-.6.4v2.3l-.3.4-1.7-.3-.8.7,1.2,1.9-.8,2.1.5,2.2-.8.3-1.4-1.4-.2,1.7,1.5,1,.8,1.9.6-.6.2-1.9.6.4.2,1.8c-.7.6-2,1.9-2,2.7l1.3.3c-.9,1-1.1,3.5-1.1,4.8l1,.8-.4,1.8c-.6.6-2.4.6-3.2.5l-.4-.5-1,.5c-1-1-3.8-1.6-5.1-1.8l-.5-.6-1.3.3-.8,1.3h-.9c-1,2.4,0,5.5,1.1,7.7l.3,6.4a9.4,9.4,0,0,1-3,.5l-1.5-1c-.1-1-.4-3.7-1.4-4.2l.6-1.2c-22.7,1.6-46.6,2.7-69.1,4a11.5,11.5,0,0,1-2.3-2.1l-.3-3.4c-1.8-1.6-3-4.6-3.5-7-2.1-.6-2.4-3.7-2.7-5.4l.4-.7c-.1-2-.6-5.4.2-7.5a12,12,0,0,0-2.1-5.1c-1.1-3-1.7-7.3.3-10.2-.1-1-.6-4.5-.3-5.5s1.9-2.7,3.4-3.5c-.7-1.1-2.3-1.4-2.9-2.5a5.7,5.7,0,0,0,.3-2.9,4.1,4.1,0,0,1-.6-2.4l-1.8-1.8a4,4,0,0,0-1.6-2.5c0-1.6-2.2-6.2-3.2-7.5s-1.9-7.7-2.2-8c-4.8-19.7-11-40.7-16-60.4,8.7-.8,22.7-2.9,31.3-3.8l.2-.4v.2c9.1,0,20.5-3.4,29.6-3.8-1,3-4.7,6-5.2,9.6l.7,1.6.9.3,1.2,1.4h1.7c3.9,2.7,2.6,3.5,8,3.5a5.5,5.5,0,0,1,2.1,3.2,20.9,20.9,0,0,1,3.8,6.4,16.6,16.6,0,0,1,5,6.2c4.1,3.1,9.1,5.6,11.8,10.4l1.6.2c1.4.8,3.3,2.9,4.8,3.5a6.9,6.9,0,0,0,.5,4l1.7.5a5.2,5.2,0,0,1,1,2.7l2.2.6v1l1.1,1.4c2.1.5,5.4,1.8,6.8,3.4v2.1c.5.4,1.6,1.6,1.6,2.4l.8.3c.2.8,1.2,3.7.7,4.5l.6.8V235l1.6,1.6c4,.3,5.3,4.7,7.2,7.5,0,1.2,0,3.7-.1,4.7l1.2,2c.7.5,2.6.5,3.4.5S329.4,252.9,329.4,252.9Z"/>
      <path class="cls-1" d="M136.1,178l1.6,2.9h.6c-.6,49.9-2.4,100.4,4.5,149.7h-1l-.6.7h-1.6l-.9-1.8h-.5a5.1,5.1,0,0,1-4.7,1.9l-.4-1.3-2.3-1.1-.5,1.9-1.4-.3a7.6,7.6,0,0,1-2.7.6l-5.3,2.9-.8-.3v-1.1h-1.3l.3,1.4c-1.1.7-2.4,2.3-2.4,3.6l-2.6,1.4a5.3,5.3,0,0,1-2.5-5.1l-.8-1c0-2.2-2.1-4.4-3.7-5.7l-.6-3.2-.8-.5c-.3-.8.8-4.2.9-4.9a18.8,18.8,0,0,1,1.2-4.8l-.8-1.3c-14.3.9-33.6,2.2-48.1,2.9l-.4-.8,1.3-1.6-1.3-2.6a5.6,5.6,0,0,0-.6-4h1.8l.8-.6v-1.8l-1-1.1.2-1.8,1.9.7v-1l-1.2-1.7v-1.8l1.8-.8v-1.4H60.8l.4-1.3,1.6.3a6.3,6.3,0,0,1,.9-3.8h1.1l.8-1-1.7-.6v-1.3l.9-.6,2.1.3v-1.8a11.1,11.1,0,0,0,1.7-3l1.6-1.1-1-1.8h1.6c.5-.2,2.3-3,2.6-3.3l-1.4-.7-.4,1L69.8,278,68,277v-2l5.2-.8a8.6,8.6,0,0,1,1.2-3.5,13.5,13.5,0,0,1-2.9-1.6l-.3-2.1-2-.8-.4-1,.4-.9,1.8,1.6.5-1-1.8-1.6,1-1.1v-1.1l-.8-.2-2.2.8c0-.5-.2-2.1.1-2.5l1.6-.8v-1.3H68.2l-.8-.5c-.8-1.4.9-4.5,1.4-5.8l-.9-.4c-.3.6-1,1.7-1.6,1.9l-1-1v-1.7c.7-.8,1.8-2.1,1.6-3.4l-1.3-1.3.4-.9h.9l1-.8a12.3,12.3,0,0,1,.9-2.9l-.3-1.1-1.6,1.3-1.3-2.8.2-.6c.6-.5,2.1-1.6,2.2-2.4l-.9-.3-.7,1.1-.9.5-.2-1.1,1.3-1.6-1-.7-.9,1.5-.7-.5.5-1.6-.8-1.9,1.8-1.1v-.7a13.5,13.5,0,0,1-1.6-2.9l.8-.4,1.3,1.1,1.9-.3-.3-1-1.4-.3v-1.1l1.6-1.5c.4-1.1-.5-2.7.3-3.8l-.6-1.9.6-1.1.9,1.1c1-.7,2.1-3.1,1.8-4.3l-1.4-1.5,1.4-.6,2.2.5V209l-2-.5v-1.1h1.6l1-1.6,1.4-.3c-.1-.7-.6-2.4-.1-2.9a5.3,5.3,0,0,0,3.2-.8l.9-1.6-.3-2.2,1-1.6c.1-.7-.8-2.1-1.2-2.6l1-1.6,1.8.8-.5-1.9-1.8-.3v-1l1.8.2a6.2,6.2,0,0,0,.9-2.9,6.9,6.9,0,0,0,3.9-3.4l-1-2C101.3,181,119.8,179.3,136.1,178Z"/>
      <path class="cls-1" d="M423.5,82.9h.8c2.1,4.4,4.8,11,7.7,15.1,1.9,1.8,3.8,5,5.1,7.1l-.6.8a16.9,16.9,0,0,0-4-5.6l-.2-1-1.7-.6a11.6,11.6,0,0,1-1.3-3.7C427,91.9,425.3,86.4,423.5,82.9Z"/>
      <path class="cls-1" d="M377.2,183.4c-6.7-6.1-18.9-15-26-20.4v-.2c-.5-.1-6.6-5.3-7.1-5.1-8.1,1.4-18.4,3-26.5,4l-.5-3.5-4.9-5.6-2.1,2.2-.7-1.3.5-2.2c-10.7.8-23.1,2.9-33.7,3.5l-.6,1.3-1-.3c-1.3.9-3.3,2.9-5.1,2.4v1.1l-1.6,1.1-1-.3c-1.5,1-5.4,3.2-7,4-9.1.5-20.4,3.8-29.5,3.8l-.2-7.6,1.1-1.8,1.8.8a6.6,6.6,0,0,0,3.3-2.4c0-1,0-2.9-.1-3.8,2.5-4.2,6.2-7.4,11.3-6.6a54.4,54.4,0,0,1,4.2-4.1l.6-.2c1.1-1.9,4.3-4.8,6.6-5s1.7-2.2,2-3.1l-.8-1.6,1.2-1,.9.5.8-1.1v-.8l2.7-3.1,1.4.8a3,3,0,0,0,.3,2.1c2.1.6,3.5-1.9,4.5-3.2a5.4,5.4,0,0,1,1.1-2.6,8.7,8.7,0,0,0,4-1.6,4,4,0,0,0,2.4,1l1.4-1.4a15.4,15.4,0,0,1,3.4-7.7l2.7-.2a3.8,3.8,0,0,0-.9-1.9,6.9,6.9,0,0,0,.1-5.1l1.1-1.6c44.5-3.8,88.9-13.1,132.3-22.8l.2.3-.6.9v.8l1.3.2,2.2,2.9.8-1.1c.7.8,1.6,3.6,1.9,4.6s2.8,3.7,2.1,5.4c-.5-.8-1.4-2.7-2.4-3v-1l-1.6-.5.2,2.6c-.5-.5-2.2-1.8-2.9-1.8l-1.3-1.2-1.2.6,1.7,1.3v.8l2.1.8v1.1l-1.7.3-.5,1-2.4-2.1a7.7,7.7,0,0,0,1,2.9,11.4,11.4,0,0,1-3.5-1.3l-.7,1,1.6.6-.8,1-1.7.3.6,1.1-.2.8-1.4,1.1-2.6-.8-.9.5a2.5,2.5,0,0,1-.8-2.2c-.8-.5-1.1-2.6-1.3-3.4l.7-.6-.2-2L406,93.5l-.7.9,1.3,1.8-.6,1.7a17.6,17.6,0,0,0,2.8,6.9l-.6,1v1.7c1.8-.3,4.2-1.9,6-2.2l.3-.8,1.1-.5.6,1.5a2.7,2.7,0,0,0,2.1-.7l.3-.8c1.2-.9,4.3-1.9,5.8-1.6l-.2,1h1c.1,1.5-.5,3.2.3,4.7l-1,1.1,1.3.3c.2.5.7,1.8.3,2.2l-1.2-.3v.8l2,.3a11.3,11.3,0,0,1,.5-3.2c.2-1.6-1.1-3.8-.5-5.4l1.8-.3-.3-1,.6-1.2,2.3,1.1a5.7,5.7,0,0,0,2.2,3.2,6.5,6.5,0,0,0,.6,3.8l-1.1.6c.3.5,1.5,2.1,1.1,2.8l-1.7,1.6-1.3-1.3a5.6,5.6,0,0,0-.5,2.5l-1.1.7a5.4,5.4,0,0,1-.5,3.3l-1.6-.4.5,2.2c-.6.1-1.4,1.3-1.8,1.9l-1.4-.2-.8-.6-1.3.6-.9-.9-.5,1.3L420,123l.2-1.4-1.6.9-.3.8-1.2.2-1.2-3,1.7-1.1.2-1.6-1.3-.4.3,1.2-2.1.8-1.2-.7-.5,1.1,1.7,1-.3.6.8,1.1-.8,1.3-1.6-.8a3.6,3.6,0,0,1-2.5,0l-.8-1.1-1,1-3.5-.8-.3,1.1a8.9,8.9,0,0,1,3.5,1.4h1.7l.4,1.1,1.4-.6v1.1l.5.5,1.3-.8,5.4.5a7.2,7.2,0,0,1-.5,3.8l-1.3-.3-.9,1.8h.9l1-.6.6.6c-.6.8-1.9,2.4-1.9,3.5l-1.1.5-.6,1.4a4.5,4.5,0,0,0-2.3,1.3,6.4,6.4,0,0,0-2.9-1.3l-.6-1.1c-1-.1-2.9-1.6-3.7-2.2l-.4,2.5c1.6.5,3.5,2.3,4.6,3.6h.9l1,.6,1.4-.2,1,.7,1.1-1.8,1-.3.3,1.6.8-.2-.5-1.6.5-.9,1.1,1.4.7-.6-.8-.8v-1l2,.2v-2.6h.9l.2,1.3.8.5-.8,1.3,1.7-.4.7-2,1.3,1.1.3,1.1-1,.6.7.8-1,1.2h-.8l.2,1.1-1,.7.3.9-.9,1v1.1l-1.1,1-.9-.2V144h-1l-.2,1.9-.9-.7-.5-1.4-1.1.6.8,1v1.1a12.6,12.6,0,0,0-8.3,3.2,7.9,7.9,0,0,1-1.6-3h-1l1,1.6a5.7,5.7,0,0,0,0,2.9l-1.1.5c.1.8-1.3,2.1-1.8,2.7l-1,.2-1.6-1.3,1-1.3-1-.8v-1l-1.2-.4L400,151l1.3.9v1l-.8.5.5,1.7,1.4.2.2,1a12.1,12.1,0,0,1-3,2c-4.4,5-7.7,11.5-6.6,18.3l-.8-.5v-2.3l-.9-.6a11.6,11.6,0,0,1-1.5,6.7l-3.3.3-.8-.5-2.6,1.3-1.3-.5-2.2,2.4Z"/>
      <path class="cls-1" d="M421,83.4l1.4-.3h.3l.8,1.8-1.4.2-.8-1.8Z"/>
      <path class="cls-1" d="M260.1,164.6c1.6-.8,5.4-3.2,7-4l1,.3,1.6-1.1v-1.1c1.7.4,3.8-1.6,5.1-2.4l.9.3.7-1.3c10.5-.6,23.1-2.7,33.7-3.5l-.5,2.2.6,1.3,2.1-2.2,5,5.6.5,3.5c8.1-1.1,18.3-2.7,26.5-4,.5-.2,6.7,4.9,7,5.1h0c7.2,5.5,19.5,14.4,26.1,20.5-6.4,4.8-10.4,12.6-12.2,20.1l-1.4,1-.3-1.9h-1c-.2.8.5,2.3.8,2.9l2.1,1.1v1.9l-1.2.7.3.9a4.6,4.6,0,0,1-2.6,1.8l-.3,1.3-1.1.3-.5,1.1-2.1.3c-.3.7-2.5,3.2-2.2,4l.6.7a17.2,17.2,0,0,0-4,4.9l-.9.2-1-1.8-.9,2.3,1.1.3v.8l-.8.6-.3,1.9a14.4,14.4,0,0,1-3.7,1.5l-.4.9h-1.8l.2,1.8c-.5.6-2.1,2.4-2.9,2.5l-1.3-.8c-.6.7-2.4,1-3.2,1l-.3,1.3,1.9.6v1a4.4,4.4,0,0,0-1.6,2.7l-1.4,1.6h-1.1a20,20,0,0,1-3.7-4l-.7.2v1.9a6.2,6.2,0,0,1,2.1,4.9l1.5-1.6,1.1.7v.8c-.4,1.1-1.4,3-2.5,3.6l-.8-.4c-.3.8-1.6,2.7-1.1,3.6l-3.1-1.1c-.8,0-2.7.2-3.3-.5l-1.3-2a35.4,35.4,0,0,0,.2-4.7c-2-2.8-3.4-7-7.2-7.5l-1.6-1.6v-1.3l-.7-.7c.3-.8-.5-3.7-.6-4.5l-.8-.3a4,4,0,0,0-1.6-2.4v-2.1c-1.4-1.6-5-2.9-6.9-3.4l-1.1-1.4.2-1-2.3-.6a6.2,6.2,0,0,0-.9-2.7l-1.8-.5a9,9,0,0,1-.5-4c-1.4-.6-3.3-2.7-4.8-3.5l-1.6-.2c-2.5-4.8-7.6-7.3-11.8-10.4a14.7,14.7,0,0,0-4.9-6.2c-.4-1.9-2.6-4.9-3.9-6.4a5.2,5.2,0,0,0-2.1-3.2c-5.5.2-4.1-.8-7.9-3.5H258l-1.1-1.4-1-.3-.6-1.6C255.4,170.6,259.1,167.6,260.1,164.6Z"/>
      <path class="cls-1" d="M363,.8c2.1-.3,4.1,1.1,5.9,1.6l.3,1c-.5.6-1.4,2-1.1,3s2.5,1.6,3,1.9a5.6,5.6,0,0,1,3.4.3l1.1,1.6c4.8.5,5.4,3.9,6.2,7.9a6.2,6.2,0,0,0-2,3.6l-1.5,1.1c-.8,2.9-1.7,7.2,1.3,9.2,1.1-.2,2.2-1.8,3.3-1.8l.8-1,1,.2.3,1-.3,1.1a7.5,7.5,0,0,0,2.6,2.1v.9c2.2,1.1,5.4,1.6,7.9,2.1l.7-.5a5.6,5.6,0,0,1,2.1,2.7l1.1.2.6,1.3,1-1a17.8,17.8,0,0,0,5.3,2.1c.1.5.6,1.7.3,2.2l-1.3.3-.3,1.5.8.9c0,.5,0,2-.5,2.3l.8,1.9-.6.5-2-.4-.6-.8-1.3.7c-.6-2.2-3.3-3.7-5.4-4.5l-1.1-1.7c-1.8-.4-3.7-2.6-4.8-3.9l-.3,1.3,2.2,2.4c1,.2,2.1,1.6,2.5,2.4l1.2.3.9,1.5a4.8,4.8,0,0,1,3.7,3.9l1.1.5,2.3-.5,1.4.8,1.4-.3.4,1.1-3.1.5a3.5,3.5,0,0,0,2.6,1l1.4,1.3h1.1a3.9,3.9,0,0,1,.3,3.5c-.9-.3-2.8-1.1-3.3-2.1l-1.3,2.1,1,.8-.8.9.6.7,1.1-.7.7,1.3-.3.5-2.1.2c-2.9-1.5-6.3-4.8-8.7-7.2l-.8.9c2.8,2.4,6.9,8.2,10.8,7.5l1.4,1.6,1.6-.3v2.1l1.1-.5.8,1v1.6l-1.3.3-1.7,1.7-1.8-1.9h-.8l-.9-1.2-.8.4-1.2-.8.2-1L401.5,66h-1.6l-1,.6-3-.8-.3-1.9-.8.3V66h-1.5l.5,1.2c1,.6,3,.3,4,0l1.1,1.1,2.1-.2a8.5,8.5,0,0,1,.8,3.5l1.1.5h.8l.3,1.1,1.2-.3,1.6.8.4,2a8,8,0,0,1,3.9-.8l.3-.6-.5-1.1.6-1c1.5.8,3.7.5,5,1.3l1.3-1.3.9.3a47.5,47.5,0,0,1,2.8,5.5,17.5,17.5,0,0,1,2.8,5.2l-.8.2-.3-1.8-1.7-1.1-.5,1a5.1,5.1,0,0,0,1.1,2.2,4.2,4.2,0,0,0-1.8.8v-.3c-43.5,9.7-87.9,19-132.3,22.8l-.3-.7-6,.9-.4.6c-13,2.3-27.7,4.5-40.8,5.8a14.4,14.4,0,0,1,5.8-3.2c1.3-.8,4.9-3.2,6.2-3.5l.3-2.7c1.3-1.1,3.5-1.6,4.8-2.7a5.3,5.3,0,0,0-.1-2.8l.4-.8a8.8,8.8,0,0,0,2.8-1.7l-.4-2.7c.4-.4,3.9-3.1,3.7-3.5l4.8-2.9c1.4-2.9,5.4-7.1,7-9.9l.8.9-.9,1.3a5.9,5.9,0,0,1,1.4,2.7,8.4,8.4,0,0,0,2.7,2.9l1.3-.2c1.9,1.8,3.4,2.6,5.9,2l1-1.8.6-.2c1-.4,1.8-2.2,1.9-3.2a12.3,12.3,0,0,1,3.1,2.4l1.4.2c1.1-1.1,4.3-2.9,5.9-2.7s2.1-1.6,2.3-2.3l-1.3-1.1.9-1.2H304l.7,1.1c.8-.6,4.6-4.1,5.7-4l.6,1.2h.8c.5-.7,2-2.9,2.8-3.2l-.8-1v-.8l2.5-1.9-1.7-.7-.7-1.2c.3-4.7,3.5-8.8,5.5-12.8.4-3.5,0-6.1,2.8-8.8l-.6-1.1c0-.7,1.1-1.6,1.6-2.1.5-2.2-.6-5.3.2-7.5l.6-.6,2.5,1.2,1.5,2.9a13.1,13.1,0,0,0,4.5.3c2.2-1.9,1.7-7.6,3.3-9.9a3.6,3.6,0,0,1,.5-2.5l-.2-1.2,1.3-1.7,3.2,2.1c.5-1.8.8-5,2.1-6.4l.8.5.8-2.1,1.1-.3L346,15l-.4-.5c.4-.8,2.7-4,2.7-4.9l-1-.7.5-2-.6-.3,1.1-3.4h-.7a8.9,8.9,0,0,1,.5-3.2c1.9,1,11.2,6.9,13.3,8.1l.3-.3A26.5,26.5,0,0,1,363,.8Z"/>
      <g id="_03" data-name="03" class="cls-2">
        <path class="cls-3" d="M313.2,494.1c-1-2.8-6.2-.4-6.7,1.6C306.6,499.4,313.4,496.9,313.2,494.1Z"/>
        <path class="cls-3" d="M442.1,122.3c1.3-11.8-19.3-54.1-27.8-48.5-.8,5.6-4.4,6.2-7,3.2.8,3.2-2.2,2.5-3.3,3.8-7.7-2.6,1.1-13.9-10.9-15.3-1.1,3.6-3.7,1.9-6.7,0s-5,4.4-8,2.4c-4.2,3-8.8,7.6-13.1,3-4.6,3.3-5.6,6.9-12,2.1-5.1-10.9-11,3.3-12.6-2.4-5,2.1-5.6-9-11.4-1.9-1.4-2.6-2.5,2.7-4.4,2.7s-3.7-2.7-3.9.6c-4.1,4.2-9.6,1.9-8.1,9.6,4.1,1.4-4,1.8,1.1,3.5,7-2.2,8.9-2.7,4.2,5.6-6,5.4-.5,7.2-9.3,8.6-1,0-1.5,2.6-2.6,1.6s0,.2,0,.4c.7,2.5-.3.9-1.6,1.5s-2.8,5.8-.8,5.3c0,1.5-1.9,0-2.5-.5-2.4-.4-3.1,4.2-5.8,3.1-1.6,2.2-.5,3-3,5.2-6.1,1.3,2.2,3.2-7.8,5.3-2.4-.5-1.8,5.5-2.6,8.5-4.8,1.6-4.6,8.1-6.9,11.3.4,1.3,1.5,2.1-.3,2.9,0,1.1,2.1,0,1.5,1.6s1.4,1.1,0,2.2c-1.5,4.4-3.1,3.9-5.3,7.4,1.1.5-2.9,2.2-2.9,2.7-1,2.4-1.3-.3-2.2.5s-1.6-1.9-2-.5-.4-1.4-.7-1.4-2.9,0-1.3.6c-3.1-.9-3.4,1.9-5.3,4.2-1.9-1.6-1.6,2.8-2.9,4.4-3.2,1.3-2.7-1.6-5.1-3.3-2.5.6.2,11.5-5.1,7.8-1.1,1.6.3,4.5-2.9,3.4-3.2,4.8-9.2,6.2-10.4-3.1-8.3,6.7-1.6-6.5-7.8-4-1.7-1.9-4.5-1.1-5.3-4-5.1,3.7-.6,15.4-8,15.7-2-9.3-5.7,11.7-6.2.5-5.3,3.3-10.7,22.2-14.7,20.1.2-6.1-7.2-1.6-8.3,1.9-1-2.4,2.4-9.6-3.5-5.1-4-1.7-3.8,1.5-7.5,1.9-23.2-11.9-8.6,8.3-24.6.7-11.5-4.5-6.9-15-11.4-12-4.9-4-2.7,2.1-5.6,1.7-3.6-4.6-3.3,3.4-6.5,4s.8,5-1.6,6.9c-.2,2.2-2.7,2.9-2.4,4.8a86.6,86.6,0,0,1-.2,16.1c5,15.7-11,11.1-12.3,26.2-2.2,7.2-4,13.3-10.5,16.8-2.9-1.4-2.7,3.5-4.2,5.3-3.5,6.1-1.1,14.1-1.7,20.3-.3,2.9-4.2,3.3-3.9,6.9-.8.8-1.9,2.2,0,2.4s-1.2,1.4,1,1.9c12.1,12.1-1.6,13.2,8.3,15.5,1.4,2.4,2.9,5.7,5.1,7.3,1.8-.5,2.7,1.5,4.2,3.4,4.1.5,2.5,6,6,8.9,2,6.9,3.2-1.4,8,6.7,4.5-2.7,8-7.3,14.4-3.5,111.1-38.8,78.9,39.5,124.8-9.9,17.7-.3,21.7,30.4,36.6,27.7,6.1,28.1,6.4,52.4,27.8,77.8,9.1,13.1,6.7-7.9,16.8,19.9,16.3,1.6,15.5,18.2,27.3,28.5.9,4.6-15.8-2.3-19.8,6.5-2.9,5.9-17,3.1-13,9.9,5.1-1.9,9.9,6.3,11.9-1.6,93.3-27.4,1.2-136.3-18.4-193.8-8.5-31.8,10.7-61.5,32.7-84.2,13.5-8.3,6.7-42.6,32.5-37.8,5.1,3.8,1.7-9.3,4-11.9,3.2-9.7,17.9-28.1,27.4-18.2C424.2,139.6,431.9,127,442.1,122.3Z"/>
      </g>
    </g>
  </g>
</svg>
