<svg xmlns="http://www.w3.org/2000/svg" width="500" height="500" viewBox="0 0 500 500">
  <defs>
    <style>
      .cls-1 {
        fill: none;
        stroke: #999;
        stroke-width: 0.75px;
      }

      .cls-1, .cls-2 {
        stroke-linejoin: round;
      }

      .cls-2 {
        fill: #5c98ff;
        stroke: #fff;
        stroke-linecap: round;
        stroke-width: 2px;
        opacity: 0.5;
      }
    </style>
  </defs>
  <g id="hucs">
    <g>
      <path class="cls-1" d="M88.3,341.5l.5-3.1,1.3-.4c1.9-2.8,2-9,.7-12.1,1.3-3.7.5-8.5,1.5-12.2.7-1.5,1.1-4.5.4-6.1a6.9,6.9,0,0,0,.1-3.8l.9-1.5c1.9-.7,4.9-1.4,6.6.1a6.7,6.7,0,0,1,4,1.6v2.6a3.9,3.9,0,0,0,4.3,1c5.4-6.4,6.8-25.7,9.1-33.5,42.2,7.8,85.2,15.3,127.7,21.2-9.3,65.3-19.2,135.6-28.3,201.4-18-2.6-39.2-5.2-57.1-8.9-31.4-18.9-63.2-38.8-93.7-59a32.4,32.4,0,0,1,3.4-7.3c.9-.3,3.2.4,4,.5l1.3-.5a16.1,16.1,0,0,1,2.7-3.6l.7-4.4-1.2-1.9-3.1-1-.9-1.2c-.3-1.4,1.2-5.2,1.6-6.4l-1.1-2,.9-1.5v-1.8a11.5,11.5,0,0,0,3.8-2.7v-1.1l1.5-.3,1.8-2.8c0-.9.1-2.8.8-3.5,0-2.9.2-8.5,3.7-9.2,0-1,1.7-2.9,2.2-3.8,2.1-.5,5.1-1.7,6.4-3.6l1.6-.4c.5-3.1-3.1-6.4-4.9-8.5.2-2.4-.3-6.4-.3-8.8l-2.6-4.2,1-1.2-1.3-1.8C88.2,345.1,88.2,342.5,88.3,341.5Z"/>
      <path class="cls-1" d="M264.9,151.6h0v0Z"/>
      <path class="cls-1" d="M400.7,311.8l-1.3,18.9h-1.2c-3.5,50-8.8,111.4-12.8,161.1-31.3-2.5-67.2-5.4-98.3-9.2l-.7.3c.4.9,0,3.3-.2,4.2a17.8,17.8,0,0,0,2.3,3.3l-46.4-5.8c-.5,2.7-1.9,12.5-2.2,15.5-6.4-.7-16.5-1.7-22.9-3.1,9-65.8,18.9-136,28.3-201.4l40.6,5.4.3.5C323.7,304.9,363,310.9,400.7,311.8Z"/>
      <path class="cls-1" d="M151.7,95.3c21.9,4.5,49,9,70.8,12.7-1.5,8.7-4.5,27.2-5.9,36.1,12,1.7,36.3,5.4,48.3,7.3-6.8,46-13.7,97.9-19.6,144.1-42.6-5.9-85.6-13.4-127.8-21.2C128.4,215.8,140.9,153.8,151.7,95.3Z"/>
      <path class="cls-1" d="M264.9,151.4c-12-1.9-36.3-5.6-48.3-7.3,8-47.4,15-96.7,23.3-144.1,52.4,8.3,105.7,14.4,158.5,19.1-4.2,47.6-8.3,97.7-12.5,145.3-39.4-3.1-81.6-9.4-121-13Z"/>
      <polygon class="cls-1" points="264.6 152.2 245 296.3 285.6 301.7 360.4 310 400 311.8 425.2 314.4 433.7 169.6 385.6 165.3 328.1 159.7 264.6 152.2"/>
      <path id="_14" data-name="14" class="cls-2" d="M255.8,54.8c13.1,8.5,4.2,1.9,8.9,14.2.9,1.4,0,2,.2,3.3,2-.1,2,3.3,4,3,.8,4.5,3.3,6.4,4.1,8.7,2.1,10.4-8.7,2.6,3.7,13.5,1.5,1.1-.6,5.4,3.3,4,1.2.7,1-1,2.4-1s2.3,2.1,4.2,2.6,5.9,3.8,6.4-.4c1.7,1.4,2.6.2,3.6-.8,3.3,1.5,1.4-1.1,3.2-2.3,2.2,12.3,8.6,1,8.3,5.4,1.2,1.9,4.7,2.8,6.6,2.9,1-2.2,2.9-.5,2.1,1.3s.1,1.5,1.5,1c3.5.9-2.6,6.4-.3,10.1-3.1,4.8-3.7-4.7-5.4-.7.2,1-.2,2.4-1.2,2.7s.3,3.2-1.1,4.4c-3.8,1.7,2,3.3-2,5.4,1,.5,4.5.3,2.7,2.9,1.3.5-2.6,3.1.9,4,1.6-1.9,1.1.4,2.4.7.2,3.5.4,5.7,3.7,8.2-1.4,2.4.5,1.5,1.9,3.3-3.6,2,1.6,2,0,3.6.3,4.5,5,2.4,5,7.1-2.6,2.8-3.4,17.9,1.2,15.3,1.8-2.1.6,2.1,2.1,1.7s1.9,1.8,3.7.4c1.5,1.9,3.3,1,5.7.3s1.9,1.8,3.3-1,3-4.2,3.1.5c.4,2.4,3.5,4.2,2.5,6.3s1.7,6.6-1.6,8.6c0,3.3-.3,7.3-4.2,7.3-1.4-2-4.3,5.6-1.4,4.4.6,1.4,3.7,2.1.7,3.3-.3,1.5.6,1.5-1.2,2.1.5,2-3.1,1.5-2.6,3.4-2.9,3.2-5.4-.1-8.7,1.4-4-1.7-2.2-.8-4.7,1.1-1.9-.4.2,5.2-2.4,5.2s-3.3,5.9-.5,6.4c0,3.8,3.6,2.1,4.9,3.3-1.6,2.9-4.4,5.2-3.7,9,2.6,1.8.9,6.3,3.7,8.5.7,3-2.1,2.8-3,4.7-3.1.2-3.8-2.8-5.7,1.4s-7.7,3.8-6.8,8c-1,2.4-3.5,1-4.7.3-1.2,1.1-2.1.6-3.5.4-2.9.7-4.8.2-7.2,2.8-1.6.1-3.7-.9-4.2,1-2.4,1.4-.4,5.4.9,6.9a7.2,7.2,0,0,1,5-1.5c-1.2,2.8.7,4,2.8,2.4a3.9,3.9,0,0,0,4.1,3.1c3.2-.8,1.4,2,2.8,3,1.9-.7.5,2.3,2.8,1.4,4.7,1.9-1.4,3.3,1.4,5.4-2.3,2.6,4,4.3.3,7.1-.5,3.1-1.5,3.1-3.1,5s1.2,2.4-.3,3.1-7.2,2.3-5.9,4.4c-2,2.6-2.7,5-2.3,7.6s-2.3,3.1-1,4.5a16.6,16.6,0,0,1,0,8c-3,.5-1.8,2.3-5.3,4-2,1.1-4.6-1.5-6.6,1.1a8.1,8.1,0,0,1-7.2,6.7c-4.9.4-4.2,5.1-8.4,6.6-2.1,2.8-1.9-.1-4-.3-5.7,2.4,1.8-3.1-6.7-2.5-9.4-7.6-9.2,2.8-11.2-.6-.3-1.4-2.4-2.1-3.6-3s-2.3-5.6.2-6.8,3.8-2.4,2.2-4.5c-.7.4,1.8-2.1.2-1.9-7.8,6.8-1.2-4.7-9.7,4.7-4.9-1.7-5.9,3.1-9.4,1.9-.3-.7-1.4,1.7-2.6,2.1-1.4-1.9-2.3,1-2.4-1.1-1.8.4-1.6-1.9-3-2-.3-1.8,1.1-2.1.2-4.2-1.4-5.6-1.9-7.8,2.6-11.6,2.4-4.4-2.3-5.9-4-9.1-.5,0-1,1.4-1.6-.1-3.3,0-2-3.3-2.9-4.9s-1.6-2.6-3.7-2.8-2.2,3.7-3.6,3c1.4-3.5-1.7-5.6-.7-8.5-2.4-2.1-5.4,5-8.7,5.7s-5.9,4.5-7.4.3c-.7,0-2.8,0-3.3-.5-1.4,1.1-1.4,1.6-1.6-.2-1.6,1.4-.7-2.2-1.7-3.1s-4,6.1-4.2.4c1.9-1.6-1-2.5-.7-4.2,2.8-2.6,2.3-9.2-1.4-5-2.4,1.2-3.6,5.7-5.5,1.5-3.7.4-5.2-5.7-4-8.8s-.7-3.5-1.9-5.1c1.7-4.3-1.8-7.6-.6-11.6,4.2-1.7,0-4.7,5.2-5.7,2.1-9.2,8.6,3.6,8.9-9.4.7-4,4.9,1.7,5.2-5.4-6.1-1.9-2.9-12.8,1.6-16.5,2.9-11.3,8.8-2.6,9.3-13.3,2.6-1.4.4-2.1,0-3.3a47,47,0,0,1,3.2-9.6c.7-4,6.2-6.1,5.2-11.3-.7-17.2,3.8-.7,5.5-9,4-.9-.8-5-1.4-6.6,3.2-2.8-2.2-9.2,1.6-9,0-5.6,5.9-5.2,9.2-6.4-1.2-2.1.2-3.5,1.6-5.8-.7-1.5,1-2.1,2.1-.8,1-.4,1.9-1.6,3.1-.9,1.2-.9.5-3.3.5-4.3s2.1-2.5.7-3.7,1.6-2.4-.5-3.6c-.2-1.4,2.6-2.5,1.2-3.5.3-1.4-.5-1.1-1.4-.7s.5-1.9-.7-1.2c-.3-1.1,1.4-2.5,0-3.1s1-1.4.5-2-1.7-.8-1.9-.8c.4-2.1,1.6-3.2,1.4-5.1-.7-5.2-.5-8.5,6.1-5.9.9-2,4.3-4.7,1.2-7.1s-1.9-9.4-.7-15.4c1.6-2.8,6.3,0,3.6-5.8a17.6,17.6,0,0,1-.3-4.1c.3-1.6,0,2.1.7,2.1s2.1.6,1.9-1.1c0-3.6.7-4.7.7-8,2.8-1,1.4-3.1,1.4-5.9s1.4.4,2.6-.8c1.7-3,5.7-1.6,7.8-3.9.5-1.9,1.4-3.4,1.7-5-3.4-1.4-.5-5.4,2-3.5C254.3,56.5,253.8,54.6,255.8,54.8Z"/>
    </g>
  </g>
</svg>
