<svg xmlns="http://www.w3.org/2000/svg" width="500" height="500" viewBox="0 0 500 500">
  <defs>
    <style>
      .cls-1 {
        fill: none;
        stroke: #999;
        stroke-width: 0.75px;
      }

      .cls-1, .cls-2 {
        stroke-linejoin: round;
      }

      .cls-2 {
        fill: #5c98ff;
        stroke: #fff;
        stroke-linecap: round;
        stroke-width: 2px;
        opacity: 0.5;
      }
    </style>
  </defs>
  <g id="hucs">
    <g>
      <path class="cls-1" d="M191.5,302.9l.6-3.1,1.2-.3c1.8-2.8,2-8.9.6-12,1.4-3.6.6-8.4,1.6-12,.7-1.6,1-4.5.3-6a7,7,0,0,0,.2-3.8l.9-1.5c1.8-.7,4.8-1.4,6.5.1a6.2,6.2,0,0,1,3.9,1.6v2.6a4,4,0,0,0,4.3,1c5.3-6.4,6.7-25.4,8.9-33.1,41.7,7.7,84.2,15.1,126.2,20.9-9.2,64.5-19,133.9-27.9,198.9-17.9-2.6-38.8-5.1-56.4-8.7-31.1-18.7-62.5-38.4-92.6-58.3a26.4,26.4,0,0,1,3.4-7.2c.9-.4,3.1.3,3.9.5l1.2-.5a12.8,12.8,0,0,1,2.8-3.6l.7-4.3-1.2-1.9-3.1-1-.9-1.2c-.3-1.4,1.2-5.2,1.6-6.4l-1.1-1.9.9-1.5v-1.7c1-.5,3.1-1.7,3.8-2.8l-.2-1,1.5-.3,1.8-2.8c0-.8.1-2.7.8-3.4,0-2.9.2-8.4,3.6-9.1,0-1,1.7-2.9,2.2-3.8,2.1-.5,5-1.7,6.4-3.6l1.5-.3c.5-3.1-3.1-6.4-4.8-8.4.2-2.4-.3-6.4-.3-8.8l-2.6-4.1,1-1.2-1.3-1.7C191.4,306.5,191.4,303.9,191.5,302.9Z"/>
      <path class="cls-1" d="M116.4,28.4C109.1,57.9,96.6,104,89.5,133.7c32.9,54.9,68.4,114.5,102,169.2a25.7,25.7,0,0,0-.1,4.8l1.3,1.7-1,1.2,2.6,4.2c0,2.4.5,6.3.3,8.7,1.9,2.1,5.3,5.3,4.8,8.4l-1.5.3c-1.4,1.9-4.1,3.1-6.4,3.6-.6.7-2.2,2.6-2.2,3.8-3.6.7-3.8,6.2-3.6,9.1-.7.7-.8,2.6-.8,3.4l-1.8,2.8-1.5.3.2,1c-.7,1.1-2.8,2.3-3.8,2.8v1.7l-.9,1.5,1.1,1.9c-.5,1.2-1.9,5-1.6,6.4l.9,1.2,3.1,1,1.2,1.9-.7,4.3a16.5,16.5,0,0,0-2.8,3.6l-1.2.5c-17.5-2.2-51.1-5.2-68.5-7.4l.6-2.7,1.1-1.1v-1.2l-1.4-1.8-1.2.6-.7-.3a3.8,3.8,0,0,1,1.2-2.9l-.8-1.2v-1l.8-.7c1.9-5.3-.3-11.3-1.9-16.3-.3-.7-3.1-4.3-2.9-5.2a19.9,19.9,0,0,1-2.9-3.4c-.7-1.7-1.5-5-3.6-5.5-1.4-2.4-3.3-6.3-6-7.3H89.2l-.7,1.4c-.7,0-2.4-1.4-2.9-1.7l-.4-1.6,1.1-1.7c.1-1.7-.9-4.1-.9-5.8a9.9,9.9,0,0,0-8.1-2.7c-1.7-1.1-5.1-2.6-5.8-4.7l-2-.3c-1.2-1-1.8-5.5-2.1-7.1s-3.4-3.7-4.1-5.3-3.6-2.5-5.8-1.9-3.3-1.7-4.3-1.5l-2.6-1.9c-3.8-2.6-13-.7-13.2-6.8l-2.6-1.8.2-1.7c1.4-1.2,2.4-3.4,1.5-5.3a6.4,6.4,0,0,1,1.8-2.6l-.7-2.9c.7-2.4,3.1-5.1,2.4-7.9l-1.6-1.2-.8.4c-.9-1.7-3.1-3.4-2.3-5.7l1.1-1,1,.5-.3-4.8-3-1-2.4-6.5c-1.5-1.6-3.4-4.1-2.2-6.4l-.7-.7c-.7-2.4-2.9-4.6-2.2-7.3a3.6,3.6,0,0,0-1.2-2.6l-1-4.8a8.3,8.3,0,0,0-3.3-4.1l-1.4-2.9c.6-1.9,1.4-5.9.4-7.6l.7-.5-.2-1.5,1.5-1.8,1.4.9,1.2-.7a28.5,28.5,0,0,0,2.9-7.5c-.3-1.4-1.3-3.8-2.5-4.7l-.6.6-1-.7H21.8c-1.7-.9-3.8-3.8-3.8-5.9-1-.6-1.5-2.9-1.5-4.1a3.8,3.8,0,0,1-.5-2.7c.5-1,1.7-3.8,1.7-5a6,6,0,0,1-.4-3.8l-.8-.6a9.9,9.9,0,0,1,.5-3.5l.9-.3,1-5.5a12.7,12.7,0,0,1,3.4.3l-.2,2.6-1.2.4c.2,1,.2,2.9-.5,3.6a7.4,7.4,0,0,1,3.1,3.2,11,11,0,0,1,2.9,3.8l1.7.8.7-1a7.5,7.5,0,0,1-2.4-2.6,13.4,13.4,0,0,0-2.5-9.9l1-3.8-1.7-1.7-.2-1.2,1.5-1.9,1.9.5.7-.7,1.9-.5-1.5-1.7.3-1-1.4-.4-1.7-1.8-1,1.2-1.2.3-1.4,3.3,1,1.2-1.2,1.2v1.3l-.8,1.1v1.7l-1.2-.4a7.2,7.2,0,0,0-1.7-2.2l-.7-1.5-.9-.2c-.5-.7-2-2.2-1.9-3.1a10,10,0,0,0-2.9-2.9l-.7,1-1.2-.3c.5-1.7,2.8-3.6,2.6-5.5l1.7.2a7.2,7.2,0,0,0-1.5-5.4h-.9c.2-8.6-2.4-5.5-4.3-11.2-.1-1.7-.1-4.6-1.7-5.6s-2-3.8-1.7-5.5-1.9-3.3-2.1-4.3l2.3-3.6c-.7-4.1-.9-9.3.5-13.4a20.8,20.8,0,0,0,3.6-7.5c-.2-1.2-.4-4.1.3-5.3L7,78.3l-1-.7c.7-2.9-2.4-7-1.5-9.9C2.9,65.6,1.4,62.2,0,59.8c-.2-.7.9-1.9,1.2-2.4a3.7,3.7,0,0,0-.3-3.1c2.4-6.9,9.4-12,13-18.2l-.2-4.4,1.2-1.9,1.2.3A7.6,7.6,0,0,1,18,25.7c.9-1.7,2.1-5.3,1.7-7.2l.7-1.1a5.2,5.2,0,0,1-.1-3.7c0-1.4-.4-4-1.4-5.2S21.3,3,21.8,2C51.6,10.9,85.7,20,116.4,28.4Z"/>
      <path class="cls-1" d="M220.3,236.6c-2.4,7.7-3.6,26.7-8.9,33.1a4.4,4.4,0,0,1-4.3-1.1v-2.5a6.2,6.2,0,0,0-3.9-1.6c-1.7-1.5-4.5-1-6.5-.2l-.9,1.6a7,7,0,0,1-.1,3.8,8.4,8.4,0,0,1-.4,6c-1,3.6-.2,8.4-1.5,12,1.3,2.9,1.2,9.2-.7,12l-1.2.3-.5,3.1c-33.6-54.5-69.1-114.4-102-169.2,7-29.7,19.3-75.8,26.9-105.3C159.3,39.9,210.2,50.9,254,60,243.5,117.6,231.1,178.8,220.3,236.6Z"/>
      <path class="cls-1" d="M500,273.6l-1.2,18.7-1.2-.2c-3.4,49.4-8.7,110.1-12.7,159.1-30.9-2.4-66.3-5.3-97-9.1l-.7.4a11.4,11.4,0,0,1-.2,4.1,14.6,14.6,0,0,0,2.2,3.3l-45.7-5.7c-.6,2.6-1.9,12.4-2.3,15.3-6.3-.7-16.3-1.7-22.6-3.1,8.9-65,18.7-134.3,27.9-198.9,12.6,1.7,27.6,3.8,40.2,5.3l.3.5C424,266.7,462.8,272.7,500,273.6Z"/>
      <path class="cls-1" d="M254.1,59.8c21.6,4.4,48.4,8.9,70,12.5-1.6,8.6-4.5,26.9-5.8,35.7,11.8,1.7,35.8,5.3,47.6,7.2-6.7,45.4-13.5,96.7-19.4,142.3-42-5.8-84.5-13.2-126.2-20.9C231.1,178.8,243.5,117.6,254.1,59.8Z"/>
      <path id="_15" data-name="15" class="cls-2" d="M211.2,146.5c8.1,11.7-4.1,20.1-1.2,26.4,1.2,1.9-1.2,2.6-1.7,4.3s1.2,2.7-1.2,3.8c-.5,1.3,1.2,2.5,1.2,3.7-2.9,5.7-2.6,15.1-6.5,20.6s-2.1,9.8-2.4,13.9c.7,1.4,1-.3,2.4.7s2.4,1,2.9-1.2,3.6-4.8,2.3-7.9c1-1.4,1.8-2.1,2-3.6s3.8-1.4,3.6-2.6c.7-5.3,1.9-11.1,1-16.6-.5-1,1.1-2.4,1.2-3.6,0,2.4,3.6.5,5,1.9,2.8,3.9,1.4-1.2,3.6-3.3,3.1,3.4,6.7,8.9,3.6,14.9.7,2.1-.7,2.8-2.2,3.6-.2,3.1-2.1,2.8-3.4,4.8-.9,3.6,2,2.6,3.6,3.8,0,2.1-1.1,1.6,1,3.1,0,8.1,4.8.5,5.5,4.8,6.3-2.1,2.2,2.4,5.6,1,1.6,2.4,4.3-3.4,5.9-2.9.5,2.6,4.6.7,5.8,2.8,1.2-1.8,1.5.8,2.9-1.8,1.2,1.6,2.9,0,3.4,2.8,3.8,3.8.5,4.1,3.6,5.3,1.2-2.6,3.1-2.6,5-1.5,3.1-1.4,1.9,1.2,1.2,2.5,4.1-.1.7,4.3,2.7,6.5s-.8,4.2.6,5.7,2.7,2.6,1,3.9c-1.7,5.4,1.5,8.3,5,10.5,1.3,1.7,2.4-1.7,3.6-2.6,3.7-3.2,4.9-.1,2.9,3.8-1.4,1.7-.4,2.9.7,4.1-.9,1.6-1.1,4.8.7,1.9,3.4-5.7,3.7,6.3,4.9,2.4,7.1-.3,3.5,3.9,9.1.9,1-1.9,1.7-.6,3.1-1.4s2.9-2.4,4.5-3.6,2-2.1,3.6-1.9c-.2,1-.7,3.1.1,3.9a6.9,6.9,0,0,1,.5,4.7c1.2,0,3.1-4.7,5.7-2.4,2.7.3.5,5.1,2.9,6.3s2.8-.2,4.3,2.1c.2.7.5.8,1,1.2-.5,2.2,2.4.8,2.1,2.7,1.5,4.7-4.3,5.7-4.6,9.6,2.5,3.3.3,8.8,2.5,10.5-.5,1.4,2.1.8,1.7,2.2,1.2,0,1.2-1.7,1.9,0s2.1-.8,2.8-1.9c1.2.7,3.4,0,5.3-1.9,3.6-.3,6,.4,8.4-4.1,4.8,5.2,3.9-3.2,6.2,0-.2,1.2-1.1.9-.6,1.7s-1.5,3.1-3,4.7-.2,4.4.1,5.8,3.8,1.7,4.3,3.8,2.2-2.6,3.8-2.9,5.1,1.2,6.9,2.9c8.2,0,3,3.2.6,7.2-3.2,2.2-6.1,7.9-1.8,10.3a5.7,5.7,0,0,1,2.9,3.9c.5.7,3.4,2.6.3,2.6-2.6,2.5-3.4,5.3-6.2,7.3.4.7-.5,5-1,3.3-2.7,0-3.1,5,.4,4.3,0,1.5-.7,3.6,1.2,4.3s1.7,2.4,3.7,4.3.4.7-.7,1.7-2.7,3.4-3.6,5-4.4,2.9-5.8,3.9a9.3,9.3,0,0,1-1.7,4.6c1.7,2.1-1.4,1.6-1.2,3.6,2.4,2.8-2.4.9.7,4.7-2.3,1.2-3.5,1.3-.4,2,1.4,1.4,3.5-1.7,5.2-1.9,1.5-1.9,6.5,1.2,7-1.5-1.4-2.6,2.4.7,3.1.2s1.4-.6,1.5.6.6.9.6,2.1c-2.1.9.6,1.7-.4,2.4,0,2.6-3.9,5.3-1.2,7.7-1.4,1.4-.2,4.3-2,5.8,1.3.9-1.4,3.5-3.1,3.1-4.3,8.4-13.8,6.7-11.2,9.8,0,4.6-7,7.2-1.9,11.3s.5,11,2.6,16c-1.4,1.5,0,2.5-1.4,1.2s-2.2.8-2.9-.4c-4.6,1.9-3.8-1.5-5.8-4.4-7-1.6-2.2,2.4-5.5,6.5.2,2.6,1.4,7.4-1,9.4-.2.7.7,1,1.3.9a4.8,4.8,0,0,0-1.3,2c-5.3-1,1.2,4.5-6,13.9.8,7.7-4.5,0-6.9,7.2-1.7-.2-3.2,1.2-5.1,2.1-2.9-1.1-4.1-1.6-6.9-.7s-.8,6-3.9,6.8c-.9.4,1.5,3.3.1,4-1-.9-.3.3-.8.7-2.8,2-7.2-9.6-5.8-13.6s-3.5-2.9-1.9-5.8c-2.8-1.9-9.6-1.5-12.2-1.4,0,3.3-5.3,2.8-4.3,5.9-3.1,2.2-3.1,6.3-7.4,4.1-.1,4.1-3.2,6.1-3.7,10.1-1.1,1.4-5.5,2-7.2,3.9s-4.7,4.5-4.8,7.4-.4,1.6-.6,2.9c-.8-1.9-4.4-.3-5.6,1.4.5-2.1,1.9-10.5-.4-9.3-4.1-1.7-6.3,5.2-15.6-1.2-5.6,1.4-3,0-9.4-2.5-1.4.1-3.4,1.2-1.2-.6-.3-1-1.4-2.9-.8-4.2a2.4,2.4,0,0,0,3.6-.7c-.2-5.3-.7-10.5-4.5-13.4-.9-3.6-2.2-1.4-4.8-1.5-5.3.8-8.1,4.9-9.6-4.2-1.4-6.6,3.6-14.4,2.6-18.3-.7,2.4-2.1-3.3-3.5-2.4-3.9-2.2-10.9-3.6-9.2-7,1.2-7.1-7.9-10.1-10.3-6.5-4,2.9-10.8-8.3-14.4-12.1-3.6,0-2.4-2.4-4.1-2.9s-.7,1.1-1.4,2.3c1.5,7-2.9-.6-6.7,0-2.7,2.2-5.3,1.8-1.9-1.6-.5-.3-1.7-3.4.2-3.4a25.4,25.4,0,0,1-2.6-11.2c.2-1.7-3.9-2.7-1.5-4.4,1.9.3.3-1.7,1-2.2s-1.7-1.4.2-1.8c7.4-4.2,12.3-.3,18.7-6.6a8.1,8.1,0,0,0,1-8.3c2.4-.8,2.9-3.1,1.5-4.3s-1.8-3.7-3.9-5.4c-2.2.8-2.9-1.9-4.6-2.6s-2.3-9.1-2.9-11.7,2.5,1.1,1.5,2.1c2.1,2.6,7.2,4.8,9.3,2.9,3.7-2.9,4.8-7.5,2.4-12.4.3-1.2,3.4-4.6,5.6-2.5s2.2-2.1,2.9-4.3c.7-4.1-3.2-7-3.4-11.2-1-1.7,2.2-2.7,1.2-4.6-2.2-4.1,2.9-8.4,3.3-12.2-1.1-2-1.9-4.2-4.3-5.4-2.3.5-.9-4.3-2.6-5.5s.7-1.4,1-1.1-8.2-6.8-1.7-8.4c2.2-1,5.8-4.8,3.6-8.4,1.9.2,4.6-.3,5.2,2.3,3,4.6,4.4-4.8,3.7-6.2a10.5,10.5,0,0,0,4.7-8.4c-1.8,1.5-1.8-2.9-4-1.4-4.4-.3-2.7,2.6-5.6,4.3-.2-2.1-1.1-2.7-2.6-1.5-.9-.7-2.6-2.8-3.1-1.8s-1.7-1.8-1.9-2.5-2.7-.5-2-2.3c2.5-.6.3-4.2.8-5.6-2.6-6.7-5-3.8-.3-13.6,6.3-6.6,2.2-9.6,12.1-4.6,4.3,4,7.4-16.3,2.8-15.8-.2-4.4-4.5-14.2.8-19,3.3.7,1.9-3.1,4.5-4.4,1.7,1,.7-2.3,2.1-1.9,1.2-2.1,3.9-4,2.2-6.6s-3.3-4.6-3.3-7.3c-3.1-1.9-5.5-5.9,0-6.4,1.2-1.7-.5-2,1.1-4.1s2.7-5.1,3.4-8-4.6-4.8-.7-9C201.6,147.4,203.7,159.4,211.2,146.5Z"/>
    </g>
  </g>
</svg>
