<svg xmlns="http://www.w3.org/2000/svg" width="500" height="500" viewBox="0 0 500 500">
  <defs>
    <style>
      .cls-1 {
        fill: none;
        stroke: #999;
        stroke-width: 0.75px;
      }

      .cls-1, .cls-2 {
        stroke-linejoin: round;
      }

      .cls-2 {
        fill: #5c98ff;
        stroke: #fff;
        stroke-linecap: round;
        stroke-width: 2px;
        opacity: 0.5;
      }
    </style>
  </defs>
  <g id="hucs">
    <g>
      <path class="cls-1" d="M218.7,166l-.7,11.9h-.8c-2.2,31.6-5.6,70.3-8.1,101.7-19.7-1.6-42.4-3.4-62-5.8l-.4.2a7.6,7.6,0,0,1-.1,2.6,6,6,0,0,0,1.4,2.1L118.7,275c-.3,1.6-1.2,7.9-1.4,9.7-4-.4-10.4-1.1-14.4-1.9,5.7-41.6,11.9-85.8,17.8-127.1l25.6,3.4.3.3C170.2,161.6,195,165.5,218.7,166Z"/>
      <path class="cls-1" d="M358.9,246.1l.8,1.5h.4l.5.7h1.5l.4-.5.7.2.3-.7h.6l.6.5,1.1-.3.7.5c.3,9.7.8,25.6.8,35.3a26.6,26.6,0,0,1,3.2,3.5v.7l.8.8c-.1.5.5,1.4.7,1.7l-.7.9.3.7-.3.9.9,1.3.9.2v1.2l.6.4a3.9,3.9,0,0,0,1.1,1.7l-.6,1.3a6.9,6.9,0,0,1,1.6,1.8v.5l.7.6h.5c-.2.9-.3,2.7.3,3.5l-.7,1.2.6,1-.4,1.2.2.4a20.8,20.8,0,0,1-2.3,5.3v.9c-1.4,1,.1,3-.4,4.3l-.5.5v1.5l1.5,1.9a14.5,14.5,0,0,1-.7,3.5l.2.5c-1.2,1.2-2,4-3.4,4.9l-.4,1.3a2.9,2.9,0,0,1,1.5,1.4c-2.6,0-7,2.1-9.3,3.4a18.9,18.9,0,0,0-5.8,3,4.6,4.6,0,0,1-1.6,1.5l-.3-.6c.3-.8,1.6-1.2,1.9-2.1h.5l1-1h1.2l-.2-.6-.5-.2c-.6.3-2.8.8-3.4,1.1l-.7-.3c.9-1.5,1.2-4,1.6-5.7a6.2,6.2,0,0,0-3.9,3h-.3l-1.2-1.1-.6,1.6.7.9-.6,1,.4.8,1.2.5-.6,1.2h.8a5.1,5.1,0,0,1-.1,3l-.9-.2-1.9,2.7-.8.2-1-.3V348l-1,.8.3.8h1c-5.5,6.9-15.5,9.7-22,15.4l-.4-.3.6-1c.7.1,1.6-.8,2.1-1.1s3.9-2.1,4.5-3.1,3-1.2,3.8-1.7l.4-.9H336a83.1,83.1,0,0,0-7.6,4.4l-.5-.9h1.2v-.5l-.7-.3.5-1.7-1.2,1-.2-1-.7,1.6-.7.4-.9-1.4-.7.3.8,1.5a7.4,7.4,0,0,1-2.1,0l-.5-1.3-.8.3-.5-1.3h-1.1l.5,2.1-.3,1,1.4-.3,1.2,1.2-1.3.9.5.5,1.6-.6.6,1.2a20.2,20.2,0,0,1-4.7,2.8l-.5-.6-.2-1.4-.9-.6-.6-1.2-.5.7.5.5-1.3.7,1.2,1.6a9.2,9.2,0,0,1-.3,2.9,7.1,7.1,0,0,0-2.2,1.5,12.6,12.6,0,0,1,.4-2.7h-.4l-.9.5.6,1.3-.8.9h-.6v-1l-.5-.4-1.6,1.1-.9-.6-.2,1.5-.9.6v.6l2.1,4.1-1.8,1.1H309l-.9-.9-1.2.2.2-1-1.5.3-.4-.4h-1.1l.9,1,2.1.4-.2,1.5,1,1-.7,1.3h.6l1.1-1.1.3.9c-.5.4-1.3,3.7-1.5,4.3s-1.1,3.3-2.8,4h-.6c.6-.5.7-2,.7-2.7l-1.2,1.7c-.7.4-2.3-.3-2.9-.5v.5l.8.9-1.3.4.7.7a5.1,5.1,0,0,0,2.1-.1l1,.5,1.6-.7.5.2v2.3l-1,1.2.3,1-.2.5-.9.4-.4.8a5.7,5.7,0,0,1,0,2.6c1.7.9,1.7,5.1,2.3,6.7l-.6,1.5.3,1.5h.7l.9,1.2v1.3l1,.5-.5,1.2.8.4a5,5,0,0,0-.1,2.1l.5.4,1-.3.3.4c-.3.4-.9.9-.9,1.5l.2.8.6-.2.7-1.1h.6l-.3,2h-2l-.5.7c-1.8,0-4.5.2-5.9-1l-.7-1.3-2.7-.2-.3-.6c-1-.2-3.9-.4-4.7.1l-1-.4-1,.2-2.4-1-.5-.8-.4.3-.3-1h-1.1v-.6h-.8l-.3-.8-.8.3-.5-.6h-.7l-.4-.4-1.5.2c-.2-.2-1.5-1.4-1.4-1.9l-2.1-1.1c-1.3.5-2.3-.8-3.4-.9l-.4.3-.6-.2v-1.7l-.9-1.5c.2-.6-.6-2-.8-2.4s-1-3.5-1.2-4.3l-.8-.4-.5-1h-1c-.1-1.1-1.3-2.1-1.5-3.1s.6-2.9.5-3.9-1.1-.9-1.1-1.3l-.6-.3.6-1.4a9.7,9.7,0,0,1,.2-2.9l-.6-.2V382l-1.6-1.2-.4.2-.4-.7h-.8c-.3-.4-1.4-1.7-1.4-2.2l-1-.5-.6-2a3.1,3.1,0,0,1-.7-1.8l-1.1-.8c-.5-1.6-1.6-3.7-3.2-4.4a7.9,7.9,0,0,0-1.7-2,11.8,11.8,0,0,1-1-3.9l-.6-.5v-1.4l-.9-.6v-1l-.6-.5-.2-.8-.8-.3c-.4-.9-.3-2.3-.8-3.4l-.4-.3v-1.5h-.7c-1.3-2-.4-5-2.7-6.6l-.2-1.5c-1.1-.8-2.7-2.3-3.9-3l-.4-1.8c-.8-.9-1.9-.7-2.6-1.6h-.8l.3-1.8-.5-.6-.3,1-.7-.3.2-.9-1-.6-.4-2.1-.9.2-.4-.8h-1.3v-.7l-1.2.8a7,7,0,0,1-3.3-.8l-2.6.2-.4-1-1.6.5c-1.2-.5-3.5-2.1-4.9-2.4l-.7.4-.5,1.8-.3.2a3.1,3.1,0,0,1-1.8-.7l-.9.9-.5-.5-.8.5-1-.2a9.7,9.7,0,0,1-1.9,2.9l-.4,1.5-.6.2c0,1-.6,2.6-.6,3.5l-.9.4-.6,1.7.4,1.2h-.6c-.3.6-1.4.9-1.9,1l-.6,1.1a3.3,3.3,0,0,0-1.3,1.3c-.1.4-.2,1.5-.7,1.7a4.4,4.4,0,0,0-2.8-.2l-.9-1.5-1,.5c-.2-.4-.8-1.1-1.4-1.1l-.3-1.5c-1-.7-2.5-.7-3.7-1.2l-1.7-2.3-3.7-1.1a25.1,25.1,0,0,0-3.1-2.6,4.2,4.2,0,0,0-3.3-3.3l-.7-1.3-.7-.2c-1-.8-1.4-3.3-1.4-4.4v-.4c-2.3-4.9.8-8.5-2.5-13.1l-.6-.3c.1-.3-.2-3.6-.2-4a6.8,6.8,0,0,1-1.8-2.6c-1.4-.4-2.6-2.4-3.8-3.1s-5.6-4.2-5.9-7.2a7.9,7.9,0,0,0-2.7-2.1c-1-1.8-2.6-4-3.7-5.6l-1.5-.2a8.4,8.4,0,0,0-2.1-2.1,4.8,4.8,0,0,0-1-2.3,25.9,25.9,0,0,0-1.4-4.5,5.1,5.1,0,0,1-2.1-.3,14.1,14.1,0,0,1-1.8-2.9,7.6,7.6,0,0,0,.1-2.6l.4-.2c19.6,2.4,42.4,4.2,62,5.8,2.4-31.3,5.9-70.2,8.1-101.7,16.1.9,34,2.1,50.1,2.7-.6,14.2-1.4,29.9-1.8,44H267l1.7,1.3c.1,1,1.3,1.8,1.6,2.6l1.9.5.8-1,1.5.2.6.8.7-.6v-.9l.5-.3c.6.9,1.9,1.7,2.3,2.8h.4l-.2,2.1.6.8c.8.1,2.4.3,3.1-.1a2.1,2.1,0,0,1,1.1,1,8,8,0,0,0,2.6.9l.3.4a3.8,3.8,0,0,1,2.1-.4l.5-.6.8.8.3,1.1.8.7,1.4-.5.3-1.3.6-.6,1.2,1,1.7.2.9-.7.6.4a8.3,8.3,0,0,0-.1,2.2l.9,1,.8-.2.8.6-.5,1.6.3,1.1,1.2.6c1.2-.4,1.9-2.4,2.9-3.1h1.6l.6,1.6.6-.5,1,.4a3.7,3.7,0,0,1,.5,1.8l1.1.8,1.1-1.5h.9l.3-.9h.9l.6,1.3-.7,1.2.8,1.8h1a9.4,9.4,0,0,0,0-2.9h.4l.9.6,1-1.3-.3-1.5,1.4-.2.4.4.2,2.1h1.4l1.1.9.5-.2.7-1.9a4.5,4.5,0,0,0,1.3,1.1l-.7.5.2.6,1.4.2.5,1h.9c.5.3,1.5,1.2,1.6,1.7h.4l.5-.9,1.7-.3a4.9,4.9,0,0,1,2.4-2.3h1.2l.6-.4h3v-1.1h1.5a3.1,3.1,0,0,0,1.4-1.2h1l.2.9.4.4a4.1,4.1,0,0,1,2.2.3c.5-.3,1.6-.9,2.1-.7s.3-1.3.7-1.5h1.4a4.4,4.4,0,0,1,1.5,1.8l.7.3.6-.2c.4.5,1.7,2.5,2.2,2.7h1.2l.3.5a3.7,3.7,0,0,1,2,1.3l.7-.2a3.2,3.2,0,0,1,1.3,1Z"/>
      <polygon class="cls-1" points="132.9 65.3 120.5 156.2 146.2 159.6 193.4 164.9 218.4 166 234.2 167.6 239.6 76.3 209.3 73.6 173 70.1 132.9 65.3"/>
      <path id="_13" data-name="13" class="cls-2" d="M134.3,307.9c1.3-5.5,1.8-11.3,3.2-15.8.3-2.4-5.3-6.7-4.8-2,5.1,8.9-8.1,7.2-7.8,15.7-3.7,6.9-9.5-12.1-12.6,0-5.6,2.8,0-5.1-3-6-6-.5-2.3-7.4-5.7-10,1.4-2.7,4,.4,3.4-3.2,2.6-6.1,5.2-10.4,4.7-15.9,1.7-13.4,9.5,8.4,10.4-8.9-9.1-11.4,7.9-13.2,9.5-23.1,4.4-17.7-9.7-.6-10.4-8.4.5-9.3,12.9-10.3,5.8-17.5-4.4-4.8,2.9-7.6,4.4-12.1-1.7-2.9-4.6-4.3-3.5-7.7,3.4-5.3,6.2-3.8,10.1-5.8,3.9-4.5,10.4-7.8,15.4-10.3,0-8.2,1.9-14.1,8.2-19.4,5.8-14.2-26.3-15-6.5-21,6.1,1.1,7.7-2.2,11.5-6.8,3.9,2.4,7.8-5.8,9.7.2s8.3,10.9,4.7,16.5c-.2,2.8,3.7-1.7,4.8,1.5.4,13-4.1,20.7-6.6,31.7-6.8,12.2,1,6.6,5.7,14.4.2,5.8,5.3,8.9,7.6,14.7,1.6,1.2,4.2,0,6.2.3-.2,4,5.2,2.4,5.5,5.6,5.3,3.8-2.8,4.6-3.3,9.1,1.1,5.5.6,11.4,2.6,17.6-11.8,14.4,5.5,18.8,11.5,30.1-.3,6.2,1.1,13,8.7,13.7,2.3,5.8,4.8,8.1,9.4,12.6,15.4,5.9,22.1,5.7,21.8,25.4-5.1,9.7,2.8,19.2-.8,30.2,3.3,5.4,8.3,7.5,8.7,14.3,1.1,2.6,3,1.2,5.1,1.1,3.1,5.3,3.2,11.6,11.1,12.5,0,6,3.5,11.2,4.8,18.5,4.7,3.6,3.8,8.2,5.2,11.6,4.4,5.2,13.1.3,16.6,7.1,9.6-4.2,9.8,2.1,4.7,10.2-7.1-3.9-16.4-20.8-23.4-9.2-11.1,1.6-15.5,10.2-23,18.2-4.1-7.1-6.9,5.5-9.8.8-4.1,2.2-1.8-3.8-4.7-4.3,1.2-8.9-9.4-6.7-9.8-1.3-4.8,1.1-11.9-1.3-17.5-3.3-1-9.1,13.5-19.8,3-27.1-3.9-9-10-2.3-13.1-9.3,2.9-7.3-2.5-4.4-2.7-12.6,5.3-1-2.1-4.6.1-8-2.4-1.5-1-3.1-.6-4.8-1.6-1.5-3.2-3.5-3.5-5.5-2.5-10.5-7.4.5-10.7-1.3-7.5-2.9-.5-4.8-4.4-9.1-2.3-.1-2.3-2.8-5.2-2,1.2-4.5-3.4-6.2-6.5-8.7-1.2-5.9-3.8-.5-7.4.9.2,4.6,3.9,10.4.7,14.4-5.2-7.1-4.9.3-7,4.4,2.8,8.1,5.2,15.4,9.9,22.6,0,2.5-2.1,4.4-3.5,6.8s.4,3.4-.7,5.2c-11.5,3.1-3.6,3.2-12.1,10.9-3.4-2.8-4.2-10.2-9-10.4-6.9,2.1-9,16.8-11.8-3.2-5.4,0-6.7-7-8-11.4,1.5-6.1-.6-9-5.4-11.2-3.1-1.9-8.1-11.7-4.5-12.8s5.8,3.6,9.1-.5c8.2,9.6,2.8-7.9,10-5.8,6.9-.4-6.3-3.4,3.7-11,14.6-1.1,6.7,7.1,14.3,1.3,8.6-2.1,5.3-10.8,9.8-19.8,3.1,2.1,5.4.1,8.9.1.5-11.7-5.4-15.8-13.9-21.5-1.8-3-3.2-1.5-5.7-3.2s-1.2-7.8-5-4.6c-4.5,1.2-9.8,2.9-7.2,8.2C140.5,303.4,138.3,313.8,134.3,307.9Z"/>
    </g>
  </g>
</svg>
