<svg xmlns="http://www.w3.org/2000/svg" width="500" height="500" viewBox="0 0 500 500">
  <defs>
    <style>
      .cls-1 {
        fill: none;
        stroke: #999;
        stroke-width: 0.75px;
      }

      .cls-1, .cls-3 {
        stroke-linejoin: round;
      }

      .cls-2 {
        opacity: 0.5;
      }

      .cls-3 {
        fill: #5c98ff;
        stroke: #fff;
        stroke-linecap: round;
        stroke-width: 2px;
      }
    </style>
  </defs>
  <g id="hucs">
    <g>
      <path class="cls-1" d="M262.5,175c-4.7,18.9-12.7,48.3-17.2,67.3,21.1,35,43.7,73.1,65.2,108.1a16.1,16.1,0,0,0-.1,3.1l.9,1.1-.7.7,1.6,2.6c0,1.6.4,4.1.3,5.6s3.4,3.4,3,5.4l-1,.2a6.8,6.8,0,0,1-4,2.3c-.4.5-1.4,1.7-1.4,2.4-2.3.5-2.4,4-2.3,5.8a3.7,3.7,0,0,0-.6,2.2l-1.1,1.8-1,.2v.7a7,7,0,0,1-2.4,1.7v1.1l-.5,1,.6,1.2c-.3.8-1.2,3.2-.9,4l.5.8,2,.7.7,1.2-.4,2.7a9.8,9.8,0,0,0-1.7,2.3l-.8.3c-11.2-1.4-32.6-3.2-43.8-4.7l.4-1.7.7-.7v-.7l-.9-1.3-.8.5-.4-.2a2.4,2.4,0,0,1,.8-1.9l-.6-.8v-.6l.6-.5c1.2-3.4-.3-7.2-1.2-10.4-.3-.4-2-2.7-1.9-3.2a20,20,0,0,1-1.9-2.2c-.4-1.1-1-3.2-2.3-3.5s-2-4.1-3.8-4.8l-1.1.2-.4.8a4.5,4.5,0,0,1-1.9-1.1l-.2-.9.6-1.1c.1-1.1-.5-2.7-.5-3.8a6.6,6.6,0,0,0-5.2-1.7c-1.1-.7-3.2-1.7-3.7-3l-1.3-.2c-.8-.7-1.1-3.5-1.3-4.5s-2.2-2.4-2.6-3.4a4.1,4.1,0,0,0-3.8-1.2c-.6-.3-2-1.1-2.7-1l-1.6-1.2c-2.5-1.6-8.4-.4-8.5-4.4l-1.6-1.1v-1a3.1,3.1,0,0,0,1-3.4,2.8,2.8,0,0,1,1.1-1.7l-.5-1.8c.5-1.6,2-3.3,1.6-5.1l-1-.8-.6.3c-.5-1.1-1.9-2.2-1.4-3.7l.7-.6.6.3-.2-3-1.9-.7-1.5-4.2c-1-1-2.2-2.6-1.4-4l-.5-.5c-.4-1.5-1.8-2.9-1.4-4.7a2.4,2.4,0,0,0-.7-1.6l-.7-3.1a4.9,4.9,0,0,0-2.1-2.6l-.9-1.9c.4-1.2.9-3.7.3-4.8l.4-.3v-1l1-1.1.9.6.7-.5a16.6,16.6,0,0,0,1.9-4.8,6,6,0,0,0-1.7-3l-.3.4-.6-.5h-1.1a5.1,5.1,0,0,1-2.5-3.7c-.6-.4-.9-1.9-.9-2.6a2.4,2.4,0,0,1-.4-1.8,8.7,8.7,0,0,0,1.1-3.2,3.8,3.8,0,0,1-.2-2.4l-.5-.4a7.8,7.8,0,0,1,.3-2.2l.5-.2.7-3.5a8.2,8.2,0,0,1,2.2.2v1.6l-.8.3a3.6,3.6,0,0,1-.3,2.3,6.4,6.4,0,0,1,2,2,7.6,7.6,0,0,1,1.8,2.5l1.1.5.4-.7a4.6,4.6,0,0,1-1.5-1.6,8.7,8.7,0,0,0-1.6-6.3l.6-2.5-1.1-1.1v-.7l1-1.2,1.2.3.5-.4,1.2-.4-1-1.1.2-.6-.9-.2-1.1-1.2-.6.7-.8.2-.9,2.1.7.8-.8.8v.8l-.5.7v1.1l-.8-.2a4.2,4.2,0,0,0-1.1-1.5l-.4-.9h-.6c-.3-.5-1.3-1.5-1.2-2a5.8,5.8,0,0,0-1.9-1.9l-.4.7-.8-.2c.4-1.1,1.8-2.3,1.7-3.5h1.1a4.5,4.5,0,0,0-1-3.4H195c.2-5.5-1.5-3.5-2.7-7.2-.1-1.1-.1-2.9-1.1-3.6s-1.3-2.4-1.1-3.5a5.7,5.7,0,0,1-1.3-2.7l1.4-2.3a19.3,19.3,0,0,1,.4-8.6,16.4,16.4,0,0,0,2.3-4.8,5.7,5.7,0,0,1,.2-3.4l-.5-1.3-.6-.4c.4-1.9-1.6-4.5-1-6.4-1-1.3-2-3.5-2.9-5s.6-1.2.8-1.6a2.5,2.5,0,0,0-.2-1.9c1.5-4.4,6-7.7,8.3-11.6v-2.9l.8-1.2.7.2a5,5,0,0,1,1.2-2.8c.6-1.1,1.4-3.4,1.1-4.6l.5-.7a3.9,3.9,0,0,1-.1-2.4,5.7,5.7,0,0,0-.9-3.3c-.2-.7,1.5-3.5,1.9-4.1C221.1,163.9,242.9,169.7,262.5,175Z"/>
      <path class="cls-1" d="M328.9,308c-1.5,4.9-2.3,17.1-5.7,21.1a2.6,2.6,0,0,1-2.7-.6v-1.7a4.8,4.8,0,0,0-2.6-.9c-1.1-1-2.8-.7-4.1-.2l-.6,1a4.8,4.8,0,0,1-.1,2.4,5.3,5.3,0,0,1-.2,3.9c-.7,2.3-.1,5.3-1,7.6.9,1.9.8,6-.4,7.7l-.8.2-.3,2c-21.5-34.8-44.2-73.1-65.2-108.1,4.5-19,12.4-48.4,17.2-67.3,27.5,7.3,60,14.3,88,20.1C343.7,232,335.8,271.1,328.9,308Z"/>
      <path class="cls-1" d="M327.9,96.5a33.8,33.8,0,0,1,1.6,4.8l.8-.5.5,1,.9.4c.5.3.5,1.6.4,2.1,1.4,2.1-1.1,3.4-1.7,5.1-2.4,2.5-3.3,6.9-6.2,9v.9c-.8,1.8-2,4.5-4.3,4.7-.6,1-2.5,4.6-3.6,5.1a4.1,4.1,0,0,1-1,2.2,7.6,7.6,0,0,1-.1,2.6l.6.6h.9l.5,1.1.7-.3,1,1.5V138c-3.7,3.8-10.9,41.7-12.5,47.7-34.7-7.8-70.5-17.7-104.7-27.8v-.6c-1.4-1.7-.9-4.1-1.2-5.9a2.6,2.6,0,0,0,.4-1.9,5.2,5.2,0,0,0,.6-2.3,11.1,11.1,0,0,1,1.6-2.4v-2.2a3.4,3.4,0,0,1-.3-2l-.5-.7a3.3,3.3,0,0,0-.2-2.2,23.3,23.3,0,0,0,5.7-9.5c2.3-1.7,3.9-4.9,5.4-7.2a111.6,111.6,0,0,1,5.6-13.4,6,6,0,0,1,1.1-2.6l.4-1.8c.2-.7,1.5-3.2,1.3-3.8a3.1,3.1,0,0,0,.7-2,31.4,31.4,0,0,0,2.7-6.2c.2-.4,1.6-2.4,1.4-2.9a7.9,7.9,0,0,0,1-3.3l1-1.1V82.3l.4-.4.8.9c.6-1.5-.7-3.2.7-4.6a12.5,12.5,0,0,1,.2-3.3,5.6,5.6,0,0,0,.8-3.4c2-.8,2.2-3.8,1.4-5.6l1,.2a5.7,5.7,0,0,0,1.3,2.1l.4-.4-.4-.8h1.3l.3,1,.7.3a5.1,5.1,0,0,0,1.8-.9l1.1.3-.2.9.4,1.2c1,.6,2.5-.1,3.6.3l2.2,3c.2,1.8.9,4.1,0,6s-1.4,3.3-.4,4.8,3.9,1.9,5,3.4a27.1,27.1,0,0,0,7.6-1.6c2.8,1,8,.8,8.7,4.6.5.1,1.5-.5,1.8-.7l2,.7c.5-.1,4.2-1.1,4.7-1.1l1.8,1.7c1-.1,4,0,4.7-.7a29.2,29.2,0,0,1,6.6-.3l1.8-.9a2.1,2.1,0,0,1,1.2.7,8.1,8.1,0,0,1,4.6.6c.5-.1,2.9-1.1,3.4-.9l13.3,2.9v.4C317.3,93.7,324,95.4,327.9,96.5Z"/>
      <g id="_18" data-name="18" class="cls-2">
        <path class="cls-3" d="M306.5,352.9c-.3-3.1-3.6-3-3.9-6.4-.8-1.1-.8-1.9.3-1.6-.9-1.1-2.9-2.2-3-3.9s-.8-.5-1.5-.1-4-2.2-1.4-3c2.5-3.6-.8-2,.4-5.1-1.2-4.2-1.2-3.3-4.4-5.4,1-3.8-3.1-7.9-3.6-11.4s.9-2.2,2.8-2.3c0-1.8.4-2.8,2.4-3s.4-3.1,1.4-3.6.5-.7-.1-1a3.9,3.9,0,0,1-2.6-4.4c.1-.7-1-1.3-.5-2.3s-.9-.3-.3-.7.1-2.5,1.2-3.3,0-4-1.3-2.4c-.2-1.5-.8,0-1.1-1.4s-1-.7-2.4-1.5c-.8-2.5-.5.6-1.5-.6s-1.6,2.3-2,3.4c-2.3.9-1.5,5.8-4.5,3.6-.5-.9-2.1,1-2.5-.4s.6-3.7,1-5.7c-.7.2-2.2-1.3-2.4-2,1.7-1.8-1.8-.9-2.8-1.9s-.2-3.5-1.8-1.5a5.1,5.1,0,0,0-3.5-1.2c-1.1-1.8-3.2-2.1-4-4s-1.6.6-1.4-.6.4-2.1-.1-3.2-1.9-4.1.2-5.2-1-3.2-2.4-2.6c-.6-1.6,1.2-1.5-1.4-1.5s-2,.5-1.8-1a5,5,0,0,1,1.3-1.5c-.6-1.2.4-.7,0-1.4s1.2-1.9.8-2.8c-.4,1.2-1.1-1-1.5-.3s-4.1,3-5.2.7c-.4,1.7-2.5,3.3-4.5,3.5s-.4-1.4-1.3-1.9-1.2.5-1.1-.8-.3.3-1.1-.8-.2-.7-.8-1.1.5-.9.2-1.3v-4.6c-.7-.6-1.4-.9-1-2.1s-.4-2.7-1.8-2.3c.2-1.1-1-1.3-.6-2.3-1.8-1.5,1.1-3.6-1-3.6-1-2.3.4-2.5-.7-4.6.8-.5.1-1.1-.3-1.6,1.2-2.4-.2-4.7.1-7.6s-2.3,0-.5-2.8a2.9,2.9,0,0,0,3,.5c.1.1.5-.4.7-.4s1.6-.6,2.3-.6,4.2,1.9,5.2-.7c-1.2-1.3.7-3.1.9-4.6s-1.4-1.6-.5-1.8c2.8-.5.6-3,2.2-5.7-.2-.4.6,0,.9-.1s-.9-1.5-1.7-1.3-1.3-2.5-.7-2.4c2.1-3.9-2.4-2.4-1.2-4.4a2,2,0,0,1-.1-2.2c-1.4-.6-1-1.7-1-2.7s-.8-.2-.1-.6c3.9-.9,3.1,6,4.8-1.3,1.1-1.6-4.7-4.5-.2-5.8a.5.5,0,0,1,.6.6c.5-.4,2.3.7,2.4-.5s-1.7-2.3.3-4.7c-1.6-1.4,1.7-3.3.6-4.1,1.4-2.3,1.3-4.9,2.5-6.9-1.3.4-.7-.8-1.1-1.4s-1.1-.4-1.3-1.8-1.7-.6-1.3-2.1-.7-5.6.5-5.9c-.5-1.1-.2-3.7-2-4.5,0,.1-1.9,2-2.1.5-.8.7-1.6.6-1.6-.7s-1-1.1-.3-1.7-2.4-.3-1.2-1.4,1.4-1.2,1.6-2.3c2.3-.3-.6-2.4.4-4s-1.9-.9-2.3-2.3-3.3-.5-3.6-2.7c-1.5.2-.2-.9-.4-1.4s-1.4-2.7-.7-4.5c-1.3-1.4-.4-2.4-.9-4-.5.6-1.1.4-.6-.3s-1.2.7-1.3.6-.3,1.7-.9,1.4.1-.4-.1-.5-.7.6-.9.2c-3-4.2-4.6,2.7-6,4.4s-1.4,3.4-2.5,5.8-.6.8-.9,1.6a6.7,6.7,0,0,1-.9,2.4,2.5,2.5,0,0,0-1.1,3.6c-.8,1.8-1.5,3.2-2.7,1s-1.5.3-1,.8-1.6.4-1.4,1.6-1.5,3.6-2.5,1.2c-4.5-1.2-4,1.7-6.4,1.8-.7-1.7-3.3.5-3.8-1.3s-.9-1.9-2.2-2.4-1.6,1.8-3.1,2.3,0-1.9-1.4-2.1c-2.7-2.4,1.3-3.4-2-5.1-2-.1-1.1,2.7-3.4,3.3s-2.9-.8-3.5,1.5c-5.7-3.1,2.7,8.2-.8,11.2-3.7-1.4-.2,3-2.2,4.2s-.6,3.6-1.5,5c-3.7,5.9-9.7,8.9-7.8,15.9,7.8,10.3,2,20.8.8,31.9,1.8,7.2,10.4,15.7,5.3,22.6-.9,1.4,1.9,2.9,2.6,1.5.5,3.1,4.4,4,3.6,7.1-5.6,16.2,6.3,19.7,1.9,27.1-2.6,8.7,4.8,15.3,5.4,23.7,8,9.8,1.1,12.4,7.4,15.4-.6,3.1-2.2,5.7-1.6,9.1-2.6,2.5-.9,3.8.7,5.8-.1,3.5,5.3.9,7.2,2.9s6.7,2.2,9.6,4.5c6,14.1,11.1,7.3,14.4,13-2.4,10.1,7.3,1.8,14.1,20.4,2.5,6.7-2.5,14,4,17.3.6.2.5.6.1,1s.7,1.8,1.5,1.4.3,2,1.2,1.4.6.8,1.2.4.5,1.5,1.3,2.2,1.2.5,1.3,1,.4.6,1.1.5c2.4-.9.4,2.3,3.5-.7,1.2.3.2,1.9,1.6,1.2a2.6,2.6,0,0,0,2.6,1.6c.7.7,3,1.8,2.1-.1s1.3-3.4,1.1-5.5,1.5-4.6,3.8-3.3c1.3-.5-.4.8.6,1.2s2.2,4.2,3.9,5.8c2.4-1.1,4.8-2.9,7.8-2.1s6.8-5.3,5.4-7.6c-.8-.5,1.1-.9,1.1-1.8s-.2.2,0-.6-1.7-1.7-.9-2.6c-1.2-1.4-2.2-1.4-3.4-1.9a11.6,11.6,0,0,0-2.9-2.4c2.2-1.6-2.3-6-.1-6.8.5.2.5.7.7,1.2s3.2,2.7,3.5,2.4c1.9,1.2,2.3-1,3.5-1.5,3-3-1.5-6.4,1.2-7.9.6-1.9,2.9.3,4-.4,1.5-3-.8-5.8-1.4-8.5s.1-2.4.4-4.3S305.9,355.3,306.5,352.9Z"/>
        <path class="cls-3" d="M242,372.7c.6-3.4-8.4-8.8-5.7-2.5C236.8,372,240.9,377.5,242,372.7Z"/>
        <path class="cls-3" d="M238.7,383.8c-1.4-2-2-4.5-3.4-6.5C229.8,376,236.4,390.3,238.7,383.8Z"/>
        <path class="cls-3" d="M230.6,366.2c-.5-1.9-3-.4-2.5,1.1S231,367.8,230.6,366.2Z"/>
        <path class="cls-3" d="M227.9,353.5c-2-2.8-5.9-2.4-8.2-4s-2.9-.1-3.4.1c-1.1-1.4-4.2.6-4.6-1.4s-1.6-3-2.8-1.5c-.3-2-3.7-.3-1.5,1.4-.5,1.9,2,2.3,3.3,2.7s1,3.1,2.5,3.5C217.8,352.2,224.4,356.5,227.9,353.5Z"/>
        <path class="cls-3" d="M222.6,370.5c-.5-1.7-3.3-3.8-4.8-2.1S222.3,373.9,222.6,370.5Z"/>
        <path class="cls-3" d="M217.7,367.8c1.3-.2,1.2-2.4-.2-2.3S216.3,368,217.7,367.8Z"/>
        <path class="cls-3" d="M189.9,255.9c-.1-.8-1-1.3-1.2-2.1C184.1,250.5,188.9,261.7,189.9,255.9Z"/>
      </g>
    </g>
  </g>
</svg>
