<svg xmlns="http://www.w3.org/2000/svg" width="500" height="500" viewBox="0 0 500 500">
  <defs>
    <style>
      .cls-1 {
        fill: none;
        stroke: #999;
        stroke-width: 0.75px;
      }

      .cls-1, .cls-2 {
        stroke-linejoin: round;
      }

      .cls-2 {
        fill: #5c98ff;
        stroke: #fff;
        stroke-linecap: round;
        stroke-width: 2px;
        opacity: 0.5;
      }
    </style>
  </defs>
  <g id="hucs">
    <g>
      <path class="cls-1" d="M291.1,190c2.2-.6,7.9-1.8,10.1-2.2v.7h.9v-.8l13.8-3.5c1.5,3.4,2.8,9.8,3.7,13.5l-.7.4.4,1.6-2,.8-.2.4a6.6,6.6,0,0,0-2.1.8h-.9l-1.3,1.3h-.3l-.8-.9a3.8,3.8,0,0,1-.3,1.8l-.8-.2a3.8,3.8,0,0,1-2.6.7c-1,.7-2.9.9-3.8,1.6l-.6-1.1h-.5a6.5,6.5,0,0,1-.6,2.4l-1,.6-.2,1H300l-.8,1.3-1.7.5c-.4,1.5-1.9,3.5-3.5,3l-1.2-1.7a26.9,26.9,0,0,0,2.7-3.2C292.3,204.5,292.5,194.9,291.1,190Z"/>
      <path class="cls-1" d="M268.4,249.9h.7a3.7,3.7,0,0,1,3.1-3.5c.4.1,1.6.2,1.9.6h-.2l-.9,3.3-.5.2c-.7,1,0,2.5.3,3.3a4.9,4.9,0,0,0,.4,2.1c3.1,2.9,3.9,3.3,4.7,7.7a5.5,5.5,0,0,1,1.9,3.2,26.9,26.9,0,0,1,2.7,2l1.7.4.9,2.4-1.2-.6.4,1.4-.3.9h-1.1l.8.8.6-.5.7.2.5-.2a4.9,4.9,0,0,1,.8,2.4c-2.4.5-7.5,1.6-10,2C273.5,269.6,270.7,258.3,268.4,249.9Z"/>
      <path class="cls-1" d="M251.5,271.9l.9-1.4a7.9,7.9,0,0,1,2.6,1.9l-1.5,2.3A6.3,6.3,0,0,0,251.5,271.9Z"/>
      <path class="cls-1" d="M240.7,265l-.7-.5v-1.1l-.8-.8v-1.3h-.7l-.9-.9.4-1-.5-.4a4.4,4.4,0,0,1-2.3.6l-2.3-1.4h-.8l-.5.4-.3.8-.7.5h-.8a8.2,8.2,0,0,0-1.8,3.3c-1.3,0-3.2,0-4.3-1v-1.1l-.7.5v1.2a9,9,0,0,0-1.7,3l-.3.2a2.8,2.8,0,0,0-1.8-.3,5.9,5.9,0,0,1-2,2.9c-.6,1.3-2.4,2.8-3.1,4.2l-2.2-11.6c18.5-3.6,38.4-7.1,56.9-11.3,2.3,8.4,5.1,19.7,7.8,28,2.6-.4,7.6-1.5,10-2a2.3,2.3,0,0,1-.2,1.6c.6,1.2.2,3.2,0,4.5a26.4,26.4,0,0,1-.1,4h-1c.4-.4.4-3.2.5-3.9l-.7-.8a4.7,4.7,0,0,0-.4,3.1l-.6.6v1.6l-4,1.5-.2.9a3.7,3.7,0,0,0-2.5.9v.6l-1.3-.6v-1.1a3.8,3.8,0,0,0,1.4-1.4l-.2-.4-1.1.6h-.6l.3-1,.8-.5-.2-.6a6.8,6.8,0,0,1-2.1,1,2.5,2.5,0,0,1,.1-1.7l.8-.4-1-.4v-1.8h-.5v1.4l-.5.3-1.4-1.4v1.9l-1.8-1.1a3.4,3.4,0,0,0-1.2-1.2h-.9a9.5,9.5,0,0,1-1.1-2l.5-.7v-1l.9-.2-.5-.7-.8.6-.6-1.1.5-.8h1.3l1.2.6h.8v-.6l-1.7-.9.2-1.6-.3-.2-.7,1-.5.3-.7-1h-1.5l.2-1.7.7-.5,1.1,1.1a2.8,2.8,0,0,0,.2-1.8l-.8-.3-.4-2.1.5-.4c-.4-.7,0-2.4.3-3.2h-.7l-.7.5-1.2-.6c0-1.1.2-2.8.9-3.5l-.2-.8h.7v-1.1h1.6l.4-.8h-.9v-.7l.7-1h.7v-.9l-.5-.5-1.1.9.3-1.6-1,.3-.5-.3c-.4.2-.7,1.5-.9,2a2,2,0,0,1,.6,1.4l-.5.8h-.8v.8l-.8.9H262l-.2-.7-.7.2.4,1.1-.9.2.4,1.1-.9.2.6.7-.3.4-1-.2-.8-.8h-.8l.6,1.2h.7l.5,1a6.4,6.4,0,0,0,1.8,1l-.5,1.5h.9v1.1l-.9-.2.8,1.5h-.9l-.5.4.4.7-.4.9.9.2.2.8-.6,1.1a5.2,5.2,0,0,1,1.1,2.9l.3.4v1.4a17.2,17.2,0,0,0,3.2,3.4v1.1h-1.2l-.2-.7c-.5-.3-1.7-1.3-2.3-1.1l-.7-.7h-.7v.6c.8,1,3.1,1.9,3.9,3l1-.4.6.6-.2.4.3,1.3,1.2,1.1v.7l.5,1-.6.4-.6-1.1h-.6a2.9,2.9,0,0,1-.4-1.6h-.6v1l-.9.6-.5-.9a5.5,5.5,0,0,0-1.7-.5l-.3-.3-.6-.6-.2.9-.6.4-.7-1.2h-.6v.7l-.9-.3-.2-.8-.9-.3a4.4,4.4,0,0,0-1-2.3h-.5l-.5,1.2.4.4-.6.7c-.7,0-1.5,1.2-2.3,1.2s-1.4-4.4-.8-6.3l.9-.7a3.9,3.9,0,0,1,1.5-2.6c-.9-1.6.3-3,1.2-4.2a7.9,7.9,0,0,0-2.6-1.9l-.9,1.4a4.9,4.9,0,0,0-2-.5l-.8-1.1a4.4,4.4,0,0,0-2.3-.2,14.8,14.8,0,0,1-2.1-1.3c-.2-.6.5-1.6.8-2.1l-.2-.7C243.6,265.8,242.2,264.8,240.7,265Z"/>
      <path class="cls-1" d="M291.1,190c-.8-2.3-.1-7.1-.4-9.5s.4-5.4-.1-6.8c9.1-2.2,19.8-4.2,28.8-6.3a2.6,2.6,0,0,1,1.4-1.3l-.3-1.1v-.4l1.5-.6v-1.1c.1-.4,1.8-.8,2.1-.9l.8.2v1.4c.2.3,1.2,1.5,1.1,2.1l.8.2.3.8h.7l.7,1a2.9,2.9,0,0,1-2,1.4l-.4.7.5.5v.6l-1.3.9a3.9,3.9,0,0,1-.6,2,7,7,0,0,0,.9,2.4l1.1.5.5-.2V175l1,.6a3.3,3.3,0,0,1,1.9.6l.6,1.5,1.3.6.4,1.2-.6.3v.9l.9.9h1.5c1.2,2.6,1.1,4,4.6,3.7,1.7-1.2,5.1-2.9,3.4-5.5h-.9l-.4-1.7-1.6-.8-.6.8-.7-.4V177c2.7-1.1,4.5,2,5.6,3.9V182l.7.8c-.4,1.3,1.1,2.6.7,3.8l-.4.2-.4-1.1-.9-.3c-.5.3-1.4.8-2,.5l-.7,1h-.4a5.9,5.9,0,0,1-2.2,1.2l-.3,1.8-2.5.9c-.4-1-.2-2.3-.7-3.2l.2-.9-1.2-.2-.4.2-.2,1.9c-.2.3-.9,1.4-.8,1.8h-1l-.5.8.3,1h-.5v.6l-.8.4-.6-1-.4.2-2.1-4.4h-2.4a7.4,7.4,0,0,1-1.2-2.9h-.4l-.9-2.5c-1,.2-4.6,1.5-5.7,1.8l-.4-.5c-4.2,1.2-9.7,2.5-13.8,3.5v.7l-.9.2v-.7Z"/>
      <path class="cls-1" d="M276.5,209.5c4.1,1.9,10.2,3.8,14.3,5.5l.2,2c-1.1,1.6-1.3,4.2-1.4,6.1l-1.2.5c-.6,1-.4,2.6-1,3.6s1.5,1.1,2,1.3a4.1,4.1,0,0,1,2.9,0l.3-.7a10.2,10.2,0,0,1,1,6.2,61.3,61.3,0,0,1,.9,8.5h-.3a22.7,22.7,0,0,0-.9-5.2l-.3-.2a4.2,4.2,0,0,0,.2,2.5,8.5,8.5,0,0,1-.2,3.2,5.9,5.9,0,0,1-.9,5.4v1.1l-1.1-.2c-.2.6.5,1.5.7,1.9a4.1,4.1,0,0,1-1.5,2.7,48.7,48.7,0,0,0-3.1,10.3l-1.1.8-.7-.2c-.1-1.3.6-3.4.1-4.7l-.6-.5-1,.2-.6-.6h-1.2l-.4.8h-.6l-.5-1a2.4,2.4,0,0,1-1.3-.9h-.9l-.6-.7-1.3-.5c-.5-.9-1.8-1.4-2.4-2.3l-.2-2-.9-.7a22.2,22.2,0,0,1,1-5l.2.2c.7-1.5,2.8-1.7,3.7-2.8v-1.7c.8-1,1.5-2.7,2.4-3.5s1.5-1.7,2.4-2.1l-1.2-1.8H281c-.8-1-2.4-1.8-3-3l-1.3-.3-.4-.3-.6-2.4-.9-.3-.8.2-.5-.3a7.1,7.1,0,0,1-.2-2c-.5-.3-.4-1.9-.4-2.2l.8-.6a3.8,3.8,0,0,1,.3-1.8v-.7a3.6,3.6,0,0,1-1.3-2.2l1.3-1.5a5.5,5.5,0,0,1,1-2.2C275,213.4,275.1,211,276.5,209.5Z"/>
      <path class="cls-1" d="M312.3,212l.5-.4c0-.8.8-1.6.7-2.3l1.4-.4.4-.7h.5l.6-.7.5.6c1.4.2,1.8-1.6,2.8-2.2h.8v1c-1,.8-3.4,3-4.5,3.8a11.9,11.9,0,0,1-4.1,3.6c-2.1,1.8-5.1,5.3-7.9,5.8a66.4,66.4,0,0,1,6.2-4.9l-.3-.7c-1.7.9-3,3-5,3.2l-.5.6h-1.1l-.3.7h-1.1v.6l-1.2.3-.2.5-1.3.8h-.5c-.4.2-2.3,1.6-2.7,1.5l-.2.8a7.1,7.1,0,0,0-2.3,1.2l-.3-.3,1.5-1-.3-1a4.2,4.2,0,0,0-1.8,1.1l-.3,1.1-.8-.2-.7-1.7a8.1,8.1,0,0,0,1.2-2.9l.7.2.7-.9.5.2.2-.7.4-.2v-.7c.9-.4,1.2-1.6,2-2.2l.9.6a2.9,2.9,0,0,1,.4-1.6l.8.5.9-.8h1.9l.9-.6-.2-.8.5-.3.6.2c4-.9,7.5-2.1,9.1-5.9h1l-.7.9.3.8-.5.3-.2.7-.7.5-.4.8-1,.7.5.4h1.2l.8.9.5-.5Z"/>
      <path class="cls-1" d="M197.5,204.5c1.5-1.8,4-3.6,4.8-5.9s4-3,4.4-6.3a6.7,6.7,0,0,0,1.9-1.4c.4-1.5-1.2-3.1-1.5-4.4a1.8,1.8,0,0,1-1.5-.6v-1.3l-.9-1.2.4-1-.4-2.9a35.4,35.4,0,0,1,18.1-4.6l2,1.3h1.2l.4.4c1.2-2.8,5-2.3,7.4-2.8l.6.5.6-1.2,1.1-.2,1.1-1.2h.7a7.1,7.1,0,0,1,1.3-3.1l1-.3c0-.4.1-1.4.5-1.7a9.3,9.3,0,0,0,2.4-.3c1.1-2.3,0-5.7-1.8-7.3v-.5l.4-.6.9.2a3.7,3.7,0,0,0,.3-2.1l-1-.4.7-1.1a2,2,0,0,1-1.2-.6l-.5.7.5.4v.7l-.8.3-.7-1.8-.9-.5v-.6c1.5-2.1,4.2-3.8,5.2-6.4a5,5,0,0,0,1.5-3.7l-.3-.3c.7-2.1,4.4-7.6,5.4-9.7s3-2.5,3.4-3.5l2.5-1.5c6-.4,14.3-3.4,20.4-4.8a4.2,4.2,0,0,1,.3,3.3,4.4,4.4,0,0,0,.9,1.8c0,4.3,3.4,8,3.3,12.3-.7.7-.7,3.2-.7,4.1s1.1,2.6,1.8,3.6a5.4,5.4,0,0,0,1.1,2.6c.1,1.4-.5,3.3.2,4.6l.4.2.6-1.4.6.2c3,5.6,3.1,13.2,5.1,19.3s0,10.6.2,15.2c2,5.3,1.3,15.1,4.8,19.6a41.5,41.5,0,0,1-2.7,3.2l1.2,1.8a5.1,5.1,0,0,1-1.6,4l.5,1.2-1.5-.4a8,8,0,0,1-.7-3.4c-4.2-1.7-10.2-3.6-14.2-5.5l-.9-1.3-1.3.3c-.7-.4-1.9-.5-2.6-1.1s-2.1-3.3-1.9-5.2l-1.1-.7-.2-.8-.8-.6a2.6,2.6,0,0,1-1.9-.5,6.1,6.1,0,0,0-1.8-2.4c-21.3,4.9-44,9.2-65.4,13Z"/>
      <path class="cls-1" d="M291.3,219.3l-.2,2-.8.3a15.7,15.7,0,0,1,.6-2.8Z"/>
      <path class="cls-1" d="M287.8,227.8l-.3-.5c.7-.9.4-2.6,1-3.6l.4-.2v.3l.9-.6.8,1C289.9,225.2,288.9,227.5,287.8,227.8Z"/>
      <path class="cls-1" d="M280.5,321.6l1-.2h.2l.5,1.2-.9.2-.6-1.3Z"/>
      <path class="cls-1" d="M197.5,204.5l1.2,5.8c21.4-3.8,44.1-8.1,65.4-13a5.3,5.3,0,0,1,1.8,2.4,3.2,3.2,0,0,0,1.9.5l.8.6.2.8,1.1.7c-.3,1.9.8,3.7,1.9,5.2s1.9.6,2.6,1.1l1.3-.3.8,1.3c-1.3,1.5-1.5,3.9-1.8,5.8a4.4,4.4,0,0,0-1,2.2l-1.3,1.5a3.2,3.2,0,0,0,1.3,2.2v.7c-.3.3-.3,1.3-.3,1.8l-.8.6c0,.4-.1,2,.3,2.2a3.1,3.1,0,0,0,.3,1.9l.5.4.8-.2.9.3.6,2.4.3.3,1.4.2c.6,1.2,2.1,2.1,3,3.1h.6l1.2,1.8c-1,.4-1.6,1.5-2.4,2.1s-1.6,2.5-2.4,3.5l-.2,1.7c-.8,1.1-2.9,1.3-3.6,2.7-.3-.4-1.5-.5-1.9-.6a3.8,3.8,0,0,0-3.1,3.5c-23.9,5.3-49.2,9.9-73.3,14.1-1.8-10.4-3.4-21.4-5.2-31.8l-.2-.2c-.8-5.4-2.3-13.5-3.2-18.9,2-1.2,4.6-3,5.3-5.3h.7l.2.7A19.5,19.5,0,0,1,197.5,204.5Z"/>
      <path class="cls-1" d="M319.5,199.5l-.3-1.6.6-.5c-.6-3.4-2.5-9.5-3.4-12.9a41.7,41.7,0,0,1,5.7-1.8l.9,2.5h.4c.2.6.7,2.5,1.2,2.9a6.5,6.5,0,0,0,2.4,0c.3.6,2.3,4.6,2.2,5.2l-.8,1.2-.5-1-.4.2.3,1.4-1.2.6-.5-.7a9.6,9.6,0,0,0-.6-3.7l-.5-.5-.7.2a5.2,5.2,0,0,1-.4,2.1l.8,1.5a7.1,7.1,0,0,0,0,2.9l-1.1-.5v.5c-.9,1-2.8,1.7-3.5,2.9h-.6Z"/>
      <path class="cls-1" d="M277,123.2c7.5-1.7,18.4-5.2,25.9-6.6l-.4.8c1,1.3.6,4,.2,5.5l1.9,3c.1,3.9-1,3.9-2.5,6.8-3.1.8-2,2.4-2,4.7s.4,2.8.1,3.9-.5,3.2-.1,4.8a17.1,17.1,0,0,1-.9,3,4.9,4.9,0,0,1-.4,2.9c.1,2.4,1,5.6.9,8a10.4,10.4,0,0,1,.7,3.9l.4.6c-.6,2.9-1.3,4.2,1.4,6.5l-11.9,2.7c-1.9-6.2-2-13.7-5-19.3l-.6-.2-.6,1.4-.4-.2c-.7-1.3-.3-3.2-.3-4.6a11.7,11.7,0,0,1-1-2.6c-.7-1-1-2.8-1.8-3.7s0-3.4.7-4c.1-4.3-3.3-8-3.3-12.3a3.4,3.4,0,0,1-.9-1.8A3.3,3.3,0,0,0,277,123.2Z"/>
      <path class="cls-1" d="M284.9,285.9h1c-.6,1.1-1.4,3.2-1,4.4h-.4C283.9,289.3,284.4,287.1,284.9,285.9Z"/>
      <path class="cls-1" d="M240.7,265c1.5-.2,2.9.8,4.1,1.1l.2.7c-.3.4-1,1.4-.8,2.1s1.8,1,2.1,1.3a4.3,4.3,0,0,1,2.3.2l.8,1.1c3.3.3,3.7,2.6,4.3,5.3a4.4,4.4,0,0,0-1.5,2.6l-1,.7c-.5,2-1.2,5,.9,6.3s1.6-1.2,2.3-1.2l.6-.7h.6l.2.7-.2.7a4.3,4.3,0,0,0,1.8,1.5v.6a23.4,23.4,0,0,0,5.5,1.5l.4-.4a3.8,3.8,0,0,1,1.4,1.9h.8l.4.9.7-.7a10.4,10.4,0,0,0,3.6,1.4c.1.4.4,1.2.2,1.6l-.9.2-.2,1,.6.6c0,.4,0,1.3-.4,1.6l.6,1.3-.5.3-1.3-.2-.4-.6-.9.5c-.4-1.6-2.3-2.5-3.7-3.1l-.8-1.2c-1.2-.2-2.5-1.7-3.3-2.6l-.2.9,1.6,1.6c.6.1,1.4,1.1,1.7,1.6l.8.3.6.9a3.9,3.9,0,0,1,2.6,2.8l.7.3,1.6-.3.9.5,1-.2.2.8-2,.3a2.6,2.6,0,0,0,1.7.7l1,.8h.8a3.6,3.6,0,0,1,.2,2.5c-.7-.3-2-.8-2.3-1.5l-.9,1.5.7.5-.6.7.5.4.7-.4.5.8-.3.4h-1.4c-2-1-4.3-3.3-5.9-5l-.5.7c1.8,1.6,4.7,5.6,7.3,5.2l1,1,1.1-.2v1.5l.7-.4.6.7v1.1l-.9.2-1.2,1.2-1.2-1.3h-.5l-.7-.8-.5.2-.8-.5V311l-.8-1.3H266l-.6.4-2.1-.5-.2-1.3-.6.2v1.2h-1l.4.8a4.2,4.2,0,0,0,2.7,0l.8.8,1.4-.2a7,7,0,0,1,.5,2.5l.8.3h.6l.2.7.7-.2,1.1.6.4,1.4a5.3,5.3,0,0,1,2.6-.6l.2-.4-.3-.8.4-.6c1,.5,2.5.3,3.4.9l.9-.9.7.2a31.4,31.4,0,0,1,1.8,3.7,10.7,10.7,0,0,1,2,3.6h-.6l-.2-1.2-1.2-.7-.3.6a3.5,3.5,0,0,0,.8,1.6,2.2,2.2,0,0,0-1.2.5l-.2-.2c-29.8,6.7-60.2,13-90.6,15.7l-.3-.6-4,.7-.3.4c-8.9,1.5-19,3.1-28,3.9a10.3,10.3,0,0,1,4-2.1,30.9,30.9,0,0,1,4.2-2.5l.3-1.8c.8-.8,2.4-1.1,3.2-1.9a2.3,2.3,0,0,0-.1-1.8l.4-.6a5.7,5.7,0,0,0,1.8-1.2l-.2-1.9c.2-.2,2.6-2,2.5-2.4l3.3-1.9c1-2,3.7-4.9,4.8-6.8l.6.6-.7.9a4.4,4.4,0,0,1,1,1.9,5,5,0,0,0,1.9,1.9h.8c1.4,1.2,2.3,1.8,4.1,1.3l.7-1.2h.4a3.6,3.6,0,0,0,1.3-2.2,7.1,7.1,0,0,1,2.1,1.7h1a6.8,6.8,0,0,1,4-1.9,7.7,7.7,0,0,0,1.6-1.5l-.9-.8.6-.8h.9l.5.7c.5-.4,3.1-2.8,3.9-2.7l.4.8h.6a7.9,7.9,0,0,1,1.8-2.2l-.5-.7v-.5l1.7-1.3-1.2-.5-.4-.9c.2-3.1,2.4-6,3.7-8.7s0-4.2,2-6.1l-.4-.7c0-.5.7-1.1,1.1-1.4s-.5-3.7.1-5.2l.4-.4,1.8.8.9,2a8,8,0,0,0,3.1.2c1.5-1.3,1.2-5.2,2.3-6.8a2.5,2.5,0,0,1,.3-1.7v-.8l.9-1.2,2.2,1.4c.3-1.2.5-3.3,1.4-4.3l.6.3.5-1.4.8-.2.4-1-.3-.4c.3-.5,1.9-2.7,1.9-3.4l-.7-.4.3-1.4-.4-.2.8-2.3h-.5a5.3,5.3,0,0,1,.3-2.2c1.4.6,7.7,4.7,9.1,5.6l.3-.3A20.8,20.8,0,0,1,240.7,265Z"/>
      <path class="cls-1" d="M279.5,288.9l.2-.9,4-1.5-.7,1.4a6.7,6.7,0,0,1-.1,2l.2.6c-.3,1.8-1.8,4.1-1.1,6a8.1,8.1,0,0,0-1.2,3.5h-.4l-.7.6a5.2,5.2,0,0,0,.2,1.7,8.8,8.8,0,0,0-.7,3.2,3.1,3.1,0,0,0-.2,2.8l-.7.4a9.6,9.6,0,0,1-1.2-2.7,4.8,4.8,0,0,0-.1-2.1l.3-.7v-.7l-.5-.6.4-.7c-.7-1.6.1-4.2.7-5.5s.1-1.7.2-2.1h.8a3.7,3.7,0,0,1,.5-1.8l-.8-1.8.8-.3Z"/>
      <path class="cls-1" d="M211.5,261.2l2.2,11.6c.7-1.4,2.5-2.9,3-4.2a5.6,5.6,0,0,0,2.1-2.9c.5-.2,1.4.2,1.8.3l.3-.2a10.8,10.8,0,0,1,1.6-3v-1.2l.8-.5v1.1c1.1.8,3,.8,4.3,1a11.4,11.4,0,0,1,1.7-3.3h.9l.7-.5.3-.8.4-.4h.9l2.3,1.4a4.4,4.4,0,0,0,2.3-.6l.5.4-.4,1,.9.9h.7v1.3l.7.8v1.1l.8.5a34.8,34.8,0,0,0-1,4.4l-.2.2c-1.4-.9-7.7-4.9-9.1-5.6a5.8,5.8,0,0,0-.3,2.2h.4l-.7,2.3.4.2-.3,1.5.6.4c0,.7-1.5,2.9-1.8,3.4l.3.3-.4,1-.8.2L227,277l-.5-.4c-.8,1-1.1,3.2-1.4,4.4l-2.2-1.4-.9,1.2v.8a2.6,2.6,0,0,0-.3,1.7c-1.1,1.5-.8,5.5-2.3,6.8a16.7,16.7,0,0,1-3.1-.2l-1-2-1.7-.9-.5.5c-.5,1.5.3,3.5-.1,5.1s-1.1.9-1.1,1.4l.5.8c-2,1.9-1.6,3.6-2,6s-3.4,5.6-3.7,8.8l.4.9,1.2.4-1.7,1.3v.6l.5.6a9.6,9.6,0,0,0-1.8,2.2h-.6l-.4-.7c-.8-.2-3.4,2.4-4,2.7l-.4-.8h-.9l-.6.9.8.8c-.1.4-1.2,1.3-1.5,1.5s-3.3,1.1-4.1,1.9l-.9-.2a8.3,8.3,0,0,0-2.1-1.6,4.8,4.8,0,0,1-1.3,2.2h-.5l-.6,1.2a4.1,4.1,0,0,1-4.1-1.3h-.9a7,7,0,0,1-1.8-2c.1-.5-.6-1.4-1-1.8l.6-.9-.5-.7a3.9,3.9,0,0,1-2.8-.1l-.9-1.7-.6.6a5.6,5.6,0,0,1-2.1-2.9l-1.4-1-.7-1.8-.7-.2-.3-.6.2-.9a22.8,22.8,0,0,0-2.9-3.3v-.8l.5-.5a2.6,2.6,0,0,1,0-2.1,7.5,7.5,0,0,1-.7-3.6v.2c.9.1,3-1.1,3.7-1.4l.3-2.9,1.3-.8a31.3,31.3,0,0,0-1-4.4l1-1.1a4.7,4.7,0,0,1,1.3-4.3c.5.2,2,.7,2.1,1.3v1.7l1-.5.2-1.1h1.2a3.5,3.5,0,0,1-.4-1.7l-.8-.7v-.6l.7-.3c.5-.7-.1-2.3.2-3l.5-.3v-1l.4-.4h1.2c.1-1.1.6-2.8,1.7-3.2a3.4,3.4,0,0,1,1.5.9,9.8,9.8,0,0,0,3.6-3.4c.5-1.1,1.7-3.5,3-4a4.9,4.9,0,0,1,.4-2.1l-.4-1.2c.3-.8,0-1.9.4-2.6l-.2-.9.5-.3a26.8,26.8,0,0,1,1-8.9c-.1-.5-.7-3-.4-3.5a13,13,0,0,0-1.4-2.6v-.7a5.1,5.1,0,0,1,2.1-1c.9,6.7,2.3,14.3,3.4,20.9C199,263.4,208.1,261.6,211.5,261.2Z"/>
      <path id="_02" data-name="02" class="cls-2" d="M304.9,205.7c.2.6.4-.6.7-.7s.7-.6.2-1,.5.2.7.5,1-.4,1-.8.1.3,0,.3.8-.9,1.1-.3.8.6,1.2-.6a19.8,19.8,0,0,0,5.5-1.6,2.5,2.5,0,0,0,.9-.9c.1.6.5.4.2,0s2.3,1.1,1.3-1.7c.2-.4.5,1.2.8.8s.2-.2.3-.5-.2.6,0,.4,0-.8.4-.2,0-.5.5,0,.1-1.1.4-.6c1.1-1.2,4.3,1.8,3.9,6.3-8,8.3-17.6,15.9-28.3,19.4,4.5,15.7-1.5,30.1-8.1,43.2,6.3,15.9-6,29.3-5,44.8,1.3,1.7-.9,2.1-1.6,1.6-.2,1.4-1.2,1.1-2.1.7-1.2,4.4-2.6,3.9-4.7,2.5.1,2.9-3.7,2.1-4.6,1.1s.5-2.7-.3-4.6c1.1-2-2.1-4.1-3.1-3.8s-2.5-2.1-1.8-.3c-1.2,2.1-3.7,0-4.6-1-1.9.8-3,3.2-5.4,1.7-1.4,2.2-4.8,2.3-6.5,4.2-1.1-1.3-2.4-2.2-3.8-1.7s-1.7,3.3-3.5,3.1-1.4-.8-2.5-1.2-1.3-2.8-3.6-3.3c-2.1-2.9-5.4,5.1-5.8,1-3.2,1.2-2.8-3.4-4.3-2.5-1.3-.8-2.4-1.1-3,.4s-.7-1.2-3.5,2.2c-1.3.4-1.5-1.9-3-.3s-3.5,3.6-3.6,2.5c-4.9,3.7-2.2.8.1-1.9-1.4-1.4-6.6,6.6-4.1.7-2.4-.7,2.1-2.3,1.7-3.5s-.7-1.8.6-3.4c-.5-2.8,3.1-5.2,3.4-8.7.2-1.7.2-3.2,1.5-4.5s-.3-2.2,1-2.6c-.4-4.8,2-8.2,1.2-12.4,1.8-.5,3-2.2,2.7-4.8-2.1.6.4-3-.9-2.9s-1,.9-1.8.6c-3,1,2-5.5,2-6.9s-.3-2.8,1.3-4.4,4.1-2.1,1.9-3.8c-.6-3.5,2.8-7.3,2.7-11.2-.6-1.7,1.5-3.2.2-4.9-1,.6-1.5-.4-2.3-1s-.3-.4-.5-1.2-2-1.4-2.4-2.3-.5-1.1-1-1.6.4-.9.2-1.4-.8-.9-.1-1.4,1.9-2.6,2-3.9-1.5-2.8.2-5.2c-.6-2.1,2.2-2.7.2-4.4-.5-1,1.2-2,.8-3.2s1.4.1,2.3-1.3-.4-.8,0-1.3.3.9,1,.2a24.5,24.5,0,0,0,2.9-2.3c2.9,1.7,1.1-.6,2-2.3s2.2-1.9.6-3.5c.3-.2,1.8-1.5.7-1.5-1.6-6.7-2.4-1.2-4.3-7.1-1.1-1.5,3,.4,1.5-2.1,1.1-.7,1.5.7,2.6-.8s-.8-2.2-.2-4.3,1,2,1.7,1.7c2.3.3,2.9-3.2,3.5-1.1s.1,1.1.1,1.6-1.8,1.8-.8,3.5,2.1-1.7,2.9-3.4.5-.6.2-.1c-.1,2,.7.1,1.1-.1.6,4.1,1.7,3.2,4,6.5,1.3-1.7-.9-9.5,2.2-4.1,4.3,1.9,0-.5,3.6-1.4,1.3.8.4-.9.9-2s.9-1.1,1.4-1.3c.2-2.8-1-.8-1.2-1.4s-1-2.2-.8-3.1.8-1.6-.4-2.6,1.3,1.6,1.2.2,1.2-.2.5-1.5.5,1.6,1,1.3,0-.6.6-.7-.7-1.9-.3-2.1,2.1,3.5,2.6,1.1c.5.1.4-.5.8-.7s1.1.3.9-.5-.2-1.5.1-2,1.1,1,1.9.8-.4-1.5.3-1.6.8-1.9.1-2.3a2.1,2.1,0,0,0-.6-2.1c.7-.8,1.2-2.2.2-3.1s.4-1.8-.7-1.5-.7-.1-1-.3-.3-5.6,1.3-1.9c1,1.5,1-2.2,1.8-1.1s1.3,1.1.5,1.3,1.9-.1,2,1a10.6,10.6,0,0,0,3.4-2.4c.6-.3.2-.9-.1-1.2s2-1.4.1-1.3c.9-.3,1.2-1.1,2.3-1.4s.5-1.9,1.8-2.1a1.9,1.9,0,0,0-.2-1.8c.3-1,.7-2.1.1-2.7s1.4-.7.9-1.8,1.1.1,1.1-.5-.8.2-.9-.8-.4-2.7.8-2.9,1.3-.5,2.3-1.3.1-1.7,1-1,.6-.7.9-.3,1.4,4.1,1.9.4c1.7.9,1.7-1,3.6-1.3s.3,1.3-.1,1.8.5.4.4,1,.2,1.8,1.2,2.3c-.9,1.1.2,2.5.6,3.5-1.8,1.4-1.3,4.1-.6,6-1.5.8,0,4.1,1.4,3.9s-.1-1.9,1.8-1.8c0,1.4.7,1.2,1.1,2.3.3-1.4,2.8-3.6,3.2-1.8s.8.7,1.2.1.9.6,1.8.4,1.6-2,1.9-.8c.3,2.8-.3,5.4-.1,7.8s2.3,1.2,1.5,4.1,1.6,4.4.1,5c.1.2-.8,1-1.1,1.3s.1-2.3-1.5-2.3c.5,2.3-1.2,5.3-1.7,6.7s1.4,4.7,1.6,4.6-.8,2.2-.7,3.2c.5,3-1.5,2.6,0,5.5-.4,1.1,1,2.7,1,4.8.9-.1,1.3-1.6,1.6-.6s.2,3.9,1.3,5-.2,2.4-.4,3.5c-.6-.5-.7-.3-1.1.3s.7,4.4,1.1,5.5c.1-1.5.6-1.5.9-2.1s.1.9.4-.1-.2,1,.1.3.5.6.9-1.3c.2.3.1.4.4,0,0,1.1.3-.8.3,0s.5-.7.5-1.1.5.5.2,0,.2-.2.3-.1.2-.2.1-.1.7,0,1.1-1.1c0,.9.8-.5,1-1-.6,1.1.5-.1.2-.2s.5-.1.2.2C305.3,207.7,302.5,207.3,304.9,205.7Z"/>
    </g>
  </g>
</svg>
