<svg xmlns="http://www.w3.org/2000/svg" width="500" height="500" viewBox="0 0 500 500">
  <defs>
    <style>
      .cls-1 {
        fill: none;
        stroke: #999;
        stroke-width: 0.75px;
      }

      .cls-1, .cls-3 {
        stroke-linejoin: round;
      }

      .cls-2 {
        opacity: 0.5;
      }

      .cls-3 {
        fill: #5c98ff;
        stroke: #fff;
        stroke-linecap: round;
        stroke-width: 2px;
      }
    </style>
  </defs>
  <g id="hucs">
    <g>
      <path class="cls-1" d="M201.8,294.1l10-2.2.2.7h.8v-.8l13.8-3.5c1.6,3.4,2.9,9.9,3.8,13.5l-.7.4.3,1.7-1.9.7-.3.5a6.8,6.8,0,0,0-2,.7h-.9l-1.3,1.3h-.4l-.7-.8a2.7,2.7,0,0,1-.4,1.7l-.7-.2a4.3,4.3,0,0,1-2.7.8c-.9.6-2.8.8-3.8,1.5l-.5-1.1h-.6a6,6,0,0,1-.5,2.4l-1,.7-.2,1h-1.5l-.7,1.3-1.8.4c-.3,1.5-1.8,3.5-3.5,3.1l-1.2-1.8a27.9,27.9,0,0,0,2.8-3.2C203,308.6,203.2,299.1,201.8,294.1Z"/>
      <path class="cls-1" d="M235.9,260.6c-1.4-.2-1.9-1.9-2-3.1-2-1.3-3.7-2.9-3.8-5.4-3.2-10.4-9.2-29.1-12.3-39.7l.4-.2.2-.8,1-.2,1,1.7h.4l.6-.6c-.1-.5-.8-3.1-.5-3.6l2,.2.2-.5c-2.6-2-1.6-3.1-.7-5.6l1.1-.9a4,4,0,0,1,.9-1.7,5.7,5.7,0,0,1-.4-2.2,2.6,2.6,0,0,0,1.1-2.9l-.8-.4-.4-1.2a6.6,6.6,0,0,0,.1-2.8l-1-.9.5-3.4c2.4-2.5.4-6.3.5-9.1s3.9-16,5.7-19.7l2.3-.2c.4,1,.5,3.1,1.2,4.1a7.3,7.3,0,0,0,2.2.9c1.2-.6,2-2.4,3.5-2.5s1.5-1.7,2.6-1.7V157c.6-.4,1.8-1.1,2.4-.9s4.5,2.2,5.5,3.7c5.8,6.1,7.2,19.4,9.9,27.3l.7,1c-.5,1,.1,2.4.8,3.2l1.1-.5,1,1.1,1.9.4.8-.7.8.4c.1.5.6,1.5.4,1.9l-.5.3c-.1.6,1.4,2.2,1.6,2.7v2c.3.4,1.9,2.3,2.4,2.3s.7-1.1.9-1.5,2.5,1,3.2,1.7v1.2l1.1.9v1.4l-1.5.4.4,1.3h.9l.5-.5.5.7.9-.4.2,1.3-.7.7a11.8,11.8,0,0,1-1.2,3.6h-1l-.5-1-1.2.2a4.1,4.1,0,0,1,.4,2.1h-.6l-.6-.7-.4.7h-.9l.4,1.5-.4,1h-1l-.4,1.1-.5-.2-.2-.9-1.2.3a2.8,2.8,0,0,0,.2,1.8l-.2,1.8-.6-.5h-1l.7,1.3-1.2.4-.9-.4.2-.7-.4-.4-.4.4-.9-.9h-.5v1l-.8-.4c.1.6-.8,2-1,2.4l-.8-.3v-.8l-.7-.2.2.9-.8,1.2v2l.9.4-.4.8-1-.2-.4.5-.5-1-1.8.2-.4-.5.7-.3v-1.1l.7-.5-.9-.4-.6-1.9-.9-.6.2,2.3-.3.5-.9.2-.5,1a3.6,3.6,0,0,1,.5,3.6,17.9,17.9,0,0,1-.3,3.4l.7.7v.8l-.7.7v.6l-.5.7v1.1l-.7.4-.3-.6.3-.9-1.1.4-.2.6h-.5v-1h-.6v1l-.3.2.2,1.6-.3.6v1h-.5l-.3-.9-1.2-.4.6,1.5-.6.6-.9-.7-1.2.4v1.9l.7,1.2v1h-.6a8.8,8.8,0,0,1-1-2.7,3.1,3.1,0,0,0-1.9.4c-.4,1-1.6,1.8-2.1,2.6v.9l-.3.6-.2,1.2,1.4,1.3-.5,1-1.2.6a4.2,4.2,0,0,0,.5,2.7l-.8,2.4-1,.2a45,45,0,0,0-.3,6.3l-.4.4Z"/>
      <path class="cls-1" d="M256.9,298.1l.8-1.1.9,1c-.5.7-2.6.8-3.4.9l-.5-.4,1.1-.5Z"/>
      <path class="cls-1" d="M201.8,294.1c-.8-2.3-.1-7.1-.5-9.5s.5-5.4-.1-6.8c9.1-2.2,19.8-4.2,28.8-6.2a2.9,2.9,0,0,1,1.5-1.4l-.4-1v-.5l1.6-.5v-1.1c.1-.5,1.7-.9,2.1-1l.7.2v1.4c.3.4,1.2,1.6,1.1,2.1l.9.2.2.8h.8l.6,1.1a3.1,3.1,0,0,1-1.9,1.3l-.5.8.6.4v.7l-1.3.8a2.9,2.9,0,0,1-.7,2,5.8,5.8,0,0,0,1,2.4l1.1.6.4-.3v-1.4l1,.7a3.3,3.3,0,0,1,2,.5l.5,1.6,1.4.5.4,1.2-.7.3v.9l.9.9h1.6c1.2,2.6,1,4,4.6,3.7,1.7-1.2,5.1-2.8,3.3-5.5h-.8l-.5-1.7-1.5-.8-.7.8-.6-.3v-.9c2.6-1.1,4.5,2.1,5.6,3.9v1.1l.6.8c-.3,1.3,1.1,2.6.8,3.8l-.5.2-.4-1-.9-.4a2.3,2.3,0,0,1-1.9.6l-.7,1-.4-.2a12.7,12.7,0,0,1-2.2,1.3l-.4,1.7-2.5.9c-.3-1-.2-2.3-.6-3.2l.2-.9-1.2-.2-.5.2-.2,1.9a4,4,0,0,0-.7,1.9h-1l-.6.7.4,1h-.6v.7l-.8.3-.5-1-.4.2-2.1-4.3a9.6,9.6,0,0,1-2.4,0,6.6,6.6,0,0,1-1.2-3h-.5l-.9-2.5-5.6,1.8-.5-.5c-4.1,1.2-9.6,2.5-13.8,3.5v.8h-.9v-.7Z"/>
      <path class="cls-1" d="M250.3,296.9V298a29.2,29.2,0,0,1-3.8,1.4l-.8,1-.6-.5v-.6h.8a12.6,12.6,0,0,1,1.3-3.4l.5.4h1l.3.9h.8Z"/>
      <path class="cls-1" d="M212.9,275.2c-2.6-2.4-1.9-3.6-1.4-6.6l-.3-.5c.3-.9-.4-3.1-.8-4,.1-2.4-.7-5.6-.9-8a4.5,4.5,0,0,0,.5-2.8,18.1,18.1,0,0,0,.9-3.1c-.5-1.4.6-3.4.1-4.8s.6-2.9-.1-3.9-1.1-3.9,1.9-4.7c1.6-2.9,2.8-2.9,2.6-6.8l-1.9-3c.3-1.4.8-4.3-.2-5.5a3.1,3.1,0,0,0,.3-2.2,17.3,17.3,0,0,0,.3-3.2l-.6-.8a3.4,3.4,0,0,0,1.3-1.6l.6-.3.7.5h.5l1.4-1.4c3.1,10.8,9.1,29.3,12.3,39.7,0,2.5,1.8,4.1,3.8,5.4.1,1.3.6,2.9,2,3.1v.9l.7.9c-.4.5-.5,3-.7,3.7l-.7-.2c-.4.1-2,.5-2.1,1v1.1l-1.5.5-.2.4.4,1.1a3.4,3.4,0,0,0-1.5,1.4C225.3,272.9,217.8,274.1,212.9,275.2Z"/>
      <path class="cls-1" d="M230.1,303.7l-.3-1.7.7-.4c-.7-3.4-2.6-9.6-3.4-13a41.7,41.7,0,0,1,5.7-1.8l.8,2.5h.5c.2.7.6,2.5,1.2,3a6.5,6.5,0,0,0,2.4,0c.2.5,2.3,4.6,2.2,5.1l-.9,1.2-.4-1-.5.2.4,1.5-1.2.5-.6-.6a10,10,0,0,0-.5-3.8l-.6-.5-.6.2a5.4,5.4,0,0,1-.5,2.1l.9,1.5a7.6,7.6,0,0,0,0,3l-1.1-.6v.6c-1,1-2.8,1.6-3.5,2.8h-.7Z"/>
      <path class="cls-1" d="M187.6,227.3c7.6-1.6,18.4-5.1,26-6.6l-.4.8c.9,1.3.5,4.1.2,5.5l1.8,3c.2,3.9-.9,3.9-2.5,6.8-3,.8-1.9,2.4-1.9,4.7s.4,2.8.1,3.9-.6,3.3-.1,4.8-.6,2.3-.9,3.1a4,4,0,0,1-.5,2.8c.1,2.4,1,5.6.9,8,.3.9,1,3,.8,4l.3.5c-.5,3-1.2,4.3,1.4,6.6-2.5.5-9.3,2.2-11.8,2.6-2-6.1-2.1-13.7-5-19.3l-.7-.2-.5,1.4-.5-.2c-.6-1.3-.2-3.2-.2-4.6a10.2,10.2,0,0,1-1.1-2.6c-.6-1-1-2.8-1.7-3.6s0-3.4.6-4.1c.1-4.3-3.3-8-3.3-12.3a4.4,4.4,0,0,1-.9-1.8A2.9,2.9,0,0,0,187.6,227.3Z"/>
      <g id="_01" data-name="01" class="cls-2">
        <path class="cls-3" d="M216.8,308.3c-.1,0,0-.1,0,0Z"/>
        <path class="cls-3" d="M213.1,312.1c-.1,0,0,.1,0,0Z"/>
        <path class="cls-3" d="M209.5,315.4Z"/>
        <path class="cls-3" d="M292.4,199.8c-5.9-4.1-4.3-8.9-9.9-10.1-.6-.3-.1.1-.2.4,1.2,2.5-.6-.8-1.5,2.2-2.5-.2-3.1-5.4-5.7-2.9s-1.6-1.3-2-2.4.4-.9.2-1.3.5.3.4-.4.3.5.6.7-.5-1.5.1-1.5,0-.9.5-1.1-.1-1.4-.4-2.2,1.6-.3,1.7-.9,1.2-1.9,0-2.3c-.2-2.7-3.7-1-5.4-2.3s-2.7-2.5-3.3-1.3-1.3-1.2-1.9-1.7-2.3-2.6-2.8-1.7a5.9,5.9,0,0,1,.1-2.6c-2-.2-1.8-1.7-3.6-1.5s-.6.7-.9,0-.3.2-1-.7-.4-.5-.8-.1-.5-2,.4-1.7.3-1.2.4-2.1-.2-.4.2-.7.8-.9.3-2.1c1-1.1.6-4.7-.8-4.6-2.4-6.2-1.3-.7-4.2-3.9-1.7-.5-.1,3.2-.8,3.3s-.8-.7-1.5,0,.4-1.6-1.7-1.5c.6-1.3-1.3-.7-1.3-2s-.4-2.2-2.1-3.1c.5-.7,1.6-3.6-.2-2.5-1.2-1.2-2.4-.8-4.1-1.3s-.2,0-.5.2-.8-1.2-.4-1.3-.3-1,.4-1.4c-3-2.8-2.7,0-3.7-.8s-.9-.1-1,.9-.8-.9-.7,0-.4,1.7-.7,1.9c-1.1-1.9-2.9,1.7-1.8,1.2s-.3,1.2-.5,1.7.6,2.1-.2,2.7.3,4.3-1.4,2.2c-.8,1.8-1-.6-1.3-1.4s-.9.2-.6-.9c-1.4,1.1.3,2.1.1,2.9s-1.4.2-.4.9.7.9,0,.9a5,5,0,0,1,.3,3c1,1.5-1.9,2-.3,2.9.2,2.6-1.8,2.9-1.3,5.5s-1.3.7-2,1.6c.9,1-.7.1-.2.9a3,3,0,0,1-.7,2.3c-1.1-1.2-1.6,2.4-1.1,2.9l-.9.8c-.1.1.7-.2.4.4s1.2.1,0,.8.4.3-.2.6-.7,1.7-.4,1.9.7,1.2-.5,1.4-.1,2.7.5,3.2-.7,2,.1,2.9.8-.2,1.1-.5-1.1,2.2.1,1.3,1-.1,1,.9c1.6-.3-.1,1.1.5,1.3s-.1,1.9,0,2.9.7-.3,1,.9.6.1.3,1.1.5.8.1,1.7.8-.4.9.2-2.2,3.6-.5,5.5c-1.6,1.9-5.1,6-1.4,7.6.1.5.4,1.5-.4.9-4.4-2.5.5,5.9-2.2,3.9-.5-.8-1.4-1.9-2.1-1.3s-.9.6-1,1.2.1,1.7-.5,1.3c-3,.5-.7-3-4.3,2.4-.1,1.6-2.2,1.5-1.2,2.6-1.7.6-1.1,2.5.4,3.4-.6-.1-.9.3-1.2.9s-2.1,2.1-.5,2.6c.2,2.4-2.3,1.2-2.2,3s-2.6,1.6-1.4,3.6-.7,1.7-.2,3.2,2.7,3.3.2,3c0,.5.1.7-.6.6a1.5,1.5,0,0,1,.4,1.4c-.3.8.5,2-.2,3.5s-1.2.3-1.3.2-.5.9-1.1.3.3.9-1.3,1.4-.1-1.4-1.1-.6-.3,1.5-1,1.6-1,2-1.2,2.9c.5,4.1,7.6,8.3,4.6,12.1-.9,1.1-.7,3.6-.5,5.4s-.7,3.4,0,5.2,1.4,1.3,1.5,2.8,1.2,5.2,0,6.3-1.3.3-1.7-1-.4.1-.9,1.1-.9,3.6-1.7,4.9,1.1,3.1.9,4.7.4-.1.6.4.7.9.3,1.1-1,2.4-1.1,4.3-.6,1.7.1,3.2,1,2.8,1,4.9c2.6-2.3,2.7,2.1,2.3,3.9,2.1.5.8,2.3.5,4-1.1-.4-1.4.6-1.7,1.3s1.3,3.2,1.4,4.6.3-1.2.2-.6-.3-.3.1-.6.6-.2.3-.7.4-.8.5,0,.2-.2.2-.4-.2.7.1.6.2-1,.4-.6,0-.6.3.2a2.4,2.4,0,0,0,.2-1c.2,0,.2.5.3,0s.1-.1.3-.3.6-.6.6-1,.1-.2.6-.3-.3-.6-.2-.2.3-.1.6-.1l.7-.7c.6.6,1-1.3,1.3-1.2s.3.4.3-.1.8.6,1,.3-.7-1.3-.3-.8,1.6-1.4,2.3-2.3,0-.9.2-.8.6,1.7,1,.7.1-.1.3.1.1-.6.2-.7,0,.9.3.1a3.2,3.2,0,0,1,1.3-.1c-.1.8,1.1-1.4,2.6-.5-.5-.6.3-.3,1.5-1s2.3-1.6,3.2-1.1c-.8-1.9,2.4.5,1.2-1.8s.3.9.7.5l.3-.5c0,.6-.5.3.1.5s-.2-.8.2-.2.4.1,0-.1.1-.7.5-.7.3.2.3.2.2-.2.3-.1-.1-.9.3,0c.2-1.1,1.2.2.6.2,1.3.9,2.9-.7,2.7,1.7,2.2,3,4.2-1.3,1.9-3.1,2.7.7,4.7-4.7,7.1-4.2.6,2,3.6.4,3.2,3.1,2.8,2.9.9-3.2,8-2.7,3.8,2.2,9.8-.5,4.6-4.5-2.9-1,.7-1.9-.2-4,1.8-19.3-21.2-1.3-15.1-20.7.3-4-4.2-.1-4.3-3.4-.5-.4-.7-3.5,0-2.8,2.8,1.4,2.4-3,.5-3.2-.1-2.9,1.6,1.2,2.4-1.5s-2.8-.1-2.2-3.6c2-1.2,2-4.3,3.2-6.3,1.6-4.1,7.4-5,7.8-8.6,1.6-1.9,1.1-1.1,1.9.4s2.9-1.2,1.5-2.2c4.2-.6.1-2.7,5.8.1,1.5-.7,3-7.1,0-4.7-.5.1-2.2.9-2.5.5s2.7-.6,3.2-1.6c2.6.4,3.4-3.3,5.4-4.5s-.3-3.6,3-6.5c2.8.5.7-2.6,2.6-2.3,3.6-.6,3.1-4.6,6-6.4,1-2,1.7-1.2.8.3C288.5,220.6,288.7,204.5,292.4,199.8ZM215.6,310Zm0-.1Z"/>
      </g>
    </g>
  </g>
</svg>
