<svg xmlns="http://www.w3.org/2000/svg" width="500" height="500" viewBox="0 0 500 500">
  <defs>
    <style>
      .cls-1 {
        fill: none;
        stroke: #999;
        stroke-width: 0.75px;
      }

      .cls-1, .cls-2 {
        stroke-linejoin: round;
      }

      .cls-2 {
        fill: #5c98ff;
        stroke: #fff;
        stroke-linecap: round;
        stroke-width: 2px;
        opacity: 0.5;
      }
    </style>
  </defs>
  <g id="hucs">
    <g>
      <path class="cls-1" d="M418.5,277.9l1.8-2.6c1.2.2,3.8,2.6,4.7,3.4l-2.7,4.3C421.7,281.4,420.1,278.7,418.5,277.9Z"/>
      <path class="cls-1" d="M18.7,177.7c25.6-1.2,52.8-3.2,78.4-5.5.4,7.5-1.2,12.1,5.1,18.2,2.2,3.6,1.8,10.7,5.2,13.5,3.3,33.1,6.1,67.4,8.9,100.5l-2,2.4c1,2.6,1,4.8-1.2,6.8.2.9,2.6,2.7,3,3.3l.4,2.6,1.2,1c.4.6,0,4.4,0,5l2,4.7-.6,1.4c-1.6,1-3.4,2.8-3,4.8a6.7,6.7,0,0,0-1,3.7l-1.8,1.8c.6,2.6-2,5.2-1.8,7.7l-1.3-.2-.6,1-1.4-.8.2,1.6-1.4,1,1,2.4,1.4.6c-.4,1.6-1.6,4.2-3,5,.6.9.4,4.7.4,5.5l-2,.6,1.6,1.6a4.8,4.8,0,0,0,1,2.8c-.2,1-2.6,3.5-3.2,4.3-1.4,2.6,1.6,5.6,2.6,8l-1,1.1c-2.8.4-6.8,3-9.7,3.2-1.2,1.4-.6,3.8-1.4,5.2l.4,2.2c2.2,1.9,2,4.5,1.6,6.9l-.8.4c-2.4,0-4.8-2.4-7.2-2.6a14.6,14.6,0,0,0-7.5-3c-2,.6-3.8,2.2-3.8,4.4-1,.6-1.8,3.6-2.1,4.4l.7,1.6-3.1-3.6-.4,1.4.8,1.4-.4.8-1.6-.4a12.8,12.8,0,0,1-2.6-5.2c-1.2-.6-2-3.4-2.2-4.6l-1-.4-.4-2.1c.4-.4,2.4-2.2,2.4-2.8-.6-2.4-3-5.6-3.4-8.3,0-.8.6-3.2,0-3.8L60,376.4,59,374c-1-.2-4.2-2.7-5.2-3.3l-1.9.6-2.4-1.6-.6-2.2c-1.4-.8-4.4-2.4-5-4l-1.4-.4a44.2,44.2,0,0,0-5.3-5.3c-.4-1.6-1.4-5.4-.2-7s2.6-5.3,3-7.1,1.7-2.2,1.7-3.2-.4-4.9-.2-6.5l1.6-1.4-.8-2.4-3.1-2.4c-1.4.2-4.8-.8-6.2-1.4s-3.2,4.4-4,4.6c-2.7-2-4.3-7.3-3.5-10.5-.8-.8-1-3.4-1-4.6A25.3,25.3,0,0,0,14,306.4c-2-3.6-5-8.1-8.2-10.5-.7-1.8-2.3-4.8-3.7-5.9s.4-2.8.6-3.6c-3.4-5.4-3.8-14.1,0-19.2a10.9,10.9,0,0,1,.2-4.4l-1.2-2.4L3.3,258c2-.4,5.7-1.4,6.7-3.3-.2-3.6.6-8.2,3.4-10.9a10.8,10.8,0,0,0-3.8-12.5,10.2,10.2,0,0,1,.6-4.2c-.4-1,.4-3.4,1-4.4s3-.2,3.8-1a31.9,31.9,0,0,1,6.3-1.1c1-1.8,3.4-2.8,5.2-3.4l2.9-2.6c.2-1.2.6-5.9,1-6.9l3-2.8c.8-4.2,1.4-9.3-.4-13.3-1.8-1.6-4.9-2.8-6.7-4.4.4-4.7-3.8-6.7-7-9.1Z"/>
      <path class="cls-1" d="M107.6,371.3a4.8,4.8,0,0,1-1-2.8l-1.6-1.6,2-.6c0-1,.2-4.8-.4-5.4,1.4-.9,2.6-3.5,3-5.1l-1.4-.6-1-2.4,1.4-1-.2-1.6,1.4.8.7-1,1.2.2c0-2.7,2.6-5.1,1.8-7.7l1.8-1.8a7.6,7.6,0,0,1,1-3.7c-.4-2,1.4-3.8,3-4.8l.6-1.4-2-4.6c0-.9.4-4.5,0-5.1l-1.2-1-.4-2.6c-.6-.6-2.8-2.4-3-3.2,2.2-2.1,2.2-4.3,1.2-6.9l2-2.4c-2.8-33.1-5.4-67.6-8.9-100.5,5.5,7.9,14.4,2,19.8-3,17.5-1.4,38.7-4.7,56.1-6.5,4.4,35.3,8.3,76.3,12.7,112a8.3,8.3,0,0,0-1.8,3.2,6,6,0,0,1,1.6,3.4l-.6,1.3.4,1,2.4,1.2-.8.8,1,2.2-.4,1-5,.6-4.9,4.5a5.4,5.4,0,0,1-2.8-1.9c-1.2-.4-3.4.6-4.6,1.2-1.5,2.1.2,5.5.8,7.5a13.8,13.8,0,0,0-2.3,3.6l-2.2.9c-1,.6-1.2,4.6-1.4,5.4l-2,2.4-1.2-.6-1.6,1.6c0,1.2-1.2,4.1-1.6,5.1a8.4,8.4,0,0,1-.9,5.6l-1.8.2-1,1-1.2-1a6.8,6.8,0,0,1-4.8-1.4,16.8,16.8,0,0,0-1.6-5.4l-2.3.2-.2,1,1.9,1.2-1.7.8-2-.6-.6,1,1,1.6v1l-1.6.4-.6,1.8.6,1.9-.4,1-1.6.2v2.6l-1.4.4-.2-2.2-2.4.4-2.5-3.3-1.4.4c-4,4.1-5,1.3-6.2,8.9h-1.2l-.6-1.4c-3.5-.4-6.1-4.2-9.7-4l-1,.8h-1.2l-1.5-1.6-.8,1.6.6,2.2-1,2-1.4-.4v-1.6l-.8-.8-3.4,1-1.8-1.4-1.2.8a5.1,5.1,0,0,0,.6,3l-.4,1.8Z"/>
      <path class="cls-1" d="M264.8,326a14.9,14.9,0,0,0,1.2,6.6,6.2,6.2,0,0,0,0,3.8l-.8,1.1.2,1.4c1.6,1.6,4.2,4,5.2,6l-.4,1.6.6,1.2,1.2.4,1.5,3.3,2.6,1.8c.2,2,2.4,4.4,3.8,5.4l1-1.2,1.6,3.3a9.5,9.5,0,0,0,5.3.2c-2,3.6-7.1,8.8-8.9,12.5l-6.1,3.6c.2.6-4.2,4.2-4.6,4.4l.4,3.5a10,10,0,0,1-3.4,2.2l-.6,1a6.4,6.4,0,0,1,.2,3.4c-1.4,1.6-4.5,2.2-6.1,3.4l-.4,3.5c-1.8.4-6.4,3.4-7.8,4.4a18.4,18.4,0,0,0-8.3,5.1c-20,3-42.6,2.6-62.6,5.8-7,.8-16.9-.6-23.6,2-11.5-.2-27.4,3.3-39.1,3.5l-.6-1.1h-6.5a18.2,18.2,0,0,1,1.1,6.9c-12.1,1.4-28.9,2.4-41,3.4l1.8-5.8c.6.4,2.8,2.8,3.4,2.8l1.7-.8c-.6-2.4,1.8-6.5,1-8.9l-1.2-.8c-.2-1,1-2.8,1.4-3.4l-.2-3.2c-.6-.6-1.8-1.5-2.7-1.2l-.6-1.7c.4-1,1.1-4,2.1-4.4,0-2.2,1.8-3.8,3.8-4.4s5.8,1.8,7.5,3,4.8,2.4,7.2,2.6l.8-.4c.6-2.6.6-5-1.6-6.9l-.4-2.2c1-1.4.2-3.8,1.4-5.2,3-.2,6.9-2.8,9.7-3.2l1-1.1c-.8-2.4-4-5.2-2.6-8,.6-.8,3-3.3,3.2-4.3l3-.2.4-1.8a4.1,4.1,0,0,1-.6-3l1.3-.8,1.8,1.4,3.4-1,.8.8v1.6l1.4.4,1-2-.6-2.2.8-1.6,1.4,1.6H122l1-.8c3.6-.2,6.2,3.6,9.6,4l.6,1.4h1.3c1.2-7.6,2.2-4.6,6.2-8.9l1.4-.4,2.4,3.3,2.5-.4.2,2.2,1.4-.4v-2.6l1.6-.2.4-1.1-.6-1.8.6-1.8,1.6-.4v-1l-1-1.6.6-1,2,.6,1.6-.8-1.8-1.2.2-1,2.2-.2a24.3,24.3,0,0,1,1.7,5.4,6.8,6.8,0,0,0,4.8,1.4l1.2,1,1-1,1.8-.2a10.7,10.7,0,0,0,.8-5.6c.4-1,1.7-3.9,1.7-5.1l1.6-1.6,1.2.6,2-2.4c.2-1,.6-4.8,1.4-5.5l2.2-.8a13.4,13.4,0,0,1,2.2-3.6c-.6-2-2.2-5.4-.8-7.5s3.3-1.6,4.7-1.2a4,4,0,0,0,2.8,1.9l4.8-4.5,5.1-.6.4-1-1-2.2.8-.8-2.4-1.2-.4-1,.6-1.3a5.4,5.4,0,0,0-1.6-3.4,4.9,4.9,0,0,1,3.8-4c.6.8,2.8,1.4,3.8,1.8s3.3-1.6,4.1-2.2l1.4.4.4,1.2c3.4,1.2,6.6,6,6.6,9.7,2,.8,5.9,1.4,7.9.4s3.6,1.6,4.2,2.8a8.5,8.5,0,0,0,5.3,2.2l1.2-2.2,2.6-1c2,.2,5.9,1.4,7.3,3,1-.6,3.2-1.6,4.4-1.4l.8-2,4.9-3.8h1a27.2,27.2,0,0,1,2.2,5.6,16.5,16.5,0,0,0,4.4,1.6C261.8,321.9,264,324.5,264.8,326Z"/>
      <path class="cls-1" d="M398.7,265.2l-1.4-1-.2-2-1.4-1.4-.2-2.4-1.2.2-1.6-1.6.6-1.9-.8-.8c-.8.8-3.3,1-4.3,1l-4.2-2.4h-1.6l-.8.6-.6,1.6-1.2.9-1.6-.3a17.3,17.3,0,0,0-3.3,6.1c-2.4,0-5.8,0-7.8-1.8v-2l-1.5,1v2.2c-1,.6-2.6,4.4-3,5.4l-.6.4c-.8-.4-2.4-1-3.2-.6-.2,1.9-2.4,4.3-3.8,5.5s-4.5,5-5.7,7.7l-4-21.4c34.1-6.7,70.8-13.1,104.7-20.8,4.2,15.5,9.5,36.3,14.5,51.6,4.6-.8,13.9-2.8,18.4-3.8a3.6,3.6,0,0,1-.5,3c1.3,2.2.5,5.9,0,8.3a37.8,37.8,0,0,1-.2,7.5h-1.8c.8-.8.8-6.1,1-7.3l-1.4-1.4a8.9,8.9,0,0,0-.6,5.6l-1.2,1L478,305l-7.3,2.8-.4,1.6a7.6,7.6,0,0,0-4.6,1.6l-.2,1.2-2.4-1.2v-2a6.5,6.5,0,0,0,2.6-2.6l-.4-.6-2,1-1-.2.4-1.8,1.6-.8-.4-1.2a13.3,13.3,0,0,1-3.8,1.8c-.2-.8-.4-2.5.2-3.1l1.4-.8-1.8-.8-.2-3.2-1.1.2.2,2.6-.8.4-2.6-2.4.2,3.4-3.4-2a4.7,4.7,0,0,0-2.2-2.2l-1.6.2c-.2-.4-2.1-3-2.1-3.6l1-1.4V290l1.7-.4-1-1.2-1.5,1-1-2,.8-1.4,2.5-.2L451,287h1.4l-.2-1.2-3-1.6.4-3-.6-.4-1.2,2-1.1.4-1.2-1.8-2.8-.2.4-3.1,1.2-1,2,2.1a4.8,4.8,0,0,0,.4-3.3l-1.4-.6-.8-3.8,1-.8c-.8-1.2,0-4.5.4-5.9l-1.2-.2-1.2,1-2.2-1.2c0-2,.2-5,1.6-6.4l-.4-1.4h1.2l.2-2.1,3-.2.9-1.4-1.9-.2v-1.4l1.4-1.8h1.3l-.2-1.6-.9-1-2,1.8.4-3-1.8.6-.8-.6c-.8.4-1.4,2.8-1.8,3.6a3.5,3.5,0,0,1,1.2,2.6l-1,1.4h-1.4l.2,1.6-1.4,1.7-1.2.2-.4-1.5-1.2.4.8,2.1-1.9.4.9,2-1.7.4,1,1.2-.4.8-2-.4-1.4-1.4h-1.4l1,2.2,1.4.2.8,1.8a10.6,10.6,0,0,0,3.5,1.8l-1.1,2.9,1.7.2v2l-1.7-.4,1.5,2.8-1.7-.2-.8.6.6,1.4-.6,1.6,1.7.4.4,1.5-1.3,2a8.5,8.5,0,0,1,2.1,5.4l.6.6.2,2.6a26.9,26.9,0,0,0,5.8,6.3v2l-2.2-.2-.4-1.2c-.8-.6-3-2.4-4.2-2l-1.2-1.4H435v1.2c1.5,1.8,5.7,3.4,7.1,5.4l1.8-.6,1.2,1-.4.8.6,2.5,2.2,2v1.2l.9,1.8-1.1.8-1.2-2h-1a5.2,5.2,0,0,1-.8-3l-1-.2v1.8l-1.8,1.2-.8-1.6a9.9,9.9,0,0,0-3.2-1l-.4-.6-1.3-1-.4,1.6-1,.8-1.4-2.2h-1l-.2,1.2-1.6-.6-.4-1.4-1.6-.7a9.9,9.9,0,0,0-1.8-4.2h-1l-.8,2.2.6.8-1.1,1.2c-1.4,0-2.8,2.3-4.2,2.3-3.8-2.5-2.6-8.1-1.6-11.5l1.8-1.4a6.7,6.7,0,0,1,2.6-4.7c-1.6-3,.6-5.6,2.3-7.9-.9-.8-3.5-3.2-4.7-3.4l-1.8,2.6a7.5,7.5,0,0,0-3.6-1l-1.4-2a8,8,0,0,0-4.3-.4c-.8-.4-3.4-1.6-3.8-2.4s.8-2.8,1.4-3.8l-.4-1.3C404,266.6,401.4,264.8,398.7,265.2Z"/>
      <path class="cls-1" d="M319,153.7c2.9-3.3,7.5-6.5,8.9-10.7,4.3-3.4,7.5-5.7,8.1-11.7.8-.4,3.2-1.8,3.6-2.6.6-2.7-2.2-5.7-2.8-8.1a3.7,3.7,0,0,1-2.8-1l-.2-2.4-1.6-2.3.8-1.8-.8-5.4a64.9,64.9,0,0,1,33.2-8.5l3.9,2.4h2.2l.6.8c2.2-5.2,9.3-4.2,13.7-5.2l1,1L388,96l2.1-.4,2-2.2,1.2.2a13.9,13.9,0,0,1,2.4-5.7l1.8-.6c0-.8.2-2.6,1-3.2a34.2,34.2,0,0,0,4.5-.4c2-4.3,0-10.5-3.5-13.5V69.1l.8-1,1.7.4c.4-1,1-2.8.6-3.8l-1.9-.8,1.3-2a4.2,4.2,0,0,1-2.3-1.2l-.8,1.4.8.6.2,1.4-1.4.6-1.4-3.4-1.6-.8V59.3c2.8-3.9,7.9-7.1,9.7-11.7a9.7,9.7,0,0,0,2.6-6.9l-.4-.6c1.2-3.8,8.1-13.9,9.9-17.8,1.2-1.6,5.4-4.6,6.2-6.4l4.7-2.8c11.1-.8,26.2-6.3,37.5-8.9a7.8,7.8,0,0,1,.6,6,8,8,0,0,0,1.6,3.5c0,7.8,6.3,14.7,6.1,22.6-1.2,1.2-1.2,5.8-1.2,7.4s2,4.9,3.2,6.7,1,3.8,2,4.8c.2,2.6-.8,6.1.4,8.5l.8.4,1-2.6,1.2.4c5.5,10.3,5.7,24.2,9.3,35.5,1.2,8.5,0,19.6.4,28,3.7,9.7,2.4,27.9,8.9,36.1-.4.8-4.4,5.1-5,5.9l2.2,3.2a9.6,9.6,0,0,1-2.8,7.5l.8,2.2-2.9-.8c-.8-1.4-1.2-4.6-1.2-6.3-7.6-3-18.7-6.6-26.2-10l-1.6-2.5-2.4.6c-1.2-.8-3.5-1-4.7-2-2-2.8-4-6-3.6-9.7l-2-1.2-.4-1.4-1.4-1.2c-1,0-2.7,0-3.5-.8a9.4,9.4,0,0,0-3.4-4.4c-39.1,8.8-80.9,16.9-120.4,23.8Z"/>
      <path class="cls-1" d="M491.9,181.1l-.4,3.6-1.4.6a23.9,23.9,0,0,1,1-5.2Z"/>
      <path class="cls-1" d="M485.5,196.6l-.6-.8c1.2-1.8.8-4.8,1.8-6.6l.8-.4-.2.6,1.6-1.2,1.4,1.8C489.3,191.8,487.5,196,485.5,196.6Z"/>
      <path class="cls-1" d="M475.2,368.9l1-.2c2.6,5.7,6,13.9,9.7,19.2,2.4,2.2,4.8,6.2,6.4,8.9l-.8,1a20.8,20.8,0,0,0-5-7.1l-.2-1.2-2.2-.8a22.9,22.9,0,0,1-1.7-4.6C479.6,380.2,477.4,373.4,475.2,368.9Z"/>
      <path class="cls-1" d="M416.7,495.8c-8.5-7.7-23.8-18.9-32.9-25.8v-.2c-.6-.2-8.3-6.7-8.9-6.5-10.3,1.8-23.2,3.9-33.5,5.1l-.6-4.5-6.2-7-2.6,2.8-.9-1.6.7-2.8c-13.6,1-29.3,3.6-42.6,4.4l-.8,1.6-1.2-.4c-1.6,1.2-4.3,3.6-6.5,3v1.5l-2,1.4-1.2-.4c-2,1.2-6.9,4-8.9,5-11.5.6-25.8,4.8-37.3,4.8,0-.2-.2-9.4-.2-9.6l1.4-2.3,2.2,1.1a11,11,0,0,0,4.3-3.1,38.5,38.5,0,0,0-.2-4.8c3.2-5.3,7.8-9.3,14.3-8.3a63.8,63.8,0,0,1,5.2-5.2l.8-.2c1.4-2.5,5.5-6.1,8.3-6.3,1.2-.6,2.2-2.8,2.6-4l-1-2,1.4-1.3,1.2.7,1-1.5-.2-1,3.5-3.8,1.8,1a3.8,3.8,0,0,0,.4,2.6c2.6.8,4.4-2.4,5.6-4a5.9,5.9,0,0,1,1.5-3.2,12,12,0,0,0,5-2,5.1,5.1,0,0,0,3,1.2l1.8-1.9a19.1,19.1,0,0,1,4.3-9.6l3.4-.2a4.9,4.9,0,0,0-1.2-2.5,8.8,8.8,0,0,0,.2-6.4l1.4-2c56.1-4.9,112.2-16.6,167-28.9l.2.4-.8,1.2.2,1,1.7.2,2.8,3.7,1-1.4c.8,1,2,4.6,2.4,5.8s3.4,4.7,2.6,6.9c-.6-1-1.8-3.5-3-3.9v-1.2l-2-.6.2,3.3c-.6-.7-2.8-2.3-3.6-2.3l-1.7-1.6-1.6.8,2.2,1.6v1l2.7,1.1.2,1.4-2.2.4-.7,1.2-3-2.6c-.2.8.8,3,1.2,3.6s-3.8-1.2-4.4-1.6l-.8,1.2,2,.8-1,1.2-2.2.4.8,1.4-.2,1-1.8,1.4-3.3-1-1.2.6a3.5,3.5,0,0,1-1-2.8c-1-.6-1.4-3.2-1.6-4.2l.8-.8-.2-2.4-1.8-1.7-.8,1.2,1.6,2.3-.8,2.2c.4,2.4,2,6.8,3.6,8.7l-.8,1.2.2,2.2c2.2-.4,5.3-2.4,7.5-2.8l.4-1,1.4-.6.8,1.8a3.1,3.1,0,0,0,2.6-.8l.4-1c1.4-1.3,5.5-2.5,7.3-2.1l-.2,1.2,1.2.2c.2,1.9-.6,4.1.4,5.9l-1.2,1.4,1.6.4c.2.6.8,2.2.4,2.8L477,405v1l2.6.4a12.9,12.9,0,0,1,.6-4c.2-2-1.4-4.8-.6-6.8l2.2-.5-.4-1.2.8-1.6,2.9,1.4c.4,1.4,1.6,3.5,2.8,4.1a8.2,8.2,0,0,0,.8,4.8l-1.4.8c.4.6,1.8,2.6,1.4,3.4l-2.2,2.1-1.6-1.6a6.1,6.1,0,0,0-.6,3.2l-1.4.8a6.7,6.7,0,0,1-.7,4.2l-2-.6.6,2.8c-.8.2-1.8,1.7-2.2,2.5l-1.8-.2-1-.8-1.6.8-1.2-1.2-.6,1.6-1.7-.8.3-1.9-2.1,1.3-.4,1-1.4.2-1.6-3.9,2.2-1.4.2-2-1.6-.4.4,1.4-2.6,1-1.6-.8-.6,1.4,2.2,1.2-.4.8,1,1.5-1,1.6-2-1a4.7,4.7,0,0,1-3.3,0l-1-1.5-1.2,1.3-4.4-1.1-.4,1.5c1,.2,3.6,1,4.4,1.8H458l.4,1.4,1.9-.8v1.4l.6.6,1.6-1,6.8.6a10,10,0,0,1-.6,4.8l-1.6-.4-1.2,2.3,1.2.2,1.2-.9.8.9c-.8,1-2.4,3-2.4,4.4l-1.4.6-.8,1.8a5.7,5.7,0,0,0-2.8,1.6,8.7,8.7,0,0,0-3.7-1.6l-.8-1.4c-1.2-.2-3.6-2-4.6-2.8l-.6,3.2c2,.6,4.4,2.8,5.8,4.4H459l1.3.8,1.8-.2,1.2.9,1.4-2.3,1.2-.4.4,2,1-.2-.6-2,.6-1.2,1.4,1.8.8-.8-1-1v-1.2l2.7.2-.2-3.2h1.2l.2,1.6,1,.6-1,1.6,2.2-.4.8-2.6,1.6,1.4.4,1.4-1.2.8.8,1-1.2,1.4-1,.2.2,1.5-1.2.8.4,1.2-1.2,1.2.2,1.4-1.4,1.2-1.3-.2V446h-1.2l-.2,2.4-1.2-.8-.6-1.8-1.4.8,1,1.2v1.4a15.6,15.6,0,0,0-10.5,4,11.5,11.5,0,0,1-2-3.8l-1.2.2,1.2,2a7.7,7.7,0,0,0,0,3.7l-1.4.6c.2,1-1.6,2.6-2.2,3.4l-1.2.2-2.1-1.6,1.3-1.6-1.3-1v-1.2l-1.6-.7-.4,1.5,1.6,1.2v1.2l-1,.6.6,2.2,1.9.2.2,1.2a16.6,16.6,0,0,1-3.9,2.6c-5.4,6.3-9.7,14.6-8.2,23l-1.1-.6v-2.8l-1.2-.8a14.3,14.3,0,0,1-1.8,8.5l-4.2.4-1-.6-3.3,1.6-1.6-.6-2.8,3Z"/>
      <path class="cls-1" d="M472,369.5l1.8-.4.4.2,1,2.2-1.8.2-1-2.2Z"/>
      <path class="cls-1" d="M309.6,224.7c-1,.2-3.3,1-3.9,1.8l-.2,1.2a33.6,33.6,0,0,1,2.7,4.9c-.7,1,.6,5.4.8,6.4a38.9,38.9,0,0,0-1.9,16.3l-1,.7.4,1.6c-.6,1.4,0,3.4-.8,4.8l.8,2.2c-.6.6-.6,3.1-.8,3.9-2.2,1-4.4,5.4-5.4,7.4s-4.5,5.3-6.7,6.3a6.8,6.8,0,0,0-2.8-1.8c-2,.8-3,4.2-3,6h-2.2l-.9.6v1.8l-.8.6c-.6,1.7.4,4.3-.4,5.7l-1.4.4.2,1.2,1.6,1.2a8.3,8.3,0,0,0,.6,3.2h-2.2l-.4,2.1-1.8.8.2-3.1c-.4-1.2-3-2-3.8-2.4-2.2,1.8-2.8,5.3-2.4,7.9l-1.9,2a53.1,53.1,0,0,1,1.9,8.1l-2.5,1.6-.4,5.2c-1.4.8-5.2,2.9-6.8,2.7a15.9,15.9,0,0,0-4.7-5.3,16.5,16.5,0,0,1-4.4-1.6c0-1.4-1.4-4.2-2.2-5.7h-1l-4.9,3.9-.8,2c-1.2-.4-3.4.6-4.4,1.4-1.4-1.6-5.5-2.6-7.3-3l-2.6,1-1.2,2.2a9.2,9.2,0,0,1-5.3-2.2c-.6-1.4-3-2.4-4.2-2.8s-5.8.4-7.9-.4c0-3.7-3.2-8.5-6.6-9.7l-.4-1.2-1.4-.4c-.8.6-3.1,2.2-4.1,2.2a10.9,10.9,0,0,1-3.8-1.8l-2,1c-4.3-34.9-8.3-74.7-12.3-109.2,11.3-1.8,26-4.4,37.3-6.4l-.2,4.4c1-1.6,3.2-1.6,4.4-2.8a8.7,8.7,0,0,0,6.1,2.8c1.6.6,3.8,2.8,5.6,3.3l2.5-.9-.2-2,1.2-.2.8,1.8,1.6-.2-.6,1.7-5.1,1.6-.8,1.6,1.2,1,.8-.6,1.3.4.8-1.8c1-.2,3.4-.6,4.2-1.4l1.2,1.6c3,1.2,4.6,2.6,7.5-.4a25.8,25.8,0,0,0,8.2-4.7c5.3.6,10.9-.8,13.4-5.8,1.8-1.8,4.8-5.1,5.2-7.7l4.6-2.2a15,15,0,0,1,2.9-3.2c4.6-1,8.6-5.5,13.1-6.9,1.8,9.9,4.4,24.8,6,34.9l.2.2C307.1,209.6,309,219.6,309.6,224.7Z"/>
      <path class="cls-1" d="M319,153.7l2.3,10.7c39.5-6.9,81.3-15,120.4-23.8,1.2.8,3.2,2.8,3.4,4.4a6.7,6.7,0,0,0,3.5.8L450,147l.4,1.4,2,1.2c-.4,3.7,1.6,6.9,3.6,9.7,1,1,3.5,1,4.7,2l2.4-.6,1.6,2.5c-2.4,2.8-2.8,7.2-3.4,10.6a11.4,11.4,0,0,0-1.8,4.1l-2.5,2.8a6.2,6.2,0,0,0,2.5,4l.2,1.2c-.7.7-.7,2.5-.7,3.5l-1.4,1c0,.8-.2,3.6.6,4a7.7,7.7,0,0,0,.4,3.7l1.1.6,1.4-.4,1.6.6,1.2,4.4.6.6,2.4.4c1.2,2.2,4.1,3.8,5.7,5.7l1,.2,2.2,3.2c-1.8.8-2.8,2.8-4.4,3.8s-2.9,4.7-4.5,6.5l-.2,3.2c-1.6,2-5.4,2.4-6.6,5-.6-.8-2.9-1-3.7-1.2-2.8.8-5.6,3.3-5.6,6.5-44,9.7-90.6,18.1-135,26-3.4-19.2-6.2-39.5-9.7-58.7l-.2-.2c-1.6-10.1-4.2-25-6-34.9,3.8-2.2,8.5-5.4,9.9-9.7H311l.4,1.2C312.6,158.9,317,155.1,319,153.7Z"/>
      <path class="cls-1" d="M62.2,450.2l.8-2.4h1.1c.4-1.2,1.6-4,.8-5.4l-2.1-1.1.2-2,2.9.6.4-1.4-1.6-2,1.2-1.8.8.2.8-1.2-1.4-2a5.4,5.4,0,0,1,.8-3.5L65.5,427l1.2-1.6,1.2.6c.6.8.4,3,.2,3.8l.8.7,1.2-2.1c12.3-1,28.9-2,41-3.4a18.2,18.2,0,0,0-1.1-6.9h6.5l.6,1.1c11.7-.2,27.6-3.7,39.1-3.5,6.5-2.6,16.6-1,23.6-2,20-3.2,42.6-2.8,62.6-5.8l1-.8c16.5-1.7,35.1-4.5,51.4-7.3l.6-.8,7.5-1.2.4,1-1.4,2a10.3,10.3,0,0,1-.2,6.5,3.1,3.1,0,0,1,1.2,2.4l-3.4.2a19,19,0,0,0-4.3,9.7l-1.8,1.8a5.1,5.1,0,0,1-3-1.2,15.4,15.4,0,0,1-5,2,4.4,4.4,0,0,0-1.5,3.2c-1.2,1.6-3,4.6-5.6,4a3.8,3.8,0,0,1-.4-2.6l-1.8-1-3.5,3.8.2,1.1-1,1.4-1.2-.6-1.4,1.2,1,2c-.4,1.2-1.4,3.4-2.6,4-3,.2-6.9,3.9-8.3,6.3l-.8.2c-1.2,1.2-4.2,4-5.2,5.2-6.5-1.2-11.3,3-14.3,8.3a19.3,19.3,0,0,1,.2,4.8,9.6,9.6,0,0,1-4.3,3.1l-2.2-1-1.4,2.2c0,.4.4,9.5.2,9.9-38.7,5.4-79.9,8.2-119,11.1l-.2.8c-20.6,1.6-44,3.8-64.6,4.6l.2-1.6,1.6-.4.6-1.8L53,490l1-2.3-.4-1,.4-1.4c-1-1.4-1.8-6.4-2.1-8.2l-1.2,1.2-1.2-.6v-1.3l1.4-1,.4-1.4h1.1l.2,1.8,1.2.6c1-.6,1.4-3.6,1.6-4.6l2-.4a18.7,18.7,0,0,1,1.2-5.6l-1.6-.4-.8-1.1-.2-1.8,3.2-1.4a10,10,0,0,1,2.8-3l-.4-2.8,2.3-.6v-1.5L62,451.6Z"/>
      <path class="cls-1" d="M480,303.8h1.8c-1,2-2.4,5.8-1.8,8l-.6.2C478.2,310,479.2,306,480,303.8Z"/>
      <path class="cls-1" d="M398.7,265.2c2.7-.4,5.3,1.4,7.5,2l.4,1.3c-.6.8-1.8,2.6-1.4,3.8s3.2,2,3.8,2.4a7.9,7.9,0,0,1,4.3.4l1.4,2c6,.6,6.8,4.9,7.8,9.9-1.2,1-2.6,3.2-2.6,4.7l-1.8,1.4c-1,3.6-2.2,9,1.6,11.5,1.4-.2,2.8-2.2,4.2-2.2l1.1-1.3,1.2.2.4,1.3-.4,1.4a8,8,0,0,0,3.2,2.6v1.2c2.8,1.4,6.9,2,10.1,2.6l.8-.6a6.3,6.3,0,0,1,2.6,3.4l1.4.2.8,1.7,1.2-1.3a23,23,0,0,0,6.7,2.7c.2.6.8,2.2.4,2.8l-1.6.4-.4,1.8,1,1.2c0,.6,0,2.4-.6,2.8l1,2.5-.8.6-2.4-.4-.8-1-1.7.8c-.8-2.9-4.2-4.7-6.8-5.7l-1.4-2.2c-2.2-.4-4.7-3.2-6.1-4.8l-.4,1.6,2.8,3c1.3.2,2.7,2,3.3,3l1.4.4,1.2,1.8a6.5,6.5,0,0,1,4.6,5.1l1.4.6,2.9-.6,1.8,1,1.8-.4.4,1.4-3.8.6a4.5,4.5,0,0,0,3.2,1.2l1.8,1.6h1.4c.8,1,.8,3.3.4,4.5-1.2-.4-3.6-1.4-4.2-2.6l-1.6,2.6,1.2,1-1,1.2.8.8,1.4-.8.8,1.6-.4.6-2.6.2c-3.6-1.8-7.9-6-10.9-9.1l-1,1.2c3.4,3.1,8.7,10.3,13.5,9.5l1.8,2,2-.4v2.7l1.4-.6,1.1,1.2v2l-1.7.4-2.2,2.2-2.2-2.4-1-.2-1.2-1.4-1,.4-1.4-1,.2-1.2-1.5-2.5h-2l-1.2.8-3.8-1-.4-2.4-1,.4v2.2l-1.8.2.6,1.5c1.2.8,3.8.4,5,0l1.4,1.4,2.6-.2a11,11,0,0,1,1.1,4.4l1.4.6,1-.2.4,1.4,1.4-.4,2,1,.6,2.6c1-.8,3.4-1,4.9-1l.4-.8-.6-1.4.8-1.2c1.8,1,4.6.6,6.2,1.6l1.6-1.6,1.2.4a56,56,0,0,1,3.5,6.9,21.2,21.2,0,0,1,3.6,6.6l-1,.2-.4-2.2-2.2-1.4-.6,1.2a7.4,7.4,0,0,0,1.4,2.8,4.4,4.4,0,0,0-2.2,1l-.2-.4c-54.9,12.3-111,24-167.1,28.9l-.4-1-7.5,1.2-.6.8c-16.3,2.8-34.9,5.6-51.4,7.3,1.6-1.9,5-3.5,7.3-4.1s6.2-4,7.8-4.4l.4-3.4c1.6-1.5,4.5-2.1,6.1-3.5a6.6,6.6,0,0,0-.2-3.4l.6-1a10,10,0,0,0,3.4-2.2l-.4-3.5c.4-.4,4.9-3.8,4.7-4.4l6-3.6c1.8-3.7,6.9-8.9,8.9-12.5l1,1.2-1.2,1.6c.6.8,1.8,2.4,1.8,3.4a9.8,9.8,0,0,0,3.4,3.6l1.6-.2c2.5,2.3,4.3,3.3,7.5,2.5l1.2-2.3.8-.2c1.2-.6,2.2-2.8,2.4-4,1.1.6,3.3,2,3.9,3l1.8.2c1.4-1.4,5.4-3.6,7.5-3.4.6-.6,2.6-2,2.8-2.8l-1.6-1.4,1.2-1.6,1.6.2.8,1.4c1-.8,5.8-5.3,7.3-5.1l.8,1.4h1c.6-.8,2.4-3.6,3.4-4l-1-1.2v-1l3.2-2.4-2.2-.8-.8-1.7c.4-5.8,4.4-11.1,6.9-16.1.6-4.4,0-7.7,3.6-11.1l-.8-1.4c0-.8,1.4-2,2-2.6.6-2.8-.8-6.7.2-9.5l.8-.8,3.2,1.6,1.9,3.6c1.2.2,4.2.8,5.6.4,2.8-2.4,2.2-9.6,4.2-12.5a4.4,4.4,0,0,1,.6-3.2l-.2-1.4,1.7-2.2,4,2.6c.6-2.2,1-6.3,2.6-8.1l1,.6,1-2.6,1.4-.4.8-1.8-.6-.6c.6-1,3.5-5.1,3.5-6.3l-1.2-.8.6-2.6-.8-.4,1.4-4.2h-.8a9.5,9.5,0,0,1,.6-4.1c2.4,1.2,14.1,8.7,16.7,10.3l.4-.4A35.5,35.5,0,0,1,398.7,265.2Z"/>
      <path class="cls-1" d="M470.1,309.2l.4-1.6,7.3-2.8-1.2,2.6a10.9,10.9,0,0,1-.2,3.6l.4,1.2c-.6,3.3-3.4,7.5-2,10.9a14.8,14.8,0,0,0-2.2,6.5h-.8l-1.3,1.2a6.3,6.3,0,0,0,.5,3c-.7,1.4-1.7,4.5-1.5,6.1a6.3,6.3,0,0,0-.4,5l-1.2.8a19,19,0,0,1-2.2-5,8.5,8.5,0,0,0-.2-3.9l.6-1.2-.2-1.4-1-1,.8-1.4c-1.2-2.8.2-7.7,1.2-10.1-.4-.6.2-3,.4-3.8l1.6.2a6.6,6.6,0,0,1,.8-3.4l-1.4-3.3,1.4-.6Z"/>
      <path class="cls-1" d="M344.9,258.2l4,21.4c1.4-2.7,4.6-5.3,5.7-7.7a11.4,11.4,0,0,0,3.8-5.5c.8-.4,2.6.4,3.2.6l.6-.4c.4-1,2-4.8,3-5.4V259l1.5-1v2c2,1.6,5.4,1.6,7.8,1.8.6-1.6,2-4.8,3.2-6.1l1.7.3,1.2-.9.6-1.6.8-.6h1.6l4.2,2.4c1,0,3.5-.2,4.3-1l.8.8-.6,1.9,1.6,1.6,1.2-.2.2,2.4,1.4,1.4.2,2,1.4,1a58.8,58.8,0,0,0-1.8,8.1l-.4.4c-2.6-1.6-14.1-9.1-16.7-10.3a9.5,9.5,0,0,0-.6,4.1h.8l-1.4,4.2.8.4-.6,2.6,1.2.8c0,1.2-2.9,5.3-3.5,6.3l.6.6-.8,1.8-1.4.4-1,2.6-1-.6c-1.4,1.8-2,5.9-2.6,8.1l-4.1-2.6-1.6,2.2.2,1.4a4.6,4.6,0,0,0-.6,3.2c-2,2.8-1.4,10.1-4.2,12.5a28.8,28.8,0,0,1-5.7-.4l-1.8-3.6-3.2-1.6-.8.8c-1,2.8.4,6.4-.2,9.5-.6.6-2,1.6-2,2.6l.8,1.4c-3.6,3.4-2.8,6.7-3.6,11.1-2.5,5-6.3,10.3-6.9,16.1l.8,1.7,2.2.8-3.2,2.4v1l1,1.2c-1,.4-2.8,3-3.4,4h-1l-.8-1.4c-1.5-.2-6.3,4.5-7.3,5.1l-.8-1.4-1.6-.3-1.2,1.7,1.6,1.4c-.2.8-2.2,2.4-2.9,2.8s-6,2-7.4,3.4l-1.8-.2a11.9,11.9,0,0,0-3.9-3c-.4,1.2-1.4,3.4-2.4,4l-.8.2-1.2,2.3c-3.2.8-5.2-.4-7.5-2.5l-1.6.2a14.6,14.6,0,0,1-3.4-3.6c.2-1-1-2.6-1.8-3.4l1.2-1.6-1-1.2a9.6,9.6,0,0,1-5.3-.2l-1.6-3.3-1,1.2c-1.6-1-3.6-3.6-3.8-5.4l-2.6-1.8-1.5-3.3-1.2-.4-.6-1.2.4-1.6c-1-2-3.8-4.4-5.2-6l-.2-1.4.8-1.1a5,5,0,0,1,0-3.8A14.9,14.9,0,0,1,265,326l.2.4c1.6.2,5.4-2.1,6.8-2.7l.4-5.2,2.5-1.6a43.4,43.4,0,0,0-1.9-8.1l1.9-2c-.4-2.8.2-6.1,2.4-7.9,1,.4,3.6,1.2,3.8,2.4l-.2,3.1,1.8-.8.4-2.1h2.3a5.3,5.3,0,0,1-.6-3.2l-1.7-1.2-.2-1.2,1.4-.4c.9-1.4-.2-4.2.5-5.7l.8-.6v-1.8l.8-.6h2.2c.2-2,1-5.2,3-6a6.1,6.1,0,0,1,2.8,1.8c2.3-1,5.5-4.3,6.7-6.3s3-6.4,5.4-7.4c0-.8.2-3.3.8-3.9l-.8-2.2c.6-1.4,0-3.4.8-4.8l-.4-1.6,1-.7a45.8,45.8,0,0,1,1.9-16.3c-.2-1-1.4-5.4-.8-6.4s-2.1-3.9-2.7-4.9l.2-1.2c.6-.8,3.1-1.6,3.9-1.8,1.8,12.3,4.2,26.2,6.2,38.5C321.9,262.2,338.6,259,344.9,258.2Z"/>
      <path id="_05" data-name="05" class="cls-2" d="M341.6,139.9c5.3,4,11.3,10.3,10.9.6,2.8-1,7.3-6.1,7.9.6,5.6,1.6,6.8,9.3,12.9,11.1,2.6-1.2-1,1.2,1,2s.4,4.3,3.6,3.6c1.4.7,1.4,7.5-.8,7.1-2.4-3.2-5.2,2.6-7.8,3.4-2.9-2.2-.3,1.5-2.1,2.3s-6.6,6-4.2,8.6-.8,3.3-1.2,5.1c-.4,5.4,0,8.9.2,14.1-9.3,9.3-1.4,15.5,5.4,22.2,7.7,2-5.4,28.2-3.6,34.3-4.6,1-11.5,20.2-10.1,23.4,5.9-5.1,5.3,2.2,4.9,9.3-1.7,2-6.7,3-3.3,6.6-3.8,24-14.1,45.6-19.7,65,.8,2,6-5.9,8-5.5-2.6,8.7-6.4,2.3-3.2,13.3.8.7,1.6,0,1.4,1.5-5.8,3.4,2.4,1.2,4.9,2.6,10.2-7.5-5.5,15.5-5.7,17.3-8.5-.4-13.3,6.9-12.3,12.7-9.9-3-9.3,7.1-15.5,9.7-5.7,15.2-8.5-9.9-5.9-14.7,1-4.8,10.9-6.3,6.5-9.9,3.8-5.4-1-5.4,2-11.5-7.3,3.6-2.8-4.4-6.9-4.6-8.6,9.7-4.8-6.1-12.9,5-3,2.2-5.2,4.9-8.7,6.5-1,2.2-7.2.8-7.2,3.2s-4.9-6.3-7.1-2.2c-10.1,10.7-29.6,29.6-45.2,32.3,3.7,3.2,6.9,14.9-2,12.9-1.2-7.7-8.9-.6-11.7-4.3-3.2-1-2.4,5.1-5.2,2.9-11.7,7.2,9,22.8-11.7,29.4.6,5.5.4,9.5-5.9,8.5-4.6,2-2.4-5.5-5-3.2-10.3-5.7-8.5-13-18.6-6.1-6.4-6.3-25.2-3.8-31.5-16.1-14.9-3.9-19.3-25.3-28.6-36.1-3-5.7-4.4-6.3-7.9-1.3-8-5.2-3,3.5-7,3.1-5.9,1.8-12.7-10.3-13.3-.8-11.7-5.5,13.9-9.1,1.4-17-1.4-3-7.5.8-5.9-4.8,1.2-1,8.1-.2,7.7-3.7,2.6-3.6,5.6-3.2,6-7.2-2.2-4.9,5.7-9.9,2.5-14.5-7.3-5.5-6.9-15-8.3-22.4.6-6.5,4.8-7.5.2-12.7,6.2-9.9,2.8-20.8,14.9-27.1,5.3-3.4-4.6-2.2-3.4-10.5,1.2-5.4,2.8-10.5.4-14.5s6.6-6.6,2.6-9.3-9.9-10.5-3.4-10.5c12.1,11.5,10.7,9.9,28-2.2-2.4-4,8.5-4.8,5.5-9.1-1.2-1.2,5-2.2,3-3-1.2-4-.4-6.2-1.2-9.3,2.4-4.4,3.6-6.2,7-1.4,4.3-5,3.7-8.2,11.5-4,3.7-2.4-.4-8.3,11.7-6.3,3.9-3.8,8.5-1.4,11.3.8,2.9-5.2,3.5.2,8.1,1.5-2.2,8.8,2.8,10,5.3,20.1,6.2,5.1,11.7,5.5,18.5,4.9,2.2,2.4.6,10.5,5.3,4,3.4-.4,5.6-3,6.6-6.7,5.3-15.1,19.4,5.7,24.2-8,2.5-7.9,20.6-.8,9.7-9.1,1.4-4,5.7-5.9,8.5-4.2,6.8.4-.4-4.1,10.5-4.1,4.4-.2-.6-10.7,6-3.6,4.3-2.2-2-3.2,4.7-3,.6-1.2,4.2.6,3,2,.4.6,1.2-1,.6.4,2.6.4,5.6,4,7.7,2.2,4.6-3.6-3.5-8.5,1-12.5-1.2-.2,1.4-7.3,1-4,15.1,7,2.4-9.7,14.5-16.8-.6-8.9,3.6,3.5,5.7-.4-3.9-8.5,5.4-13.7,6.4-16.5s2.6-.6,2.6-3.2,4.1-5.9,4.9-3.3c.6,1,1.8-.2,1.2-1,3-1.8,3-13.3,10.3-8.7C337.6,144.1,337.8,140.1,341.6,139.9Z"/>
    </g>
  </g>
</svg>
