<svg xmlns="http://www.w3.org/2000/svg" width="500" height="500" viewBox="0 0 500 500">
  <defs>
    <style>
      .cls-1 {
        fill: none;
        stroke: #999;
        stroke-width: 0.75px;
      }

      .cls-1, .cls-2 {
        stroke-linejoin: round;
      }

      .cls-2 {
        fill: #5c98ff;
        stroke: #fff;
        stroke-linecap: round;
        stroke-width: 2px;
        opacity: 0.5;
      }
    </style>
  </defs>
  <g id="hucs">
    <g>
      <path class="cls-1" d="M291.4,210.1c13.9-.6,28.7-1.7,42.6-2.9.2,4-.7,6.6,2.7,9.8,1.2,2,1,5.9,2.8,7.4,1.8,17.9,3.3,36.6,4.9,54.5l-1.1,1.3c.5,1.5.5,2.7-.7,3.8s1.4,1.4,1.7,1.7l.2,1.4.6.6c.3.3,0,2.4,0,2.7l1.1,2.6-.3.7c-.9.6-1.9,1.6-1.6,2.6a3.3,3.3,0,0,0-.6,2l-1,1c.4,1.4-1.1,2.9-1,4.2h-.6l-.3.5-.8-.4v.8l-.8.6.6,1.3.7.3a5,5,0,0,1-1.6,2.8c.3.4.2,2.5.2,2.9l-1.1.4.9.8a3,3,0,0,0,.5,1.6c-.1.5-1.4,1.8-1.7,2.3s.9,3,1.4,4.3l-.5.6c-1.6.2-3.8,1.6-5.3,1.7s-.3,2.1-.8,2.9l.3,1.2c1.2,1,1.1,2.4.8,3.7l-.4.2c-1.3,0-2.6-1.3-3.9-1.4a8.6,8.6,0,0,0-4.1-1.6,2.7,2.7,0,0,0-2.1,2.4c-.5.3-1,2-1.1,2.4l.4.9-1.7-2-.2.8.4.7-.2.5-.9-.2a7.8,7.8,0,0,1-1.4-2.9c-.6-.3-1.1-1.9-1.2-2.5l-.5-.2-.3-1.1c.3-.2,1.4-1.2,1.4-1.6s-1.7-3-1.9-4.5.3-1.7,0-2l-2.2-1.6-.5-1.3a21.9,21.9,0,0,1-2.9-1.7l-1,.3-1.3-.9-.3-1.2c-.8-.4-2.4-1.3-2.8-2.2l-.7-.2a19,19,0,0,0-2.9-2.8c-.2-.9-.7-3-.1-3.9s1.4-2.8,1.7-3.8a3.7,3.7,0,0,0,.8-1.8,10.2,10.2,0,0,1-.1-3.5l.9-.7-.4-1.3-1.7-1.4a10.9,10.9,0,0,1-3.4-.7c-.3.3-1.7,2.4-2.2,2.5a6.4,6.4,0,0,1-1.8-5.7c-.5-.4-.6-1.9-.6-2.5a14.2,14.2,0,0,0-5.7-5.2c-1.1-1.9-2.7-4.4-4.5-5.7a7.4,7.4,0,0,0-1.9-3.1c-.2-.5.2-1.6.3-2-1.9-3-2.1-7.7,0-10.4a6.4,6.4,0,0,1,.1-2.4l-.6-1.3.8-1.4c1.1-.2,3.1-.7,3.6-1.7s.4-4.5,1.9-5.9a5.8,5.8,0,0,0-2.1-6.8,4.5,4.5,0,0,1,.4-2.3c-.3-.6.2-1.9.5-2.4a3.2,3.2,0,0,0,2.1-.6,18.6,18.6,0,0,1,3.4-.5,4.6,4.6,0,0,1,2.8-1.9l1.6-1.4a36.9,36.9,0,0,1,.5-3.7l1.7-1.6c.4-2.3.7-5-.3-7.2s-2.6-1.5-3.6-2.4c.2-2.5-2.1-3.6-3.8-4.9Z"/>
      <path class="cls-1" d="M339.7,315.3a2.2,2.2,0,0,1-.6-1.5l-.9-.9,1.1-.3c0-.6.1-2.7-.2-3s1.4-1.9,1.7-2.7l-.8-.4-.6-1.3.8-.5v-.9l.8.4.3-.5h.6c0-1.4,1.5-2.7,1-4.2l1-1a3.1,3.1,0,0,1,.6-1.9c-.3-1.1.7-2.1,1.6-2.7l.3-.7-1.1-2.5c0-.5.3-2.4,0-2.8l-.6-.5-.2-1.4c-.4-.4-1.6-1.4-1.7-1.8a3.1,3.1,0,0,0,.7-3.7l1.1-1.3c-1.6-18-3-36.7-4.8-54.6,2.9,4.3,7.7,1.1,10.7-1.6,9.5-.8,21-2.5,30.4-3.5,2.5,19.1,4.5,41.4,6.9,60.8a4.6,4.6,0,0,0-.9,1.7,3.3,3.3,0,0,1,.8,1.9l-.3.6.2.6,1.3.6-.4.5.5,1.2-.2.5-2.7.4-2.6,2.4a3.4,3.4,0,0,1-1.6-1,4.8,4.8,0,0,0-2.5.6c-.8,1.1.1,3,.4,4.1a9.6,9.6,0,0,0-1.2,2l-1.2.4c-.5.3-.6,2.5-.7,3l-1.1,1.3-.7-.4-.9.9a12.9,12.9,0,0,1-.8,2.8,4.5,4.5,0,0,1-.5,3h-1l-.5.6-.7-.6a4.1,4.1,0,0,1-2.6-.7,8,8,0,0,0-.9-3h-1.2v.6l1,.6-.9.5-1.1-.4-.3.6.6.9v.5l-.9.2-.4,1,.4,1-.2.5h-.9v1.5l-.8.2v-1.2l-1.3.2-1.3-1.7-.8.2c-2.2,2.2-2.7.6-3.4,4.8h-.6l-.4-.8c-1.8-.2-3.3-2.3-5.2-2.2l-.6.5h-.6l-.8-.9-.4.9.3,1.2-.6,1.1-.7-.2v-.9l-.5-.5-1.8.6-1-.8-.7.5a2.3,2.3,0,0,0,.4,1.6l-.3,1Z"/>
      <path class="cls-1" d="M281.4,187.8v1.1a3.2,3.2,0,0,1,1.2,2.1l1.3,1.4c.4,1-.9,3.2-1.3,4.1,0,2.6,1.7,5.9,2.2,8.4,2.7,2.2,6.6,1.4,6.6,6.1,1.7,1.3,4,2.4,3.8,5,1,.8,2.6,1.5,3.6,2.4s.7,4.9.2,7.2l-1.6,1.5c-.2.6-.5,3.2-.6,3.7l-1.5,1.5a4.5,4.5,0,0,0-2.8,1.8l-3.4.6a4.1,4.1,0,0,1-2.1.5,3.6,3.6,0,0,0-.6,2.4,6.1,6.1,0,0,0-.3,2.3,5.8,5.8,0,0,1,2.1,6.8c-1.6,1.5-1.9,4-1.9,5.9s-2.6,1.6-3.6,1.8l-.9,1.3.7,1.3a6.5,6.5,0,0,0-.1,2.4l-.5.5-1.2-.9a3.1,3.1,0,0,0-1.6-2.1l-.6-1.3h-.7l-.6-1.2c-20.6,1.2-41.9,2.3-62.6,1.6-.4-.9-1.7-2-1.9-3.1s.6-1.8.2-2.4a6.6,6.6,0,0,0,.6-2.2c-.5-.9-1.3-2.6-.6-3.4s-1.1-3.6-.3-5.1l-.7-.5a8.9,8.9,0,0,0-.3-2.8l-.7-.6-.3-1.1-1.1-.4.6-1.3-1.1-.7c0-.7,0-2.2.5-2.6V228a4,4,0,0,1-.8-3.3l-.5-.8h-.6l-.2-.6-.7-.8c-.1-.5-.3-1.5-.9-1.8a2.5,2.5,0,0,1,.2-1.5,8.4,8.4,0,0,0-1.3-2.7c-.1-1,.4-2.1.2-3.1l-.6-.2c-.5-.4-.6-1.6-.6-2.2a15.3,15.3,0,0,0-1.9-3c-.3-1.7,1.5-3.5,1.3-5.2l.3-.4v-1.6l-.2-.4,1-.5a7.5,7.5,0,0,0-.4-3.9l-1.3-.4-.2-1.1c.5-.3.9-1.7,1-2.2a6.4,6.4,0,0,1-1.3-1.8l.2-1.1C228.5,189.7,255.3,188.5,281.4,187.8Z"/>
      <path class="cls-1" d="M204.6,189.7c-.2-12.5.6-30.5-.2-42.9a36.2,36.2,0,0,0-3.3-2c-.3-1.4-1.9-3-2.2-4.3l.2-.9a7,7,0,0,0,3.8-7.4l.4-2.1c-.8-2.9-.4-5.8-2.4-8.3a15.8,15.8,0,0,0-1-4.3c0-1.7.1-4.9.3-6.6l-1-1.8c.4-1.7,0-4.8-.1-6.4.4-4.6-.1-10-2.4-14-.2-1.3-.7-4.7-1.5-5.8-.1-3.2.2-7.3-.2-10.3l.8-1.9c-.4-1.6-1.3-3.7-1.2-5.3a4.3,4.3,0,0,1-.4-2.5c7.2,0,20.6.4,27.8-.1V54.2l1.8.5,1.1-.4a2.8,2.8,0,0,0,1.7.9c.5,4.2,2,8.7,2,13.1a11.7,11.7,0,0,0,3.1,1.7l.9-.5,1.7.3.2.9c.7-.1,4.5.1,5.3.1l.7.9c0,.6-.1,1.6.4,2.1l4.2-1.3.6-1.1c1.8-1.3,4.1-.6,6.1-.9s3.1,1.9,4.6,1.5v1.2l-.7.4-.3,1h2.6l.7.8c-.3,1.1.7,3.1,1.2,4.1l1.2-.6c-.1-.5-.2-1.7.3-2.2a13.7,13.7,0,0,1,2.8-.2l.8.9.2,1.5,1.3.3.4.5,2,.4.2,1.4,1,.6h.8l.2.8,1.3-.2.7.3a5,5,0,0,0,3.3-2c.6-.9,2.2-1.4,2.7-2.4l1.5-.4.5,1.4.7.4.3,1.2.4.3,1.7-.7c.9.7,3,.2,3.9,0a2.8,2.8,0,0,0,1.8-.2l1.6.2a8.5,8.5,0,0,0,3.2,2.4l1.2-.8h3.8a5.1,5.1,0,0,0-2.4,1.9c-1.2,1.2-4.4,2.7-5.8,3.7a23.8,23.8,0,0,0-8,4.7,3.9,3.9,0,0,0-1.9,1.7c-2.8,2.4-4.9,6.4-7.2,9.3a31.3,31.3,0,0,0-5.8,5.7c-1.8,1.6-4.7,3.3-5.2,5.9l-1.1.3a123,123,0,0,1,.6,13.5l-.8,1.1h-1.1l-.3.8-1.1.3c-1.2,1.6-3.7,1.9-3.3,4.6-.1.5-1.1,1.5-1.4,1.9s-.6,2.1-.2,2.7l1.8.3a19.4,19.4,0,0,1,1.7,3.1,6.5,6.5,0,0,0-1.2,3.1l-.4.2.4,1.5-.4.4a4.4,4.4,0,0,1-.1,3l.7,2.7a2.7,2.7,0,0,0,.1,2,4.8,4.8,0,0,0-.4,2.6,6.3,6.3,0,0,0,1.8,1.5l1.3,1.9c2.2.7,4,1.1,5.1,3.3,1.6.4,4.3,1.2,5.1,2.8a13.6,13.6,0,0,0,1.6,3.5c1.3.6,2.8,2.3,4,3s2.6,1.4,2.9,2.2,1.1,1.1,1.1,1.7l.4.2a7.3,7.3,0,0,1,0,3.6l.5,1.3-.2,1.8.6,1.3C256.1,188.6,230,189.3,204.6,189.7Z"/>
      <path class="cls-1" d="M214.8,256c20.7.7,42.1-.4,62.6-1.6l.6,1.2h.8l.5,1.3A4,4,0,0,1,281,259l1.2.9a10.2,10.2,0,0,0,.4,9.9c-.2.5-.7,1.6-.3,2a10.4,10.4,0,0,1,1.9,3.2,15.6,15.6,0,0,1,4.5,5.7,14.7,14.7,0,0,1,5.7,5.1,4.2,4.2,0,0,0,.6,2.6,6.2,6.2,0,0,0,1.8,5.6c.5,0,2-2.1,2.2-2.5a15.1,15.1,0,0,0,3.4.8l1.7,1.3.4,1.3-.9.8a13.7,13.7,0,0,0,.1,3.5,3.4,3.4,0,0,1-.8,1.7c-.3,1-.8,3.2-1.7,3.9s-.1,2.9.1,3.8a26.5,26.5,0,0,1,2.9,2.9l.7.2c.4.9,2,1.7,2.8,2.2l.3,1.2,1.3.9,1-.4c.6.4,2.2,1.7,2.9,1.8l.5,1.3,2.2,1.5a3.7,3.7,0,0,1,0,2.1c.2,1.4,1.5,3.2,1.9,4.5s-1.1,1.3-1.4,1.5l.3,1.1.5.2a4.8,4.8,0,0,0,1.2,2.6,7.4,7.4,0,0,0,1.4,2.8l.9.2.2-.4-.4-.8.2-.7,1.7,1.9c.4-.1,1,.5,1.4.7v1.7c-.2.5-.9,1.5-.8,1.9l.7.4c.3,1.4-1,3.5-.6,4.9l-.8.4c-.5,0-1.7-1.3-1.9-1.5s-1,3.6-1.7,4.2l-.4-.3a7.6,7.6,0,0,0-.1-2.1l-.7-.3-.6.9.8.6a2.6,2.6,0,0,0-.5,1.9l.8,1.1-.5.6h-.4l-.9.5,1,1-.2.7-1.5-.3v1.1l1,.5c.4.7-.2,2.3-.4,3h-.5l-.5,1.3-4,.2H311c-1,0-5.8.5-6.8.4.5-1,1.8-3.5,2.8-4.2V354l.9-.5.2-1.3.5-.3a9.7,9.7,0,0,0,.2-2.4l-1-.4-.3-1.5-.7-.7c-18.5,1.1-37.8,2.1-56.3,2.7h-.1c-2,.2-5.9.1-7.9.3h-9c-.5-19.8-.7-40.4-.4-60.3l-1.4-1.3-.8.5-1.3-.8c-.3-.8-1.7-3.1-1.3-3.9l-.8-.4c-.3-1.3-1.9-2.2-2.7-3.1a7.6,7.6,0,0,1,2-4v-.9h1.8a5.1,5.1,0,0,1-.4-2.5h-.9l-.5-1.3-1.1,1.1-1.2.3c-1.4-1.4-3-3.3-4.3-4.7a3.9,3.9,0,0,0-.3-2.4l-.7-.7-.2-1.2-.8-.2-.4-.8-1.1-.4c.5-1.9-.8-3.9-1.9-5.4V256Z"/>
      <path class="cls-1" d="M204.3,213.1h-1l-1-1.1-.4.2-.5-1.3c-1-.2-1.3-1.5-1.5-2.4l-.9-.2-.2-.6h-1l-.6-.5h-.9l-.2-.6c-1.1.2-2.9-.9-3.6-1.6v-.7l-1.9-.4-1.1.6c-.9-.5-3,0-3.7.2l-.7-.6-.5.4-1.1-.4-.5.2c-.1.7-1,1.5-1.5,1.9s-3.2-2.3-4.7-3.2a4.3,4.3,0,0,1-3.1-2.6c-27-.9-55.7-2-82.6-4.9,1.8-21.5,4.2-45.8,6-67.3,34.7,2.9,71.3,4.7,106,4.8.4,2.4-1.9,5.1-3.9,6.2l-.2.8c.4,1.4,1.9,3,2.2,4.3l3.3,2.1c.8,12.5,0,30.3.2,42.8h-2.3l-.2,1.1c.1.5,1,1.3,1.3,1.8s-.3,1.8-1,2.2l.2,1.1,1.4.4a8.1,8.1,0,0,1,.3,3.8l-1,.6.2.4V202l-.3.5c.2,1.6-1.5,3.4-1.3,5.1a23.6,23.6,0,0,1,2,3.1A3.6,3.6,0,0,0,204.3,213.1Z"/>
      <path class="cls-1" d="M334,207.2c-13.8,1.2-28.7,2.3-42.6,2.9-.6-3.8-4.2-3.2-6.6-5.3-.3-2.6-2.2-5.8-2.2-8.5.4-.8,1.7-3,1.3-4l-1.3-1.4a3.5,3.5,0,0,0-1.2-2.1,3.7,3.7,0,0,0-.7-2.3l.3-1.8-.6-1.3a7.3,7.3,0,0,0,0-3.6l-.4-.2a3.9,3.9,0,0,0-1.1-1.7c-.2-.9-2.1-1.8-2.9-2.1s-2.6-2.6-4-3.1a11.1,11.1,0,0,1-1.6-3.5c-.8-1.5-3.5-2.4-5.1-2.8-1.1-2.1-2.9-2.6-5-3.2l-1.4-2a7.9,7.9,0,0,1-1.8-1.4,6.1,6.1,0,0,1,.4-2.7,3.1,3.1,0,0,1-.1-1.9l-.7-2.8a5.7,5.7,0,0,0,.2-2.9l.3-.5-.3-1.5.3-.2a6.9,6.9,0,0,1,1.2-3.1,15.9,15.9,0,0,0-1.7-3.1l-1.8-.3c-.3-.5.1-2.2.2-2.7s1.3-1.4,1.4-1.9c-.4-2.7,2.1-2.9,3.3-4.6l1.1-.3.3-.8h1.1l.8-1.1c.2-3.7-.3-9.7-.5-13.4l1-.4a6.7,6.7,0,0,1,.8-1.7v1.2h.3l.6-1.2c2,2.3,4.7,1.4,6.7-.3a6.7,6.7,0,0,0,5.1-2.7h1.1c1.4-.6,3-2.3,4.5-2.6l1.2,1.1v1.6l-.8.9a11.5,11.5,0,0,0-.1,2.6l-1.1,1.7.9.4.9-1.1a2.3,2.3,0,0,0,1.5-1l2,1.5c.5.2,2.3.6,2.5,1.2l.6-.2.3.6,1.4.2a7,7,0,0,1,1.4,3.6c5.6,2.7,13.4,2.1,18.4,5.7a7.3,7.3,0,0,1,2.9.7,3.3,3.3,0,0,1,1.6-.7c.8.6,2.2.4,3,1h2.3a3.7,3.7,0,0,1,1.3,1.7l-.6.9.5.9.9.4.7-.2c.9.6,2.7.7,3.1,2l-.3.7.5,1a5,5,0,0,0,0,2.7l-.9,2.8.6.6c.5-.1,2-.4,2.3-.9l.4.7c-.1,1.2-.9,2.6-.7,3.9a4.4,4.4,0,0,0,2.4,1.8v2.1A22,22,0,0,0,329,151a5.2,5.2,0,0,1-1.4,3.3v.9l-.8,1.1c0,.5.2,1.6-.3,1.9v.9l-.4.9.8.4h.8l.4-1.5a2.7,2.7,0,0,1,1.8-1.1l1.6-4.5a4.8,4.8,0,0,0,2.8-1.5l.8,1.1.2-.8c-1.2-2.4,1.8-4.6,1.2-7h1.3l.4-.9-.2-1,.7-.4V142h1.5v.9a4.1,4.1,0,0,0-.8,3.4l-.8.9c-.1,1.3-1.2,2.6-.9,3.9-1.9,1.9-1.5,5.1-2.6,7.1s-.8,6.5-.5,9.5a6.5,6.5,0,0,1-1.6,1.7,3.1,3.1,0,0,0-.1,1.7l-.5.8.3,1.2c-1.2,2.4,1.4,5.5-.3,7.9a23.6,23.6,0,0,1-1.4,7.1,25.4,25.4,0,0,0,.1,3.9,6.1,6.1,0,0,1,.6,3.3c1.3,1.3.4,3.9,2.1,4.9S333,205.1,334,207.2Z"/>
      <path id="_07" data-name="07" class="cls-2" d="M236.4,90.1c-.6,4.8,5.3,3.7,6.5,7.5,5.6-.6,5.5-6.5,6.3-5.2s1.4-1,3,.1c.4-1.7.8,1,1.5,1.2s1.1,3.1.7,5.9-2.9,5.4-.6,7.4c-2.7,3.8-1,4.2,3.7,4.9,1.5-.6,1,5.6,3.5,2.2,1.5,1.1-2.4,6,.9,6.6s3.2,2.1,5.5.3c1.6,1.5,4.1-3.2,5.8-.3.7-.5.5,1.4,1.3,0,1.7-4.1,5.7-.2,5.1,2.3s2.9-1.4,3.9-.4c1.6,3.3,4.6.7,4.6,2.2s4.3-2.9,4.1-2.1c2.2,1.5.8-.5,2.4,0s.9-1.3,3.1-1.2c4.3.4,1.5,2.7,6.2,2.6,2.2-1.3,2.6,3.1,3.3,0-.4-.5.9.1.7-.6s.7.1,1,0,1.2-.4,1.5,0c.8-1.6.4.7,1.8,0s-1,1.9.2,1-.6.5.5.5-1.4,2.3-1,2.6-.3,2.7,1,2.1-.7,1.8.3,2.3c-7.2,17.3,2.9,6.7.9,13.5-5.9,6.1-5.5,13.6-4.5,22.4-1.5,5.3-8.9,20.3,4.7,15.3,7.3-5.8,3.7-7.1,12.1-.1,1.1,5,3.1,6.2,3.9,10.5,1.2,2.7.5,7.2,2.7,9.5,1.4-2,6.8,17.3,7.8,21.1-.6,2,5.5,1,5.1,1.9-2.2,1.3-4,4.6-.2,5.3,1.4-.3,2.2-3.4,4-1.4,1.3-.3-1.4-3.2.1-2.7s.4-.5.7-.8c2.3-.5,5.8-6,7.7-5.2s.9-2.5,1.4-.3.4,1.7,1.2,2.4-.1,1.4,1,1.8,5.2,2.1,3.3,1.9,1.9.3.9,1.4c4.6,3.4-4.1-.4-3.8,5.5-2.6-1.4-3.8-1.7-5.7,0,0,5.6-3.1-2.9-3.8,2-1.9,1.2,0,3.5-.6,5.4,2,1.4-3,1-.7,2.8-1.4.7-1.7,3-4,2.6,1.3,3.3-6.3,5.2-7.6,7.5-2.2-.7-5.5-1.5-6.1-3.9s-5.6,1.1.5,4.6c2.7,2.7-3.6,3.2-.5,6.9-3.1,14.3,5.6,8.7-.1,12.9-3.4,1.9-8.3,14.1-5.3,15.9-4.1,6.3.9,13.4,3.1,18.9-2.1,2.2-.4,6.9-3,7.6-1.2,2.3-2.4,3.9-4.9,3.5-.6.6-1.9,3.2-.1,2.2,2.4.6,3.5,2.4,4.7,3.4-.7.4-.5,2.2-1.1,1.3-4.8,3.2-3.3,3.5-2.1,6.8-7.6,1.2-1.1-3.8-7.3-3.8-2.3-.2,3.3-3-1.1-1.6-3.3-.2-4.1,4.2-7.2,2.9-.8-.6-1.9.8-2.6.7-4.8-1.7-.4-7.5.6-10.9-1.4-8.1-5.7-6.2-9.2-1.1-1.1-.1-2-1.2-2.2-1.2s-3,0-3.8,1.9-3.6.2-2.7,2.6c-12.3-.4-4.8.9-8.2-9.4-.5-6.6,2-10.7,9.3-11.3,3.9-.9,7.3-4,11.1-5.2.7-.9,2-4.5,3.7-4s.1-.3.2-.5c2.7-1.2,0-.5-2.1-2.2-2.9,2.6-4.1,5.9-8.7,5.3-3.5-2.8-7.8-1.9-10.8-6.3-1.5-5.5-3.8-.7-5.8-.7s-1.3-1.5-2.5-1c-14-7.8-2.1-34.6-16.7-41.7-4.1-4.4-10.6,4.1-13.5-2.4-3.8-3.6-8.9-6.7-11.8-11.2.8-5.4-8.1-9.8-5.5-14.8a122.6,122.6,0,0,0-4.4-12c2.6,3.9-.5-2.3,2-3.5s3.3-3.8,4.4-6.4-2.1-6.1-2.3-7.7c-2.2-.7.6-5.2-3.4-3.8-1.7-.6-2.6.3-4,.4s-5.2-3.2-5.3-5,.4-2.3-.3-2.3c-4.3-2.8-7.8-10.5-11.4-15.3,2.1-3.2-1.9-8.9-4.4-11.3.3-4.7-3.2-10.6-3.4-14.1-3.8.2.5-6.5,2-4.4,2.2-.2.1,5.7,3.2,6.2.5.9-.5,1.6.7.6,6.6-1.6,1.6,5.6,8.6,2.3,1.1-3.3,6.5-4.9,3.8-8.3,1.4-6.7-4.7-5.8,2.5-10.5-.9,3.8,4.1,5.4,5,1.5-1.6-3.4-5.5.2.6-5.4-.2-1.9,1.2-3-1.2-4.1.3-1.6,1.3-4.6-.4-5.2s1.7-3.9.3-6.3c.1-1.6,3.3-.8,2.1-3.5,2.1-.9-.9-4.3.3-4.6,2.2-2.3,3.2,1.1,3.4-3.6C229.6,93.6,233.3,91.8,236.4,90.1Z"/>
    </g>
  </g>
</svg>
