<svg xmlns="http://www.w3.org/2000/svg" width="500" height="500" viewBox="0 0 500 500">
  <defs>
    <style>
      .cls-1 {
        fill: none;
        stroke: #999;
        stroke-width: 0.75px;
      }

      .cls-1, .cls-2 {
        stroke-linejoin: round;
      }

      .cls-2 {
        fill: #5c98ff;
        stroke: #fff;
        stroke-linecap: round;
        stroke-width: 2px;
        opacity: 0.5;
      }
    </style>
  </defs>
  <g id="hucs">
    <g>
      <path class="cls-1" d="M202.3,333l-.4.5h-.7v.8l-1,.3v.8a40.4,40.4,0,0,1-7.3,1.7v-.7l3.8-.7c.2-.7-.8-2-1.1-2.6s-1.7-1.5-1.9-2.7l.4-1.3a4.4,4.4,0,0,1-.2-2c-.5-.3-1.2-2.1-1.4-2.6h-.8c0,1.2-.5,2.8-.4,4l-.6.7c.3.2.2,4.6.2,5l-.7.6-1.2-1.2h-1.8l-.3-.5-.6.4c-6-33.5-3.4-67.8-3.4-101.7h-.5l-1.1-1.9v-.5c13.8-1,29.4-2.2,43.2-3.4,3.4,13.5,7.7,28,10.9,41.4.3.2,1.5,5.3,1.6,5.5s2.2,3.9,2.2,5.1a3.4,3.4,0,0,1,1.1,1.8l1.2,1.2a2.9,2.9,0,0,0,.4,1.6,4.3,4.3,0,0,1-.2,2c.4.7,1.6,1,2,1.8s-1.4,1.9-2.3,2.4.1,3,.2,3.7-1,4.9-.2,7a10.7,10.7,0,0,1,1.4,3.5c-.6,1.4-.2,3.6-.1,5.2l-.4.4c.3,1.2.5,3.3,1.9,3.7a6.7,6.7,0,0,0,.8,2.5c-14.6,1.3-31.2,3.3-45.8,4.5v1.7a2.5,2.5,0,0,0-.2,1.7,29.3,29.3,0,0,0,4.1,3.8l.4,1.3c-.3.5-1,1.9-.7,2.5l1.2,1.1v.6l-.6.3Z"/>
      <path class="cls-1" d="M313.2,281.5l.8.2v.7c-.2.5-1.2,1-1.7,1.2l.4,1.1-1,.8h-1.5l.4,1.2.8.5a3.7,3.7,0,0,0-.9,1.6h-1.2v1.5l.8-.2a6.1,6.1,0,0,1,0,3l-.8-.4-1.1.7v.7l1.4-.4.2.4a8.7,8.7,0,0,0-.5,2.8l-.8-.3-.4.4v1.5l-.2.3-1.2-.2-.6.4.9,1.4-.6,1.4.4,1.5-.6.2-1-.9v1.2l1,.6.6,1.3.4-.4v-1.3l.4.3.2,1.2c-.5.4-1.4,1.3-1.4,1.9l.9.2c-.6.6-.8,2.4-.8,3.3l.7.5-.2,1.2a2.9,2.9,0,0,1-2.2.4l-.3-.4-.7.4c-.6-.7-2.6-1.1-3.5-1.2l-.3-.5-.9.2-.5.9h-.7c-.7,1.7,0,3.7.8,5.3l.2,4.4a7.6,7.6,0,0,1-2.1.3l-1-.7c-.1-.6-.3-2.5-1-2.8l.5-.9c-15.6,1.1-32,1.9-47.5,2.7a4.9,4.9,0,0,1-1.5-1.4l-.2-2.3a9.5,9.5,0,0,1-2.4-4.8c-1.4-.4-1.7-2.5-1.9-3.7l.3-.5c-.1-1.4-.4-3.7.2-5.1a9.1,9.1,0,0,0-1.5-3.5c-.7-2.1-1.2-5.1.3-7a11.8,11.8,0,0,1-.3-3.7c1.1-.5,1.3-1.9,2.3-2.5s-1.5-.9-1.9-1.7a4.3,4.3,0,0,0,.2-2,3,3,0,0,1-.5-1.6l-1.2-1.2a2.7,2.7,0,0,0-1.1-1.8c0-1.1-1.5-4.3-2.1-5.1s-1.4-5.3-1.6-5.5c-3.3-13.5-7.5-27.9-10.9-41.4,5.9-.6,15.5-2,21.4-2.6v-.1c6.3,0,14.1-2.3,20.3-2.7-.7,2.1-3.2,4.2-3.5,6.6l.4,1.1.7.2.8,1h1.2c2.6,1.9,1.7,2.4,5.4,2.4.7.3,1.2,1.4,1.5,2.2a15,15,0,0,1,2.6,4.4,11.5,11.5,0,0,1,3.4,4.2c2.8,2.1,6.2,3.9,8.1,7.2h1.1c1,.5,2.3,2,3.3,2.4a4.8,4.8,0,0,0,.3,2.7l1.2.4a4,4,0,0,1,.7,1.8l1.5.5v.6l.8,1a10.4,10.4,0,0,1,4.7,2.3v1.4c.3.4,1.1,1.1,1.1,1.7l.5.2c.1.5.8,2.5.4,3.1l.5.5v.9l1.1,1.1c2.7.2,3.6,3.1,4.9,5.1s0,2.5-.1,3.2l.9,1.4a5.6,5.6,0,0,0,2.3.3C311.2,280.9,313.2,281.5,313.2,281.5Z"/>
      <path class="cls-1" d="M263.5,141.7a8.8,8.8,0,0,0,.6,3.6,3.7,3.7,0,0,0,0,2.1l-.4.5v.8a18.1,18.1,0,0,1,2.9,3.3l-.3.8.4.7.6.2.8,1.8,1.4,1a4.8,4.8,0,0,0,2.1,2.9l.5-.6.9,1.7a5.7,5.7,0,0,0,2.9.1c-1.1,2-3.9,4.8-4.8,6.8l-3.3,2c.1.3-2.3,2.3-2.6,2.4l.3,1.9a8.8,8.8,0,0,1-1.9,1.2l-.3.5a3.9,3.9,0,0,1,.1,1.9c-.8.8-2.4,1.2-3.3,1.8L260,181c-1,.2-3.5,1.9-4.3,2.4a10.5,10.5,0,0,0-4.5,2.7c-10.8,1.7-23.1,1.5-33.9,3.2-3.9.5-9.2-.3-12.9,1.1-6.2-.1-14.8,1.8-21.2,1.9l-.3-.6h-3.5a12,12,0,0,1,.5,3.8c-6.6.7-15.6,1.3-22.2,1.8l1-3.2c.3.3,1.5,1.6,1.8,1.6l.9-.5c-.3-1.3,1-3.5.6-4.8l-.7-.4a3,3,0,0,1,.8-1.9v-1.7a1.9,1.9,0,0,0-1.5-.7l-.3-.9c.2-.5.5-2.2,1.1-2.4a2.7,2.7,0,0,1,2.1-2.4,8,8,0,0,1,4,1.7c1.3.1,2.7,1.3,4,1.4l.4-.2c.3-1.5.3-2.8-.9-3.8l-.2-1.2c.6-.7.1-2.1.8-2.8s3.7-1.6,5.2-1.8l.6-.5c-.5-1.3-2.2-2.9-1.4-4.4a12.4,12.4,0,0,0,1.7-2.3h1.7l.2-1a2,2,0,0,1-.4-1.6l.7-.5,1,.8,1.9-.6.4.5v.9l.8.2.5-1.1-.3-1.2.4-.9.8.9h.6l.6-.5c2-.1,3.4,2,5.2,2.2l.4.8h.6c.7-4.2,1.2-2.5,3.4-4.8l.8-.2,1.3,1.7,1.3-.2v1.2l.8-.2V161l.9-.2.2-.5-.3-1,.3-1,.9-.2v-.5l-.6-.9.3-.6,1.1.4.9-.5-1-.6v-.6h1.2a10.4,10.4,0,0,1,.9,3,4.2,4.2,0,0,0,2.7.7l.6.6.6-.6h.9a5.2,5.2,0,0,0,.5-3,13.1,13.1,0,0,0,.9-2.8l.8-.9.7.4,1.1-1.3c.1-.6.3-2.7.8-3l1.2-.4a5.1,5.1,0,0,1,1.2-2c-.4-1.1-1.2-3-.5-4.1a4.4,4.4,0,0,1,2.5-.6,2.5,2.5,0,0,0,1.6,1l2.6-2.4,2.7-.4.3-.5-.6-1.2.5-.5L225,136l-.2-.6.4-.6a3.1,3.1,0,0,0-.9-1.9,2.7,2.7,0,0,1,2.1-2.2c.3.5,1.5.8,2,1s1.8-.9,2.2-1.2l.8.2.2.7c1.9.6,3.6,3.3,3.6,5.2a6.4,6.4,0,0,0,4.3.3c.7.2,2,.8,2.3,1.5a4.7,4.7,0,0,0,2.8,1.2l.7-1.2,1.4-.6c1.1.2,3.2.8,4,1.7a4.9,4.9,0,0,1,2.4-.8l.4-1.1,2.6-2.1h.6a16.6,16.6,0,0,1,1.2,3.1,9.9,9.9,0,0,0,2.4.9C261.8,139.5,263,140.9,263.5,141.7Z"/>
      <path class="cls-1" d="M377.7,165h.6c1.4,3.1,3.3,7.6,5.2,10.4a22.6,22.6,0,0,1,3.5,4.8l-.4.6a13,13,0,0,0-2.7-3.9l-.2-.6-1.2-.5a9.2,9.2,0,0,1-.8-2.5C380.1,171.1,378.9,167.4,377.7,165Z"/>
      <path class="cls-1" d="M346,233.9c-4.6-4.2-13-10.3-17.9-14h0c-.3-.1-4.5-3.6-4.8-3.5-5.6.9-12.6,2-18.2,2.7l-.3-2.4-3.4-3.8-1.4,1.5-.5-.9.3-1.5c-7.3.5-15.8,2-23.1,2.4l-.4.9-.7-.3c-.8.7-2.3,2-3.5,1.7v.8l-1.1.7-.6-.2c-1.1.7-3.7,2.2-4.8,2.7-6.3.4-14.1,2.7-20.3,2.7,0-.1-.1-5.2-.1-5.3l.8-1.2,1.2.6a6.3,6.3,0,0,0,2.3-1.7,22.6,22.6,0,0,0-.1-2.6c1.7-2.9,4.2-5.1,7.7-4.5a39.7,39.7,0,0,1,2.9-2.9h.4c.8-1.3,3-3.2,4.5-3.4s1.2-1.5,1.4-2.1l-.5-1.1.8-.7.6.3.6-.7-.2-.6,1.9-2.1,1,.6a2.2,2.2,0,0,0,.2,1.4c1.4.4,2.4-1.3,3.1-2.2a3.6,3.6,0,0,1,.7-1.7,7.5,7.5,0,0,0,2.8-1.1,2.8,2.8,0,0,0,1.6.6l1-1a10.2,10.2,0,0,1,2.3-5.2h1.9a2.3,2.3,0,0,0-.7-1.3,4.3,4.3,0,0,0,.1-3.5l.8-1.1c30.4-2.7,60.9-9,90.7-15.7v.2l-.4.7v.5h.8l1.6,2,.5-.8a14.4,14.4,0,0,1,1.3,3.2c.8.8,1.9,2.5,1.5,3.7-.4-.5-1-1.8-1.7-2v-.7l-1.1-.3v1.7a5.5,5.5,0,0,0-1.9-1.2l-.9-.9-.9.5,1.2.9v.5l1.4.5v.8l-1.2.2-.3.7-1.6-1.4a4.2,4.2,0,0,0,.6,1.9,7.5,7.5,0,0,1-2.4-.8l-.4.6,1.1.5-.6.6-1.2.2.5.8v.5l-1,.8-1.8-.5-.6.3a1.7,1.7,0,0,1-.6-1.5,5,5,0,0,1-.9-2.3l.5-.5v-1.3l-1-.9-.5.7.9,1.2-.4,1.2a12.9,12.9,0,0,0,1.9,4.7l-.4.7v1.2c1.2-.2,2.9-1.3,4.1-1.6l.2-.5.8-.3.4.9a1.5,1.5,0,0,0,1.4-.4l.2-.5a5.8,5.8,0,0,1,4-1.1v.6h.6c.1,1-.3,2.2.2,3.2l-.6.8.9.2c.1.3.4,1.2.2,1.5l-.9-.2v.6l1.4.2a5.1,5.1,0,0,1,.4-2.2c.1-1.1-.8-2.6-.4-3.7l1.2-.3-.2-.6.5-.9,1.5.8a4.8,4.8,0,0,0,1.5,2.2,4.2,4.2,0,0,0,.5,2.6l-.8.4c.2.4,1,1.5.8,1.9l-1.2,1.1-.9-.9a2.9,2.9,0,0,0-.3,1.8l-.8.4a4.3,4.3,0,0,1-.3,2.3l-1.1-.3.3,1.5c-.4.1-1,.9-1.2,1.3h-1l-.5-.4-.9.4-.7-.6-.3.8-.9-.4v-1l-1.1.7-.2.5h-.8l-.8-2.1,1.2-.7v-1.1l-.9-.2.2.7-1.4.6-.9-.5-.3.8,1.2.7-.2.4.5.8-.5.8-1.1-.5a2.8,2.8,0,0,1-1.8,0l-.5-.8-.7.7-2.4-.6-.2.8a7.2,7.2,0,0,1,2.4,1h1.2l.2.8,1-.5v.8l.3.3.9-.5,3.7.3a4.6,4.6,0,0,1-.3,2.6l-.9-.2-.6,1.2h.6l.7-.4.4.4c-.4.6-1.3,1.7-1.3,2.4l-.7.4-.5.9a3.4,3.4,0,0,0-1.5.9,5.2,5.2,0,0,0-2-.9l-.4-.7a6.7,6.7,0,0,1-2.5-1.6l-.4,1.8a8.2,8.2,0,0,1,3.2,2.4h.7l.6.4h1l.7.5.7-1.2.7-.3.2,1.1h.6l-.4-1.1.4-.6.7,1,.5-.5-.6-.5V202h1.4v-1.7h.7v.9l.5.3-.5.9,1.2-.3.4-1.4.9.8.2.8-.6.4.4.5-.6.8h-.6v.8l-.6.4.2.7-.7.6v.8l-.7.7-.7-.2v-1.2h-.7v1.4l-.6-.5-.3-1-.8.5.5.6v.8a8.9,8.9,0,0,0-5.7,2.2,10.3,10.3,0,0,1-1.1-2.1h-.6l.6,1.1a4.5,4.5,0,0,0,0,2l-.7.3c.1.6-.9,1.4-1.2,1.9h-.7l-1.1-.9.7-.9-.7-.5v-.7l-.9-.3-.2.8.9.6v.7l-.5.3.3,1.2h1v.7a12.8,12.8,0,0,1-2.1,1.4c-3,3.4-5.3,7.9-4.5,12.5l-.5-.3v-1.6l-.7-.4a7.6,7.6,0,0,1-1,4.6l-2.3.2-.5-.3-1.8.9-.9-.4-1.5,1.7Z"/>
      <path class="cls-1" d="M376,165.3l1-.2h.2l.5,1.2h-1l-.5-1.2Z"/>
      <path class="cls-1" d="M265.7,221l4.8-2.8.7.3,1-.8v-.8c1.3.3,2.7-1.1,3.6-1.6l.6.2.4-.9c7.3-.4,15.9-1.8,23.2-2.4l-.4,1.5.5.9,1.4-1.5,3.4,3.8.3,2.4c5.6-.7,12.6-1.8,18.2-2.7.3-.1,4.6,3.4,4.8,3.5h0c4.9,3.7,13.4,9.9,17.9,14-4.4,3.3-7.1,8.7-8.4,13.8l-.9.7-.3-1.3h-.6a4.9,4.9,0,0,0,.5,2l1.5.7v1.3l-.9.5.2.6a2.8,2.8,0,0,1-1.7,1.2l-.3.9-.7.2-.4.8-1.4.2c-.2.5-1.7,2.2-1.5,2.8l.4.4a9.9,9.9,0,0,0-2.7,3.4h-.7l-.6-1.2-.7,1.5.8.2v.6l-.6.4-.2,1.3a7.7,7.7,0,0,1-2.5,1l-.3.7h-1.2v1.2c-.3.4-1.4,1.6-2,1.7l-.9-.5a4.1,4.1,0,0,1-2.2.7l-.2.8,1.3.5v.6a4,4,0,0,0-1.1,1.9l-.9,1.1h-.8a13.2,13.2,0,0,1-2.5-2.8l-.5.2v1.3a4.3,4.3,0,0,1,1.5,3.4l.9-1.1.8.4v.6a7,7,0,0,1-1.7,2.5l-.6-.4c-.2.6-1.1,1.9-.8,2.6l-2-.8c-.6,0-1.9.1-2.3-.3l-.9-1.5c.1-.6.1-2.4.1-3.1s-2.3-4.9-4.9-5.2l-1.1-1.1v-.9l-.5-.5c.3-.5-.3-2.5-.4-3.1l-.5-.2a2.9,2.9,0,0,0-1.1-1.6V262a13.4,13.4,0,0,0-4.8-2.3l-.7-.9v-.7l-1.5-.4a4,4,0,0,0-.7-1.9l-1.2-.3a6.5,6.5,0,0,1-.3-2.8c-1-.4-2.3-1.8-3.3-2.4h-1.1c-1.8-3.3-5.3-5-8.1-7.1a10.9,10.9,0,0,0-3.4-4.3c-.2-1.3-1.8-3.4-2.6-4.4a3.9,3.9,0,0,0-1.5-2.1c-3.8.1-2.8-.6-5.4-2.5h-1.2l-.8-.9-.7-.3-.4-1.1C262.5,225.1,265,223.1,265.7,221Z"/>
      <path class="cls-1" d="M153.5,209.1l.5-1.3h.5c.2-.6.9-2.2.4-2.9l-1.1-.6.2-1.1,1.5.4.2-.8-.9-1.1.7-1h.4l.5-.6-.8-1.1a3,3,0,0,1,.4-1.9l-.7-.7.6-.8.7.3a3.7,3.7,0,0,1,.1,2.1l.4.3.7-1.1c6.7-.5,15.7-1.1,22.2-1.8a12,12,0,0,0-.5-3.8H183l.3.6c6.4-.1,15-2,21.3-1.9,3.5-1.4,8.9-.5,12.8-1.1,10.8-1.7,23.1-1.5,33.9-3.2l.6-.4c9-.9,19-2.4,27.9-3.9l.3-.5,4.1-.6.2.5-.8,1.1a4.7,4.7,0,0,1-.1,3.5c.5.2.7,1,.7,1.3h-1.9a10.5,10.5,0,0,0-2.3,5.3l-1,1a2.4,2.4,0,0,1-1.6-.7,7.7,7.7,0,0,1-2.7,1.1,2.3,2.3,0,0,0-.8,1.8c-.7.8-1.7,2.5-3.1,2.2a2.5,2.5,0,0,1-.2-1.5l-1-.5-1.8,2.1v.5l-.6.8-.6-.3-.8.6.5,1.1c-.2.7-.7,1.9-1.4,2.2s-3.7,2.1-4.5,3.4h-.4l-2.9,2.9c-3.5-.7-6.1,1.6-7.7,4.4a12.2,12.2,0,0,1,.1,2.7,6,6,0,0,1-2.3,1.6l-1.2-.5-.8,1.2c0,.2.2,5.1.1,5.3-21,3-43.4,4.5-64.6,6.1v.4c-11.2.9-23.9,2.1-35.1,2.5v-.9l.9-.2.3-1,1.6-.2.5-1.2-.2-.5.2-.8a16.5,16.5,0,0,1-1.1-4.5l-.6.7-.7-.4v-.6l.8-.6.2-.7h.6v1l.6.3c.6-.3.8-2,.9-2.5l1.1-.3a10.7,10.7,0,0,1,.6-3l-.8-.2-.5-.6v-1l1.8-.7a5,5,0,0,1,1.5-1.7l-.2-1.5,1.2-.3v-.8l-1-.9Z"/>
      <path class="cls-1" d="M336.2,108.7c1.4-.2,2.9.8,4.1,1.1l.2.7c-.3.4-1,1.4-.8,2s1.8,1.1,2.1,1.4a3,3,0,0,1,2.3.2l.8,1.1c3.3.3,3.7,2.6,4.2,5.3a4.8,4.8,0,0,0-1.4,2.6l-1,.7c-.5,2-1.2,5,.9,6.3s1.5-1.2,2.3-1.2l.6-.7h.6l.2.7-.2.7a4.4,4.4,0,0,0,1.8,1.5v.6a19.5,19.5,0,0,0,5.4,1.4l.5-.3a3.4,3.4,0,0,1,1.4,1.9h.8l.4.9.7-.7a10.4,10.4,0,0,0,3.6,1.4c.1.4.4,1.2.2,1.6l-.9.2-.2,1,.5.6c0,.4,0,1.3-.3,1.6l.6,1.3-.5.3-1.3-.2-.4-.6-.9.5c-.4-1.6-2.3-2.5-3.7-3.1l-.8-1.2c-1.2-.2-2.5-1.8-3.3-2.6l-.2.8,1.5,1.7c.7.1,1.5,1.1,1.8,1.6l.8.3.6.9a3.6,3.6,0,0,1,2.5,2.8l.8.3,1.5-.3,1,.5,1-.2.2.8-2.1.3a2.9,2.9,0,0,0,1.8.7l1,.8h.7a2.9,2.9,0,0,1,.3,2.4c-.7-.2-2-.7-2.3-1.4l-.9,1.4.6.6-.5.6.4.5.8-.5.4.9-.2.4h-1.4c-2-1-4.3-3.3-5.9-5l-.6.7c1.9,1.6,4.7,5.6,7.4,5.1l1,1.1,1.1-.2V155l.7-.3.6.7v1.1l-.9.2-1.2,1.2-1.2-1.3h-.6l-.6-.8-.6.2-.7-.5v-.7l-.8-1.3h-1.1l-.6.4-2.1-.5-.2-1.3-.6.2v1.2h-1l.4.8a4.2,4.2,0,0,0,2.7,0l.8.7h1.4a6.9,6.9,0,0,1,.5,2.4l.8.4h.5l.3.7.7-.2,1.1.6.4,1.4a4.4,4.4,0,0,1,2.6-.6l.2-.4-.3-.8.4-.6c1,.5,2.5.3,3.4.8l.9-.8.6.2a21.6,21.6,0,0,1,1.9,3.7,12.7,12.7,0,0,1,2,3.6h-.6l-.2-1.2-1.2-.7-.3.6a4.6,4.6,0,0,0,.7,1.6,3.1,3.1,0,0,0-1.2.5v-.2c-29.8,6.7-60.2,13-90.7,15.6l-.2-.5-4,.7-.4.4c-8.8,1.5-18.9,3.1-27.9,3.9a10.1,10.1,0,0,1,3.9-2.2,46.3,46.3,0,0,1,4.3-2.4l.2-1.8c.9-.8,2.4-1.1,3.3-1.9a4.1,4.1,0,0,0-.1-1.9l.3-.5a5.2,5.2,0,0,0,1.9-1.2l-.2-1.9c.2-.2,2.6-2,2.5-2.4l3.3-1.9c1-2,3.7-4.9,4.8-6.8l.6.6-.7.9a4.4,4.4,0,0,1,1,1.9,5.5,5.5,0,0,0,1.8,1.9h.9c1.3,1.2,2.3,1.8,4.1,1.3l.6-1.2h.5a3.6,3.6,0,0,0,1.3-2.2,11.2,11.2,0,0,1,2.1,1.7h1a6.8,6.8,0,0,1,4-1.9c.3-.3,1.4-1.1,1.5-1.5l-.8-.8.6-.9.9.2.4.7c.6-.4,3.2-2.8,4-2.7l.4.7h.6c.3-.4,1.3-1.9,1.8-2.1l-.5-.7v-.5l1.7-1.4-1.2-.4-.4-.9c.2-3.2,2.4-6,3.7-8.7s0-4.2,2-6.1l-.5-.7c0-.5.8-1.1,1.1-1.5s-.4-3.6.1-5.1l.5-.4,1.7.8,1,2a10.6,10.6,0,0,0,3.1.2c1.5-1.3,1.2-5.2,2.3-6.8a2.5,2.5,0,0,1,.3-1.7v-.8l.9-1.2,2.2,1.4c.3-1.2.5-3.4,1.4-4.3l.6.3.5-1.4.8-.3.4-.9-.3-.4c.3-.5,1.8-2.7,1.8-3.4l-.6-.4.3-1.4-.4-.3.7-2.3h-.4a5.1,5.1,0,0,1,.3-2.1c1.3.6,7.7,4.7,9.1,5.5l.2-.2A20.5,20.5,0,0,1,336.2,108.7Z"/>
      <path id="_06" data-name="06" class="cls-2" d="M283.3,165.5c1.5,6.5,5.6-4.3,4.8,2.3,1.9-.9,0,1.2,1.4,1.1s2.3.2.8,1.9,1.9,1.7,1.1,1.7c-2,2.2,1.2,3.4-2.5,4.5s-.5,12-2.5,13.9c-2.1.2-1.9.9-2.8,2.9.9,4.1-4.8,6.7-4.2,10.6-1.4.8.9,1.9-.7,2.4-.1.9,1.3,0,1.1,1,.1,3-2.5,5.6-4.4,7.7s-2.4.6-4.4,1.1c-.6-3.1-1.3.2-1.9-.6-2.2-.8-1.9,4.2-3.3,2.5-1.2,2.6-2,5.6-4.6,1.7-1.8-2.2-.8,5.5-2.5,5.3s-1.8-.5-1.9,1c-1.9,1.8-5.7,5.5-8.6,1.3.5-5.3-1.9.7-3.1-2.1s-.4-4.4-2.7-3.2c-7.7-7.5-3.1,7.3-8,7.6-1.5,1.4-.8-1.5-1.8-1.2s-3.2,7.5-3.2,2.2c-4.4,1.3-7.8,18.9-11.2,11.6-2.6-.2-3.5,1.2-4.9,3.4-.9-1.7,2.3-5.6-2.1-4-1,1.6-2.8-1.2-3.8,1.3s-9.8-3.3-9.4-2.2c-3.6-.7-1.6,4.7-4.7,4.3s-10.3-2.7-10.1-8.2c-2.2-4.7-2,3.9-4.5-6.5-1.2-1.2-.7-3-1.1-4.5-.2-4.8-2-14.5.8-17.5s-1.8-9.4-.3-10.4c.9-2.7-12.1-15.9-4.2-15.7,1.9,1,1.6-5.2,4.8,1.2,5,6.2,7.7,17.2,15.4,19.7,4,5.6,11.6,5.8,16.9,7.8.7-.4,0,1.3.6.6s2,.2,2.4-.7,1.5-.9,2.2-.3c2.9,3.8,6.4,5.2,9.6,6.5,3.1-1.2,0-6.1,2.3-6,1.6,2.5,5.3-5.2,4.6-6.8,0-3.3-3.7-4.6-.4-7.4,7.7-6.8,12.7,4.5,13.4-2.8.5-1.6-4-6.3-.6-4,2.9-1.1,6.9-4,10-7.1,6.9-2.3,9.1-7.3,13.4-11.3,1.8-.8,3.5,3.8,3.6,1C276.8,173,279.5,169.4,283.3,165.5Z"/>
    </g>
  </g>
</svg>
