<svg xmlns="http://www.w3.org/2000/svg" width="500" height="500" viewBox="0 0 500 500">
  <defs>
    <style>
      .cls-1 {
        fill: none;
        stroke: #999;
        stroke-width: 0.75px;
      }

      .cls-1, .cls-2 {
        stroke-linejoin: round;
      }

      .cls-2 {
        fill: #5c98ff;
        stroke: #fff;
        stroke-linecap: round;
        stroke-width: 2px;
        opacity: 0.5;
      }
    </style>
  </defs>
  <g id="hucs">
    <g>
      <path class="cls-1" d="M342.5,237.8l1-1.4a6.7,6.7,0,0,1,2.5,1.9l-1.4,2.3A5.8,5.8,0,0,0,342.5,237.8Z"/>
      <path class="cls-1" d="M125.5,183.4c13.9-.7,28.6-1.7,42.6-3,.2,4.1-.7,6.6,2.7,9.9,1.2,2,1,5.8,2.8,7.3,1.8,18,3.3,36.6,4.9,54.6l-1.1,1.3a3.1,3.1,0,0,1-.7,3.7c.1.5,1.4,1.5,1.7,1.8l.2,1.4.6.6a12.2,12.2,0,0,1,0,2.7l1.1,2.5-.3.8c-.9.5-1.9,1.5-1.6,2.6a3,3,0,0,0-.6,2l-1,1c.3,1.4-1.1,2.8-1,4.1h-.6l-.4.6-.7-.5v.9l-.8.5.6,1.4.7.3a4.4,4.4,0,0,1-1.6,2.7,10.1,10.1,0,0,1,.2,3l-1.1.3.9.9a2.7,2.7,0,0,0,.5,1.5c-.1.6-1.4,1.9-1.7,2.3s.9,3.1,1.4,4.4l-.5.6c-1.6.2-3.8,1.6-5.3,1.7s-.3,2.1-.8,2.9l.3,1.2c1.2.9,1.1,2.4.8,3.7l-.4.2c-1.3,0-2.6-1.3-3.9-1.4a7.9,7.9,0,0,0-4.1-1.7,2.8,2.8,0,0,0-2.1,2.4,6.2,6.2,0,0,0-1.1,2.5l.4.8-1.7-1.9-.2.7.4.8-.2.4-.9-.2a7.4,7.4,0,0,1-1.4-2.8,4.8,4.8,0,0,1-1.2-2.6l-.5-.2-.3-1.1c.3-.2,1.4-1.2,1.4-1.5s-1.7-3.1-1.9-4.5.3-1.7,0-2.1l-2.2-1.5-.5-1.3a15.3,15.3,0,0,1-2.9-1.8l-1,.4-1.3-.9-.3-1.2c-.8-.5-2.4-1.3-2.8-2.2l-.7-.2a26.5,26.5,0,0,0-2.9-2.9c-.2-.9-.7-2.9-.1-3.8s1.4-2.9,1.7-3.9a3.8,3.8,0,0,0,.8-1.7,10.3,10.3,0,0,1-.1-3.5l.9-.8-.4-1.3-1.7-1.3a8.8,8.8,0,0,1-3.4-.8c-.3.4-1.7,2.4-2.2,2.5a6.1,6.1,0,0,1-1.8-5.6,4.6,4.6,0,0,1-.6-2.6,14.7,14.7,0,0,0-5.7-5.1,18.1,18.1,0,0,0-4.5-5.7,8.5,8.5,0,0,0-1.9-3.2c-.3-.4.2-1.5.3-2-1.9-2.9-2.1-7.6,0-10.4a6.6,6.6,0,0,1,.1-2.4l-.7-1.3.9-1.3c1.1-.2,3.1-.8,3.6-1.8a8.1,8.1,0,0,1,1.9-5.9,5.8,5.8,0,0,0-2.1-6.8,6.3,6.3,0,0,1,.3-2.3,4.5,4.5,0,0,1,.6-2.4,4.1,4.1,0,0,0,2.1-.5,17.2,17.2,0,0,1,3.4-.6,4.5,4.5,0,0,1,2.8-1.8l1.6-1.5c.1-.6.3-3.1.5-3.7l1.6-1.5c.5-2.3.8-5-.2-7.2s-2.6-1.6-3.6-2.4c.2-2.6-2.1-3.7-3.8-5Z"/>
      <path class="cls-1" d="M173.8,288.6a2.5,2.5,0,0,1-.6-1.6l-.9-.9,1.1-.3c0-.5.1-2.6-.2-2.9a5,5,0,0,0,1.6-2.8l-.7-.3-.6-1.3.8-.6v-.8l.8.4.3-.6.6.2c0-1.5,1.5-2.8,1-4.2l1-1a3.6,3.6,0,0,1,.6-2c-.3-1.1.7-2,1.6-2.6l.3-.8-1.1-2.5c0-.4.3-2.4,0-2.7l-.6-.6-.2-1.4c-.4-.3-1.6-1.3-1.7-1.7s1.2-2.3.7-3.8l1.1-1.3c-1.6-17.9-3-36.7-4.8-54.5,2.9,4.2,7.7,1.1,10.7-1.7,9.5-.7,21-2.5,30.4-3.5,2.4,19.2,4.5,41.4,6.9,60.8a6.1,6.1,0,0,0-1,1.8,2.8,2.8,0,0,1,.9,1.8l-.3.7.2.5,1.3.7-.4.4.5,1.2-.2.6-2.7.3-2.6,2.4a2.5,2.5,0,0,1-1.6-1c-.6-.2-1.8.4-2.5.7s.1,2.9.4,4a21.2,21.2,0,0,0-1.2,2l-1.2.5c-.5.3-.6,2.5-.7,2.9l-1.1,1.3-.7-.3-.9.9a12,12,0,0,1-.8,2.7,4.8,4.8,0,0,1-.5,3.1h-1l-.5.5-.7-.5a3.5,3.5,0,0,1-2.6-.8,7.5,7.5,0,0,0-.9-2.9h-1.2v.5l1,.7-.9.4-1.1-.3-.3.5.5.9v.6l-.8.2-.4,1,.4.9-.3.6H197v1.4l-.8.2v-1.2l-1.3.3-1.3-1.8-.8.2c-2.2,2.2-2.7.7-3.4,4.8h-.7l-.3-.7c-1.8-.2-3.3-2.3-5.2-2.2l-.6.4h-.6l-.8-.8-.4.8.3,1.2-.6,1.1-.7-.2V286l-.5-.4-1.8.5-1-.7-.7.4a2.5,2.5,0,0,0,.4,1.7l-.3.9Z"/>
      <path class="cls-1" d="M259.1,263.9a8.8,8.8,0,0,0,.6,3.6,3.7,3.7,0,0,0,0,2.1l-.4.6v.7a18.1,18.1,0,0,1,2.9,3.3l-.3.9.4.6.6.3.8,1.7,1.4,1a5.4,5.4,0,0,0,2.1,3l.5-.7.9,1.7a4.8,4.8,0,0,0,2.9.2c-1.1,1.9-3.9,4.8-4.9,6.7l-3.2,2c.1.3-2.3,2.3-2.6,2.4l.3,1.9a7.6,7.6,0,0,1-1.9,1.2l-.3.5a4.1,4.1,0,0,1,.1,1.9c-.8.9-2.4,1.2-3.3,1.9l-.2,1.8c-1,.2-3.5,1.9-4.3,2.4a11.8,11.8,0,0,0-4.5,2.8c-10.8,1.6-23.1,1.4-33.9,3.2-3.9.4-9.2-.4-12.9,1-6.2-.1-14.9,1.8-21.2,1.9l-.3-.5H175a11.1,11.1,0,0,1,.5,3.7c-6.6.8-15.7,1.3-22.2,1.8l1-3.1c.3.2,1.5,1.5,1.8,1.5l.9-.4c-.3-1.3,1-3.5.5-4.9l-.6-.4a3.6,3.6,0,0,1,.8-1.9l-.2-1.7c-.3-.3-.9-.8-1.4-.7l-.3-.8c.2-.6.5-2.2,1.1-2.4a2.8,2.8,0,0,1,2.1-2.5,8.4,8.4,0,0,1,4,1.7c1.3.1,2.6,1.3,4,1.4l.4-.2c.3-1.4.3-2.7-.9-3.7l-.2-1.2c.6-.8.1-2.1.8-2.9s3.7-1.5,5.2-1.7l.6-.6c-.5-1.3-2.2-2.8-1.4-4.4s1.6-1.7,1.7-2.3h1.6l.3-1a2,2,0,0,1-.4-1.6l.7-.4,1,.7,1.8-.5.5.4v.9l.7.2.6-1.1-.3-1.2.4-.9.8.9h.6l.6-.4c1.9-.1,3.4,1.9,5.2,2.2l.4.7h.6c.7-4.1,1.2-2.5,3.4-4.8l.8-.2,1.3,1.7,1.3-.2v1.2l.8-.2v-1.4h.9l.2-.6-.3-1,.3-.9.9-.3v-.5l-.6-.9.3-.5,1.1.3.9-.4-1-.7v-.5l1.2-.2a10.4,10.4,0,0,1,.9,3,4.2,4.2,0,0,0,2.6.8l.7.5.5-.5h1a5.5,5.5,0,0,0,.5-3.1,13.8,13.8,0,0,0,.8-2.7l.9-.9.7.3,1.1-1.3c.1-.6.3-2.6.7-3l1.2-.4a8.6,8.6,0,0,1,1.3-2c-.4-1.1-1.3-2.9-.5-4a3.8,3.8,0,0,1,2.5-.7,2.1,2.1,0,0,0,1.6,1l2.6-2.4,2.7-.3.3-.6-.6-1.2.4-.4-1.3-.7-.2-.5.3-.7a3.6,3.6,0,0,0-.8-1.9,2.7,2.7,0,0,1,2-2.1,7.8,7.8,0,0,0,2.1.9,4.3,4.3,0,0,0,2.2-1.2l.8.3.2.6a6.4,6.4,0,0,1,3.6,5.3,7,7,0,0,0,4.3.2,5.1,5.1,0,0,1,2.3,1.5,4.2,4.2,0,0,0,2.8,1.2l.7-1.2,1.4-.5a7.4,7.4,0,0,1,4,1.6,4,4,0,0,1,2.4-.7l.4-1.1,2.6-2.1h.6a15.7,15.7,0,0,1,1.2,3,7,7,0,0,0,2.4.9C257.4,261.7,258.6,263.1,259.1,263.9Z"/>
      <path class="cls-1" d="M331.8,230.9l-.8-.5v-1.1l-.7-.8-.2-1.3h-.6l-.9-.9.3-.9-.4-.5c-.4.5-1.7.6-2.3.6l-2.3-1.3h-.9l-.4.3-.3.9-.7.4h-.9a9.4,9.4,0,0,0-1.7,3.3c-1.3,0-3.2,0-4.3-1V227l-.8.5v1.2a12.4,12.4,0,0,0-1.6,3l-.3.2a2.9,2.9,0,0,0-1.8-.3c-.1,1-1.3,2.3-2.1,3s-2.4,2.7-3,4.1l-2.2-11.6c18.5-3.6,38.4-7.1,56.8-11.3,2.3,8.5,5.2,19.7,7.9,28.1l10-2.1a2.3,2.3,0,0,1-.2,1.6c.6,1.2.2,3.2,0,4.5a18.8,18.8,0,0,1-.2,4.1h-.9c.4-.5.4-3.3.5-4l-.8-.7a5.1,5.1,0,0,0-.3,3l-.6.6-.2,1.6-3.9,1.6-.2.8a4.2,4.2,0,0,0-2.5.9v.7l-1.4-.7v-1.1a4,4,0,0,0,1.5-1.4l-.3-.3-1,.5h-.6l.2-1,.9-.4-.2-.7a10,10,0,0,1-2.1,1c-.1-.4-.2-1.3.1-1.6l.8-.5-1-.4V248h-.6v1.5l-.4.2-1.4-1.3v1.8l-1.9-1.1a2.3,2.3,0,0,0-1.2-1.2h-.9a11.4,11.4,0,0,1-1-1.9l.5-.8v-1l.9-.2-.6-.7-.7.6-.6-1.1.5-.8H359l1.2.7h.7v-.7l-1.6-.9.2-1.6-.3-.2-.7,1.1-.5.2-.7-1h-1.5l.2-1.7.7-.5,1.1,1.1a2.8,2.8,0,0,0,.2-1.8l-.8-.3-.4-2.1.5-.4c-.4-.7,0-2.4.2-3.2h-.6l-.7.6-1.2-.7c0-1.1.1-2.7.9-3.5l-.2-.8h.6v-1.1H358l.4-.7-1-.2v-.7l.8-1h.7l-.2-.9-.4-.5-1.1,1,.2-1.7-1,.3-.4-.3c-.4.2-.8,1.5-1,2a1.7,1.7,0,0,1,.7,1.4l-.6.8h-.7v.9l-.8.8H353l-.2-.7-.6.2.4,1.1-1,.2.5,1.1-.9.2.5.7-.2.4-1.1-.2-.7-.8h-.8l.5,1.2h.8l.4,1a5.8,5.8,0,0,0,1.9,1l-.5,1.5.8.2v1.1l-.8-.3.7,1.6h-.9l-.4.3.3.8-.3.8.9.2.2.8-.7,1.1a4.8,4.8,0,0,1,1.1,3l.4.3v1.4a13,13,0,0,0,3.2,3.4V249h-1.2l-.3-.7c-.4-.3-1.6-1.3-2.3-1l-.6-.8h-.7v.6c.8,1,3.1,1.9,3.9,3l.9-.3.7.5-.2.5.3,1.3,1.2,1.1v.6l.4,1-.5.4-.7-1H357a3.5,3.5,0,0,1-.4-1.7H356v1l-1,.6-.4-.8a4.3,4.3,0,0,0-1.8-.6l-.2-.3-.6-.6-.3.9-.5.5-.8-1.2h-.5v.6l-.9-.3-.2-.8-.9-.3a5.4,5.4,0,0,0-1-2.3h-.5l-.5,1.2.3.4-.5.7c-.8,0-1.5,1.2-2.3,1.2s-1.4-4.4-.9-6.3l1-.7a3.7,3.7,0,0,1,1.4-2.5c-.8-1.7.4-3.1,1.2-4.3a6.7,6.7,0,0,0-2.5-1.9l-1,1.4a4.1,4.1,0,0,0-1.9-.5l-.8-1.1a4.6,4.6,0,0,0-2.3-.2c-.4-.2-1.9-.9-2.1-1.3s.5-1.6.8-2.1l-.2-.7C334.6,231.7,333.2,230.7,331.8,230.9Z"/>
      <path class="cls-1" d="M288.5,170.4c1.6-1.8,4.1-3.5,4.9-5.8,2.3-1.9,4-3.1,4.3-6.4a6,6,0,0,0,2-1.4c.3-1.4-1.2-3.1-1.5-4.4a2.4,2.4,0,0,1-1.6-.5v-1.4l-.8-1.2.4-.9-.4-3a35.2,35.2,0,0,1,18-4.6l2.1,1.3H317l.3.5c1.2-2.9,5.1-2.3,7.5-2.9l.5.6.7-1.3,1.1-.2,1.1-1.2h.6a8.3,8.3,0,0,1,1.4-3l.9-.4a2.7,2.7,0,0,1,.6-1.7l2.4-.2c1.1-2.3,0-5.7-1.9-7.4v-.5l.5-.6.9.2a3.5,3.5,0,0,0,.3-2l-1-.5.7-1.1a2.6,2.6,0,0,1-1.3-.6l-.4.7.4.4.2.7-.8.4-.8-1.9-.9-.4v-.7c1.6-2.1,4.3-3.8,5.3-6.3a5.3,5.3,0,0,0,1.4-3.8l-.2-.3c.7-2.1,4.4-7.6,5.4-9.6s2.9-2.6,3.4-3.5l2.5-1.6c6-.4,14.2-3.4,20.4-4.8a4.7,4.7,0,0,1,.3,3.3,4.1,4.1,0,0,0,.9,1.9c0,4.2,3.4,8,3.3,12.2-.7.7-.7,3.2-.7,4.1s1.1,2.6,1.8,3.6a6.4,6.4,0,0,0,1,2.6c.2,1.4-.4,3.3.3,4.6l.4.2.6-1.4.6.2c3,5.6,3.1,13.2,5,19.3.7,4.6,0,10.6.3,15.2,1.9,5.3,1.3,15.2,4.8,19.6a27.9,27.9,0,0,1-2.8,3.2l1.3,1.8a5.1,5.1,0,0,1-1.6,4l.5,1.2-1.6-.4a9.7,9.7,0,0,1-.6-3.4c-4.2-1.6-10.2-3.6-14.3-5.5l-.8-1.3-1.4.3c-.6-.4-1.8-.5-2.5-1.1s-2.2-3.2-2-5.2l-1.1-.7-.2-.7-.7-.7a3,3,0,0,1-1.9-.4,4.6,4.6,0,0,0-1.9-2.4c-21.2,4.8-43.9,9.2-65.3,12.9Z"/>
      <path class="cls-1" d="M382.4,185.3l-.2,1.9-.8.4a10,10,0,0,1,.6-2.9Z"/>
      <path class="cls-1" d="M378.9,193.7l-.3-.4c.6-1,.4-2.7,1-3.7l.4-.2v.4l.9-.7.7,1C381,191.1,380,193.4,378.9,193.7Z"/>
      <path class="cls-1" d="M373.3,287.2h.6c1.4,3.1,3.2,7.6,5.2,10.4a24.3,24.3,0,0,1,3.5,4.9l-.4.5a12.9,12.9,0,0,0-2.8-3.8v-.7l-1.2-.4a12.1,12.1,0,0,1-.8-2.5C375.7,293.4,374.5,289.6,373.3,287.2Z"/>
      <path class="cls-1" d="M341.5,356.1c-4.6-4.1-12.9-10.3-17.8-14h0c-.3-.1-4.5-3.6-4.8-3.5-5.6,1-12.6,2.1-18.2,2.7l-.3-2.4L297,335l-1.5,1.5-.4-.9.3-1.5c-7.3.6-15.8,2-23.1,2.4l-.4.9-.7-.2c-.8.6-2.3,2-3.5,1.6v.8l-1.1.8-.6-.3-4.8,2.8c-6.3.3-14.1,2.6-20.3,2.6,0-.1-.1-5.1-.1-5.3l.8-1.2,1.2.6a5.3,5.3,0,0,0,2.3-1.7,11.8,11.8,0,0,0-.2-2.6c1.8-2.8,4.3-5,7.8-4.5a38.3,38.3,0,0,1,2.9-2.8h.4c.8-1.3,3-3.3,4.5-3.4a4.4,4.4,0,0,0,1.4-2.2l-.5-1.1.7-.7.7.4.5-.8v-.6l1.9-2,1,.5a2.1,2.1,0,0,0,.2,1.4c1.4.5,2.4-1.3,3.1-2.2a3.6,3.6,0,0,1,.7-1.7,7.5,7.5,0,0,0,2.8-1.1,2.9,2.9,0,0,0,1.6.7l1-1a10.2,10.2,0,0,1,2.3-5.3h1.9a2.7,2.7,0,0,0-.7-1.3,4.7,4.7,0,0,0,.1-3.5l.8-1.1c30.4-2.6,60.9-9,90.7-15.7v.2l-.5.7.2.6h.8l1.6,1.9.5-.7a12,12,0,0,1,1.3,3.1c.8.8,1.9,2.6,1.5,3.8-.4-.6-1-1.9-1.7-2.1V294l-1.1-.3v1.8a4.6,4.6,0,0,0-1.9-1.3l-.9-.8-.9.4,1.2.9v.5l1.4.6v.7l-1.2.3-.3.6-1.6-1.4a5.1,5.1,0,0,0,.6,2,7.8,7.8,0,0,1-2.4-.9l-.4.7,1.1.4-.6.6-1.2.3.5.7-.2.6-.9.7-1.8-.5-.7.3a2,2,0,0,1-.5-1.5c-.5-.3-.8-1.8-.9-2.3l.5-.4v-1.4l-1-.8-.5.6.9,1.2-.4,1.2a12.3,12.3,0,0,0,1.9,4.7l-.4.7v1.2c1.2-.2,2.9-1.3,4.1-1.5l.2-.6.7-.3.5,1a1.6,1.6,0,0,0,1.4-.5l.2-.5a6.4,6.4,0,0,1,4-1.1v.7h.6c.1,1-.3,2.2.2,3.1l-.6.8.9.2c.1.4.4,1.2.2,1.6l-.9-.3v.6l1.4.2a5.7,5.7,0,0,1,.4-2.2c.1-1.1-.8-2.6-.4-3.7l1.2-.2-.2-.7.4-.9,1.6.8a4,4,0,0,0,1.5,2.2,4,4,0,0,0,.5,2.6l-.8.5c.2.3,1,1.4.8,1.8l-1.3,1.1-.8-.9a4.2,4.2,0,0,0-.4,1.8l-.7.4a3.5,3.5,0,0,1-.4,2.3l-1-.3.3,1.5a2.8,2.8,0,0,0-1.2,1.4l-1-.2-.6-.4-.8.4-.7-.6-.3.9-.9-.5v-1l-1.1.7-.2.5-.8.2-.8-2.1,1.2-.8v-1.1l-.9-.2.2.8-1.4.5-.9-.4-.3.7,1.2.7-.2.4.5.8-.5.9-1.1-.6a2.8,2.8,0,0,1-1.8,0l-.5-.7-.7.6-2.4-.5-.2.7a7.2,7.2,0,0,1,2.4,1H364l.2.8,1-.4v.7l.3.3.9-.5,3.7.3a6.3,6.3,0,0,1-.3,2.7l-.9-.3-.6,1.2.6.2.7-.5.4.5a5.1,5.1,0,0,0-1.3,2.4l-.8.3-.4,1a2.7,2.7,0,0,0-1.5.9,4,4,0,0,0-2-.9l-.4-.8a9.7,9.7,0,0,1-2.6-1.5l-.3,1.7a10.8,10.8,0,0,1,3.2,2.4h.7l.6.5h1l.7.4.7-1.2.7-.2.2,1.1h.5l-.3-1.1.3-.7.8,1,.4-.4-.5-.6v-.6h1.4v-1.8h.7v.9l.5.3-.5.9,1.2-.2.4-1.4.9.7.2.8-.6.4.4.6-.7.7h-.5v.8l-.7.5.3.6-.7.7v.7l-.7.7h-.7v-1.2h-.7v1.3l-.6-.4-.4-1-.7.4.5.7v.7a8.7,8.7,0,0,0-5.7,2.2,6,6,0,0,1-1.1-2.1h-.6l.6,1.1a4.5,4.5,0,0,0,0,2l-.7.3c.1.6-.9,1.5-1.2,1.9h-.7l-1.1-.9.7-.8-.7-.6v-.6l-.9-.4-.2.8.9.7v.6l-.6.3.4,1.2,1,.2v.6a12.8,12.8,0,0,1-2.1,1.4c-3,3.4-5.3,7.9-4.5,12.5l-.6-.3v-1.5l-.6-.5a7.6,7.6,0,0,1-1,4.6l-2.3.2-.5-.3-1.8.9-.9-.3-1.5,1.6Z"/>
      <path class="cls-1" d="M371.6,287.6l.9-.3.3.2.5,1.2h-1l-.5-1.2Z"/>
      <path class="cls-1" d="M283.4,208.9a4.6,4.6,0,0,0-2.1,1v.7a13,13,0,0,1,1.4,2.6c-.3.5.4,3,.5,3.5a20.4,20.4,0,0,0-1,8.9l-.6.3.2.9c-.3.7,0,1.8-.4,2.6l.4,1.2c-.3.3-.3,1.7-.4,2.1s-2.4,2.9-2.9,4a10.9,10.9,0,0,1-3.7,3.4,3.2,3.2,0,0,0-1.5-.9c-1.1.4-1.6,2.3-1.6,3.2h-1.2l-.5.4v1l-.4.3c-.3.9.2,2.3-.2,3.1l-.8.2v.6l.9.7a4.7,4.7,0,0,0,.3,1.7h-1.2l-.2,1.1-1,.5v-1.7c-.2-.6-1.6-1.1-2.1-1.3a4.9,4.9,0,0,0-1.3,4.3l-1,1.1a21.6,21.6,0,0,1,1,4.4l-1.3.8-.2,2.9c-.8.4-2.9,1.5-3.7,1.4a8.7,8.7,0,0,0-2.6-2.8,11.7,11.7,0,0,1-2.4-.9,8,8,0,0,0-1.2-3.1h-.5l-2.7,2.1-.4,1.1a3.2,3.2,0,0,0-2.4.8c-.8-.9-3-1.5-3.9-1.7l-1.5.6-.6,1.2a5.3,5.3,0,0,1-2.9-1.2c-.3-.8-1.6-1.3-2.3-1.6a6.1,6.1,0,0,1-4.2-.2,6.2,6.2,0,0,0-3.7-5.2l-.2-.7-.7-.2a8,8,0,0,1-2.2,1.2,5.8,5.8,0,0,1-2.1-1l-1.1.5c-2.3-18.9-4.5-40.5-6.7-59.2l20.3-3.5v2.4c.5-.9,1.7-.9,2.4-1.5a4.9,4.9,0,0,0,3.3,1.5c.8.3,2,1.5,3,1.7l1.3-.4v-1.1h.7l.4,1h.9l-.3.9-2.8.8-.4.9.7.6.4-.4.6.2.5-.9a7,7,0,0,0,2.3-.8l.6.9c1.7.6,2.6,1.4,4.1-.2a15.6,15.6,0,0,0,4.5-2.6c2.8.4,5.9-.4,7.2-3.1,1-1,2.6-2.8,2.9-4.2l2.5-1.2a9,9,0,0,1,1.5-1.8c2.5-.5,4.7-2.9,7.1-3.7,1,5.4,2.4,13.5,3.3,19h.1C282.1,200.7,283.1,206.2,283.4,208.9Z"/>
      <path class="cls-1" d="M288.5,170.4l1.2,5.8c21.5-3.7,44.2-8.1,65.4-12.9a4.1,4.1,0,0,1,1.9,2.4,3.8,3.8,0,0,0,1.9.4l.7.7.2.7,1.1.7c-.2,2,.9,3.7,2,5.2s1.9.6,2.5,1.1l1.3-.3.9,1.3c-1.3,1.6-1.5,4-1.8,5.8a5.4,5.4,0,0,0-1,2.2l-1.3,1.5a3.2,3.2,0,0,0,1.3,2.2v.7c-.3.3-.3,1.3-.3,1.9l-.8.5c0,.4-.1,2,.3,2.2a4.6,4.6,0,0,0,.2,2l.6.3.7-.2.9.3.7,2.4.3.3,1.3.3c.7,1.2,2.2,2,3.1,3h.5l1.2,1.8c-.9.4-1.5,1.5-2.4,2.1s-1.5,2.5-2.4,3.5v1.7c-.9,1.1-2.9,1.3-3.6,2.8-.3-.5-1.5-.6-2-.7a3.9,3.9,0,0,0-3,3.5c-23.9,5.3-49.2,9.9-73.3,14.1-1.9-10.4-3.4-21.4-5.3-31.8h-.1c-.9-5.5-2.3-13.6-3.3-19,2.1-1.2,4.6-2.9,5.4-5.2h.7l.2.6A16.9,16.9,0,0,1,288.5,170.4Z"/>
      <path class="cls-1" d="M149.1,331.4l.4-1.3h.6c.2-.7.9-2.2.4-3l-1.1-.5v-1.1l1.6.3.2-.8-.9-1.1.7-1,.4.2.5-.7-.8-1.1a3.3,3.3,0,0,1,.4-1.9l-.7-.6.6-.9.7.3a3.8,3.8,0,0,1,.1,2.1l.4.3.7-1.1c6.7-.5,15.6-1,22.2-1.8a11.1,11.1,0,0,0-.5-3.7h3.5l.3.5c6.4-.1,15-2,21.2-1.9,3.6-1.4,9-.5,12.9-1,10.8-1.8,23.1-1.6,33.9-3.2l.6-.5c8.9-.8,19-2.4,27.9-3.9l.3-.4,4.1-.7.2.5-.8,1.1a4.7,4.7,0,0,1-.1,3.5,1.7,1.7,0,0,1,.7,1.4h-1.9a10.2,10.2,0,0,0-2.3,5.2l-1,1a2.8,2.8,0,0,1-1.6-.6,13.6,13.6,0,0,1-2.8,1.1,2.6,2.6,0,0,0-.7,1.7c-.7.9-1.7,2.5-3.1,2.2a2.2,2.2,0,0,1-.2-1.4l-1-.6-1.9,2.1.2.6-.6.7-.6-.3-.8.6.5,1.1c-.2.7-.7,1.9-1.4,2.2s-3.7,2.1-4.5,3.4h-.4l-2.9,2.9c-3.5-.7-6.1,1.6-7.7,4.5a11.1,11.1,0,0,1,.1,2.6,5.1,5.1,0,0,1-2.3,1.6l-1.2-.5-.8,1.2c0,.2.2,5.2.1,5.4-21,2.9-43.4,4.5-64.6,6v.4c-11.2.9-23.9,2.1-35.1,2.6v-.9l.9-.2.3-1,1.6-.2.5-1.3-.2-.5.2-.8a15.6,15.6,0,0,1-1.1-4.5l-.6.7-.7-.3v-.7l.8-.5.2-.8h.5l.2,1,.6.3c.6-.3.8-2,.9-2.5l1.1-.2a11.3,11.3,0,0,1,.6-3.1l-.8-.2-.5-.6v-.9l1.8-.8c.2-.6,1.1-1.3,1.5-1.7l-.2-1.5,1.2-.3V333l-1-.9Z"/>
      <path class="cls-1" d="M375.9,251.9h1c-.5,1.1-1.3,3.1-1,4.3l-.3.2C375,255.3,375.5,253.1,375.9,251.9Z"/>
      <path class="cls-1" d="M331.8,230.9c1.4-.2,2.8.8,4.1,1.1l.2.7a2.6,2.6,0,0,0-.8,2.1c.2.4,1.8,1.1,2.1,1.3a4.5,4.5,0,0,1,2.3.2l.8,1.1c3.2.3,3.7,2.6,4.2,5.4a4.2,4.2,0,0,0-1.4,2.5l-1,.8c-.5,1.9-1.2,4.9.9,6.2s1.5-1.2,2.3-1.2l.5-.7h.7l.2.7-.2.8a4.6,4.6,0,0,0,1.7,1.4v.7a34.1,34.1,0,0,0,5.5,1.4l.5-.4a4.3,4.3,0,0,1,1.4,1.9h.8l.4.9.7-.7a13,13,0,0,0,3.6,1.5c.1.3.4,1.2.2,1.5l-.9.2-.2,1,.5.7c0,.3,0,1.3-.3,1.5l.6,1.3-.5.3-1.3-.2-.4-.5-.9.4c-.5-1.5-2.3-2.5-3.7-3.1l-.8-1.2c-1.2-.2-2.5-1.7-3.3-2.6l-.2.9,1.5,1.6c.7.1,1.4,1.1,1.8,1.7l.7.2.7,1a3.3,3.3,0,0,1,2.5,2.7l.8.3,1.5-.3,1,.6,1-.3.2.8-2.1.3a2.4,2.4,0,0,0,1.8.7l1,.9h.7a2.8,2.8,0,0,1,.3,2.4,4.5,4.5,0,0,1-2.3-1.4l-.9,1.4.6.5-.5.7.4.4.8-.4.4.9-.2.3h-1.4c-2-1-4.3-3.3-5.9-4.9l-.6.6c1.9,1.7,4.7,5.6,7.4,5.2l1,1.1,1-.3v1.5l.8-.4.6.7v1.1l-.9.2-1.2,1.2-1.2-1.3h-.6l-.6-.8-.6.2-.7-.5v-.7l-.8-1.3h-1.1l-.7.5-2-.6-.3-1.3-.5.2v1.2h-1l.3.8a4.5,4.5,0,0,0,2.8,0l.7.8h1.5a6,6,0,0,1,.5,2.4l.8.3h.5l.3.8.7-.3,1.1.6.3,1.4a5.9,5.9,0,0,1,2.7-.5l.2-.5-.3-.7.4-.7c1,.5,2.5.3,3.4.9l.9-.9.6.2a26.1,26.1,0,0,1,1.9,3.7,13.3,13.3,0,0,1,2,3.7h-.6l-.2-1.2-1.2-.8-.3.7a4.1,4.1,0,0,0,.7,1.5,2.6,2.6,0,0,0-1.2.5v-.2c-29.8,6.7-60.2,13-90.7,15.7l-.2-.6-4,.7-.4.4c-8.8,1.6-18.9,3.1-27.9,4a9,9,0,0,1,3.9-2.2,23.2,23.2,0,0,1,4.3-2.4l.2-1.9c.9-.8,2.4-1.1,3.3-1.9a3.7,3.7,0,0,0-.1-1.8l.3-.6a4.1,4.1,0,0,0,1.9-1.2l-.2-1.8c.2-.3,2.6-2.1,2.5-2.4l3.3-2c1-2,3.7-4.8,4.8-6.8l.5.7-.6.8c.3.5,1,1.3,1,1.9a6.8,6.8,0,0,0,1.8,2h.9c1.3,1.2,2.3,1.7,4.1,1.3l.6-1.2h.5a4.2,4.2,0,0,0,1.3-2.2,10.6,10.6,0,0,1,2.1,1.6h.9c.8-.8,3-2,4.1-1.8s1.4-1.1,1.5-1.6l-.8-.7.6-.9h.9l.4.8c.6-.5,3.2-2.9,4-2.8l.4.8h.6a7.9,7.9,0,0,1,1.8-2.2l-.5-.7v-.5l1.7-1.3-1.2-.5-.4-.8c.2-3.2,2.4-6.1,3.7-8.8s0-4.2,2-6l-.5-.8c0-.4.8-1.1,1.1-1.4s-.4-3.6.1-5.2l.5-.4,1.7.9,1,1.9a8,8,0,0,0,3.1.3c1.5-1.4,1.2-5.3,2.3-6.8a2.8,2.8,0,0,1,.3-1.8v-.7l.9-1.3,2.2,1.5c.3-1.2.5-3.4,1.4-4.4l.5.3.6-1.4.8-.2.4-1-.3-.3c.3-.6,1.8-2.8,1.8-3.4l-.6-.5.3-1.4-.4-.2.7-2.3h-.4a5.3,5.3,0,0,1,.3-2.2c1.3.6,7.7,4.7,9.1,5.6l.2-.2A20.4,20.4,0,0,1,331.8,230.9Z"/>
      <path class="cls-1" d="M370.6,254.8l.2-.9,3.9-1.5-.6,1.4a6.6,6.6,0,0,1-.1,2l.2.7c-.3,1.7-1.9,4-1.1,5.9a7,7,0,0,0-1.2,3.5h-.4l-.7.6a4.7,4.7,0,0,0,.2,1.7,8.9,8.9,0,0,0-.8,3.3,3.6,3.6,0,0,0-.2,2.7l-.6.4a7.4,7.4,0,0,1-1.2-2.7,5,5,0,0,0-.1-2.1l.3-.6v-.8l-.6-.5.5-.8c-.7-1.5.1-4.2.6-5.5s.1-1.6.2-2.1h.9a2.9,2.9,0,0,1,.5-1.8l-.8-1.8.8-.3Z"/>
      <path class="cls-1" d="M302.6,227.1l2.1,11.6c.8-1.4,2.6-2.8,3.1-4.1a6.3,6.3,0,0,0,2.1-3c.4-.2,1.4.2,1.7.3l.4-.2a12.4,12.4,0,0,1,1.6-3v-1.2l.8-.5v1.1c1.1.9,2.9.9,4.3,1a11.4,11.4,0,0,1,1.7-3.3h.9l.6-.4.4-.9.4-.3h.9l2.3,1.3a4,4,0,0,0,2.3-.6l.4.5-.3.9.9.9h.6v1.3l.8.8v1.1l.8.5a34.8,34.8,0,0,0-1,4.4l-.2.2c-1.4-.8-7.7-4.9-9.1-5.5a3.9,3.9,0,0,0-.3,2.1h.4l-.8,2.3.5.3-.4,1.4.7.4c0,.7-1.5,2.9-1.9,3.4l.4.3-.5,1-.7.3-.6,1.4-.5-.3c-.8.9-1.1,3.1-1.5,4.3l-2.2-1.4-.8,1.2v.8a2.1,2.1,0,0,0-.3,1.7c-1.1,1.6-.8,5.5-2.3,6.8a16.7,16.7,0,0,1-3.1-.2l-1-2-1.8-.8-.4.4c-.5,1.5.2,3.5-.1,5.1s-1.1.9-1.1,1.5l.4.7c-1.9,1.9-1.5,3.6-1.9,6.1s-3.4,5.5-3.8,8.7l.5.9,1.2.4-1.8,1.3v.6l.6.7c-.6.2-1.5,1.6-1.9,2.1h-.5l-.5-.7c-.7-.1-3.4,2.4-3.9,2.7l-.4-.8h-.9l-.7.9.9.8c-.1.4-1.2,1.3-1.5,1.5s-3.3,1.1-4.1,1.9h-1a6,6,0,0,0-2.1-1.7,4.1,4.1,0,0,1-1.3,2.2H280l-.7,1.2c-1.7.5-2.8-.2-4-1.3h-.9a11.4,11.4,0,0,1-1.9-1.9c.2-.6-.5-1.5-.9-1.9l.6-.9-.5-.6a4.8,4.8,0,0,1-2.9-.2l-.9-1.7-.5.7a5.2,5.2,0,0,1-2.1-3l-1.4-1-.8-1.7-.6-.3-.4-.6.3-.9a22.8,22.8,0,0,0-2.9-3.3v-.7l.4-.6a3,3,0,0,1,0-2.1,8.8,8.8,0,0,1-.6-3.6v.2c.9.1,3-1.1,3.7-1.4l.2-2.8,1.4-.9c-.2-1.1-.7-3.4-1-4.4l1-1.1a4.6,4.6,0,0,1,1.3-4.3c.5.3,1.9.7,2,1.3v1.7l1-.4.2-1.1h1.2a4,4,0,0,1-.3-1.8l-.9-.7v-.6l.8-.2c.4-.8-.1-2.3.2-3.1l.5-.3v-1l.4-.3H272c.1-1.1.5-2.9,1.6-3.3a3.1,3.1,0,0,1,1.6,1,11.7,11.7,0,0,0,3.6-3.4c.4-1.1,1.6-3.5,2.9-4.1a5.4,5.4,0,0,1,.5-2.1l-.5-1.2c.4-.7,0-1.8.5-2.6l-.2-.9.5-.3a24.9,24.9,0,0,1,1-8.9c-.1-.5-.8-2.9-.4-3.5a11.6,11.6,0,0,0-1.5-2.6v-.7a10,10,0,0,1,2.1-1c1,6.7,2.3,14.3,3.4,21C290.1,229.3,299.2,227.5,302.6,227.1Z"/>
      <path id="_05" data-name="05" class="cls-2" d="M300.8,162.9c2.8,2.2,6.1,5.6,5.9.3,1.5-.5,3.9-3.3,4.3.3,3,.9,3.7,5.1,7,6.1,1.4-.7-.6.6.5,1.1s.3,2.3,2,1.9.8,4.1-.4,3.9c-1.3-1.8-2.9,1.4-4.3,1.8-1.5-1.2-.1.8-1.1,1.2s-3.6,3.3-2.3,4.7-.4,1.8-.7,2.8a49.5,49.5,0,0,0,.2,7.7c-5.1,5-.8,8.4,2.9,12,4.2,1.1-2.9,15.3-2,18.6-2.5.6-6.2,11-5.4,12.7,3.1-2.7,2.8,1.2,2.6,5.1-.9,1.1-3.6,1.6-1.8,3.6-2,13-7.6,24.7-10.7,35.2.4,1.1,3.3-3.1,4.4-2.9-1.4,4.7-3.5,1.2-1.8,7.2.5.3.9,0,.8.8-3.2,1.8,1.3.6,2.6,1.4,5.6-4-2.9,8.4-3,9.4-4.6-.2-7.3,3.8-6.7,6.9-5.4-1.6-5.1,3.9-8.5,5.3-3,8.2-4.6-5.4-3.1-8s5.9-3.4,3.5-5.4c2.1-2.9-.6-2.9,1.1-6.2-4,2-1.6-2.4-3.8-2.5-4.7,5.2-2.6-3.3-7,2.7-1.6,1.2-2.8,2.6-4.7,3.5s-3.9.4-3.9,1.8-2.6-3.4-3.8-1.2c-5.5,5.8-16.1,16.1-24.6,17.5,2,1.7,3.7,8.1-1.1,7-.6-4.2-4.8-.3-6.3-2.3s-1.3,2.7-2.9,1.5c-6.3,4,4.9,12.4-6.3,16,.3,3,.2,5.2-3.2,4.6-2.5,1.1-1.3-2.9-2.7-1.7-5.6-3.1-4.6-7.1-10.1-3.3-3.5-3.4-13.7-2.1-17.1-8.8-8.1-2.1-10.5-13.7-15.6-19.6-1.6-3.1-2.4-3.4-4.2-.7-4.4-2.8-1.7,1.9-3.9,1.7s-6.9-5.6-7.2-.4c-6.3-3,7.6-5,.8-9.2-.8-1.7-4.1.4-3.2-2.7.7-.5,4.4-.1,4.2-1.9,1.4-2,3-1.8,3.2-4s3.1-5.4,1.4-7.9c-4-2.9-3.8-8.1-4.5-12.1s2.6-4.1.1-6.9c3.4-5.4,1.5-11.3,8.1-14.7,2.8-1.9-2.5-1.2-1.9-5.7.7-3,1.6-5.7.2-7.9s3.7-3.6,1.5-5-5.4-5.7-1.9-5.7c6.6,6.2,5.8,5.3,15.2-1.2-1.3-2.2,4.6-2.7,3-5-.7-.6,2.7-1.2,1.6-1.6-.6-2.2-.2-3.4-.6-5,1.3-2.5,1.9-3.4,3.8-.8,2.3-2.7,2-4.5,6.2-2.2,2-1.3-.2-4.5,6.4-3.4,2.1-2.1,4.6-.8,6.1.4,1.6-2.8,1.9.2,4.4.8-1.2,4.8,1.5,5.5,2.9,11,3.4,2.7,6.3,2.9,10,2.6,1.2,1.3.4,5.7,2.9,2.2,1.8-.2,3-1.7,3.6-3.6,2.8-8.2,10.5,3,13.1-4.4,1.4-4.3,11.2-.5,5.3-4.9.8-2.2,3.1-3.2,4.6-2.3,3.7.2-.2-2.2,5.7-2.2,2.4-.1-.3-5.8,3.3-2,2.3-1.2-1.1-1.8,2.5-1.6.3-.7,2.3.3,1.6,1s.7-.5.4.3c1.4.2,3,2.2,4.1,1.2,2.6-2-1.8-4.6.6-6.8-.7-.1.7-4,.5-2.2,8.2,3.8,1.3-5.3,7.9-9.1-.3-4.8,2,1.9,3.1-.2-2.1-4.6,2.9-7.5,3.5-9s1.4-.3,1.4-1.8,2.2-3.1,2.6-1.7,1-.1.7-.6c1.6-.9,1.6-7.2,5.6-4.7C298.6,165.2,298.7,163,300.8,162.9Z"/>
    </g>
  </g>
</svg>
