<svg xmlns="http://www.w3.org/2000/svg" width="500" height="500" viewBox="0 0 500 500">
  <defs>
    <style>
      .cls-1 {
        fill: none;
        stroke: #999;
        stroke-width: 0.75px;
      }

      .cls-1, .cls-2 {
        stroke-linejoin: round;
      }

      .cls-2 {
        fill: #5c98ff;
        stroke: #fff;
        stroke-linecap: round;
        stroke-width: 2px;
        opacity: 0.5;
      }
    </style>
  </defs>
  <g id="hucs">
    <g>
      <path class="cls-1" d="M334.3,256.1c22.8-1.1,47.1-2.9,69.9-4.9.4,6.7-1.1,10.8,4.5,16.2,2,3.3,1.6,9.6,4.7,12.1,2.9,29.5,5.4,60,7.9,89.5l-1.8,2.2c.9,2.3.9,4.3-1.1,6.1.2.7,2.4,2.4,2.7,2.9l.4,2.3,1.1.9c.3.6,0,4,0,4.5l1.8,4.2-.6,1.2c-1.4.9-3,2.5-2.7,4.3a6.1,6.1,0,0,0-.9,3.3l-1.6,1.6c.5,2.3-1.8,4.7-1.6,6.8l-1.1-.2-.5.9-1.3-.7.2,1.5-1.3.9.9,2.1,1.3.6c-.4,1.4-1.5,3.7-2.7,4.5.5.7.4,4.1.4,4.8l-1.8.6,1.4,1.4a4.5,4.5,0,0,0,.9,2.5c-.2.9-2.3,3.1-2.9,3.8-1.2,2.3,1.5,5,2.4,7.2l-.9.9c-2.6.3-6.2,2.7-8.7,2.9s-.5,3.4-1.2,4.6l.3,2c2,1.6,1.8,4,1.5,6.1l-.8.4c-2.1,0-4.3-2.2-6.4-2.3a12.8,12.8,0,0,0-6.7-2.7,4.2,4.2,0,0,0-3.4,3.9c-.9.5-1.6,3.2-1.8,4l.5,1.4-2.7-3.2-.3,1.2.7,1.3-.4.7-1.4-.4a10,10,0,0,1-2.3-4.6c-1.1-.6-1.8-3.1-2-4.2l-.9-.3-.4-1.8c.4-.4,2.2-2,2.2-2.5-.6-2.2-2.7-5.1-3.1-7.4,0-.7.6-2.9,0-3.4l-3.6-2.6-.9-2.1c-.9-.2-3.7-2.3-4.6-2.9l-1.7.6-2.1-1.5-.6-2c-1.2-.7-3.9-2.1-4.5-3.6l-1.2-.3a34.8,34.8,0,0,0-4.7-4.7c-.4-1.4-1.3-4.9-.2-6.3s2.4-4.7,2.7-6.3a5.8,5.8,0,0,0,1.5-2.9c-.6-1.4-.4-4.3-.2-5.7l1.4-1.3-.7-2.1-2.7-2.2c-1.3.2-4.3-.7-5.6-1.3s-2.9,4-3.6,4.2c-2.3-1.8-3.7-6.5-3-9.4-.7-.7-.9-3-.9-4.1a24.7,24.7,0,0,0-9.4-8.5c-1.8-3.2-4.5-7.2-7.4-9.3-.5-1.6-1.9-4.3-3.2-5.2s.4-2.5.6-3.3c-3.1-4.8-3.5-12.6,0-17a10.8,10.8,0,0,1,.1-4l-1-2.2,1.4-2.1c1.8-.4,5-1.3,5.9-2.9-.2-3.2.6-7.4,3.1-9.7a9.7,9.7,0,0,0-3.4-11.2,7.9,7.9,0,0,1,.5-3.7c-.4-.9.4-3.1.9-4s2.7-.2,3.4-.9a26.2,26.2,0,0,1,5.6-.9c.9-1.6,3.1-2.5,4.7-3.1l2.5-2.3c.2-1.1.5-5.2.9-6.1l2.7-2.5c.7-3.8,1.2-8.3-.4-11.9-1.6-1.4-4.3-2.5-5.9-3.9.4-4.2-3.4-6-6.3-8.1Z"/>
      <path class="cls-1" d="M413.6,428.8a4.1,4.1,0,0,1-.9-2.6l-1.5-1.4,1.8-.5c0-.9.2-4.4-.3-4.9,1.2-.7,2.3-3.1,2.7-4.5l-1.3-.5-.9-2.2,1.3-.9-.2-1.4,1.2.7.6-.9,1.1.2c0-2.4,2.3-4.5,1.6-6.9l1.6-1.6a6.3,6.3,0,0,1,.9-3.2c-.4-1.8,1.3-3.4,2.7-4.3l.5-1.3-1.8-4.1c0-.8.4-4,0-4.5l-1-.9-.4-2.4c-.5-.5-2.5-2.1-2.7-2.8,2-1.8,2-3.8,1.1-6.2l1.8-2.1c-2.5-29.5-4.9-60.3-7.9-89.6,4.8,7,12.7,1.8,17.6-2.7,15.6-1.2,34.5-4.1,50-5.7,3.9,31.4,7.4,67.9,11.3,99.8a8.1,8.1,0,0,0-1.6,2.9,5.2,5.2,0,0,1,1.4,3l-.5,1.1.4.9,2.1,1.1-.7.7.9,2-.4.9-4.5.5-4.3,4a4.4,4.4,0,0,1-2.5-1.7c-1.1-.3-3,.6-4.1,1.1s.2,4.9.7,6.7a13.2,13.2,0,0,0-2,3.2l-2,.7c-.9.6-1,4.2-1.2,4.9l-1.8,2.2-1.1-.6-1.4,1.5a17.6,17.6,0,0,1-1.5,4.4,8.1,8.1,0,0,1-.7,5.1l-1.6.2-.9.9-1.1-.9a6.5,6.5,0,0,1-4.3-1.3,16.3,16.3,0,0,0-1.4-4.9l-2,.2-.2.9,1.6,1.1-1.4.7-1.8-.5-.6.9.9,1.4v.9l-1.4.4-.5,1.6.5,1.6-.4.9-1.4.2v2.3l-1.3.4v-2l-2.2.4-2.2-2.9-1.2.4c-3.6,3.6-4.5,1-5.6,7.9H438l-.5-1.3c-3.1-.3-5.4-3.8-8.6-3.6l-.9.7h-1.1l-1.3-1.4-.7,1.4.5,2-.9,1.8-1.2-.3v-1.5l-.7-.7-3.1.9-1.6-1.3-1.1.8a5,5,0,0,0,.5,2.7l-.3,1.6Z"/>
      <path class="cls-1" d="M317.9,219.4v1.8a5.2,5.2,0,0,1,2,3.4L322,227c.7,1.6-1.4,5.2-2.1,6.6,0,4.3,2.8,9.7,3.6,13.9,4.5,3.6,10.8,2.3,10.8,10,2.8,2.2,6.6,4,6.3,8.1,1.6,1.5,4.3,2.5,5.9,4,1.6,3.6,1.1,8.1.3,11.9l-2.7,2.5c-.3.9-.7,5.2-.8,6.1l-2.6,2.3c-1.6.6-3.7,1.5-4.6,3.1a50.3,50.3,0,0,0-5.6.9c-.7.7-2.5.9-3.4.9s-1.3,2.9-.9,3.9a8,8,0,0,0-.6,3.8,9.5,9.5,0,0,1,3.4,11.2c-2.5,2.3-3,6.4-3,9.7-.9,1.6-4.3,2.5-5.9,2.9l-1.5,2.1,1.1,2.2a8.5,8.5,0,0,0-.2,3.9l-.7.8-2-1.5a5.4,5.4,0,0,0-2.7-3.4l-.9-2.2H312l-.9-1.9c-33.9,1.9-68.9,3.7-102.9,2.7-.6-1.7-2.7-3.5-3.1-5.3s.9-2.8.4-3.9a15.8,15.8,0,0,0,.9-3.6c-.7-1.5-2.2-4.1-.9-5.6-.7-2.1-1.8-5.9-.6-8.3l-1-.9a24.2,24.2,0,0,0-.6-4.5l-1.2-1-.4-1.8-1.8-.8.9-1.9-1.8-1.3c0-1.1,0-3.6.9-4.3l-.2-2.9c-1-1.4-1.9-3.6-1.4-5.4l-.7-1.2h-1.1l-.2-1.1-1.2-1.3c-.2-.9-.6-2.5-1.5-3a3.3,3.3,0,0,1,.4-2.4,14.5,14.5,0,0,0-2.2-4.5c-.2-1.6.7-3.4.4-5,0,0-1.1-.5-1.1-.4s-.9-2.7-.9-3.6-2.3-4.3-3.2-5c-.4-2.7,2.5-5.8,2.1-8.4l.6-.8v-2.5l-.4-.7,1.6-.9c.6-1.8,0-4.5-.5-6.3l-2.2-.7-.3-1.8c.9-.6,1.4-2.7,1.6-3.6a13,13,0,0,1-2.2-2.9l.4-1.8C231,222.5,275.1,220.5,317.9,219.4Z"/>
      <path class="cls-1" d="M191.8,222.5c-.3-20.5.9-50-.3-70.4l-5.4-3.4c-.6-2.1-3.1-4.8-3.6-7l.3-1.4c4.3-2.4,7.2-7.4,6.1-12.2l.8-3.5c-1.3-4.6-.8-9.5-4-13.6-.2-1.7-.7-5.6-1.6-7s.2-8.1.5-10.8L183,90.1c.5-2.7,0-7.7-.2-10.4.6-7.6-.2-16.4-3.9-23-.4-2.2-1.3-7.8-2.5-9.6-.2-5.2.3-11.9-.4-16.9l1.4-3c-.7-2.7-2.1-6.2-1.9-8.9-.8-.9-.9-2.8-.8-3.9,11.9,0,33.8.5,45.7-.2V0l2.9.9,1.8-.7A4.4,4.4,0,0,0,228,1.6c.7,7,3.2,14.4,3.2,21.6a22.2,22.2,0,0,0,5,2.7l1.7-.7,2.7.5.3,1.5c1.1-.2,7.4.1,8.7.1l1.2,1.5c0,.9-.2,2.7.5,3.4l7.1-2.2.9-1.8c3-2.1,6.8-.9,10-1.4,1.8,1.6,5.1,3.1,7.6,2.5l.2,2-1.3.5-.4,1.7h4.2l1.2,1.4c-.5,1.8,1.1,5,2,6.6l2-.9c-.2-.9-.4-2.8.4-3.6s4.1-.7,4.6-.3l1.3,1.4.4,2.5,2.1.4.7.9,3.3.7.3,2.2,1.6,1.1h1.3l.4,1.2,2.1-.3,1.1.5c2-.4,4.3-1.4,5.4-3.2s3.6-2.4,4.5-4l2.5-.7.7,2.3,1.3.7.4,2,.7.4,2.8-1.1c1.5,1.1,4.9.4,6.3,0a4.1,4.1,0,0,0,3.1-.4l2.5.4a16.8,16.8,0,0,0,5.2,4l2-1.3,6.3.2a9.2,9.2,0,0,0-4,3c-1.9,2-7.1,4.5-9.5,6.2-4.3,1.4-9.9,4.4-13.1,7.7a6.2,6.2,0,0,0-3.1,2.7c-4.6,3.9-8.1,10.6-11.8,15.3-2.7,2.1-7.6,6.4-9.6,9.3s-7.7,5.4-8.4,9.7l-1.8.6c.3,6.1,1.2,16,.9,22.1l-1.3,1.8h-1.8l-.5,1.3-1.8.5c-2,2.7-6.1,3-5.4,7.5a9.2,9.2,0,0,1-2.4,3.1c-.1.9-.8,3.6-.3,4.5l3,.5c.4.8,2.7,4.4,2.7,5.1a11.3,11.3,0,0,0-1.9,5l-.6.4.6,2.5-.6.7a8.2,8.2,0,0,1-.2,4.9l1.1,4.5a4.4,4.4,0,0,0,.2,3.2,7,7,0,0,0-.7,4.3,10.9,10.9,0,0,0,3,2.3l2.2,3.3c3.6,1.1,6.5,1.8,8.3,5.4,2.7.5,7,2,8.4,4.5a24.1,24.1,0,0,0,2.5,5.7c2.2,1.1,4.7,3.8,6.7,5.1s4.3,2.1,4.7,3.6a4.5,4.5,0,0,1,1.8,2.7l.7.3c.7,1.6.4,4.2,0,6l.9,2.1-.4,2.9.9,2.2C276.3,220.7,233.5,221.9,191.8,222.5Z"/>
      <path class="cls-1" d="M208.5,331.5c34,1,69.1-.8,102.9-2.7l.9,1.9h1.3l.9,2.2a6.6,6.6,0,0,1,2.7,3.4l2,1.5c-2.4,5-2.4,11.6.7,16.3-.4.7-1.1,2.5-.6,3.3s2.7,3.7,3.3,5.2c3,2.1,5.7,6.1,7.3,9.3a24,24,0,0,1,9.4,8.5c0,.9,0,3.2.9,4.1-.7,2.7.7,7.6,3.1,9.4.7,0,3.2-3.6,3.5-4.2s4.4,1.5,5.6,1.3l2.7,2.1.7,2.2-1.4,1.3a18.2,18.2,0,0,0,.2,5.7,5.1,5.1,0,0,1-1.5,2.9c-.3,1.6-1.2,5.2-2.7,6.3s-.1,4.8.2,6.3a34.8,34.8,0,0,1,4.7,4.7l1.3.3c.5,1.5,3.2,2.9,4.5,3.6l.5,2,2.2,1.4,1.6-.5c.9.5,3.6,2.7,4.6,2.9l.9,2.1,3.6,2.5c.6.6.2,2.9,0,3.5.4,2.3,2.6,5.2,3.1,7.3,0,.6-1.8,2.2-2.2,2.6l.4,1.8.9.3c.2,1.1.9,3.6,2,4.1a11.5,11.5,0,0,0,2.3,4.7l1.5.4.3-.7-.7-1.3.4-1.3,2.7,3.3c.7-.2,1.8.7,2.3,1.1l.2,2.8c-.4.8-1.5,2.4-1.3,3.1l1.1.7c.5,2.2-1.6,5.8-.9,7.9l-1.4.8c-.8,0-2.7-2.2-3.1-2.6-.4,1.5-1.6,6-2.7,7l-.7-.5c0-.7.2-2.7-.2-3.4l-1.1-.5-1.1,1.4,1.3,1.1a4.5,4.5,0,0,0-.7,3l1.2,1.8-.7,1.1-.7-.2-1.4.7,1.6,1.7-.4,1.2-2.5-.5-.2,1.8,1.8.9c.6,1.1-.3,3.8-.7,4.8H374l-.7,2.2-6.7.4h-.1c-1.7,0-9.6.8-11.2.6.9-1.6,3.1-5.8,4.7-6.9v-.9l1.4-.7.4-2.1.7-.6a16.7,16.7,0,0,0,.4-3.9l-1.7-.6-.5-2.5-1.1-1.1c-30.4,1.8-62,3.4-92.4,4.3H267c-3.2.3-9.7.1-13,.5v-.2H239.3c-.9-32.5-1.3-66.3-.7-98.9l-2.4-2.1-1.2.7-2.2-1.3c-.5-1.2-2.7-5-2.1-6.5l-1.3-.5c-.5-2.2-3-3.6-4.5-5.2,0-1.8,2-5.4,3.4-6.5v-1.4l2.9-.2c-.7-.9-.7-3.1-.7-4.1L229,359l-.7-2.2-1.8,1.8-1.9.6c-2.4-2.4-5.1-5.4-7.2-7.8a7.4,7.4,0,0,0-.4-3.9l-1.3-1.1-.3-2-1.3-.4-.7-1.2-1.8-.7c.9-3.1-1.3-6.5-3.1-8.8v-1.8Z"/>
      <path class="cls-1" d="M191.3,261h-1.6l-1.7-1.8-.7.3-.7-2.1c-1.6-.4-2.2-2.6-2.5-4l-1.5-.4-.3-.9h-1.6l-1.1-.9h-1.4l-.4-.9c-1.8.2-4.7-1.6-5.9-2.7v-1l-3.1-.8-1.8.9c-1.4-.7-4.9,0-6.1.4l-1.1-.9-.9.5-1.8-.5-.7.4c-.2,1-1.6,2.3-2.5,3-3.1-.5-5.2-3.8-7.8-5.2a6.8,6.8,0,0,1-5-4.3c-44.4-1.4-91.5-3.2-135.6-8.1,2.9-35.2,6.8-75.2,9.7-110.4,57,4.7,117.1,7.7,174.1,7.9.7,3.9-3.1,8.3-6.3,10.1l-.4,1.4c.6,2.2,3.1,4.9,3.6,7a41.3,41.3,0,0,1,5.4,3.4c1.3,20.5,0,49.8.4,70.3h-3.8l-.3,1.8c.1.7,1.6,2.1,2.1,2.8s-.5,3.1-1.6,3.6l.4,1.8,2.1.8a12.2,12.2,0,0,1,.6,6.3l-1.7.9.4.7v2.5l-.5.7c.3,2.7-2.6,5.6-2.2,8.5.9.7,2.7,3.9,3.2,5S190.7,260.2,191.3,261Z"/>
      <path class="cls-1" d="M404.2,251.2c-22.6,2-47.1,3.8-69.9,4.9-.9-6.3-6.9-5.4-10.8-8.8-.6-4.3-3.6-9.5-3.6-13.9.7-1.4,2.8-5,2.1-6.6l-2.1-2.4a5.8,5.8,0,0,0-2-3.4,6.4,6.4,0,0,0-1.1-3.7l.4-2.9-.9-2.2c.3-1.6.7-4.3,0-5.9l-.7-.4a6.1,6.1,0,0,0-1.8-2.7c-.4-1.6-3.5-3-4.7-3.6s-4.3-4.1-6.7-5-2.1-4.3-2.5-5.8-5.7-3.9-8.4-4.5c-1.8-3.6-4.7-4.3-8.3-5.4l-2.2-3.2a13.3,13.3,0,0,1-3-2.3c0-1.1,0-3.4.7-4.3a4.7,4.7,0,0,1-.2-3.3l-1.1-4.5c.6-1.2.4-3.6.2-4.8l.5-.8-.5-2.5.5-.3a12.7,12.7,0,0,1,2-5.1c0-.7-2.3-4.5-2.7-5l-3-.5c-.6-.9.1-3.6.3-4.5a13.6,13.6,0,0,0,2.4-3.1c-.8-4.5,3.4-4.9,5.4-7.5l1.8-.6.5-1.2h1.8l1.3-1.8c.3-6.2-.6-16.1-.9-22.2l1.8-.5A6.9,6.9,0,0,1,290,98v2l.6.2.9-2c3.2,3.8,7.7,2.3,10.9-.5,2.9,0,6.9-1.8,8.5-4.4l1.8.2c2.3-1.1,4.8-3.8,7.3-4.3l2,1.8-.2,2.7-1.2,1.4a16.3,16.3,0,0,0-.2,4.4l-1.8,2.7,1.4.7,1.5-1.8a4.4,4.4,0,0,0,2.5-1.6l3.2,2.3c.9.4,3.8,1.1,4.2,2l.9-.4.5,1.1,2.4.4c1,1.6,2.3,3.9,2.3,5.9,9.2,4.3,21.9,3.4,30.2,9.3a10.8,10.8,0,0,1,4.7,1.1,5.4,5.4,0,0,1,2.7-1.1c1.2.9,3.6.6,4.8,1.7h3.8a5.9,5.9,0,0,1,2.2,2.7l-.9,1.5.7,1.6,1.4.5,1.3-.3c1.4,1,4.3,1.2,5,3.4l-.5,1.1.9,1.6a6.9,6.9,0,0,0,0,4.5l-1.5,4.5.9,1.1c.9-.2,3.3-.8,3.8-1.5l.7,1.1c-.1,2-1.4,4.3-1.2,6.5s2.5,2.7,3.9,2.8v3.5a29.1,29.1,0,0,0-4.2,2.5,9.1,9.1,0,0,1-2.3,5.4v1.4l-1.3,1.8c0,.9.2,2.7-.5,3.3l.2,1.4-.8,1.4,1.3.8,1.4-.2.6-2.5a4.5,4.5,0,0,1,3-1.8l2.6-7.4c1.6-.4,3.7-1.1,4.6-2.5l1.3,1.8.4-1.3c-2-4,3-7.6,1.9-11.5h2.2l.7-1.4-.3-1.7,1-.7v-1.1l2.5.2v1.5c-1.2,1.2-1.6,3.7-1.2,5.5l-1.4,1.5c-.2,2.1-2,4.3-1.5,6.4-3,3.1-2.5,8.3-4.3,11.7-2.3,4.9-1.3,10.6-.7,15.5a12.4,12.4,0,0,1-2.7,2.9,4.1,4.1,0,0,0-.2,2.7l-.7,1.4.3,2c-1.9,3.9,2.4,9-.3,12.9.2,3.6-1.5,8.5-2.4,11.7a43.8,43.8,0,0,0,.2,6.3,11.2,11.2,0,0,1,.9,5.4c2.2,2.2.7,6.5,3.4,8.1C404.6,243.5,402.6,247.8,404.2,251.2Z"/>
      <path id="_07" data-name="07" class="cls-2" d="M244,58.9c-.9,7.9,8.8,6.2,10.7,12.4,9.2-1,9-10.7,10.3-8.6,3.6,2.7,2.3-1.6,5,.2.6-2.7,1.3,1.6,2.4,2,2.7,2.7,1.8,5,1.2,9.7s-4.8,8.8-1.1,12.2c-4.3,6.1-1.6,6.8,6.2,7.9,2.5-.9,1.6,9.2,5.7,3.6,2.5,1.8-3.9,9.9,1.5,11,5.7,2.7,5.2,3.4,8.9.4,2.7,2.5,6.9-5.3,9.6-.4,1.2-.9.9,2.2,2.1,0,2.9-6.8,9.4-.4,8.5,3.8.9,4.1,4.7-2.4,6.3-.7,2.7,5.3,7.5,1,7.5,3.5s7.2-4.6,6.9-3.4c3.6,2.5,1.2-.9,3.9,0,4.7,2.2,1.5-2.1,5.1-1.9,7,.7,2.5,4.4,10.2,4.3,3.6-2.2,4.2,5,5.4,0-.7-.9,1.5.1,1.1-1.1s1.2.2,1.6,0,2-.6,2.5,0c1.3-2.5.7,1.2,2.9,0,.2,1.2-1.6,3.2.4,1.6.9.2-.9.9.9.9s-2.4,3.8-1.7,4.3-.5,4.3,1.7,3.4-1.3,2.9.5,3.8c-11.9,28.4,4.7,11,1.4,22.1-9.7,10.1-9,22.3-7.3,36.9-2.5,8.6-14.8,33.3,7.7,25,11.9-9.5,5.9-11.7,19.8-.2,1.8,8.3,5,10.3,6.5,17.3,1.9,4.5.7,11.9,4.3,15.6,2.3-3.2,11.1,28.5,12.9,34.7-1.1,3.3,9,1.7,8.3,3.1-3.6,2.2-6.5,7.6-.4,8.6,2.4-.3,3.6-5.5,6.7-2.1,2.2-.6-2.3-5.4.2-4.5s.5-.9,1.1-1.3c3.7-.9,9.5-9.9,12.5-8.6s1.7-4.1,2.4-.5c-1.1,2.5.7,2.8,2,3.9-.9,2.5-.2,2.3,1.6,3.1.7-1.8,8.6,3.4,5.4,3s3.2.6,1.6,2.4c7.5,5.5-6.8-.8-6.3,9-4.3-2.4-6.3-2.7-9.4,0,0,9.1-5-4.7-6.3,3.2-3,2,0,5.7-.9,9,3.3,2.1-5,1.6-1.2,4.5-2.2,1.2-2.7,5-6.5,4.3,2.2,5.4-10.4,8.4-12.6,12.2-3.6-1.1-9-2.3-9.9-6.3.4-6.4-9.1,1.8.8,7.6,4.5,4.3-6,5.2-.8,11.3-5.2,23.4,9.2,14.2-.1,21.2-5.6,3.1-13.7,23.1-8.9,26.1-6.6,10.3,1.7,22,5.3,30.9-3.5,3.6-.8,11.4-5.1,12.6-2,3.8-3.9,6.3-7.9,5.8-1.1.9-3.2,5.2-.2,3.6,4,.9,5.8,3.9,7.8,5.6-1.3.5-.9,3.6-1.8,2.1-7.9,5.2-5.6,5.8-3.6,11.2-12.4,2-1.8-6.3-11.9-6.3-3.8-.4,5.4-4.9-1.8-2.7-5.4-.2-6.8,7-11.9,4.8-1.2-1-3,1.3-4.3,1.1-7.9-2.7-.5-12.2,1.1-17.8-2.3-13.3-9.4-10.2-15.1-1.8-1.8-.2-3.4-2-3.6-2-1.8,1.8-5,0-6.3,3.1,1.1,3.9-5.9.4-4.5,4.3-20.1-.7-7.9,1.4-13.5-15.5-.7-10.8,3.4-17.6,15.3-18.5,6.5-1.4,12-6.6,18.3-8.6,1.1-1.5,3.3-7.4,6-6.5.3,1.1.2-.5.3-.9,4.5-2,0-.7-3.4-3.6-4.7,4.3-6.6,9.7-14.2,8.8-5.7-4.7-12.9-3.2-17.8-10.4-2.5-9-6.3-1.1-9.5-1.1-1.3-.5-2.2-2.5-4.2-1.6-23-13-3.4-56.8-27.3-68.5-6.8-7.2-17.4,6.6-22.1-4-6.3-5.9-14.8-11-19.4-18.3,1.2-9-13.4-16.2-9-24.3a187.3,187.3,0,0,0-7.4-19.8c4.3,6.5-.7-3.8,3.4-5.7,5.4-.2,5.4-6.3,7.2-10.5s-3.4-10-3.8-12.7c-3.6-1.1.9-8.5-5.6-6.2-2.8-1-4.3.4-6.6.6s-8.5-5.2-8.6-8.1c1.2-1.1.7-3.8-.6-3.8-7-4.7-12.7-17.3-18.7-25.2,3.4-5.2-3-14.5-7.2-18.5.6-7.7-5.2-17.4-5.6-23.2-6.2.4.8-10.6,3.3-7.2,3.6-.3.2,9.4,5.2,10.1.9,1.6-.7,2.7,1.3,1.1,10.8-2.7,2.5,9.1,14,3.7,1.8-5.4,10.8-8.1,6.3-13.6,2.3-11-7.7-9.6,4.1-17.3-1.4,6.3,6.7,9,8.1,2.5-2.5-5.5-9,.4,1.1-8.8-.4-3.2,2-5-2-6.8.6-2.5,2.2-7.6-.7-8.5-1.4-2.8,2.9-6.4.5-10.4.2-2.5,5.4-1.3,3.5-5.8,3.4-1.4-1.5-7,.5-7.5,3.6-3.8,5.2,1.8,5.6-5.9C232.8,64.7,238.9,61.8,244,58.9Z"/>
    </g>
  </g>
</svg>
