<svg xmlns="http://www.w3.org/2000/svg" width="500" height="500" viewBox="0 0 500 500">
  <defs>
    <style>
      .cls-1 {
        fill: none;
        stroke: #999;
        stroke-width: 0.75px;
      }

      .cls-1, .cls-2 {
        stroke-linejoin: round;
      }

      .cls-2 {
        fill: #5c98ff;
        stroke: #fff;
        stroke-linecap: round;
        stroke-width: 2px;
        opacity: 0.5;
      }
    </style>
  </defs>
  <g id="hucs">
    <g>
      <path class="cls-1" d="M111.8,357.6c0-4.9-.4-14.8-.6-19.8l-1-.9-1.8.6-1.1-.9h-.8l-.6,1.2-1-.3-.7.7h-2.5l-.7-1.1h-.7L99,334.6c.4-34.1,1.5-70.7-4.9-104.4h14.5c3.2-.3,9.5-.1,12.7-.5l.2.2c29.9-.9,61-2.5,90.8-4.3l1.1,1.1.5,2.5,1.6.5a12.9,12.9,0,0,1-.3,3.9l-.7.5-.4,2.1-1.4.8v.8c-1.6.9-3.9,5.2-4.6,6.8,1.4.1,9.4-.4,11-.6v-.2l6.6-.3.2.7,1.6,1.4v1.2l-2,.6.4,2.5a10.2,10.2,0,0,0-2.5,2.6l-2.8,1.2v1.6l.7.9,1.5.4a14.5,14.5,0,0,0-1.1,4.9l-1.8.4c-.2,1-.5,3.5-1.4,4l-1-.5-.2-1.6h-.9l-.4,1.3-1.2.8v1.1l1.1.5,1-1c.4,1.6.9,6,1.8,7.2l-.4,1.3.4.8-.9,2-2.5.3-.5,1.6-1.4.4-.2,1.4,1.1,2.3a7.8,7.8,0,0,1-4.3,3.7,7.1,7.1,0,0,1-1,3.2l-2-.2v1.1l1.4.5.6,2.1-2-.9-1,1.8c.3.5,1.4,2.1,1.2,2.8l-1.1,1.8.4,2.5-1.1,1.7a7.6,7.6,0,0,1-3.5.9c-.5.6,0,2.5.2,3.2l-1.6.4-1.1,1.7h-1.7l-.2,1.3,2.3.5v1.4l-2.5-.5-1.6.7,1.6,1.6c.4,1.4-.9,3.9-1.9,4.8l-1.1-1.3-.7,1.3.7,2.1c-.7,1.2.3,3-.4,4.2l-1.7,1.6v1.2l1.6.4.3,1.1-2.1.3-1.4-1.2-.9.5a10.1,10.1,0,0,0,1.8,3.2l-.2.7-2,1.2.9,2.2-.5,1.7.7.6,1.1-1.6,1,.7-1.4,1.7.2,1.3,1-.6.8-1.2,1,.4c-.2.8-1.8,2.1-2.5,2.6v.7l1.4,3,1.7-1.4.4,1.2a7.6,7.6,0,0,0-1.1,3.2l-1,.9H192l-.3,1.1,1.4,1.4c.2.9-.7,2.3-1.3,3C165.9,356.9,137.2,358.3,111.8,357.6Z"/>
      <path class="cls-1" d="M187.1,4.8c22.4-1.1,46.3-2.9,68.7-4.8.4,6.5-1,10.6,4.5,15.9,1.9,3.2,1.5,9.4,4.5,11.9,2.9,28.9,5.4,59,7.8,88l-1.7,2.1c.8,2.3.8,4.2-1.1,6,.2.7,2.3,2.3,2.7,2.8l.3,2.3,1.1.9c.3.6,0,3.9,0,4.4l1.7,4.1-.5,1.2c-1.4.9-3,2.5-2.6,4.3s-.9,2.5-.9,3.2l-1.6,1.6c.5,2.3-1.8,4.6-1.6,6.7l-1.1-.2-.5.9-1.2-.7v1.4l-1.2.9.9,2.1,1.2.5c-.3,1.4-1.4,3.7-2.6,4.5.5.7.3,4,.3,4.7l-1.7.6,1.4,1.4a4.1,4.1,0,0,0,.8,2.4c-.1.9-2.2,3-2.8,3.8-1.2,2.3,1.4,4.9,2.3,7l-.9.9c-2.4.4-6,2.7-8.5,2.8s-.5,3.4-1.2,4.6l.4,2c1.9,1.6,1.7,3.9,1.4,6l-.7.3c-2.1,0-4.3-2.1-6.4-2.3a12.8,12.8,0,0,0-6.5-2.6,4.2,4.2,0,0,0-3.4,3.9c-.9.5-1.6,3.2-1.8,3.9l.6,1.4-2.7-3.2-.3,1.2.7,1.3-.4.7-1.4-.4a11.1,11.1,0,0,1-2.3-4.6c-1.1-.5-1.8-3-1.9-4l-.9-.4-.4-1.8c.4-.3,2.1-1.9,2.1-2.4-.5-2.1-2.6-5-3-7.3,0-.7.6-2.8,0-3.3l-3.5-2.5-.9-2.1c-.9-.2-3.7-2.3-4.6-2.9l-1.6.6-2.1-1.4-.5-2c-1.3-.7-3.9-2.1-4.4-3.5l-1.3-.4a33.3,33.3,0,0,0-4.6-4.6c-.3-1.4-1.2-4.7-.1-6.2s2.3-4.6,2.6-6.1,1.4-2,1.4-2.9-.3-4.2-.2-5.6l1.5-1.3-.7-2.1-2.7-2.1c-1.2.2-4.2-.7-5.5-1.2s-2.8,3.8-3.5,4c-2.3-1.7-3.7-6.3-3-9.2-.7-.7-.9-3-.9-4a22.2,22.2,0,0,0-9.2-8.3c-1.8-3.2-4.4-7.1-7.2-9.2-.6-1.6-2-4.3-3.2-5.2s.3-2.4.5-3.1c-3-4.8-3.4-12.4,0-16.8a8.5,8.5,0,0,1,.2-3.9l-1.1-2.2,1.4-2.1c1.8-.3,5-1.2,5.9-2.8-.2-3.2.5-7.2,3-9.5a9.4,9.4,0,0,0-3.4-11,9.5,9.5,0,0,1,.5-3.7c-.3-.9.4-3,.9-3.9s2.7-.2,3.4-.9a31.6,31.6,0,0,1,5.5-.9c.9-1.6,3-2.5,4.6-3l2.4-2.3c.2-1,.6-5.1.9-6l2.7-2.5c.7-3.7,1.2-8.1-.4-11.6-1.6-1.4-4.2-2.5-5.8-3.9.3-4.1-3.4-5.9-6.2-8Z"/>
      <path class="cls-1" d="M402.7,134.7a14.3,14.3,0,0,0,1.1,5.8,5,5,0,0,0,0,3.4l-.7.9.2,1.2c1.4,1.4,3.7,3.5,4.6,5.3l-.4,1.4.5,1.1,1.1.3,1.2,2.9,2.3,1.6c.2,1.7,2.2,3.9,3.4,4.7l.9-1,1.4,2.8a8.8,8.8,0,0,0,4.6.2c-1.8,3.2-6.2,7.8-7.8,10.9l-5.3,3.2c.2.6-3.7,3.7-4.1,3.9l.4,3a9.3,9.3,0,0,1-3,2l-.5.8a6.5,6.5,0,0,1,.1,3.1c-1.2,1.4-3.9,1.9-5.3,3l-.3,3c-1.6.3-5.7,3-6.9,3.8a17.9,17.9,0,0,0-7.3,4.5c-17.5,2.6-37.3,2.3-54.8,5.1-6.2.7-14.8-.5-20.6,1.8-10.1-.2-24.1,2.8-34.3,3l-.6-.9H267a19.8,19.8,0,0,1,.9,6c-10.7,1.2-25.3,2.1-35.9,3l1.6-5.1c.5.3,2.4,2.4,3,2.4l1.4-.7c-.6-2.1,1.6-5.6.9-7.7l-1.1-.7c-.2-.9.9-2.5,1.2-3v-2.9c-.6-.5-1.6-1.2-2.3-1l-.6-1.5c.4-.8.9-3.5,1.8-3.8a4.2,4.2,0,0,1,3.4-3.9c1.9,0,5.1,1.6,6.5,2.6s4.2,2.1,6.4,2.3l.7-.3c.5-2.3.5-4.5-1.4-6l-.4-2c.9-1.2.2-3.3,1.2-4.6,2.7-.2,6.1-2.5,8.5-2.8l.9-.9c-.7-2.1-3.5-4.6-2.3-7.1.5-.7,2.7-2.8,2.8-3.7l2.7-.2.3-1.5a3.9,3.9,0,0,1-.5-2.7l1.1-.7,1.6,1.2,3-.9.7.8v1.4l1.2.3.9-1.7-.5-2,.7-1.4,1.2,1.4h1.1l.9-.7c3.1-.2,5.4,3.2,8.4,3.5l.6,1.3h1c1.1-6.7,2-4.1,5.5-7.8l1.3-.4,2.1,2.9,2.1-.4.2,2,1.2-.4v-2.3l1.4-.2.4-.8-.6-1.6.6-1.6,1.4-.4v-.9l-.9-1.4.5-.9,1.8.6,1.4-.7-1.6-1.1.2-.9,2-.2a26.4,26.4,0,0,1,1.4,4.8,5.7,5.7,0,0,0,4.2,1.2l1.1.9.9-.9h1.5a8.6,8.6,0,0,0,.7-5c.4-.9,1.5-3.3,1.5-4.4l1.4-1.4,1,.5,1.8-2.1c.2-.9.5-4.2,1.2-4.8l2-.7a10.4,10.4,0,0,1,1.9-3.2c-.5-1.7-1.9-4.7-.7-6.5s2.9-1.4,4.1-1.1a3.4,3.4,0,0,0,2.5,1.6l4.2-3.9,4.4-.5.4-.9-.9-1.9.7-.7-2.1-1.1-.4-.9.6-1a4.4,4.4,0,0,0-1.5-3,4.5,4.5,0,0,1,3.4-3.6c.5.7,2.5,1.3,3.4,1.6s2.8-1.4,3.5-1.9l1.2.3.4,1.1c3,1,5.8,5.3,5.8,8.5,1.8.7,5.1,1.2,6.9.3s3.2,1.4,3.7,2.5a7.1,7.1,0,0,0,4.6,1.9l1.1-1.9,2.3-.9c1.8.2,5.1,1.3,6.3,2.7a8.2,8.2,0,0,1,3.9-1.3l.7-1.7,4.3-3.4h.9a27.2,27.2,0,0,1,1.9,5,16.4,16.4,0,0,0,3.9,1.4C400.1,131.2,402,133.5,402.7,134.7Z"/>
      <path class="cls-1" d="M111.8,357.6c25.4.7,54.2-.7,79.9-1.4l-.6.7v1.9l1.1,1.1c.7-.3,1.4-1.6,1.8-2.1l1,.5c-.7,1.4-2.5,4.8-1.6,6.4l.9.5h1.3v1.4l-1.8.9c-.4.4-.2,2.3-.2,2.8l2.5-.8h.9v1.3l-1.1,1.2,2,1.8-.6,1-1.9-1.7-.6,1,.6,1.1,2.1.9.4,2.3a10.5,10.5,0,0,0,3.1,1.7,11,11,0,0,0-1.2,3.9c-.2.4-5.5.9-5.8.9v2.3l2,.7,1.9-1.6.4-1,1.6.7c-.4.5-2.3,3.5-2.9,3.7h-1.7l1,1.9-1.7,1.3a16.1,16.1,0,0,1-2,3.3l.2,2-2.3-.4-1.1.7V400l2,.7-.9,1.1h-1.2a6,6,0,0,0-1.1,4.2l-1.8-.3-.3,1.4h1.6v1.6l-2,.9v1.9l1.4,2-.2,1-2.1-.7-.2,2,1.1,1.2v1.9l-.9.8h-2a6,6,0,0,1,.7,4.4l1.4,2.8-1.4,1.8.4.9c16.1-.8,37.3-2.2,53.2-3.2l.9,1.4a15.9,15.9,0,0,0-1.3,5.3c-.1.9-1.4,4.6-1,5.5l.9.5.7,3.5c1.7,1.4,4,4.1,4,6.4l.9,1.1a6,6,0,0,0,2.9,5.6c-1.8.2-6.4-.7-8-1.8H236l-1.2-.8h-3l-.4-1.6a4.5,4.5,0,0,1-2.1-1.8,9.1,9.1,0,0,0-4.9-.3c-.6.7-1.6,2.6-2.5,2.8l-.2,1.6-1.9,2.4a5,5,0,0,0,.3,3.6c3.9,1.7,11.7,3.2,14.5-.9l.4-1.6,1.4-.2.2,1.1,1.6.2.5-1.8,1.6.5,1.2-.7-.3,2.5-.9.7.2,1.2-2-.5-1.4.7-.5,2.3.8,1.1,2.3.7,1.6,1.9h1.3l1.4-1.4a19.2,19.2,0,0,1,.5-4.1l1.8-1.4v-1c3.2,1.2,6-.4,7.4-3.2l.7,2.3,1.4.5-1.2,2,.4,2.6,1.2.2v1.2l-3,1.4-.9,2.5-2.5.4a4.8,4.8,0,0,0-.7,3.7l-.9.7-1.4-.2-.7,1.6-1.4.5-.5,1.1c.3,1.8,1.6,4.6,3.1,5.5v1.2l.5.5a5.6,5.6,0,0,1,5.5,1.3v1.6l.5.3,1.6-.5.5.7,1.1-.5.2,1.2h.9l.5,1.4H262l.4,1.3-1.1.5,1.1,1.6-.7,1-1.4-.5-1.5.4a5.1,5.1,0,0,0,.4,3.2l-.9.5c-.9-.4-1.6-2.3-1.9-3l-1.3.3c-.3,1.1-1.6,3.7-2.6,4.4l-.9-1.2L253,496l.4-2.1-3.4-2.1a7.3,7.3,0,0,0-1.8-3.2l-.9.9a8.3,8.3,0,0,0-3.5-1.4l-.7-1.8-.7.7-3.9-.3a11,11,0,0,1-.9-3.9,6.7,6.7,0,0,0-4.4-.7l-1.2-.9-.4,1,.7,1.4-.5,1.3.7,1.6-1.2,1v1.4l1.6,1.6c-.5.6-1.7,2.5-2.4,2.7s-2.5,2.8-3.9,3l-.7-3a6.3,6.3,0,0,1-2.2-3.5l-1.2-.2-1.4,3-1.6-.2a4.4,4.4,0,0,0-1.1-3l-1.7-.2-.7,1.3.3,1.2a5.3,5.3,0,0,0-2.6,1.8l-.4,2.1c-.9-.2-3,1.1-3.7,1.4s-3.7-2.6-4.4-3.4a16.6,16.6,0,0,1-4.6-.5c-1.1-1.6-.5-4.6-2-5.8l-1.6-.5-.5-1.5h-1.2l-.4-1.6-1.6-.2a2.9,2.9,0,0,0-2.3-.9l-1.2-1.1-2.1,1.3-.6-.4.4-2.1-1.1-1.6-2.6.2c.2-1.1.7-3.7,1.6-4.2a5.6,5.6,0,0,0-3.4.1,10.8,10.8,0,0,0-4,1.1l-.8-.4v-1.6l.9-.7v-1.2a9.5,9.5,0,0,1-4.1.5l-.5,1.4a15.6,15.6,0,0,0-3.4,2.3l-.4-1.2-1.7.9,1.2,1.6h1.4v2.1l1.8.2-.2,1.4c-1.7.2-4.9.7-6.3,1.9-3-.5-8.2-.3-11-1.4l-7.1-3a8.4,8.4,0,0,0-4.9-2.1l-.7-.9-3.2-.7c-.9.2-3.4.7-4.3.2l-.7.3c-4.4,0-9.9.6-13.7,2.7a10.7,10.7,0,0,0-2.5-2.3l.7-2c2.3-1.5,3.5-6,5.5-7.9l-.4-.9c.7-1.1,1.1-4.4,1.2-5.6l-2.4-3.1v-2.4l.8-.7c.8-2.2-1.6-5.3.7-7.1v-1.4a34.2,34.2,0,0,0,3.7-8.5l-.4-.7.7-2-1-1.5,1.2-2c-1.1-1.2-.7-4.2-.5-5.6h-.9l-1.1-.9v-.8a10.2,10.2,0,0,0-2.6-2.9l1-2.1a5.1,5.1,0,0,1-1.7-2.8l-1.1-.5.2-2-1.4-.3-1.4-2.2.5-1.4-.5-1.2,1-1.4c-.3-.6-1.2-2-1-2.7l-1.3-1.4v-1.1c-.9-.8-4.2-5.3-5.3-5.6C112.5,390.3,111.8,362.7,111.8,357.6Z"/>
      <path class="cls-1" d="M269.1,277.5l1.8,3.2.7.2c-.7,55.1-2.7,111,4.9,165.6h-1l-.8.7H273l-1.1-1.9-.5-.2a5.3,5.3,0,0,1-5.1,2.1l-.6-1.4-2.4-1.2-.6,2.1-1.6-.4a7.4,7.4,0,0,1-3,.8l-5.8,3.1-.9-.3-.2-1.3-1.4.2.4,1.6a5.4,5.4,0,0,0-2.7,3.9l-2.8,1.6a5.8,5.8,0,0,1-2.8-5.7l-.9-1c0-2.5-2.3-5-4.1-6.4l-.7-3.5-.9-.6c-.3-.8.9-4.5,1.1-5.4a29.3,29.3,0,0,1,1.2-5.3l-.9-1.5c-15.7,1.1-37.1,2.5-53.2,3.2l-.3-.9,1.4-1.7-1.4-2.8a7,7,0,0,0-.7-4.5h1.9l.9-.7v-1.9l-1.1-1.3.2-1.9,2.1.7.2-1.1-1.4-1.9.2-1.9,1.9-.9v-1.6h-1.6l.4-1.4,1.8.3a6.9,6.9,0,0,1,1-4.2h1.3l.8-1.1-1.9-.7v-1.4l1.1-.7,2.2.3v-1.9a11.4,11.4,0,0,0,1.9-3.4l1.8-1.2L195,390h1.8c.5-.2,2.5-3.4,2.8-3.8l-1.6-.7-.3,1.1-2,1.6-1.9-1.1-.2-2.3a47.1,47.1,0,0,0,5.8-.9,10.1,10.1,0,0,1,1.3-3.8,12.6,12.6,0,0,1-3.2-1.8l-.4-2.3-2.1-.9-.5-1.1.5-1,2,1.8.5-1.1-1.9-1.8,1-1.2v-1.2l-.9-.2-2.4.9a9.4,9.4,0,0,1,.1-2.9l1.8-.9V365H194l-.9-.5c-.9-1.6,1-4.9,1.6-6.4l-1.1-.5c-.3.7-1.1,2-1.8,2.1l-1-1v-2c.7-.9,1.9-2.3,1.7-3.7l-1.4-1.4.4-1.1h1l1.1-.8a15.1,15.1,0,0,1,1.1-3.2l-.4-1.3-1.8,1.4-1.4-3,.2-.7c.7-.5,2.3-1.7,2.5-2.6l-1.1-.4-.7,1.3-1,.5-.2-1.2,1.4-1.8-1.1-.7-1,1.6-.7-.6.5-1.7-.9-2.1,2-1.3v-.7a9.9,9.9,0,0,1-1.7-3.2l.9-.5,1.4,1.2,2.1-.3-.4-1.1-1.6-.3v-1.3l1.8-1.6c.5-1.2-.5-3,.4-4.2l-.7-2.1.7-1.3,1,1.3a6.1,6.1,0,0,0,2-4.8l-1.6-1.6,1.6-.7,2.4.5v-1.4l-2.3-.5.2-1.2h1.8l1.1-1.8,1.5-.4c-.1-.7-.7-2.6-.1-3.1a7.3,7.3,0,0,0,3.5-.9l1.1-1.8-.4-2.5,1.1-1.7c.1-.7-.9-2.3-1.3-2.9l1.1-1.7,1.9.8-.5-2.1-1.9-.3v-1.1l1.9.2a7.2,7.2,0,0,0,1.1-3.2,7.3,7.3,0,0,0,4.2-3.7l-1.1-2.3C230.6,280.9,251.1,278.9,269.1,277.5Z"/>
      <path class="cls-1" d="M63.5,78.8c33.4,1.1,67.9-.7,101.1-2.6l.9,1.9h1.2l.9,2.2a6.3,6.3,0,0,1,2.7,3.3l1.9,1.4c-2.3,5-2.3,11.5.7,16.1-.3.7-1,2.5-.5,3.2a18.2,18.2,0,0,1,3.2,5.1c3,2.1,5.6,6,7.2,9.2a23,23,0,0,1,9.2,8.3c0,.9,0,3.2.9,4.1-.7,2.6.7,7.4,3,9.2.7,0,3.2-3.6,3.5-4.1s4.3,1.4,5.5,1.3l2.7,2.1.7,2.1-1.4,1.2a21.8,21.8,0,0,0,.1,5.7,4.7,4.7,0,0,1-1.4,2.8c-.3,1.6-1.2,5.1-2.6,6.2s-.2,4.8.2,6.2a39.9,39.9,0,0,1,4.6,4.6l1.2.3c.5,1.5,3.2,2.9,4.4,3.6l.5,1.9,2.2,1.4,1.6-.5c.8.5,3.5,2.7,4.5,2.8l.9,2.2,3.6,2.4c.5.6.1,2.9,0,3.4.3,2.3,2.4,5.1,3,7.2s-1.8,2.2-2.1,2.5l.3,1.8.9.3c.2,1.1.9,3.6,1.9,4.1a11.7,11.7,0,0,0,2.3,4.6l1.4.3.4-.7-.7-1.2.3-1.2,2.7,3.1c.7-.1,1.8.8,2.3,1.1l.2,2.8c-.4.7-1.4,2.3-1.3,3l1.1.7c.5,2.2-1.6,5.7-.9,7.8l-1.4.7c-.7,0-2.7-2.1-3-2.4-.4,1.4-1.6,5.8-2.7,6.9l-.7-.6a12.2,12.2,0,0,0-.1-3.3l-1.1-.6-1.1,1.4,1.3,1.1a4,4,0,0,0-.7,3l1.2,1.8-.7,1h-.7l-1.4.7,1.6,1.6-.4,1.2-2.5-.5v1.7l1.7.9c.6,1.1-.3,3.7-.7,4.8h-.9l-.7,2.1-6.5.4h-.2c-1.6,0-9.4.8-10.9.6.8-1.6,3-5.7,4.5-6.7v-.9l1.5-.7.3-2.2.7-.5a12.3,12.3,0,0,0,.4-3.9l-1.6-.5-.5-2.5-1.1-1c-29.9,1.7-61,3.3-90.9,4.2v-.2c-3.2.4-9.6.2-12.8.6V230H93.7c-.8-32-1.2-65.2-.7-97.2l-2.3-2.2-1.2.7-2.1-1.2c-.6-1.2-2.7-4.9-2.2-6.4l-1.2-.5c-.5-2.1-3-3.5-4.4-5.1s1.9-5.3,3.4-6.4v-1.4l2.8-.2c-.7-.9-.7-3-.7-4l-1.4-.2-.7-2.1-1.8,1.7-2,.6c-2.3-2.3-4.9-5.3-7-7.6a7.4,7.4,0,0,0-.4-3.9l-1.2-1.1-.4-1.9L69,91.2,68.3,90l-1.8-.7c.9-3-1.2-6.4-3-8.7V78.8Z"/>
      <path class="cls-1" d="M225.3,243.6l.7-2.1h.8c.4-1.1,1.5-3.6.8-4.8l-1.8-.9.2-1.8,2.4.6.4-1.3-1.4-1.7,1-1.6.7.2.7-1.1-1.2-1.8a4.5,4.5,0,0,1,.7-3l-1.2-1,1-1.5,1.1.6a5.3,5.3,0,0,1,.2,3.3l.7.6,1-1.8c10.8-.9,25.3-1.8,35.9-3a15.1,15.1,0,0,0-.9-6h5.7l.5.9c10.3-.2,24.3-3.2,34.3-3,5.7-2.3,14.5-.9,20.7-1.8,17.5-2.8,37.3-2.5,54.8-5.1l.9-.7c14.5-1.5,30.8-3.9,45.1-6.4l.5-.7,6.5-1.1.4.9-1.2,1.8a8.9,8.9,0,0,1-.2,5.6,2.8,2.8,0,0,1,1,2.2h-3a17.6,17.6,0,0,0-3.7,8.5l-1.6,1.6a4.3,4.3,0,0,1-2.6-1,14.9,14.9,0,0,1-4.4,1.7,4.3,4.3,0,0,0-1.3,2.8c-1,1.5-2.6,4.1-4.9,3.6a3,3,0,0,1-.4-2.3l-1.6-.9-3,3.4.2.8-.9,1.3-1-.5-1.3,1,.9,1.8c-.4,1-1.2,3-2.3,3.5s-6,3.4-7.2,5.5l-.7.2a49.9,49.9,0,0,0-4.6,4.6c-5.7-1.1-9.9,2.6-12.6,7.2a15.5,15.5,0,0,1,.2,4.3,8.1,8.1,0,0,1-3.7,2.6l-2-.9-1.2,2c0,.3.3,8.3.2,8.6-34,4.8-70,7.3-104.3,9.8l-.2.7c-18,1.4-38.5,3.3-56.6,4l.2-1.4,1.4-.3.5-1.6,2.5-.4.9-1.9-.3-.9.3-1.3c-.9-1.2-1.6-5.6-1.8-7.2l-1,1.1-1.1-.6v-1l1.3-.9.3-1.3h.9l.2,1.6,1,.6c.9-.6,1.3-3.2,1.4-4.1l1.8-.3a14.5,14.5,0,0,1,1.1-5l-1.4-.4-.8-.8v-1.6l2.8-1.3a10.3,10.3,0,0,1,2.5-2.6l-.4-2.5,2-.5v-1.3l-1.6-1.4Z"/>
      <path id="_08" data-name="08" class="cls-2" d="M208.1,173.9c10.8,9.5-11,29.5,8.3,26.7,3.3.2,15.7-11,12-2.5,6.9-2.3,4.4,11.3,10.3,5.1.5-1,1.6,2.3,2.8.9-2.8-5.5,3.7-7.1,4.8-1,3.1-.6,8.6-1.1,9,4.6,3.5,6.7,5.6,10.7,9.9,16-2.7,2.3,1,9.2.5,14.9-5.3,11.7-3.3,29.2.7,42.8.7,11.8-6.5.3-8.6,9.9-7.5,9.7-6.9,24-5.7,37.4,1.2,10.6-14.1,9.2-14,22-6.2,27.5-21.9,11.8-18.5,46.6.3,4.1-4.6,6.7-5.7,10.6-.9,1.4,1.1.4,1.4,1.4s-.9,2.3.6,1.5c2.1,6,10.6,7.7,4.7,14.8,5.7,2.8,7.1,9.9,12.8,11.3,1.2,2.9,3.3,2.7,4.7,4.6s2.9,11.3,8.2,12c2.3-3.8,2.1,3,4.7,3.2,2,2.7,6.9-7.6,10.3-4.4,17.1.2,7.6,20.5,0,25.8-.9,6.6,9.2,4.4,7.2,10.8-2.8,2.5-4.7,11.8-8.8,6-4.6.7-7.2,12.9-7.1-3.2-4-10.6-29.1,8.2-40.3,5.7-3,.2-7-1.3-4-4.4-11.9-4.6-24.4-6.2-33.1-13.1-15.7,7.1-36.2-14.5-49.7-2.1-3,3-1.9-6.4,1.8-5.2,1.9-1.9.2-6.2,2.6-7.2,0-8-4.4-13.3-.5-20.2,3.4-11.1,14.7-17.3,10.4-29.3-1.4-2,5.9-.5,5.7-4.4.4,1.4,4.4,4.6,3.2.9,2.1-.9,4.9,14.5,5.1,2.8-.2-6.2,10.4,4.4,8.3-2.1-4.6-3.9-2.8-9.1-4.9-13.1-7.3-6-5.3-4.6-9.4-12.6,1.4-22.1-6.9-16.9-7.4-34.3-1.3-7-2.7-23.8-13.1-21.4-1.1-3.3-1.6-6.5-6-5.4-2-2.2.2-10.1-3.2-8.9-2.6-5.5-.3-10.9-4.1-13.1,1.5-3.3-5.1-.3-8.3-10.7,8.3,1.9,15.8-.2,22.3-5.9,1.1-.9,2.8,3.4,4.8,2.2s7.2,1.9,8.5-2.3c11.1-5,13,8.6,20.1,11.8,1.4.4,0,3.9,2,1.8,3.7,1-.4,5.8,4,6.7.6,3.5,4.4-1.3,4.8,0,3.5,2.8-3-15.4-5.5-15.9,1.6-5.2-5.3-2.3-6.2-5.5,2.3-1.6-1.6-1.1.9-2-2.1-1.4,1.6-.5-.9-3.5-1-1,7.1-1.2,2.5-1.9-4.1-3.4,6.2-3.7,3.5-8.7,2.9-5.1,4.3.7,8.3,1.1,1.8-.6,6.9,3.3,11,.3,2.7-4.9.7-11.6,5.7-18.4.1-3.5,1.2-7.2,4.2-9.3s-1.8-4.1,1.4-5.3c1.8-10.6,19.6-15.2,16.8-25.7-2.1-5.6-8.1-5.4-12.2-10.2C198.4,193.7,192.9,177.1,208.1,173.9Z"/>
    </g>
  </g>
</svg>
