<svg xmlns="http://www.w3.org/2000/svg" width="500" height="500" viewBox="0 0 500 500">
  <defs>
    <style>
      .cls-1 {
        fill: none;
        stroke: #999;
        stroke-width: 0.75px;
      }

      .cls-1, .cls-2 {
        stroke-linejoin: round;
      }

      .cls-2 {
        fill: #5c98ff;
        stroke: #fff;
        stroke-linecap: round;
        stroke-width: 2px;
        opacity: 0.5;
      }
    </style>
  </defs>
  <g id="hucs">
    <g>
      <path class="cls-1" d="M229,286.2l.3-2,.8-.2c1.2-1.7,1.3-5.7.4-7.7.9-2.3.4-5.3,1-7.6a5.8,5.8,0,0,0,.2-3.9,3.9,3.9,0,0,0,.1-2.4l.6-1c1.2-.4,3.1-.8,4.1.2a4.8,4.8,0,0,1,2.6.9v1.7a2.3,2.3,0,0,0,2.7.6c3.4-4,4.3-16.2,5.7-21.1,26.6,4.9,53.8,9.6,80.6,13.4-5.9,41.1-12.1,85.5-17.8,127-11.4-1.6-24.8-3.3-36.1-5.6-19.8-11.9-39.8-24.5-59.1-37.2a16.2,16.2,0,0,1,2.2-4.6,7.4,7.4,0,0,1,2.5.3l.8-.3a8.1,8.1,0,0,1,1.7-2.3l.4-2.7-.7-1.3-2-.6-.5-.8c-.3-.9.7-3.3.9-4l-.6-1.2.5-1v-1.1a6.1,6.1,0,0,0,2.4-1.8v-.6l1-.2,1.1-1.8a3.7,3.7,0,0,1,.6-2.2c0-1.8.1-5.4,2.3-5.8,0-.6,1.1-1.9,1.4-2.4a7.1,7.1,0,0,0,4-2.3l1-.2c.4-2-1.9-4.1-3-5.4s-.3-4-.3-5.6l-1.6-2.6.7-.8-.9-1.1C228.9,288.5,228.9,286.9,229,286.2Z"/>
      <path class="cls-1" d="M181,110.8c-4.7,18.9-12.7,48.3-17.2,67.3,21.1,35,43.7,73.2,65.2,108.1a16.1,16.1,0,0,0-.1,3.1l.9,1.1-.7.7,1.6,2.7c0,1.5.4,4,.3,5.5s3.4,3.4,3,5.4l-1,.2a6.8,6.8,0,0,1-4,2.3c-.4.5-1.4,1.7-1.4,2.4-2.3.5-2.4,4-2.3,5.8a3.7,3.7,0,0,0-.6,2.2l-1.1,1.8-1,.2v.7a7,7,0,0,1-2.4,1.7v1.1l-.5,1,.6,1.2c-.3.8-1.2,3.2-.9,4.1l.5.7,2,.7.7,1.2-.4,2.7a12.4,12.4,0,0,0-1.7,2.3l-.8.3c-11.2-1.4-32.6-3.2-43.8-4.7l.4-1.7.7-.7v-.7l-.9-1.2-.8.4-.4-.2a2.5,2.5,0,0,1,.8-1.9l-.6-.8v-.6l.6-.4c1.2-3.4-.3-7.3-1.2-10.5-.3-.4-2-2.7-1.9-3.2a20,20,0,0,1-1.9-2.2c-.4-1.1-1-3.2-2.3-3.5s-2.1-4.1-3.8-4.7h-1.1l-.4.8a4.5,4.5,0,0,1-1.9-1.1l-.2-.9.6-1.1c.1-1.1-.5-2.7-.5-3.8A6.6,6.6,0,0,0,156,293c-1.1-.7-3.2-1.7-3.7-3l-1.3-.2c-.8-.6-1.1-3.5-1.3-4.5s-2.2-2.4-2.6-3.4a4.3,4.3,0,0,0-3.8-1.2c-.6-.3-2-1.1-2.7-1l-1.6-1.2c-2.5-1.6-8.4-.4-8.5-4.3l-1.6-1.1V272a3.1,3.1,0,0,0,1-3.4,3.2,3.2,0,0,1,1.1-1.7l-.5-1.8c.5-1.6,2-3.3,1.6-5.1l-1-.7-.6.2c-.5-1.1-1.9-2.2-1.4-3.6l.7-.7.6.3-.2-3-1.9-.7-1.5-4.2c-1-.9-2.2-2.6-1.4-4l-.5-.4c-.4-1.6-1.8-3-1.4-4.8a2.4,2.4,0,0,0-.7-1.6l-.7-3.1a5.3,5.3,0,0,0-2.1-2.6l-.9-1.9c.4-1.2.9-3.7.3-4.8l.4-.3v-1l1-1.1.9.6.7-.5a16.6,16.6,0,0,0,1.9-4.8,6,6,0,0,0-1.7-3l-.3.4-.6-.5h-1.1a5.1,5.1,0,0,1-2.5-3.7,3.7,3.7,0,0,1-.9-2.6,2.4,2.4,0,0,1-.4-1.8,8.9,8.9,0,0,0,1.1-3.1,4.2,4.2,0,0,1-.2-2.5l-.5-.4a8.3,8.3,0,0,1,.3-2.2l.5-.2.7-3.5a8.2,8.2,0,0,1,2.2.2v1.7l-.8.2a3.6,3.6,0,0,1-.3,2.3,5.8,5.8,0,0,1,2,2.1,6.3,6.3,0,0,1,1.8,2.4l1.1.5.4-.6a4.9,4.9,0,0,1-1.5-1.7,8.7,8.7,0,0,0-1.6-6.3l.6-2.4-1.1-1.1v-.8l1-1.2,1.2.3.5-.4,1.2-.4-1-1,.2-.7-.9-.2-1.1-1.2-.6.7-.8.3-.9,2,.7.8-.8.8v.8l-.5.7v1.1l-.8-.2a3.1,3.1,0,0,0-1.1-1.4l-.4-1h-.6c-.3-.5-1.3-1.5-1.2-2a6.9,6.9,0,0,0-1.9-1.9l-.4.7-.8-.2c.4-1.1,1.8-2.3,1.7-3.5h1.1a4.5,4.5,0,0,0-1-3.4h-.6c.2-5.5-1.5-3.5-2.7-7.2-.1-1-.1-2.9-1.1-3.6s-1.3-2.4-1.1-3.5a5.7,5.7,0,0,1-1.3-2.7l1.4-2.3a19.3,19.3,0,0,1,.4-8.6,14.3,14.3,0,0,0,2.3-4.8,5.7,5.7,0,0,1,.2-3.4l-.5-1.3-.6-.4c.4-1.9-1.6-4.5-1-6.4-1-1.3-2-3.5-2.9-5s.6-1.2.8-1.5a2.7,2.7,0,0,0-.2-2c1.5-4.4,6-7.7,8.3-11.6v-2.9l.8-1.2.7.2a5,5,0,0,1,1.2-2.8c.6-1.1,1.4-3.4,1.1-4.6l.5-.7a3.9,3.9,0,0,1-.1-2.4,5.7,5.7,0,0,0-.9-3.3c-.2-.7,1.5-3.5,1.9-4.1C139.6,99.7,161.4,105.5,181,110.8Z"/>
      <path class="cls-1" d="M247.4,243.8c-1.5,4.9-2.3,17.1-5.7,21.2a2.7,2.7,0,0,1-2.7-.7v-1.6a4.2,4.2,0,0,0-2.6-1c-1.1-1-2.8-.7-4.1-.1l-.6.9a5.3,5.3,0,0,1-.1,2.5,5,5,0,0,1-.2,3.8c-.7,2.3-.1,5.4-1,7.7.9,1.8.8,5.9-.4,7.6l-.8.2-.3,2c-21.5-34.8-44.2-73-65.2-108.1,4.5-18.9,12.4-48.4,17.2-67.2,27.5,7.2,60,14.2,88,20C262.2,167.8,254.3,206.9,247.4,243.8Z"/>
      <path class="cls-1" d="M426,267.5l-.7,11.9h-.8c-2.2,31.5-5.6,70.3-8.1,101.6-19.7-1.5-42.4-3.4-62-5.8l-.4.3a7.7,7.7,0,0,1-.1,2.6,8.5,8.5,0,0,0,1.4,2.1L326,376.5c-.3,1.6-1.2,7.8-1.4,9.7a142.4,142.4,0,0,1-14.4-2c5.6-41.5,11.9-85.7,17.8-127l25.6,3.4.3.3C377.5,263.1,402.3,266.9,426,267.5Z"/>
      <path class="cls-1" d="M269,130.9c13.8,2.8,30.9,5.7,44.7,8-1,5.5-2.9,17.2-3.8,22.8l30.5,4.6c-4.3,29-8.7,61.7-12.4,90.9-26.8-3.7-54-8.5-80.6-13.4C254.3,206.9,262.2,167.8,269,130.9Z"/>
      <path id="_15" data-name="15" class="cls-2" d="M241.6,186.3c5.1,7.4-2.7,12.8-.8,16.8.8,1.2-.8,1.7-1.1,2.8s.8,1.7-.8,2.4.8,1.6.8,2.4c-1.9,3.6-1.6,9.6-4.2,13.1s-1.3,6.3-1.5,8.9c.5.9.7-.2,1.5.5s1.6.6,1.9-.8,2.3-3.1,1.4-5a4.5,4.5,0,0,0,1.3-2.3c.5-1.7,2.5-.9,2.3-1.7.5-3.4,1.3-7.1.7-10.6-.3-.7.7-1.5.8-2.3,0,1.5,2.3.3,3.1,1.2,1.8,2.5.9-.8,2.3-2.1,2,2.2,4.3,5.7,2.3,9.5.5,1.4-.4,1.8-1.4,2.3-.1,2-1.3,1.8-2.2,3.1s1.3,1.6,2.3,2.4-.6,1,.7,2c0,5.1,3.1.3,3.5,3.1,4-1.4,1.4,1.5,3.6.6,1,1.5,2.7-2.2,3.7-1.9s3,.5,3.8,1.8c.7-1.1.9.5,1.8-1.1.8,1,1.9,0,2.2,1.8,2.4,2.4.3,2.6,2.3,3.4a2,2,0,0,1,3.2-1c2-.9,1.2.7.8,1.6,2.6-.1.4,2.7,1.7,4.2s-.5,2.6.3,3.6,1.8,1.6.7,2.5c-1.1,3.4,1,5.3,3.2,6.7s1.5-1.1,2.3-1.7c2.4-2,3.1-.1,1.8,2.5-.8,1-.2,1.8.5,2.6s-.7,3,.4,1.2c2.2-3.6,2.4,4,3.2,1.5,4.5-.2,2.2,2.5,5.8.6.6-1.2,1.1-.4,2-.9s1.8-1.5,2.8-2.3,1.3-1.3,2.3-1.2-.4,2,.1,2.5a3.9,3.9,0,0,1,.3,3c.8,0,2-3,3.7-1.6s.3,3.3,1.8,4.1,1.8-.1,2.8,1.3.3.5.6.8,1.6.5,1.3,1.7c1,3-2.7,3.6-2.9,6.1,1.6,2.1.2,5.6,1.6,6.7-.3.9,1.3.6,1.1,1.5s.8-1.1,1.2,0,1.3-.6,1.8-1.3,2.2,0,3.4-1.2,3.8.3,5.3-2.6c3.1,3.3,2.6-2.1,4,0s-.7.6-.4,1.1-.9,2-1.9,3-.1,2.8.1,3.7,2.4,1.1,2.7,2.4,1.4-1.6,2.4-1.9a8.8,8.8,0,0,1,4.4,1.9c5.3,0,2,2.1.5,4.6s-4,5-1.3,6.6a3.4,3.4,0,0,1,1.9,2.5c.3.4,2.2,1.6.2,1.6-1.6,1.7-2.2,3.4-3.9,4.7.2.5-.3,3.2-.7,2.1s-1.9,3.2.2,2.8c0,.9-.4,2.3.8,2.7s1.1,1.5,2.4,2.7.2.5-.4,1.1-1.8,2.2-2.3,3.2-2.9,1.9-3.7,2.5a7.5,7.5,0,0,1-1.1,3c1.1,1.3-.9,1-.8,2.3s-1.5.5.4,2.9c-1.4.8-2.2.9-.2,1.4s2.2-1.1,3.3-1.2,4.2.7,4.5-1,1.5.4,2,.1.8-.3,1,.4.3.6.3,1.3.4,1.1-.2,1.6-2.6,3.4-.8,4.9c-.9.9-.1,2.7-1.3,3.7.9.6-.9,2.2-2,2-2.7,5.4-8.8,4.3-7.1,6.2,0,3-4.5,4.6-1.2,7.3s.3,7,1.6,10.1c-.8,1,0,1.7-.8.8s-1.5.6-1.9-.2c-3,1.2-2.4-1-3.7-2.9-4.5-.9-1.5,1.6-3.5,4.2.1,1.7.8,4.7-.7,6s.4.7.9.6a2.4,2.4,0,0,0-.9,1.3c-3.4-.7.8,2.8-3.8,8.9.5,4.9-2.9,0-4.4,4.6-1.1-.1-2.1.7-3.3,1.3s-2.6-1-4.4-.5-.5,3.9-2.5,4.4c-.5.2,1,2.1.1,2.5s-.2.3-.5.5-4.6-6.2-3.8-8.7-2.1-1.8-1.2-3.7c-1.7-1.2-6.1-1-7.7-.9,0,2.1-3.4,1.8-2.8,3.8-2,1.4-2,4-4.7,2.6-.1,2.6-2.1,3.9-2.4,6.4-.7.9-3.5,1.4-4.6,2.6s-3,2.8-3.1,4.7-.2,1-.3,1.8c-.5-1.2-2.8-.2-3.6.9.3-1.3,1.2-6.7-.2-5.9-2.7-1.1-4.1,3.3-10-.8-3.6.9-2,0-6-1.6-.9.1-2.2.8-.8-.3-.2-.7-.9-1.9-.5-2.8a1.5,1.5,0,0,0,2.3-.4c-.1-3.4-.5-6.7-2.9-8.6-.5-2.3-1.4-.8-3-.9-3.4.5-5.2,3.1-6.2-2.7-.9-4.2,2.3-9.2,1.7-11.7-.5,1.5-1.4-2.1-2.2-1.5-2.5-1.5-7-2.3-5.9-4.5.7-4.5-5.1-6.5-6.6-4.2s-6.9-5.2-9.2-7.6c-2.3,0-1.5-1.6-2.6-1.9s-.5.6-.9,1.4c1,4.5-1.9-.3-4.3,0s-3.4,1.2-1.2-1c-.3-.2-1.1-2.2.1-2.2a15,15,0,0,1-1.6-7.1c.1-1.1-2.5-1.7-1-2.8s.2-1.1.6-1.5-1.1-.8.2-1c4.7-2.8,7.8-.3,11.9-4.3a5,5,0,0,0,.6-5.3c1.6-.5,1.9-1.9,1-2.7a8.7,8.7,0,0,0-2.5-3.5c-1.4.5-1.8-1.2-2.9-1.7s-1.5-5.8-1.9-7.4,1.6.6,1,1.3c1.3,1.6,4.6,3.1,5.9,1.9a6,6,0,0,0,1.5-7.9c.2-.8,2.2-3,3.6-1.7s1.5-1.3,1.9-2.7-2.1-4.5-2.2-7.1,1.4-1.8.8-3,1.8-5.3,2.1-7.8-1.2-2.7-2.8-3.5-.5-2.7-1.6-3.5.4-.8.6-.6-5.2-4.4-1.1-5.4c1.5-.6,3.8-3.1,2.3-5.4,1.2.2,3-.2,3.3,1.5,2,2.9,2.9-3.1,2.4-4a6.5,6.5,0,0,0,3-5.3c-1.1.9-1.1-1.9-2.5-.9s-1.8,1.6-3.6,2.7c-.1-1.3-.7-1.7-1.7-1s-1.6-1.7-2-1.1-1-1.2-1.2-1.6-1.7-.3-1.3-1.4.2-2.8.6-3.6c-1.7-4.3-3.2-2.5-.2-8.7,4-4.3,1.4-6.1,7.7-3,2.8,2.6,4.7-10.4,1.8-10-.1-2.9-2.9-9.1.5-12.2,2.1.5,1.2-2,2.9-2.8s.4-1.5,1.3-1.2c.8-1.4,2.5-2.6,1.4-4.2s-2.1-3-2.1-4.7c-1.9-1.2-3.5-3.7,0-4.1.8-1.1-.3-1.3.7-2.6s1.7-3.3,2.2-5.1-3-3.1-.5-5.7C235.4,186.8,236.8,194.5,241.6,186.3Z"/>
    </g>
  </g>
</svg>
