<?xml version="1.0" encoding="utf-8"?>
<!-- Generator: Adobe Illustrator 24.0.1, SVG Export Plug-In . SVG Version: 6.00 Build 0)  -->
<svg version="1.1" id="Layer_1" xmlns="http://www.w3.org/2000/svg" xmlns:xlink="http://www.w3.org/1999/xlink" x="0px" y="0px"
	 viewBox="0 0 432 432" style="enable-background:new 0 0 432 432;" xml:space="preserve">
<style type="text/css">
	.st0{fill:url(#SVGID_1_);stroke:url(#SVGID_2_);stroke-miterlimit:10;}
	.st1{fill:none;stroke:#000000;stroke-miterlimit:10;}
	.st2{fill:#6BB45E;}
	.st3{fill:#C79652;}
</style>
<linearGradient id="SVGID_1_" gradientUnits="userSpaceOnUse" x1="0.7995" y1="216" x2="432.7995" y2="216">
	<stop  offset="0" style="stop-color:#6BB45E;stop-opacity:0.3"/>
	<stop  offset="0.9837" style="stop-color:#C59652;stop-opacity:0.3"/>
	<stop  offset="1" style="stop-color:#C79652;stop-opacity:0"/>
</linearGradient>
<linearGradient id="SVGID_2_" gradientUnits="userSpaceOnUse" x1="0.2995" y1="216" x2="433.2995" y2="216">
	<stop  offset="0" style="stop-color:#FFFFFF"/>
	<stop  offset="1" style="stop-color:#000000"/>
</linearGradient>
<rect x="0.8" class="st0" width="432" height="432"/>
<g>
	<polygon class="st1" points="52.8,118.2 48.9,116 43.5,125.3 40.3,123.4 44.8,115.5 41.1,113.3 36.5,121.2 33.5,119.5 38.7,110.5 
		34.8,108.2 26.6,122.2 44.6,132.6 	"/>
	<polygon class="st1" points="66.1,99.7 62.4,96.9 56.6,104.8 43.7,95.3 40.2,100 56.8,112.3 	"/>
	<polygon class="st1" points="80.8,83.4 77.4,80.2 70.7,87.5 58.9,76.7 55,81 70.2,94.9 	"/>
	<polygon class="st1" points="97.8,68.2 94.8,64.8 86.7,71.9 84.2,69 91.1,63 88.3,59.7 81.3,65.8 79,63.1 86.9,56.3 83.9,52.9 
		71.7,63.5 85.3,79.1 	"/>
	<polygon class="st1" points="108.2,35.7 103.5,38.9 109.6,48.1 95.9,44 91.9,46.7 103.4,63.8 108.1,60.7 102,51.5 115.7,55.6 
		119.7,52.9 	"/>
	<polygon class="st1" points="134.4,35.9 139.1,33.9 141,38.4 145.2,36.6 143.2,32.1 147.8,30.2 146.1,26.2 141.5,28.2 139.6,23.7 
		135.4,25.5 137.4,30 132.7,32 	"/>
	<polygon class="st1" points="175,25.6 174.1,21.9 183.1,19.8 182.1,15.5 173.1,17.7 172.4,14.2 182.5,11.9 181.5,7.5 165.7,11.2 
		170.4,31.3 186.5,27.5 185.5,23.1 	"/>
	<path class="st1" d="M207.3,18.4c2.4-1.5,3.7-3.9,3.3-6.9c-0.5-4.7-4.3-7.2-9.9-6.6l-9.4,1l2.2,20.5l5.8-0.7l-0.6-5.5l3.2-0.3
		l4.3,5.1l6.2-0.7L207.3,18.4z M201.5,15.4l-3.2,0.3l-0.6-6l3.2-0.3c2.4-0.3,3.7,0.7,3.9,2.7C205,13.9,203.9,15.2,201.5,15.4z"/>
	
		<rect x="219.1" y="3.6" transform="matrix(1 -9.051581e-03 9.051581e-03 1 -0.117 2.0101)" class="st1" width="5.8" height="20.7"/>
	<path class="st1" d="M249.1,18.8c-1.4,1.4-3.1,2.2-5.1,2c-3.4-0.3-5.5-2.8-5.2-6.4c0.3-3.5,2.9-5.7,6.3-5.4c2,0.2,3.5,1.1,4.6,2.8
		l4-3c-1.8-2.7-4.7-4.3-8.5-4.6c-6.5-0.6-11.7,3.5-12.2,9.7c-0.5,6.2,3.9,11.1,10.4,11.6c3.8,0.3,7-0.8,9.2-3.1L249.1,18.8z"/>
	<path class="st1" d="M269.1,8.1l-13.3,18.3l5.8,1.3l2.4-3.6l8.5,1.9l0.7,4.3l5.9,1.3l-4.5-22.2L269.1,8.1z M266.7,20.2l4-5.9l1.2,7
		L266.7,20.2z"/>
	<path class="st1" d="M94.8,383.6l4,2.9l3-1.9l5.8,4.2l-0.9,3.5l4,3l4-18.2l-3.8-2.8L94.8,383.6z M108.5,385.2l-3.5-2.6l5-3.1
		L108.5,385.2z"/>
	<path class="st1" d="M131.2,387.6l-6.8-3.8l-8.4,14.8l4.2,2.4l2.2-3.9l2.3,1.3l0.5,5.5l4.5,2.5l-0.6-6.5c2.4,0.1,4.4-0.9,5.6-3
		C136.6,393.4,135.2,389.9,131.2,387.6z M130.5,394.4c-0.8,1.4-2.1,1.7-3.8,0.7l-2.3-1.3l2.5-4.3l2.3,1.3
		C130.9,391.7,131.3,393,130.5,394.4z"/>
	<polygon class="st1" points="136.1,409.4 148.7,414.8 150.1,411.4 142,407.9 143.2,405 150.1,408 151.6,404.7 144.6,401.7 
		145.8,399 153.6,402.5 155.1,399 142.8,393.8 	"/>
	<path class="st1" d="M178.2,409.9c1.6,0.4,2.7,1.3,3.5,2.8l3.6-2c-1.1-2.4-3.4-4-6.5-4.8c-5.4-1.3-10.1,1.3-11.3,6.3
		c-1.2,5,1.7,9.5,7,10.8c2.4,0.6,5.2,0.5,7.5-0.4l1.7-6.8l-4.2-1l-1.1,4.5c-0.9,0.2-1.8,0.1-2.7-0.1c-2.8-0.7-4.2-3.1-3.5-5.9
		C173,410.6,175.4,409.2,178.2,409.9z"/>
	<polygon class="st1" points="189.4,425.9 203,427.7 203.5,424 194.6,422.8 195.1,419.7 202.5,420.7 203,417.1 195.5,416.2 
		195.9,413.3 204.4,414.4 204.9,410.8 191.6,409 	"/>
	<polygon class="st1" points="209.1,414.9 214.3,415.1 214,428.3 218.8,428.4 219.2,415.2 224.4,415.4 224.5,411.6 209.2,411.1 	"/>
	<polygon class="st1" points="243.1,410.4 227.9,411.5 228.2,415.3 233.4,414.9 234.3,428.1 239.1,427.8 238.2,414.6 243.4,414.2 	
		"/>
	
		<rect x="249.2" y="409.2" transform="matrix(0.9887 -0.1498 0.1498 0.9887 -59.744 42.4107)" class="st1" width="4.8" height="17"/>
	<polygon class="st1" points="270.3,405.2 272.5,414 263,407 259.1,407.9 263.2,424.5 267.8,423.3 265.6,414.5 275.1,421.5 
		278.9,420.6 274.8,404.1 	"/>
	<path class="st1" d="M294.4,405.8l1.7,4.4c-0.7,0.7-1.4,1.1-2.3,1.4c-2.7,1-5.2-0.1-6.2-2.8c-1-2.8,0.1-5.3,2.8-6.3
		c1.5-0.6,3-0.5,4.5,0.3l1.9-3.7c-2.3-1.3-5.1-1.4-8.1-0.3c-5.2,1.9-7.6,6.8-5.7,11.6c1.8,4.8,6.8,6.9,11.9,5
		c2.3-0.9,4.6-2.5,5.9-4.6l-2.5-6.6L294.4,405.8z"/>
	<polygon class="st1" points="323.6,381.4 323.8,392.9 313.6,387.6 310.2,389.6 319,404.2 322.8,401.8 318.3,394.3 325.7,398.2 
		327.5,397 327.4,388.5 332.1,396.2 335.9,393.9 327,379.4 	"/>
	<path class="st1" d="M336.3,372.2l4.8,18l3.8-3.1l-1-3.4l5.6-4.5l3.1,1.7l3.9-3.1l-16.5-8.6L336.3,372.2z M346.2,377.3l-3.4,2.7
		l-1.7-5.6L346.2,377.3z"/>
	<path class="st1" d="M364.3,355.1c-2.8-2.7-6.5-2.4-9.8,1l-5.5,5.5l12.1,12l3.4-3.4l-3.2-3.2l1.8-1.8l5.4,1l3.6-3.7l-6.4-1.1
		C366.5,359,366.1,356.9,364.3,355.1z M360.5,362.4l-1.9,1.9l-3.6-3.5l1.9-1.9c1.4-1.4,2.8-1.5,3.9-0.4
		C362,359.7,361.9,361,360.5,362.4z"/>
	<path class="st1" d="M377.9,338.3c-3.1-2.4-6.8-1.6-9.6,2l-4.8,6.1l13.4,10.5l3-3.8l-3.5-2.8l1.6-2.1l5.5,0.4l3.2-4l-6.5-0.4
		C380.6,342,379.9,339.9,377.9,338.3z M375,346.1l-1.7,2.1l-3.9-3.1l1.7-2.1c1.2-1.6,2.6-1.8,3.8-0.8
		C376.1,343.1,376.2,344.5,375,346.1z"/>
	
		<rect x="382.2" y="323.8" transform="matrix(0.5491 -0.8358 0.8358 0.5491 -104.3247 471.2824)" class="st1" width="4.8" height="17"/>
	<polygon class="st1" points="396.2,322.3 393.5,320.8 397.1,314.2 394,312.4 390.4,319.1 387.8,317.7 391.9,310.2 388.7,308.4 
		382.3,320.1 397.3,328.2 403.8,316.2 400.5,314.5 	"/>
	<path class="st1" d="M405.8,290c-4.9-2-9.4,0.4-11.5,5.6l-3,7.5l15.8,6.4l3-7.5C412.2,296.8,410.6,291.9,405.8,290z M406.4,300.7
		l-1.1,2.8l-8.6-3.5l1.1-2.8c1.1-2.7,3.4-3.8,6.1-2.7C406.6,295.6,407.5,298.1,406.4,300.7z"/>
	<path class="st1" d="M81.5,369.5l0.6-1.1c0.7-1.2,1.2-2.3,1.5-3.4c1.2-4.2,0.2-8-3.1-11.1c-1.9-1.8-3.8-2.9-5.7-3.3
		c-1.6-0.3-3.4-0.2-5.3,0.4c-1.1,0.4-2.2,0.9-3.4,1.6l-1.1,0.7l-4.3-4.6c-0.5-0.6-1.1-1.2-1.6-1.9l-0.7-0.9l0.8-0.9
		c1.9-2.3,5.8-8.2,0.7-14.5c-2.8-3.7-6.3-5.3-10.6-4.6c-1.5,0.2-2.8,0.7-3.6,1l-1.1,0.4l-0.7-1c-0.7-1-1.1-1.7-1.2-1.8l-0.1-0.2
		c-0.5-0.7-1-1.5-1.4-2.3l-1.8-3.2l0.9-0.8c0.6-0.6,1.6-1.5,2.5-2.8c2.4-3.5,2.6-7.5,0.5-11.4c-3.6-7.5-10.5-6.6-13.4-5.9l-1.2,0.3
		L28,297c-1-2.3-2.1-4.8-2.5-5.9c-0.2-0.5-0.2-0.7-0.3-0.9l-0.6-1.2l1.1-0.7c1.1-0.7,2.1-1.5,2.9-2.4c1.3-1.4,2.2-2.9,2.6-4.5
		c0.3-1.1,0.3-2.1,0.3-3.1c0-1.2-0.2-2.4-0.6-3.6c-2.4-7.8-9.5-8.1-12.4-7.9l-1.3,0.1l-2.3-9.7l1.2-0.5c1.1-0.5,2.3-1.1,3.2-1.9
		c3.4-2.7,4.8-6.4,4.2-10.7c-0.7-4.4-3.1-7.4-7.4-8.9c-1.1-0.4-2.3-0.6-3.6-0.7l-1.3-0.1l-0.8-9.9l1.2-0.3c1.3-0.3,2.5-0.8,3.5-1.3
		c4-2.1,5.9-5.5,5.9-10c-0.2-4.6-2.1-7.9-5.8-9.9c-1-0.5-2.2-1-3.5-1.3l-1.2-0.3l0.1-1.2c0.1-1,0.1-2.1,0.1-2.5l0.1-1.1
		c0.1-1.3,0.2-2.5,0.3-3.8l0.1-1.3l1.3-0.1c2.9-0.2,9.9-1.5,11-9.6c0.8-4.5-0.6-8.2-4-10.8c-0.9-0.7-2-1.3-3.3-1.9l-1.1-0.5l0.3-1.2
		c0.6-2.6,1.3-5.6,1.8-7l0-1.6l1.6,0.3c1.3,0.1,2.6,0,3.8-0.2c1.9-0.3,3.5-1,4.8-2.1c0.3-0.2,0.6-0.5,0.9-0.7c1.2-1.1,2.1-2.5,3-4.8
		c2.9-8.1-3.5-13.2-7.3-14.7l-1-0.4l-0.8,2l1,0.4c3.4,1.4,8.4,5.5,6,11.9c-0.9,2.3-1.8,3.7-3,4.6c-1,0.8-2.3,1.4-3.9,1.7
		c-2.6,0.5-5-0.1-5.1-0.2l-1.1-0.3l-0.3,1.1c-0.2,0.8-0.5,1.7-0.7,2.5c-0.5,1.8-1.7,6.4-2.3,9.4h0l-0.2,1l1.6,0.4
		c1.6,0.5,3,1.2,4.1,2.1c2.8,2.1,3.8,5,3.2,8.8c-0.8,6.3-6.3,8.1-10.8,7.8L9.8,189l-0.2,1c-0.4,2.4-0.5,4.8-0.7,7.2l-0.4,6.2
		l1.7,0.2c2,0.3,3.4,0.9,4.2,1.4c3,1.6,4.5,4.2,4.6,8c0.1,3.7-1.5,6.3-4.7,8c0,0-3.1,1.4-4.9,1.4l0,0l-1.1,0.1l1.3,14.4l1.1-0.1l0,0
		c1.6-0.3,4.5,0.5,4.9,0.6c3.5,1.3,5.4,3.7,6,7.2c0.6,3.6-0.5,6.5-3.4,8.7c-2.1,1.6-4.4,2.2-4.5,2.2l-1.3,0.3l2.8,12.2l0,0l0.5,1.7
		l1-0.3c3.5-0.9,10-0.6,12.1,6c0.4,1.2,0.5,2.2,0.5,3.1c0,1,0,1.7-0.2,2.4c-0.3,1.3-1,2.5-2.1,3.6c-1.8,1.9-4,2.8-4.1,2.9l-1.1,0.4
		l0.4,1c0.4,1,0.8,2.1,1.2,3.1c0.4,1,1.4,3.4,2.4,5.7l1.5,3.4l1-0.4c3.1-1.4,9.7-2.3,12.8,4.1c1.7,3.3,1.6,6.3-0.4,9.1
		c-1.5,2.2-3.5,3.5-3.6,3.5l-1,0.6l2.9,5c0.5,1,1.1,1.8,1.7,2.7c0.3,0.4,2,2.9,3,4.5l1.3-0.8c0.7-0.4,2.4-1.2,4.4-1.5
		c3.4-0.5,6.2,0.7,8.5,3.8c4.3,5.4,0.8,10.8-2,13.2l-0.8,0.7l2.1,2.6c0.5,0.7,1,1.3,1.7,2l5.8,6.2l0.8-0.7c0,0,0,0,0,0
		c0,0,1.8-1.7,4.4-2.5c1.5-0.5,2.9-0.6,4.2-0.3c1.6,0.3,3.1,1.2,4.7,2.7c2.7,2.6,3.5,5.5,2.5,8.9c-0.7,2.5-2.3,4.4-2.4,4.5l-0.7,0.8
		l0.8,0.7c2,1.7,4.1,3.5,6.2,5.2l1.4-1.7c-1.5-1.2-3-2.4-4.4-3.7L81.5,369.5z"/>
	<path class="st1" d="M423.6,207.3l-1.1,0c-3.6,0-9.8-2-10.2-9.6c-0.4-3.9,0.9-6.9,3.9-8.9c0.8-0.6,2.2-1.3,4.2-1.8l0,0l1.5-0.2
		l-0.1-1.1c-0.2-2.5-0.6-4.9-1.1-7.3l-1.3-6.8l-1.1,0.2l0,0c-1.4,0.4-3.8,0.1-5-0.3c-1.6-0.5-2.8-1.2-3.8-2.2
		c-1.3-1.2-2.3-2.9-2.8-5.1c-1-3.7-0.2-6.9,2.4-9.5c1.9-1.8,4.1-2.6,4.2-2.7l1.1-0.4l-5-14.4l-1,0.4c-4.3,1.5-10.2,0.9-12.8-5.5
		c-1.7-3.6-1.5-6.8,0.6-9.7c1.2-1.7,2.8-2.8,3.6-3.3l0.2-0.1l1-0.5l-0.5-1c-0.3-0.5-0.5-1.1-0.8-1.6l-0.3-0.7
		c-0.4-0.8-0.8-1.6-1.2-2.4l-2.3-3.9l0,0l-2.3-3.8l-0.9,0.5l0,0c-0.8,0.5-2.8,1.3-4.9,1.4c-3.4,0.3-6.2-1.2-8.6-4.6
		c-2.3-3.3-2.6-6.5-0.9-9.9c1-2.1,2.6-3.5,3.1-3.9l1-0.8l-9.5-11.8l-0.9,0.8c0,0-0.5,0.4-1.2,0.8c-0.7,0.4-1.8,1-3.3,1.4
		c-3.6,0.9-6.7-0.1-9.4-3c-2.7-3-3.6-6.2-2.6-9.6c0.8-2.5,2.3-4.3,2.4-4.4l0.8-0.8l-0.8-0.8c-2.2-2.1-5-4.5-7.5-6.7l-3.1-2.6
		l-0.7,0.8c-0.4,0.5-1.9,2-4.1,3c-3.2,1.4-6.5,0.9-9.7-1.4c-3.2-2.3-4.6-5.3-4.2-8.9c0.3-2.7,1.6-4.7,1.6-4.8l0.6-0.9l-0.9-0.6
		c-1.4-1-2.9-1.9-4.3-2.8c-1.2-0.7-3.1-1.9-4.6-2.7l-3.2-1.9l-0.8,1.2c-0.3,0.4-1.5,2.1-3.3,3.3c-3,2-6.2,2-9.8,0.2
		c-3.5-1.7-5.5-4.4-5.7-8c-0.1-1.8,0.3-4,0.8-5l0,0l0.4-1l-9.1-3.7l-0.8,2.1l7.1,2.9l-0.2,1.2c-0.3,1.3-0.4,2.6-0.3,3.8
		c0.2,4.3,2.6,7.8,6.9,9.8c4.3,2.2,8.4,2.1,12-0.4c0.8-0.5,1.5-1.1,2.3-1.9c0.2-0.2,0.4-0.4,0.5-0.6l0.8-1l1.1,0.7
		c1.5,0.9,3.5,2.1,4.7,2.9l0.4,0.2c0.7,0.4,1.3,0.8,2,1.3l1,0.7l-0.5,1.1c-0.3,0.8-0.8,2.1-1,3.7c-0.5,4.4,1.2,8,5.1,10.9
		c3.9,2.9,7.9,3.4,11.9,1.7c1.1-0.5,2.2-1.2,3.2-2l1-0.8l1,0.8c2.2,1.9,4.5,3.9,6.2,5.5l0.9,0.8l-0.7,1.1c-0.7,1.1-1.2,2.3-1.6,3.4
		c-1.2,4-0.1,8.1,3.1,11.7c3.3,3.5,7.2,4.7,11.5,3.6c1.6-0.4,2.8-1,3.6-1.4l1.1-0.6l6.6,8.5l-0.8,0.9c-0.9,1-1.5,2-2,3.1
		c-2,4.1-1.6,8.2,1.1,12.1c2.8,3.9,6.5,5.8,10.6,5.5c1.6-0.1,2.9-0.5,3.7-0.8l1.2-0.4l3.4,5.8c0.5,0.9,0.9,1.7,1.3,2.5l0.5,1.1
		l-0.9,0.8c-1.1,0.9-2,1.8-2.7,2.8c-2.6,3.5-2.9,7.6-0.9,11.9c3.3,8.1,10.4,7.8,13.3,7.3l1.3-0.2l3.5,10.2l-1.1,0.6
		c-0.8,0.4-1.9,1.1-3,2.2c-3.1,3.2-4.2,7.2-3,11.6c0.7,2.5,1.8,4.6,3.4,6.1c1.3,1.3,2.9,2.2,4.7,2.8c1.2,0.3,2.4,0.5,3.8,0.5l1.2,0
		l0.7,3.7c0.4,2,0.7,3.9,1,5.8l0.2,1.2l-1.2,0.4c-1.3,0.4-2.4,1-3.4,1.7c-3.6,2.5-5.3,6.2-4.8,10.9c0.4,8.7,7.2,10.9,10.1,11.4
		l1.2,0.2l-0.1,10.8l-1.2,0.2c-1.3,0.2-2.5,0.6-3.6,1.1c-4,1.9-6.3,5.4-6.7,10c-0.2,2.6,0.2,5,1.2,6.9c0.8,1.7,2,3,3.6,4.2
		c1,0.7,2.1,1.3,3.3,1.7l1.1,0.4l-0.2,1.7c-0.2,1.2-0.3,2.3-0.4,2.6c-0.3,1.7-0.5,3.4-0.9,5.1l-0.3,1.2l-1.2,0c-2,0-6,0.3-8.9,3.3
		c-1.3,1.3-2.5,3.2-3.1,5.9c-2.7,8.9,3.9,13.8,7.8,15.1l1,0.3l0.7-2.1l-1-0.3c-4.3-1.6-8.5-5.8-6.4-12.5c1.5-6.6,7.3-8.1,11.7-7.3
		l1,0.2l0.3-1c0.7-2.5,1.1-5.2,1.4-7.6l0.6-4h0l0.4-2.4l-1.6-0.3c-1.6-0.4-3-1-4.1-1.9c-1.3-0.9-2.2-2-2.9-3.4
		c-0.8-1.6-1.2-3.4-1-5.7c0.3-3.8,2.2-6.6,5.4-8.2c2.4-1.1,4.8-1.1,4.9-1.1l1.1,0l0.2-13.1l0,0L423.6,207.3z"/>
</g>
<rect x="492.8" y="82.6" class="st2" width="110" height="110"/>
<rect x="492.8" y="246.6" class="st3" width="110" height="110"/>
</svg>
